<svg height="511pt" viewBox="-39 0 511 511.99949" width="511pt" xmlns="http://www.w3.org/2000/svg"><path d="m294.941406 267.03125 42.25-51.652344c27.949219-34.167968 35.128906-80.828125 18.738282-121.820312-20.382813-50.988282-69.636719-83.558594-123.429688-83.558594-53.84375 0-103.066406 32.617188-123.429688 83.558594-16.53125 41.351562-10.679687 88.292968 15.519532 124.3125l34.050781 46.078125-.351563.261719-147.789062 147.789062 90 90 124.007812-148.878906 109.992188 148.878906 90-90zm-122.34375-137.121094c33.011719-32.910156 86.34375-33.019531 119.480469-.320312-6.925781 8.367187-7.832031 8.40625-62.957031 63.789062-55.011719-61.640625-52.75-58.832031-56.523438-63.46875zm0 0" fill="#ff637b"/><path d="m3.429688 419.070312 90 90c4.175781 4.175782 11.007812 3.828126 14.753906-.671874l115.855468-139.085938 102.417969 138.628906c3.632813 4.917969 10.789063 5.453125 15.113281 1.128906l90-90c3.753907-3.75 3.921876-9.777343.386719-13.734374l-123.863281-138.59375 36.835938-45.03125c30.25-36.980469 38.023437-87.507813 20.285156-131.863282-15.4375-38.613281-46.597656-68.0625-85.019532-81.664062-5.207031-1.84375-10.921874.882812-12.765624 6.089844-1.84375 5.207031.882812 10.921874 6.089843 12.765624 14.324219 5.070313 27.386719 12.628907 38.894531 22.472657-.851562 23.476562-8.472656 46.28125-21.832031 65.519531-16.558593-12.882812-36.785156-19.886719-58.070312-19.886719-.082031 0-.164063 0-.246094.003907-21.328125.050781-41.589844 7.113281-58.132813 20.082031-13.183593-19.371094-20.714843-42.238281-21.554687-65.722657 11.511719-9.847656 24.578125-17.398437 38.902344-22.46875 5.207031-1.84375 7.933593-7.558593 6.089843-12.765624-1.84375-5.207032-7.558593-7.933594-12.765624-6.089844-38.320313 13.566406-69.542969 42.949218-85.019532 81.664062-17.8125 44.558594-11.488281 95.125 16.761719 133.964844l28.894531 39.101562-142.011718 142.015626c-3.90625 3.90625-3.90625 10.234374 0 14.140624zm343.214843-321.796874c15.03125 37.597656 8.445313 80.425781-17.195312 111.773437l-34.847657 42.601563-51.726562-57.882813 47.875-47.875c21.277344-21.277344 34.917969-48.414063 39.765625-77.195313 6.597656 8.703126 12 18.253907 16.128906 28.578126zm-68.796875 33.207031c-.414062.421875-48.320312 48.347656-48.320312 48.347656l-42.871094-47.964844c26.671875-20.671875 64.371094-20.820312 91.191406-.382812zm-159.492187-33.210938c4.121093-10.3125 9.511719-19.863281 16.097656-28.558593 4.5 27.042968 16.574219 52.140624 34.570313 72.433593 54.875 61.546875 134.425781 150.800781 241.71875 270.46875l-75.101563 75.101563c-11.097656-15.019532-191.503906-259.210938-202.964844-274.726563-24.316406-33.433593-29.671875-76.316406-14.320312-114.71875zm39.105469 181.914063 54.34375 73.566406-111.980469 134.433594-75.183594-75.183594zm0 0"/><path d="m242.5 10c0 5.523438-4.476562 10-10 10s-10-4.476562-10-10 4.476562-10 10-10 10 4.476562 10 10zm0 0"/></svg>