<svg id="Layer_1" enable-background="new 0 0 512 512" height="512" viewBox="0 0 512 512" width="512" xmlns="http://www.w3.org/2000/svg"><g><g><path d="m257.667 125.892-43.833 11.828-44.834-11.828v-11.432c0-14.121 11.447-25.569 25.569-25.569h37.53c14.121 0 25.569 11.447 25.569 25.569v11.432z" fill="#ff5e57"/><path d="m232.098 88.892h-30c14.121 0 25.569 11.448 25.569 25.569v11.431h30v-11.432c0-14.121-11.448-25.568-25.569-25.568z" fill="#f7372f"/><g><g><path d="m459.954 429.353h-407.908c-24.602 0-44.546-19.924-44.546-44.502v-97.62c0-9.465 3.021-18.684 8.624-26.317l85.858-116.965c8.391-11.432 21.732-18.185 35.922-18.185h322.051c24.602 0 44.546 19.924 44.546 44.502v214.585c-.001 24.578-19.945 44.502-44.547 44.502z" fill="#fff6db"/><path d="m459.954 125.763h-30c24.602 0 44.546 19.924 44.546 44.502v214.585c0 24.578-19.944 44.502-44.546 44.502h30c24.602 0 44.546-19.924 44.546-44.502v-214.584c0-24.578-19.944-44.503-44.546-44.503z" fill="#ffeebd"/><g><path d="m199 125.763h-61.097c-14.191 0-27.533 6.757-35.93 18.197l-85.222 116.098h135.3c25.929 0 46.948-21.019 46.948-46.948v-87.347z" fill="#cff5ff"/></g><path d="m169 125.763v87.347c0 25.929-21.02 46.948-46.948 46.948h30c25.929 0 46.948-21.02 46.948-46.948v-87.347z" fill="#b8f0ff"/><path d="m411.736 216.098h-36.938v-36.938h-47.377v36.938h-36.937v47.376h36.937v36.938h47.377v-36.938h36.938z" fill="#ff5e57"/><g><path d="m7.5 351.558v33.292c0 24.578 19.944 44.502 44.546 44.502h407.908c24.602 0 44.546-19.924 44.546-44.502v-33.292c-145.948 0-416.082 0-497 0z" fill="#ff5e57"/></g><path d="m474.5 351.558v33.292c0 24.578-19.944 44.502-44.546 44.502h30c24.602 0 44.546-19.924 44.546-44.502v-33.292c-9.501 0-19.533 0-30 0z" fill="#f7372f"/><g><circle cx="118.5" cy="426.715" fill="#cff5ff" r="45.5"/><circle cx="118.5" cy="426.715" fill="#0094e6" r="15.5"/><circle cx="400.5" cy="426.715" fill="#cff5ff" r="45.5"/><circle cx="400.5" cy="426.715" fill="#0094e6" r="15.5"/></g></g></g></g><g fill="#060606"><path d="m459.954 118.263h-194.787v-3.803c0-18.234-14.835-33.068-33.069-33.068h-37.529c-18.234 0-33.068 14.834-33.068 33.068v3.803h-23.597c-16.135 0-32.643 7.925-41.981 21.266l-21.614 29.445c-5.739 7.817 6.354 16.693 12.092 8.876l21.628-29.463c6.849-9.331 18.308-15.124 29.876-15.124l53.597.128v79.718c0 21.752-17.696 39.448-39.448 39.448h-120.493l29.263-39.865c5.739-7.817-6.352-16.692-12.092-8.876l-38.653 52.658c-6.594 8.982-10.079 19.617-10.079 30.757v64.328 33.292c0 28.674 23.348 52.002 52.046 52.002h14.438c4.745 24.39 26.259 42.861 52.016 42.861s47.271-18.472 52.016-42.861h177.968c4.745 24.39 26.259 42.861 52.016 42.861s47.271-18.472 52.016-42.861h7.438c28.698 0 52.046-23.328 52.046-52.002v-214.585c0-28.674-23.348-52.003-52.046-52.003zm-283.454-3.803c0-9.963 8.105-18.068 18.068-18.068h37.529c9.964 0 18.069 8.105 18.069 18.068v3.803h-51.166-22.5zm30 98.65v-79.718h51.167c.463 0 .915-.048 1.354-.128h200.933c20.427 0 37.046 16.599 37.046 37.002v173.792h-482v-56.828c0-7.031 1.956-13.777 5.672-19.672h131.38c30.022 0 54.448-24.425 54.448-54.448zm-88 251.605c-20.953 0-38-17.047-38-38s17.047-38 38-38 38 17.047 38 38-17.047 38-38 38zm378.5-79.864c0 20.403-16.619 37.002-37.046 37.002h-6.705c-.682-7.368-2.876-14.552-6.498-21.014-4.74-8.459-17.826-1.125-13.084 7.334 3.162 5.642 4.833 12.053 4.833 18.541 0 20.953-17.047 38-38 38s-38-17.047-38-38 17.047-38 38-38c3.053 0 6.111.371 9.091 1.103 9.417 2.308 12.994-12.255 3.576-14.567-4.148-1.019-8.411-1.535-12.667-1.535-27.585 0-50.304 21.186-52.768 48.139h-176.464c-2.464-26.953-25.183-48.139-52.768-48.139s-50.304 21.185-52.768 48.138h-13.686c-20.427 0-37.046-16.599-37.046-37.002v-25.792h482z"/><path d="m212 66.058c4.143 0 7.5-3.358 7.5-7.5v-19c0-9.697-15-9.697-15 0v19c0 4.142 3.357 7.5 7.5 7.5z"/><path d="m243.746 72.196c3.375 2.081 8.246.915 10.32-2.449l9.971-16.174c5.087-8.255-7.679-16.125-12.77-7.871l-9.971 16.174c-2.172 3.526-1.076 8.146 2.45 10.32z"/><path d="m169.934 69.747c4.907 7.958 17.847.369 12.77-7.871l-9.971-16.174c-5.09-8.254-17.857-.384-12.77 7.871z"/><path d="m276.095 96.431c1.575 0 3.164-.495 4.518-1.518l15.155-11.459c7.735-5.849-1.312-17.814-9.047-11.965l-15.155 11.459c-5.324 4.026-2.45 13.483 4.529 13.483z"/><path d="m130.898 83.454 15.156 11.459c7.528 5.688 16.914-6.016 9.047-11.965l-15.156-11.458c-7.737-5.848-16.781 6.116-9.047 11.964z"/><path d="m290.483 270.974h29.438v29.438c0 4.142 3.357 7.5 7.5 7.5h47.377c4.143 0 7.5-3.358 7.5-7.5v-29.438h29.438c4.143 0 7.5-3.358 7.5-7.5v-47.377c0-4.142-3.357-7.5-7.5-7.5h-29.438v-29.437c0-4.142-3.357-7.5-7.5-7.5h-47.377c-4.143 0-7.5 3.358-7.5 7.5v29.438h-29.438c-4.143 0-7.5 3.358-7.5 7.5v47.377c0 4.141 3.358 7.499 7.5 7.499zm7.5-47.377h29.438c4.143 0 7.5-3.358 7.5-7.5v-29.437h32.377v29.438c0 4.142 3.357 7.5 7.5 7.5h29.438v32.377h-29.438c-4.143 0-7.5 3.358-7.5 7.5v29.438h-32.377v-29.438c0-4.142-3.357-7.5-7.5-7.5h-29.438z"/><path d="m118.5 403.715c-12.683 0-23 10.318-23 23s10.317 23 23 23 23-10.318 23-23-10.317-23-23-23zm0 31c-4.411 0-8-3.589-8-8s3.589-8 8-8 8 3.589 8 8-3.589 8-8 8z"/><path d="m400.5 403.715c-12.683 0-23 10.318-23 23s10.317 23 23 23 23-10.318 23-23-10.317-23-23-23zm0 31c-4.411 0-8-3.589-8-8s3.589-8 8-8 8 3.589 8 8-3.589 8-8 8z"/><path d="m72.286 237.163c3.711 2.393 7.208 1.872 10.49-1.563l50-67.5c5.772-7.792-6.282-16.722-12.053-8.929l-50 67.5c-2.465 3.33-1.766 8.027 1.563 10.492z"/><path d="m131.803 194.719-23.669 31.953c-5.64 7.614 6.081 16.992 12.053 8.929l23.669-31.953c5.772-7.792-6.282-16.722-12.053-8.929z"/></g></g></svg>