<svg id="Capa_1" enable-background="new 0 0 511.212 511.212" height="512" viewBox="0 0 511.212 511.212" width="512" xmlns="http://www.w3.org/2000/svg"><g><g><path d="m117.378 412.223h-45.014l-8.86 11.44v34.11c0 3.51 2.85 6.36 6.36 6.36h34.75c2.78 0 5.24-1.8 6.07-4.46l11.32-36.01z" fill="#f58a97"/><path d="m177.944 248.842-17.41 52.21-38.53 122.61h-58.5v-141.48-53.6z" fill="#deecf1"/><g><g id="XMLID_173_"><g><path d="m177.944 248.842-17.41 52.21-26.639 84.77-23.231-.61c-4.81 0-8.71-3.91-8.71-8.72v-90.19-50.91z" fill="#cbe5e8"/></g></g></g><path d="m374.007 166.362h-26.794v124.445h26.793c23.631 0 42.788-19.157 42.788-42.788v-38.87c.001-23.63-19.156-42.787-42.787-42.787z" fill="#cbe5e8"/><path d="m371.054 47.082h-37.51c-.42 0-.84.09-1.22.26l-20.058 66.436v263.933l20.058 32.121c.38.17.8.26 1.22.26h37.51c1.63 0 2.95-1.32 2.95-2.96v-357.1c0-1.63-1.32-2.95-2.95-2.95z" fill="#f58a97"/><path d="m63.504 282.182v19.196l6.818.7c28.751 2.95 56.983 9.089 84.19 18.137l6.022-19.163 17.41-52.21-114.44-20.26z" fill="#cbe5e8"/><path d="m101.954 235.396v50.91 20.341c17.842 3.322 35.404 7.867 52.557 13.572l6.023-19.163 17.41-52.21z" fill="#a8d3d8"/><path d="m72.364 174.982c-5.65.59-11.33 1.05-17.02 1.4-13.44.82-25.4 6.8-34 15.95-8.6 9.14-13.84 21.45-13.84 34.91v2.68c0 26.94 20.96 49.22 47.84 50.87 5.69.35 11.37.81 17.02 1.39l23.233-21.745v-75.008z" fill="#f58a97"/><g><path d="m84.431 250.413c-5.65-.58-11.33-1.04-17.02-1.39-26.88-1.65-47.84-23.93-47.84-50.87v-2.68c0-.396.02-.786.029-1.18-7.556 8.905-12.095 20.428-12.095 32.949v2.68c0 26.94 20.96 49.22 47.84 50.87 5.69.35 11.37.81 17.02 1.39l23.233-21.745v-8.707c-3.714-.483-7.434-.934-11.167-1.317z" fill="#f07281"/><path d="m334.056 366.788c-.586 0-1.172-.09-1.702-.26l-20.089-23.065v34.248l20.058 32.121c.38.17.8.26 1.22.26h37.51c1.63 0 2.95-1.32 2.95-2.96v-40.344z" fill="#f07281"/><g id="XMLID_171_"><g><path d="m332.324 47.342v362.49c-.32-.14-.61-.34-.86-.59l-9.21-9.11c-67.53-66.77-155.75-108.29-249.89-117.95v-107.2c94.14-9.65 182.36-51.17 249.89-117.94l9.21-9.11c.25-.25.54-.45.86-.59z" fill="#eef5f6"/></g></g><g fill="#cbe5e8"><path d="m72.361 248.84h65.531c4.596 0 8.323-3.726 8.323-8.323v-23.863c0-4.596-3.726-8.323-8.323-8.323h-65.531z"/><path d="m190.769 248.84h32.238c4.854 0 8.788-3.935 8.788-8.788v-22.932c0-4.854-3.935-8.788-8.788-8.788h-32.238c-4.854 0-8.788 3.935-8.788 8.788v22.932c0 4.853 3.934 8.788 8.788 8.788z"/></g></g><path d="m84.431 250.413c-4.009-.411-8.035-.742-12.067-1.036v32.806c94.14 9.66 182.36 51.18 249.89 117.95l9.21 9.11c.25.25.54.45.86.59v-43.402c-67.269-65.63-154.673-106.452-247.893-116.018z" fill="#deecf1"/></g><g><path d="m190.769 200.832c-8.981 0-16.288 7.307-16.288 16.288v22.932c0 8.981 7.307 16.288 16.288 16.288h32.238c8.981 0 16.288-7.307 16.288-16.288v-22.932c0-8.981-7.307-16.288-16.288-16.288zm33.526 16.288v22.932c0 .71-.578 1.288-1.288 1.288h-32.238c-.71 0-1.288-.578-1.288-1.288v-22.932c0-.71.578-1.288 1.288-1.288h32.238c.71 0 1.288.577 1.288 1.288z"/><path d="m381.507 159.181v-47.398c0-4.142-3.358-7.5-7.5-7.5s-7.5 3.358-7.5 7.5v290.809h-26.682v-63.081c0-4.142-3.358-7.5-7.5-7.5s-7.5 3.358-7.5 7.5v52.677c-66.786-64.878-152.885-105.761-244.964-116.694v-19.154h58.031c8.725 0 15.823-7.098 15.823-15.823v-23.863c0-8.725-7.098-15.822-15.823-15.822h-58.031v-19.155c92.08-10.932 178.178-51.816 244.965-116.693v242.566c0 4.142 3.358 7.5 7.5 7.5s7.5-3.358 7.5-7.5v-252.971h26.682v25.241c0 4.142 3.358 7.5 7.5 7.5s7.5-3.358 7.5-7.5v-29.784c0-5.766-4.691-10.457-10.457-10.457h-37.51c-2.771 0-5.381 1.073-7.353 3.021l-9.207 9.104c-70.314 69.527-163.395 111.146-262.095 117.19-30.777 1.885-54.886 27.516-54.886 58.351v2.681c0 30.835 24.109 56.466 54.887 58.35.373.023.744.057 1.117.081v34.505c0 4.142 3.358 7.5 7.5 7.5s7.5-3.358 7.5-7.5v-33.259c7.862.794 15.68 1.817 23.448 3.06v83.831c0 8.94 7.273 16.214 16.213 16.214h13.204l-7.371 23.459h-45.494v-61.343c0-4.142-3.358-7.5-7.5-7.5s-7.5 3.358-7.5 7.5v102.944c0 7.645 6.22 13.865 13.864 13.865h34.748c6.086 0 11.402-3.901 13.227-9.708l47.534-151.274c56.485 19.864 108.355 52.05 151.604 94.815l9.208 9.105c1.97 1.948 4.581 3.021 7.352 3.021h37.51c5.766 0 10.457-4.691 10.457-10.457v-109.147c24.393-2.761 42.788-23.711 42.788-49.969v-38.87c-.001-26.257-18.395-47.207-42.789-49.968zm-243.615 56.651c.454 0 .823.369.823.822v23.863c0 .454-.369.823-.823.823h-58.031v-25.508zm-122.892 14.094v-2.681c0-22.923 17.923-41.978 40.804-43.379 3.025-.185 6.043-.408 9.057-.658v90.753c-3.014-.249-6.033-.472-9.057-.658-22.881-1.399-40.804-20.454-40.804-43.377zm88.783 226.707h-32.779v-25.466h40.781zm24.8-78.925h-17.917c-.669 0-1.213-.544-1.213-1.214v-81.163c14.105 2.8 28.013 6.355 41.683 10.605zm280.712-129.689c0 18.121-11.614 32.222-27.788 34.843v-108.556c16.174 2.621 27.788 16.723 27.788 34.843z"/><path d="m441.036 139.457c1.786 0 3.578-.634 5.011-1.922l30.075-27.031c3.081-2.769 3.333-7.511.564-10.592s-7.511-3.334-10.592-.564l-30.075 27.031c-3.081 2.769-3.333 7.511-.564 10.592 1.481 1.648 3.526 2.486 5.581 2.486z"/><path d="m470.832 191.668c1.041 3.153 3.972 5.15 7.12 5.15.78 0 1.573-.123 2.353-.38l25.757-8.505c3.933-1.298 6.069-5.54 4.77-9.473-1.299-3.934-5.543-6.068-9.473-4.77l-25.757 8.505c-3.933 1.298-6.069 5.54-4.77 9.473z"/><path d="m476.122 346.78-30.075-27.031c-3.081-2.769-7.823-2.516-10.592.564-2.769 3.081-2.516 7.823.564 10.592l30.075 27.031c1.433 1.288 3.225 1.922 5.011 1.922 2.054 0 4.1-.839 5.581-2.486 2.77-3.081 2.517-7.823-.564-10.592z"/><path d="m506.062 269.352-25.757-8.505c-3.933-1.298-8.175.836-9.473 4.77-1.299 3.933.837 8.175 4.77 9.473l25.757 8.505c.781.258 1.573.38 2.353.38 3.148 0 6.08-1.998 7.12-5.15 1.299-3.933-.837-8.175-4.77-9.473z"/></g></g></svg>