<svg id="Capa_1" enable-background="new 0 0 512 512" height="512" viewBox="0 0 512 512" width="512" xmlns="http://www.w3.org/2000/svg"><g id="XMLID_2587_"><g id="XMLID_2395_"><path id="XMLID_3496_" d="m168.969 128v-68.435c0-27.374-22.191-49.565-49.565-49.565-27.374 0-49.565 22.191-49.565 49.565v68.435c0 17.89-12.395 33.392-29.847 37.329-19.488 4.396-32.363 22.985-29.627 42.775 2.63 19.019 18.887 33.182 38.087 33.182h15.962c10.242 0 19.71 5.453 24.85 14.312 6.234 10.744 17.717 17.358 30.139 17.358 12.422 0 23.905-6.613 30.139-17.358 5.14-8.859 14.608-14.312 24.85-14.312h15.962c19.2 0 35.457-14.163 38.087-33.182 2.737-19.79-10.138-38.379-29.627-42.775-17.45-3.937-29.845-19.439-29.845-37.329z" fill="#ffd0c7"/><g id="XMLID_3529_"><path id="XMLID_3530_" d="m70.604 384.507c-13.864 13.864-36.342 13.864-50.206 0-12.715-12.715-13.915-32.928-2.795-47.058l27.898-35.449 27.898 35.449c11.12 14.13 9.92 34.343-2.795 47.058z" fill="#a0c8ff"/></g><path id="XMLID_3235_" d="m227.196 204.564v27.598c0-12.209-9.897-22.106-22.106-22.106-12.209 0-22.106 9.897-22.106 22.106l-.002 121.432c0 3.859-5.518 4.526-6.436.777l-5.995-24.454c-2.84-11.586-14.181-18.983-25.929-16.911-12.494 2.203-20.742 14.238-18.287 26.685l11.603 58.841c4.177 21.182 14.573 40.637 29.861 55.882l23.957 23.889v23.697h120.681v-23.943l15.484-15.44c20.431-20.372 31.913-48.038 31.913-76.89v-105.231c0-12.209-9.897-22.106-22.106-22.106-12.209 0-22.106 9.897-22.106 22.106v-48.334c0-12.209-9.897-22.106-22.106-22.106-12.209 0-22.106 9.897-22.106 22.106v-27.598c0-12.209-9.897-22.106-22.106-22.106-12.21 0-22.108 9.897-22.108 22.106z" fill="#ffd0c7"/><g id="XMLID_2396_"><circle id="XMLID_3225_" cx="402" cy="402" fill="#faf7f5" r="100"/><path id="XMLID_2401_" d="m402 302c-55.228 0-100 44.772-100 100s44.772 100 100 100 100-44.772 100-100-44.772-100-100-100zm-42.427 142.427c-18.492-18.492-22.377-46.046-11.682-68.361.052.053.095.11.147.162l79.639 79.639c.085.085.178.155.264.238-22.317 10.7-49.875 6.815-68.368-11.678zm96.595-16.615c-.072-.074-.134-.156-.208-.229l-79.638-79.639c-.041-.041-.087-.075-.128-.116 22.292-10.618 49.776-6.711 68.232 11.746 18.457 18.458 22.364 45.945 11.742 68.238z" fill="#ff5c7d"/></g></g><g id="XMLID_2393_"><circle id="XMLID_2394_" cx="371.333" cy="150.35" fill="#b7eabc" r="20"/></g><g id="XMLID_2388_"><circle id="XMLID_2389_" cx="242.867" cy="95.168" fill="#b7eabc" r="20"/></g><g id="XMLID_1216_"><path id="XMLID_1252_" d="m53.359 295.815c-1.896-2.409-4.792-3.815-7.858-3.815s-5.962 1.406-7.858 3.815l-27.898 35.449c-14.244 18.1-12.704 44.028 3.583 60.314 8.87 8.87 20.522 13.305 32.173 13.305 11.652 0 23.304-4.435 32.174-13.305h.001c16.285-16.285 17.825-42.215 3.582-60.314zm10.174 81.62c-9.942 9.942-26.12 9.943-36.063 0-9.127-9.127-9.991-23.659-2.008-33.803l20.039-25.463 20.039 25.463c7.983 10.144 7.12 24.677-2.007 33.803z"/><path id="XMLID_1255_" d="m402 292c-11.187 0-21.987 1.684-32.166 4.802v-16.306c0-17.703-14.403-32.106-32.106-32.106-4.282 0-8.367.849-12.106 2.378v-18.605c0-17.703-14.403-32.106-32.106-32.106-4.311 0-8.423.86-12.183 2.408-1.087-16.727-15.033-30.005-32.03-30.005-6.451 0-12.459 1.92-17.497 5.208-6.664-11.026-17.599-19.117-30.79-22.093-12.98-2.928-22.046-14.266-22.046-27.573v-68.438c-.001-32.843-26.722-59.564-59.566-59.564-12.682 0-24.791 3.935-35.02 11.377-4.466 3.25-5.452 9.504-2.202 13.97s9.505 5.452 13.97 2.202c6.787-4.939 14.827-7.549 23.252-7.549 21.816 0 39.565 17.749 39.565 39.564v68.436c0 22.724 15.481 42.085 37.646 47.083 10.922 2.463 19.205 10.898 21.537 21.715-.457 1.832-.753 3.725-.879 5.665-3.759-1.548-7.872-2.408-12.183-2.408-17.424 0-31.642 13.956-32.085 31.276-13.228.48-25.439 7.748-32.111 19.247-4.43 7.635-12.664 12.377-21.49 12.377s-17.06-4.742-21.49-12.377c-6.905-11.9-19.741-19.293-33.5-19.293h-15.961c-14.13 0-26.246-10.555-28.181-24.552-2.042-14.764 7.382-28.37 21.92-31.65 22.166-4.998 37.647-24.359 37.647-47.083v-23.435c0-5.522-4.477-10-10-10s-10 4.478-10 10v23.435c0 13.308-9.066 24.645-22.047 27.573-11.877 2.68-22.235 9.667-29.168 19.676-6.932 10.01-9.832 22.164-8.164 34.225 3.297 23.837 23.929 41.812 47.993 41.812h15.962c6.653 0 12.861 3.575 16.201 9.33 7.995 13.779 22.858 22.34 38.789 22.34s30.794-8.561 38.789-22.34c3.102-5.346 8.681-8.806 14.792-9.272l-.002 62.333c-7.316-8.223-18.6-12.549-30.097-10.518-8.711 1.535-16.262 6.399-21.262 13.696-5 7.296-6.811 16.094-5.1 24.772l11.603 58.841c4.578 23.217 15.855 44.32 32.611 61.028l21.018 20.958v19.546c0 5.522 4.477 10 10 10s10-4.478 10-10v-23.696c0-2.657-1.058-5.205-2.939-7.081l-23.957-23.889c-13.931-13.891-23.305-31.435-27.111-50.735l-11.603-58.841c-.663-3.362.039-6.771 1.976-9.597 1.937-2.827 4.862-4.711 8.237-5.307 6.541-1.144 12.9 2.997 14.48 9.444l5.995 24.454c1.623 6.618 7.712 10.832 14.475 10.011 6.765-.816 11.674-6.355 11.674-13.169 0 0 .002-22.097.002-22.11v-99.322c0-6.676 5.431-12.106 12.106-12.106s12.106 5.431 12.106 12.106v122.784c0 5.523 4.477 10 10 10s10-4.477 10-10v-150.382c0-6.676 5.431-12.107 12.106-12.107s12.106 5.431 12.106 12.107v150.382c0 5.523 4.477 10 10 10s10-4.477 10-10v-122.784c0-6.676 5.431-12.106 12.106-12.106s12.106 5.431 12.106 12.106v116.868c-8.677 15.722-13.622 33.778-13.622 52.97 0 23.285 7.278 44.898 19.671 62.698l-6.296 6.278c-1.881 1.876-2.939 4.424-2.939 7.081v23.943c0 5.522 4.477 10 10 10s10-4.478 10-10v-19.793l2.147-2.141c19.892 19.728 47.254 31.934 77.417 31.934 60.654 0 110-49.346 110-110s-49.346-110-110-110zm-64.273-23.61c6.675 0 12.106 5.431 12.106 12.107v24.682c-8.874 4.8-17.013 10.787-24.212 17.742v-42.424c0-6.677 5.431-12.107 12.106-12.107zm64.273 223.61c-49.626 0-90-40.374-90-90s40.374-90 90-90 90 40.374 90 90-40.374 90-90 90z"/><path id="XMLID_1259_" d="m451.496 352.503c-20.913-20.914-52.903-26.421-79.603-13.703-2.942 1.401-5.017 4.148-5.56 7.361-.544 3.213.513 6.489 2.831 8.779.087.086.174.17.263.252l79.273 79.273c.099.109.199.217.303.323 1.898 1.949 4.489 3.023 7.164 3.023.542 0 1.087-.044 1.63-.134 3.228-.533 5.991-2.611 7.397-5.564 12.724-26.7 7.218-58.693-13.698-79.61zm.008 56.482-56.49-56.49c15.268-2.138 31.06 2.869 42.34 14.15 11.281 11.281 16.286 27.072 14.15 42.34z"/><path id="XMLID_1262_" d="m434.56 448.609-79.269-79.27c-.107-.117-.217-.231-.329-.345-2.295-2.294-5.561-3.33-8.755-2.786-3.198.547-5.932 2.61-7.333 5.535-12.814 26.736-7.337 58.787 13.629 79.754 13.414 13.414 31.364 20.487 49.557 20.487 10.247 0 20.57-2.244 30.204-6.862 2.953-1.416 5.025-4.188 5.548-7.42.523-3.231-.569-6.516-2.924-8.79-.108-.102-.216-.203-.328-.303zm-67.916-11.254c-11.328-11.328-16.326-27.188-14.127-42.506l56.633 56.634c-15.322 2.199-31.177-2.798-42.506-14.128z"/><path id="XMLID_1265_" d="m371.333 180.35c16.542 0 30-13.458 30-30s-13.458-30-30-30-30 13.458-30 30 13.458 30 30 30zm0-40c5.514 0 10 4.486 10 10s-4.486 10-10 10-10-4.486-10-10 4.486-10 10-10z"/><path id="XMLID_1268_" d="m242.868 125.168c16.542 0 30-13.458 30-30s-13.458-30-30-30-30 13.458-30 30 13.458 30 30 30zm0-40c5.514 0 10 4.486 10 10s-4.486 10-10 10-10-4.486-10-10 4.485-10 10-10z"/><path id="XMLID_1269_" d="m69.84 69.56c2.63 0 5.21-1.06 7.07-2.93 1.86-1.86 2.93-4.43 2.93-7.061 0-2.64-1.07-5.21-2.93-7.079-1.86-1.86-4.44-2.931-7.07-2.931s-5.21 1.07-7.07 2.931c-1.86 1.869-2.93 4.439-2.93 7.079 0 2.631 1.07 5.2 2.93 7.061 1.86 1.87 4.44 2.93 7.07 2.93z"/></g></g></svg>