<svg id="Capa_1" enable-background="new 0 0 512 512" height="512" viewBox="0 0 512 512" width="512" xmlns="http://www.w3.org/2000/svg"><g><g><path d="m255.818 504c69.366 0 136.088-60.354 150.073-220.133 13.913-158.955-24.307-275.867-149.891-275.867s-163.804 116.912-149.891 275.867c13.985 159.779 80.707 220.133 150.073 220.133z" fill="#b3e59f"/><g><g><g><path d="m256.182 504c-.06 0-.121-.002-.182-.003-.061 0-.121.003-.182.003z" fill="#95d6a4"/></g><g><path d="m376.794 410.563c-31.438 51.594-75.59 73.257-120.794 73.32.066 0 .132.003.198.003h-.396c.066 0 .132-.002.198-.003-45.204-.063-89.356-21.727-120.794-73.32 28.99 66.144 74.288 93.363 120.794 93.434 46.506-.07 91.804-27.289 120.794-93.434z" fill="#95d6a4"/></g></g></g><path d="m346.814 168.53c0-50.155-40.659-90.814-90.814-90.814s-90.814 40.659-90.814 90.814 40.659 69.686 90.814 69.686 90.814-19.531 90.814-69.686z" fill="#f0c69e"/><path d="m256 220.216c-47.079 0-85.788-17.21-90.36-60.801-.299 2.998-.454 6.038-.454 9.115 0 50.155 40.659 69.686 90.814 69.686s90.814-19.531 90.814-69.686c0-3.077-.155-6.117-.454-9.115-4.572 43.591-43.281 60.801-90.36 60.801z" fill="#e6ba94"/><path d="m165.186 168.53c0-10.167 1.671-19.943 4.753-29.069-2.688-.939-5.574-1.456-8.582-1.456-14.365 0-26.011 11.645-26.011 26.011 0 14.365 11.646 26.011 26.011 26.011 2.249 0 4.432-.286 6.513-.823-1.749-6.219-2.684-13.095-2.684-20.674z" fill="#e2ae84"/><path d="m346.814 168.53c0-10.167-1.671-19.943-4.753-29.069 2.688-.939 5.574-1.456 8.582-1.456 14.365 0 26.011 11.645 26.011 26.011 0 14.365-11.646 26.011-26.011 26.011-2.249 0-4.432-.286-6.513-.823 1.749-6.219 2.684-13.095 2.684-20.674z" fill="#e2ae84"/><g><path d="m161.357 172.026c-11.201 0-20.748-7.081-24.41-17.011-1.034 2.805-1.601 5.836-1.601 9 0 14.365 11.646 26.011 26.011 26.011 2.249 0 4.432-.286 6.513-.823-1.5-5.332-2.396-11.151-2.622-17.479-1.271.192-2.567.302-3.891.302z" fill="#d7a379"/></g><g><path d="m350.643 172.026c-1.324 0-2.62-.11-3.891-.301-.226 6.327-1.122 12.146-2.622 17.479 2.082.537 4.264.823 6.513.823 14.365 0 26.011-11.646 26.011-26.011 0-3.164-.566-6.195-1.601-9-3.662 9.929-13.208 17.01-24.41 17.01z" fill="#d7a379"/></g></g><g><path d="m222.726 163.971c4.151 0 7.515-3.364 7.515-7.515v-15.402c0-4.15-3.364-7.515-7.515-7.515s-7.515 3.365-7.515 7.515v15.402c0 4.15 3.364 7.515 7.515 7.515z"/><path d="m289.307 163.971c4.151 0 7.515-3.364 7.515-7.515v-15.402c0-4.15-3.364-7.515-7.515-7.515s-7.515 3.365-7.515 7.515v15.402c0 4.15 3.364 7.515 7.515 7.515z"/><path d="m256.017 199.474c13.231 0 20.03-7.938 21.962-12.629 1.581-3.838-.249-8.229-4.086-9.81-3.84-1.58-8.23.25-9.81 4.087-1.565 4.26-14.593 4.234-16.131 0-1.58-3.837-5.971-5.667-9.81-4.087-3.837 1.581-5.667 5.973-4.086 9.81 1.93 4.691 8.73 12.629 21.961 12.629z"/><path d="m165.085 130.491c-19.735-2.441-37.607 13.451-37.473 33.345-.049 18.994 16.014 34.426 34.999 33.532 4.892 12.62 13.251 23.097 24.845 30.966 16.739 11.359 40.447 17.363 68.561 17.363s51.822-6.004 68.561-17.363c11.595-7.869 19.953-18.346 24.845-30.966 18.985.894 35.048-14.538 34.999-33.532.134-19.894-17.739-35.787-37.473-33.345-13.662-32.683-44.447-56.493-81.08-60.147 2.455-5.564 7.344-12.916 16.954-18.021 3.665-1.947 5.058-6.497 3.111-10.162-1.947-3.664-6.495-5.056-10.161-3.111-13.534 7.19-20.403 17.717-23.853 25.795-10.579-10.539-10.168-23.255-10.133-23.986.238-4.121-2.897-7.667-7.023-7.931-4.165-.257-7.714 2.879-7.979 7.02-.056.878-.884 17.037 10.94 31.615-32.882 6.2-60.042 28.788-72.64 58.928zm-6.521 51.684c-8.986-1.281-15.924-9.005-15.924-18.339 0-9.905 7.811-17.997 17.593-18.499-2.825 11.613-3.572 24.927-1.669 36.838zm210.828-18.339c0 9.334-6.938 17.058-15.924 18.339 1.903-11.913 1.157-25.223-1.669-36.838 9.783.501 17.593 8.594 17.593 18.499zm-113.375-78.954c46.029 0 83.477 37.448 83.477 83.477 0 54.213-52.3 62.308-83.477 62.308s-83.476-8.095-83.476-62.308c-.001-46.03 37.446-83.477 83.476-83.477z"/><path d="m409.656 144.453c-8.017-42.797-23.234-76.669-45.23-100.674-26.617-29.049-63.091-43.779-108.409-43.779-43.404 0-78.74 13.531-105.025 40.216-2.913 2.957-2.877 7.715.079 10.627 2.958 2.912 7.716 2.878 10.627-.08 23.357-23.711 55.09-35.734 94.319-35.734 40.93 0 73.676 13.089 97.329 38.903 20.072 21.904 34.047 53.291 41.538 93.287 2.462 13.14 4.209 27.232 5.275 42.18-18.416 21.206-39.25 41.074-61.978 59.081-3.253 2.577-3.801 7.303-1.224 10.556 2.59 3.269 7.328 3.788 10.557 1.224 19.316-15.303 37.311-31.917 53.688-49.537.597 22.495-.227 46.722-2.487 72.543-6.42 73.346-24.195 129.323-52.834 166.376-23.89 30.91-54.961 47.272-89.865 47.328-20.189-.032-39.073-5.458-56.135-16.129-3.517-2.2-8.155-1.132-10.355 2.387-2.201 3.519-1.132 8.156 2.387 10.356 19.402 12.135 40.868 18.329 63.806 18.415.038 0 .077.001.117.001h.364c.039 0 .078 0 .117-.001 39.608-.147 74.681-18.524 101.456-53.166 30.428-39.367 49.24-97.995 55.915-174.256 4.693-53.639 3.337-100.784-4.032-140.124z"/><path d="m127.265 365.417c26.091-5.603 110.427-27.216 195.79-86.943 3.4-2.379 4.228-7.065 1.849-10.465-2.38-3.4-7.066-4.229-10.466-1.849-19.635 13.739-39.329 25.42-58.274 35.324-56.915-29.814-105.426-67.637-144.273-112.486.655-9.09 1.564-17.858 2.736-26.274 5.063-36.343 14.986-66.48 29.496-89.574 2.208-3.514 1.149-8.153-2.365-10.361-3.518-2.208-8.154-1.15-10.361 2.365-30.435 48.442-41.555 122.267-33.051 219.423 3.902 44.585 12.087 83.604 24.326 115.974 11.395 30.14 26.363 54.725 44.486 73.072 2.918 2.953 7.676 2.981 10.627.065 2.953-2.916 2.982-7.675.066-10.627-22.152-22.426-39.213-55.548-50.586-97.644zm-16.42-155.057c35.967 38.815 79.21 72.152 128.888 99.371-53.859 25.952-99.286 37.381-116.105 41.053-4.716-20.643-8.18-43.197-10.309-67.518-2.27-25.927-3.089-50.294-2.474-72.906z"/></g></g></svg>