<?xml version="1.0" encoding="iso-8859-1"?>
<!-- Generator: Adobe Illustrator 19.0.0, SVG Export Plug-In . SVG Version: 6.00 Build 0)  -->
<svg version="1.1" id="Capa_1" xmlns="http://www.w3.org/2000/svg" xmlns:xlink="http://www.w3.org/1999/xlink" x="0px" y="0px"
	 viewBox="0 0 512 512" style="enable-background:new 0 0 512 512;" xml:space="preserve">
<path style="fill:#FFCC9C;" d="M151.618,395.699L151.618,395.699c-24.344,0-42.986-21.657-39.364-45.73l0,0
	c8.548-56.812,57.361-98.831,114.813-98.831h57.868c57.452,0,106.265,42.018,114.813,98.831l0,0
	c3.622,24.073-15.02,45.73-39.364,45.73l0,0H151.618z"/>
<path style="fill:#F2EBFF;" d="M158.643,371.423v57.672c0,9.992,6.699,18.719,16.335,21.365
	c19.394,5.326,35.122,19.505,42.569,37.921c3.328,8.229,11.31,13.618,20.186,13.618h36.532c8.876,0,16.859-5.389,20.186-13.618
	c7.447-18.416,23.175-32.595,42.569-37.921c9.636-2.646,16.335-11.373,16.335-21.365v-57.672c0-8.242-6.681-14.923-14.923-14.923
	H173.566C165.325,356.5,158.643,363.181,158.643,371.423z"/>
<g>
	<path style="fill:#FFCC9C;" d="M125.235,403.073L125.235,403.073c-20.723,11.964-26.063,39.498-11.317,58.342l21.415,27.365
		c10.577,13.515,29.489,17.184,44.351,8.603l0,0c14.863-8.581,21.142-26.793,14.725-42.711l-12.991-32.228
		C172.473,400.251,145.958,391.109,125.235,403.073z"/>
	<path style="fill:#FFCC9C;" d="M386.765,403.073L386.765,403.073c20.723,11.964,26.063,39.498,11.317,58.342l-21.415,27.365
		c-10.577,13.515-29.489,17.184-44.351,8.603l0,0c-14.863-8.581-21.142-26.793-14.725-42.711l12.991-32.228
		C339.527,400.251,366.042,391.109,386.765,403.073z"/>
	<circle style="fill:#FFCC9C;" cx="256" cy="175.23" r="104.77"/>
</g>
<path d="M298.102,479.277c-5.124-2.055-10.948,0.435-13.003,5.562c-1.717,4.283-6.071,7.161-10.833,7.161h-36.532
	c-4.762,0-9.116-2.878-10.833-7.161c-2.055-5.127-7.876-7.612-13.003-5.562c-5.126,2.056-7.616,7.877-5.561,13.003
	c4.803,11.98,16.341,19.72,29.397,19.72h36.532c13.056,0,24.594-7.74,29.396-19.72C305.718,487.154,303.228,481.333,298.102,479.277
	z"/>
<path d="M415.541,427.762c-2.716-14.004-11.344-26.128-23.677-33.288c2.243-1.832,4.347-3.858,6.267-6.089
	c9.471-11.003,13.665-25.548,11.504-39.903c-3.509-23.324-13.436-45.117-28.707-63.024c-11.434-13.407-25.488-24.211-41.217-31.803
	c19.249-20.534,31.057-48.124,31.057-78.423c-0.001-52.434-35.348-96.769-83.465-110.428c6.554-7.825,10.13-17.601,10.13-27.931
	C297.434,16.541,280.892,0,260.561,0c-0.001,0-0.002,0-0.003,0c-8.207,0-15.894,2.669-21.643,7.514
	c-6.354,5.354-9.853,12.879-9.854,21.188c0,5.522,4.477,10,10,10l0,0c5.522,0,10-4.477,10-10c0-2.379,0.922-4.362,2.742-5.896
	c2.148-1.81,5.257-2.807,8.756-2.807h0.001c9.304,0,16.874,7.568,16.874,16.872c0,6.302-2.454,12.226-6.91,16.682
	c-4.456,4.455-10.379,6.909-16.679,6.909c-0.001,0-0.001,0-0.002,0c-0.245,0-0.485,0.019-0.725,0.037
	c-61.956,1.536-111.885,52.413-111.886,114.732c0,30.299,11.808,57.889,31.057,78.423c-15.728,7.592-29.782,18.395-41.216,31.803
	c-15.271,17.907-25.198,39.7-28.708,63.023c-2.16,14.356,2.033,28.901,11.504,39.904c1.92,2.231,4.024,4.258,6.267,6.089
	c-12.333,7.16-20.962,19.284-23.677,33.288c-2.723,14.04,0.771,28.553,9.584,39.816l21.415,27.365
	c8.652,11.056,21.795,17.001,35.126,17.001c7.568,0,15.198-1.916,22.1-5.901c19.061-11.005,27.229-34.697,19-55.109l-12.991-32.228
	c-0.868-2.153-1.894-4.218-3.039-6.202H261c5.523,0,10-4.478,10-10s-4.477-10-10-10h-92.356v-21.081
	c0-2.715,2.208-4.923,4.923-4.923h164.867c2.714,0,4.923,2.208,4.923,4.923v22.464c-9.922,5.439-17.755,14.163-22.051,24.819
	l-12.991,32.227c-8.229,20.413-0.061,44.105,19,55.11c6.903,3.985,14.53,5.901,22.1,5.901c13.33,0,26.475-5.946,35.127-17.001
	l21.414-27.365C414.771,456.314,418.264,441.802,415.541,427.762z M256,80.463c52.254,0.001,94.768,42.514,94.769,94.769
	c0,52.255-42.513,94.768-94.769,94.769c-52.255-0.001-94.769-42.514-94.769-94.769C161.232,122.977,203.746,80.464,256,80.463z
	 M122.142,351.457c5.725-38.053,31.097-69.494,66.716-83.206C207.75,281.925,230.948,290,256,290s48.25-8.075,67.142-21.749
	c35.619,13.712,60.991,45.153,66.716,83.206c1.292,8.591-1.217,17.295-6.885,23.88c-5.016,5.828-12.044,9.45-19.617,10.207v-14.121
	c0-10.161-6.115-18.916-14.856-22.792V336.5c0-5.522-4.477-10-10-10s-10,4.478-10,10v10H183.566v-10c0-5.522-4.477-10-10-10
	s-10,4.478-10,10v12.101c-8.777,3.861-14.923,12.635-14.923,22.822v14.121c-7.573-0.757-14.6-4.379-19.617-10.207
	C123.359,368.752,120.85,360.048,122.142,351.457z M174.685,488.723c-10.482,6.053-24.015,3.43-31.476-6.105l-21.415-27.365
	c-5.243-6.699-7.321-15.331-5.701-23.683c1.62-8.352,6.775-15.582,14.143-19.836c7.367-4.254,16.206-5.101,24.249-2.33
	c8.043,2.773,14.48,8.89,17.661,16.779l12.991,32.229C189.662,469.639,185.168,482.67,174.685,488.723z M390.206,455.252
	l-21.414,27.365c-7.461,9.533-20.992,12.157-31.476,6.105c-10.484-6.053-14.977-19.084-10.451-30.313l12.991-32.228
	c3.181-7.89,9.618-14.006,17.661-16.779c3.115-1.073,6.349-1.604,9.571-1.604c5.097,0,10.164,1.329,14.678,3.935
	c7.368,4.254,12.522,11.484,14.143,19.836C397.527,439.921,395.449,448.553,390.206,455.252z"/>
<path d="M307.79,409.569c1.86-1.859,2.93-4.439,2.93-7.069s-1.07-5.21-2.93-7.07c-1.86-1.86-4.44-2.93-7.07-2.93
	s-5.21,1.069-7.07,2.93s-2.93,4.44-2.93,7.07c0,2.64,1.07,5.21,2.93,7.069c1.86,1.87,4.44,2.931,7.07,2.931
	S305.93,411.439,307.79,409.569z"/>
<path d="M226.958,223.447c7.138,8.807,17.724,13.857,29.042,13.857c11.318,0,21.905-5.051,29.042-13.857
	c3.478-4.291,2.819-10.588-1.472-14.065c-4.29-3.478-10.587-2.817-14.065,1.472c-3.323,4.1-8.246,6.451-13.505,6.451
	c-5.259,0-10.183-2.352-13.505-6.451c-3.477-4.291-9.774-4.948-14.065-1.472C224.139,212.859,223.48,219.156,226.958,223.447z"/>
<path d="M211.969,182.303c1.273-1.273,3.346-1.273,4.62,0c1.953,1.952,4.512,2.929,7.071,2.929s5.119-0.977,7.071-2.929
	c3.905-3.905,3.905-10.237,0-14.143c-9.071-9.071-23.831-9.071-32.904,0c-3.905,3.905-3.906,10.236,0,14.142
	C201.732,186.208,208.064,186.208,211.969,182.303z"/>
<path d="M288.34,185.231c2.559,0,5.119-0.977,7.071-2.929c1.273-1.272,3.346-1.274,4.62,0c3.905,3.906,10.237,3.905,14.142-0.001
	c3.905-3.905,3.905-10.236,0-14.142c-9.072-9.07-23.833-9.07-32.904,0c-3.905,3.905-3.905,10.237,0,14.143
	C283.221,184.255,285.781,185.231,288.34,185.231z"/>
<g>
</g>
<g>
</g>
<g>
</g>
<g>
</g>
<g>
</g>
<g>
</g>
<g>
</g>
<g>
</g>
<g>
</g>
<g>
</g>
<g>
</g>
<g>
</g>
<g>
</g>
<g>
</g>
<g>
</g>
</svg>
