<svg height="512" viewBox="0 0 60 52" width="512" xmlns="http://www.w3.org/2000/svg"><g id="Page-1" fill="none" fill-rule="evenodd"><g id="029---Baby-Weight" fill-rule="nonzero" transform="translate(0 -1)"><path id="Shape" d="m13 48h34v2c0 1.1045695-.8954305 2-2 2h-30c-1.1045695 0-2-.8954305-2-2z" fill="#ff9801"/><path id="Shape" d="m44 48v2c0 1.1045695-.8954305 2-2 2h3c1.1045695 0 2-.8954305 2-2v-2z" fill="#f57c00"/><path id="Shape" d="m47 48-3-10h-28l-3 10z" fill="#ffdc00"/><path id="Shape" d="m44 38h-3l3 10h3z" fill="#fec108"/><path id="Shape" d="m59 35v1c-.0032948 1.1032019-.8967981 1.9967052-2 2h-54c-1.10320187-.0032948-1.9967052-.8967981-2-2v-1c0-.5522847.44771525-1 1-1h56c.5522847 0 1 .4477153 1 1z" fill="#7f8e94"/><path id="Shape" d="m58 34h-3c.5522847 0 1 .4477153 1 1v1c-.0032948 1.1032019-.8967981 1.9967052-2 2h3c1.1032019-.0032948 1.9967052-.8967981 2-2v-1c0-.5522847-.4477153-1-1-1z" fill="#545c60"/><rect id="Rectangle-path" fill="#02a9f4" height="4" rx="1" width="12" x="24" y="44"/><path id="Shape" d="m57 24c0 5.5228475-4.4771525 10-10 10s-10-4.4771525-10-10c-.0023038-1.425564.3047612-2.8346511.9-4.13 1.9496369-4.279182 6.6173026-6.6218905 11.2134729-5.6280589s7.8789778 5.0556738 7.8865271 9.7580589z" fill="#ffe0b2"/><path id="Shape" d="m47 14c-.5129802.0008581-1.0251425.0409753-1.532.12 4.8955731.7194636 8.5260043 4.915551 8.5340196 9.8637021.0080152 4.9481512-3.608803 9.155978-8.5020196 9.8912979 3.710451.5677523 7.4261819-.9912669 9.6206899-4.0365787s2.4977618-7.0634251.7851783-10.4036118c-1.7125836-3.3401866-5.152234-5.4392346-8.9058682-5.4348095z" fill="#dfc49c"/><path id="Shape" d="m47 34h-32c-3.4345572-.0078517-6.56521536-1.9697834-8.06983852-5.0572344-1.50462315-3.0874511-1.12086032-6.7620834.98921823-9.4720305 2.11007859-2.7099471 5.57855269-3.9826938 8.94062029-3.2807351l-8.4-3.5c-1.97495518-.8893099-2.88327936-3.18902407-2.04906961-5.18787729.83420974-1.99885323 3.10785526-2.97059086 5.12906961-2.19212271l12 5c1.7910893.7443565 2.7900604 2.6664275 2.37 4.56l-.25 1.13h.34c.0009921-.6209668.144691-1.2333981.42-1.79l5-10c.9885897-1.97717937 3.3928206-2.77858964 5.37-1.78999995 1.9771794.9885897 2.7785897 3.39282055 1.79 5.36999995l-3.9 7.79 3.22 4.29c-.5952388 1.2953489-.9023038 2.704436-.9 4.13 0 5.5228475 4.4771525 10 10 10z" fill="#ffe0b2"/><path id="Shape" d="m37 24c-.0023038-1.425564.3047612-2.8346511.9-4.13l-3.22-4.29 3.9-7.79c.7504472-1.48709595.4970503-3.28402917-.6353648-4.50561076-1.132415-1.22158158-2.9050299-1.6101887-4.4446352-.97438924.1.039.2.063.293.11 1.9751786.99032403 2.7759484 3.39263362 1.79 5.37l-3.9 7.79 3.22 4.29c-.5962722 1.2951167-.904363 2.7042139-.903 4.13 0 2.6521649 1.0535684 5.195704 2.9289322 7.0710678s4.4189029 2.9289322 7.0710678 2.9289322h3c-5.5228475 0-10-4.4771525-10-10z" fill="#dfc49c"/><path id="Shape" d="m14 31c-.1073885.0000777-.2140884-.0171429-.316-.051-2.5846797-.9043444-4.41130981-3.2242894-4.684-5.949 0-.5522847.44771525-1 1-1 .5522847 0 1 .4477153 1 1 .2677035 1.8611644 1.5444128 3.4208596 3.316 4.051.465753.1547317.7503816.6245882.6718345 1.1090447-.0785471.4844566-.4970518.840311-.9878345.8399553z" fill="#f5f5f5"/><path id="Shape" d="m58 33h-4.695c3.6384438-2.5430815 5.3899117-7.0251996 4.4396677-11.361393s-4.4156256-7.6750784-8.784142-8.4634951c-4.3685165-.7884167-8.7824377 1.1284354-11.1885257 4.8588881l-1.921-2.559 3.624-7.238c1.2354609-2.47147425.2334742-5.47653896-2.238-6.71199993-2.4714743-1.23546098-5.476539-.23347428-6.712 2.23799993l-4.025 8.057c-.5290726-1.0996163-1.4447142-1.9657734-2.572-2.433l-12-5c-2.52951628-.98447266-5.38248835.2289988-6.42781447 2.73398031-1.04532612 2.5049815.09883147 5.38645089 2.57781447 6.49201969l4.244 1.768c-3.67458838 1.013656-6.44996889 4.0332304-7.150893 7.7800695-.7009241 3.7468392.79522398 7.5654917 3.854893 9.8389305h-7.026c-1.1045695 0-2 .8954305-2 2v1c0 1.6568542 1.34314575 3 3 3h11.656l-2.614 8.713h.015c-.0329692.0923544-.0521748.189056-.057.287v2c0 1.6568542 1.3431458 3 3 3h30c1.6568542 0 3-1.3431458 3-3v-2c-.0052121-.0965937-.0244121-.1919201-.057-.283h.015l-2.614-8.717h11.656c1.6568542 0 3-1.3431458 3-3v-1c0-1.1045695-.8954305-2-2-2zm-11-18c4.9705627 0 9 4.0294373 9 9s-4.0294373 9-9 9-9-4.0294373-9-9c.0055111-4.9682782 4.0317218-8.9944889 9-9zm-40 10c-.00384604-2.710411 1.36850326-5.2374318 3.644-6.71 2.4047836-1.5292053 5.427175-1.7135712 8-.488.5050644.2236753 1.0958246-.0044356 1.3195-.5095.2236753-.5050644-.0044356-1.0958247-.5095-1.3195-.7203959-.3155643-1.4713505-.5561646-2.241-.718l-8.368-3.488c-1.52787811-.6381797-2.24980884-2.39355002-1.613-3.922.63856972-1.528041 2.39455038-2.24959105 3.923-1.612l12 5c1.3449221.5558551 2.0945831 1.999037 1.776 3.419l-2 9c-.1197472.5390126.2200276 1.0730722.759 1.193.0715992.0157735.1446841.0238196.218.024.4686077-.0000804.8743121-.3255585.976-.783l1.126-5.069 4.19 5.583c.3313708.4418278.9581722.5313708 1.4.2s.5313708-.9581722.2-1.4l-4.2-5.6c-.6863857-.9072941-.7969313-2.1260107-.285-3.142l5-10c.7414423-1.48343684 2.5450632-2.08494228 4.0285-1.3435s2.0849423 2.54506316 1.3435 4.0285l-3.9 7.79c-.1685462.3402905-.1298051.7466839.1 1.049l2.879 3.834c-1.8553578 4.7167283-.2272488 10.090233 3.934 12.984h-25.7c-4.4162219-.0049599-7.99504012-3.5837781-8-8zm39 25c0 .5522847-.4477153 1-1 1h-30c-.5522847 0-1-.4477153-1-1v-1h32zm-21-3v-2h10v2zm20.656 0h-8.656v-2c0-1.1045695-.8954305-2-2-2h-10c-1.1045695 0-2 .8954305-2 2v2h-8.656l2.4-8h26.512zm12.344-11c0 .5522847-.4477153 1-1 1h-54c-.55228475 0-1-.4477153-1-1v-1h56z" fill="#000"/></g></g></svg>