<svg id="Layer_6" enable-background="new 0 0 64 64" height="512" viewBox="0 0 64 64" width="512" xmlns="http://www.w3.org/2000/svg"><g><g><g><path d="m56 61.99h-24-6v-7s0-4 6-6c1.74-.58 3.05-1.24 4.05-1.9l2.95 5.9 5-6 5 6 2.95-5.9c1 .66 2.31 1.32 4.05 1.9 6 2 6 6 6 6v7z" fill="#5d9cec"/></g><g><path d="m49.42 44.75c.4.59 1.16 1.46 2.53 2.34l-2.95 5.9-5-6-5 6-2.95-5.9c1.37-.88 2.13-1.75 2.53-2.34l.42.24s4 3 10 0z" fill="#5d9cec"/></g><g><path d="m29.09 13.99h-.09l.02.04c-1.94 1.06-4.77 2.71-6.02 3.96l1-11c5-5 13-5 13-5s7 0 14 0 8 9 8 9 0 9 0 15-10 10-10 10v-7s4 0 4-4-4-4-4-4v-5l-4-2z" fill="#fcd770"/></g><g><path d="m49 43.99s.1.29.42.76l-.42.24c-6 3-10 0-10 0l-.42-.24c.32-.47.42-.76.42-.76v-4h-5c-1.65 0-3.15-.67-4.24-1.76-1.08-1.09-1.76-2.59-1.76-4.24h6c.55 0 1.05-.22 1.41-.58.37-.37.59-.87.59-1.42 0-1.1-.9-2-2-2h-6l1-4-3-1 5-8-1.98-2.96c.02-.01.04-.02.07-.04h15.91l4 2v5s4 0 4 4-4 4-4 4v7z" fill="#f0d0b4"/></g><g><circle cx="11" cy="13.99" fill="#e6e9ed" r="2"/></g></g><g><path d="m56.316 48.045c-4.702-1.567-6.056-3.75-6.316-4.258v-7.135c2.299-1.033 10-4.92 10-10.658v-15l-.006-.11c-.38-3.421-2.749-9.89-8.994-9.89h-14c-.344 0-8.475.06-13.707 5.293l1.414 1.414c4.638-4.638 12.218-4.707 12.293-4.707h14c5.827 0 6.904 7.307 7 8.06v14.94c0 4.01-5.401 7.157-8 8.441v-4.543c1.754-.342 4-1.621 4-4.898s-2.246-4.557-4-4.898v-4.72l-4.553-2.276-.895 1.789 3.448 1.723.006 5.371.988.011c.502.006 3.006.177 3.006 3s-2.504 2.994-3 3h-1v16.162l.052.154c.001.003.004.01.005.013-4.223 1.902-7.195.609-8.138.069.013-.033.024-.063.03-.082l.051-.154v-5.162h-6c-2.415 0-4.435-1.721-4.899-4h4.899c1.654 0 3-1.346 3-3s-1.346-3-3-3h-4.719l.913-3.656-2.673-.891 4.669-7.471-1.722-2.582c.586-.309.964-.498.978-.506l-.895-1.789c-.251.125-6.169 3.097-8.26 5.188l1.414 1.414c1.015-1.015 3.204-2.343 4.997-3.347l1.105 1.658-5.331 8.529 3.327 1.109-1.087 4.344h7.284c.552 0 1 .449 1 1s-.448 1-1 1h-7v1c0 3.86 3.141 7 7 7h4v2.789c-.273.534-1.637 2.703-6.316 4.262-6.608 2.203-6.684 6.756-6.684 6.949v8h38v-8c0-.193-.076-4.746-6.684-6.949zm-5.651-.618-1.876 3.752-3.321-3.986c1.121-.175 2.352-.536 3.672-1.162.374.429.873.905 1.525 1.396zm-11.837-1.356c.62.364 1.889.972 3.653 1.184l-3.27 3.924-1.876-3.752c.631-.476 1.123-.939 1.493-1.356zm22.172 14.923h-4v-5h-2v5h-22v-5h-2v5h-4v-5.987c.003-.136.146-3.34 5.316-5.064 1.324-.441 2.412-.931 3.324-1.432l3.149 6.298 5.211-6.253 5.211 6.253 3.149-6.298c.912.501 2 .99 3.324 1.432 5.171 1.724 5.313 4.928 5.316 5.051z"/><path d="m30.553 7.099c-.251.125-6.169 3.097-8.26 5.188l1.414 1.414c1.862-1.862 7.682-4.783 7.74-4.813z"/><path d="m45 10.994-.316-.949c-.135.045-3.332 1.147-6.483 5.349l1.6 1.2c2.747-3.663 5.494-4.644 5.521-4.653z"/><path d="m39.684 10.045c-.135.045-3.332 1.147-6.483 5.349l1.6 1.2c2.747-3.663 5.494-4.644 5.521-4.653l-.322-.947z"/><path d="m32.051 20.309c.046.136 1.016 2.894 5.013 2.894.633 0 1.341-.069 2.134-.229l-.395-1.961c-4.001.806-4.826-1.265-4.86-1.353l-.943.334z"/><path d="m11 16.994c1.654 0 3-1.346 3-3s-1.346-3-3-3-3 1.346-3 3 1.346 3 3 3zm0-4c.552 0 1 .449 1 1s-.448 1-1 1-1-.449-1-1 .448-1 1-1z"/><circle cx="7" cy="9.994" r="1"/><path d="m15.104 28.493c-.661-.353-1.104-.956-1.104-1.499h-2c0 1.299.827 2.55 2.159 3.263.706.377 1.478.564 2.266.564 1.056 0 2.141-.335 3.13-.995 2.392-1.593 4.794-.063 4.895.003l1.105-1.667c-.146-.097-3.595-2.344-7.109 0-1.592 1.06-2.868.584-3.342.331z"/><path d="m17.293 33.287 1.414 1.414c3.156-3.157 5.353-1.224 5.593-.993l1.407-1.421c-.037-.037-3.761-3.653-8.414 1z"/><path d="m20.105 36.546c-1.072 2.145-1.816 3.447-3.105 3.447-1.342 0-2.101-1.438-2.105-1.447l-1.789.895c.052.104 1.307 2.553 3.895 2.553 2.618 0 3.827-2.419 4.895-4.553.587-1.177 2.772-.504 2.792-.498l.63-1.898c-1.421-.473-4.116-.69-5.213 1.501z"/><path d="m17.316 44.045-.633 1.897c.527.176 1.035.252 1.52.252 2.223 0 3.94-1.613 4.629-2.646l-1.662-1.113c-.065.096-1.631 2.354-3.854 1.61z"/><path d="m9.233 44.408c-.928-.419-1.262-1.65-1.264-1.657l-.302-1.209-1.115.558c-.945.474-1.726.577-2.319.309-.928-.419-1.262-1.65-1.265-1.663l-1.938.49c.021.087.557 2.156 2.358 2.985.91.419 1.94.445 3.069.077.353.664.957 1.475 1.931 1.923.485.224 1.005.335 1.555.335.776 0 1.613-.223 2.504-.668l-.895-1.789c-.945.474-1.724.578-2.319.309z"/><path d="m5.78 36.568c-1.425-.718-1.791-2.723-1.795-2.743l-1.972.333c.021.122.525 3.004 2.851 4.188.641.327 1.343.49 2.101.49 1.055 0 2.219-.316 3.482-.948l-.895-1.789c-1.566.783-2.836.941-3.772.469z"/><path d="m10.006 24.994-.006-2c-.229 0-2.264.043-3.428 1.534-.738.946-.921 2.194-.542 3.708l1.939-.485c-.221-.882-.162-1.551.175-1.986.479-.621 1.506-.767 1.862-.771z"/><path d="m7 32.994v-2c-.122 0-3-.045-3-4 0-4.098 4.028-4.984 4.242-5.03.034-.009 3.581-.854 7.158 1.83l1.199-1.6c-4.332-3.25-8.66-2.217-8.796-2.181-2.006.402-5.803 2.377-5.803 6.981 0 4.746 3.271 6 5 6z"/></g></g></svg>