<svg height="475.312pt" viewBox="0 0 475.312 475.312" width="475.312pt" xmlns="http://www.w3.org/2000/svg"><path d="m80 291.3125h48v144h-48zm0 0" fill="#ab2300"/><path d="m168 211.3125h48v224h-48zm0 0" fill="#1a6fb0"/><path d="m256 147.3125h48v288h-48zm0 0" fill="#0b7"/><path d="m344 67.3125h48v368h-48zm0 0" fill="#ffcd00"/><path d="m435.710938 395.710938-11.3125 11.3125 20.289062 20.289062h-44.6875v-368h-64v368h-24v-288h-64v288h-24v-224h-64v224h-24v-144h-64v144h-24v-396.6875l20.289062 20.285156 11.3125-11.308594-39.601562-39.601562-39.601562 39.601562 11.3125 11.308594 20.289062-20.285156v396.6875h-32v16h32v32h16v-32h396.6875l-20.289062 20.289062 11.3125 11.308594 39.601562-39.597656zm-347.710938 31.601562v-128h32v128zm88 0v-208h32v208zm88 0v-272h32v272zm88 0v-352h32v352zm0 0" fill="#231f20"/></svg>