<svg height="512" viewBox="0 0 64 64" width="512" xmlns="http://www.w3.org/2000/svg"><g id="Ward"><path d="m61 41v4h-42l-16-6v-4l16 6z" fill="#bdfdff"/><path d="m57 41h4v4h-4z" fill="#46f8ff"/><path d="m61 8v8.86a9.991 9.991 0 0 1 -2.93 7.07l-9.07 9.07-9.07-9.07a9.991 9.991 0 0 1 -2.93-7.07v-8.86l12-5z" fill="#ff7956"/><path d="m55 45h4v16h-4z" fill="#c6c5ca"/><path d="m57 45h2v16h-2z" fill="#898890"/><path d="m58 10v6.86a6.959 6.959 0 0 1 -2.05 4.95l-6.95 6.95-6.95-6.95a6.959 6.959 0 0 1 -2.05-4.95v-6.86l9-3.75z" fill="#ffde55"/><path d="m9 51h46v4h-46z" fill="#898890"/><path d="m9 51h46v2h-46z" fill="#57565c"/><rect fill="#d8d7da" height="24" rx="2" width="24" x="3" y="3"/><path d="m27 5v20a2.006 2.006 0 0 1 -2 2h-4a2.006 2.006 0 0 0 2-2v-20a2.006 2.006 0 0 0 -2-2h4a2.006 2.006 0 0 1 2 2z" fill="#acabb1"/><path d="m23 13v4h-6v6h-4v-6h-6v-4h6v-6h4v6z" fill="#d80027"/><path d="m23 13v4h-6v6h-2v-16h2v6z" fill="#ab2300"/><path d="m13 34v4.75l-8-3v-4.75z" fill="#46f8ff"/><path d="m13 34v4.75l-4-1.5v-4.75z" fill="#00d7df"/><path d="m9 41.25v19.75h-4v-21.25z" fill="#c6c5ca"/><path d="m9 41.25v19.75h-2v-20.5z" fill="#898890"/><path d="m61 8v8.86a9.991 9.991 0 0 1 -2.93 7.07l-9.07 9.07-2-2 7.07-7.07a9.991 9.991 0 0 0 2.93-7.07v-8.86l-10-4.17 2-.83z" fill="#ff5023"/><path d="m58 10v6.86a6.959 6.959 0 0 1 -2.05 4.95l-6.95 6.95-2-2 4.95-4.95a6.959 6.959 0 0 0 2.05-4.95v-6.86l-7-2.92 2-.83z" fill="#ffcd00"/><path d="m5 28h20a3 3 0 0 0 3-3v-20a3 3 0 0 0 -3-3h-20a3 3 0 0 0 -3 3v20a3 3 0 0 0 3 3zm-1-23a1 1 0 0 1 1-1h20a1 1 0 0 1 1 1v20a1 1 0 0 1 -1 1h-20a1 1 0 0 1 -1-1z"/><path d="m7 18h5v5a1 1 0 0 0 1 1h4a1 1 0 0 0 1-1v-5h5a1 1 0 0 0 1-1v-4a1 1 0 0 0 -1-1h-5v-5a1 1 0 0 0 -1-1h-4a1 1 0 0 0 -1 1v5h-5a1 1 0 0 0 -1 1v4a1 1 0 0 0 1 1zm1-4h5a1 1 0 0 0 1-1v-5h2v5a1 1 0 0 0 1 1h5v2h-5a1 1 0 0 0 -1 1v5h-2v-5a1 1 0 0 0 -1-1h-5z"/><path d="m61 40h-41.819l-5.181-1.943v-4.057a1 1 0 0 0 -.649-.937l-8-3a1 1 0 0 0 -1.351.937v3.307l-.649-.244a1 1 0 0 0 -1.351.937v4a1 1 0 0 0 .649.937l1.351.506v20.557a1 1 0 0 0 1 1h4a1 1 0 0 0 1-1v-5h44v5a1 1 0 0 0 1 1h4a1 1 0 0 0 1-1v-15h1a1 1 0 0 0 1-1v-4a1 1 0 0 0 -1-1zm-55-7.557 6 2.25v2.614l-6-2.25zm2 27.557h-2v-18.807l2 .75zm46-10h-44v-7.307l8.649 3.244a1 1 0 0 0 .351.063h35zm-44 4v-2h44v2zm48 6h-2v-14h2zm2-16h-40.819l-15.181-5.693v-1.864l14.649 5.494a1 1 0 0 0 .351.063h41z"/><path d="m46.878 15.465-1.414 1.414 2.829 2.828a1 1 0 0 0 1.414 0l5.657-5.657-1.414-1.414-4.95 4.95z"/><path d="m61.385 7.077-12-5a1 1 0 0 0 -.77 0l-12 5a1 1 0 0 0 -.615.923v8.857a10.926 10.926 0 0 0 3.222 7.779l9.071 9.071a1 1 0 0 0 1.414 0l9.071-9.071a10.926 10.926 0 0 0 3.222-7.779v-8.857a1 1 0 0 0 -.615-.923zm-1.385 9.78a8.943 8.943 0 0 1 -2.636 6.365l-8.364 8.364-8.364-8.364a8.943 8.943 0 0 1 -2.636-6.365v-8.19l11-4.584 11 4.584z"/><path d="m48.615 5.327-9 3.75a1 1 0 0 0 -.615.923v6.857a7.955 7.955 0 0 0 2.342 5.658l6.95 6.95a1 1 0 0 0 1.414 0l6.951-6.95a7.955 7.955 0 0 0 2.343-5.658v-6.857a1 1 0 0 0 -.615-.923l-9-3.75a1 1 0 0 0 -.77 0zm8.385 5.34v6.19a5.965 5.965 0 0 1 -1.757 4.243l-6.243 6.244-6.243-6.244a5.965 5.965 0 0 1 -1.757-4.243v-6.19l8-3.334z"/></g></svg>