<svg id="Layer_3" enable-background="new 0 0 64 64" height="512" viewBox="0 0 64 64" width="512" xmlns="http://www.w3.org/2000/svg"><g><path d="m2 5h50v46h-50z" fill="#ccc"/><path d="m2 5h50v12h-50z" fill="#4c6cb5"/><path d="m6 21h42v24h-42z" fill="#f2f2f2"/><g><path d="m6 21h42v24h-42z" fill="#f2f2f2"/></g><circle cx="49" cy="49" fill="#f9d266" r="13"/><path d="m58.881 40.565c-2.384-2.79-5.923-4.565-9.881-4.565-7.18 0-13 5.82-13 13 0 2.941.988 5.644 2.634 7.822.776.105 1.562.178 2.366.178 9.261 0 16.881-7.191 17.881-16.435z" fill="#fadb85"/><g fill="#939393"><path d="m12 9c-1.105 0-2-.895-2-2v-3c0-1.105.895-2 2-2 1.105 0 2 .895 2 2v3c0 1.105-.895 2-2 2z"/><path d="m22 9c-1.105 0-2-.895-2-2v-3c0-1.105.895-2 2-2 1.105 0 2 .895 2 2v3c0 1.105-.895 2-2 2z"/><path d="m32 9c-1.105 0-2-.895-2-2v-3c0-1.105.895-2 2-2 1.105 0 2 .895 2 2v3c0 1.105-.895 2-2 2z"/><path d="m42 9c-1.105 0-2-.895-2-2v-3c0-1.105.895-2 2-2 1.105 0 2 .895 2 2v3c0 1.105-.895 2-2 2z"/></g><g><path d="m53 35.59v-30.59c0-.552-.448-1-1-1h-7c0-1.654-1.346-3-3-3s-3 1.346-3 3h-4c0-1.654-1.346-3-3-3s-3 1.346-3 3h-4c0-1.654-1.346-3-3-3s-3 1.346-3 3h-4c0-1.654-1.346-3-3-3s-3 1.346-3 3h-7c-.552 0-1 .448-1 1v46c0 .552.448 1 1 1h33.332c1.378 6.282 6.979 11 13.668 11 7.72 0 14-6.28 14-14 0-6.329-4.225-11.684-10-13.41zm-12-31.59c0-.551.449-1 1-1s1 .449 1 1v3c0 .551-.449 1-1 1s-1-.449-1-1zm-10 0c0-.551.449-1 1-1s1 .449 1 1v3c0 .551-.449 1-1 1s-1-.449-1-1zm-10 0c0-.551.449-1 1-1s1 .449 1 1v3c0 .551-.449 1-1 1s-1-.449-1-1zm-10 0c0-.551.449-1 1-1s1 .449 1 1v3c0 .551-.449 1-1 1s-1-.449-1-1zm-2 2v1c0 1.654 1.346 3 3 3s3-1.346 3-3v-1h4v1c0 1.654 1.346 3 3 3s3-1.346 3-3v-1h4v1c0 1.654 1.346 3 3 3s3-1.346 3-3v-1h4v1c0 1.654 1.346 3 3 3s3-1.346 3-3v-1h6v10h-48v-10zm-6 44v-32h48v17.16c-.655-.095-1.319-.16-2-.16v-14c0-.552-.448-1-1-1h-42c-.552 0-1 .448-1 1v24c0 .552.448 1 1 1h29.332c-.212.968-.332 1.97-.332 3 0 .338.027.668.051 1zm34-12v-4h4v3.527c-.216.151-.425.31-.632.473zm-30-4h4v4h-4zm2.586-8h-2.586v-2.586zm6 6h-2.586v-2.586zm-1.172-4h2.586v2.586zm4.586 1.414 2.586 2.586h-2.586zm1.414-1.414h2.586v2.586zm4.586 1.414 2.586 2.586h-2.586zm1.414-1.414h2.586v2.586zm4.586 1.414 2.586 2.586h-2.586zm1.414-1.414h2.586v2.586zm4.586 1.414 2.586 2.586h-2.586zm1.414-1.414h2.586v2.586zm8.586 2.586-2.586-2.586h2.586zm-4-4.586v-2.586l2.586 2.586zm-6 0v-2.586l2.586 2.586zm-6 0v-2.586l2.586 2.586zm-6 0v-2.586l2.586 2.586zm-6 0v-2.586l2.586 2.586zm-6 0v-2.586l2.586 2.586zm-2 2v2.586l-2.586-2.586zm2 6h4v4h-4zm6 0h4v4h-4zm6 0h4v4h-4zm6 0h4v4h-4zm12-4.586 2.586 2.586h-2.586zm4-4.828-2.586-2.586h2.586zm-6 0-2.586-2.586h2.586zm-6 0-2.586-2.586h2.586zm-6 0-2.586-2.586h2.586zm-6 0-2.586-2.586h2.586zm-6 0-2.586-2.586h2.586zm-6 0-2.586-2.586h2.586zm-1.414 7.414h-2.586v-2.586zm-2.586 8h4v4h-4zm6 0h4v4h-4zm6 0h4v4h-4zm6 0h4v4h-4zm6 0h4v4h-4zm6 0h1.292c-.48.57-.906 1.184-1.292 1.826zm6-6h4v1.16c-1.413.203-2.755.617-4 1.21zm6 27c-6.617 0-12-5.383-12-12s5.383-12 12-12 12 5.383 12 12-5.383 12-12 12z"/><path d="m44 44c0-.431-.275-.812-.684-.949-.408-.134-.857.005-1.116.349l-3 4 1.6 1.2 1.2-1.6v6h-2v2h6v-2h-2z"/><path d="m51 44c0-.454-.305-.85-.743-.966-.44-.12-.9.077-1.125.47l-4 7c-.177.31-.176.69.003.998s.509.498.865.498h3v3h2v-3h2v-2h-2zm-2 6h-1.277l1.277-2.234z"/><path d="m56 49h-1c-.552 0-1 .448-1 1v4c0 .552.448 1 1 1h1c1.654 0 3-1.346 3-3s-1.346-3-3-3zm0 4v-2c.551 0 1 .449 1 1s-.449 1-1 1z"/></g></g></svg>