<?xml version="1.0"?>
<svg xmlns="http://www.w3.org/2000/svg" width="512" height="512" viewBox="0 0 512 512"><g><g><path d="M405.981,442.383q-7.418,5.943-15.3,11.3L284,347l15.029-15.029a24,24,0,0,1,33.942,0L363.48,362.48,407.8,406.8A23.944,23.944,0,0,1,405.981,442.383Z" fill="#ffda44"/><path d="M390.68,453.68A240.035,240.035,0,0,1,57.32,120.32L164,227l-47.653,47.654a24.013,24.013,0,0,0-6.036,23.836,152.337,152.337,0,0,0,102.2,102.2,24.013,24.013,0,0,0,23.837-6.036L284,347Z" fill="#57565c"/><path d="M179.029,211.971,164,227,57.32,120.32q5.349-7.878,11.3-15.3A23.944,23.944,0,0,1,104.2,103.2l44.32,44.32,30.509,30.509A24,24,0,0,1,179.029,211.971Z" fill="#ffda44"/><path d="M496,128a112.03,112.03,0,0,1-166.44,97.9l-82.19,38.73,38.73-82.19A112.008,112.008,0,1,1,496,128Z" fill="#83d8f4"/></g><g><path d="M413.46,401.14l-74.83-74.83a32.012,32.012,0,0,0-45.26,0l-15.03,15.03L230.69,389a15.984,15.984,0,0,1-15.9,4.02,144.324,144.324,0,0,1-96.81-96.81,16.006,16.006,0,0,1,4.02-15.9l47.66-47.65,15.03-15.03a32.012,32.012,0,0,0,0-45.26L109.86,97.54A32.131,32.131,0,0,0,85.41,88.2a31.759,31.759,0,0,0-23.04,11.82c-4.08,5.09-8,10.41-11.67,15.8v.01A248.034,248.034,0,0,0,395.17,460.3a.01.01,0,0,0,.01-.01c5.39-3.65,10.71-7.58,15.8-11.66a31.759,31.759,0,0,0,11.82-23.04A32.094,32.094,0,0,0,413.46,401.14ZM74.86,110.02a15.55,15.55,0,0,1,11.43-5.85,16.107,16.107,0,0,1,12.25,4.69l74.83,74.83a15.982,15.982,0,0,1,0,22.62L164,215.69,67.72,119.41C70.02,116.22,72.41,113.08,74.86,110.02ZM256,487A232.054,232.054,0,0,1,58.65,132.96l29.58,29.58L152.69,227l-42,42a31.992,31.992,0,0,0-8.05,31.78A160.363,160.363,0,0,0,210.22,408.36,31.992,31.992,0,0,0,242,400.31l42-42,94.04,94.04A230.809,230.809,0,0,1,256,487Zm150.83-62.28a15.547,15.547,0,0,1-5.85,11.42c-3.06,2.45-6.2,4.84-9.39,7.14L295.31,347l9.38-9.37a15.982,15.982,0,0,1,22.62,0l74.83,74.83A16.1,16.1,0,0,1,406.83,424.72Z"/><path d="M384,8A120.034,120.034,0,0,0,277.15,182.66l-37.02,78.56a8.005,8.005,0,0,0,10.65,10.65l78.56-37.02A120.008,120.008,0,1,0,384,8Zm0,224a104.026,104.026,0,0,1-50.54-13.09,8.026,8.026,0,0,0-7.31-.25l-62.06,29.25,29.25-62.06a8.026,8.026,0,0,0-.25-7.31A104.01,104.01,0,1,1,384,232Z"/><path d="M440,120H328a8,8,0,0,0,0,16H440a8,8,0,0,0,0-16Z"/><path d="M440,88H328a8,8,0,0,0,0,16H440a8,8,0,0,0,0-16Z"/><path d="M392,152H328a8,8,0,0,0,0,16h64a8,8,0,0,0,0-16Z"/><path d="M424,152h-8a8,8,0,0,0,0,16h8a8,8,0,0,0,0-16Z"/></g></g></svg>
