<?xml version="1.0" encoding="iso-8859-1"?>
<!-- Generator: Adobe Illustrator 19.0.0, SVG Export Plug-In . SVG Version: 6.00 Build 0)  -->
<svg version="1.1" id="Capa_1" xmlns="http://www.w3.org/2000/svg" xmlns:xlink="http://www.w3.org/1999/xlink" x="0px" y="0px"
	 viewBox="0 0 512.076 512.076" style="enable-background:new 0 0 512.076 512.076;" xml:space="preserve">
<g transform="translate(-1 -1)">
	<g transform="translate(2 2)">
		<path style="fill:#558B30;" d="M499.423,430.246l-26.027,43.349c-4.39,7.359-10.476,13.561-17.749,18.091
			c-4.15,2.614-8.665,4.598-13.397,5.888c-43.179,11.861-138.496,14.336-291.243-138.496S0.649,111.014,12.511,67.835
			c1.29-4.732,3.274-9.247,5.888-13.397c4.53-7.274,10.732-13.359,18.091-17.749l43.349-26.027
			c9.899-5.927,22.707-3.035,29.099,6.571l37.632,56.32l31.488,47.275c6.226,9.447,4.187,22.088-4.693,29.099l-10.411,8.107
			l-28.416,22.016c-8.363,6.532-10.781,18.151-5.717,27.477c11.435,20.48,22.187,44.629,75.605,98.133s77.653,64.171,98.133,75.605
			c9.326,5.063,20.945,2.646,27.477-5.717l22.016-28.416l8.107-10.411c7.011-8.881,19.651-10.919,29.099-4.693l48.725,32.512
			l54.869,36.608C502.457,407.538,505.349,420.347,499.423,430.246z"/>
		<path style="fill:#8BC34A;" d="M482.356,447.312l-26.027,43.349c-0.256,0.341-0.427,0.683-0.683,1.024
			c-4.15,2.614-8.665,4.598-13.397,5.888c-43.179,11.861-138.496,14.336-291.243-138.496S0.649,111.014,12.511,67.835
			c1.29-4.732,3.274-9.247,5.888-13.397c0.341-0.256,0.683-0.427,1.024-0.683l43.349-26.027c9.899-5.927,22.707-3.035,29.099,6.571
			l37.632,56.32l31.488,47.275c6.15,9.464,4.12,22.049-4.693,29.099l-28.587,22.187l-10.24,7.936
			c-8.382,6.52-10.803,18.155-5.717,27.477c11.435,20.48,22.187,44.629,75.605,98.133s77.653,64.171,98.133,75.605
			c9.323,5.086,20.957,2.665,27.477-5.717l7.936-10.24l22.187-28.587c7.05-8.814,19.635-10.843,29.099-4.693l48.725,32.512
			l54.869,36.608C485.391,424.605,488.283,437.414,482.356,447.312z"/>
	</g>
	<g>
		<path d="M406.413,513.056c13.543,0.058,27.033-1.704,40.107-5.239c15.212-4.264,28.18-14.256,36.181-27.878l26.061-43.315
			c8.301-13.791,4.282-31.672-9.122-40.585l-103.646-69.12c-13.153-8.701-30.785-5.838-40.508,6.579l-30.191,38.818
			c-3.881,5.116-10.933,6.6-16.546,3.482l-5.743-3.166c-19.038-10.377-42.726-23.296-90.453-71.04
			c-47.727-47.744-60.672-71.45-71.049-90.453l-3.149-5.743c-3.161-5.612-1.705-12.695,3.413-16.606l38.793-30.182
			c12.412-9.725,15.279-27.351,6.588-40.508l-69.12-103.646C109.12,1.056,91.25-2.966,77.461,5.323L34.12,31.358
			C20.502,39.364,10.511,52.33,6.242,67.539c-15.607,56.866-3.866,155.008,140.706,299.597
			C261.952,482.131,347.567,513.056,406.413,513.056z M22.703,72.054c3.116-10.968,10.354-20.307,20.198-26.061l43.341-26.001
			c5.983-3.6,13.739-1.855,17.604,3.959l37.547,56.371l31.514,47.266c3.774,5.707,2.534,13.356-2.85,17.579l-38.801,30.182
			c-11.808,9.029-15.18,25.366-7.91,38.332l3.081,5.598c10.906,20.002,24.465,44.885,73.967,94.379s74.377,63.053,94.37,73.958
			l5.606,3.089c12.966,7.269,29.303,3.898,38.332-7.91l30.182-38.801c4.224-5.381,11.87-6.62,17.579-2.85l103.637,69.12
			c5.819,3.863,7.564,11.622,3.959,17.604l-26.001,43.341c-5.746,9.832-15.072,17.061-26.027,20.173
			c-52.497,14.413-144.213,2.475-283.008-136.32S8.29,124.559,22.703,72.054z"/>
		<path d="M291.161,86.39c80.081,0.089,144.977,64.986,145.067,145.067c0,4.713,3.821,8.533,8.533,8.533
			c4.713,0,8.533-3.821,8.533-8.533c-0.099-89.503-72.631-162.035-162.133-162.133c-4.713,0-8.533,3.82-8.533,8.533
			C282.628,82.569,286.448,86.39,291.161,86.39z"/>
		<path d="M291.161,137.59c51.816,0.061,93.806,42.051,93.867,93.867c0,4.713,3.82,8.533,8.533,8.533s8.533-3.821,8.533-8.533
			c-0.071-61.238-49.696-110.863-110.933-110.933c-4.713,0-8.533,3.821-8.533,8.533C282.628,133.769,286.448,137.59,291.161,137.59z
			"/>
		<path d="M291.161,188.79c23.552,0.028,42.638,19.114,42.667,42.667c0,4.713,3.82,8.533,8.533,8.533s8.533-3.821,8.533-8.533
			c-0.038-32.974-26.759-59.696-59.733-59.733c-4.713,0-8.533,3.821-8.533,8.533S286.448,188.79,291.161,188.79z"/>
	</g>
</g>
<g>
</g>
<g>
</g>
<g>
</g>
<g>
</g>
<g>
</g>
<g>
</g>
<g>
</g>
<g>
</g>
<g>
</g>
<g>
</g>
<g>
</g>
<g>
</g>
<g>
</g>
<g>
</g>
<g>
</g>
</svg>
