<svg height="512" viewBox="0 0 52 60" width="512" xmlns="http://www.w3.org/2000/svg"><g id="Page-1" fill="none" fill-rule="evenodd"><g id="061---tip-alert" fill-rule="nonzero" transform="translate(0 -1)"><g id="color" transform="translate(1 1)"><path id="Shape" d="m50 16v27c0 2.209139-1.790861 4-4 4h-10c-.6295146 0-1.2222912.2963883-1.6.8l-7.86 10.48c-.3799598.4585406-.9444927.7239122-1.54.7239122s-1.1600402-.2653716-1.54-.7239122l-7.86-10.48c-.3777088-.5036117-.9704854-.8-1.6-.8h-10c-2.209139 0-4-1.790861-4-4v-27c0-2.209139 1.790861-4 4-4h7.32c-1.0310833 4.7913578.5072468 9.77388 4.06 13.15 2.3592571 2.3107851 3.6677134 5.4879483 3.62 8.79v6.06c0 1.6568542 1.3431458 3 3 3h6c1.6568542 0 3-1.3431458 3-3v-6.23c-.0486233-3.2229583 1.2402403-6.3220234 3.56-8.56 2.8348527-2.6382216 4.4435308-6.3374568 4.44-10.21.0006277-1.0085505-.1066495-2.0142738-.32-3h7.32c2.209139 0 4 1.790861 4 4z" fill="#e91e63"/><g fill="#ad1457"><path id="Shape" d="m12.38 25.15c2.3592571 2.3107851 3.6677134 5.4879483 3.62 8.79v6.06c0 1.6568542 1.3431458 3 3 3h3c-1.6568542 0-3-1.3431458-3-3v-6.06c.0477134-3.3020517-1.2607429-6.4792149-3.62-8.79-3.5527532-3.37612-5.0910833-8.3586422-4.06-13.15h-3c-1.03108329 4.7913578.50724677 9.77388 4.06 13.15z"/><path id="Shape" d="m46 12h-3c2.209139 0 4 1.790861 4 4v27c0 2.209139-1.790861 4-4 4h3c2.209139 0 4-1.790861 4-4v-27c0-2.209139-1.790861-4-4-4z"/><path id="Shape" d="m31.4 47.8-7.86 10.48c.3796661.4305009.9259988.6771243 1.5.6771243s1.1203339-.2466234 1.5-.6771243l7.86-10.48c.3777088-.5036117.9704854-.8 1.6-.8h-3c-.6295146 0-1.2222912.2963883-1.6.8z"/></g><path id="Shape" d="m39 15c.0035308 3.8725432-1.6051473 7.5717784-4.44 10.21-2.3197597 2.2379766-3.6086233 5.3370417-3.56 8.56v2.23h-12v-2.06c.0477134-3.3020517-1.2607429-6.4792149-3.62-8.79-3.5527532-3.37612-5.0910833-8.3586422-4.06-13.15 1.5214694-6.99367822 8.0729349-11.71361205 15.1885275-10.94241344 7.1155925.77119861 12.5037022 6.78516155 12.4914725 13.94241344z" fill="#ffeb3a"/><path id="Shape" d="m38.68 12c-1.4573929-6.68192173-7.5290984-11.3329496-14.36-11-.28 0-.56 0-.84.07 5.4351856.58888439 10.0303682 4.2876848 11.7669188 9.4715463s.2967459 10.9043325-3.6869188 14.6484537c-2.3248826 2.2427508-3.6141906 5.3501279-3.56 8.58v2.23h3v-2.23c-.0486233-3.2229583 1.2402403-6.3220234 3.56-8.56 2.8348527-2.6382216 4.4435308-6.3374568 4.44-10.21.0006277-1.0085505-.1066495-2.0142738-.32-3z" fill="#fdd834"/><path id="Shape" d="m31 36v4c0 1.6568542-1.3431458 3-3 3h-6c-1.6568542 0-3-1.3431458-3-3v-4z" fill="#f5f5f5"/><path id="Shape" d="m28 36v4c0 1.6568542-1.3431458 3-3 3h3c1.6568542 0 3-1.3431458 3-3v-4z" fill="#cfd8dc"/><path id="Shape" d="m16 13h-.19c-.2675782-.0458512-.5050153-.1985218-.6577734-.4229441-.1527581-.2244224-.2077075-.5013073-.1522266-.7670559.7022406-3.00025564 2.7773668-5.49411264 5.6-6.73.3359032-.17820328.7438083-.15048192 1.0525129.07152909.3087045.22201101.4647856.59989163.4027343.97504094-.0620514.3751493-.3314969.68264594-.6952472.79342997 0 0-3.66 1.59-4.36 5.27-.0922491.4771082-.5141358.8188364-1 .81z" fill="#f5f5f5"/></g><g id="Icons" fill="#000"><path id="Shape" d="m0 17v27c0 1.3260824.5267842 2.597852 1.46446609 3.5355339.9376819.9376819 2.20945146 1.4644661 3.53553391 1.4644661h10c.3147573 0 .6111456.1481942.8.4l7.89 10.52c.5697328.6986867 1.4234688 1.1041163 2.325 1.1041163s1.7552672-.4054296 2.325-1.1041163l7.86-10.52c.1888544-.2518058.4852427-.4.8-.4h10c1.3260824 0 2.597852-.5267842 3.5355339-1.4644661s1.4644661-2.2094515 1.4644661-3.5355339v-27c0-2.7614237-2.2385763-5-5-5h-6.55c-1.8626933-6.76262183-8.1633677-11.33133764-15.17-11-6.4759684.31190989-12.0185803 4.74922656-13.74 11h-6.54c-2.76142375 0-5 2.2385763-5 5zm25.37-14c5.4417216-.25965962 10.4681408 2.90126933 12.5915212 7.9183415 2.1233803 5.0170722.8932655 10.8259601-3.0815212 14.5516585-2.5235016 2.4302338-3.9280847 5.7968893-3.88 9.3v1.23h-10v-1.06c.045605-3.5789559-1.3785334-7.0200212-3.94-9.52-3.7786996-3.5814055-5.0562636-9.0717981-3.2468528-13.9535057 1.8094108-4.88170753 6.356774-8.21308378 11.5568528-8.4664943zm3.63 40h-6c-1.1045695 0-2-.8954305-2-2v-3h10v3c0 1.1045695-.8954305 2-2 2zm-27-26c0-1.6568542 1.34314575-3 3-3h6.15c0 .21-.07.42-.09.63-.4147586 4.5770017 1.2915582 9.0915548 4.63 12.25 2.1577459 2.1218991 3.3536759 5.034043 3.31 8.06v6.06c.0059072 1.819157 1.2385971 3.4052179 3 3.86v1.14c0 .5522847.4477153 1 1 1s1-.4477153 1-1v-1h4v1c0 .5522847.4477153 1 1 1s1-.4477153 1-1v-1.14c1.7614029-.4547821 2.9940928-2.040843 3-3.86v-6.23c-.0445239-2.946836 1.131791-5.78085 3.25-7.83 3.5717851-3.2919137 5.2924462-8.1322081 4.6-12.94h6.15c1.6568542 0 3 1.3431458 3 3v27c0 1.6568542-1.3431458 3-3 3h-10c-.9442719 0-1.8334369.4445825-2.4 1.2l-7.83 10.44c-.1992161.2021544-.4711806.3159738-.755.3159738s-.5557839-.1138194-.755-.3159738l-7.86-10.44c-.5665631-.7554175-1.4557281-1.2-2.4-1.2h-10c-1.65685425 0-3-1.3431458-3-3z"/><path id="Shape" d="m24 29c-.5522847 0-1 .4477153-1 1v3c0 .5522847.4477153 1 1 1s1-.4477153 1-1v-3c0-.5522847-.4477153-1-1-1z"/><path id="Shape" d="m23 25c0 .5522847.4477153 1 1 1s1-.4477153 1-1v-1c0-.5522847-.4477153-1-1-1s-1 .4477153-1 1z"/><path id="Shape" d="m28 34c.5522847 0 1-.4477153 1-1v-3c0-.5522847-.4477153-1-1-1s-1 .4477153-1 1v3c0 .5522847.4477153 1 1 1z"/><path id="Shape" d="m28 26c.5522847 0 1-.4477153 1-1v-1c0-.5522847-.4477153-1-1-1s-1 .4477153-1 1v1c0 .5522847.4477153 1 1 1z"/><path id="Shape" d="m10 8c.3025884.00102886.5893699-.13500853.78-.37.1666477-.20784463.2434734-.47359297.213436-.73829771s-.1644547-.50648223-.373436-.67170229l-5-4c-.43136993-.34035688-1.05654608-.26890818-1.4.16-.34035688.43136993-.26890818 1.05654608.16 1.4l5 4c.17593927.14116059.39443576.2186916.62.22z"/><path id="Shape" d="m42.62 7.78 5-4c.4289082-.34345392.5003569-.96863007.16-1.4-.3434539-.42890818-.9686301-.50035688-1.4-.16l-5 4c-.2089813.16522006-.3433986.40699755-.373436.67170229s.0467883.53045308.213436.73829771c.1906301.23499147.4774116.37102886.78.37.2255642-.0013084.4440607-.07883941.62-.22z"/><path id="Shape" d="m4.22 36.63c.19063005.2349915.47741159.3710289.78.37.22556424-.0013084.44406073-.0788394.62-.22l5-4c.3144469-.209018.4843547-.5773256.4392706-.9522027-.0450842-.374877-.2974724-.6923976-.6525109-.8209007s-.75218442-.0460757-1.0267597.2131034l-5 4c-.20898129.1652201-.34339862.4069976-.37343603.6717023-.03003742.2647047.04678833.5304531.21343603.7382977z"/><path id="Shape" d="m46.38 36.78c.1759393.1411606.3944358.2186916.62.22.3025884.0010289.5893699-.1350085.78-.37.1666477-.2078446.2434734-.473593.213436-.7382977s-.1644547-.5064822-.373436-.6717023l-5-4c-.4325494-.2875227-1.0132098-.1960372-1.3363985.210555-.3231887.4065923-.2813039.9929213.0963985 1.349445z"/><path id="Shape" d="m5 19h3c.55228475 0 1-.4477153 1-1s-.44771525-1-1-1h-3c-.55228475 0-1 .4477153-1 1s.44771525 1 1 1z"/><path id="Shape" d="m44 19h3c.5522847 0 1-.4477153 1-1s-.4477153-1-1-1h-3c-.5522847 0-1 .4477153-1 1s.4477153 1 1 1z"/></g></g></g></svg>