<svg id="Layer_5" enable-background="new 0 0 64 64" height="512" viewBox="0 0 64 64" width="512" xmlns="http://www.w3.org/2000/svg"><path d="m53.26 23.37c-1.04-.63-2.17-1.16-3.35-1.57l-2.79-.97-4.77-1.663c-2.006-.7-3.35-2.592-3.35-4.717v-1.47l-.01-.01c-2.12 1.34-4.47 2.37-6.99 3.03-2.52-.66-4.87-1.69-6.99-3.03l-.01.01v1.462c0 2.13-1.348 4.028-3.36 4.728l-7.55 2.63c-7.24 2.51-12.09 9.34-12.09 17v13.2c0 1.73.44 3.36 1.22 4.78 1.711 3.213 5.054 5.22 8.694 5.22h.086 2 2 34 12v-23.2c0-6.41-3.39-12.23-8.74-15.43z" fill="#f0d0b4"/><path d="m15.34 2h33.32c-2.08 4.5-5.43 8.34-9.67 10.97-2.12 1.34-4.47 2.37-6.99 3.03-2.52-.66-4.87-1.69-6.99-3.03-4.24-2.63-7.59-6.47-9.67-10.97z" fill="#f0d0b4"/><path d="m55.247 23.494 2.441-1.22-2.092-2.092 6.934-4.333-1.06-1.696-9.066 5.667 1.908 1.908-1.02.51c-.965-.542-1.979-1.012-3.05-1.384l-1.576-.548 4.203-6.306h-3.426l2.494-6.649-1.873-.702-3.507 9.351h2.574l-2.416 3.625-4.029-1.401c-1.606-.559-2.686-2.078-2.686-3.779v-.922c4.116-2.69 7.445-6.506 9.564-11.105l.653-1.418h-36.434l.653 1.418c2.119 4.6 5.448 8.415 9.564 11.105v.922c0 1.701-1.08 3.219-2.686 3.778l-7.556 2.628c-7.631 2.655-12.758 9.866-12.758 17.946v13.203c0 6.065 4.935 11 11 11h2 2.393 46.607v-24.203c0-6.147-2.973-11.785-7.753-15.303zm-38.286-20.494h30.077c-3.175 5.879-8.57 10.189-15.038 11.964-6.468-1.775-11.863-6.085-15.039-11.964zm44.039 58h-10v-17.757c0-2.469.961-4.79 2.707-6.536l-1.414-1.414c-2.124 2.124-3.293 4.947-3.293 7.95v17.757h-30.454l11.914-11.063 3.808-.635c1.447-.241 2.761-.917 3.798-1.955l8.02-8.02c.589-.588.914-1.372.914-2.206 0-1.274-.769-2.368-1.865-2.853.555-.582.865-1.339.865-2.147 0-1.274-.769-2.368-1.865-2.853.555-.582.865-1.339.865-2.147 0-1.721-1.4-3.121-3.121-3.121-.834 0-1.618.325-2.207.914l-.944.944c-.487-1.092-1.578-1.858-2.849-1.858-.834 0-1.618.325-2.207.914l-3.825 3.825c-.359-1.743-1.375-3.297-2.887-4.309-.42-.281-.91-.43-1.416-.43-1.402 0-2.544 1.142-2.544 2.544v1.031c0 1.296-.505 2.516-1.421 3.432l-1.528 1.528c-1.322 1.322-2.05 3.08-2.05 4.95v3.101l-3 3v-.343c0-3.003-1.169-5.826-3.293-7.95l-1.414 1.414c1.745 1.746 2.706 4.067 2.706 6.536v2.343l-6.707 6.707 1.414 1.414 12.293-12.293v-3.929c0-1.335.52-2.591 1.464-3.536l1.528-1.528c1.295-1.294 2.008-3.015 2.008-4.846v-1.031c0-.408.506-.68.848-.452 1.347.903 2.152 2.41 2.152 4.033v.461l-3.707 3.707-.051.051 1.414 1.414.051-.051 4.293-4.293 5.086-5.086c.212-.211.493-.328.793-.328.618 0 1.121.503 1.121 1.121 0 .3-.117.581-.328.793l-7.379 7.379 1.414 1.414 7.379-7.379 3-3c.212-.211.493-.328.793-.328.618 0 1.121.503 1.121 1.121 0 .3-.117.581-.328.793l-2 2-8.379 8.379 1.414 1.414 8.379-8.379c.212-.211.493-.328.793-.328.618 0 1.121.503 1.121 1.121 0 .3-.117.581-.328.793l-2 2-6.379 6.379 1.414 1.414 6.379-6.379c.212-.211.493-.328.793-.328.618 0 1.121.503 1.121 1.121 0 .3-.117.581-.328.793l-8.02 8.02c-.741.741-1.679 1.224-2.713 1.396l-4.399.733-13.933 12.937h-1.607-2c-4.962 0-9-4.038-9-9v-13.203c0-7.229 4.587-13.682 11.415-16.057l7.556-2.628c2.329-.81 3.905-2.969 4.009-5.416 1.808.968 3.737 1.737 5.765 2.271l.255.067.254-.067c2.028-.534 3.958-1.303 5.765-2.271.104 2.447 1.68 4.606 4.009 5.416l3.54 1.231-1.401 2.102 1.664 1.109 1.688-2.532 2.065.718c.51.177 1.003.384 1.487.606l-5.519 2.759.895 1.789 6.765-3.383c4.775 3.083 7.788 8.429 7.788 14.286z"/><path d="m34 11h2c0-1.682-1.757-3-4-3s-4 1.318-4 3h2c0-.408.779-1 2-1s2 .592 2 1z"/></svg>