<svg id="Capa_1" enable-background="new 0 0 512 512" height="512" viewBox="0 0 512 512" width="512" xmlns="http://www.w3.org/2000/svg"><g id="XMLID_1187_"><path id="XMLID_1739_" d="m479 448h-455.333c-7.548 0-13.667-6.119-13.667-13.667v-60.667c0-7.547 6.119-13.666 13.667-13.666h455.333c12.703 0 23 10.297 23 23v42c0 12.703-10.297 23-23 23z" fill="#f8f8f8"/><path id="XMLID_1987_" d="m10 373.667v60.667c0 7.547 6.119 13.666 13.667 13.666h40.333v-88h-40.333c-7.548 0-13.667 6.119-13.667 13.667z" fill="#ffa76b"/><path id="XMLID_1732_" d="m479 360h-121v88h121c12.703 0 23-10.297 23-23v-42c0-12.703-10.297-23-23-23z" fill="#ffd88e"/><g id="XMLID_1634_"><path id="XMLID_1731_" d="m52.768 116.692h39.598c13.093 0 23.707 10.614 23.707 23.707 0 13.093-10.614 23.707-23.707 23.707h-39.598c-13.093 0-23.707-10.614-23.707-23.707-.001-13.092 10.613-23.707 23.707-23.707z" fill="#f8f8f8"/><g id="XMLID_1709_"><g id="XMLID_3429_"><path id="XMLID_3430_" d="m33.708 300.707c-13.094 0-23.708-10.614-23.708-23.707v-3.535c0-37.53 30.533-68.063 68.062-68.063h141.616c11.384 0 20.647-9.262 20.647-20.647s-9.263-20.647-20.647-20.647h-28.554c-13.093 0-23.708-10.614-23.708-23.708s10.614-23.708 23.708-23.708h28.554c37.529 0 68.062 30.533 68.062 68.062s-30.533 68.062-68.062 68.062h-141.616c-11.384 0-20.647 9.263-20.647 20.648v3.536c0 13.093-10.614 23.707-23.707 23.707z" fill="#f8f8f8"/></g></g><path id="XMLID_1669_" d="m311.448 64h39.598c13.093 0 23.707 10.614 23.707 23.707 0 13.093-10.614 23.707-23.707 23.707h-39.598c-13.093 0-23.707-10.614-23.707-23.707-.001-13.093 10.613-23.707 23.707-23.707z" fill="#f8f8f8"/></g><g id="XMLID_1219_"><path id="XMLID_1294_" d="m479 350h-223c-5.522 0-10 4.478-10 10s4.478 10 10 10h92v68h-274v-68h92c5.522 0 10-4.478 10-10s-4.478-10-10-10h-142.333c-13.05 0-23.667 10.617-23.667 23.667v60.666c0 13.05 10.617 23.667 23.667 23.667h455.333c18.196 0 33-14.804 33-33v-42c0-18.196-14.804-33-33-33zm-459 84.333v-60.666c0-2.022 1.645-3.667 3.667-3.667h30.333v68h-30.333c-2.022 0-3.667-1.645-3.667-3.667zm472-9.333c0 7.168-5.832 13-13 13h-111v-68h111c7.168 0 13 5.832 13 13z"/><path id="XMLID_1326_" d="m33.707 310.707c18.587 0 33.708-15.121 33.708-33.707v-3.535c0-5.871 4.776-10.647 10.647-10.647h141.615c43.044 0 78.062-35.019 78.062-78.062s-35.019-78.062-78.062-78.062h-28.554c-18.586 0-33.707 15.121-33.707 33.707 0 18.587 15.121 33.708 33.707 33.708h28.554c5.871 0 10.647 4.776 10.647 10.647s-4.776 10.647-10.647 10.647h-141.615c-43.043-.001-78.062 35.018-78.062 78.062v3.535c0 18.586 15.121 33.707 33.707 33.707zm-13.707-37.242c0-32.016 26.047-58.062 58.062-58.062h141.615c16.899 0 30.647-13.748 30.647-30.647s-13.748-30.647-30.647-30.647h-28.554c-7.558 0-13.707-6.149-13.707-13.708 0-7.558 6.149-13.707 13.707-13.707h28.554c32.016 0 58.062 26.047 58.062 58.062s-26.047 58.062-58.062 58.062h-141.615c-16.899 0-30.647 13.748-30.647 30.647v3.535c0 7.558-6.149 13.707-13.708 13.707-7.558 0-13.707-6.149-13.707-13.707z"/><path id="XMLID_1331_" d="m52.768 174.107h39.599c18.586 0 33.707-15.121 33.707-33.708 0-18.586-15.121-33.707-33.707-33.707h-39.599c-18.586 0-33.707 15.121-33.707 33.708 0 18.586 15.121 33.707 33.707 33.707zm0-47.415h39.599c7.558 0 13.707 6.149 13.707 13.708 0 7.558-6.149 13.707-13.707 13.707h-39.599c-7.558 0-13.707-6.149-13.707-13.708 0-7.557 6.149-13.707 13.707-13.707z"/><path id="XMLID_1334_" d="m311.447 121.415h39.599c18.587 0 33.708-15.121 33.708-33.708 0-18.586-15.121-33.707-33.708-33.707h-39.599c-18.586 0-33.707 15.121-33.707 33.708 0 18.586 15.121 33.707 33.707 33.707zm0-47.415h39.599c7.559 0 13.708 6.149 13.708 13.708 0 7.558-6.149 13.707-13.708 13.707h-39.599c-7.558 0-13.707-6.149-13.707-13.708 0-7.558 6.15-13.707 13.707-13.707z"/><path id="XMLID_1338_" d="m211 350c-2.641 0-5.21 1.069-7.07 2.93s-2.93 4.44-2.93 7.07 1.069 5.21 2.93 7.069c1.86 1.86 4.44 2.931 7.07 2.931s5.21-1.07 7.069-2.931c1.861-1.859 2.931-4.439 2.931-7.069s-1.07-5.21-2.931-7.07c-1.859-1.861-4.439-2.93-7.069-2.93z"/></g></g></svg>