<?xml version="1.0" encoding="iso-8859-1"?>
<!-- Generator: Adobe Illustrator 19.0.0, SVG Export Plug-In . SVG Version: 6.00 Build 0)  -->
<svg version="1.1" id="Capa_1" xmlns="http://www.w3.org/2000/svg" xmlns:xlink="http://www.w3.org/1999/xlink" x="0px" y="0px"
	 viewBox="0 0 512 512" style="enable-background:new 0 0 512 512;" xml:space="preserve">
<g>
	<polygon style="fill:#4398D1;" points="324.267,486.4 85.333,486.4 51.2,221.867 358.4,221.867 	"/>
	<rect x="25.6" y="187.733" style="fill:#4398D1;" width="358.4" height="34.133"/>
</g>
<polygon style="fill:#398CC4;" points="51.2,221.867 55.603,256 353.997,256 358.4,221.867 "/>
<polygon style="fill:#726891;" points="187.733,187.733 68.267,187.733 68.267,110.933 102.4,68.267 153.6,68.267 187.733,110.933 
	"/>
<rect x="102.4" y="8.533" style="fill:#E8594A;" width="51.2" height="59.733"/>
<rect x="68.267" y="110.933" style="fill:#7A709C;" width="119.467" height="76.8"/>
<rect x="323.902" y="37.049" transform="matrix(-0.8947 0.4466 -0.4466 -0.8947 663.8372 -4.3846)" style="fill:#E66712;" width="17.066" height="77.992"/>
<g>
	<rect x="341.333" y="8.533" style="fill:#F77219;" width="34.133" height="34.133"/>
	<path style="fill:#F77219;" d="M298.667,76.8h-76.8c0-37.7,30.566-68.267,68.267-68.267h51.2v34.133L298.667,76.8z"/>
</g>
<rect x="247.467" y="76.8" style="fill:#D4D4D4;" width="51.2" height="34.133"/>
<polygon style="fill:#EBEBEB;" points="247.467,110.933 298.667,110.933 341.333,153.6 341.333,187.733 221.867,187.733 
	221.867,136.533 "/>
<path style="fill:#F5A338;" d="M443.733,366.933H430.37c-8.047,0-15.983,1.877-23.185,5.47c-14.592,7.305-31.778,7.305-46.37,0
	c-7.202-3.592-15.138-5.47-23.185-5.47h-13.363c-23.561,0-42.667,19.106-42.667,42.667v51.2c0,23.561,19.106,42.667,42.667,42.667
	h13.363c8.047,0,15.983-1.877,23.185-5.47c14.592-7.305,31.778-7.305,46.37,0c7.202,3.593,15.138,5.47,23.185,5.47h13.363
	c23.561,0,42.667-19.106,42.667-42.667v-51.2C486.4,386.039,467.294,366.933,443.733,366.933z"/>
<path style="fill:#F9B44D;" d="M443.733,452.267H430.37c-8.047,0-15.983-1.877-23.185-5.47l0,0c-14.592-7.305-31.778-7.305-46.37,0
	l0,0c-7.202,3.592-15.138,5.47-23.185,5.47h-13.363c-23.561,0-42.667-19.106-42.667-42.667l0,0
	c0-23.561,19.106-42.667,42.667-42.667h13.363c8.047,0,15.983,1.877,23.185,5.47l0,0c14.592,7.305,31.778,7.305,46.37,0l0,0
	c7.202-3.592,15.138-5.47,23.185-5.47h13.363c23.561,0,42.667,19.106,42.667,42.667l0,0
	C486.4,433.161,467.294,452.267,443.733,452.267z"/>
<g>
	<rect x="435.2" y="392.533" style="fill:#F5A338;" width="17.067" height="17.067"/>
	<rect x="349.867" y="392.533" style="fill:#F5A338;" width="17.067" height="17.067"/>
	<rect x="315.733" y="401.067" style="fill:#F5A338;" width="17.067" height="17.067"/>
	<rect x="401.067" y="401.067" style="fill:#F5A338;" width="17.067" height="17.067"/>
</g>
<path style="fill:#97D3E6;" d="M247.467,256v-68.267H110.933V384c0,14.14,11.46,25.6,25.6,25.6h85.333c14.14,0,25.6-11.46,25.6-25.6
	v-85.333l34.645,17.323c9.139,4.574,20.25,0.87,24.823-8.26c0-0.009,0.009-0.009,0.009-0.017l0.213-0.427
	c4.779-9.378,1.041-20.855-8.329-25.626c-0.034-0.017-0.077-0.043-0.119-0.06L247.467,256z"/>
<path style="fill:#8AC9DE;" d="M298.709,281.6L247.467,256v-68.267h-6.468c-30.976,101.845-85.333,164.087-129.707,200.03
	c1.835,12.535,12.578,21.828,25.242,21.837h85.333c14.14,0,25.6-11.46,25.6-25.6v-85.333l34.645,17.323
	c9.139,4.574,20.25,0.87,24.823-8.26c0-0.009,0.009-0.009,0.009-0.017l0.213-0.427c4.779-9.378,1.041-20.855-8.329-25.626
	C298.786,281.643,298.752,281.617,298.709,281.6z"/>
<g>
	<rect x="136.533" y="324.267" style="fill:#7DBDD1;" width="17.067" height="85.333"/>
	<rect x="170.667" y="324.267" style="fill:#7DBDD1;" width="17.067" height="85.333"/>
	<rect x="204.8" y="324.267" style="fill:#7DBDD1;" width="17.067" height="85.333"/>
</g>
<path d="M25.6,230.4h18.099l33.169,257.092c0.546,4.258,4.173,7.441,8.465,7.441h200.875c9.677,10.846,23.518,17.058,38.059,17.067
	h13.363c9.37-0.009,18.611-2.193,26.999-6.374c12.203-6.067,26.539-6.067,38.741,0c8.388,4.181,17.63,6.366,26.999,6.374h13.363
	c28.262-0.026,51.174-22.938,51.2-51.2v-51.2c-0.026-28.262-22.938-51.174-51.2-51.2H430.37c-9.37,0.009-18.611,2.193-26.999,6.374
	c-12.203,6.067-26.539,6.067-38.741,0c-4.864-2.389-10.035-4.113-15.36-5.12L365.901,230.4H384c4.71,0,8.533-3.823,8.533-8.533
	v-34.133c0-4.71-3.823-8.533-8.533-8.533h-34.133v-25.6c0-2.261-0.896-4.437-2.5-6.033L307.2,107.401V80.896l12.937-10.342
	l22.093,44.194l15.275-7.629l-23.74-47.471L344.32,51.2h31.147c4.71,0,8.533-3.823,8.533-8.533V8.533C384,3.823,380.177,0,375.467,0
	h-85.333c-42.394,0.051-76.749,34.406-76.8,76.8c0,4.71,3.823,8.533,8.533,8.533h17.067v22.067l-23.1,23.1
	c-1.604,1.596-2.5,3.772-2.5,6.033V179.2h-17.067v-68.267c-0.017-1.058-0.222-2.099-0.623-3.081
	c-0.154-0.333-0.333-0.657-0.529-0.964c-0.205-0.444-0.444-0.879-0.717-1.289l-32.265-40.32V8.533c0-4.71-3.823-8.533-8.533-8.533
	h-51.2c-4.71,0-8.533,3.823-8.533,8.533V65.28L61.602,105.6c-0.273,0.41-0.512,0.845-0.717,1.289
	c-0.196,0.307-0.375,0.631-0.529,0.964c-0.401,0.981-0.606,2.022-0.623,3.081V179.2H25.6c-4.71,0-8.533,3.823-8.533,8.533v34.133
	C17.067,226.577,20.89,230.4,25.6,230.4z M443.733,494.933H430.37c-6.724-0.009-13.346-1.579-19.362-4.574
	c-17.015-8.457-37.001-8.457-54.016,0c-6.016,2.995-12.638,4.565-19.362,4.574h-13.363c-18.85,0-34.133-15.283-34.133-34.133
	v-13.141c9.361,8.457,21.521,13.141,34.133,13.141h13.363c9.37-0.009,18.611-2.193,26.999-6.374c12.203-6.067,26.539-6.067,38.741,0
	c8.388,4.181,17.63,6.366,26.999,6.374h13.363c12.612,0,24.772-4.685,34.133-13.141V460.8
	C477.867,479.65,462.583,494.933,443.733,494.933z M411.008,380.041c6.016-2.995,12.638-4.565,19.362-4.574h13.363
	c18.85,0,34.133,15.283,34.133,34.133c0,18.85-15.283,34.133-34.133,34.133H430.37c-6.724-0.009-13.346-1.579-19.362-4.574
	c-17.015-8.457-37.001-8.457-54.016,0c-6.016,2.995-12.638,4.565-19.362,4.574h-13.363c-18.85,0-34.133-15.283-34.133-34.133
	c0-18.85,15.283-34.133,34.133-34.133h13.363c6.724,0.009,13.346,1.579,19.362,4.574
	C374.007,388.489,393.993,388.489,411.008,380.041z M332.177,358.4h-7.91c-28.262,0.026-51.174,22.938-51.2,51.2v51.2
	c0.017,5.82,1.024,11.588,2.987,17.067H92.834L60.902,230.4H102.4V384c0,18.85,15.283,34.133,34.133,34.133h85.333
	C240.717,418.133,256,402.85,256,384v-71.526l22.289,11.145c13.466,6.647,29.773,1.118,36.42-12.348
	c0.026-0.06,0.051-0.111,0.085-0.171c3.302-6.554,3.866-14.148,1.562-21.12c-2.278-6.972-7.253-12.732-13.824-15.991L256,250.726
	V230.4h92.698L332.177,358.4z M221.867,196.267h17.067V256c-0.017,3.251,1.809,6.229,4.719,7.68l51.2,25.6
	c2.5,1.229,4.386,3.422,5.248,6.067c0.887,2.842,0.58,5.922-0.853,8.533c-2.458,4.924-8.439,6.929-13.363,4.471
	c-0.009,0-0.017-0.009-0.026-0.009l-34.645-17.323c-4.233-2.065-9.344-0.316-11.409,3.917c-0.572,1.161-0.87,2.441-0.87,3.729V384
	c0,9.429-7.637,17.067-17.067,17.067v-76.8H204.8v76.8h-17.067v-76.8h-17.067v76.8H153.6v-76.8h-17.067v76.8
	c-9.429,0-17.067-7.637-17.067-17.067V196.267H221.867z M375.467,213.333H256v-17.067h119.467V213.333z M366.933,34.133h-17.067
	V17.067h17.067V34.133z M290.133,17.067H332.8v21.504l-37.129,29.696h-64.666C235.29,38.895,260.454,17.101,290.133,17.067z
	 M290.133,85.333V102.4H256V85.333H290.133z M230.4,140.066l20.599-20.599h44.134l37.666,37.666V179.2H230.4V140.066z M106.496,76.8
	h43.008l20.48,25.6H86.016L106.496,76.8z M110.933,17.067h34.133v42.667h-34.133V17.067z M76.8,119.467h102.4V179.2H76.8V119.467z
	 M34.133,196.267H102.4v17.067H34.133V196.267z"/>
<rect x="435.2" y="392.533" width="17.067" height="17.067"/>
<rect x="349.867" y="392.533" width="17.067" height="17.067"/>
<rect x="315.733" y="401.067" width="17.067" height="17.067"/>
<rect x="401.067" y="401.067" width="17.067" height="17.067"/>
<g>
</g>
<g>
</g>
<g>
</g>
<g>
</g>
<g>
</g>
<g>
</g>
<g>
</g>
<g>
</g>
<g>
</g>
<g>
</g>
<g>
</g>
<g>
</g>
<g>
</g>
<g>
</g>
<g>
</g>
</svg>
