<svg id="Capa_1" enable-background="new 0 0 512 512" height="512" viewBox="0 0 512 512" width="512" xmlns="http://www.w3.org/2000/svg"><g><g><path d="m203.92 508.184c-6.958.226-15.507-6.262-19.822-11.152-5.004-5.671-8.008-12.865-9.285-20.272-2.697-15.645 1.913-32.852 12.533-44.728 11.162-12.482 29.705-6.029 40.133 4.427 9.047 9.072 13.596 22.224 13.081 34.933-.841 20.735-15.756 36.113-36.64 36.792z" fill="#ffbf48"/><path d="m370.221 383.699c-9.366 1.951-18.411-7.495-17.861-16.65-.4-12.538 16.45-24.395 21.983-36.062 7.735-14.389-.39-37.433-1.201-54.183-2.602-36.712 39.774-43.987 56.925-15.119 26.797 46.067-9.105 112.878-59.846 122.014z" fill="#5bd0fc"/><path d="m373.283 30.023c-3.022 34.721-51.371 25.225-75.316 34.741-9.486 3.332-17.821 8.755-26.576 13.438-47.149 27.977-67.681-21.403-18.691-30.809 23.804-1.501 38.954-9.436 57.985-23.024 6.914-4.333 21.713-11.787 34.831-10.937 4.263.251 25.526 2.192 27.767 16.591z" fill="#94c668"/><path d="m108.123 369.379c4.062 4.048 12.289-2.21 17.779-1.65 28.817-.561 20.645 38.983 64.202 26.04-.65-5.739-1.165-11.676-1.538-17.585-25.824-.419-22.129-45.506 1.197-46.759 19.904 2.847 17.596 44.291-.211 46.69.365 5.711.932 11.788 1.523 17.495 27.634-12.969 33.171-56.402 11.697-77.5-20.974-23.632-63.406-13.462-66.663 18.782-5.497-.456-13.498-2.339-18.967-3.085-5.931-.752-7.717-.207-8.201 7.815-.567 6.87-1.201 17.629-1.739 24.612-.129 1.733-.22 3.732.921 5.145z" fill="#f9d889"/><path d="m360.472 404.479c66.051 13.042 117.283-74.179 98.279-130.602-10.361-45.6-83.38-77.352-105.835-32.505-9.707 38.087 21.426 51.333-11.597 95.272-20.876 27.72-25.674 62.224 19.153 67.835zm-9.114-37.471c1.319-16.416 15.906-23.246 22.09-36.445 11.227-21.868-12.652-59.591 6.811-79.545 6.406-7.05 17.893-9.938 27.538-7.432 43.363 14.017 37.806 78.819 13.311 108.54-13.247 18.302-64.278 54.271-69.75 14.882z" fill="#bc88e5"/><g fill="#939baa"><path d="m125.801 96.065c-50.276-1.344-67.814 75.607-31.848 105.292 12.584 10.453 33.663 11.468 46.081.337-27.473-13.539-48.872-44.759-34.318-72.597 5.296-9.799 16.298-17.019 27.507-17.243 10.427.32 18.828 9.777 28.073 14.035-6.033-14.951-19.112-29.647-35.495-29.824z"/><path d="m129.735 368.89c.931 8.275 1.951 16.97.53 25.265-1.951 15.95-18.051 29.448-32.2 19.752-18.461-19.402-22.013-128.718 22.153-120.163 14.899 5.333 13.939 26.076 10.557 39.384-27.497-6.364-21.643-.801-24.005 22.894-3.541 25.795 8.016 11.547 22.965 12.868z"/><path d="m56.345 166.729c1.929-33.436 5.598-71.552 24.825-100.724l-4.014-4.248c-30.032 17.24-35.236 51.094-37.538 84.473-6.144 81.979-6.825 168.847-2.025 258.193 1.291 28.983 4.717 59.213 24.612 79.63l4.985-3.082c-22.746-102.766-13.41-209.904-10.845-314.242z"/></g><path d="m406.319 67.168c-30.729-3.961-92.633 33.43-121.225 42.67-22.201 10.743-53.879 17.377-71.741 33.366-17.459 14.074-26.206 38.976-13.692 57.411 6.31 9.154 18.206 15.056 29.013 15.01 41.098-4.09 80.053-20.267 117.459-35.788 23.757-11.693 63.996-21.289 82.449-41.52 21.854-23.47 9.861-66.063-22.263-71.149z" fill="#d8deec"/><path d="m147.202 118.502c-13.29-11.736-33.092-2.938-40.608 11.08-23.868 60.863 61.591 90.866 111.918 87.09-37.217-16.816-31.128-58.145.318-78.919l-2.144-5.436c-24.041 3.887-51.067-.43-69.484-13.815z" fill="#d8deec"/><path d="m148.209 479.663c19.545-20.899 18.509-52.158 17.898-83.696-18.119-4.651-17.625-23.304-35.375-27.311 2.261 15.975 2.652 36.142-10.977 45.671-15.829 10.709-29.956-2.146-31.102-18.917-5.054-28.988-10.344-72.866 12.426-97.753 17.508-15.305 35.811 2.611 32.756 21.944l5.617 1.676c6.736-12.173 19.746-19.584 33.48-19.42.853-29.936 1.505-57.716 2.369-87.633-12.227-2.596-23.924-6.701-34.573-12.266-31.106 26.067-68.744-8.373-66.726-45.435-1.214-31.112 20.46-62.351 51.849-61.455 14.851.661 32.374 13.754 34.006 29.596 4.812 2.182 10.14 3.931 15.37 5.325 9.544-47.217-39.215-91.72-85.125-74.053-26.046 29.625-30.57 72.774-32.757 110.845-1.159 105.768-15.66 224.59 15.636 325.947 23.379 14.23 57.356 6.924 75.228-13.065z" fill="#d8deec"/></g><g><path d="m433.453 259.557c-19.345-32.4-67.079-23.332-64.309 17.367.532 16.159 8.816 38.475 1.587 52.364-6.582 13.337-21.219 20.385-22.368 37.61 5.362 43.77 60.21 7.921 75.125-12.934h-.001c19.987-25.447 26.818-66.393 9.966-94.407zm-15.506 90.123c-11.222 14.905-31.392 28.06-48.276 31.064-17.185.448-17.857-19.403-6.03-30.561 36.41-30.215-1.521-66.127 19.53-96.432 24.075-21.283 52.367 8.633 52.427 35.779 1.866 21.306-4.568 43.229-17.651 60.15z"/><path d="m410.171 298.227c-4.169-1.803-6.923 4.747-2.711 6.458 10.515 9.512-20.164 7.83-14.631 23.228 1.615 5.198 9.008 5.579 11.029 8.701-9.526 5.643-19.456 1.743-21.882 17.837-.684 3.829-1.568 10.562-6.198 10.144-6.468-1.227-5.651 8.006.544 7.092 12.647-.312 10.435-15.506 15.275-22.757 5.215-4.085 19.357-2.922 19.259-12.043.709-6.557-7.478-8.143-11.533-11.593.998-6.22 12.566-5.171 15.59-11.334 3.587-5.036 1.033-13.517-4.742-15.733z"/><path d="m413.02 264.514c-8.947-13.196-24.493-2.99-24.037 10.166-.472 4.516 6.624 5.166 6.975.633.278-3.062.822-5.166 1.762-6.82 2.307-4.228 6.812-4.064 9.476-.087 3.066 3.177.592 10.878 5.999 11.397 6.847-1.306 2.103-10.932-.175-15.289z"/><path d="m482.204 307.438c-2.681-5.81-10.853.174-15.792-.855.367-6.198.191-12.335-.544-18.322l7.541-2.459c4.339-1.345 2.13-8.13-2.172-6.659 0 0-6.499 2.12-6.499 2.12-1.33-6.698-3.469-13.263-6.363-19.397l5.128-1.659c4.344-1.337 2.145-8.124-2.157-6.664 0 0-6.253 2.023-6.253 2.023-1.942-3.368-4.102-6.581-6.457-9.614 2.03-2.433 12.379-6.883 8.685-11.256-3.362-4.68-10.379 4.541-13.217 5.909-2.153-2.341-4.428-4.545-6.81-6.603l8.411-10.43c1.214-1.506.978-3.711-.528-4.925s-3.71-.978-4.925.528l-8.445 10.473c-4.499-3.254-9.298-6-14.303-8.18.033-.023 4.607-14.028 4.633-14.072.604-1.838-.396-3.817-2.233-4.421-1.838-.605-3.816.396-4.421 2.233l-4.527 13.768c-5.524-1.783-11.243-2.895-17.042-3.186l-.697-15.382c-.088-1.933-1.731-3.439-3.657-3.34-1.932.088-3.427 1.725-3.34 3.657l.688 15.174c-4.481.356-9.08 1.262-13.499 2.764.452.205-4.897-14.965-4.908-15.234-1.379-4.328-8.147-2.068-6.643 2.221.277.529 4.988 15.837 5.545 15.498-4.094 2.022-7.873 4.636-11.055 7.883-2.784-3.898-6.108-15.766-12.302-12.54-1.525 1.191-1.797 3.392-.607 4.917 3.312 4.243 6.015 8.923 8.037 13.909-1.052 1.767-2.01 3.707-2.685 5.703l-15.789-9.308c-3.879-2.365-7.506 3.783-3.557 6.034 0 0 17.579 10.363 17.579 10.363-.76 5.26-.432 10.577.376 15.878l-11.026-1.718c-4.483-.763-5.577 6.287-1.078 6.921 0 0 13.455 2.096 13.455 2.096 1.057 5.032 2.29 10.018 3.178 15.087l-13.619-3.26c-4.401-1.12-6.067 5.818-1.631 6.812 0 0 16.219 3.883 16.219 3.883.416 5.022.029 9.953-1.384 14.752l-15.846-7.247c-1.757-.803-3.837-.031-4.642 1.728-.804 1.759-.03 3.837 1.729 4.642l16.378 7.49c-2.068 4.777-4.612 9.107-6.988 12.858l-13.617-4.165c-4.327-1.388-6.414 5.432-2.049 6.698 0 0 11.693 3.576 11.693 3.576-2.83 4.288-5.713 8.651-8.28 13.257l-16.408-2.661c-4.476-.793-5.617 6.252-1.122 6.914l14.21 2.304c-1.624 3.628-3.208 8.088-4.088 12.978l-9.488 1.039c-4.538.428-3.726 7.535.762 6.962l8.026-.879c-.042 3.429.373 6.964 1.418 10.496l-13.339 5.379c-4.259 1.643-1.534 8.265 2.62 6.496l13.518-5.451c1.988 3.263 4.586 5.872 7.53 7.992l-4.94 6.917c-2.69 3.654 3.098 7.811 5.7 4.071l5.32-7.448c7.033 3.276 14.478 4.783 20.833 6.037-.485.157 3.772 12.916 3.86 13.496 1.296 4.378 8.088 2.258 6.696-2.055 0 0-3.209-10.456-3.209-10.456 5.099.427 10.195.248 15.298-.456l5.27 8.322c2.395 3.882 8.398.048 5.918-3.747l-3.786-5.979c3.779-.913 7.524-2.118 11.189-3.618.037.139 6.946 7.07 7.024 7.197 3.131 3.293 8.232-1.699 5.005-4.9 0 0-5.313-5.428-5.313-5.428 4.077-2.126 8.035-4.616 11.85-7.446 1.06.384 10.667 5.927 11.649 5.571 3.525.132 4.864-5.075 1.608-6.616 0 0-7.285-3.757-7.285-3.757 3.298-2.875 6.463-6.028 9.489-9.421.956.322 8.032 2.364 8.984 2.382 3.935.12 4.81-5.932.923-6.881 0 0-5.011-1.372-5.011-1.372 3.386-4.333 6.647-9.122 9.49-14.005l9.301 1.593c.2.034.399.051.596.051 4.143.106 4.737-6.345.586-6.954 0 0-6.952-1.191-6.952-1.191 2.387-4.709 4.454-9.524 6.192-14.4.241.048.493.073.747.068l12.303-.2c4.508-.004 4.449-7.075-.056-7.004-.039-.027-10.69.193-10.738.174 1.719-5.934 2.95-11.924 3.693-17.892 4.692-.971 16.884.788 16.439-6.181zm-79.402 88.458c-31.259 15.542-91.292 4.778-69.8-39.16 8.471-18.67 23.996-31.783 26.801-54.066 2.562-19.838-11.256-41.519-4.1-60.175 5.563-13.813 21.744-19.777 35.483-19.777 91.928 7.35 84.261 139.328 11.616 173.178z"/><path d="m198.513 420.946c-.016.001-.031.004-.047.005-1.665-8.234-3.02-16.528-4.049-24.865 41.008-20.87 30.149-92.745-17.409-96.887.79-27.851 1.401-53.375 2.185-81.178 59.307 10.432 115.742-12.491 168.58-34.531 24.717-12.12 64.517-21.328 83.839-42.545 23.887-25.705 10.492-72.204-24.612-77.715-16.295-2.803-32.412 4.074-45.361 9.6-54.174 19.326-122.673 65.484-182.084 54.96 7.65-47.025-39.89-91.991-86.786-76.891-15.143 4.107-28.924 13.15-37.787 25.235-38.414 72.214-21.511 236.285-21.392 328.5.813 33.163 7.757 72.548 35.682 90.477 12.087 8.064 28.17 10.749 42.914 8.134 49.835-8.219 62.195-56.643 57.788-103.388 5.893.994 11.938.627 17.728-1.083 1.043 8.088 2.382 16.136 4.012 24.127-18.974 13.899-23.559 36.588-20.573 55.922 5.7 32.731 44.936 46.823 65.596 16.221 20.89-29.25-.707-74.822-38.224-74.098zm-6.456-56.342c-.051-1.934-1.701-3.48-3.594-3.408-5.207.499-2.92 7-3.145 10.499-2.69-.647-5.311-2.249-7.107-4.595-9.145-9.807.228-39.093 15.03-32.548 8.565 6.136 8.591 31.161-.952 36.339-.095-2.095-.177-4.191-.232-6.287zm94.266-252.017 78.066-33.315c25.194-13.332 60.29-15.781 70.889 17.567 13.445 51.381-56.714 63.88-90.191 80.182-31.252 10.773-120.11 56.877-142.96 21.889-11.587-17.246-3.106-40.258 13.171-53.418 17.725-15.756 49.072-22.223 71.025-32.905zm-72.726 23.187c1.18-.143 2.352-.317 3.525-.49-27.647 16.518-39.754 59.91-9.321 78.303-31.861.664-80.51-13.154-97.118-44.215-11.279-20.078-5.357-47.212 17.56-52.869 8.343-2.659 14.426 2.657 21.541 7.263 17.184 10.654 39.847 14.916 63.813 12.008zm-109.074 36.932c6.134 11.337 16.204 21.153 29.956 29.211-30.229 17.957-58.179-15.511-56.469-45.434-3.635-42.879 48.864-82.346 75.819-38.462-35.771-29.07-70.439 19.206-49.306 54.685zm-57.331 279.048c-16.602-100.06-9.367-210.23-4.589-305.301 2.28-32.511 7.143-65.531 36.062-82.098-41.505 55.228-33.865 346.425-14.31 417.606-7.482-7.689-13.43-18.072-17.163-30.207zm98.804 25.877c-18.113 19.783-49.247 25.316-70.67 12.98-30.277-101.854-16.241-217.85-14.995-323.654 2.167-37.37 6.58-79.582 31.49-108.422 42.285-15.822 87.394 24.075 80.896 67.622-3.392-.959-6.67-2.103-9.802-3.446-22.938-60.761-96.069-22.156-91.909 33.835-2.283 38.737 37.111 74.189 70.176 49.006 10.174 5.134 20.639 8.69 31.043 11.054-.8 28.261-1.418 54.124-2.22 82.399-13.758.468-26.727 9.044-33.176 20.818 3.384-21.494-17.836-41.747-37.743-24.412-23.82 25.422-18.635 70.825-13.386 100.537 7.331 45.771 57.83 24.968 48.519-22.837 11.957 5.15 14.598 21.339 28.696 24.865 1.28 30.628 1.176 59.949-16.919 79.655zm-42.115-107.635c.387.915.915 1.719 1.569 2.39h.001c6.02 5.885 14.839-1.233 21.579-.616 8.626 41.422-29.131 59.546-34.438 22.933-22.764-107.728 46.838-124.677 35.773-65.037-25.759-7.543-23.335 5.573-24.584 26.148-.002 4.128-1.533 9.982.1 14.182zm50.641 13.988c-6.748-10.42-14.378-19.564-28.62-19.253-4.414-.214-11.89 4.272-15.571 2.536.19-9.387.666-23.796 2.6-32.517 4.903-1.842 25.989 7.612 26.358.055 2.665-29.239 42.448-38.339 61.322-16.615 18.769 18.234 15.735 56.985-7.032 70.335-.341-3.408-.628-6.821-.862-10.238 16.763-5.659 18.87-37.773 4.562-49.458-21.644-12.442-38.709 26.793-24.629 42.529 3.245 4.236 8.139 6.88 13.086 7.501.294 4.283.663 8.559 1.121 12.825-11.562 3.843-25.004.867-32.335-7.7zm76.438 107.096c-17.294 25.435-48.189 13.348-52.953-13.636-3.417-15.594 3.398-37.491 15.263-47.293 1.575 6.936 3.368 13.826 5.384 20.655 1.249 4.395 8.063 2.342 6.718-1.983-2.041-6.914-3.851-13.891-5.43-20.916 31.129.769 48.485 38.717 31.018 63.173z"/><path d="m110.187 405.153c1.939.001 3.51-1.61 3.502-3.549l-.067-17.675c-.007-1.929-1.574-3.488-3.502-3.488-1.939-.001-3.51 1.577-3.503 3.516l.068 17.742c.008 1.929 1.574 3.454 3.502 3.454z"/><path d="m307.646 52.454c5.828-.561 1.073-7.323 8.071-8.996 7.013-.931 34.262-2.203 30.483-13.811-3.233-4.418-11.94 6.566-19.62 5.803-9.072-.274-23.347 1.76-22.399 13.986.246 1.751 1.746 3.018 3.465 3.018z"/><path d="m351.523 26.991c5.528 3.627-9.55 12.296.444 14.382 6.329-1.77 10.778-13.496 5.145-18.901-6.255-6.974-14.337 2.516-5.589 4.519z"/><path d="m244.308 70.981c.292 0 .588-.037.883-.114l18.918-4.919c1.872-.487 2.995-2.399 2.508-4.271s-2.397-2.996-4.271-2.508l-18.917 4.919c-3.918.907-3.086 7.013.879 6.893z"/><path d="m212.11 86.082c3.95-1.233 7.224-4.827 11.846-4.513 1.309 2.035 3.109 3.668 5.197 5.045-1.462 3.311-14.447 15.006-5.022 16.459 2.927.706 9.866-12.032 11.565-13.558 2.902.82 6.325 1.212 9.543 1.067l-3.946 13.375c-1.344 4.326 5.469 6.376 6.718 1.982 0 0 4.796-16.254 4.796-16.254 2.861-.584 5.627-1.408 8.267-2.371l2.1 10.756c.826 4.487 7.808 3.094 6.874-1.343 0 0-2.377-12.175-2.377-12.175 10.721-5.005 20.654-12.179 31.613-16.005 21.742-7.488 47.598-2.857 67.091-17.237 1.393.683 8.592 6.484 10.178 6.162 3.312.126 4.835-4.608 1.965-6.404 0 0-6.905-4.671-6.905-4.671 1.626-1.9 3.035-4.007 4.059-6.285 3.15-.09 12.836 4.35 13.611-1.233 1.115-5.403-8.974-4.523-11.878-5.577.157-2.137-.14-4.52-.786-6.578 2.944-1.484 6.174-2.397 9.462-2.644 1.929-.145 3.375-1.826 3.23-3.755-1.865-6.725-11.667-1.389-15.966.209-1.04-1.294-2.231-2.439-3.53-3.45l6.905-6.641c3.32-3.101-1.626-8.246-4.856-5.048 0 0-8.335 8.016-8.335 8.016-2.548-1.116-5.182-1.925-7.668-2.509l3.64-5.467c2.574-3.745-3.369-7.701-5.831-3.881.029-.015-5.745 8.537-5.312 8.099-37.447-2.811-53.598 31.418-87.926 32.58-6.717.803-14.834 2.118-20.688 4.566-.117-.256-6.017-6.393-6.166-6.612-3.057-3.359-8.267 1.519-5.111 4.79 0 0 4.78 5.102 4.78 5.102-3.744 2.408-6.758 5.22-8.983 9.034-3.069-.228-11.342-4.655-12.449.615-1.332 4.957 6.972 4.894 9.776 5.946-.757 3.001-.937 6.136-.384 9.154-5.165-.079-19.092 7.777-9.097 11.254zm41.096-35.723c23.382-1.308 40.483-9.99 59.052-23.435 6.794-4.238 20.746-11.282 33.105-10.486 3.836.219 23.071 1.924 24.953 14.042-1.169 21.375-27.946 23.718-45.486 26.087-37.807.883-50.78 24.75-81.317 27.04-14.905.801-20.31-14.357-10.911-24.033 4.32-4.542 11.06-7.557 20.604-9.215z"/></g></g></svg>