<svg id="Capa_1" enable-background="new 0 0 511 511" height="512" viewBox="0 0 511 511" width="512" xmlns="http://www.w3.org/2000/svg"><g><g id="Filled_42_"><path d="m385.5 213.5c-19.513 0-37.851 5.114-53.756 14.061l-56.244-14.061 12.145 59.79c-7.76 15.061-12.145 32.133-12.145 50.21 0 60.654 49.346 110 110 110s110-49.346 110-110-49.346-110-110-110z" fill="#f88fa4"/><path d="m385.5 403.5c-55.561 0-101.624-41.408-108.971-94.983-.671 4.901-1.029 9.9-1.029 14.983 0 60.654 49.346 110 110 110s110-49.346 110-110c0-5.088-.355-10.094-1.027-15-7.339 53.583-53.407 95-108.973 95z" fill="#f05475"/><path d="m235.5 473.5c0 16.57-13.43 30-30 30h-160c-16.57 0-30-13.43-30-30v-436c0-16.57 13.43-30 30-30h160c16.57 0 30 13.43 30 30z" fill="#e4e8ed"/><circle cx="130.5" cy="150.5" fill="#c4e5f9" r="80"/><path d="m130.5 200.5c-39.053 0-71.551-27.99-78.575-65-.922 4.861-1.425 9.871-1.425 15 0 44.183 35.817 80 80 80s80-35.817 80-80c0-5.129-.502-10.139-1.425-15-7.024 37.01-39.522 65-78.575 65z" fill="#9eb6f4"/><path d="m205.5 473.5h-160c-16.57 0-30-13.43-30-30v30c0 16.57 13.43 30 30 30h160c16.57 0 30-13.43 30-30v-30c0 16.57-13.43 30-30 30z" fill="#cad8eb"/><path d="m372.5 180.5h-257c-11.046 0-20-8.954-20-20v-20c0-11.046 8.954-20 20-20h260c11.046 0 20 8.954 20 20v17c0 12.65-10.35 23-23 23z" fill="#f8e868"/><path d="m375.5 150.5h-260c-9.316 0-17.121-6.379-19.344-15-.413 1.601-.656 3.27-.656 5v20c0 11.046 8.954 20 20 20h260c11.046 0 20-11.954 20-23v-20c0-1.73-.243-3.399-.656-5-2.223 8.621-10.028 18-19.344 18z" fill="#efc17a"/><path d="m170.5 335.5c0-25.436-21.104-45.943-46.758-44.966-22.836.87-41.645 19.127-43.142 41.93-1.27 19.34 9.692 36.266 25.9 43.829v34.207c0 11.046 8.954 20 20 20 11.046 0 20-8.954 20-20v-35.201c14.271-7.546 24-22.533 24-39.799z" fill="#616161"/><path d="m126.5 400.5c-11.046 0-20-8.954-20-20v30c0 11.046 8.954 20 20 20s20-8.954 20-20v-30c0 11.046-8.954 20-20 20z" fill="#424242"/><circle cx="385.5" cy="323.5" fill="#9ce3bf" r="50"/><path d="m385.5 343.5c-22.346 0-41.312-14.736-47.698-35-1.493 4.738-2.302 9.776-2.302 15 0 27.57 22.43 50 50 50s50-22.43 50-50c0-5.224-.809-10.262-2.302-15-6.386 20.264-25.352 35-47.698 35z" fill="#87bcc4"/></g><g fill="#fff"><path d="m211.5 45h-15v-15h15zm-30 0h-15v-15h15z"/><path d="m45.5 466h15v15h-15z"/><path d="m382 296.5h15v15h-15z"/><path d="m357 317h15v15h-15z"/><path d="m397 326.5h15v15h-15z"/></g><g id="Outline_42_"><path d="m23 37.5c0-12.406 10.093-22.5 22.5-22.5h160c12.407 0 22.5 10.094 22.5 22.5v58h15v-58c0-20.678-16.822-37.5-37.5-37.5h-160c-20.678 0-37.5 16.822-37.5 37.5v87.713h15z"/><path d="m23 473.5v-333.287h-15v333.287c0 20.678 16.822 37.5 37.5 37.5h99.57v-15h-99.57c-12.407 0-22.5-10.094-22.5-22.5z"/><path d="m228 466h-122.5v15h121.21c-3.096 8.729-11.432 15-21.21 15h-45.43v15h45.43c20.678 0 37.5-16.822 37.5-37.5v-268h-15z"/><path d="m75.5 466h15v15h-15z"/><path d="m115.5 128h215.143v-15h-121.1c-14.454-30.534-44.936-50-79.042-50-48.249 0-87.501 39.252-87.501 87.5s39.252 87.5 87.5 87.5c34.107 0 64.589-19.466 79.042-50h162.958c16.817 0 30.5-13.683 30.5-30.5v-17c0-15.163-12.337-27.5-27.5-27.5h-29.857v15h29.857c6.893 0 12.5 5.607 12.5 12.5v17c0 8.547-6.953 15.5-15.5 15.5h-220v15h40.053c-12.98 21.572-36.268 35-62.053 35-39.977 0-72.5-32.523-72.5-72.5s32.523-72.5 72.5-72.5c25.785 0 49.073 13.428 62.053 35h-77.053c-15.164 0-27.5 12.337-27.5 27.5v20c0 15.163 12.336 27.5 27.5 27.5h22v-15h-22c-6.893 0-12.5-5.607-12.5-12.5v-20c0-6.893 5.607-12.5 12.5-12.5z"/><path d="m126.5 438c15.164 0 27.5-12.337 27.5-27.5v-30.91c14.912-9.632 24-26.133 24-44.09 0-14.402-5.715-27.836-16.094-37.826-10.374-9.986-24.025-15.191-38.45-14.635-26.493 1.009-48.605 22.504-50.34 48.934-1.325 20.179 8.718 38.855 25.884 48.854v29.673c0 15.163 12.336 27.5 27.5 27.5zm-38.416-105.045c1.238-18.864 17.026-34.206 35.943-34.928.495-.019.988-.027 1.48-.027 9.76 0 18.942 3.69 25.996 10.48 7.414 7.137 11.497 16.733 11.497 27.02 0 13.935-7.666 26.644-20.006 33.169l-3.994 2.111v39.72c0 6.893-5.607 12.5-12.5 12.5s-12.5-5.607-12.5-12.5v-38.984l-4.329-2.02c-14.138-6.597-22.611-20.939-21.587-36.541z"/><path d="m385.5 206c-19.089 0-37.961 4.686-54.776 13.574l-64.94-16.234 13.996 68.907c-7.715 15.871-11.78 33.531-11.78 51.253 0 64.79 52.71 117.5 117.5 117.5 18.029 0 35.343-3.996 51.458-11.877l-6.59-13.475c-14.046 6.87-29.141 10.352-44.868 10.352-56.519 0-102.5-45.981-102.5-102.5 0-16.47 3.806-32.207 11.312-46.776l1.208-2.344-10.303-50.72 47.604 11.9 2.601-1.463c15.231-8.568 32.548-13.097 50.078-13.097 56.519 0 102.5 45.981 102.5 102.5 0 34.193-17.021 66.033-45.531 85.17l8.359 12.455c32.669-21.929 52.172-58.424 52.172-97.625 0-64.79-52.71-117.5-117.5-117.5z"/><path d="m393 403.5v-23.005c10.251-1.342 19.658-5.387 27.482-11.405l16.282 16.282 10.607-10.607-16.282-16.282c6.018-7.824 10.063-17.231 11.405-27.482h23.006v-15h-23.005c-1.342-10.251-5.387-19.658-11.405-27.482l16.282-16.282-10.607-10.607-16.282 16.282c-7.824-6.018-17.231-10.063-27.482-11.405v-23.007h-15v23.005c-10.251 1.342-19.658 5.387-27.482 11.405l-16.282-16.282-10.607 10.607 16.282 16.282c-6.018 7.824-10.063 17.231-11.405 27.482h-23.007v15h23.005c1.342 10.251 5.387 19.658 11.405 27.482l-16.282 16.282 10.607 10.607 16.282-16.282c7.824 6.018 17.231 10.063 27.482 11.405v23.007zm-50-80c0-23.435 19.065-42.5 42.5-42.5s42.5 19.065 42.5 42.5-19.065 42.5-42.5 42.5-42.5-19.065-42.5-42.5z"/></g></g></svg>