<svg id="Capa_1" enable-background="new 0 0 512 512" height="512" viewBox="0 0 512 512" width="512" xmlns="http://www.w3.org/2000/svg"><g><g><g fill="#ffe07d"><circle cx="41.228" cy="167.038" r="16.032"/><circle cx="470.772" cy="344.962" r="16.032"/><circle cx="167.038" cy="470.772" r="16.032"/><circle cx="344.962" cy="41.228" r="16.032"/><circle cx="41.228" cy="344.962" r="16.032"/><circle cx="470.772" cy="167.038" r="16.032"/><circle cx="344.962" cy="470.772" r="16.032"/><circle cx="167.038" cy="41.228" r="16.032"/><circle cx="91.62" cy="91.62" r="16.032"/><circle cx="420.38" cy="420.38" r="16.032"/><circle cx="91.62" cy="420.38" r="16.032"/><circle cx="420.38" cy="91.62" r="16.032"/><circle cx="23.532" cy="256" r="16.032"/><circle cx="488.468" cy="256" r="16.032"/><circle cx="256" cy="488.468" r="16.032"/><circle cx="256" cy="23.532" r="16.032"/></g><circle cx="256" cy="256" fill="#ff8086" r="168.339"/><path d="m284.056 396.282c-92.971 0-168.339-75.368-168.339-168.339 0-39.332 13.596-75.427 36.2-104.083-39.083 30.827-64.257 78.5-64.257 132.14 0 92.971 75.368 168.339 168.339 168.339 53.64 0 101.312-25.174 132.139-64.256-28.656 22.603-64.75 36.199-104.082 36.199z" fill="#e5646e"/><circle cx="256" cy="207.903" fill="#ffe07d" r="16.032"/><circle cx="256" cy="304.097" fill="#ffe07d" r="16.032"/><circle cx="304.097" cy="256" fill="#ffe07d" r="16.032"/><circle cx="207.903" cy="256" fill="#ffe07d" r="16.032"/><circle cx="256" cy="135.758" fill="#ffe07d" r="16.032"/><circle cx="256" cy="376.242" fill="#ffe07d" r="16.032"/><circle cx="376.242" cy="256" fill="#ffe07d" r="16.032"/><circle cx="135.758" cy="256" fill="#ffe07d" r="16.032"/><circle cx="341.024" cy="341.024" fill="#ffe07d" r="16.032"/><circle cx="170.976" cy="170.976" fill="#ffe07d" r="16.032"/><circle cx="170.976" cy="341.024" fill="#ffe07d" r="16.032"/><circle cx="341.024" cy="170.976" fill="#ffe07d" r="16.032"/></g><g><path d="m256 112.226c-12.976 0-23.532 10.557-23.532 23.532s10.556 23.532 23.532 23.532 23.532-10.557 23.532-23.532-10.556-23.532-23.532-23.532zm0 32.064c-4.705 0-8.532-3.827-8.532-8.532 0-4.704 3.828-8.532 8.532-8.532s8.532 3.828 8.532 8.532c0 4.705-3.827 8.532-8.532 8.532z"/><path d="m256 352.71c-12.976 0-23.532 10.557-23.532 23.532s10.557 23.532 23.532 23.532 23.532-10.557 23.532-23.532-10.556-23.532-23.532-23.532zm0 32.064c-4.705 0-8.532-3.828-8.532-8.532 0-4.705 3.828-8.532 8.532-8.532s8.532 3.827 8.532 8.532c0 4.704-3.827 8.532-8.532 8.532z"/><path d="m466.168 263.5c3.139 9.308 11.946 16.032 22.3 16.032 12.975 0 23.532-10.556 23.532-23.532s-10.557-23.532-23.532-23.532c-10.354 0-19.16 6.724-22.3 16.032h-34.508c-.277-6.542-.9-13.025-1.886-19.419l16.38-3.258c4.062-.809 6.701-4.757 5.893-8.819s-4.758-6.701-8.819-5.893l-16.382 3.258c-1.542-6.343-3.434-12.575-5.659-18.674l31.86-13.197c2.356 2.707 5.308 4.867 8.72 6.28 2.904 1.203 5.954 1.804 9.005 1.804s6.102-.602 9.005-1.804c5.807-2.405 10.331-6.928 12.736-12.735 2.406-5.808 2.405-12.204 0-18.011-2.405-5.808-6.928-10.33-12.735-12.736-5.808-2.405-12.204-2.405-18.011 0-5.807 2.406-10.33 6.928-12.735 12.736-1.413 3.412-1.973 7.027-1.725 10.607l-31.851 13.193c-2.745-5.903-5.816-11.648-9.201-17.21l13.877-9.272c3.444-2.302 4.37-6.959 2.069-10.403s-6.958-4.37-10.403-2.069l-13.886 9.279c-3.835-5.237-7.965-10.273-12.383-15.081l24.378-24.378c3.214 1.601 6.777 2.453 10.473 2.453 6.286 0 12.195-2.448 16.64-6.892 4.445-4.445 6.893-10.354 6.893-16.64s-2.448-12.195-6.893-16.64c-4.444-4.444-10.354-6.893-16.64-6.893-6.285 0-12.195 2.448-16.64 6.893-7.319 7.32-8.78 18.294-4.422 27.095l-24.391 24.391c-4.767-4.374-9.809-8.496-15.093-12.366l9.287-13.898c2.301-3.444 1.375-8.102-2.069-10.403s-8.102-1.375-10.403 2.069c0 0-13.231 19.706-13.393 19.947-2.303 3.443-1.38 8.101 2.063 10.404 44.784 29.962 71.52 79.974 71.52 133.779 0 88.687-72.152 160.839-160.839 160.839s-160.839-72.149-160.839-160.836 72.152-160.839 160.839-160.839c21.328 0 42.042 4.105 61.565 12.202 3.813 1.581 8.184-.218 9.783-4.018h.001l16.007-38.645c.526.036 1.051.06 1.574.06 9.238 0 18.022-5.475 21.772-14.527 4.965-11.988-.748-25.781-12.736-30.746-5.807-2.405-12.203-2.406-18.011 0-5.807 2.406-10.33 6.928-12.735 12.735s-2.406 12.204 0 18.011c1.413 3.412 3.574 6.364 6.281 8.72l-13.187 31.837c-6.133-2.242-12.363-4.132-18.678-5.667l3.252-16.351c.808-4.062-1.83-8.011-5.893-8.819-4.063-.807-8.011 1.831-8.819 5.893l-3.255 16.364c-6.406-.983-12.885-1.611-19.422-1.883v-34.495c9.308-3.14 16.032-11.946 16.032-22.3.001-12.975-10.555-23.532-23.531-23.532s-23.532 10.557-23.532 23.532c0 10.354 6.724 19.16 16.032 22.3v34.5c-6.571.277-13.052.906-19.42 1.889l-3.257-16.374c-.808-4.062-4.756-6.7-8.819-5.893-4.063.808-6.701 4.756-5.893 8.819l3.258 16.381c-6.365 1.551-12.599 3.438-18.673 5.662l-13.198-31.862c2.707-2.356 4.867-5.308 6.281-8.72 2.406-5.808 2.405-12.204 0-18.011-2.405-5.808-6.928-10.33-12.735-12.736-5.808-2.405-12.203-2.405-18.011 0-11.988 4.965-17.701 18.758-12.736 30.747 3.75 9.053 12.533 14.527 21.772 14.527.523 0 1.048-.024 1.574-.06l13.207 31.884c-5.915 2.762-11.656 5.835-17.191 9.214l-9.308-13.93c-2.301-3.444-6.958-4.37-10.403-2.069-3.444 2.301-4.37 6.959-2.069 10.403l9.325 13.956c-5.248 3.851-10.277 7.982-15.061 12.378l-24.461-24.461c4.359-8.801 2.898-19.775-4.422-27.095-4.445-4.444-10.354-6.893-16.64-6.893s-12.195 2.448-16.64 6.893-6.893 10.354-6.893 16.64 2.448 12.195 6.893 16.64c4.444 4.445 10.354 6.893 16.64 6.893 3.696 0 7.258-.853 10.473-2.453l24.443 24.443c-4.396 4.784-8.527 9.813-12.378 15.062l-13.955-9.325c-3.444-2.301-8.102-1.375-10.403 2.069s-1.375 8.101 2.069 10.403l13.929 9.308c-3.379 5.536-6.452 11.276-9.214 17.191l-31.891-13.209c.248-3.58-.312-7.195-1.725-10.607-2.405-5.808-6.928-10.33-12.735-12.736-5.808-2.406-12.204-2.405-18.011 0-5.807 2.406-10.33 6.928-12.735 12.735s-2.406 12.204 0 18.011c2.405 5.807 6.929 10.33 12.736 12.735 2.903 1.203 5.955 1.804 9.005 1.804s6.102-.601 9.005-1.804c3.412-1.413 6.364-3.574 8.72-6.28l31.862 13.197c-2.225 6.074-4.111 12.309-5.662 18.673l-16.38-3.258c-4.066-.808-8.011 1.83-8.819 5.893s1.83 8.011 5.893 8.819l16.374 3.257c-.982 6.367-1.612 12.849-1.889 19.42h-34.5c-3.139-9.308-11.946-16.032-22.3-16.032-12.975-.002-23.532 10.554-23.532 23.53s10.557 23.532 23.532 23.532c10.354 0 19.16-6.724 22.3-16.032h34.5c.277 6.571.906 13.053 1.889 19.42l-16.374 3.257c-4.062.809-6.701 4.757-5.893 8.819.71 3.569 3.843 6.038 7.348 6.038.485 0 .978-.047 1.471-.146l16.38-3.258c1.551 6.364 3.438 12.599 5.662 18.673l-31.862 13.197c-2.356-2.707-5.308-4.867-8.72-6.28-5.808-2.405-12.204-2.405-18.011 0s-10.331 6.928-12.736 12.735c-2.406 5.808-2.405 12.204 0 18.011 2.405 5.808 6.928 10.33 12.735 12.736 2.904 1.203 5.955 1.804 9.006 1.804 3.05 0 6.102-.602 9.005-1.804 5.807-2.406 10.33-6.928 12.735-12.736 1.413-3.412 1.973-7.027 1.725-10.607l31.891-13.209c2.762 5.915 5.835 11.655 9.214 17.191l-13.929 9.307c-3.444 2.302-4.37 6.959-2.069 10.403 1.446 2.164 3.822 3.334 6.243 3.334 1.432 0 2.88-.41 4.16-1.265l13.955-9.325c3.851 5.248 7.983 10.277 12.378 15.062l-24.442 24.443c-3.214-1.601-6.777-2.453-10.473-2.453-6.286 0-12.195 2.448-16.64 6.892-4.445 4.445-6.893 10.354-6.893 16.64s2.448 12.195 6.893 16.64c4.444 4.444 10.354 6.893 16.64 6.893 6.285 0 12.195-2.448 16.64-6.893 7.319-7.32 8.78-18.294 4.422-27.095l24.461-24.461c4.784 4.396 9.813 8.527 15.061 12.378l-9.325 13.956c-2.301 3.444-1.375 8.102 2.069 10.403 1.28.855 2.728 1.265 4.16 1.265 2.421 0 4.797-1.17 6.243-3.334l9.308-13.93c5.536 3.379 11.277 6.452 17.191 9.214l-13.207 31.885c-9.8-.661-19.383 4.901-23.345 14.466-4.965 11.988.748 25.781 12.736 30.746 2.904 1.203 5.954 1.804 9.005 1.804 3.05 0 6.102-.602 9.005-1.804 5.807-2.406 10.33-6.928 12.735-12.735s2.406-12.204 0-18.011c-1.413-3.412-3.574-6.364-6.281-8.72l13.198-31.862c6.074 2.224 12.309 4.111 18.673 5.662l-3.258 16.381c-.808 4.062 1.83 8.011 5.893 8.819.494.098.986.146 1.471.146 3.505 0 6.638-2.47 7.348-6.039l3.257-16.374c6.367.982 12.849 1.611 19.42 1.889v34.5c-9.308 3.14-16.032 11.946-16.032 22.3 0 12.975 10.556 23.532 23.532 23.532s23.532-10.557 23.532-23.532c0-10.354-6.724-19.16-16.032-22.3v-34.5c6.571-.277 13.052-.906 19.42-1.889l3.257 16.374c.71 3.569 3.843 6.039 7.348 6.039.485 0 .977-.047 1.471-.146 4.063-.808 6.701-4.756 5.893-8.819l-3.258-16.381c6.365-1.551 12.599-3.438 18.673-5.662l13.198 31.862c-2.707 2.356-4.867 5.308-6.281 8.72-2.406 5.808-2.405 12.204 0 18.011 2.405 5.808 6.928 10.33 12.735 12.736 2.904 1.203 5.955 1.804 9.005 1.804s6.102-.602 9.005-1.804c11.988-4.965 17.701-18.758 12.736-30.747-3.963-9.565-13.545-15.129-23.346-14.467l-13.207-31.884c5.915-2.762 11.656-5.835 17.191-9.214l9.308 13.93c1.446 2.164 3.822 3.334 6.243 3.334 1.432 0 2.88-.409 4.16-1.265 3.444-2.301 4.37-6.959 2.069-10.403l-9.325-13.956c5.248-3.851 10.277-7.982 15.061-12.378l24.461 24.461c-4.359 8.801-2.898 19.775 4.421 27.095 4.445 4.444 10.354 6.893 16.64 6.893s12.195-2.448 16.64-6.893 6.893-10.354 6.893-16.64-2.448-12.195-6.893-16.64c-4.444-4.445-10.354-6.893-16.64-6.893-3.696 0-7.258.853-10.473 2.453l-24.443-24.443c4.396-4.784 8.527-9.813 12.378-15.062l13.955 9.325c1.28.855 2.728 1.265 4.16 1.265 2.421 0 4.797-1.17 6.243-3.334 2.301-3.444 1.375-8.101-2.069-10.403l-13.929-9.307c3.379-5.536 6.452-11.277 9.214-17.191l31.891 13.209c-.248 3.58.312 7.195 1.725 10.607 2.405 5.808 6.928 10.33 12.735 12.736 2.904 1.203 5.955 1.804 9.005 1.804 3.051 0 6.102-.602 9.006-1.804 5.807-2.406 10.33-6.928 12.735-12.735s2.406-12.204 0-18.011c-2.405-5.807-6.929-10.33-12.736-12.735-5.807-2.406-12.203-2.406-18.011 0-3.412 1.413-6.364 3.574-8.72 6.28l-31.862-13.197c2.225-6.074 4.111-12.309 5.662-18.673l16.38 3.258c.494.099.986.146 1.471.146 3.505 0 6.638-2.47 7.348-6.038.808-4.062-1.83-8.011-5.893-8.819l-16.374-3.257c.982-6.367 1.612-12.849 1.889-19.42zm-3.279-99.727c.873-2.105 2.512-3.746 4.618-4.618 1.053-.436 2.159-.654 3.265-.654s2.212.218 3.266.654c2.105.872 3.745 2.512 4.617 4.618.873 2.105.873 4.425 0 6.53-.872 2.105-2.512 3.745-4.618 4.617-2.105.872-4.424.873-6.53 0-2.105-.872-3.745-2.512-4.617-4.617-.873-2.105-.873-4.424-.001-6.53zm-303.733-119.28c-1.8-4.347.271-9.348 4.618-11.148 1.053-.436 2.159-.654 3.265-.654s2.212.218 3.265.654c2.105.873 3.745 2.512 4.617 4.618.873 2.105.873 4.425 0 6.53-.872 2.104-2.511 3.744-4.616 4.616h-.001c-.001.001-.002.001-.002.001-4.346 1.801-9.346-.271-11.146-4.617zm177.923-6.531c.872-2.105 2.512-3.745 4.617-4.618 1.053-.436 2.159-.654 3.265-.654s2.212.218 3.265.654c4.347 1.8 6.418 6.801 4.618 11.147s-6.8 6.417-11.146 4.619c0 0-.001 0-.002-.001 0 0-.001 0-.002 0-2.104-.873-3.743-2.512-4.616-4.617-.871-2.104-.871-4.424.001-6.53zm-81.079-22.962c4.705 0 8.532 3.828 8.532 8.532s-3.828 8.532-8.532 8.532-8.532-3.828-8.532-8.532 3.827-8.532 8.532-8.532zm-211.507 159.921c-2.106.873-4.425.873-6.53 0-2.106-.872-3.746-2.512-4.618-4.617-.873-2.105-.873-4.425 0-6.53.872-2.105 2.512-3.746 4.617-4.618 1.053-.436 2.159-.654 3.266-.654 1.106 0 2.212.218 3.265.654 2.105.872 3.745 2.512 4.618 4.618.872 2.105.872 4.425 0 6.53-.873 2.105-2.512 3.745-4.618 4.617zm4.618 173.306c-.873 2.105-2.512 3.746-4.618 4.618-2.106.873-4.425.873-6.531 0-2.105-.872-3.745-2.512-4.617-4.618-.873-2.105-.873-4.425 0-6.53.872-2.105 2.512-3.745 4.618-4.617 1.053-.436 2.159-.654 3.265-.654s2.212.218 3.265.654c2.105.872 3.745 2.512 4.617 4.617.873 2.105.873 4.424.001 6.53zm36.476-250.574c-1.612-1.611-2.499-3.754-2.499-6.033s.887-4.421 2.499-6.034c1.612-1.611 3.754-2.499 6.033-2.499s4.421.888 6.033 2.499c3.327 3.327 3.327 8.74 0 12.066-1.612 1.612-3.754 2.5-6.033 2.5-2.279.001-4.421-.886-6.033-2.499zm-62.055 166.879c-4.705 0-8.532-3.828-8.532-8.532s3.828-8.532 8.532-8.532 8.532 3.828 8.532 8.532-3.827 8.532-8.532 8.532zm74.122 161.881c-1.612 1.612-3.754 2.5-6.033 2.5s-4.421-.888-6.033-2.5-2.499-3.754-2.499-6.033.887-4.421 2.499-6.033c1.612-1.612 3.754-2.499 6.033-2.499s4.421.888 6.033 2.499c3.326 3.326 3.326 8.739 0 12.066zm77.267 47.625c-.872 2.105-2.512 3.745-4.617 4.618-2.105.872-4.424.872-6.53 0-4.347-1.8-6.418-6.801-4.618-11.148 1.8-4.346 6.799-6.416 11.144-4.62.001 0 .003.001.004.002s.003.001.004.001c2.104.873 3.741 2.512 4.614 4.616.871 2.105.871 4.425-.001 6.531zm177.923-6.531c1.8 4.347-.271 9.348-4.618 11.148-2.105.873-4.424.873-6.53 0-2.105-.873-3.745-2.512-4.617-4.618-.873-2.105-.873-4.425 0-6.53.872-2.104 2.511-3.744 4.615-4.616h.001c.001-.001.002-.001.002-.001 1.064-.441 2.167-.649 3.252-.649 3.351-.001 6.536 1.984 7.895 5.266zm-96.844 29.493c-4.705 0-8.532-3.828-8.532-8.532s3.828-8.532 8.532-8.532 8.532 3.828 8.532 8.532-3.827 8.532-8.532 8.532zm211.507-159.921c2.106-.873 4.425-.873 6.53 0 2.106.872 3.746 2.512 4.618 4.617.873 2.105.873 4.425 0 6.53-.872 2.105-2.512 3.746-4.617 4.618-2.106.873-4.425.873-6.531 0-2.105-.872-3.745-2.512-4.618-4.618-.872-2.105-.872-4.425 0-6.53.873-2.105 2.512-3.745 4.618-4.617zm20.961-89.611c4.705 0 8.532 3.828 8.532 8.532s-3.828 8.532-8.532 8.532-8.532-3.828-8.532-8.532 3.827-8.532 8.532-8.532zm-74.122-161.881c1.612-1.612 3.754-2.5 6.033-2.5s4.421.888 6.033 2.5 2.499 3.754 2.499 6.033-.887 4.421-2.499 6.033c-1.612 1.612-3.754 2.499-6.033 2.499s-4.421-.888-6.033-2.499c-3.326-3.326-3.326-8.739 0-12.066zm12.067 328.76c1.612 1.611 2.499 3.754 2.499 6.033s-.887 4.421-2.499 6.034c-1.612 1.611-3.754 2.499-6.033 2.499s-4.421-.888-6.033-2.499c-3.327-3.327-3.327-8.74 0-12.066 1.612-1.612 3.754-2.5 6.033-2.5 2.279-.001 4.421.886 6.033 2.499z"/><path d="m399.774 256c0-12.976-10.557-23.532-23.533-23.532s-23.532 10.557-23.532 23.532 10.557 23.532 23.532 23.532c12.977 0 23.533-10.556 23.533-23.532zm-32.065 0c0-4.705 3.828-8.532 8.532-8.532 4.705 0 8.533 3.828 8.533 8.532s-3.828 8.532-8.533 8.532c-4.704 0-8.532-3.827-8.532-8.532z"/><path d="m112.226 256c0 12.976 10.557 23.532 23.533 23.532s23.532-10.557 23.532-23.532-10.557-23.532-23.532-23.532c-12.977 0-23.533 10.556-23.533 23.532zm32.065 0c0 4.705-3.828 8.532-8.532 8.532-4.705 0-8.533-3.828-8.533-8.532s3.828-8.532 8.533-8.532c4.704 0 8.532 3.827 8.532 8.532z"/><path d="m154.336 154.336c-4.445 4.445-6.893 10.354-6.893 16.64s2.448 12.195 6.893 16.64c4.444 4.444 10.354 6.893 16.64 6.893s12.195-2.448 16.64-6.893 6.893-10.354 6.893-16.64-2.448-12.195-6.893-16.64c-4.444-4.445-10.354-6.893-16.64-6.893s-12.195 2.449-16.64 6.893zm25.172 16.64c0 2.279-.887 4.421-2.499 6.034-1.612 1.611-3.754 2.499-6.033 2.499s-4.421-.888-6.033-2.5-2.499-3.754-2.499-6.033.887-4.421 2.499-6.033 3.754-2.499 6.033-2.499 4.421.887 6.033 2.499c1.612 1.612 2.499 3.754 2.499 6.033z"/><path d="m341.024 364.556c6.286 0 12.195-2.448 16.64-6.892 4.445-4.445 6.893-10.354 6.893-16.64s-2.448-12.195-6.893-16.64c-4.444-4.444-10.354-6.893-16.64-6.893s-12.195 2.448-16.64 6.893-6.893 10.354-6.893 16.64 2.448 12.195 6.893 16.64c4.445 4.444 10.354 6.892 16.64 6.892zm-6.033-29.566c1.612-1.611 3.754-2.499 6.033-2.499s4.421.888 6.033 2.499c1.612 1.612 2.499 3.754 2.499 6.033s-.887 4.421-2.499 6.033-3.754 2.499-6.033 2.499-4.421-.887-6.033-2.5c-1.612-1.611-2.499-3.754-2.499-6.033s.887-4.419 2.499-6.032z"/><path d="m347.057 177.01c-1.612 1.611-3.754 2.499-6.033 2.499s-4.421-.888-6.033-2.5-2.499-3.754-2.499-6.033.887-4.421 2.499-6.033c2.929-2.929 2.929-7.678 0-10.607s-7.678-2.929-10.606 0c-4.445 4.445-6.893 10.354-6.893 16.64s2.448 12.195 6.893 16.64c4.444 4.444 10.354 6.893 16.64 6.893s12.195-2.448 16.64-6.893c2.929-2.929 2.929-7.678 0-10.607-2.93-2.928-7.679-2.928-10.608.001z"/><path d="m170.976 364.556c6.286 0 12.195-2.448 16.64-6.893 2.929-2.929 2.929-7.678 0-10.607s-7.678-2.928-10.606 0c-1.612 1.612-3.754 2.499-6.033 2.499s-4.421-.887-6.033-2.5c-1.612-1.611-2.499-3.754-2.499-6.033 0-2.278.887-4.421 2.499-6.033 2.929-2.929 2.929-7.678 0-10.607-2.928-2.929-7.677-2.929-10.606 0-4.445 4.445-6.893 10.354-6.893 16.64s2.448 12.195 6.893 16.64c4.443 4.446 10.352 6.894 16.638 6.894z"/><path d="m256 184.371c-12.976 0-23.532 10.557-23.532 23.532s10.557 23.532 23.532 23.532 23.532-10.557 23.532-23.532-10.556-23.532-23.532-23.532zm0 32.065c-4.705 0-8.532-3.828-8.532-8.532 0-4.705 3.828-8.532 8.532-8.532s8.532 3.827 8.532 8.532c0 4.704-3.827 8.532-8.532 8.532z"/><path d="m256 280.564c-12.976 0-23.532 10.557-23.532 23.532s10.557 23.532 23.532 23.532 23.532-10.557 23.532-23.532-10.556-23.532-23.532-23.532zm0 32.065c-4.705 0-8.532-3.827-8.532-8.532s3.828-8.532 8.532-8.532 8.532 3.828 8.532 8.532c0 4.705-3.827 8.532-8.532 8.532z"/><path d="m327.629 256c0-12.976-10.557-23.532-23.532-23.532s-23.533 10.556-23.533 23.532 10.557 23.532 23.532 23.532 23.533-10.556 23.533-23.532zm-23.532 8.532c-4.705 0-8.532-3.828-8.532-8.532s3.828-8.532 8.532-8.532 8.532 3.828 8.532 8.532-3.828 8.532-8.532 8.532z"/><path d="m231.436 256c0-12.976-10.557-23.532-23.532-23.532s-23.533 10.556-23.533 23.532 10.557 23.532 23.532 23.532 23.533-10.556 23.533-23.532zm-23.533 8.532c-4.705 0-8.532-3.828-8.532-8.532s3.828-8.532 8.532-8.532 8.532 3.828 8.532 8.532-3.827 8.532-8.532 8.532z"/><path d="m207.903 215.403h.08c4.142 0 7.46-3.358 7.46-7.5s-3.398-7.5-7.54-7.5-7.5 3.358-7.5 7.5 3.358 7.5 7.5 7.5z"/><path d="m207.983 311.597c4.142 0 7.46-3.358 7.46-7.5s-3.398-7.5-7.54-7.5-7.5 3.358-7.5 7.5 3.358 7.5 7.5 7.5z"/><path d="m296.517 207.903c0 4.142 3.358 7.5 7.5 7.5h.08c4.142 0 7.46-3.358 7.46-7.5s-3.398-7.5-7.54-7.5-7.5 3.358-7.5 7.5z"/><path d="m209.991 152.428c.957 0 1.93-.184 2.869-.574l.074-.03c3.827-1.586 5.606-5.958 4.02-9.785s-6.011-5.627-9.837-4.041c-3.827 1.586-5.643 5.974-4.057 9.8 1.197 2.888 3.989 4.63 6.931 4.63z"/><path d="m364.205 203.079c-3.823 1.595-5.629 5.987-4.034 9.81 1.201 2.879 3.989 4.614 6.925 4.614.963 0 1.941-.187 2.885-.581l.074-.031c3.823-1.595 5.592-5.972 3.997-9.794-1.596-3.823-6.026-5.613-9.847-4.018z"/><path d="m144.917 309.532c.957 0 1.93-.185 2.869-.574l.074-.031c3.827-1.586 5.606-5.958 4.02-9.785s-6.011-5.627-9.837-4.042c-3.827 1.586-5.643 5.974-4.057 9.8 1.197 2.889 3.989 4.632 6.931 4.632z"/><path d="m299.146 360.176c-3.827 1.586-5.643 5.974-4.057 9.8 1.197 2.888 3.989 4.63 6.931 4.63.957 0 1.93-.185 2.869-.573l.074-.031c3.827-1.586 5.606-5.958 4.02-9.784-1.586-3.827-6.011-5.628-9.837-4.042z"/><path d="m304.017 296.597c-4.142 0-7.5 3.358-7.5 7.5s3.358 7.5 7.5 7.5h.08c4.142 0 7.46-3.358 7.46-7.5s-3.398-7.5-7.54-7.5z"/><path d="m138.01 207.143c-1.59 3.825.221 8.215 4.045 9.805.941.392 1.917.577 2.877.577 2.939 0 5.729-1.739 6.928-4.622l.031-.074c1.59-3.824-.236-8.177-4.061-9.768-3.823-1.59-8.229.257-9.82 4.082z"/><path d="m304.896 137.97c-3.834-1.568-8.229.305-9.797 4.138-1.569 3.833.267 8.213 4.101 9.782.93.38 1.892.561 2.838.561 2.955 0 5.756-1.758 6.944-4.662l.03-.074c1.568-3.834-.283-8.176-4.116-9.745z"/><path d="m207.13 374.051c.941.392 1.917.577 2.877.577 2.939 0 5.729-1.739 6.928-4.622l.031-.074c1.59-3.824-.236-8.177-4.061-9.768-3.823-1.59-8.229.257-9.82 4.082-1.59 3.825.221 8.215 4.045 9.805z"/><path d="m374.039 304.931.031-.074c1.59-3.825-.236-8.178-4.061-9.768-3.824-1.589-8.229.258-9.82 4.083-1.59 3.824.221 8.214 4.045 9.805.941.392 1.917.577 2.877.577 2.939 0 5.729-1.74 6.928-4.623z"/></g></g></svg>