<svg id="Layer_2" enable-background="new 0 0 64 64" height="512" viewBox="0 0 64 64" width="512" xmlns="http://www.w3.org/2000/svg"><g><g><g><path d="m12.94 39.7-.44 4.8-.36 3.93v.01l-.02.24c-.07.75-.7 1.32-1.45 1.32-.43 0-.84.17-1.14.47l-1.04 1.04c-.31.31-.74.49-1.18.49-.77 0-1.44-.52-1.63-1.27l-.68-2.73-1.65-.55c-.81-.27-1.35-1.02-1.35-1.87 0-.38.11-.75.31-1.07l6.08-9.55c.38-.6 1.04-.96 1.75-.96.55 0 1.08.22 1.47.61l1.57 1.57c-.22.09-.42.24-.59.41-.37.36-.59.86-.59 1.41 0 .71.38 1.34.94 1.69z" fill="#fcd770"/></g><g><path d="m47.05 62h-21.05l1.11-2.21c.58-1.18.89-2.47.89-3.79 0-.81-.12-1.6-.34-2.37l-4.13 4.65c-.97 1.09-2.37 1.72-3.83 1.72-1.1 0-2.15-.35-3-.97-.86-.61-1.52-1.49-1.87-2.54l-2.69-8.05v-.01l.36-3.93 4.5-1.5 3.05 6.72 3.34-7.23c1.04-2.25 2.87-4.03 5.14-5l1.05-.45c.56-.24 1.05-.6 1.42-1.04l.34.5c1.04 1.56 2.79 2.5 4.66 2.5.94 0 1.84-.24 2.64-.66.8-.44 1.5-1.06 2.02-1.84l.53-.78c.49.49 1.12.86 1.84 1.04l1.4.35c.55.14 1.09.32 1.6.54 3.58 1.57 5.97 5.14 5.97 9.16v.99 9.25c0 2.73-2.22 4.95-4.95 4.95z" fill="#ef7385"/></g><g><path d="m40.45 46.71.55 3.29-4 4-.66-.66c-1.5-1.5-2.34-3.53-2.34-5.65v-.44c0-1.8 1.45-3.25 3.25-3.25.79 0 1.53.29 2.1.77s.97 1.16 1.1 1.94z" fill="#f0d0b4"/></g><g><path d="m17.92 39.32-.92 3.68-4.5 1.5.44-4.8v-.01c-.56-.35-.94-.98-.94-1.69 0-.55.22-1.05.59-1.41.17-.17.37-.32.59-.41.25-.12.53-.18.82-.18h.12 1.21c1.47 0 2.67 1.2 2.67 2.67 0 .22-.03.44-.08.65z" fill="#f0d0b4"/></g><g><path d="m48.18 22.97c1.17-2.08 1.82-4.45 1.82-6.92 0-4.78-2.38-8.99-6.03-11.53v-.01c2.49-1.63 5.41-2.51 8.41-2.51 2.66 0 5.06 1.08 6.8 2.82s2.82 4.14 2.82 6.8c0 2.19-.74 4.31-2.11 6.02l-.74.93c-.75.92-1.15 2.08-1.15 3.26 0 1.39.55 2.72 1.53 3.7l.94.94c.98.98 1.53 2.31 1.53 3.7 0 1.18-.4 2.34-1.15 3.26l-2.23 2.79c-.4.5-.62 1.13-.62 1.78 0 .55.22 1.05.59 1.41.31.32.74.53 1.21.58-.79 3.92-3.88 7.02-7.8 7.81v-.99c0-4.02-2.39-7.59-5.97-9.16-.02-.16-.03-.3-.03-.46 0-.77.26-1.52.74-2.12l2.11-2.64c.75-.92 1.15-2.08 1.15-3.26 0-1.39-.55-2.72-1.53-3.7l-.94-.94c-.07-.07-.14-.15-.21-.23.31-.43.6-.87.86-1.33z" fill="#fcd770"/></g><g><path d="m30.03 9.39-1.52.6c-1.3.52-2.22 1.69-2.45 3.04l-.99-.49c-1.88-.94-3.07-2.87-3.07-4.98 0-1.54.62-2.92 1.63-3.93s2.39-1.63 3.93-1.63h8.39c2.98 0 5.75.93 8.02 2.52 3.65 2.54 6.03 6.75 6.03 11.53 0 2.47-.65 4.84-1.82 6.92-.26.46-.55.9-.86 1.33-1.1 1.5-2.49 2.8-4.14 3.79l-3.18 1.91v-6l1.95-.97c1.26-.63 2.05-1.91 2.05-3.34v-.07c0-2-1.62-3.62-3.62-3.62h-.38c0-2.21-1.79-4-4-4h-3c-.83 0-1.58-.34-2.12-.88-.45-.45-.77-1.06-.85-1.73z" fill="#fcd770"/></g><g><path d="m32 31.5-2.77.46c-.15.03-.31.04-.46.04-1.27 0-2.35-.86-2.67-2.03l1.77-.44c.63-.15 1.16-.51 1.53-.99.38-.48.6-1.08.6-1.73 0-1.55-1.26-2.81-2.81-2.81h-1.19v-.17c0-.53-.21-1.04-.59-1.42l-1.41-1.41c1.3-1.96 2-4.25 2-6.61v-.68c0-.23.02-.46.06-.68.23-1.35 1.15-2.52 2.45-3.04l1.52-.6c.08.67.4 1.28.85 1.73.54.54 1.29.88 2.12.88h3c2.21 0 4 1.79 4 4h.38c2 0 3.62 1.62 3.62 3.62v.07c0 1.43-.79 2.71-2.05 3.34l-1.95.97v6 2.88c0 1.09.45 2.11 1.19 2.84l-.53.78c-.52.78-1.22 1.4-2.02 1.84-.8.42-1.7.66-2.64.66-1.87 0-3.62-.94-4.66-2.5l-.34-.5c.64-.71 1-1.65 1-2.64z" fill="#f0d0b4"/></g><g><path d="m30 26.81c0 .65-.22 1.25-.6 1.73-.37.48-.9.84-1.53.99l-1.77.44c-.07-.24-.1-.48-.1-.74v-5.23h1.19c1.55 0 2.81 1.26 2.81 2.81z" fill="#ef7385"/></g><g><path d="m15.621 20.621c-.397-.398-.937-.621-1.5-.621-1.171 0-2.121.95-2.121 2.121 0 .563.224 1.102.621 1.5l.672.672c.63.63.184 1.707-.707 1.707h-2.586c-1.105 0-2 .895-2 2s.895 2 2 2h2.586c.891 0 1.337 1.077.707 1.707l-.672.672c-.397.397-.621.937-.621 1.5 0 1.171.95 2.121 2.121 2.121.563 0 1.102-.224 1.5-.621l4.379-4.379v-6z" fill="#3bafda"/></g></g><path d="m30.293 14.293-2.707 2.707 2.707 2.707 1.414-1.414-1.293-1.293 1.293-1.293z"/><path d="m60.672 18.261c1.501-1.877 2.328-4.234 2.328-6.637 0-5.858-4.766-10.624-10.624-10.624-2.974 0-5.861.813-8.401 2.339-2.325-1.473-5.071-2.339-8.022-2.339h-8.391c-3.618 0-6.562 2.944-6.562 6.562 0 2.501 1.391 4.75 3.628 5.87l.379.189c0 .029-.006.057-.006.087v.687c0 2.16-.634 4.252-1.832 6.051l-.455.682 1.994 1.994c.188.188.292.44.292.707v5.401c0 2.079 1.691 3.77 3.771 3.77.207 0 .413-.017.62-.051l1.609-.269v.682c0 1.202-.714 2.284-1.818 2.758l-1.045.448c-2.505 1.073-4.513 3.027-5.654 5.501l-2.422 5.248-2.006-4.413.835-3.339c.073-.29.11-.59.11-.893 0-1.421-.82-2.643-2.005-3.253l3.712-3.712-1.414-1.414-4.379 4.379c-.209.208-.498.328-.793.328-.618 0-1.121-.503-1.121-1.121 0-.3.116-.581.328-.793l.672-.672c.574-.574.744-1.429.434-2.179s-1.037-1.235-1.848-1.235h-2.586c-.552 0-1-.449-1-1s.448-1 1-1h2.586c.812 0 1.537-.485 1.848-1.235s.14-1.605-.434-2.179l-.672-.672c-.212-.212-.328-.493-.328-.793 0-.618.503-1.121 1.121-1.121.295 0 .584.12.793.328l4.379 4.379 1.414-1.414-4.379-4.379c-.581-.581-1.385-.914-2.207-.914-1.721 0-3.121 1.4-3.121 3.121 0 .834.324 1.618.914 2.207l.672.672h-2.586c-1.654 0-3 1.346-3 3s1.346 3 3 3h2.586l-.672.672c-.417.416-.693.932-.824 1.492-.304-.099-.621-.164-.95-.164-1.057 0-2.026.533-2.596 1.425l-6.08 9.554c-.304.478-.464 1.03-.464 1.597 0 1.283.818 2.418 2.035 2.824l1.128.375.55 2.2c.298 1.192 1.365 2.025 2.594 2.025.715 0 1.387-.278 1.891-.783l1.035-1.035c.115-.116.275-.182.438-.182.427 0 .824-.115 1.174-.305l2.038 6.114c.835 2.506 3.172 4.19 5.813 4.19 1.749 0 3.419-.75 4.581-2.057l2.716-3.055c.001.038.007.075.007.113 0 1.153-.272 2.309-.789 3.342l-1.829 3.658h22.668c3.281 0 5.95-2.669 5.95-5.95v-8.468c3.676-1.044 6.573-3.967 7.595-7.643 1.37-.276 2.405-1.488 2.405-2.939v-1h-2v1c0 .551-.448 1-1 1s-1-.449-1-1c0-.418.145-.829.406-1.156l2.229-2.787c.881-1.101 1.365-2.483 1.365-3.891 0-1.664-.647-3.228-1.824-4.404l-.938-.938c-.799-.799-1.238-1.86-1.238-2.99 0-.956.329-1.894.927-2.642zm-37.672-10.699c0-2.515 2.047-4.562 4.562-4.562h8.391c7.194 0 13.047 5.853 13.047 13.047 0 4.556-2.427 8.843-6.334 11.188l-1.666 1v-3.616l1.397-.699c1.606-.803 2.603-2.422 2.603-4.297 0-2.371-1.794-4.331-4.095-4.593-.453-2.295-2.48-4.03-4.905-4.03h-3c-1.103 0-2-.897-2-2s.897-2 2-2h2v-2h-2c-2.107 0-3.82 1.642-3.971 3.711l-.886.354c-1.219.487-2.157 1.408-2.68 2.543-1.519-.788-2.463-2.329-2.463-4.046zm24.762 18.614c.799.799 1.238 1.86 1.238 2.99 0 .956-.329 1.894-.927 2.642l-2.112 2.64c-.425.531-.707 1.159-.85 1.819-.147-.043-.292-.093-.442-.13l-1.396-.349c-1.338-.335-2.273-1.532-2.273-2.911v-2.311l2.695-1.617c1.412-.847 2.655-1.914 3.698-3.142zm-20.762-1.176h.192c.997 0 1.808.811 1.808 1.808 0 .831-.563 1.552-1.369 1.754l-.631.157zm7.16 7.154c.943-.158 1.762-.762 2.189-1.617l.545-1.089-1.789-.896-.545 1.09c-.143.285-.415.486-.729.539l-4.767.794c-.515.083-1.004-.071-1.38-.366l.431-.108c1.698-.424 2.885-1.943 2.885-3.693 0-2.1-1.708-3.808-3.808-3.808h-.322c-.139-.482-.385-.928-.749-1.293l-.854-.854c1.136-1.962 1.733-4.178 1.733-6.458v-.687c0-1.234.74-2.327 1.886-2.785l.516-.206c.645 1.345 2.009 2.283 3.598 2.283h3c1.654 0 3 1.346 3 3v1h1.379c1.445 0 2.621 1.176 2.621 2.694 0 1.041-.573 1.975-1.497 2.436l-2.503 1.252v9.495c0 1.076.352 2.078.944 2.905l-.112.167c-.856 1.284-2.289 2.051-3.832 2.051-1.511 0-2.912-.739-3.774-1.975.492-.781.774-1.697.774-2.663v-1.015zm-17.21 6.922-.787 3.149-2.529.843.19-2.086c.059.004.116.018.176.018h1v-2h-1c-.552 0-1-.449-1-1s.448-1 1-1h1.329c.921 0 1.671.75 1.671 1.671 0 .138-.017.273-.05.405zm-6.279 9.924c-.7 0-1.357.272-1.853.768l-1.036 1.036c-.341.346-1.011.162-1.13-.313l-.58-2.321 4.775-7.64-1.695-1.06-4.582 7.333-.902-.301c-.399-.133-.668-.505-.668-.926 0-.186.053-.368.152-.524l6.079-9.552c.355-.556 1.206-.648 1.67-.184l.791.791c-.426.518-.692 1.171-.692 1.893 0 .833.342 1.587.893 2.131l-.768 8.454c-.022.237-.217.415-.454.415zm40.329 8.05c0 2.178-1.772 3.95-3.95 3.95-1.055 0-2.047-.411-2.793-1.157l-5.843-5.843 2.731-2.731 7.325 4.579 1.061-1.696-1.874-1.171c.047-.107.08-.218.132-.323l.321-.643c.582-1.164.89-2.466.89-3.767 0-1.669-.489-3.285-1.415-4.672l-.753-1.13-1.664 1.109.753 1.13c.706 1.058 1.079 2.29 1.079 3.563 0 .992-.234 1.985-.679 2.873l-.321.644c-.023.047-.036.097-.059.144l-4.029-2.518-.474-2.841c-.343-2.057-2.104-3.55-4.19-3.55-2.343 0-4.248 1.906-4.248 4.248v.438c0 2.404.936 4.664 2.636 6.364l6.949 6.95h-14.967l.382-.764c.654-1.309 1-2.774 1-4.236s-.346-2.927-1-4.236l-.321-.644c-.445-.888-.679-1.881-.679-2.872 0-1.273.373-2.505 1.079-3.563l.753-1.13-1.664-1.109-.753 1.129c-.926 1.387-1.415 3.003-1.415 4.673 0 1.301.308 2.604.89 3.767l.321.644c.12.241.225.49.318.742l-3.746 4.214c-.783.88-1.908 1.385-3.087 1.385-1.779 0-3.354-1.135-3.917-2.823l-2.622-7.864.279-3.07 3.026-1.009 4.628 10.18 1.82-.827-1.757-3.865 3.145-6.815c.934-2.024 2.577-3.623 4.625-4.501l1.045-.447c.306-.131.586-.299.853-.482 1.249 1.583 3.143 2.523 5.179 2.523 2.174 0 4.191-1.066 5.426-2.849.417.251.869.454 1.361.577l1.396.349c4.014 1.003 6.817 4.593 6.817 8.731zm-13.998-4.466c-1.289-1.317-2.002-3.052-2.002-4.897v-.438c0-1.241 1.009-2.249 2.248-2.249 1.104 0 2.036.79 2.218 1.879l.463 2.778zm21.362-34.641c-.88 1.101-1.364 2.483-1.364 3.891 0 1.664.647 3.228 1.824 4.404l.938.938c.799.799 1.238 1.86 1.238 2.99 0 .956-.329 1.894-.927 2.642l-2.229 2.787c-.544.68-.844 1.534-.844 2.405 0 1.143.65 2.127 1.593 2.633-.836 2.721-2.927 4.909-5.606 5.854-.117-4.071-2.45-7.664-5.972-9.464.034-.482.206-.948.509-1.326l2.112-2.64c.88-1.101 1.364-2.483 1.364-3.891 0-1.664-.647-3.228-1.824-4.404l-.581-.58c1.539-2.397 2.405-5.217 2.405-8.135 0-4.561-2.047-8.646-5.262-11.407 2.045-1.071 4.312-1.64 6.638-1.64 4.755 0 8.624 3.869 8.624 8.624 0 1.951-.671 3.864-1.891 5.388z"/><path d="m54.982 10.062c.012.186.018.373.018.562 0 1.951-.671 3.864-1.891 5.388l-.745.932c-.88 1.1-1.364 2.482-1.364 3.89 0 1.664.647 3.228 1.824 4.404l.938.938c.799.799 1.238 1.86 1.238 2.99 0 .956-.329 1.894-.927 2.642l-2.112 2.64c-.619.775-.961 1.748-.961 2.74 0 1.47.73 2.834 1.953 3.649l1.492.995 1.109-1.664-1.492-.995c-.665-.443-1.062-1.185-1.062-1.985 0-.54.186-1.069.523-1.491l2.112-2.64c.881-1.101 1.365-2.483 1.365-3.891 0-1.664-.647-3.228-1.824-4.404l-.938-.938c-.799-.799-1.238-1.86-1.238-2.99 0-.956.329-1.894.927-2.642l.745-.932c1.501-1.876 2.328-4.233 2.328-6.636 0-.23-.008-.458-.021-.686z"/><path d="m5 15h2v2h-2z"/><path d="m13 11h2v2h-2z"/><path d="m21 27h2v2h-2z"/><path d="m1 27h2v2h-2z"/><path d="m23 33h2v2h-2z"/><path d="m5 31h2v2h-2z"/></g></svg>