<?xml version="1.0" encoding="UTF-8" standalone="no"?>
<svg
   xmlns:dc="http://purl.org/dc/elements/1.1/"
   xmlns:cc="http://creativecommons.org/ns#"
   xmlns:rdf="http://www.w3.org/1999/02/22-rdf-syntax-ns#"
   xmlns:svg="http://www.w3.org/2000/svg"
   xmlns="http://www.w3.org/2000/svg"
   xmlns:sodipodi="http://sodipodi.sourceforge.net/DTD/sodipodi-0.dtd"
   xmlns:inkscape="http://www.inkscape.org/namespaces/inkscape"
   height="512"
   viewBox="0 0 64 64"
   width="512"
   version="1.1"
   id="svg985"
   sodipodi:docname="cough-cancel.svg"
   inkscape:version="0.92.5 (2060ec1f9f, 2020-04-08)">
  <metadata
     id="metadata991">
    <rdf:RDF>
      <cc:Work
         rdf:about="">
        <dc:format>image/svg+xml</dc:format>
        <dc:type
           rdf:resource="http://purl.org/dc/dcmitype/StillImage" />
        <dc:title></dc:title>
      </cc:Work>
    </rdf:RDF>
  </metadata>
  <defs
     id="defs989" />
  <sodipodi:namedview
     pagecolor="#ffffff"
     bordercolor="#666666"
     borderopacity="1"
     objecttolerance="10"
     gridtolerance="10"
     guidetolerance="10"
     inkscape:pageopacity="0"
     inkscape:pageshadow="2"
     inkscape:window-width="3840"
     inkscape:window-height="2066"
     id="namedview987"
     showgrid="false"
     inkscape:zoom="3.5996094"
     inkscape:cx="256"
     inkscape:cy="244.88768"
     inkscape:window-x="-11"
     inkscape:window-y="-11"
     inkscape:window-maximized="1"
     inkscape:current-layer="svg985" />
  <g
     id="virus-covid19-corona-cough-breath"
     transform="matrix(0.9825782,0,0,0.9825782,2.3712953,-0.41265912)">
    <path
       d="M 13,3 A 10,10 0 0 0 3,13 v 16.2 a 14.007,14.007 0 0 0 2.95,8.59 L 10,43 V 30 A 2,2 0 0 1 8,28 v -5 a 2,2 0 0 1 2,-2 v -6 a 4,4 0 0 1 4,-4 H 31 A 6,6 0 0 0 37,5 V 3 Z"
       id="path904"
       inkscape:connector-curvature="0"
       style="fill:#58595b" />
    <path
       d="m 59,55 v -2 l 0.578,-1.155 A 4.012,4.012 0 0 0 60,50.056 V 36.54 a 1.923,1.923 0 0 0 -0.27,-1 L 52,22.14 a 2.013,2.013 0 0 0 -1.74,-1 1.967,1.967 0 0 0 -0.99,0.27 1.988,1.988 0 0 0 -0.73,2.73 l 4.86,8.435 A 2,2 0 0 1 54,34 2,2 0 0 0 53.4,32.575 l 0.008,0.015 0.02,0.02 -0.02,-0.02 L 53.4,32.575 A 2,2 0 0 0 50,34 v 6 l -0.3,0.453 a 10,10 0 0 0 0,11.094 L 50,52 v 3 z"
       id="path906"
       inkscape:connector-curvature="0"
       style="fill:#ffbcab" />
    <path
       d="m 25,17 4,2 -4,2 4,-2 z"
       id="path908"
       inkscape:connector-curvature="0"
       style="fill:#9bc9ff" />
    <path
       d="M 8.157,22.223 A 1.975,1.975 0 0 0 8,23 1.989,1.989 0 0 1 8.157,22.223 Z"
       id="path910"
       inkscape:connector-curvature="0"
       style="fill:#9bc9ff" />
    <path
       d="M 10,21 A 1.975,1.975 0 0 0 9.223,21.157 1.989,1.989 0 0 1 10,21 Z"
       id="path912"
       inkscape:connector-curvature="0"
       style="fill:#9bc9ff" />
    <path
       d="m 48,55 v 6 h 12 v -6 h -1 -9 z"
       id="path914"
       inkscape:connector-curvature="0"
       style="fill:#006df0" />
    <path
       d="M 8.157,22.223 A 2.08,2.08 0 0 1 9.223,21.157 2,2 0 0 0 8.157,22.223 Z"
       id="path916"
       inkscape:connector-curvature="0"
       style="fill:#9bc9ff" />
    <path
       d="m 10,30 a 2.006,2.006 0 0 1 -2,-2 2,2 0 0 0 2,2 z"
       id="path918"
       inkscape:connector-curvature="0"
       style="fill:#9bc9ff" />
    <path
       d="M 33,21 V 15 A 4,4 0 0 0 29,11 H 14 a 4,4 0 0 0 -4,4 v 6 a 2,2 0 0 0 -2,2 v 5 a 2,2 0 0 0 2,2 v 21 h 16 v -8 h 6 V 39 H 28 A 3,3 0 0 1 25.01,35.78 3.111,3.111 0 0 1 28.17,33 H 32 v -3 h 4 z"
       id="path920"
       inkscape:connector-curvature="0"
       style="fill:#ffbcab" />
    <path
       d="m 28.17,33 h -2 A 3.111,3.111 0 0 0 23.01,35.78 3,3 0 0 0 26,39 h 2 A 3,3 0 0 1 25.01,35.78 3.111,3.111 0 0 1 28.17,33 Z"
       id="path922"
       inkscape:connector-curvature="0"
       style="fill:#ff9478" />
    <path
       d="m 24,43 h 2 v 8 h -2 z"
       id="path924"
       inkscape:connector-curvature="0"
       style="fill:#ff9478" />
    <path
       d="m 33,21 v -6 a 4,4 0 0 0 -4,-4 h -2 a 4,4 0 0 1 4,4 v 6 l 3,9 h 2 z"
       id="path926"
       inkscape:connector-curvature="0"
       style="fill:#ff9478" />
    <path
       d="m 30,39 h 2 v 4 h -2 z"
       id="path928"
       inkscape:connector-curvature="0"
       style="fill:#ff9478" />
    <path
       d="m 30,33 h 2 v -3 h -1 a 1,1 0 0 0 -1,1 z"
       id="path930"
       inkscape:connector-curvature="0"
       style="fill:#ff9478" />
    <path
       d="m 10,21 a 2,2 0 0 0 -2,2 v 5 a 2,2 0 0 0 2,2 h 2 v -9 z"
       id="path932"
       inkscape:connector-curvature="0"
       style="fill:#dfa596" />
    <path
       d="M 5,51 H 29 A 10,10 0 0 1 39,61 H 3 v -8 a 2,2 0 0 1 2,-2 z"
       id="path934"
       inkscape:connector-curvature="0"
       style="fill:#006df0" />
    <path
       d="M 36.8,61 H 39 A 10,10 0 0 0 29,51 H 5 a 2,2 0 0 0 -2,2 h 24 a 10,10 0 0 1 9.8,8 z"
       id="path936"
       inkscape:connector-curvature="0"
       style="fill:#005ece" />
    <path
       d="M 35,3 A 6,6 0 0 1 29,9 H 12 a 4,4 0 0 0 -4,4 v 10 a 2,2 0 0 1 2,-2 v -6 a 4,4 0 0 1 4,-4 H 31 A 6,6 0 0 0 37,5 V 3 Z"
       id="path938"
       inkscape:connector-curvature="0"
       style="fill:#414042" />
    <path
       d="M 10,43 V 30 A 2,2 0 0 1 8,28 v 12.427 z"
       id="path940"
       inkscape:connector-curvature="0"
       style="fill:#414042" />
    <path
       d="M 59.73,35.54 52,22.14 a 2.013,2.013 0 0 0 -1.74,-1 1.967,1.967 0 0 0 -0.99,0.27 1.983,1.983 0 0 1 0.73,0.73 l 7.73,13.4 a 1.923,1.923 0 0 1 0.27,1 v 13.516 a 4.012,4.012 0 0 1 -0.422,1.789 L 57,53 v 2 h 2 v -2 l 0.578,-1.155 A 4.012,4.012 0 0 0 60,50.056 V 36.54 a 1.923,1.923 0 0 0 -0.27,-1 z"
       id="path942"
       inkscape:connector-curvature="0"
       style="fill:#ffa791" />
    <path
       d="m 52,34 v 5 a 1,1 0 0 0 1,1 1,1 0 0 0 1,-1 v -5 a 2,2 0 0 0 -0.6,-1.425 l 0.008,0.015 0.02,0.02 -0.02,-0.02 L 53.4,32.575 A 1.984,1.984 0 0 0 51.173,32.182 L 51.4,32.575 A 2,2 0 0 1 52,34 Z"
       id="path944"
       inkscape:connector-curvature="0"
       style="fill:#ffa791" />
    <g
       id="g982"
       style="fill:#231f20">
      <path
         d="m 24.105,21.447 a 1,1 0 0 0 1.342,0.448 l 4,-2 a 1,1 0 0 0 0,-1.79 l -4,-2 a 1.0004169,1.0004169 0 1 0 -0.894,1.79 L 26.764,19 24.553,20.105 a 1,1 0 0 0 -0.448,1.342 z"
         id="path946"
         inkscape:connector-curvature="0" />
      <path
         d="m 44,27 h 2 v 2 h -2 z"
         id="path948"
         inkscape:connector-curvature="0" />
      <path
         d="m 44,31 h 2 v 2 h -2 z"
         id="path950"
         inkscape:connector-curvature="0" />
      <path
         d="m 44,35 h 2 v 2 h -2 z"
         id="path952"
         inkscape:connector-curvature="0" />
      <path
         d="m 44,39 h 2 v 2 h -2 z"
         id="path954"
         inkscape:connector-curvature="0" />
      <path
         d="m 41,29 h 2 v 2 h -2 z"
         id="path956"
         inkscape:connector-curvature="0" />
      <path
         d="m 41,33 h 2 v 2 h -2 z"
         id="path958"
         inkscape:connector-curvature="0" />
      <path
         d="m 41,37 h 2 v 2 h -2 z"
         id="path960"
         inkscape:connector-curvature="0" />
      <path
         d="m 38,31 h 2 v 2 h -2 z"
         id="path962"
         inkscape:connector-curvature="0" />
      <path
         d="m 38,35 h 2 v 2 h -2 z"
         id="path964"
         inkscape:connector-curvature="0" />
      <path
         d="m 35,33 h 2 v 2 h -2 z"
         id="path966"
         inkscape:connector-curvature="0" />
      <path
         d="m 32,35 h 2 v 2 h -2 z"
         id="path968"
         inkscape:connector-curvature="0" />
      <path
         d="m 35,37 h 2 v 2 h -2 z"
         id="path970"
         inkscape:connector-curvature="0" />
      <path
         d="m 38,39 h 2 v 2 h -2 z"
         id="path972"
         inkscape:connector-curvature="0" />
      <path
         d="m 41,41 h 2 v 2 h -2 z"
         id="path974"
         inkscape:connector-curvature="0" />
      <path
         d="m 44,43 h 2 v 2 h -2 z"
         id="path976"
         inkscape:connector-curvature="0" />
      <path
         d="M 60.47,52.29 A 4.945,4.945 0 0 0 61,50.06 V 36.54 a 2.952,2.952 0 0 0 -0.4,-1.5 l -7.73,-13.4 a 3.006,3.006 0 0 0 -4.1,-1.1 3,3 0 0 0 -1.1,4.1 l 3.71,6.43 A 2.993,2.993 0 0 0 49,34 v 5.7 l -0.13,0.2 a 10.969,10.969 0 0 0 0,12.2 L 49,52.3 V 54 h -1 a 1,1 0 0 0 -1,1 v 6 a 1,1 0 0 0 1,1 h 12 a 1,1 0 0 0 1,-1 V 55 A 1,1 0 0 0 60,54 V 53.24 Z M 59,60 H 49 v -4 h 10 z m 0,-9.94 a 3,3 0 0 1 -0.32,1.34 l -0.57,1.15 A 1,1 0 0 0 58,53 v 1 h -7 v -2 a 0.967,0.967 0 0 0 -0.17,-0.55 l -0.3,-0.46 a 8.975,8.975 0 0 1 0,-9.98 l 0.3,-0.46 A 0.967,0.967 0 0 0 51,40 v -6 a 1,1 0 0 1 1,-1 0.959,0.959 0 0 1 0.68,0.28 h 0.01 c 0,0.01 0.03,0.03 0.03,0.04 A 0.977,0.977 0 0 1 53,34 v 6 a 1,1 0 0 0 2,0 V 34 A 2.974,2.974 0 0 0 54.24,32.02 L 49.4,23.63 a 0.957,0.957 0 0 1 -0.1,-0.74 1.009,1.009 0 0 1 0.47,-0.62 1.021,1.021 0 0 1 1.36,0.37 l 7.74,13.41 A 0.9,0.9 0 0 1 59,36.54 Z"
         id="path978"
         inkscape:connector-curvature="0" />
      <path
         d="m 29,50 h -2 v -6 h 5 a 1,1 0 0 0 1,-1 V 39 A 1,1 0 0 0 32,38 H 28 A 1.983,1.983 0 0 1 26.59,37.41 2.018,2.018 0 0 1 26,35.85 2.139,2.139 0 0 1 28.17,34 H 32 a 1,1 0 0 0 1,-1 v -2 h 3 a 0.983,0.983 0 0 0 0.81,-0.42 1,1 0 0 0 0.14,-0.9 L 34,20.84 V 15 A 4.975,4.975 0 0 0 32.78,11.76 7.006,7.006 0 0 0 38,5 V 3 A 1,1 0 0 0 37,2 H 13 A 11.007,11.007 0 0 0 2,13 v 16.2 a 15.051,15.051 0 0 0 3.16,9.2 L 9,43.34 V 50 H 5 a 3.009,3.009 0 0 0 -3,3 v 8 a 1,1 0 0 0 2,0 v -8 a 1,1 0 0 1 1,-1 h 24 a 9.014,9.014 0 0 1 9,9 1,1 0 0 0 2,0 A 11.007,11.007 0 0 0 29,50 Z M 9,40.08 6.74,37.18 A 13.069,13.069 0 0 1 4,29.2 V 13 a 9.014,9.014 0 0 1 9,-9 h 23 v 1 a 5,5 0 0 1 -5,5 H 13 a 4,4 0 0 0 -4,4 v 6.17 A 3.014,3.014 0 0 0 7,23 v 5 a 3.014,3.014 0 0 0 2,2.83 z M 18,42 a 1,1 0 0 0 0,2 h 7 v 6 H 11 V 31 h 1 a 1,1 0 0 0 0,-2 H 10 A 1,1 0 0 1 9,28 V 23 A 0.949,0.949 0 0 1 9.31,22.29 0.928,0.928 0 0 1 10,22 h 2 a 1,1 0 0 0 0,-2 h -1 v -6 a 2.006,2.006 0 0 1 2,-2 h 16 a 3.009,3.009 0 0 1 3,3 v 6 a 1.185,1.185 0 0 0 0.05,0.32 L 34.61,29 H 32 a 1,1 0 0 0 -1,1 v 2 H 28.17 A 4.111,4.111 0 0 0 24.01,35.71 4,4 0 0 0 28,40 h 3 v 2 z"
         id="path980"
         inkscape:connector-curvature="0" />
    </g>
  </g>
  <g
     id="g1063"
     transform="matrix(0.05737928,0,0,0.05737928,-0.07655631,34.328077)">
    <path
       id="path993"
       d="m 256.002,503.671 c 136.785,0 247.671,-110.886 247.671,-247.672 C 503.673,119.213 392.786,8.329 256.002,8.329 119.218,8.329 8.33,119.215 8.33,256.001 c 0,136.786 110.886,247.67 247.672,247.67 z"
       style="fill:#ff6465"
       inkscape:connector-curvature="0" />
    <path
       id="path995"
       d="M 74.962,256.001 C 74.962,130.516 168.289,26.843 289.317,10.567 278.418,9.101 267.301,8.329 256.001,8.329 119.216,8.329 8.33,119.215 8.33,256.001 c 0,136.786 110.886,247.672 247.671,247.672 11.3,0 22.417,-0.772 33.316,-2.238 C 168.289,485.159 74.962,381.486 74.962,256.001 Z"
       style="opacity:0.1;enable-background:new"
       inkscape:connector-curvature="0" />
    <path
       id="path997"
       d="m 311.525,256.001 65.206,-65.206 c 4.74,-4.74 4.74,-12.425 0,-17.163 l -38.36,-38.36 c -4.74,-4.74 -12.425,-4.74 -17.164,0 l -65.206,65.206 -65.206,-65.206 c -4.74,-4.74 -12.425,-4.74 -17.163,0 l -38.36,38.36 c -4.74,4.74 -4.74,12.425 0,17.163 l 65.206,65.206 -65.206,65.206 c -4.74,4.74 -4.74,12.425 0,17.164 l 38.36,38.36 c 4.74,4.74 12.425,4.74 17.163,0 l 65.206,-65.206 65.206,65.206 c 4.74,4.74 12.425,4.74 17.164,0 l 38.36,-38.36 c 4.74,-4.74 4.74,-12.425 0,-17.164 z"
       style="fill:#ffffff"
       inkscape:connector-curvature="0" />
    <path
       id="path999"
       d="m 388.614,182.213 c 0,-5.467 -2.129,-10.607 -5.995,-14.471 l -38.36,-38.36 c -3.865,-3.865 -9.004,-5.994 -14.471,-5.994 -5.467,0 -10.605,2.129 -14.471,5.994 l -59.316,59.316 -59.316,-59.316 c -3.865,-3.865 -9.004,-5.994 -14.471,-5.994 -5.467,0 -10.606,2.129 -14.471,5.994 l -38.36,38.36 c -7.979,7.979 -7.979,20.962 0,28.943 l 59.316,59.316 -59.316,59.316 c -7.979,7.979 -7.979,20.962 0,28.943 l 38.36,38.36 c 3.865,3.865 9.004,5.993 14.471,5.993 5.467,0 10.606,-2.129 14.471,-5.993 l 59.316,-59.316 59.316,59.316 c 3.865,3.865 9.004,5.993 14.471,5.993 5.467,0 10.605,-2.129 14.471,-5.993 l 38.36,-38.36 c 3.866,-3.865 5.995,-9.004 5.995,-14.471 0,-5.467 -2.129,-10.607 -5.995,-14.471 l -59.315,-59.316 59.315,-59.315 c 3.866,-3.869 5.995,-9.007 5.995,-14.474 z m -17.774,2.692 -65.204,65.206 c -3.253,3.253 -3.253,8.527 0,11.778 l 65.204,65.207 c 0.971,0.971 1.115,2.103 1.115,2.692 0,0.589 -0.144,1.721 -1.115,2.692 l -38.36,38.36 c -0.971,0.971 -2.103,1.115 -2.692,1.115 -0.589,0 -1.722,-0.144 -2.692,-1.115 L 261.89,305.634 c -1.626,-1.626 -3.758,-2.44 -5.889,-2.44 -2.131,0 -4.263,0.813 -5.889,2.44 l -65.206,65.206 c -0.971,0.971 -2.103,1.115 -2.692,1.115 -0.59,0 -1.722,-0.144 -2.693,-1.115 l -38.36,-38.36 c -1.484,-1.485 -1.484,-3.9 0,-5.385 l 65.206,-65.206 c 3.253,-3.253 3.253,-8.527 0,-11.778 l -65.206,-65.206 c -1.484,-1.485 -1.484,-3.9 0,-5.385 l 38.359,-38.36 c 0.971,-0.971 2.104,-1.115 2.693,-1.115 0.589,0 1.722,0.144 2.692,1.115 l 65.206,65.206 c 3.253,3.253 8.527,3.253 11.778,0 l 65.206,-65.206 c 0.971,-0.971 2.103,-1.115 2.692,-1.115 0.589,0 1.722,0.144 2.692,1.115 l 38.36,38.36 c 0.971,0.971 1.115,2.103 1.115,2.692 0,0.589 -0.143,1.722 -1.114,2.693 z"
       inkscape:connector-curvature="0" />
    <path
       id="path1001"
       d="m 423.9,73.756 c -3.229,3.276 -3.191,8.55 0.086,11.778 46.016,45.349 71.358,105.89 71.358,170.466 0,63.931 -24.896,124.035 -70.102,169.241 -45.206,45.206 -105.31,70.102 -169.241,70.102 -35.385,0 -69.471,-7.555 -101.311,-22.455 -4.166,-1.95 -9.124,-0.153 -11.074,4.013 -1.95,4.166 -0.153,9.124 4.013,11.074 34.066,15.942 70.527,24.025 108.37,24.025 68.381,0 132.668,-26.629 181.019,-74.982 48.352,-48.352 74.98,-112.64 74.98,-181.019 0,-69.072 -27.106,-133.825 -76.323,-182.331 -3.274,-3.228 -8.547,-3.19 -11.775,0.088 z"
       inkscape:connector-curvature="0" />
    <path
       id="path1003"
       d="m 116.34,470.563 c 1.405,0.916 2.982,1.354 4.542,1.354 2.72,0 5.387,-1.332 6.984,-3.78 2.513,-3.852 1.427,-9.013 -2.426,-11.526 C 57.325,412.187 16.66,337.192 16.66,256 c 0,-63.931 24.896,-124.035 70.102,-169.24 45.206,-45.206 105.31,-70.102 169.241,-70.102 52.234,0 101.864,16.528 143.525,47.796 3.679,2.761 8.9,2.017 11.66,-1.662 2.761,-3.679 2.017,-8.9 -1.662,-11.661 C 364.958,17.681 311.87,0 256.002,0 187.622,0 123.334,26.629 74.983,74.98 26.63,123.333 0.001,187.62 0.001,255.999 c 0,86.842 43.492,167.052 116.339,214.564 z"
       inkscape:connector-curvature="0" />
    <g
       id="g1005">
</g>
    <g
       id="g1007">
</g>
    <g
       id="g1009">
</g>
    <g
       id="g1011">
</g>
    <g
       id="g1013">
</g>
    <g
       id="g1015">
</g>
    <g
       id="g1017">
</g>
    <g
       id="g1019">
</g>
    <g
       id="g1021">
</g>
    <g
       id="g1023">
</g>
    <g
       id="g1025">
</g>
    <g
       id="g1027">
</g>
    <g
       id="g1029">
</g>
    <g
       id="g1031">
</g>
    <g
       id="g1033">
</g>
  </g>
</svg>
