<svg height="512" viewBox="0 0 64 64" width="512" xmlns="http://www.w3.org/2000/svg"><g id="coronavirus-covid19-corona-cough-breath"><path d="m55 29v5a5 5 0 0 1 -5 5v22h-20v-6h-3a4 4 0 0 1 -4-4v-2h6a4 4 0 0 0 0-8h-6v-3h-4l4-11v-8a4 4 0 0 1 4-4h17a4 4 0 0 1 4 4v8h5a2.006 2.006 0 0 1 2 2z" fill="#ffa791"/><path d="m46 19v8h2v-8a4 4 0 0 0 -4-4h-2a4 4 0 0 1 4 4z" fill="#ff9478"/><path d="m53 27h-2a2.006 2.006 0 0 1 2 2v5a5 5 0 0 1 -5 5v22h2v-22a5 5 0 0 0 5-5v-5a2.006 2.006 0 0 0 -2-2z" fill="#ff9478"/><path d="m17 3v2a10 10 0 0 0 10 10h17a4 4 0 0 1 4 4v8h5a2 2 0 0 1 2 2v5a5 5 0 0 1 -5 5v16l6.058-4.406a12 12 0 0 0 4.942-9.705v-25.889a12 12 0 0 0 -12-12z" fill="#58595b"/><path d="m49 3h-2a12 12 0 0 1 12 12v25.889a12 12 0 0 1 -4.942 9.7l-4.058 2.956v1.455l6.058-4.406a12 12 0 0 0 4.942-9.705v-25.889a12 12 0 0 0 -12-12z" fill="#4f5052"/><path d="m39 34a2 2 0 0 0 4 0c0-1.1-2-4-2-4s-2 2.9-2 4z" fill="#2488ff"/><circle cx="7" cy="11" fill="#d80027" r="2"/><circle cx="13" cy="24" fill="#d80027" r="2"/><circle cx="7" cy="35" fill="#d80027" r="2"/><circle cx="15" cy="45" fill="#d80027" r="2"/><circle cx="7" cy="55" fill="#d80027" r="2"/><g fill="#231f20"><path d="m11 54h-1.184a2.746 2.746 0 0 0 -.117-.285l.836-.837a1 1 0 0 0 -1.414-1.414l-.836.837a2.746 2.746 0 0 0 -.285-.117v-1.184a1 1 0 0 0 -2 0v1.184a2.746 2.746 0 0 0 -.285.117l-.836-.837a1 1 0 0 0 -1.414 1.414l.836.837a2.746 2.746 0 0 0 -.117.285h-1.184a1 1 0 0 0 0 2h1.184a2.746 2.746 0 0 0 .117.285l-.836.837a1 1 0 1 0 1.414 1.414l.836-.837a2.746 2.746 0 0 0 .285.117v1.184a1 1 0 0 0 2 0v-1.184a2.746 2.746 0 0 0 .285-.117l.836.837a1 1 0 0 0 1.414-1.414l-.835-.837a2.746 2.746 0 0 0 .116-.285h1.184a1 1 0 0 0 0-2zm-5 1a1 1 0 1 1 1 1 1 1 0 0 1 -1-1z"/><path d="m19 44h-1.184a2.746 2.746 0 0 0 -.117-.285l.836-.837a1 1 0 0 0 -1.414-1.414l-.836.837a2.746 2.746 0 0 0 -.285-.117v-1.184a1 1 0 0 0 -2 0v1.184a2.746 2.746 0 0 0 -.285.117l-.836-.837a1 1 0 0 0 -1.414 1.414l.836.837a2.746 2.746 0 0 0 -.117.285h-1.184a1 1 0 0 0 0 2h1.184a2.746 2.746 0 0 0 .117.285l-.836.837a1 1 0 1 0 1.414 1.414l.836-.837a2.746 2.746 0 0 0 .285.117v1.184a1 1 0 0 0 2 0v-1.184a2.746 2.746 0 0 0 .285-.117l.836.837a1 1 0 0 0 1.414-1.414l-.836-.837a2.746 2.746 0 0 0 .117-.285h1.184a1 1 0 0 0 0-2zm-5 1a1 1 0 1 1 1 1 1 1 0 0 1 -1-1z"/><path d="m3 36h1.184a2.746 2.746 0 0 0 .117.285l-.836.837a1 1 0 1 0 1.414 1.414l.836-.837a2.746 2.746 0 0 0 .285.117v1.184a1 1 0 0 0 2 0v-1.184a2.746 2.746 0 0 0 .285-.117l.836.837a1 1 0 0 0 1.414-1.414l-.835-.837a2.746 2.746 0 0 0 .116-.285h1.184a1 1 0 0 0 0-2h-1.184a2.746 2.746 0 0 0 -.117-.285l.836-.837a1 1 0 0 0 -1.414-1.414l-.836.837a2.746 2.746 0 0 0 -.285-.117v-1.184a1 1 0 0 0 -2 0v1.184a2.746 2.746 0 0 0 -.285.117l-.836-.837a1 1 0 0 0 -1.414 1.414l.836.837a2.746 2.746 0 0 0 -.117.285h-1.184a1 1 0 0 0 0 2zm5-1a1 1 0 1 1 -1-1 1 1 0 0 1 1 1z"/><path d="m12 21.184a2.746 2.746 0 0 0 -.285.117l-.836-.837a1 1 0 0 0 -1.414 1.414l.836.837a2.746 2.746 0 0 0 -.117.285h-1.184a1 1 0 0 0 0 2h1.184a2.746 2.746 0 0 0 .117.285l-.836.837a1 1 0 1 0 1.414 1.414l.836-.837a2.746 2.746 0 0 0 .285.117v1.184a1 1 0 0 0 2 0v-1.184a2.746 2.746 0 0 0 .285-.117l.836.837a1 1 0 0 0 1.414-1.414l-.836-.837a2.746 2.746 0 0 0 .117-.285h1.184a1 1 0 0 0 0-2h-1.184a2.746 2.746 0 0 0 -.117-.285l.836-.837a1 1 0 0 0 -1.414-1.414l-.836.837a2.746 2.746 0 0 0 -.285-.117v-1.184a1 1 0 0 0 -2 0zm2 2.816a1 1 0 1 1 -1-1 1 1 0 0 1 1 1z"/><path d="m3 12h1.184a2.746 2.746 0 0 0 .117.285l-.836.837a1 1 0 1 0 1.414 1.414l.836-.837a2.746 2.746 0 0 0 .285.117v1.184a1 1 0 0 0 2 0v-1.184a2.746 2.746 0 0 0 .285-.117l.836.837a1 1 0 0 0 1.414-1.414l-.835-.837a2.746 2.746 0 0 0 .116-.285h1.184a1 1 0 0 0 0-2h-1.184a2.746 2.746 0 0 0 -.116-.285l.836-.837a1 1 0 0 0 -1.415-1.414l-.836.836a2.746 2.746 0 0 0 -.285-.116v-1.184a1 1 0 0 0 -2 0v1.184a2.746 2.746 0 0 0 -.285.117l-.836-.837a1 1 0 1 0 -1.414 1.414l.836.837a2.746 2.746 0 0 0 -.117.285h-1.184a1 1 0 0 0 0 2zm5-1a1 1 0 1 1 -1-1 1 1 0 0 1 1 1z"/><path d="m32.857 23.485a1 1 0 0 0 -1.372-.342l-5 3a1 1 0 0 0 0 1.714l5 3a1 1 0 0 0 1.03-1.714l-3.572-2.143 3.572-2.143a1 1 0 0 0 .342-1.372z"/><path d="m49 2h-32a1 1 0 0 0 -1 1v2a11.016 11.016 0 0 0 7.52 10.43 4.929 4.929 0 0 0 -1.52 3.57v7.82l-3.94 10.84a.985.985 0 0 0 .12.91 1 1 0 0 0 .82.43h3v2a1 1 0 0 0 1 1h6a3 3 0 0 1 0 6h-6a1 1 0 0 0 -1 1v2a5 5 0 0 0 5 5h2v5a1 1 0 0 0 1 1h20a1 1 0 0 0 1-1v-5.49l5.65-4.11a13.045 13.045 0 0 0 5.35-10.51v-25.89a13.012 13.012 0 0 0 -13-13zm1 36h-2a1 1 0 0 0 0 2h1v20h-18v-4h5a1 1 0 0 0 0-2h-9a3.009 3.009 0 0 1 -3-3v-1h5a5 5 0 0 0 0-10h-5v-2a1 1 0 0 0 -1-1h-2.57l3.51-9.66a.974.974 0 0 0 .06-.34v-8a3.009 3.009 0 0 1 3-3h17a3.009 3.009 0 0 1 3 3v8a1 1 0 0 0 1 1h5a1 1 0 0 1 1 1v5a4 4 0 0 1 -4 4zm10 2.89a11.037 11.037 0 0 1 -4.53 8.9l-4.47 3.25v-13.13a6.007 6.007 0 0 0 5-5.91v-5a3.009 3.009 0 0 0 -3-3h-4v-7a5 5 0 0 0 -5-5h-17a9.014 9.014 0 0 1 -9-9v-1h31a11.007 11.007 0 0 1 11 11z"/><path d="m40.177 29.432c-.655.947-2.177 3.29-2.177 4.568a3 3 0 0 0 6 0c0-1.278-1.522-3.621-2.177-4.568a1.038 1.038 0 0 0 -1.646 0zm.823 5.568a1 1 0 0 1 -1-1 7.515 7.515 0 0 1 1-2.147 7.443 7.443 0 0 1 1 2.147 1 1 0 0 1 -1 1z"/></g></g></svg>