<?xml version="1.0" encoding="iso-8859-1"?>
<!-- Generator: Adobe Illustrator 19.0.0, SVG Export Plug-In . SVG Version: 6.00 Build 0)  -->
<svg version="1.1" id="Layer_1" xmlns="http://www.w3.org/2000/svg" xmlns:xlink="http://www.w3.org/1999/xlink" x="0px" y="0px"
	 viewBox="0 0 512.001 512.001" style="enable-background:new 0 0 512.001 512.001;" xml:space="preserve">
<path style="fill:#0096DC;" d="M246.859,267.026l-44.109-11.027H78.5l-44.11,11.027c-15.803,3.951-26.89,18.15-26.89,34.44v176.408
	h266.25V301.467C273.75,285.176,262.663,270.977,246.859,267.026z"/>
<path style="fill:#B48764;" d="M246.859,267.026l-27.931-6.982c-5.428,13.258-26.161,57.387-73.184,90.131
	c-3.034,2.112-7.204,2.112-10.238,0c-47.023-32.745-67.756-76.873-73.184-90.131l-27.932,6.983
	c-15.803,3.951-26.89,18.15-26.89,34.44v176.408h266.25V301.467C273.75,285.176,262.663,270.976,246.859,267.026z"/>
<rect x="96.25" y="211.621" style="fill:#D29B6E;" width="88.75" height="53.25"/>
<path style="fill:#F0C087;" d="M220.5,122.874V96.249c0-34.311-27.815-62.125-62.125-62.125h-35.5
	c-34.31,0-62.125,27.814-62.125,62.125v26.625c-9.803,0-17.75,7.947-17.75,17.75s7.947,17.75,17.75,17.75
	c0,44.114,35.761,79.875,79.875,79.875s79.875-35.761,79.875-79.875c9.803,0,17.75-7.947,17.75-17.75S230.303,122.874,220.5,122.874
	z"/>
<path style="fill:#E6AF78;" d="M105.125,158.374V96.249c0-32.813,25.457-59.617,57.688-61.901c-1.472-0.105-2.939-0.224-4.438-0.224
	h-35.5c-34.31,0-62.125,27.814-62.125,62.125v26.625c-9.803,0-17.75,7.947-17.75,17.75s7.947,17.75,17.75,17.75
	c0,44.114,35.761,79.875,79.875,79.875c7.708,0,15.136-1.151,22.188-3.188C129.506,225.438,105.125,194.78,105.125,158.374z"/>
<g>
	<path style="fill:#D5DCED;" d="M78.5,71.843c0-9.803-7.947-17.75-17.75-17.75S43,62.039,43,71.843c0,3.616,1.094,6.971,2.951,9.776
		c-9.358,2.605-16.264,11.098-16.264,21.286c0,12.254,9.933,22.188,22.188,22.188s22.188-9.934,22.188-22.188
		c0-5.794-2.273-11.024-5.91-14.975C74.247,85.118,78.5,78.994,78.5,71.843z"/>
	<path style="fill:#D5DCED;" d="M202.75,71.843c0-9.803,7.947-17.75,17.75-17.75s17.75,7.947,17.75,17.75
		c0,3.616-1.094,6.971-2.951,9.776c9.358,2.605,16.264,11.098,16.264,21.286c0,12.254-9.933,22.188-22.188,22.188
		s-22.188-9.934-22.188-22.188c0-5.794,2.273-11.024,5.91-14.975C207.003,85.118,202.75,78.994,202.75,71.843z"/>
</g>
<g>
	<path style="fill:#0096DC;" d="M47.753,314.002l-33.388-33.388C10.057,286.529,7.5,293.74,7.5,301.466v176.409h53.25V345.38
		C60.75,333.611,56.075,322.324,47.753,314.002z"/>
	<path style="fill:#0096DC;" d="M233.497,314.002l33.388-33.388c4.308,5.915,6.865,13.126,6.865,20.852v176.409H220.5V345.38
		C220.5,333.611,225.175,322.324,233.497,314.002z"/>
</g>
<g>
	<path style="fill:#00AAF0;" d="M87.375,238.249l53.25,26.625l-19.751,26.335c-3.481,4.641-10.406,4.749-14.03,0.219L78.5,255.999
		L87.375,238.249z"/>
	<path style="fill:#00AAF0;" d="M193.875,238.249l-53.25,26.625l19.751,26.335c3.481,4.641,10.406,4.749,14.03,0.219l28.343-35.429
		L193.875,238.249z"/>
</g>
<g>
	<path style="fill:#C7CFE2;" d="M442.375,247.124c14.705,0,26.625,11.92,26.625,26.625c0,0.542-0.127,1.048-0.159,1.581
		c10.399,3.623,17.909,13.409,17.909,25.044c0,14.705-11.92,26.625-26.625,26.625H415.75v-53.25
		C415.75,259.044,427.67,247.124,442.375,247.124z"/>
	<path style="fill:#C7CFE2;" d="M318.125,247.124c-14.705,0-26.625,11.92-26.625,26.625c0,0.542,0.127,1.048,0.159,1.581
		c-10.399,3.623-17.909,13.409-17.909,25.044c0,14.705,11.92,26.625,26.625,26.625h44.375v-53.25
		C344.75,259.044,332.83,247.124,318.125,247.124z"/>
</g>
<path style="fill:#966D50;" d="M476.605,324.716l-49.698-19.879c-5.054-2.022-8.802-6.199-10.362-11.223l-0.795-19.865h-71
	l-0.796,19.865c-1.558,5.024-5.308,9.201-10.362,11.223l-49.698,19.879C267.047,331.455,256,347.772,256,365.917v111.961
	l248.5-0.004V365.917C504.5,347.772,493.453,331.455,476.605,324.716z"/>
<path style="fill:#FFDC64;" d="M476.605,324.713l-38.835-15.534c-13.839,16.312-34.456,26.692-57.521,26.692
	c-23.066,0-43.682-10.38-57.52-26.692l-38.835,15.534C267.047,331.451,256,347.769,256,365.914v111.96l248.5-0.003V365.914
	C504.5,347.769,493.453,331.452,476.605,324.713z"/>
<circle style="fill:#D5DCED;" cx="380.25" cy="167.251" r="97.62"/>
<path style="fill:#C7CFE2;" d="M344.75,167.249c0-43.044,27.893-79.506,66.563-92.492c-9.768-3.28-20.19-5.133-31.063-5.133
	c-53.917,0-97.625,43.708-97.625,97.625s43.708,97.625,97.625,97.625c10.873,0,21.295-1.853,31.063-5.133
	C372.643,246.755,344.75,210.293,344.75,167.249z"/>
<path style="fill:#C39772;" d="M380.25,300.374L380.25,300.374c-44.114,0-79.875-35.761-79.875-79.875v-18.666
	c0-9.454,5.074-18.123,13.208-22.941c11.866-7.03,21.006-16.652,26.234-22.943c2.811-3.382,7.707-4.193,11.351-1.731
	c44.471,30.046,108.957,23.574,108.957,57.407v8.875C460.125,264.613,424.364,300.374,380.25,300.374z"/>
<path style="fill:#B48764;" d="M344.75,220.499v-67.458c-1.865,0.394-3.631,1.341-4.933,2.908
	c-5.228,6.291-14.368,15.913-26.234,22.943c-8.134,4.819-13.208,13.487-13.208,22.941v15.806c0,36.682,23.613,70.192,58.99,79.892
	c15.252,4.182,29.828,3.482,43.073-0.345C369.13,287.563,344.75,256.905,344.75,220.499z"/>
<g>
	<path style="fill:#FFFFFF;" d="M415.75,198.311c-7.345,0-13.313,5.967-13.313,13.313s5.967,13.313,13.313,13.313
		s13.313-5.967,13.313-13.313S423.095,198.311,415.75,198.311z"/>
	<path style="fill:#FFFFFF;" d="M344.75,198.311c-7.345,0-13.313,5.967-13.313,13.313s5.967,13.313,13.313,13.313
		s13.313-5.967,13.313-13.313S352.095,198.311,344.75,198.311z"/>
</g>
<g>
	<path style="fill:#FFC850;" d="M300.375,380.249l-37.646-37.646c-4.255,6.871-6.729,14.868-6.729,23.311v111.96l44.375-0.001
		V380.249z"/>
	<path style="fill:#FFC850;" d="M460.125,380.249l37.646-37.646c4.255,6.871,6.729,14.868,6.729,23.311v111.96l-44.375-0.001
		V380.249z"/>
	<path style="fill:#FFC850;" d="M380.25,371.374c38.467,0,72.445-18.899,93.407-47.841l-35.887-14.355
		c-13.839,16.312-34.456,26.692-57.521,26.692s-43.682-10.38-57.521-26.692l-35.887,14.355
		C307.805,352.475,341.783,371.374,380.25,371.374z"/>
</g>
<path d="M250.681,274.825c0.726,0.22,1.458,0.325,2.179,0.325c3.217,0,6.192-2.087,7.174-5.326c1.202-3.964-1.037-8.151-5.001-9.354
	l-49.108-14.892l-5.342-10.684c-1.665-3.331-5.472-4.872-8.916-3.805v-1.859c20.336-14.691,34.137-37.895,36.094-64.352
	c9.53-2.663,17.029-10.412,18.599-20.072c0.991-6.093-0.303-12.092-3.265-17.078c9.48-4.963,15.968-14.893,15.968-26.314
	c0-10.358-5.489-19.796-14.024-25.113c0.471-1.936,0.712-3.931,0.712-5.949c0-13.923-11.327-25.25-25.25-25.25
	c-3.34,0-6.528,0.658-9.448,1.841c-14.453-13.13-32.959-20.32-52.677-20.32h-35.5c-19.631,0-38.214,7.202-52.679,20.319
	c-2.92-1.183-6.107-1.84-9.446-1.84c-13.923,0-25.25,11.327-25.25,25.25c0,2.019,0.241,4.014,0.712,5.949
	c-8.536,5.317-14.024,14.755-14.024,25.113c0,11.415,6.48,21.339,15.95,26.305c-2.955,4.969-4.242,10.966-3.247,17.087
	c1.57,9.66,9.069,17.409,18.599,20.072c1.953,26.421,15.72,49.596,36.01,64.29v1.893c-3.422-1.016-7.181,0.529-8.833,3.832
	l-5.338,10.675l-51.01,15.303C9.773,265.236,0,278.372,0,293.559v184.315c0,4.142,3.358,7.5,7.5,7.5s7.5-3.358,7.5-7.5V293.559
	c0-0.55,0.025-1.094,0.07-1.634l29.979,29.979c5.289,5.289,8.201,12.32,8.201,19.799v136.17c0,4.142,3.358,7.5,7.5,7.5
	s7.5-3.358,7.5-7.5v-136.17c0-11.486-4.473-22.284-12.595-30.406l-33.028-33.028c1.768-1.32,3.781-2.363,6.003-3.029l33.791-10.137
	c2.646,7.437,22.296,58.513,74.044,93.011c1.26,0.84,2.71,1.26,4.16,1.26s2.9-0.42,4.16-1.26
	c53.481-35.654,72.559-88.359,74.129-92.922L250.681,274.825z M190.521,248.312l3.375,6.75l-25.345,31.682
	c-0.348,0.435-0.766,0.524-1.096,0.516c-0.307-0.005-0.744-0.104-1.078-0.55l-14.359-19.146L190.521,248.312z M230.75,70.353
	c0,2.002-0.59,3.951-1.705,5.636c-1.325,2.001-1.612,4.515-0.772,6.763s2.704,3.958,5.015,4.602
	c6.344,1.766,10.775,7.548,10.775,14.061c0,8.099-6.589,14.688-14.688,14.688s-14.688-6.589-14.688-14.688
	c0-3.629,1.395-7.144,3.928-9.896c1.624-1.764,2.306-4.198,1.836-6.549s-2.036-4.336-4.212-5.34
	c-3.638-1.679-5.989-5.32-5.989-9.277c0-5.652,4.598-10.25,10.25-10.25S230.75,64.701,230.75,70.353z M47.962,87.355
	c2.312-0.644,4.176-2.354,5.015-4.602s0.552-4.762-0.772-6.763c-1.115-1.685-1.705-3.634-1.705-5.636
	c0-5.652,4.598-10.25,10.25-10.25S71,64.701,71,70.353c0,3.957-2.351,7.599-5.989,9.277c-2.177,1.004-3.743,2.989-4.212,5.34
	c-0.47,2.351,0.212,4.785,1.836,6.549c2.533,2.752,3.928,6.267,3.928,9.896c0,8.099-6.589,14.688-14.688,14.688
	s-14.688-6.589-14.688-14.688C37.188,94.903,41.618,89.121,47.962,87.355z M68.25,158.374c0-4.142-3.358-7.5-7.5-7.5
	c-5.516,0-10.269-3.643-11.054-8.474c-0.895-5.504,2.473-10.567,7.833-11.775c0.29-0.065,0.569-0.151,0.843-0.247
	c13.254-2.972,23.19-14.825,23.19-28.962c0-4.587-1.076-9.066-3.104-13.125C83.19,83.622,86,77.182,86,70.353
	c0-5.063-1.504-9.78-4.08-13.737c11.447-9.69,25.814-14.992,40.955-14.992h35.5c15.208,0,29.532,5.276,40.967,14.974
	c-2.584,3.961-4.092,8.684-4.092,13.755c0,6.829,2.81,13.269,7.542,17.938c-2.029,4.059-3.104,8.538-3.104,13.125
	c0,14.422,10.34,26.47,23.995,29.134c0.23,0.094,0.466,0.179,0.709,0.251c4.289,1.281,8.126,5.676,7.163,11.6
	c-0.785,4.831-5.538,8.474-11.054,8.474c-4.142,0-7.5,3.358-7.5,7.5c0,39.908-32.467,72.375-72.375,72.375
	S68.25,198.282,68.25,158.374z M140.625,245.749c12.844,0,25.047-2.791,36.042-7.79v0.509l-36.042,18.021L104.5,238.427v-0.503
	C115.516,242.946,127.749,245.749,140.625,245.749z M88.353,253.063l2.376-4.751l38.504,19.252l-14.359,19.146
	c-0.334,0.446-0.771,0.545-1.078,0.55c-0.328,0.026-0.748-0.081-1.096-0.516l-25.145-31.431
	C87.938,254.613,88.207,253.854,88.353,253.063z M140.625,342.77c-33.576-23.863-51.647-55.094-59.327-71.267l19.689,24.611
	c3.133,3.916,7.778,6.146,12.779,6.146c0.088,0,0.176-0.001,0.264-0.002c5.101-0.08,9.782-2.467,12.843-6.548l6.251-8.335v30.75
	c0,4.142,3.358,7.5,7.5,7.5s7.5-3.358,7.5-7.5v-30.75l6.251,8.335c3.061,4.082,7.742,6.468,12.843,6.548
	c0.088,0.001,0.176,0.002,0.264,0.002c5.001,0,9.646-2.23,12.779-6.146l19.749-24.687
	C192.392,287.556,174.375,318.796,140.625,342.77z"/>
<path d="M164.2,189.724c2.609-3.217,2.117-7.94-1.1-10.549c-3.217-2.61-7.94-2.117-10.549,1.1c-3.19,3.934-7.425,6.1-11.925,6.1
	s-8.735-2.166-11.925-6.1c-2.608-3.217-7.332-3.709-10.549-1.1c-3.217,2.609-3.709,7.332-1.1,10.549
	c6.005,7.404,14.598,11.65,23.575,11.65S158.194,197.127,164.2,189.724z"/>
<path d="M105.125,133.124c-4.142,0-7.5,3.358-7.5,7.5v8.875c0,4.142,3.358,7.5,7.5,7.5s7.5-3.358,7.5-7.5v-8.875
	C112.625,136.482,109.267,133.124,105.125,133.124z"/>
<path d="M176.125,156.999c4.142,0,7.5-3.358,7.5-7.5v-8.875c0-4.142-3.358-7.5-7.5-7.5s-7.5,3.358-7.5,7.5v8.875
	C168.625,153.641,171.983,156.999,176.125,156.999z"/>
<path d="M252.428,295.071c-2.929-2.929-7.678-2.929-10.606,0l-16.227,16.227C217.473,319.42,213,330.218,213,341.704v136.17
	c0,4.142,3.358,7.5,7.5,7.5s7.5-3.358,7.5-7.5v-136.17c0-7.479,2.913-14.511,8.201-19.799l16.227-16.227
	C255.357,302.749,255.357,298,252.428,295.071z"/>
<path d="M380.25,263.499c8.977,0,17.569-4.247,23.575-11.65c2.609-3.217,2.117-7.94-1.1-10.549c-3.217-2.61-7.941-2.117-10.549,1.1
	c-3.19,3.934-7.425,6.1-11.925,6.1s-8.735-2.166-11.925-6.1c-2.608-3.217-7.332-3.709-10.549-1.1s-3.709,7.332-1.1,10.549
	C362.681,259.252,371.273,263.499,380.25,263.499z"/>
<path d="M300.375,372.749c-4.142,0-7.5,3.358-7.5,7.5v97.625c0,4.142,3.358,7.5,7.5,7.5s7.5-3.358,7.5-7.5v-97.625
	C307.875,376.107,304.517,372.749,300.375,372.749z"/>
<path d="M460.125,372.749c-4.142,0-7.5,3.358-7.5,7.5v97.625c0,4.142,3.358,7.5,7.5,7.5s7.5-3.358,7.5-7.5v-97.625
	C467.625,376.107,464.267,372.749,460.125,372.749z"/>
<path d="M486.928,321.496c4.685-5.942,7.322-13.349,7.322-21.122c0-12.639-6.932-23.95-17.779-29.834
	c0.02-0.41,0.029-0.819,0.029-1.228c0-9.749-4.72-18.673-12.425-24.165c0.51-1.73,0.984-3.472,1.384-5.236
	c0.972-4.283,1.592-8.809,1.883-13.769c11.805-17.418,18.033-37.738,18.033-58.893c0-57.966-47.159-105.125-105.125-105.125
	s-105.125,47.159-105.125,105.125c0,21.157,6.229,41.477,18.034,58.894c0.291,4.963,0.911,9.488,1.882,13.767
	c0.4,1.763,0.874,3.505,1.384,5.236C288.72,250.638,284,259.562,284,269.312c0,0.409,0.01,0.818,0.029,1.228
	c-10.848,5.884-17.779,17.196-17.779,29.834c0,7.773,2.638,15.18,7.322,21.122c-15.456,9.274-25.072,25.933-25.072,44.421v111.961
	c0,4.142,3.358,7.5,7.5,7.5c4.142,0,7.5-3.358,7.5-7.5V365.917c0-15.166,9.099-28.605,23.18-34.238l1.435-0.574
	c22.183,29.98,56.357,47.769,92.136,47.769c36.268,0,69.693-17.379,92.129-47.771l1.441,0.576
	c14.082,5.633,23.18,19.072,23.18,34.238v111.957c0,4.142,3.358,7.5,7.5,7.5s7.5-3.358,7.5-7.5V365.917
	C512,347.429,502.384,330.77,486.928,321.496z M461.5,269.312c0,1.109-0.19,2.327-0.6,3.832c-1.055,3.879,1.136,7.9,4.968,9.116
	c8.004,2.541,13.382,9.82,13.382,18.114c0,5.669-2.508,10.989-6.789,14.607l-42.769-17.108c-1.54-0.616-2.87-1.585-3.924-2.799
	c3.255-1.984,6.39-4.18,9.372-6.59c9.635-7.788,17.475-17.552,23.034-28.48C460.28,262.574,461.5,265.834,461.5,269.312z
	 M348.36,301.822c10.102,3.957,20.928,6.052,31.89,6.052s21.788-2.095,31.89-6.052c2.663,4.237,6.544,7.602,11.228,9.652
	c-11.661,10.825-26.915,16.899-43.119,16.899c-16.187,0-31.449-6.079-43.114-16.901C341.819,309.422,345.698,306.057,348.36,301.822
	z M290.125,167.249c0-49.695,40.43-90.125,90.125-90.125s90.125,40.43,90.125,90.125c0,12.641-2.597,24.93-7.593,36.272
	c-10.806-23.253-34.824-29.769-58.189-36.091c-18.889-5.111-38.421-10.397-55.159-23.787c-1.769-1.415-4.084-1.956-6.294-1.469
	c-2.212,0.486-4.086,1.945-5.099,3.971c-0.078,0.155-7.935,15.603-23.271,23.271c-3.705,1.852-5.207,6.357-3.354,10.062
	c1.852,3.705,6.356,5.208,10.062,3.354c12.207-6.104,20.618-15.796,25.36-22.506c17.47,11.742,36.666,16.937,53.837,21.583
	c5.636,1.525,10.823,2.971,15.564,4.478c-0.164-0.003-0.326-0.012-0.49-0.012c-9.14,0-17.161,4.881-21.593,12.174
	c-4.146-2.134-8.905-3.299-13.906-3.299c-5.002,0-9.762,1.165-13.907,3.299c-4.433-7.292-12.454-12.174-21.593-12.174
	c-13.923,0-25.25,11.327-25.25,25.25s11.327,25.25,25.25,25.25c12.976,0,23.693-9.84,25.091-22.45
	c2.447-2.604,6.273-4.175,10.409-4.175c4.135,0,7.961,1.571,10.408,4.175c1.398,12.61,12.115,22.45,25.091,22.45
	c13.923,0,25.25-11.327,25.25-25.25c0-7.294-3.112-13.872-8.074-18.485c10.726,5.845,17.323,14.005,19.768,28.417
	c-0.126,0.503-0.206,1.025-0.226,1.564c-0.179,5.001-0.715,9.407-1.637,13.471c-3.57,15.733-12.492,30.019-25.121,40.228
	c-12.995,10.504-28.714,16.056-45.46,16.056s-32.466-5.552-45.46-16.056c-12.629-10.208-21.55-24.495-25.121-40.228
	c-0.92-4.056-1.456-8.458-1.636-13.458c-0.072-1.986-0.911-3.769-2.227-5.067C295.542,203.066,290.125,185.524,290.125,167.249z
	 M426,211.624c0,5.652-4.598,10.25-10.25,10.25s-10.25-4.598-10.25-10.25s4.598-10.25,10.25-10.25S426,205.972,426,211.624z
	 M344.75,221.874c-5.652,0-10.25-4.598-10.25-10.25s4.598-10.25,10.25-10.25s10.25,4.598,10.25,10.25
	S350.402,221.874,344.75,221.874z M294.632,282.26c3.832-1.216,6.022-5.237,4.968-9.116c-0.41-1.505-0.6-2.723-0.6-3.832
	c0-3.478,1.22-6.738,3.326-9.308c5.559,10.929,13.399,20.692,23.034,28.48c2.982,2.41,6.116,4.607,9.372,6.59
	c-1.054,1.214-2.385,2.183-3.925,2.799l-42.768,17.107c-4.281-3.618-6.788-8.938-6.788-14.607
	C281.25,292.08,286.628,284.801,294.632,282.26z M380.25,363.874c-30.23,0-58.166-13.965-77.672-38.554l19.46-7.783
	c14.887,16.476,35.845,25.837,58.213,25.837c22.389,0,43.325-9.358,58.211-25.838l19.467,7.787
	C438.414,349.904,410.431,363.874,380.25,363.874z"/>
<g>
</g>
<g>
</g>
<g>
</g>
<g>
</g>
<g>
</g>
<g>
</g>
<g>
</g>
<g>
</g>
<g>
</g>
<g>
</g>
<g>
</g>
<g>
</g>
<g>
</g>
<g>
</g>
<g>
</g>
</svg>
