<svg id="Capa_1" enable-background="new 0 0 512 512" height="512" viewBox="0 0 512 512" width="512" xmlns="http://www.w3.org/2000/svg"><g><g><path d="m169.061 455.132c-.582-.77-1.868-2.392-2.477-3.172-15.179 9.39-38.258 11.703-53.366 2.216 16.365 6.677 37.067 7.118 52.746-2.99-11.182-15.803-6.398-31.267.947-47.253 1.002-3.729 1.434-12.749-4.529-12.988-1.443-.333-6.373 2.777-8.751 3.833-17.783 7.363-37.432 8.718-56.374 6.039-4.516-.636-8.052 4.259-4.868 8.759 2.273 3.412 5.686 5.464 7.783 8.929 9.408 13.249 26.232 20.505 43.258 23.896-14.774 0-28.646-8.406-39.399-17.387 4.585 28.53-17.4 27.55-13.368 41.24 2.446 6.704 65.329 12.82 71.58 15.267 18.35 4.489 16.714-17.391 6.818-26.389z" fill="#288fc9"/><path d="m449.263 212.6c-12.139-18.474-41.355-17.985-61.643-14.161-12.779 1.788-25.329 4.814-30.583 14.753-7.308 9.237 5.635 136.389 4.199 149.66-6.867 1.732-167.27 5.784-168.649 10.498-10.76 5.845-11.486 20.67-10.915 32.933-.009 22.908 9.448 42.003 34.623 36.902.537.41 58.875-6.214 58.909-4.811.238 1.457-60.419 5.452-60.886 6.001 2.085 9.687-2.076 52.667 5.223 59.865 3.006 7.368 129.606 1.1 137.041 2.717 18.764.972 31.527-6.724 29.403-26.183.001.001-.399-43.359-.399-43.359-7.373.342-14.761 2.162-23.765 1.046 57.441-.993 85.124-20.073 88.939-78.194 2.07-37.962 14.221-115.657-1.497-147.667zm-155.695 208.072c-2.234 20.077-21.406 36.953-5.411 55.013-18.447-14.444 2.921-37.405 4.42-55.088 1.097-11.915-7.316-22.217-16.767-27.519 10.863 2.521 18.533 16.482 17.758 27.594zm13.977.108c-.521 14.46-14.027 26.029-9.654 41.19.21.612-.718.96-.945.328-5.582-21.551 23.777-42.15.497-60.786-.419-.275-.085-.939.312-.894 6.422 4.348 10.055 12.448 9.79 20.162zm10.8 15.06c-3.804 7.741-5.692 16.883-4.523 25.114-6.183-14.424 8.867-29.29 8.658-43.852.109-7.031-3.784-15.254-11.202-16.641-.62-.076-.471-1.034.08-.994 16.305 4.258 12.96 24.781 6.987 36.373zm117.03-183.382c-.721 8.724-8.994 15.779-17.792 16.303-.48.524 3.095 31.587 1.503 31.418-.001.001-28.006-2.529-28.006-2.529-.338-.019-.554-.426-.391-.721l13.969-26.987c-12.757-.535-20.955-15.386-13.71-26.003 12.243-18.096 44.711-16.563 44.427 8.519z" fill="#f0f2fa"/><g fill="#ffdac4"><path d="m221.169 313.488-1.37-.932c-18.473 8.052-39.184 13.534-58.306 12.699 0-.001-2.565-5.618-2.565-5.618-7.751 1.904-47.364 19.466-54.854 17.099-3.408 20.943-4.355 42.315-2.788 63.473 20.192 2.663 41.394-.247 59.374-10.098l-.95-24.374c-8.403-2.014-18.488-2.827-25.639-6.285 22.054 4.881 45.896 8.938 68.865 10.288 1.192-.094 2.467-.168 3.608-.221l80.305-3.903c.165-.207.784-1.619 1.023-1.682 8.323-3.927 14.377-11.647 17.176-20.365-.128-.08-83.793-29.945-83.879-30.081z"/><path d="m174.711 166.379c17.65-1.559 29.96-25.23 43.368.408 8.567-6.16 25.184-14.68 34.54-19.649l-9.507-22.666-.287-1.364c-12.874-5.947-16.049-20.078-17.855-33.717-33.114 47.207-39.737 6.05-19.288-25.336-18.584 6.461-39.138 7.097-58.421 3.568-8.656 25.51-2.809 90.835 27.45 98.756z"/><path d="m107.671 336.048c3.284.809 46.708-16.229 50.845-17.324l-9.815-21.535c-18.013 1.201-35.297 11.513-44.668 26.879-2.793 3.876-4.166 12.052 3.638 11.98z"/></g><path d="m247.567 41.591c-.322-.196-.281-.719.065-.869 8.654-4.229 19.185-14.091 18.309-24.175-1.37-4.956-8.592-5.999-12.6-3.635-5.034 2.894-6.917 7.687-9.416 12.308-.852.843-1.16-.494-.618-1.018 4.48-6.464 4.477-18.147-4.117-20.121-4.643-.952-9.069 2.958-10.697 6.591-1.967 4.259-1.918 9.27-1.875 13.722.021.349-.419.636-.735.459-26.088-13.72-61.013-12.259-85.749 3.603-9.451 5.739-16.362 13.728-14.107 23.845 6.377 16.483 29.228 15.42 44.085 16.447 8.721-.001 17.405-.935 25.813-2.777 2.683-.647 7.118-3.137 8.314.816.787 2.673-2.521 6.567-3.839 9.206-3.315 8.275-11.443 30.837.845 33.75 10.679-2.483 19.061-14.176 23.691-23.746.197-.485.919-.327.958.16.936 15.196 5.633 36.65 24.822 37.726 10.156.638 17.557-12.368 18.8-17.412 8.336-23.443-1.086-51.325-21.949-64.88z" fill="#644c4c"/><path d="m166.481 483.044c-3.62-.162-66.285-11.186-70.266-11.946-.12.07-1.147.748-1.236.769-10.61 3.085-37.741 12.002-39.548 23.589 1.574 9.745 57.448 6.968 64.794 8.098 16.883-1.264 49.823 4.602 49.016-20.4z" fill="#644c4c"/><path d="m282.189 160.852c-19.868-26.139-34.828-8.949-55.518 1.567-7.824 3.239-13.084 10.549-12.615 19.165-1.096 15.059-2.332 29.833-3.536 44.215-1.154 13.615-2.526 30.35-3.647 45.52 27.873-20.149 44.774-53.192 48.845-86.453-2.122 55.725-51.45 104.619-107.022 109.928l13.581 29.767c53.16.237 103.481-34.551 128.527-78.328-13.962 28.415-40.22 51.868-70.082 66.069l89.309 31.995c25.032-60.377 14.059-133.258-27.842-183.445z" fill="#94c668"/><path d="m339.414 150.22c.503.355-11.933 48.803-11.835 49.222l52.227-52.587-18.217-12.388c-.214-.146-.286-.434-.162-.657l14.625-26.337-49.022-7.688-15.035 51.332c.327.186 27.241-1.481 27.419-.897z" fill="#d34242"/><path d="m403.637 268.433c.797.217 2.875-.856 2.653.528 0 0-14.374 27.767-14.374 27.767l26.673 2.404c.669-.6-3.801-33.313-.861-31.599 24.101-1.557 20.003-34.603-2.311-35.216-8.07.523-18.368 4.401-23.628 12.167-6.529 9.057.361 24.153 11.848 23.949z" fill="#bfc7d8"/></g><g><path d="m460.338 245.246c2.8-46.775-32.721-58.921-73.274-50.767-13.824 1.938-27.458 5.32-33.563 16.845-8.018 11.829 4.709 132.364 3.677 147.88l-59.405 2.886c4.408-3.89 7.859-8.826 9.956-14.369 16.419 5.22 22.984-86.966 17.579-99.332-4.08-30.895-32.983-109.198-69.982-105.14l-6.491-15.456c12.458 2.049 22.616-12.308 24.465-20.033 8.232-23.276.293-50.851-19.039-66.186 8.167-6.109 17.054-14.7 15.532-26.087-2.143-8.116-13.704-9.931-19.86-5.151-6.395-19.701-28.404-8.081-27.247 8.571-27.011-11.756-59.656-9.515-84.674 6.163-22.194 11.737-22.382 39.199 4.623 44.584-8.073 27.245-1.131 93.945 31.933 100.72 14.41.683 30.615-23.33 39.263-2.854-3.004 4.052-3.475 9.641-3.759 13.768-2.181 30.579-4.98 58.273-7.07 88.865-16.358 11.383-35.734 18.706-55.422 20.667-1.49.134-2.805 1.295-3.058 2.778-17.184 1.081-54.952 23.82-44.397 43.457-3.573 19.624-4.139 39.863-3.052 59.772-16.824 2.03-8.897 15.994-.655 23.308 5.691 8.065 5.399 20.437-1.105 27.893-5.798 5.109-13.174 14.457-7.165 21.606-10.792 3.363-21.158 8.524-30.272 15.115-12.136 7.492-5.215 20.302 6.43 19.893 20.614 1.951 38.868 2.91 55.951 2.909 18.737-1.012 52.281 4.002 53.016-22.828 24.859-21.051-21.082-37.095-8.122-66.009 3.94-8.986 12.68-25.405-.605-31.474l-.694-17.759c7.657 1.256 15.361 2.221 23.089 2.898-16.518 13.102-13.881 81.524 23.477 75.244 2.365 11.715-2.896 50.462 6.33 59.471 4.02 9.501 130.17 1.919 139.857 3.862 21.571 1.072 35.418-8.802 33.376-30.222-.028-.272-.316-40.604-.397-40.851 44.401-3.486 63.049-39.082 65.15-79.174 4.247-38.192 6.132-77.04 5.604-115.463zm-331.419-193.74c-1.851-8.834 4.567-15.378 12.807-20.508 24.543-15.379 57.039-16.746 82.788-3.485 10.26 3.548-.352-20.64 14.1-20.49 6.889 1.971 5.024 11.52 1.729 16.419-1.99 3.891 4.015 7.113 6.157 3.309 5.19-15.134 20.744-15.657 15.384-4.047-3.273 6.696-8.788 12.133-15.532 15.31-8.787 5.401 14.317 11.191 20.376 33.247 4.749 15.61 5.043 40.644-12.721 49.17-18.72 3.246-24.578-20.208-25.135-34.581-.242-3.471-5.339-4.31-6.673-1.078-15.792 29.86-33.847 28.9-19.076-7.526 1.79-3.273 5.186-7.31 3.984-11.317-1.563-5.177-6.64-4.818-10.265-3.364-17.079 3.933-59.604 7.885-67.923-11.059zm80.591 101.65c-10.026-5.963-24.116 9.6-34.671 10.228-27.199-9.183-32.603-68.089-25.337-92.348 16.552 2.624 34.155 2.497 50.395-2.109-5.743 8.905-8.539 19.406-8.964 29.85.562 27.042 24.474 10.993 32.267-1.709 1.613 10.952 6.438 22.561 16.977 28.022.055.572 8.413 20.037 8.59 20.607-6.876 3.769-23.248 12.435-29.775 16.733-2.067-3.505-4.984-7.431-9.482-9.274zm14.403 108.547c19.904-20.123 32.753-47.835 35.25-76.028.17-1.924-1.251-3.623-3.175-3.793-1.934-.168-3.622 1.251-3.793 3.175-2.723 30.465-18.077 60.124-41.803 79.505 2.132-28.382 4.58-54.24 6.656-82.765-.333-7.943 3.861-13.655 11.085-16.764 19.656-9.241 32.63-27.295 51.74-2.282 40.535 48.611 51.768 118.932 28.416 177.74l-80.058-28.684c27.538-14.146 50.974-36.443 65.201-63.806.891-1.714.224-3.826-1.49-4.717s-3.826-.223-4.717 1.49c-23.314 44.839-72.547 75.453-123.05 76.743l-11.082-24.317c26.47-3.749 52.053-16.523 70.82-35.497zm-117.317 63.927c8.586-14.045 23.904-23.59 40.264-25.238l7.574 16.616-41.192 14.826c-7.967 3.109-10.636.132-6.646-6.204zm52.512 171.044c-30.046 7.909-57.904 2.954-94.141 1.006-23.562-2.708 26.346-22.798 31.82-23.396 3.253.534 67.522 11.915 69.569 11.75.197 4.582-3.546 8.696-7.248 10.64zm4.899-93.507c-7.015 14.649-11.967 32.048-2.227 46.878-14.243 7.73-31.968 8.225-46.594 1.19-1.741-.838-3.831-.105-4.668 1.636s-.104 3.831 1.636 4.668c16.854 8.108 37.348 7.443 53.659-1.712 7.741 7.048 13.619 26.559-3.182 22.716.001 0-62.379-10.72-62.379-10.72-13.021-1.278-5.281-10.089.332-15.197 5.022-5.756 7.283-13.518 6.833-21.107 9.566 7.564 21.694 12.594 35.074 14.297 4.471.651 5.408-6.433.883-6.94-17.032-2.168-31.754-10.21-40.813-22.182-3.114-4.616-16.056-14.624-1.932-12.573h-.001c49.395 7.655 67.603-23.866 63.379-.954zm-6.422-14.932c-16.142 8.766-35.494 11.189-53.468 9.287-1.258-19.194-.419-38.546 2.499-57.56 5.846 1.203 44.485-14.931 50.73-16.568 2.219 13.751 53.006-3.125 62.139-7.427.94.738 80.638 28.889 81.66 29.394-9.536 25.539-40.668 16.619-62.088 19.581-24.699 1.657-49.605 2.556-74.047-2.356-9.947-1.631-19.813-3.76-29.547-6.38-1.868-.502-3.785.603-4.286 2.469-1.722 6.853 20.617 7.549 25.627 9.563zm290.2-28.298c-3.141 54.456-30.059 76.026-85.579 75.002-1.928.067-3.441 1.685-3.376 3.616.45 6.77 18.74 1.632 23.795 2.162l.364 40.081c1.826 18.004-8.885 23.851-26.418 23.159-5.585-1.204-134.016 3.659-134.936-1.868-5.721-5.703-2.629-47.208-4.233-54.985l57.618-5.191c1.924-.173 3.343-1.873 3.17-3.797-.173-1.923-1.873-3.346-3.797-3.17l-58.362 5.258c-23.493 4.573-31.11-12.01-31.36-34.063-.526-11.39.062-25.112 9.352-30.153 1.123-4.153 160.917-8.697 167.004-9.97 1.881-.054 3.462-1.795 3.323-3.676 0 0-6.819-129.525-6.819-129.525-3.274-20.758 9.535-29.444 30.51-31.412 10.743-1.508 21.854-3.067 32.577-1.569 11.469 1.602 21.007 6.87 26.168 14.453 14.88 31.895 3.057 108.123.999 145.648z"/><path d="m290.202 472.343c-21.907-20.268 33.721-55.795-12.553-82.283-4.14-1.82-6.955 4.685-2.754 6.43 29.204 16.182 6.165 38.699 2.964 60.974-.569 8.823 2.642 18.704 10.297 21.217 3.259.109 4.818-4.482 2.046-6.338z"/><path d="m299.861 398.327c-3.579-2.77-7.88 2.883-4.218 5.58 5.055 3.821 8.158 10.383 7.904 16.715-1.029 14.496-14.57 26.634-9.445 42.619 1.399 4.326 8.127 2.071 6.636-2.212-4.098-22.18 25.013-40.252-.877-62.702z"/><path d="m312.006 396.532c-4.444-.885-5.764 6.091-1.289 6.875 14.339 4.879 7.602 23.444 2.717 33.87-2.248 5.171-8.97 26.398 1.249 26.547 5.23-1.156-1.414-11.652 5.243-23.937 7.203-13.664 12.02-38.069-7.92-43.355z"/><path d="m311.459 155.142 23.065-.935-11.253 46.033c-.922 3.317 3.521 5.818 5.879 3.295l53.917-54.291c1.534-1.471 1.271-4.205-.515-5.357l-16.079-10.933c22.848-40.428 20.377-24.963-39.264-37.184-5.317-4.425-17.502 53.653-19.251 54.893-.711 2.208 1.19 4.642 3.501 4.479zm17.704-51.983 42.19 6.612c-14.12 29.071-21.286 20.733 3.784 37.534l-42.082 42.374c9.039-46.713 21.703-43.703-17.012-41.723z"/><path d="m430.945 234.794c-12.784-12.047-32.631-5.6-42.518 7.525-7.406 10.494-.993 27.373 11.766 29.72-18.826 35.848-17.97 26.633 18.619 31.126 2.067.238 3.993-1.637 3.804-3.714l-1.862-28.17c17.113-2.652 23.907-24.924 10.191-36.487zm.443 17.316c-2.644 16.302-18.016 9.009-17.844 16.141 0 .001 1.823 27.58 1.823 27.58l-18.735-1.691c25.732-47.28 5.162-16.089-3.756-37.158-5.116-22.475 38.644-31.471 38.512-4.872z"/><path d="m394.474 164.93c8.696-3.993 17.582-8.929 27.424-9.933 1.91-.286 3.228-2.065 2.943-3.976-2.366-8.375-27.205 4.412-32.219 7.44-2.99 1.72-1.522 6.599 1.852 6.469z"/><path d="m417.42 166.01-21.73 3.665c-4.497.689-3.276 7.732 1.164 6.897 0 0 21.73-3.665 21.73-3.665 4.479-.687 3.305-7.719-1.164-6.897z"/><path d="m168.423 250.835c3.129.117 4.769-4.199 2.259-6.169l-16.444-13.89c-3.425-2.98-8.023 2.467-4.514 5.344 1.18.609 17.464 15.795 18.699 14.715z"/><path d="m141.392 253.068c-.504 1.865.599 3.785 2.464 4.289l14.202 3.838c4.33 1.261 6.243-5.632 1.825-6.753l-14.203-3.838c-1.861-.502-3.783.6-4.288 2.464z"/><path d="m130.046 271.826c.363 1.908 2.256 3.136 4.105 2.759l19.096-3.744c4.471-.81 3.087-7.8-1.346-6.864l-19.096 3.744c-1.895.371-3.13 2.209-2.759 4.105z"/></g></g></svg>