<?xml version="1.0" encoding="iso-8859-1"?>
<!-- Generator: Adobe Illustrator 19.0.0, SVG Export Plug-In . SVG Version: 6.00 Build 0)  -->
<svg version="1.1" id="Capa_1" xmlns="http://www.w3.org/2000/svg" xmlns:xlink="http://www.w3.org/1999/xlink" x="0px" y="0px"
	 viewBox="0 0 512 512" style="enable-background:new 0 0 512 512;" xml:space="preserve">
<path style="fill:#3D5868;" d="M113.432,234.388c-17-26.999-54.257-116.997,11.371-158.996
	c20.628-55.998,70.05-74.508,162.592-44.442c58.481,19,97.166-6.843,115.495-21.021c23.881-18.474,40.021,73.448-7.388,126.788
	c0,39.265-14.866,80.751-25.519,97.672"/>
<path style="fill:#2A434F;" d="M402.89,9.928c-4.318,3.34-9.767,7.328-16.337,11.224c9.253,25.846,6.622,82.783-25.881,120.848
	c0,34.903-10.84,71.477-20.64,92.387h29.951c10.654-16.921,25.519-58.406,25.519-97.672C442.911,83.376,426.771-8.547,402.89,9.928z
	"/>
<path style="fill:#F0EEEE;" d="M191.502,363.448h105.852c41.62,0,75.36,33.74,75.36,75.36v65.693H116.142v-65.693
	C116.142,397.187,149.883,363.448,191.502,363.448z"/>
<path style="fill:#D9D4D4;" d="M297.354,363.448h-22.531c41.62,0,75.359,33.74,75.359,75.36v65.693h22.532v-65.693
	C372.713,397.187,338.973,363.448,297.354,363.448z"/>
<rect x="202.333" y="363.45" style="fill:#49B6F2;" width="84.188" height="141.056"/>
<g>
	<polygon style="fill:#68C8FC;" points="244.428,370.884 244.428,407.718 286.523,437.002 286.523,363.448 	"/>
	<polygon style="fill:#68C8FC;" points="202.333,437.002 244.428,407.718 244.428,370.884 202.333,363.448 	"/>
</g>
<g>
	<path style="fill:#FA9E3E;" d="M202.333,267.736v90.666c0,23.248,18.846,42.095,42.095,42.095l0,0
		c23.248,0,42.095-18.846,42.095-42.095v-90.666H202.333z"/>
	<path style="fill:#FA9E3E;" d="M114.271,223.998h49.368v56.608h-49.368c-15.632,0-28.304-12.673-28.304-28.304
		S98.639,223.998,114.271,223.998z"/>
	<path style="fill:#FA9E3E;" d="M374.585,223.998h-49.368v56.608h49.368c15.632,0,28.304-12.673,28.304-28.304
		S390.217,223.998,374.585,223.998z"/>
</g>
<path style="fill:#FFB56B;" d="M356.535,162.89v67.798c0,61.908-50.189,112.107-112.107,112.107s-112.107-50.199-112.107-112.107
	v-45.259c28.169-11.93,37.479-44.749,39.909-68.138c0.83-8.08,0.84-15.03,0.53-19.609c0,0,6.71,8.44,18.609,19.609
	C221.419,145.52,284.587,191.249,356.535,162.89z"/>
<path style="fill:#EF9245;" d="M333.206,242.349c0,53.577-41.948,97.351-94.791,100.283h0.002c0.989,0.052,1.982,0.092,2.977,0.119
	c0.006,0,0.012,0.001,0.019,0.001c1.002,0.027,2.007,0.041,3.015,0.041l0,0c2.841,0,5.657-0.108,8.445-0.315
	c0.144-0.011,0.289-0.023,0.433-0.034c1.704-0.134,3.397-0.306,5.079-0.515c55.33-6.872,98.149-54.061,98.149-111.243v-67.798
	c-7.893,3.111-15.68,5.33-23.328,6.778v72.683H333.206z"/>
<circle style="fill:#78D6D1;" cx="163.634" cy="445.188" r="14.459"/>
<path style="fill:#304A56;" d="M244.428,407.718l-22.532,15.675c5.686,5.919,13.676,9.61,22.532,9.61s16.846-3.69,22.532-9.61
	L244.428,407.718z"/>
<path style="fill:#3D5868;" d="M244.428,433.002c-3.272,0-6.425-0.507-9.387-1.44l-8.363,72.938h35.499l-8.363-72.938
	C250.852,432.495,247.7,433.002,244.428,433.002z"/>
<path d="M432.926,64.465c2.343-25.6-2.195-48.621-11.563-58.648c-6.576-7.041-15.412-7.74-23.059-1.825
	c-12.408,9.599-50.17,38.81-108.591,19.828c-58.805-19.103-102.19-19.587-132.637-1.473c-3.56,2.118-4.729,6.72-2.61,10.28
	c2.118,3.56,6.721,4.727,10.28,2.611c26.514-15.775,65.877-14.844,120.334,2.847c26.875,8.732,52.884,9.395,77.304,1.97
	c20.402-6.204,35.511-16.783,45.1-24.199c1.052-0.814,1.56-0.846,1.56-0.846c0.494,0.076,3.022,1.85,5.47,8.632
	c8.649,23.974,4.907,74.877-24.613,108.097c-1.22,1.373-1.893,3.146-1.893,4.982c0,29.788-8.905,60.539-17.273,79.778h-6.697
	v-48.606c3.633-1.579,7.286-3.332,10.912-5.262c3.657-1.945,5.044-6.487,3.099-10.144c-1.945-3.656-6.485-5.045-10.144-3.099
	c-4.708,2.504-9.452,4.697-14.1,6.517c-0.003,0.001-0.005,0.002-0.008,0.003s-0.006,0.002-0.009,0.003
	c-29.032,11.443-88.069,20.931-157.284-44.09c-11.297-10.605-17.811-18.731-17.871-18.808c-2.043-2.569-5.521-3.511-8.58-2.326
	c-3.061,1.186-4.995,4.224-4.774,7.499c0.165,2.429,0.443,9.078-0.507,18.329c-4.446,42.8-24.071,57.22-35.374,62.007
	c-0.002,0.001-0.003,0.002-0.005,0.003c-0.004,0.002-0.008,0.003-0.012,0.004c-3.257,1.389-6.817,2.43-10.581,3.094
	c-4.079,0.719-6.803,4.61-6.083,8.689c0.642,3.638,3.806,6.198,7.377,6.198c0.433,0,0.871-0.038,1.312-0.116
	c1.153-0.203,2.291-0.44,3.417-0.699v20.802h-10.55c-0.671,0-1.338,0.02-2.001,0.056c-6.224-13.019-16.366-38.189-17.288-65.5
	c-1.046-30.966,10.347-54.297,33.861-69.346c1.377-0.881,2.429-2.189,2.994-3.723c3.479-9.438,7.828-17.695,12.929-24.543
	c2.474-3.322,1.786-8.021-1.536-10.495c-3.32-2.475-8.021-1.787-10.495,1.536c-5.525,7.419-10.258,16.15-14.087,25.979
	c-26.491,17.922-39.846,45.905-38.657,81.097c0.956,28.338,10.829,54.331,17.606,69.027c-11.598,6.036-19.134,18.059-19.134,31.71
	c0,19.745,16.064,35.809,35.808,35.809h25.228c10.455,19.062,25.993,34.972,44.684,45.894c-0.492,0.47-0.989,0.934-1.468,1.413
	c-17.138,17.148-26.574,39.938-26.574,64.169v24.969c-8.427,3.071-14.461,11.163-14.461,20.638c0,12.108,9.851,21.958,21.958,21.958
	c12.108,0,21.958-9.851,21.958-21.958c0-9.474-6.032-17.566-14.457-20.637v-24.97c0-9.324,1.694-18.385,4.9-26.853
	c5.057-1.18,10.24-1.786,15.461-1.786h3.33v66.058v59.998h-71.188v-58.188c0-20.326,9.002-39.414,24.697-52.367
	c3.195-2.637,3.647-7.364,1.011-10.559c-2.635-3.194-7.363-3.647-10.558-1.011c-19.161,15.813-30.15,39.117-30.15,63.936V504.5
	c0,4.142,3.357,7.5,7.5,7.5h86.188h24.349h35.499h24.35h86.186c4.143,0,7.5-3.358,7.5-7.5v-65.692
	c0-20.678-7.661-40.482-21.57-55.763c-2.788-3.063-7.531-3.285-10.595-0.498c-3.063,2.789-3.286,7.532-0.497,10.595
	c11.39,12.513,17.663,28.729,17.663,45.666v58.192h-71.186v-59.998v-66.058h3.329c7.149,0,14.162,1.108,20.896,3.288
	c2.86,8.039,4.383,16.598,4.383,25.352v29.72c-11.464,3.269-19.885,13.83-19.885,26.328v27.913c0,4.142,3.357,7.5,7.5,7.5h3.639
	c4.143,0,7.5-3.358,7.5-7.5c0-2.73-1.458-5.119-3.639-6.431v-21.482c0-6.827,5.554-12.38,12.381-12.38
	c6.827,0,12.381,5.554,12.381,12.38v21.482c-2.181,1.312-3.639,3.701-3.639,6.431c0,4.142,3.357,7.5,7.5,7.5h3.639
	c4.143,0,7.5-3.358,7.5-7.5v-27.913c0-12.495-8.417-23.054-19.875-26.325v-29.723c0-11.56-2.216-22.834-6.352-33.302
	c-0.14-0.491-0.328-0.965-0.564-1.417c-5.131-12.376-12.983-23.561-23.075-32.67c17.364-10.853,31.859-26.12,41.715-44.088h25.224
	c19.744,0,35.809-16.065,35.809-35.809c0-15.777-10.034-29.104-24.2-33.89c8.177-20.147,16.287-49.75,16.787-78.863
	C425.44,112.956,431.389,81.26,432.926,64.465z M114.272,273.107c-11.475,0-20.808-9.336-20.808-20.809
	c0-9.77,6.639-18.103,16.21-20.279c0.012-0.003,0.023-0.005,0.035-0.007c1.446-0.34,2.982-0.512,4.564-0.512h10.553
	c0.006,0.858,0.021,1.714,0.045,2.569c0.002,0.064,0.003,0.128,0.005,0.191c0.029,1.026,0.075,2.048,0.13,3.068
	c0.018,0.337,0.041,0.673,0.062,1.009c0.045,0.731,0.097,1.461,0.155,2.189c0.029,0.356,0.058,0.713,0.089,1.069
	c0.071,0.799,0.152,1.596,0.239,2.392c0.027,0.246,0.05,0.492,0.078,0.738c0.118,1.018,0.249,2.032,0.393,3.044
	c0.042,0.295,0.09,0.589,0.134,0.884c0.111,0.74,0.227,1.479,0.352,2.216c0.061,0.36,0.124,0.719,0.188,1.078
	c0.128,0.716,0.263,1.43,0.404,2.143c0.063,0.315,0.122,0.631,0.187,0.946c0.205,0.995,0.421,1.987,0.652,2.976
	c0.047,0.199,0.098,0.397,0.146,0.596c0.193,0.809,0.395,1.616,0.605,2.42c0.09,0.342,0.183,0.684,0.276,1.026
	c0.186,0.686,0.379,1.371,0.578,2.053c0.097,0.334,0.194,0.669,0.294,1.003c0.255,0.849,0.52,1.696,0.796,2.54
	c0.046,0.14,0.087,0.28,0.133,0.42c0.321,0.972,0.657,1.94,1.004,2.905c0.107,0.299,0.22,0.597,0.33,0.896
	c0.152,0.413,0.299,0.828,0.456,1.24h-18.283V273.107z M213.713,346.31c0.276,0.073,0.553,0.143,0.83,0.214
	c1.106,0.285,2.216,0.556,3.33,0.809c0.185,0.042,0.368,0.088,0.553,0.129c1.25,0.278,2.506,0.531,3.766,0.768
	c0.291,0.055,0.582,0.106,0.874,0.159c1.156,0.209,2.316,0.403,3.48,0.577c0.143,0.021,0.285,0.046,0.428,0.067
	c1.274,0.186,2.552,0.346,3.834,0.491c0.304,0.034,0.608,0.066,0.913,0.098c1.222,0.129,2.447,0.243,3.675,0.335
	c0.084,0.006,0.167,0.015,0.251,0.021c1.295,0.094,2.594,0.16,3.896,0.212c0.316,0.013,0.632,0.024,0.948,0.034
	c1.31,0.042,2.622,0.071,3.939,0.071s2.629-0.029,3.939-0.071c0.316-0.01,0.632-0.021,0.948-0.034
	c1.302-0.052,2.601-0.118,3.896-0.212c0.084-0.006,0.167-0.015,0.251-0.021c1.228-0.091,2.452-0.206,3.673-0.334
	c0.306-0.032,0.612-0.065,0.917-0.099c1.281-0.145,2.559-0.305,3.831-0.491c0.144-0.021,0.287-0.046,0.431-0.068
	c1.162-0.174,2.319-0.368,3.474-0.576c0.294-0.053,0.587-0.105,0.88-0.16c1.258-0.237,2.512-0.49,3.761-0.767
	c0.188-0.042,0.374-0.088,0.562-0.131c1.11-0.252,2.216-0.522,3.319-0.806c0.28-0.072,0.56-0.142,0.839-0.217
	c1.232-0.327,2.46-0.672,3.682-1.04c0.066-0.02,0.133-0.036,0.199-0.056v13.191c0,1.347-0.077,2.687-0.229,3.986
	c-0.01,0.07-0.02,0.141-0.028,0.211c-0.057,0.476-0.125,0.95-0.202,1.423c-1.158,7.087-4.56,13.728-9.676,18.837
	c-6.534,6.535-15.223,10.133-24.465,10.133c-17.493,0-32.257-13.067-34.343-30.396c-0.001-0.005-0.002-0.009-0.003-0.014
	c-0.008-0.065-0.016-0.129-0.025-0.193c-0.151-1.294-0.227-2.635-0.227-3.986v-13.191c0.065,0.02,0.132,0.036,0.197,0.056
	C211.25,345.637,212.479,345.983,213.713,346.31z M271.245,417.239c-0.001-0.001-0.002-0.001-0.003-0.002l-15.231-10.596
	c0.046-0.011,0.091-0.026,0.138-0.038c0.099-0.024,0.199-0.046,0.297-0.07c0.366-0.091,0.727-0.197,1.09-0.296
	c0.407-0.111,0.817-0.216,1.22-0.337c0.104-0.031,0.208-0.065,0.312-0.097c0.187-0.057,0.371-0.124,0.557-0.184
	c0.076-0.024,0.151-0.05,0.226-0.075c0.394-0.128,0.79-0.251,1.18-0.389c0.293-0.104,0.582-0.22,0.873-0.329
	c0.243-0.091,0.485-0.181,0.726-0.276c0.211-0.083,0.424-0.162,0.634-0.248c0.36-0.148,0.715-0.31,1.072-0.466
	c0.333-0.146,0.669-0.283,0.998-0.436c0.045-0.021,0.088-0.044,0.133-0.065c0.349-0.164,0.692-0.341,1.038-0.513
	c0.364-0.181,0.73-0.358,1.09-0.549c0.169-0.09,0.337-0.183,0.505-0.275c0.208-0.113,0.412-0.233,0.618-0.349
	c0.323-0.182,0.648-0.36,0.967-0.549c0.337-0.2,0.668-0.413,1.001-0.622c0.025-0.016,0.05-0.031,0.075-0.046
	c0.181-0.114,0.366-0.222,0.546-0.339c0.138-0.09,0.277-0.18,0.414-0.271c0.328-0.217,0.648-0.445,0.971-0.67
	c0.337-0.235,0.676-0.467,1.008-0.711c0.06-0.044,0.124-0.085,0.184-0.13c0.008-0.006,0.016-0.011,0.023-0.016
	c0.247-0.184,0.486-0.381,0.73-0.57c0.328-0.253,0.658-0.504,0.981-0.766c0.216-0.175,0.427-0.355,0.64-0.534
	c0.18-0.151,0.358-0.303,0.536-0.457c0.227-0.196,0.454-0.391,0.678-0.591c0.292-0.262,0.578-0.534,0.865-0.803
	c0.229-0.215,0.464-0.42,0.689-0.64v28.718L271.245,417.239z M251.562,424.408c-1.712,0.539-3.486,0.876-5.276,1.015
	c-0.031,0.002-0.062,0.005-0.092,0.007c-1.175,0.086-2.356,0.086-3.531,0c-0.031-0.002-0.061-0.005-0.092-0.007
	c-1.79-0.138-3.564-0.475-5.276-1.015c-0.055-0.017-0.111-0.026-0.166-0.042c-0.769-0.247-1.523-0.534-2.261-0.859l9.561-6.649
	l9.561,6.649c-0.739,0.326-1.495,0.613-2.265,0.86C251.67,424.382,251.615,424.391,251.562,424.408z M209.829,422.651v-28.714
	c0.027,0.026,0.055,0.05,0.082,0.076c0.385,0.372,0.781,0.732,1.177,1.092c0.166,0.15,0.326,0.307,0.493,0.455
	c0.146,0.129,0.298,0.25,0.446,0.378c0.19,0.164,0.383,0.325,0.575,0.486c0.235,0.197,0.465,0.4,0.704,0.592
	c0.194,0.156,0.394,0.302,0.59,0.455c0.236,0.185,0.473,0.369,0.712,0.549c0.108,0.082,0.213,0.167,0.322,0.248
	c0.061,0.045,0.121,0.09,0.182,0.134c0.251,0.184,0.51,0.358,0.765,0.538c0.366,0.258,0.73,0.517,1.103,0.765
	c0.139,0.092,0.279,0.182,0.419,0.273c0.178,0.116,0.36,0.225,0.539,0.339c0.323,0.204,0.645,0.41,0.972,0.607
	c0.296,0.177,0.596,0.346,0.896,0.518c0.113,0.065,0.225,0.132,0.339,0.196c0.117,0.066,0.231,0.137,0.349,0.202
	c0.134,0.074,0.27,0.143,0.405,0.216c0.308,0.166,0.619,0.324,0.931,0.484c0.369,0.189,0.738,0.377,1.112,0.557
	c0.135,0.065,0.267,0.136,0.403,0.2c0.055,0.026,0.113,0.048,0.168,0.074c0.13,0.06,0.263,0.115,0.393,0.174
	c0.375,0.171,0.751,0.338,1.131,0.5c0.328,0.139,0.658,0.274,0.99,0.407c0.047,0.019,0.094,0.039,0.142,0.058
	c0.117,0.046,0.231,0.098,0.349,0.143c0.221,0.086,0.446,0.163,0.668,0.245c0.334,0.124,0.669,0.244,1.006,0.361
	c0.363,0.126,0.729,0.247,1.096,0.365c0.156,0.05,0.311,0.104,0.468,0.153c0.214,0.066,0.43,0.128,0.646,0.191
	c0.406,0.12,0.816,0.231,1.226,0.341c0.335,0.09,0.67,0.18,1.007,0.262c0.074,0.018,0.146,0.043,0.22,0.061l-15.245,10.606
	c-0.003,0.002-0.007,0.005-0.01,0.008L209.829,422.651z M163.638,452.149c-3.837,0-6.959-3.122-6.959-6.959
	c0-3.837,3.122-6.958,6.959-6.958c3.837,0,6.959,3.122,6.959,6.958C170.597,449.027,167.475,452.149,163.638,452.149z
	 M184.778,356.226c2.527-3.606,5.368-7.029,8.546-10.209c0.491-0.491,0.999-0.971,1.507-1.451v11.377h-3.33
	C189.251,355.944,187.011,356.045,184.778,356.226z M209.829,440.921l11.546-8.03c1.765,1.315,3.627,2.469,5.568,3.454
	l-6.954,60.655h-10.16V440.921z M235.087,497.001l6.489-56.603c0.085,0.006,0.171,0.004,0.256,0.009
	c0.854,0.056,1.711,0.094,2.575,0.095c0.014,0,0.027,0,0.041,0c0.864,0,1.721-0.039,2.575-0.095
	c0.085-0.006,0.171-0.003,0.257-0.009l6.489,56.603H235.087z M268.866,497.001l-6.954-60.655c1.942-0.985,3.803-2.139,5.568-3.454
	l11.547,8.031v56.079L268.866,497.001L268.866,497.001z M297.357,355.944h-3.329v-15.644c5.978,4.76,11.142,10.343,15.372,16.528
	C305.43,356.249,301.411,355.944,297.357,355.944z M290.903,324.417c-0.003,0.001-0.006,0.003-0.009,0.004
	c-0.009,0.004-0.017,0.008-0.026,0.012c-2.277,1.137-4.688,2.226-7.163,3.233c-12.463,5.062-25.677,7.629-39.277,7.629
	c-1.7,0-3.394-0.04-5.081-0.12c-11.811-0.561-23.292-3.08-34.211-7.515c-1.385-0.559-2.862-1.201-4.4-1.911
	c-0.008-0.004-0.016-0.007-0.024-0.011c-0.013-0.006-0.024-0.011-0.037-0.017c-21.583-9.936-39.316-27.146-49.935-48.464
	c-7.247-14.522-10.921-30.19-10.921-46.571v-6.689v-33.849c14.534-7.751,35.149-26.652,39.87-72.092
	c0.053-0.511,0.102-1.015,0.148-1.512c1.934,1.943,4.068,4.026,6.396,6.212c15.079,14.166,39.329,33.562,69.221,45.518
	c31.906,12.762,63.335,14.495,93.58,5.188v50.537v6.689c0,1.024-0.015,2.045-0.043,3.063c-0.061,2.149-0.189,4.285-0.378,6.407
	c-1.148,12.959-4.664,25.403-10.505,37.108C328.003,297.574,311.243,314.315,290.903,324.417z M395.394,252.297
	c0,11.475-9.335,20.809-20.809,20.809h-18.286c0.164-0.431,0.319-0.865,0.478-1.297c0.1-0.27,0.201-0.54,0.299-0.811
	c0.353-0.981,0.695-1.966,1.021-2.954c0.029-0.086,0.055-0.173,0.083-0.26c0.295-0.901,0.577-1.805,0.85-2.712
	c0.091-0.304,0.179-0.609,0.268-0.913c0.21-0.717,0.412-1.437,0.607-2.158c0.086-0.315,0.172-0.63,0.254-0.945
	c0.223-0.851,0.436-1.705,0.64-2.561c0.037-0.156,0.078-0.31,0.114-0.466c0.235-1.003,0.454-2.01,0.662-3.019
	c0.06-0.291,0.115-0.582,0.173-0.874c0.146-0.738,0.287-1.479,0.419-2.22c0.061-0.343,0.121-0.686,0.179-1.029
	c0.128-0.758,0.249-1.518,0.362-2.28c0.041-0.276,0.086-0.552,0.126-0.829c0.145-1.019,0.278-2.041,0.396-3.066
	c0.027-0.232,0.048-0.465,0.074-0.697c0.089-0.809,0.171-1.619,0.243-2.431c0.031-0.352,0.06-0.704,0.088-1.057
	c0.059-0.73,0.11-1.462,0.156-2.195c0.021-0.335,0.044-0.67,0.062-1.006c0.055-1.022,0.101-2.046,0.13-3.073
	c0.002-0.062,0.003-0.124,0.004-0.186c0.023-0.855,0.039-1.712,0.045-2.57h10.553c0.165,0,0.336,0.005,0.5,0.015
	c0.074,0.004,0.148,0.008,0.223,0.011C386.57,231.895,395.394,241.019,395.394,252.297z"/>
<path d="M276.363,260.316c-3.406-2.358-8.077-1.509-10.435,1.896c-4.891,7.063-12.928,11.279-21.5,11.279s-16.61-4.216-21.5-11.279
	c-2.357-3.405-7.032-4.254-10.436-1.896c-3.405,2.358-4.255,7.03-1.896,10.435c7.691,11.108,20.339,17.739,33.832,17.739
	s26.141-6.631,33.832-17.739C280.618,267.347,279.769,262.675,276.363,260.316z"/>
<path d="M298.749,215.97c-4.143,0-7.5,3.358-7.5,7.5v2c0,4.142,3.357,7.5,7.5,7.5c4.143,0,7.5-3.358,7.5-7.5v-2
	C306.249,219.328,302.892,215.97,298.749,215.97z"/>
<path d="M190.106,215.97c-4.143,0-7.5,3.358-7.5,7.5v2c0,4.142,3.357,7.5,7.5,7.5c4.143,0,7.5-3.358,7.5-7.5v-2
	C197.606,219.328,194.248,215.97,190.106,215.97z"/>
<g>
</g>
<g>
</g>
<g>
</g>
<g>
</g>
<g>
</g>
<g>
</g>
<g>
</g>
<g>
</g>
<g>
</g>
<g>
</g>
<g>
</g>
<g>
</g>
<g>
</g>
<g>
</g>
<g>
</g>
</svg>
