<?xml version="1.0"?>
<svg xmlns="http://www.w3.org/2000/svg" id="Filled" viewBox="0 0 512 512" width="512" height="512"><path d="M424,488c37.122-116,33.872-202.4,24.6-254.514A112.144,112.144,0,0,0,391,154.135L312,112H200l-79,42.135a112.144,112.144,0,0,0-57.591,79.351C54.128,285.6,50.878,372,88,488Z" style="fill:#f5cbaa"/><path d="M192,48H320a0,0,0,0,1,0,0v72a48,48,0,0,1-48,48H240a48,48,0,0,1-48-48V48A0,0,0,0,1,192,48Z" style="fill:#f5cbaa"/><path d="M192,48H320a0,0,0,0,1,0,0v72a48,48,0,0,1-48,48H240a48,48,0,0,1-48-48V48A0,0,0,0,1,192,48Z" style="fill:#f5cbaa"/><path d="M192,96c56,0,80-24,80-24a60,60,0,0,0,48,24V48a32,32,0,0,0-32-32H224a32,32,0,0,0-32,32Z" style="fill:#b17a62"/><circle cx="256" cy="440" r="8"/><path d="M457.749,232.08a119.476,119.476,0,0,0-62.1-85.009L328,111.229V56a40.045,40.045,0,0,0-40-40H224a40.045,40.045,0,0,0-40,40v55.229L116.355,147.07a119.475,119.475,0,0,0-62.1,85.009c-9.5,52.967-12.864,140.789,25.014,258.374A8,8,0,0,0,86.88,496H425.12a8,8,0,0,0,7.614-5.547C470.612,372.868,467.244,285.046,457.749,232.08ZM200,111.838c37.6-1.524,60.424-13.546,70.874-20.771A67.974,67.974,0,0,0,312,111.541V128a40.045,40.045,0,0,1-40,40H240a40.045,40.045,0,0,1-40-40ZM200,56a24.027,24.027,0,0,1,24-24h64a24.027,24.027,0,0,1,24,24V95.409a51.58,51.58,0,0,1-33.344-19.847,7.963,7.963,0,0,0-12.274-1.257c-.056.054-5.7,5.474-17.6,10.824-9.9,4.453-26.069,9.674-48.786,10.694Zm12.012,424a88,88,0,0,1-86.447-104.466l8.316-43.658A40.067,40.067,0,0,0,151.713,336H216a40.191,40.191,0,0,0,32-16l8-10.667L264,320a40.191,40.191,0,0,0,32,16h64.287a40.067,40.067,0,0,0,17.832-4.124l8.316,43.658A88,88,0,0,1,299.988,480Zm207.257,0H355.45a104.1,104.1,0,0,0,46.7-107.46l-9.978-52.384a41.028,41.028,0,0,0,2.8-4.234,39.581,39.581,0,0,0-.135-40.077L366.91,227.969a8,8,0,0,0-13.82,8.062l27.928,47.876A24,24,0,0,1,360.287,320H296a24.113,24.113,0,0,1-19.2-9.6l-14.4-19.2a8,8,0,0,0-12.8,0l-14.4,19.2A24.113,24.113,0,0,1,216,320H151.713a24,24,0,0,1-20.731-36.093l27.928-47.876a8,8,0,1,0-13.82-8.062l-27.928,47.876a39.581,39.581,0,0,0-.135,40.077,41.028,41.028,0,0,0,2.8,4.234l-9.978,52.385A104.1,104.1,0,0,0,156.55,480H92.731C57.735,368.355,60.976,285.246,70,234.9a103.578,103.578,0,0,1,53.844-73.692l60.188-31.891A56.055,56.055,0,0,0,240,184h32a56.055,56.055,0,0,0,55.967-54.682l60.189,31.892A103.579,103.579,0,0,1,442,234.9C451.024,285.246,454.265,368.355,419.269,480Z"/></svg>
