<svg id="Capa_1" enable-background="new 0 0 511.5 511.5" height="512" viewBox="0 0 511.5 511.5" width="512" xmlns="http://www.w3.org/2000/svg"><g><g id="Filled_15_"><path d="m37.75 402.5v109h400v-109c0-44.183-35.817-80-80-80h-240c-44.183 0-80 35.817-80 80z" fill="#9ce3bf"/><path d="m37.75 481.5h400v30h-400z" fill="#87bcc4"/><path d="m187.75 252.5v70c0 27.616 22.384 50 50 50s50-22.384 50-50v-70z" fill="#ffe4c2"/><path d="m237.75 342.5c-27.616 0-50-22.384-50-50v30c0 27.616 22.384 50 50 50s50-22.384 50-50v-30c0 27.616-22.384 50-50 50z" fill="#f2d1a5"/><path d="m319.068 40.282c-13.379-13.021-30.049-22.855-48.691-28.216l-12.934 3.29-7.442-7.222c-4.025-.42-8.116-.635-12.252-.635-63.515 0-115 50.109-115 111.928v16.143c0 61.819 51.485 111.928 115 111.928 4.136 0 8.227-.215 12.252-.635 3.549-.355 7.055-.882 10.494-1.55 22.635-4.423 42.871-15.315 58.573-30.597 20.81-20.255 33.682-48.237 33.682-79.146v-16.143c0-30.908-12.871-58.89-33.682-79.145z" fill="#616161"/><path d="m317.75 134.33v80.17c0 44.183-35.817 80-80 80-44.183 0-80-35.817-80-80v-64.46c9.91 2.56 20.66 3.35 31.88 3.35 35.75 0 66.62-16.33 81.11-49.21 12.22 14.83 28.53 25.59 47.01 30.15z" fill="#ffe4c2"/><path d="m408.75 68.5h40v30h-40z" fill="#e4e8ed"/><path d="m383.75 98.5h90v170h-90z" fill="#f8e868"/><path d="m383.75 238.5h90v30h-90z" fill="#efc17a"/></g><g fill="#fff"><path d="m367.75 365h15v15h-15z"/><path d="m163.75 474h15v15h-15z"/><path d="m245.25 497.5h-15v-15h15zm0-43h-15v-15h15zm0-43h-15v-15h15z"/></g><g id="Outline_15_"><path d="m295.25 280.398c17.479-15.271 28.846-37.364 29.912-62.085 22.652-23.04 35.088-53.39 35.088-85.813v-13.072c0-31.94-12.768-61.957-35.951-84.521-14.443-14.058-32.373-24.449-51.849-30.05l-1.953-.562-10.84 2.758-6.296-6.11-2.583-.269c-4.299-.447-8.682-.674-13.028-.674-30.126 0-59.083 10.759-81.537 30.294l9.846 11.316c19.723-17.159 45.184-26.61 71.691-26.61 2.973 0 5.966.121 8.927.359l8.552 8.299 14.992-3.814c16.368 5.038 31.412 13.935 43.616 25.812 20.257 19.716 31.413 45.915 31.413 73.771v13.073c0 22.784-7.003 44.4-20 62.493v-66.537l-5.703-1.407c-16.625-4.102-31.5-13.659-43.019-27.638l-7.742-9.395-4.91 11.14c-12.529 28.429-39.591 44.734-74.247 44.734-12.252 0-21.786-.989-30.004-3.112l-9.376-2.422v54.636c-12.997-18.092-20-39.708-20-62.492v-13.072c-.001-24.927 9.186-49.06 25.869-67.953l-11.244-9.929c-19.104 21.636-29.625 49.295-29.625 77.882v13.072c0 32.423 12.436 62.773 35.088 85.813 1.066 24.721 12.433 46.814 29.912 62.085v34.602h-62.499c-48.248 0-87.5 39.25-87.5 87.496v28.316l15 .001v-28.317c0-39.975 32.523-72.496 72.5-72.496h63.004c3.689 28.172 27.833 50 56.995 50s53.306-21.828 56.995-50h42.595v-15h-42.09v-34.602zm-15 42.102c0 23.435-19.065 42.5-42.5 42.5s-42.5-19.065-42.5-42.5v-31.539c12.592 7.027 27.085 11.039 42.5 11.039s29.908-4.012 42.5-11.039zm-42.5-35.5c-39.977 0-72.5-32.523-72.5-72.5v-55.269c7.139 1.124 15.096 1.659 24.38 1.659 36.711 0 66.318-15.788 82.861-43.725 10.868 10.626 23.699 18.398 37.759 22.843v74.492c0 39.977-32.523 72.5-72.5 72.5z"/><path d="m357.749 315h-5.409v15h5.409c26.262 0 49.307 14.036 62.028 35h-22.027v15h28.908c1.572 4.803 2.669 9.818 3.204 15h-18.112v15h18.499l.001 101.5h15l-.001-109.004c0-48.246-39.252-87.496-87.5-87.496z"/><path d="m30.25 511.5 15-.013c0-.358 0-65.662 0-65.662h-15z"/><path d="m355.25 427.5h15v84h-15z"/><path d="m120.25 459h16.5v-15h-16.5v-16.5h-15v84h15v-22.5h28.5v-15h-28.5z"/><path d="m456.25 91v-30h-55v30h-25v92.5h15v-77.5h10 55 10v27.5h15v-42.5zm-15 0h-25v-15h25z"/><path d="m466.25 261h-75v-62.5h-15v77.5h105v-127.5h-15z"/><path d="m408.75 231h40v15h-40z"/><path d="m132.25 234h-54.5v15h30.452l-30.952 32.5v11.5h54.5v-15h-30.452l30.952-32.5z"/><path d="m81.75 203h-20.626l21.126-22.534v-11.466h-44.5v15h20.626l-21.126 22.534v11.466h44.5z"/><path d="m215.377 252.407 8.746 12.187c3.135-2.25 8.229-3.593 13.627-3.593s10.492 1.343 13.627 3.593l8.746-12.187c-5.673-4.072-13.828-6.407-22.373-6.407s-16.7 2.335-22.373 6.407z"/><path d="m213.356 197.5 9.697-9.697-10.606-10.606-9.697 9.697-9.697-9.697-10.606 10.606 9.697 9.697-9.697 9.697 10.606 10.606 9.697-9.697 9.697 9.697 10.606-10.606z"/><path d="m282.447 177.197-9.697 9.697-9.697-9.697-10.606 10.606 9.697 9.697-9.697 9.697 10.606 10.606 9.697-9.697 9.697 9.697 10.606-10.606-9.697-9.697 9.697-9.697z"/><path d="m423.719 121.889-16.755 45.111h21.412l-10.52 24.545 13.788 5.91 19.48-45.455h-22.588l9.245-24.889z"/></g></g></svg>