<svg height="512" viewBox="0 0 64 64" width="512" xmlns="http://www.w3.org/2000/svg"><g id="people-coronavirus-tempurature-thermometer-covid19"><path d="m38 3h-8a4 4 0 0 0 -4 4 2 2 0 0 0 -2-2h-2a4 4 0 0 0 -4 4v14h28v-12a8 8 0 0 0 -8-8z" fill="#414042"/><path d="m24 5h-2a4 4 0 0 0 -4 4v14h8v-16a2 2 0 0 0 -2-2z" fill="#58595b"/><path d="m55.9 50.005a10 10 0 0 0 -9.95-9.005h-6.62c-1.23 3.53-4.05 6-7.33 6s-6.095-2.47-7.33-6h-6.058a10 10 0 0 0 -9.889 8.517l-1.723 11.483h50z" fill="#006df0"/><path d="m55.9 50.005a10 10 0 0 0 -9.95-9.005h-2a10 10 0 0 1 9.95 9.005l1.1 10.995h2z" fill="#005ece"/><path d="m15 19c0-1.105-2-4-2-4s-2 2.895-2 4a2 2 0 0 0 4 0z" fill="#57a4ff"/><path d="m37 14c0-1.105-2-4-2-4s-2 2.895-2 4a2 2 0 0 0 4 0z" fill="#9bc9ff"/><path d="m14 38a3 3 0 0 0 3-3c0-1.657-3-5-3-5s-3 3.343-3 5a3 3 0 0 0 3 3z" fill="#57a4ff"/><path d="m42 21h3a2 2 0 0 1 2 2v3a2 2 0 0 1 -2 2h-3a0 0 0 0 1 0 0v-7a0 0 0 0 1 0 0z" fill="#ffac96"/><path d="m17 21h3a2 2 0 0 1 2 2v3a2 2 0 0 1 -2 2h-3a0 0 0 0 1 0 0v-7a0 0 0 0 1 0 0z" fill="#ffac96" transform="matrix(-1 0 0 -1 39 49)"/><path d="m32 47c3.28 0 6.095-2.47 7.33-6h-.33c-.027 0-.052-.007-.078-.008a2 2 0 0 1 -1.922-1.992v-3.21a10.936 10.936 0 0 1 -10 0v3.21a2 2 0 0 1 -1.922 1.992c-.026 0-.051.008-.078.008h-.33c1.235 3.53 4.05 6 7.33 6z" fill="#ffac96"/><path d="m37 37.79v-2a10.936 10.936 0 0 1 -10 0v2a10.936 10.936 0 0 0 10 0z" fill="#ff9478"/><path d="m61 46a7 7 0 1 1 -10-6.32v-33.68a3 3 0 0 1 6 0v33.68a6.97 6.97 0 0 1 4 6.32z" fill="#ff9811"/><path d="m57 39.68v-33.68a2.973 2.973 0 0 0 -4-2.816 2.963 2.963 0 0 1 2 2.816v33.68a6.992 6.992 0 0 1 -2 13.241 6.993 6.993 0 0 0 4-13.241z" fill="#ee8700"/><circle cx="54" cy="46" fill="#d80027" r="2"/><path d="m25 13h14a4 4 0 0 1 4 4v9a11 11 0 0 1 -11 11 11 11 0 0 1 -11-11v-9a4 4 0 0 1 4-4z" fill="#ffbcab"/><path d="m33 14a2 2 0 0 0 4 0c0-1.105-2-4-2-4s-2 2.9-2 4z" fill="#2488ff"/><g fill="#231f20"><path d="m34.294 32.708a1 1 0 1 0 1.412-1.416l-.171-.17a5 5 0 0 0 -7.069 0l-.172.171a1 1 0 1 0 1.412 1.416l.173-.172a3.069 3.069 0 0 1 4.243 0z"/><path d="m30.212 27.615a1 1 0 0 0 .788.385h2a1 1 0 0 0 0-2h-.719l.689-2.757a1 1 0 0 0 -1.94-.486l-1 4a1 1 0 0 0 .182.858z"/><path d="m62 46a7.932 7.932 0 0 0 -4-6.93v-33.07a4 4 0 0 0 -8 0v33.07a7.858 7.858 0 0 0 -1.75 1.37 11.88 11.88 0 0 0 -3.2-.44h-6.05a1 1 0 0 1 -1-1v-2.62a12.1 12.1 0 0 0 5.61-7.38h1.39a3.009 3.009 0 0 0 3-3v-3a2.986 2.986 0 0 0 -1-2.22v-9.78a9.014 9.014 0 0 0 -9-9h-8a4.989 4.989 0 0 0 -4.33 2.51 2.994 2.994 0 0 0 -1.67-.51h-2a5 5 0 0 0 -5 5v11.78a2.986 2.986 0 0 0 -1 2.22v3a3.009 3.009 0 0 0 3 3h1.39a12.1 12.1 0 0 0 5.61 7.38v2.62a1 1 0 0 1 -1 1h-6.05a11.97 11.97 0 0 0 -11.94 10.81l-1.01 10.09a1.036 1.036 0 0 0 .26.77 1 1 0 0 0 .74.33h50a1 1 0 0 0 1-1.09l-.67-7.65a8 8 0 0 0 4.67-7.26zm-16-23v3a1 1 0 0 1 -1 1h-1.05c.03-.33.05-.66.05-1v-4h1a1 1 0 0 1 1 1zm-27 4a1 1 0 0 1 -1-1v-3a1 1 0 0 1 1-1h1v4c0 .34.02.67.05 1zm1-10v3h-1v-11a3.009 3.009 0 0 1 3-3h2a1 1 0 0 1 1 1 1 1 0 0 0 2 0 3.009 3.009 0 0 1 3-3h8a7.008 7.008 0 0 1 7 7v9h-1v-3a5 5 0 0 0 -5-5h-1.64a20.818 20.818 0 0 0 -1.54-2.57 1.033 1.033 0 0 0 -1.64 0 20.818 20.818 0 0 0 -1.54 2.57h-7.64a5 5 0 0 0 -5 5zm16-3a1 1 0 0 1 -2 0 7.475 7.475 0 0 1 1-2.15 7.357 7.357 0 0 1 1 2.15zm-14 12v-9a3.009 3.009 0 0 1 3-3h7a3 3 0 0 0 6 0h1a3.009 3.009 0 0 1 3 3v9a10 10 0 0 1 -20 0zm15.73 15.71a5.972 5.972 0 0 1 -11.46 0 3 3 0 0 0 1.73-2.71v-1.7a11.779 11.779 0 0 0 8 0v1.7a3 3 0 0 0 1.73 2.71zm8.27 18.29v-6a1 1 0 0 0 -2 0v6h-24v-6a1 1 0 0 0 -2 0v6h-9.89l.89-8.99a9.972 9.972 0 0 1 9.95-9.01h5.32a7.979 7.979 0 0 0 15.46 0h5.32a10.057 10.057 0 0 1 1.91.19 8.008 8.008 0 0 0 7.04 11.81 7.871 7.871 0 0 0 1.38-.13l.53 6.13zm8-8a6 6 0 0 1 -6-6 5.938 5.938 0 0 1 3.43-5.42.982.982 0 0 0 .57-.9v-33.68a2.006 2.006 0 0 1 2-2 2.015 2.015 0 0 1 2 2v2h-2v2h2v2h-2v2h2v2h-3v27.18a3 3 0 1 0 2 0v-5.18h1v1.68a.982.982 0 0 0 .57.9 5.938 5.938 0 0 1 3.43 5.42 6 6 0 0 1 -6 6zm1-20v-2h1v2zm1 2v2h-1v-2zm-1-6v-2h1v2zm0-4v-2h1v2zm0-4v-2h1v2zm0 26a1 1 0 1 1 -1-1 1 1 0 0 1 1 1z"/><path d="m30.71 19.71-.24.24a7.523 7.523 0 0 1 -1.47 1.12v.93a1 1 0 0 1 -2 0v-.16a7.312 7.312 0 0 1 -1.49.16h-.51a1 1 0 0 1 0-2h.51a4.976 4.976 0 0 0 3.54-1.46l.24-.25a1 1 0 0 1 1.42 1.42z"/><path d="m40 21a1 1 0 0 1 -1 1h-.51a7.312 7.312 0 0 1 -1.49-.16v.16a1 1 0 0 1 -2 0v-.93a7.176 7.176 0 0 1 -1.46-1.12l-.25-.24a1 1 0 0 1 1.42-1.42l.24.25a4.976 4.976 0 0 0 3.54 1.46h.51a1 1 0 0 1 1 1z"/><path d="m13 22a3 3 0 0 0 3-3c0-1.278-1.522-3.621-2.177-4.568a1.038 1.038 0 0 0 -1.646 0c-.655.947-2.177 3.29-2.177 4.568a3 3 0 0 0 3 3zm0-5.146a7.462 7.462 0 0 1 1 2.146 1 1 0 0 1 -2 0 7.457 7.457 0 0 1 1-2.146z"/><path d="m14 39a4 4 0 0 0 4-4c0-1.941-2.712-5.062-3.256-5.668a1.031 1.031 0 0 0 -1.488 0c-.544.606-3.256 3.727-3.256 5.668a4 4 0 0 0 4 4zm0-7.451c1.062 1.332 2 2.831 2 3.451a2 2 0 0 1 -4 0c0-.637.939-2.125 2-3.451z"/></g></g></svg>