<?xml version="1.0"?>
<svg xmlns="http://www.w3.org/2000/svg" viewBox="0 0 512 512" width="512" height="512"><g id="Fill_out_line" data-name="Fill out line"><path d="M280,248l.0001,0A162.241,162.241,0,0,1,384,399.427V425a63,63,0,0,1-63,63H143a63,63,0,0,1-63-63V399.427A162.241,162.241,0,0,1,183.9999,248L184,248Z" style="fill:#2f4054"/><path d="M224,80V48a24,24,0,0,1,24-24h32V80Z" style="fill:#262d43"/><path d="M328,216l-32,32H184a16,16,0,0,1-16-16V152a16,16,0,0,1,16-16h72V112h40a32,32,0,0,1,32,32v0H432v72Z" style="fill:#f5cfb0"/><rect x="184" y="104" width="96" height="32" rx="15.99998" ry="15.99998" style="fill:#ae7d4d"/><path d="M180,24h0a20,20,0,0,1,20,20V44a28,28,0,0,0,28,28H236a28,28,0,0,0,28-28V44a20,20,0,0,1,20-20h0a20,20,0,0,1,20,20V64a40,40,0,0,1-40,40H200a40,40,0,0,1-40-40V44A20,20,0,0,1,180,24Z" style="fill:#2f4054"/><path d="M184,144h96a8.00039,8.00039,0,0,0,8-8V120h8a24.0275,24.0275,0,0,1,24,24,8.00039,8.00039,0,0,0,8,8H432V136H335.19629A40.07012,40.07012,0,0,0,296,104h-5.50635A47.9884,47.9884,0,0,0,312,64V44a27.98,27.98,0,0,0-32-27.70972V16H248a32.03667,32.03667,0,0,0-32,32V59.96216A19.96061,19.96061,0,0,1,208,44a28,28,0,0,0-56,0V64a48.05537,48.05537,0,0,0,27.57031,43.42334,23.92392,23.92392,0,0,0-1.87353,21.42236A24.0397,24.0397,0,0,0,160,152v80a23.88814,23.88814,0,0,0,5.62769,15.41943A170.17284,170.17284,0,0,0,72,399.42676V425a71.08057,71.08057,0,0,0,71,71H321a71.08057,71.08057,0,0,0,71-71V399.42676a170.21237,170.21237,0,0,0-87.39624-148.71631L331.31348,224H432V208H328a8.00235,8.00235,0,0,0-5.65723,2.34277L292.68652,240H184a8.00917,8.00917,0,0,1-8-8V152A8.00917,8.00917,0,0,1,184,144ZM248,32h10.707A27.83152,27.83152,0,0,0,256,44a20.02229,20.02229,0,0,1-20,20h-4V48A16.01833,16.01833,0,0,1,248,32ZM168,64V44a12,12,0,0,1,24,0,36.04061,36.04061,0,0,0,36,36h8a36.04061,36.04061,0,0,0,36-36,12,12,0,0,1,24,0V64a32.03667,32.03667,0,0,1-32,32H200A32.03667,32.03667,0,0,1,168,64Zm104,48v16H200a8,8,0,0,1,0-16Zm76.90137,200.10547A153.59332,153.59332,0,0,1,376,399.42676V425a55.06223,55.06223,0,0,1-55,55H143a55.06223,55.06223,0,0,1-55-55V399.42676A154.18343,154.18343,0,0,1,185.55957,256h11.13965A180.61944,180.61944,0,0,0,144,384h16a164.73611,164.73611,0,0,1,48.56934-117.25488L219.31445,256h25.3711l10.74511,10.74512a165.559,165.559,0,0,1,29.96289,40.93652l14.20508-7.36328A181.59341,181.59341,0,0,0,267.30371,256h11.13672A153.56445,153.56445,0,0,1,348.90137,312.10547Z"/><path d="M304,384h16a182.0438,182.0438,0,0,0-4.87891-41.84082l-15.57031,3.68164A166.03769,166.03769,0,0,1,304,384Z"/></g></svg>
