<svg id="Capa_1" enable-background="new 0 0 512 512" height="512" viewBox="0 0 512 512" width="512" xmlns="http://www.w3.org/2000/svg"><g><g><path d="m234.515 188.24c17.908-131.27-52.612-149.379-102.515-149.379s-120.423 18.109-102.515 149.379z" fill="#b9c1cb"/><path d="m51.71 157.619c-10.768 0-19.997 6.577-23.896 15.932.434 4.738.979 9.619 1.67 14.689h24.901v-30.484c-.878-.09-1.771-.137-2.675-.137z" fill="#a0aab7"/><path d="m234.515 188.24c.692-5.07 1.236-9.951 1.67-14.689-3.899-9.355-13.128-15.932-23.896-15.932-.904 0-1.796.047-2.676.137v30.484z" fill="#a0aab7"/><path d="m54.386 206.862v-31.106c-.88-.09-1.772-.137-2.676-.137-14.293 0-25.879 11.587-25.879 25.879 0 14.293 11.586 25.879 25.879 25.879 1.808 0 3.573-.187 5.276-.54-1.692-6.373-2.6-13.068-2.6-19.975z" fill="#e2ae84"/><path d="m212.289 175.619c-.904 0-1.796.047-2.676.137v31.106c0 6.907-.907 13.601-2.6 19.976 1.704.353 3.468.54 5.276.54 14.293 0 25.879-11.587 25.879-25.879.001-14.293-11.586-25.88-25.879-25.88z" fill="#e2ae84"/><path d="m51.71 209.378c-11.128 0-20.613-7.024-24.269-16.879-1.04 2.803-1.61 5.835-1.61 9 0 14.293 11.586 25.879 25.879 25.879 1.808 0 3.573-.187 5.276-.54-1.498-5.641-2.378-11.534-2.561-17.603-.892.094-1.797.143-2.715.143z" fill="#d7a379"/><path d="m212.289 209.378c-.917 0-1.823-.049-2.715-.142-.183 6.068-1.063 11.961-2.561 17.603 1.704.353 3.468.54 5.276.54 14.293 0 25.879-11.587 25.879-25.879 0-3.165-.57-6.197-1.61-9-3.656 9.854-13.141 16.878-24.269 16.878z" fill="#d7a379"/><path d="m131.997 284.476c42.865 0 77.613-34.749 77.613-77.613v-45.203c0-27.019-18.1-76.101-77.611-76.101s-77.611 49.082-77.611 76.101v45.203c0 42.865 34.749 77.613 77.613 77.613z" fill="#f0c69e"/><g fill="#e6ba94"><path d="m132.003 284.476-.003-.001-.003.001z"/><path d="m132 266.475h.003-.005c0 .001.001 0 .002 0-42.863-.001-77.611-34.749-77.611-77.613v18c0 42.864 34.747 77.612 77.611 77.613 42.863-.001 77.611-34.749 77.611-77.613v-18c0 42.864-34.748 77.612-77.611 77.613z"/></g><path d="m256 473.139h-248v-93.036c0-52.814 42.814-95.628 95.628-95.628h56.745c52.814 0 95.628 42.814 95.628 95.628v93.036z" fill="#b3e59f"/><path d="m8 455.139h248v18h-248z" fill="#95d6a4"/><path d="m270.259 329.853c-23.274-35.126 4.438-51.477 4.438-51.477s-14.052-1.098-18.148-19.369c-4.26-19.002 12.057-31.629 12.057-31.629-20.606-135.739 50.134-188.517 111.394-188.517s132 52.778 111.394 188.517c0 0 16.318 12.628 12.057 31.629-4.096 18.271-18.148 19.369-18.148 19.369s27.712 16.35 4.438 51.477" fill="#b9c1cb"/><path d="m416.637 266.476h-73.274c-33.827 0-63.754 16.696-81.992 42.296.944 6.076 3.594 13.091 8.888 21.081h219.482c5.294-7.99 7.944-15.005 8.888-21.081-18.238-25.6-48.165-42.296-81.992-42.296z" fill="#a0aab7"/><path d="m504 473.139h-248v-93.036c0-52.814 42.814-95.628 95.628-95.628h56.745c52.814 0 95.628 42.814 95.628 95.628v93.036z" fill="#dc4955"/><path d="m256 455.139h248v18h-248z" fill="#d82f3c"/><path d="m379.995 284.476c42.865 0 77.613-34.749 77.613-77.613v-45.52c0-15.155-8.061-29.032-20.967-36.975-5.587-3.439-9.874-9.425-13.986-17.966-12.213-25.362-29.675-26.102-42.657-26.102-12.977 0-30.444.739-42.657 26.102-4.113 8.541-8.399 14.527-13.986 17.966-12.907 7.943-20.967 21.82-20.967 36.975v45.52c0 42.865 34.749 77.613 77.613 77.613z" fill="#f0c69e"/><g fill="#e6ba94"><path d="m380 284.476-.003-.001-.002.001z"/><path d="m379.997 266.475h.002-.005c.002.001.002 0 .003 0-42.863-.001-77.611-34.749-77.611-77.613v18c0 42.864 34.747 77.612 77.611 77.613 42.863-.001 77.611-34.749 77.611-77.613v-18c0 42.864-34.747 77.612-77.611 77.613z"/></g><path d="m419.694 345.641c23.211-6.901 25.537-33.864 23.611-54.583-9.801-3.848-20.393-6.118-31.462-6.514.048 1.713.67 37.918-31.845 37.918-.001.001 10.199 31.95 39.696 23.179z" fill="#fcf5f5"/><path d="m340.301 345.641c-23.211-6.901-25.537-33.864-23.611-54.583 9.801-3.848 20.393-6.118 31.462-6.514-.048 1.713-.67 37.918 31.845 37.918 0 .001-10.2 31.95-39.696 23.179z" fill="#fcf5f5"/><path d="m411.84 284.476s1.46 37.987-31.843 37.987-31.843-37.987-31.843-37.987z" fill="#e2ae84"/><path d="m71.025 290.181 25.563 62.177 35.409-22.505-31.795-45.31c-10.214.36-20.022 2.317-29.177 5.638z" fill="#fcf5f5"/><path d="m163.793 284.543-31.795 45.31 35.409 22.505 25.564-62.179c-9.156-3.32-18.964-5.277-29.178-5.636z" fill="#fcf5f5"/><path d="m131.997 329.853-31.842-45.377h63.685z" fill="#e2ae84"/></g><g><path d="m342.444 175.379c-4.149 0-7.512 3.363-7.512 7.512v17.428c0 4.149 3.363 7.512 7.512 7.512s7.512-3.363 7.512-7.512v-17.428c0-4.149-3.363-7.512-7.512-7.512z"/><path d="m410.27 200.32c0 4.149 3.363 7.512 7.512 7.512s7.512-3.363 7.512-7.512v-17.428c0-4.149-3.363-7.512-7.512-7.512s-7.512 3.363-7.512 7.512z"/><path d="m505.92 295.205c-1.388-6.029-4.125-10.847-6.978-14.498 4.886-3.617 9.837-9.732 12.151-20.052 3.937-17.561-5.89-30.501-11.403-36.147 6.512-46.442 5.771-109.303-31.922-153.148-22.049-25.65-53.999-40.361-87.656-40.361-20.09 0-39.895 5.255-57.273 15.196-3.602 2.06-4.851 6.649-2.791 10.25 2.059 3.602 6.65 4.85 10.25 2.791 15.111-8.644 32.336-13.213 49.814-13.213 29.274 0 57.07 12.805 76.263 35.131 19.349 22.507 39.893 65.943 27.884 145.05-.404 2.663.685 5.367 2.795 7.042.513.407 12.518 10.122 9.379 24.123-2.65 11.817-10.269 13.381-11.5 13.557-3.305.146-5.972 2.432-6.788 5.645-.823 3.235.748 6.615 3.623 8.311.074.044 7.416 4.596 9.51 13.694 1.195 5.191.478 10.97-2.108 17.256-15.465-19.304-37.702-32.957-63.077-37.322 23.592-15.179 39.264-41.649 39.264-71.727v-45.594c0-17.725-9.187-33.961-24.576-43.432-3.902-2.4-7.453-7.121-11.177-14.856-14.638-30.397-37.313-30.397-49.495-30.397s-34.857 0-49.495 30.397c-3.724 7.734-7.275 12.455-11.177 14.856-15.389 9.471-24.576 25.707-24.576 43.432v45.594c0 30.078 15.672 56.548 39.266 71.727-25.373 4.365-47.608 18.017-63.073 37.32-2.553-6.207-3.286-11.92-2.153-17.061 2.019-9.158 9.536-13.876 9.554-13.889 2.875-1.696 4.446-5.077 3.623-8.311-.817-3.213-3.484-5.499-6.788-5.645-1.233-.177-8.85-1.742-11.5-13.557-3.139-14.001 8.867-23.716 9.344-24.095 2.156-1.669 3.239-4.373 2.83-7.069-13.043-85.923 11.748-130.297 34.84-152.393 2.998-2.868 3.103-7.624.235-10.621-2.868-2.999-7.624-3.103-10.621-.235-25.298 24.204-52.528 71.808-39.887 161.553-5.513 5.647-15.339 18.588-11.402 36.146 2.367 10.558 7.611 16.629 12.162 20.039-2.857 3.653-5.598 8.474-6.988 14.511-2.495 10.839-.082 22.565 7.139 34.904-2.072 3.711-3.922 7.562-5.532 11.536-13.215-32.624-42.631-57.013-78.218-63.135 15.883-10.219 28.164-25.553 34.498-43.668 18.406-.034 33.371-15.018 33.371-33.432 0-5.273-1.231-10.261-3.414-14.701 7.181-55.466-.711-96.82-23.49-122.918-18.992-21.76-48.245-32.792-86.948-32.792-38.702 0-67.956 11.032-86.948 32.792-22.779 26.098-30.671 67.452-23.49 122.917-2.183 4.44-3.415 9.429-3.415 14.702 0 18.414 14.965 33.399 33.372 33.432 6.337 18.124 18.627 33.463 34.521 43.682-18.34 3.16-35.606 11.222-49.849 23.495-3.143 2.707-3.496 7.452-.788 10.594 2.708 3.143 7.451 3.497 10.595.787 6.326-5.451 13.357-9.915 20.846-13.342l22.74 55.31c1.628 4.238 7.196 6.011 10.977 3.484l23.925-15.206v36.94c0 4.149 3.363 7.512 7.512 7.512s7.512-3.363 7.512-7.512v-36.94l23.925 15.206c3.781 2.527 9.35.753 10.977-3.484l22.743-55.318c30.383 13.964 51.533 44.683 51.533 80.253v85.673h-34.041v-73.832c0-4.149-3.363-7.512-7.512-7.512s-7.512 3.363-7.512 7.512v73.832h-135.242v-73.832c0-4.149-3.363-7.512-7.512-7.512s-7.512 3.363-7.512 7.512v73.832h-34.042v-85.673c0-16.145 4.396-31.936 12.713-45.665 2.15-3.548 1.016-8.167-2.532-10.317-3.55-2.148-8.168-1.015-10.317 2.533-9.74 16.079-14.888 34.562-14.888 53.452v93.185c0 4.149 3.363 7.512 7.512 7.512h248.4 248.401c4.149 0 7.512-3.363 7.512-7.512v-38.827c0-4.149-3.363-7.512-7.512-7.512s-7.512 3.363-7.512 7.512v31.315h-34.042v-73.832c0-4.149-3.363-7.512-7.512-7.512s-7.512 3.363-7.512 7.512v73.832h-135.245v-73.832c0-4.149-3.363-7.512-7.512-7.512s-7.512 3.363-7.512 7.512v73.832h-34.041v-85.673c0-.013 0-.026 0-.039.014-33.048 18.287-61.903 45.256-77.017.332 26.631 10.582 44.106 29.528 49.738 4.07 1.211 8.058 1.809 11.91 1.809 10.186 0 19.428-4.181 26.76-12.281 1.196-1.321 2.264-2.667 3.232-3.999.968 1.332 2.036 2.678 3.232 3.999 7.332 8.101 16.573 12.281 26.76 12.281 3.852 0 7.841-.599 11.91-1.809 18.948-5.634 29.198-23.109 29.528-49.741 26.982 15.119 45.261 43.992 45.261 77.059v24.31c0 4.149 3.363 7.512 7.512 7.512s7.512-3.363 7.512-7.512v-24.31c0-18.207-4.741-35.324-13.044-50.194 7.22-12.34 9.634-24.066 7.138-34.905zm-374.21 21.688-17.445-24.86h17.443.002.005.002 17.438zm84.311-97.495c.614-4.118.939-8.329.939-12.615v-23.117c7.812 2.129 13.58 9.267 13.58 17.744 0 8.816-6.232 16.196-14.519 17.988zm-159.938-145.728c16.238-18.603 40.976-27.647 75.629-27.647s59.391 9.044 75.629 27.647c18.184 20.834 25.322 53.989 21.288 98.679-3.54-2.017-7.478-3.41-11.669-4.019v-6.823c0-18.285-6.752-38.032-18.06-52.822-10.782-14.103-31.191-30.913-67.188-30.913s-56.406 16.81-67.188 30.913c-11.309 14.79-18.06 34.537-18.06 52.822v6.823c-4.191.609-8.129 2.001-11.669 4.019-4.035-44.69 3.104-77.845 21.288-98.679zm-23.199 127.74c0-8.477 5.768-15.615 13.58-17.744v23.117c0 4.286.326 8.497.939 12.615-8.287-1.791-14.519-9.172-14.519-17.988zm28.605 5.373v-45.275c0-11.658 3.933-29.26 14.971-43.697 12.69-16.598 31.28-25.014 55.253-25.014s42.563 8.416 55.253 25.014c11.038 14.437 14.971 32.039 14.971 43.697v45.275c0 38.723-31.503 70.226-70.221 70.226-38.724 0-70.227-31.503-70.227-70.226zm38.292 134.58-19.069-46.38c5.029-1.33 10.184-2.219 15.411-2.645l24.92 35.512zm63.857 0-21.262-13.513 24.928-35.524c5.28.427 10.43 1.321 15.409 2.64zm216.472-26.305c-7.023 0-12.365-1.983-16.332-6.062-4.686-4.819-6.65-11.751-7.471-16.962h23.798.002.005.001.002 23.798c-.822 5.211-2.786 12.143-7.472 16.962-3.967 4.079-9.309 6.062-16.331 6.062zm-70.224-108.275v-45.594c0-12.468 6.514-23.921 17.425-30.636 6.551-4.032 11.745-10.549 16.841-21.134 10.54-21.891 24.633-21.891 35.957-21.891s25.417 0 35.957 21.891c5.097 10.585 10.291 17.103 16.841 21.133 10.911 6.716 17.426 18.169 17.426 30.637v45.594c0 38.723-31.504 70.226-70.222 70.226-38.722 0-70.225-31.503-70.225-70.226zm55.853 125.649c-6.271 6.929-13.878 8.943-23.248 6.154-16.686-4.961-19.594-24.668-18.657-42.043 5.568-1.857 11.38-3.171 17.375-3.883.985 7.537 3.811 18.598 11.798 26.811 4.337 4.459 9.586 7.527 15.68 9.177-.847 1.255-1.826 2.544-2.948 3.784zm51.99 6.154c-13.671 4.066-21.895-3.297-26.306-9.91 6.141-1.642 11.427-4.72 15.789-9.206 7.987-8.214 10.813-19.275 11.798-26.812 5.994.712 11.805 2.025 17.372 3.881 1.625 29.517-9.089 39.203-18.653 42.047z"/><path d="m403.392 151.992c4.149 0 7.512-3.363 7.512-7.512s-3.363-7.512-7.512-7.512h-46.56c-4.149 0-7.512 3.363-7.512 7.512s3.363 7.512 7.512 7.512z"/><path d="m367.112 128.503h26.001c4.149 0 7.512-3.363 7.512-7.512s-3.363-7.512-7.512-7.512h-26.001c-4.149 0-7.512 3.363-7.512 7.512s3.363 7.512 7.512 7.512z"/><path d="m94.043 176.992c-4.149 0-7.512 3.363-7.512 7.512v17.428c0 4.149 3.363 7.512 7.512 7.512s7.512-3.363 7.512-7.512v-17.428c0-4.149-3.363-7.512-7.512-7.512z"/><path d="m161.869 201.932c0 4.149 3.363 7.512 7.512 7.512s7.512-3.363 7.512-7.512v-17.428c0-4.149-3.363-7.512-7.512-7.512s-7.512 3.363-7.512 7.512z"/><path d="m154.992 151.992c4.149 0 7.512-3.363 7.512-7.512s-3.363-7.512-7.512-7.512h-46.56c-4.149 0-7.512 3.363-7.512 7.512s3.363 7.512 7.512 7.512z"/><path d="m118.712 128.503h26.001c4.149 0 7.512-3.363 7.512-7.512s-3.363-7.512-7.512-7.512h-26.001c-4.149 0-7.512 3.363-7.512 7.512s3.363 7.512 7.512 7.512z"/><path d="m403.808 234.904c4.377-9.296-9.013-15.704-13.536-6.555-.001-.001-.008-.006-.008-.007-.232.471-2.493 4.594-10.154 4.594s-9.922-4.123-10.154-4.594c0 .001-.007.005-.008.007-4.523-9.149-17.913-2.741-13.536 6.555 2.415 5.137 9.786 13.085 23.698 13.085s21.282-7.948 23.698-13.085z"/><path d="m155.407 234.904c4.377-9.296-9.013-15.704-13.536-6.555-.001-.001-.008-.006-.008-.007-.232.471-2.493 4.594-10.154 4.594s-9.922-4.123-10.154-4.594c0 .001-.007.005-.008.007-4.523-9.149-17.913-2.741-13.536 6.555 2.415 5.137 9.785 13.085 23.698 13.085s21.283-7.948 23.698-13.085z"/></g></g></svg>