<svg height="512" viewBox="0 0 512 512" width="512" xmlns="http://www.w3.org/2000/svg"><g id="filled_outline" data-name="filled outline"><path d="m24 304v-40l136 56-48 8z" fill="#e8c8b3"/><path d="m280 259.7a47.98 47.98 0 0 0 -42 24.769 32 32 0 1 0 0 46.461 48 48 0 1 0 42-71.23z" fill="#63d5ee"/><g fill="#f5d3bd"><path d="m24 304 80 16 13.1-15.723a136.362 136.362 0 0 1 67.3-43.819 19.55 19.55 0 0 1 22.858 10.055 19.551 19.551 0 0 1 -8.743 26.231 48.669 48.669 0 0 0 -21.769 21.769l-.746 1.487h24v128h-78.6a42 42 0 0 1 -29.7-12.3l-19.7-19.7-48-16z"/><path d="m280 352h-80v-32h80a16 16 0 0 1 16 16 16 16 0 0 1 -16 16z"/><path d="m293.86 344a16.152 16.152 0 0 1 -2.54 3.32 15.987 15.987 0 0 1 -11.32 4.68h-64v-8z"/><path d="m296 384h-96v-32h96a16 16 0 0 1 16 16 16 16 0 0 1 -16 16z"/><path d="m280 416h-80v-32h80a16 16 0 0 1 16 16 16 16 0 0 1 -16 16z"/><path d="m264 448h-64v-32h64a16 16 0 0 1 16 16 16 16 0 0 1 -16 16z"/></g><path d="m232 392a16 16 0 0 0 -16 16 16 16 0 0 0 -32 0v8a16 16 0 0 0 -32 0v8a16 16 0 0 0 -32 0v40a16 16 0 0 0 32 0v-8a16 16 0 0 0 32 0v-8a16 16 0 0 0 32 0v-8a16 16 0 0 0 32 0v-32a16 16 0 0 0 -16-16z" fill="#e8c8b3"/><path d="m456 80h-64v-42a14 14 0 0 1 14-14h36a14 14 0 0 1 14 14z" fill="#e4e4e2"/><path d="m392 40h-72v.165l-42.366 47.835 26.366 18.133 32-34.133h56z" fill="#e4e4e2"/><path d="m408 80h32v64h-32z" fill="#c3c3c3"/><path d="m408 80h32v16h-32z" fill="#a8a8a8"/><path d="m384 144h80v32h-80z" fill="#e4e4e2"/><path d="m384 176h80a24 24 0 0 1 24 24v216a0 0 0 0 1 0 0h-128a0 0 0 0 1 0 0v-216a24 24 0 0 1 24-24z" fill="#0c82ed"/><path d="m270.125 177.416a17.8 17.8 0 0 0 19.75 0 17.8 17.8 0 0 0 5.391-23.972l-15.266-25.444-15.266 25.444a17.8 17.8 0 0 0 5.391 23.972z" fill="#009cf7"/><circle cx="216" cy="216" fill="#63d5ee" r="16"/><circle cx="144" cy="168" fill="#63d5ee" r="24"/><circle cx="352" cy="424" fill="#63d5ee" r="24"/><circle cx="352" cy="424" fill="#6ae4ff" r="16"/><circle cx="144" cy="168" fill="#6ae4ff" r="16"/><circle cx="216" cy="216" fill="#6ae4ff" r="8"/><path d="m302.635 307.705a8 8 0 0 1 -7.543-5.336 16.007 16.007 0 0 0 -25.756-6.594 8 8 0 1 1 -10.672-11.921 32.007 32.007 0 0 1 51.514 13.183 8.007 8.007 0 0 1 -7.543 10.668z" fill="#6ae4ff"/><path d="m400 240h88v112h-88z" fill="#009cf7"/><path d="m400 216h-8a8 8 0 0 1 0-16h8a8 8 0 0 1 0 16z" fill="#009cf7"/><path d="m456 216h-24a8 8 0 0 1 0-16h24a8 8 0 0 1 0 16z" fill="#009cf7"/><path d="m488 392h-72a8 8 0 0 1 0-16h72a8 8 0 0 1 0 16z" fill="#009cf7"/><path d="m384 392h-24a8 8 0 0 1 0-16h24a8 8 0 0 1 0 16z" fill="#009cf7"/><path d="m376 40h16v32h-16z" fill="#c3c3c3"/><path d="m293.86 344a16.152 16.152 0 0 1 -2.54 3.32 15.987 15.987 0 0 1 -11.32 4.68h-60a4 4 0 0 1 -4-4 4 4 0 0 1 4-4z" fill="#e8c8b3"/><path d="m309.86 376a16.152 16.152 0 0 1 -2.54 3.32 15.987 15.987 0 0 1 -11.32 4.68h-76a4 4 0 0 1 -4-4 4 4 0 0 1 4-4z" fill="#e8c8b3"/><path d="m293.86 408a16.152 16.152 0 0 1 -2.54 3.32 15.987 15.987 0 0 1 -11.32 4.68h-80v-8z" fill="#e8c8b3"/><path d="m277.86 440a16.152 16.152 0 0 1 -2.54 3.32 15.987 15.987 0 0 1 -11.32 4.68h-80v-8z" fill="#e8c8b3"/><path d="m232 400a16 16 0 0 0 -16 16 16 16 0 0 0 -32 0v8a16 16 0 0 0 -32 0v8a16 16 0 0 0 -32 0v40a16 16 0 0 0 32 0v-8a16 16 0 0 0 32 0v-8a16 16 0 0 0 32 0v-8a16 16 0 0 0 32 0v-32a16 16 0 0 0 -16-16z" fill="#f5d3bd"/><path d="m21.47 407.589 46.209 15.4 18.362 18.363a49.943 49.943 0 0 0 24.169 13.378 7.962 7.962 0 0 0 1.79.2v17.07a23.99 23.99 0 0 0 44.223 12.9 23.952 23.952 0 0 0 32-8 23.952 23.952 0 0 0 32-8 23.973 23.973 0 0 0 34.4-12.9h9.377a24 24 0 0 0 22.312-32.842 24 24 0 0 0 16-32 23.969 23.969 0 0 0 11.72-38.958 56.008 56.008 0 1 0 -78.027-79.138 39.81 39.81 0 0 0 -20-5.359 7.931 7.931 0 0 0 -1.182.1c-.133-.29-.264-.579-.407-.865a27.562 27.562 0 0 0 -32.21-14.17 143.715 143.715 0 0 0 -63.333 37.661l-92.1-33.933a8 8 0 0 0 -10.773 7.504v136a8 8 0 0 0 5.47 7.589zm122.53 64.411a8 8 0 0 1 -16 0v-40a8 8 0 0 1 16 0zm32-8a8 8 0 0 1 -16 0v-40a8 8 0 0 1 16 0zm32-8a8 8 0 0 1 -16 0v-40a8 8 0 0 1 16 0zm24 0a8.009 8.009 0 0 1 -8-8v-32a8 8 0 0 1 16 0v32a8.009 8.009 0 0 1 -8 8zm32-16h-8v-16h8a8 8 0 0 1 0 16zm-48.093-152.031a27.926 27.926 0 0 0 1.047-4.221 23.875 23.875 0 0 1 15.54 6.533 8 8 0 0 0 12.5-1.93 40 40 0 1 1 58.659 51.613 23.894 23.894 0 0 0 -23.653-27.964h-88.936a40.752 40.752 0 0 1 11.027-8.1 27.372 27.372 0 0 0 13.816-15.931zm-29.307-19.819a11.551 11.551 0 0 1 8.34 21.438 57.025 57.025 0 0 0 -25.346 25.345l-.744 1.487a8 8 0 0 0 7.15 11.58h104a8 8 0 0 1 0 16h-56a8 8 0 0 0 0 16h72a8 8 0 0 1 0 16h-72a8 8 0 0 0 0 16h56a8 8 0 0 1 0 16h-25.376a23.977 23.977 0 0 0 -38.624-9.869 23.959 23.959 0 0 0 -36.223 4.97 23.952 23.952 0 0 0 -32 8 23.982 23.982 0 0 0 -35.777 20.899v6.661a33.961 33.961 0 0 1 -14.645-8.619l-19.7-19.7a8 8 0 0 0 -3.127-1.932l-42.528-14.176v-80.476l70.431 14.087a8 8 0 0 0 7.715-2.723l13.1-15.724a127.867 127.867 0 0 1 63.354-41.248zm-79.087 35.142-6.608 7.93-68.905-13.781v-21.968z"/><path d="m472 169.013v-25.013a8 8 0 0 0 -8-8h-16v-48h8a8 8 0 0 0 8-8v-42a22.025 22.025 0 0 0 -22-22h-36a22.036 22.036 0 0 0 -21.162 16h-64.838a7.994 7.994 0 0 0 -6.786 3.762l-41.569 46.938a8 8 0 0 0 1.456 11.9l26.366 18.133a8 8 0 0 0 10.369-1.12l29.63-31.613h44.534a8 8 0 0 0 8 8h8v48h-16a8 8 0 0 0 -8 8v25.013a32.056 32.056 0 0 0 -24 30.987v192a32 32 0 1 0 32 32h104a8 8 0 0 0 8-8v-216a32.056 32.056 0 0 0 -24-30.987zm8 174.987h-72v-96h72zm-80-306a6.006 6.006 0 0 1 6-6h36a6.006 6.006 0 0 1 6 6v34h-48zm-64 26a8 8 0 0 0 -5.836 2.528l-27.3 29.117-13.248-9.111 34.132-38.534h60.252v16zm80 24h16v48h-16zm-24 64h64v16h-64zm-40 288a16 16 0 1 1 16-16 16.019 16.019 0 0 1 -16 16zm27.7-32a32.238 32.238 0 0 0 -11.7-11.695v-4.305h16a8 8 0 0 0 0-16h-16v-176a16.019 16.019 0 0 1 16-16h80a16.019 16.019 0 0 1 16 16v32h-80a8 8 0 0 0 -8 8v112a8 8 0 0 0 8 8h80v16h-64a8 8 0 0 0 0 16h64v16z"/><path d="m265.688 184.073a25.8 25.8 0 0 0 36.439-34.746l-15.267-25.443a8 8 0 0 0 -13.72 0l-15.267 25.444a25.773 25.773 0 0 0 7.815 34.745zm5.906-26.513 8.406-14.011 8.406 14.01a9.8 9.8 0 1 1 -16.812 0z"/><path d="m216 240a24 24 0 1 0 -24-24 24.027 24.027 0 0 0 24 24zm0-32a8 8 0 1 1 -8 8 8.009 8.009 0 0 1 8-8z"/><path d="m144 200a32 32 0 1 0 -32-32 32.036 32.036 0 0 0 32 32zm0-48a16 16 0 1 1 -16 16 16.019 16.019 0 0 1 16-16z"/><path d="m269.336 295.775a16.007 16.007 0 0 1 25.756 6.594 8 8 0 0 0 15.086-5.332 32.007 32.007 0 0 0 -51.514-13.183 8 8 0 1 0 10.672 11.921z"/><path d="m400 216a8 8 0 0 0 0-16h-8a8 8 0 0 0 0 16z"/><path d="m432 216h24a8 8 0 0 0 0-16h-24a8 8 0 0 0 0 16z"/></g></svg>