<svg height="512" viewBox="0 0 64 64" width="512" xmlns="http://www.w3.org/2000/svg"><g id="Layer_14" data-name="Layer 14"><path d="m30 36h-18v17h5l8.17 8.17a2.83 2.83 0 0 0 2 .83 2.83 2.83 0 0 0 2.83-2.83 2.83 2.83 0 0 0 -.83-2l-4.17-4.17 6.17 6.17a2.83 2.83 0 0 0 2 .83 2.83 2.83 0 0 0 2.83-2.83 2.83 2.83 0 0 0 -.83-2l-5.17-5.17 7.17 7.17a2.83 2.83 0 0 0 2 .83 2.83 2.83 0 0 0 2.83-2.83 2.83 2.83 0 0 0 -.83-2l-6.17-6.17 8.17 8.17a2.83 2.83 0 0 0 2 .83 2.83 2.83 0 0 0 2.83-2.83 2.83 2.83 0 0 0 -.83-2l-10.17-10.17h-4l-5.17 5.17a2.83 2.83 0 0 1 -2 .83 2.83 2.83 0 0 1 -2.83-2.83 2.83 2.83 0 0 1 .83-2z" fill="#fbe1ca"/><path d="m30 36-6.17 6.17a2.83 2.83 0 1 0 4 4l5.17-5.17h4l10.17 10.17a2.8 2.8 0 0 1 .83 1.83h4v-17z" fill="#f2b9a1"/><g fill="#3279ea"><path d="m2 34h10v21h-10z"/><path d="m52 34h10v21h-10z"/><path d="m44 14a12 12 0 1 0 -14.34 11.77l2.34 6.23 2.34-6.23a12 12 0 0 0 9.66-11.77z"/></g><path d="m27.65 14.29 4.59-4.58a2.37 2.37 0 0 1 1.7-.71 2.39 2.39 0 0 1 1.71.71l.59.58a2.44 2.44 0 0 1 .7 1.71 2.44 2.44 0 0 1 -.7 1.71l-4.59 4.58a2.39 2.39 0 0 1 -1.71.71 2.37 2.37 0 0 1 -1.7-.71l-.59-.58a2.45 2.45 0 0 1 -.71-1.71 2.45 2.45 0 0 1 .71-1.71z" fill="#e2e7f6"/><path d="m62 33h-10a1 1 0 0 0 -1 1v1h-38v-1a1 1 0 0 0 -1-1h-10a1 1 0 0 0 -1 1v21a1 1 0 0 0 1 1h10a1 1 0 0 0 1-1v-1h3.59l7.87 7.88a3.81 3.81 0 0 0 6.38-1.69 3.77 3.77 0 0 0 2.33.81 3.81 3.81 0 0 0 3.67-2.81 3.77 3.77 0 0 0 2.33.81 3.81 3.81 0 0 0 3.67-2.81 3.77 3.77 0 0 0 2.33.81 3.83 3.83 0 0 0 3.73-3h2.1v1a1 1 0 0 0 1 1h10a1 1 0 0 0 1-1v-21a1 1 0 0 0 -1-1zm-51 21h-8v-19h8zm34.17 1a1.84 1.84 0 0 1 -1.29-.54l-8.17-8.16-1.42 1.42 6.18 6.17a1.83 1.83 0 0 1 -1.3 3.11 1.84 1.84 0 0 1 -1.29-.54l-7.17-7.16-1.42 1.42 5.18 5.17a1.83 1.83 0 0 1 -1.3 3.11 1.84 1.84 0 0 1 -1.29-.54l-6.17-6.16-1.42 1.42 4.18 4.17a1.83 1.83 0 0 1 -1.3 3.11 1.84 1.84 0 0 1 -1.29-.54l-8.17-8.16a1 1 0 0 0 -.71-.3h-4v-15h14.59l-4.47 4.46a3.83 3.83 0 0 0 5.42 5.42l4.87-4.88h3.18l9.87 9.88a1.78 1.78 0 0 1 .54 1.3 1.83 1.83 0 0 1 -1.83 1.82zm3.63-3a3.87 3.87 0 0 0 -.92-1.54l-10.17-10.16a1 1 0 0 0 -.71-.3h-4a1 1 0 0 0 -.71.29l-5.17 5.17a1.82 1.82 0 0 1 -3.12-1.28 1.78 1.78 0 0 1 .54-1.29l5.87-5.89h20.59v15zm12.2 2h-8v-19h8z"/><path d="m26.65 20.72 1.35-1.34a3.34 3.34 0 0 0 2 .63 3.42 3.42 0 0 0 2.42-1l.08-.09 1.8 1.8 1.41-1.42-1.79-1.79 1.58-1.59 1.8 1.8 1.41-1.42-1.79-1.79.08-.09a3.41 3.41 0 0 0 .38-4.37l1.33-1.33-1.47-1.42-1.34 1.34a3.5 3.5 0 0 0 -4.37.36l-.09.09-1.79-1.79-1.41 1.42 1.76 1.79-1.56 1.59-1.79-1.8-1.41 1.42 1.76 1.79-.09.09a3.39 3.39 0 0 0 -.34 4.4l-1.33 1.3zm7.29-10.72a1.41 1.41 0 0 1 1 .41l.59.59a1.42 1.42 0 0 1 0 2l-4.59 4.58a1.45 1.45 0 0 1 -2 0l-.58-.58a1.4 1.4 0 0 1 0-2l4.58-4.59a1.45 1.45 0 0 1 1-.41z"/><path d="m30.94 4.01h2v2h-2z"/><path d="m29.94 21.01h2v2h-2z"/><path d="m38.94 13.01h2v2h-2z"/><path d="m22.94 13.01h2v2h-2z"/><path d="m28.92 26.64 2.14 5.72a1 1 0 0 0 1.88 0l2.14-5.72a13 13 0 1 0 -6.16 0zm3.08-23.64a11 11 0 0 1 2.14 21.8 1 1 0 0 0 -.74.63l-1.4 3.73-1.4-3.73a1 1 0 0 0 -.74-.63 11 11 0 0 1 2.14-21.8z"/></g></svg>