<?xml version="1.0" encoding="iso-8859-1"?>
<!-- Generator: Adobe Illustrator 19.0.0, SVG Export Plug-In . SVG Version: 6.00 Build 0)  -->
<svg xmlns="http://www.w3.org/2000/svg" xmlns:xlink="http://www.w3.org/1999/xlink" version="1.1" id="Layer_1" x="0px" y="0px" viewBox="0 0 505.063 505.063" style="enable-background:new 0 0 505.063 505.063;" xml:space="preserve" width="512" height="512">
<g>
	<g>
		<path style="fill:#FFD0A6;" d="M469.356,307.798c0,27.027-20.814,49.175-47.279,51.292c-1.38,0.117-2.784,0.176-4.188,0.176    c-3.604,0-7.114-0.363-10.506-1.076h-310c-3.393,0.714-6.903,1.076-10.507,1.076H86.84c-28.419-0.023-51.433-23.049-51.433-51.468    c0-26.793,20.475-48.8,46.636-51.222c1.591-0.164,3.206-0.234,4.832-0.234c2.165,0,4.282,0.129,6.376,0.386h318.26    c2.094-0.257,4.212-0.386,6.377-0.386c3.054,0,6.049,0.269,8.95,0.784C450.998,261.35,469.356,282.433,469.356,307.798z"/>
		<path style="fill:#E8B182;" d="M426.838,257.126v65.192c0,12.659-1.65,24.979-4.762,36.773c-1.38,0.117-2.784,0.176-4.188,0.176    c-3.604,0-7.114-0.363-10.506-1.076h-310c-3.393,0.714-6.903,1.076-10.507,1.076H86.84c-3.135-11.852-4.797-24.219-4.797-36.948    v-65.741c1.591-0.164,3.206-0.234,4.832-0.234c2.165,0,4.282,0.129,6.376,0.386h318.26c2.094-0.257,4.212-0.386,6.377-0.386    C420.942,256.342,423.937,256.611,426.838,257.126z"/>
		<path style="fill:#E8B182;" d="M411.509,233.539V340.5c0,76.54-54.755,140.293-127.236,154.228    c-9.652,1.86-19.632,2.831-29.835,2.831c-86.743,0-157.059-70.316-157.059-157.059v-106.96    c0-86.743,70.316-157.071,157.059-157.071c10.202,0,20.182,0.971,29.835,2.832c31.414,6.037,59.494,21.434,81.232,43.172    C393.924,150.903,411.509,190.168,411.509,233.539z"/>
		<path style="fill:#FFD0A6;" d="M411.509,233.539V340.5c0,76.54-54.755,140.293-127.236,154.228    C211.792,480.793,157.037,417.04,157.037,340.5v-106.96c0-76.54,54.755-140.305,127.236-154.239    c31.414,6.037,59.494,21.434,81.232,43.172C393.924,150.903,411.509,190.168,411.509,233.539z"/>
		<path style="fill:#5B5B68;" d="M411.511,233.539v23.189c-185.946-0.234-247.756-76.283-247.756-76.283    c0,31.59-31.59,64.923-66.373,76.283v-23.189c0-86.743,70.316-157.071,157.059-157.071c10.202,0,20.182,0.971,29.835,2.832    c31.414,6.037,59.494,21.434,81.232,43.172C393.926,150.903,411.511,190.168,411.511,233.539z"/>
		<path style="fill:#40404C;" d="M284.268,79.3c-55.539,10.682-100.666,50.614-118.742,103.134    c-1.205-1.275-1.778-1.989-1.778-1.989c0,31.59-31.59,64.923-66.373,76.283v-23.189c0-86.743,70.316-157.071,157.059-157.071    C264.636,76.469,274.616,77.44,284.268,79.3z"/>
		<path style="fill:#F95C5C;" d="M367.295,15.752l-54.391,111.73c-3.534,7.261,1.753,15.715,9.828,15.715h34.858l-25.739,68.308    c-3.861,10.247,8.277,19.034,16.806,12.166l116.79-94.052c8.249-6.643,3.552-19.965-7.039-19.965h-38.305l45.508-80.238    c5.549-9.783-1.518-21.916-12.765-21.916h-72.355C374.876,7.5,369.753,10.704,367.295,15.752z"/>
	</g>
	<g>
		<path d="M419.014,248.869v-15.325c0-17.272-2.669-34.24-7.923-50.523l59.06-47.562c6.27-5.049,8.591-13.217,5.915-20.809    s-9.608-12.497-17.658-12.497h-25.429l39.156-69.038c3.938-6.942,3.89-15.205-0.127-22.102C467.99,4.118,460.827,0,452.845,0    H380.49c-8.424,0-16.25,4.894-19.938,12.469c0,0,0,0,0,0l-35.287,72.488c-12.578-6.007-25.853-10.382-39.568-13.017    c-10.216-1.968-20.731-2.966-31.253-2.966c-39.266,0-77.286,14.058-107.056,39.585c-3.145,2.696-3.508,7.431-0.812,10.575    c1.483,1.73,3.583,2.618,5.697,2.618c1.728,0,3.464-0.594,4.878-1.807c27.053-23.197,61.605-35.972,97.292-35.972    c9.572,0,19.133,0.907,28.419,2.696c12.421,2.387,24.437,6.356,35.83,11.787l-12.531,25.742    c-2.799,5.749-2.446,12.418,0.944,17.839c3.391,5.422,9.232,8.659,15.627,8.659h24.017l-21.917,58.164    c-2.94,7.803-0.378,16.331,6.376,21.221c3.244,2.349,6.983,3.517,10.714,3.517c4.036,0,8.062-1.368,11.437-4.085l45.126-36.341    c3.666,13.087,5.526,26.622,5.526,40.373v15.625c-51.381-0.675-122.173-7.902-181.723-36.873    c-37.232-18.113-52.583-36.419-52.717-36.582c-2.003-2.463-5.34-3.399-8.33-2.337c-2.992,1.062-4.99,3.893-4.99,7.067    c0,13.107-6.476,27.572-18.235,40.729c-9.13,10.216-20.839,18.821-33.135,24.525v-12.155c0-33.083,10.58-64.434,30.597-90.661    c2.513-3.293,1.881-8-1.412-10.512c-3.292-2.513-7.999-1.88-10.512,1.412c-22.029,28.865-33.673,63.362-33.673,99.762v15.369    c-1.257-0.043-2.361-0.073-3.012-0.073c-32.516,0-58.97,26.449-58.97,58.96c0,32.516,26.454,58.97,58.97,58.97    c1.697,0,3.391-0.09,5.079-0.235c12.516,78.412,80.611,138.527,162.493,138.527c10.523,0,21.039-0.999,31.25-2.966    c43.633-8.388,82.597-34.681,106.902-72.136c2.255-3.475,1.266-8.119-2.209-10.374c-3.474-2.255-8.119-1.265-10.374,2.209    c-22.095,34.05-57.504,57.949-97.154,65.572c-9.282,1.789-18.842,2.696-28.415,2.696c-82.467,0-149.559-67.092-149.559-149.559    v-78.508c16.557-6.398,32.136-17.193,44.319-30.826c9.878-11.053,16.673-23.121,19.902-35.092    c8.972,7.669,23.703,18.431,45.486,29.15c35.086,17.265,96.169,37.776,189.423,38.94v76.336c0,19.694-3.766,38.83-11.194,56.877    c-1.577,3.831,0.25,8.213,4.081,9.79c0.934,0.384,1.901,0.566,2.852,0.566c2.949,0,5.747-1.751,6.938-4.647    c4.83-11.736,8.242-23.891,10.236-36.337c0.322,0.005,0.643,0.018,0.965,0.018c32.511,0,58.96-26.454,58.96-58.97    C476.852,275.666,451.007,249.472,419.014,248.869z M343.953,217.829c-1.684,1.356-3.197,0.645-3.948,0.102    c-0.751-0.544-1.898-1.759-1.136-3.781l25.739-68.308c0.868-2.304,0.55-4.887-0.85-6.912c-1.401-2.024-3.706-3.233-6.168-3.233    h-34.858c-1.654,0-2.533-1.01-2.909-1.612c-0.376-0.602-0.899-1.833-0.175-3.32l54.391-111.73l0,0    c1.193-2.451,3.726-4.035,6.452-4.035h72.355c3.723,0,5.576,2.492,6.2,3.564s1.878,3.914,0.041,7.151l-45.508,80.238    c-1.317,2.322-1.3,5.168,0.043,7.475c1.344,2.307,3.812,3.725,6.481,3.725h38.305c2.378,0,3.248,1.738,3.511,2.485    c0.264,0.747,0.676,2.646-1.176,4.138L343.953,217.829z M86.872,351.771c-24.245,0-43.97-19.725-43.97-43.97    c0-24.24,19.725-43.96,43.97-43.96c0.541,0,1.659,0.033,3.012,0.082v25.151c-10.25-0.221-23.09,3.309-29.166,17.283    c-1.652,3.798,0.089,8.217,3.888,9.868c0.974,0.424,1.988,0.624,2.986,0.624c2.896,0,5.654-1.687,6.882-4.512    c3.216-7.398,10.342-8.529,15.41-8.289v36.456c0,3.738,0.137,7.445,0.384,11.122C89.139,351.713,88.007,351.771,86.872,351.771z     M418.63,351.752c0.25-3.729,0.384-7.479,0.384-11.248v-36.456c5.067-0.239,12.185,0.896,15.4,8.289    c1.228,2.825,3.986,4.512,6.882,4.512c0.998,0,2.013-0.201,2.986-0.624c3.799-1.651,5.54-6.07,3.888-9.868    c-6.073-13.969-18.907-17.501-29.156-17.283v-25.205c23.722,0.599,42.838,20.068,42.838,43.932    C461.852,331.798,442.529,351.355,418.63,351.752z"/>
		<path d="M216.51,407.98c20.917-20.917,54.949-20.916,75.865,0c1.464,1.464,3.384,2.197,5.303,2.197s3.839-0.732,5.303-2.197    c2.929-2.929,2.929-7.678,0-10.606c-26.765-26.765-70.313-26.764-97.078,0c-2.929,2.929-2.929,7.678,0,10.606    C208.832,410.909,213.581,410.909,216.51,407.98z"/>
		<path d="M165.935,339.268c0.992,3.225,3.96,5.296,7.166,5.296c0.73,0,1.474-0.107,2.208-0.333l39.642-12.198    c2.514-0.774,4.439-2.808,5.073-5.361c0.634-2.553-0.116-5.251-1.976-7.111l-26.682-26.682c-2.929-2.929-7.678-2.929-10.606,0    c-2.929,2.929-2.929,7.678,0,10.606l17.874,17.874l-27.736,8.534C166.939,331.112,164.717,335.309,165.935,339.268z"/>
		<path d="M334.722,344.564c3.206,0,6.174-2.072,7.166-5.296c1.218-3.959-1.004-8.156-4.963-9.374l-27.735-8.534l17.874-17.874    c2.929-2.929,2.929-7.678,0-10.606c-2.929-2.93-7.678-2.929-10.606,0l-26.682,26.682c-1.86,1.86-2.61,4.558-1.976,7.111    c0.634,2.553,2.559,4.587,5.073,5.361l39.642,12.198C333.249,344.457,333.992,344.564,334.722,344.564z"/>
		<path d="M73.872,91.309l-29.004,6.693c-2.4,0.554-4.375,2.251-5.284,4.54c-0.909,2.289-0.636,4.879,0.73,6.928l30.494,45.741    c1.445,2.168,3.823,3.341,6.247,3.341c1.43,0,2.875-0.408,4.153-1.261c3.447-2.297,4.378-6.954,2.08-10.4l-24.475-36.712    l29.069-6.708c2.407-0.556,4.387-2.261,5.292-4.56s0.62-4.896-0.762-6.944L50.218,29.454c-2.317-3.434-6.98-4.34-10.412-2.021    c-3.434,2.317-4.338,6.979-2.021,10.412L73.872,91.309z"/>
		<path d="M130.73,92.402c1.221,2.839,3.987,4.539,6.893,4.539c0.989,0,1.994-0.197,2.96-0.612c3.805-1.637,5.563-6.048,3.926-9.854    l-12.095-28.117l19.811-0.893c2.468-0.111,4.724-1.431,6.029-3.528c1.306-2.098,1.495-4.704,0.506-6.967l-15.482-35.432    c-1.659-3.796-6.083-5.53-9.875-3.87c-3.796,1.659-5.528,6.08-3.87,9.875l11.111,25.428l-19.744,0.89    c-2.461,0.111-4.71,1.422-6.018,3.51c-1.308,2.087-1.507,4.684-0.534,6.946L130.73,92.402z"/>
	</g>
</g>















</svg>
