<?xml version="1.0" encoding="UTF-8" standalone="no"?>
<svg
   xmlns:dc="http://purl.org/dc/elements/1.1/"
   xmlns:cc="http://creativecommons.org/ns#"
   xmlns:rdf="http://www.w3.org/1999/02/22-rdf-syntax-ns#"
   xmlns:svg="http://www.w3.org/2000/svg"
   xmlns="http://www.w3.org/2000/svg"
   xmlns:sodipodi="http://sodipodi.sourceforge.net/DTD/sodipodi-0.dtd"
   xmlns:inkscape="http://www.inkscape.org/namespaces/inkscape"
   id="Capa_1"
   enable-background="new 0 0 512 512"
   height="382.06699"
   viewBox="0 0 665.13598 382.06699"
   width="665.13599"
   version="1.1"
   sodipodi:docname="healthy-habits.svg"
   inkscape:version="0.92.4 (fd57863, 2020-04-02)">
  <metadata
     id="metadata168">
    <rdf:RDF>
      <cc:Work
         rdf:about="">
        <dc:format>image/svg+xml</dc:format>
        <dc:type
           rdf:resource="http://purl.org/dc/dcmitype/StillImage" />
        <dc:title></dc:title>
      </cc:Work>
    </rdf:RDF>
  </metadata>
  <defs
     id="defs166" />
  <sodipodi:namedview
     pagecolor="#ffffff"
     bordercolor="#666666"
     borderopacity="1"
     objecttolerance="10"
     gridtolerance="10"
     guidetolerance="10"
     inkscape:pageopacity="0"
     inkscape:pageshadow="2"
     inkscape:window-width="1366"
     inkscape:window-height="743"
     id="namedview164"
     showgrid="false"
     inkscape:zoom="1.1054687"
     inkscape:cx="471.79146"
     inkscape:cy="196.96666"
     inkscape:window-x="0"
     inkscape:window-y="0"
     inkscape:window-maximized="1"
     inkscape:current-layer="Capa_1" />
  <path
     d="m 410.2037,301.74853 c -5.3483,-20.13476 -6.4681,-41.25177 -2.6189,-61.73237 1.6245,-8.64509 2.4471,-17.7499 2.4471,-27.3002 0,-9.5503 -0.8226,-18.65428 -2.4471,-27.30021 -3.8484,-20.4806 -2.7294,-41.59761 2.6189,-61.73237 l 7.8826,-29.675846 c 2.7152,-10.22272 -6.5578,-19.57707 -16.6915,-16.838 l -26.5083,7.16544 c -24.1034,6.51481 -49.4454,6.24182 -73.5489,-0.26963 -25.5403,-6.89916 -55.3225,-10.46388 -89.0758,-10.46388 -33.7533,0 -63.5354,3.56472 -89.0758,10.46388 -24.1042,6.51145 -49.446202,6.78444 -73.548802,0.26963 l -26.5083,-7.16544 c -10.1338,-2.73907 -19.4067004,6.61528 -16.6915,16.838 l 7.8826,29.675846 c 5.3483,20.13476 6.4681,41.25177 2.6189,61.73237 -1.6245,8.64509 -2.4471,17.74991 -2.4471,27.30021 0,9.5503 0.8226,18.65427 2.4471,27.3002 3.8483,20.4806 2.7294,41.59761 -2.6189,61.73237 l -7.8826,29.67585 c -2.7152004,10.22272 6.5577,19.57707 16.6915,16.83801 l 26.5083,-7.16545 c 24.1034,-6.5148 49.445402,-6.24182 73.548802,0.26964 25.5404,6.89916 55.3225,10.46388 89.0758,10.46388 33.7533,0 63.5355,-3.56472 89.0758,-10.46388 24.1043,-6.51146 49.4463,-6.78444 73.5489,-0.26964 l 26.5083,7.16545 c 10.1337,2.73906 19.4067,-6.61529 16.6915,-16.83801 z"
     id="path135"
     inkscape:connector-curvature="0"
     style="fill:#e5ecf1;stroke-width:0.83372849" />
  <path
     d="m 410.2037,301.74853 c -5.3483,-20.1356 -6.4681,-41.25177 -2.6189,-61.7332 1.6245,-8.6451 2.4471,-17.74991 2.4471,-27.30021 0,-9.5503 -0.8226,-18.65428 -2.4471,-27.30021 -3.8484,-20.4806 -2.7294,-41.59761 2.6189,-61.7332 l 7.8826,-29.675856 c 2.7152,-10.22271 -6.5578,-19.57706 -16.6915,-16.838 l -26.5083,7.16545 c -9.5577,2.58331 -19.3113,4.08222 -29.1039,4.56538 l -0.2391,0.89935 c -5.3483,20.134756 -6.4681,41.251766 -2.619,61.733196 1.6245,8.6451 2.4472,17.74991 2.4472,27.30021 0,9.5503 -0.8227,18.65428 -2.4472,27.30021 -3.8483,20.4806 -2.7293,41.59761 2.619,61.73237 l 7.8826,29.67585 c 2.7152,10.22271 -6.5578,19.57707 -16.6916,16.838 l -26.5082,-7.16544 c -24.1035,-6.51481 -49.4454,-6.24182 -73.5489,0.26963 -25.5403,6.89916 -55.3225,10.46388 -89.0758,10.46388 -33.7533,0 -63.535402,-3.56472 -89.075802,-10.46388 -14.5457,-3.92981 -29.5422,-5.5694 -44.4457,-4.83418 l -7.6435,28.77734 c -2.7153004,10.22272 6.5577,19.57707 16.6915,16.838 l 26.5082,-7.16544 c 24.1035,-6.51481 49.445502,-6.24182 73.548902,0.26963 25.5404,6.89916 55.3225,10.46388 89.0758,10.46388 33.7533,0 63.5355,-3.56472 89.0758,-10.46388 24.1043,-6.51145 49.4463,-6.78444 73.5489,-0.26963 l 26.5082,7.16544 c 10.1338,2.73907 19.4068,-6.61528 16.6916,-16.838 z"
     id="path137"
     inkscape:connector-curvature="0"
     style="fill:#d6e4ea;stroke-width:0.83372849" />
  <path
     d="m 237.6586,147.30666 h -50.2515 c -35.7862,0 -64.7971,29.26554 -64.7971,65.36575 v 45.33902 h 179.8458 v -45.33902 c 0,-36.10021 -29.011,-65.36575 -64.7972,-65.36575 z"
     id="path139"
     inkscape:connector-curvature="0"
     style="fill:#a64c31;stroke-width:0.83372849" />
  <path
     d="m 238.7352,147.30666 h -26.4103 c 35.1919,0 63.7206,28.77902 63.7206,64.27967 v 46.42426 h 26.4103 v -46.42426 c 0,-35.49981 -28.5287,-64.27967 -63.7206,-64.27967 z"
     id="path141"
     inkscape:connector-curvature="0"
     style="fill:#8a3e25;stroke-width:0.83372849" />
  <path
     d="m 292.5079,252.18746 c -0.5055,-0.0377 -0.9953,-0.0477 -1.4784,-0.0452 v -26.67469 c 0,-14.35099 -11.5325,-25.98468 -25.7586,-25.98468 H 160.3386 c -14.2262,0 -25.7587,11.63369 -25.7587,25.98468 v 26.71572 c -0.8218,-0.0569 -1.6743,-0.0611 -2.5666,0.005 -12.7569,0.94791 -22.6226,8.23143 -21.5078,23.49934 1.0908,14.94637 12.3012,31.99037 24.7402,31.81368 5.0112,38.7053 37.8241,68.59217 77.559,68.59217 39.745,0 72.5644,-29.90194 77.5632,-68.62148 11.9957,-0.79467 22.5886,-17.27762 23.6478,-31.78437 1.1148,-15.26791 -8.7509,-22.55227 -21.5078,-23.50018 z"
     id="path143"
     inkscape:connector-curvature="0"
     style="fill:#ffcbbe;stroke-width:0.83372849" />
  <path
     d="m 292.5079,252.18746 c -0.5055,-0.0377 -0.9953,-0.0477 -1.4784,-0.0452 v -26.67469 c 0,-14.35099 -11.5325,-25.98468 -25.7586,-25.98468 h -8.8065 c 4.4617,4.67257 7.211,11.02157 7.211,18.02122 v 71.71475 c 0,43.58136 -35.0225,78.91119 -78.2248,78.91119 -2.5907,0 -5.1516,-0.13064 -7.6775,-0.3785 10.5397,5.33494 22.4366,8.34196 35.0316,8.34196 39.745,0 72.5644,-29.90194 77.5632,-68.62148 11.9966,-0.79467 22.5886,-17.27762 23.6478,-31.78437 1.1148,-15.26791 -8.7509,-22.55227 -21.5078,-23.50018 z"
     id="path145"
     inkscape:connector-curvature="0"
     style="fill:#fdad9d;stroke-width:0.83372849" />
  <path
     d="m 115.5865,333.1452 c -22.513002,-4.60893 -45.872702,-3.94741 -67.554702,1.91341 l -26.5083,7.16544 c -3.742,1.01072 -6.2664,-1.01992 -7.1786,-1.9402 -0.9123,-0.92028 -2.9261,-3.46759 -1.9234,-7.24165 l 7.8826,-29.67585 c 5.6878,-21.4126 6.6292,-43.7212 2.7219,-64.51498 -1.5523,-8.25822 -2.3392,-17.05153 -2.3392,-26.13541 0,-9.08388 0.7869,-17.87719 2.3392,-26.13626 3.9073,-20.79294 2.9659,-43.10153 -2.7219,-64.51497 l -7.8826,-29.675846 c -1.0027,-3.77407 1.0111,-6.32137 1.9234,-7.24165 0.9122,-0.91944 3.4366,-2.95176 7.1778,-1.94021 l 26.5091,7.16545 c 15.2438,4.1199 31.0804,5.68915 47.069702,4.66085 3.4158,-0.2194 6.0082,-3.19041 5.7907,-6.63623 -0.2175,-3.44581 -3.1668,-6.06513 -6.5785,-5.84155 -14.642002,0.94122 -29.134702,-0.49321 -43.073602,-4.26058 l -26.5091,-7.16544 c -6.9213,-1.87071 -14.0817,0.0645 -19.1494,5.17583 -5.0686005,5.11303 -6.9861004,12.33458 -5.1317005,19.31916 L 8.332498,125.30036 c 5.2088,19.60889 6.0788,39.99319 2.5168,58.9506 -1.6958,9.02442 -2.5558,18.60068 -2.5558,28.46416 0,9.86348 0.86,19.43974 2.5558,28.46416 3.562,18.95825 2.6912,39.34339 -2.5168,58.9506 l -7.8826005,29.67585 c -1.8543999,6.98374 0.063,14.20612 5.1317005,19.31832 3.796,3.82933 8.7641,5.87588 13.9281,5.87588 1.7308,0 3.4839,-0.23028 5.2213,-0.69921 l 26.5083,-7.16544 c 19.84,-5.36257 41.2391,-5.96381 61.881902,-1.73756 3.3535,0.68581 6.6249,-1.49975 7.3056,-4.88276 0.6815,-3.38301 -1.4859,-6.68311 -4.8403,-7.36976 z"
     id="path147"
     inkscape:connector-curvature="0"
     style="stroke-width:0.83372849" />
  <path
     d="m 416.1895,300.13072 c -5.2088,-19.60805 -6.0788,-39.99235 -2.5168,-58.9506 1.6959,-9.02443 2.5558,-18.60152 2.5558,-28.46416 0,-9.86265 -0.8599,-19.4389 -2.5558,-28.46417 -3.562,-18.95741 -2.692,-39.34171 2.5168,-58.95059 l 7.8826,-29.675856 c 1.8544,-6.98373 -0.063,-14.20612 -5.1316,-19.31831 -5.0678,-5.1122 -12.2265,-7.04654 -19.1503,-5.17668 l -26.5083,7.16545 c -22.6757,6.13045 -46.9999,6.03582 -70.343,-0.26964 -26.226,-7.08422 -56.7345,-10.67657 -90.6787,-10.67657 -33.9442,0 -64.4527,3.59235 -90.6787,10.67657 -3.3063,0.89265 -5.2686,4.32088 -4.3829,7.65532 0.8849,3.33527 4.2824,5.31567 7.5887,4.42135 25.1801,-6.80202 54.6103,-10.25034 87.4729,-10.25034 32.8626,0 62.2919,3.44916 87.4729,10.25034 25.4399,6.87321 51.9821,6.96532 76.7563,0.26964 l 26.5083,-7.16545 c 3.7395,-1.01239 6.2655,1.01993 7.1786,1.94021 0.9123,0.92028 2.9261,3.46758 1.9234,7.24165 l -7.8826,29.675846 c -5.6878,21.41344 -6.6292,43.72203 -2.7219,64.51497 1.5514,8.25907 2.3384,17.05238 2.3384,26.13626 0,9.08388 -0.787,17.87719 -2.3384,26.13541 -3.9073,20.79294 -2.9659,43.10238 2.7219,64.51498 l 7.8826,29.67585 c 1.0027,3.77406 -1.0111,6.32137 -1.9234,7.24165 -0.9123,0.91944 -3.4366,2.95259 -7.1778,1.9402 l -26.5082,-7.16544 c -24.7734,-6.69568 -51.3148,-6.60273 -76.7572,0.26963 -4.236,1.1447 -8.6239,2.19812 -13.1238,3.15776 4.3538,-7.88057 7.5231,-16.53823 9.2099,-25.75609 13.3271,-4.31585 23.2758,-21.50639 24.3765,-36.58422 0.8334,-11.40509 -3.5702,-18.29169 -7.4111,-22.05989 -1.2401,-1.21671 -2.6314,-2.29107 -4.1313,-3.24987 v -39.2496 c 0,-38.8912 -31.3652,-70.53154 -69.9181,-70.53154 h -52.4039 c -38.5529,0 -69.918,31.64034 -69.918,70.53154 v 38.91214 c -1.7133,1.03751 -3.2872,2.22575 -4.6759,3.58816 -3.8409,3.76821 -8.2445,10.6548 -7.4119,22.0599 1.1588,15.86915 11.8819,33.26569 25.5262,36.91331 7.4468,39.8232 42.2975,69.28552 82.9539,69.28552 25.097,0 47.967,-11.23511 63.5578,-29.19268 9.2398,-1.54664 18.1799,-3.47764 26.5763,-5.74693 23.3431,-6.3063 47.6665,-6.39925 70.3422,-0.26964 l 26.5091,7.16545 c 1.7374,0.46977 3.4897,0.69921 5.2205,0.69921 5.164,0 10.1329,-2.04655 13.929,-5.87588 5.0685,-5.11304 6.986,-12.33459 5.1316,-19.31832 z m -203.3839,69.71091 c -36.0519,0 -66.7529,-27.14865 -71.4147,-63.15089 -0.4076,-3.14687 -3.0465,-5.47729 -6.2324,-5.44128 -8.0461,0.11807 -17.5407,-13.26157 -18.4729,-26.02237 -0.3868,-5.2981 0.8558,-9.39623 3.6931,-12.17967 2.6895,-2.63858 6.8698,-4.23881 12.0903,-4.62652 0.5645,-0.0419 1.1148,-0.0427 1.6826,-0.003 1.7092,0.12059 3.4001,-0.48316 4.656,-1.66554 1.2559,-1.18238 1.969,-2.83788 1.969,-4.57041 V 225.4679 c 0,-10.88089 8.7757,-19.73282 19.562,-19.73282 h 65.9693 c 3.4225,0 6.1966,-2.79851 6.1966,-6.25103 0,-3.45251 -2.7741,-6.25103 -6.1966,-6.25103 h -65.9693 c -15.8606,0 -29.0533,11.71911 -31.532,27.02304 v -8.66686 c 0,-31.99707 25.8052,-58.02865 57.5239,-58.02865 h 52.4039 c 31.7187,0 57.5239,26.03158 57.5239,58.02865 v 6.00567 c -3.4931,-13.98087 -16.059,-24.36101 -30.9874,-24.36101 h -8.6662 c -3.4225,0 -6.1967,2.79852 -6.1967,6.25103 0,3.45251 2.7742,6.25103 6.1967,6.25103 h 8.667 c 10.7862,0 19.5612,8.85193 19.5612,19.73282 v 26.67553 c 0,1.66387 0.6582,3.25991 1.8278,4.43308 1.1613,1.16479 2.7319,1.81794 4.3688,1.81794 h 0.036 c 0.3869,-8.3e-4 0.699,0.007 0.987,0.0285 5.2197,0.3877 9.4008,1.98709 12.0904,4.62651 2.8372,2.78345 4.079,6.88158 3.693,12.17967 -0.9023,12.35468 -9.9229,25.47891 -17.8736,26.00562 -2.9526,0.19595 -5.3566,2.47027 -5.7384,5.43124 -4.651,36.0148 -35.3537,63.17517 -71.4188,63.17517 z"
     id="path149"
     inkscape:connector-curvature="0"
     style="stroke-width:0.83372849" />
  <path
     d="m 226.6698,308.00124 c -3.7944,3.31518 -8.9111,5.1415 -14.4088,5.1415 -5.4977,0 -10.6144,-1.82632 -14.4088,-5.1415 -2.5857,-2.26092 -6.4996,-1.97789 -8.7409,0.63138 -2.2412,2.60927 -1.9607,6.55751 0.6259,8.81759 6.0464,5.2847 14.0461,8.19459 22.5238,8.19459 8.4778,0 16.4774,-2.91073 22.5238,-8.19459 2.5866,-2.26008 2.8671,-6.20832 0.6259,-8.81759 -2.2404,-2.61011 -6.1552,-2.89314 -8.7409,-0.63138 z"
     id="path151"
     inkscape:connector-curvature="0"
     style="stroke-width:0.83372849" />
  <path
     d="m 262.617,262.90004 c -3.2656,-1.02914 -6.742,0.81142 -7.7605,4.10818 -0.9214,2.98274 -3.625,4.98575 -6.7271,4.98575 -3.1021,0 -5.8057,-2.00385 -6.7271,-4.98575 -1.0185,-3.29592 -4.4925,-5.13481 -7.7605,-4.10818 -3.2673,1.02746 -5.091,4.53273 -4.0725,7.82865 2.5443,8.23478 10.0027,13.76817 18.5593,13.76817 8.5566,0 16.015,-5.53339 18.5592,-13.76817 1.0202,-3.29676 -0.8027,-6.80119 -4.0708,-7.82865 z"
     id="path153"
     inkscape:connector-curvature="0"
     style="stroke-width:0.83372849" />
  <path
     d="m 196.0393,270.72869 c 1.0185,-3.29592 -0.8044,-6.80119 -4.0724,-7.82865 -3.2656,-1.02914 -6.7421,0.81142 -7.7606,4.10818 -0.9214,2.98274 -3.625,4.98575 -6.7263,4.98575 -3.1012,0 -5.8056,-2.00385 -6.727,-4.98575 -1.0186,-3.29592 -4.4933,-5.13481 -7.7606,-4.10818 -3.2672,1.02746 -5.091,4.53273 -4.0724,7.82865 2.5442,8.23478 10.0034,13.76817 18.5592,13.76817 8.5575,0 16.0159,-5.53339 18.5601,-13.76817 z"
     id="path155"
     inkscape:connector-curvature="0"
     style="stroke-width:0.83372849" />
  <path
     d="m 314.6474,168.21097 c 0,5.13229 2.9186,6.81459 7.9224,6.81459 h 37.1119 c 3.9197,0 7.089,-2.01976 7.089,-5.80471 0,-3.78579 -3.1693,-5.80554 -7.089,-5.80554 H 332.995 l 31.4406,-37.68956 c 1.2518,-1.43025 1.9184,-3.28085 1.9184,-4.96315 0,-4.79566 -2.8356,-6.30964 -6.3378,-6.30964 h -36.0278 c -3.9197,0 -7.089,2.01892 -7.089,5.80471 0,3.78578 3.1693,5.80554 7.089,5.80554 h 23.852 l -30.941,36.848 c -1.2509,1.51398 -2.252,3.11253 -2.252,5.29976 z"
     id="path157"
     inkscape:connector-curvature="0"
     style="stroke-width:0.83372849" />
  <path
     d="m 345.0728,66.932584 h 29.0492 c 2.1084,0 4.607,-1.18154 4.607,-4.49003 0,-3.30848 -2.4986,-4.49002 -4.607,-4.49002 h -18.7411 l 21.0836,-23.31764 c 1.0933,-1.18154 1.7963,-2.60006 1.7963,-3.86031 0,-2.99363 -1.6402,-5.04186 -4.6858,-5.04186 h -27.0968 c -2.1085,0 -4.607,1.18238 -4.607,4.49086 0,3.30849 2.4985,4.49003 4.607,4.49003 h 16.4774 l -21.4746,23.55294 c -1.0152,1.10282 -1.4834,2.52051 -1.4834,4.17517 0,2.2852 1.7175,4.49086 5.0752,4.49086 z"
     id="path159"
     inkscape:connector-curvature="0"
     style="stroke-width:0.83372849" />
  <path
     d="m 299.3454,31.105344 h 21.7369 c 1.578,0 3.4473,-0.88427 3.4473,-3.35956 0,-2.47613 -1.8702,-3.35956 -3.4473,-3.35956 H 307.0586 L 322.8354,6.9386038 c 0.8185,-0.88427 1.3439,-1.94523 1.3439,-2.88811 0,-2.23999 -1.2268,-3.77238997 -3.5063,-3.77238997 h -20.2759 c -1.578,0 -3.4473,0.88426997 -3.4473,3.36039997 0,2.47612 1.8702,3.35956 3.4473,3.35956 h 12.3294 L 296.6576,24.622364 c -0.7596,0.82566 -1.1099,1.88661 -1.1099,3.12426 0,1.70825 1.2858,3.35872 3.7977,3.35872 z"
     id="path161"
     inkscape:connector-curvature="0"
     style="stroke-width:0.83372849" />
  <g
     id="g435"
     transform="matrix(0.45132469,0,0,0.43883083,433.8144,157.72735)">
    <path
       id="path343"
       d="m 85.332031,307.19922 c -4.714843,0 -8.535156,-3.82031 -8.535156,-8.53125 1.148437,-24.58985 11.125,-47.94141 28.101565,-65.76953 3.33203,-3.33203 8.73437,-3.33594 12.07031,-0.004 3.33594,3.33203 3.33594,8.73828 0.004,12.07031 -13.72266,14.66407 -21.894535,33.65625 -23.109379,53.70313 0,4.71094 -3.820312,8.53125 -8.53125,8.53125 z m 0,0"
       inkscape:connector-curvature="0"
       style="fill:#804537" />
    <path
       id="path345"
       d="m 93.183594,265.38672 c -6.144532,-42.41016 -43.519532,-16.46875 -43.519532,-16.46875 3.21875,9.51953 8.726563,18.10547 16.039063,25.0039 l 28.160156,24.7461 z m 0,0"
       inkscape:connector-curvature="0"
       style="fill:#4caf50" />
    <path
       id="path347"
       d="m 131.15625,300.11719 c -9.95703,-13.1836 -24.35937,-22.3125 -40.535156,-25.6836 h -0.08594 c -0.316406,-0.0234 -0.632812,-0.082 -0.9375,-0.17187 -4.21875,-0.78906 -8.503906,-1.19141 -12.800781,-1.19531 -3.710937,0.0234 -7.417969,0.30859 -11.09375,0.85546 -26.035156,4.26954 -47.28125,23.16797 -54.5625,48.52735 -7.28125,25.36328 0.707031,52.65234 20.515625,70.08594 L 128,418.13281 Z m 0,0"
       inkscape:connector-curvature="0"
       style="fill:#ff9801" />
    <path
       id="path349"
       d="m 375.46484,25.601562 h 51.19922 v 51.199219 h -51.19922 z m 0,0"
       inkscape:connector-curvature="0"
       style="fill:#4527a0" />
    <path
       id="path351"
       d="m 371.19922,8.535156 h 59.73437 c 7.06641,0 12.79688,5.730469 12.79688,12.796875 0,7.070313 -5.73047,12.800781 -12.79688,12.800781 h -59.73437 c -7.07031,0 -12.80078,-5.730468 -12.80078,-12.800781 0,-7.066406 5.73047,-12.796875 12.80078,-12.796875 z m 0,0"
       inkscape:connector-curvature="0"
       style="fill:#9d27b0" />
    <path
       id="path353"
       d="m 469.33203,281.60156 h 17.06641 c 9.41406,0.0274 17.03906,7.65235 17.0664,17.06641 -0.0703,9.39453 -7.66797,16.99609 -17.0664,17.0664 9.41406,0.0274 17.03906,7.65235 17.0664,17.06641 -0.0703,9.39453 -7.66797,16.99609 -17.0664,17.06641 h -17.06641 c 18.85156,0 34.13281,15.28125 34.13281,34.13281 v 85.33203 c 0,18.85156 -15.28125,34.13281 -34.13281,34.13281 H 332.79687 c -18.85156,0 -34.13281,-15.28125 -34.13281,-34.13281 V 384 c 0,-18.85156 15.28125,-34.13281 34.13281,-34.13281 h -17.0664 c -2.60547,-0.0274 -5.17188,-0.64063 -7.50781,-1.79297 -0.71875,-0.30078 -1.40235,-0.67578 -2.04688,-1.10938 -4.69922,-3.18359 -7.51172,-8.48828 -7.51172,-14.16406 0.0703,-9.39844 7.67188,-16.99609 17.06641,-17.06641 -9.41406,-0.0273 -17.03906,-7.65234 -17.06641,-17.0664 -0.0234,-4.52735 1.79297,-8.8711 5.03516,-12.03516 0.76172,-0.77734 1.58984,-1.49219 2.47656,-2.13281 2.81641,-1.91016 6.14844,-2.92188 9.55469,-2.89844 h 17.0664 c -18.85156,0 -34.13281,-15.28515 -34.13281,-34.13672 V 162.13281 C 298.66406,143.28125 313.94531,128 332.79687,128 h 136.53516 c 18.85156,0 34.13281,15.28125 34.13281,34.13281 v 85.33203 c 0,18.85157 -15.28125,34.13672 -34.13281,34.13672 z m 0,0"
       inkscape:connector-curvature="0"
       style="fill:#0377bc" />
    <path
       id="path355"
       d="m 443.73047,281.60156 h 17.0664 c 2.60547,0.0234 5.17579,0.63672 7.51172,1.78906 l 0.0859,0.0859 c 0.70313,0.23828 1.36328,0.58594 1.96094,1.02344 4.69922,3.18359 7.51172,8.49219 7.50781,14.16797 -0.0664,9.39453 -7.66797,16.99609 -17.06641,17.0664 9.41407,0.0274 17.03907,7.65235 17.06641,17.06641 0.0274,4.52735 -1.79297,8.87109 -5.03125,12.03125 -0.76562,0.78125 -1.59375,1.49219 -2.47656,2.13281 -0.6836,0.42578 -1.36328,0.85547 -2.04688,1.19532 -2.34375,1.125 -4.91015,1.71093 -7.51172,1.70703 h -17.0664 c 18.85156,0 34.13281,15.28125 34.13281,34.13281 v 85.33203 c 0,18.85156 -15.28125,34.13281 -34.13281,34.13281 h -110.9336 c -18.85156,0 -34.13281,-15.28125 -34.13281,-34.13281 V 384 c 0,-18.85156 15.28125,-34.13281 34.13281,-34.13281 h -17.0664 c -2.60547,-0.0274 -5.17188,-0.64063 -7.50781,-1.79297 -0.71875,-0.30078 -1.40235,-0.67578 -2.04688,-1.10938 -4.69922,-3.18359 -7.51172,-8.48828 -7.51172,-14.16406 0.0703,-9.39844 7.67188,-16.99609 17.06641,-17.06641 -9.41406,-0.0273 -17.03906,-7.65234 -17.06641,-17.0664 -0.0234,-4.52735 1.79297,-8.8711 5.03516,-12.03516 0.76172,-0.77734 1.58984,-1.49219 2.47656,-2.13281 2.81641,-1.91016 6.14844,-2.92188 9.55469,-2.89844 h 17.0664 c -18.85156,0 -34.13281,-15.28515 -34.13281,-34.13672 V 162.13281 C 298.66406,143.28125 313.94531,128 332.79687,128 h 110.9336 c 18.85156,0 34.13281,15.28125 34.13281,34.13281 v 85.33203 c 0,18.85157 -15.28125,34.13672 -34.13281,34.13672 z m 0,0"
       inkscape:connector-curvature="0"
       style="fill:#02a9f4" />
    <path
       id="path357"
       d="m 503.46484,298.66797 c -0.0703,9.39453 -7.66797,16.99609 -17.0664,17.0664 H 315.73047 c -9.41406,-0.0273 -17.03906,-7.65234 -17.06641,-17.0664 0.0703,-9.39844 7.67188,-17 17.06641,-17.06641 h 170.66797 c 9.41406,0.0274 17.03906,7.65235 17.0664,17.06641 z m 0,0"
       inkscape:connector-curvature="0"
       style="fill:#00838f" />
    <path
       id="path359"
       d="m 503.46484,332.80078 c -0.0703,9.39453 -7.66797,16.99609 -17.0664,17.06641 H 315.73047 c -9.41406,-0.0274 -17.03906,-7.65235 -17.06641,-17.06641 0.0703,-9.39844 7.67188,-16.99609 17.06641,-17.06641 h 170.66797 c 9.41406,0.0274 17.03906,7.65235 17.0664,17.06641 z m 0,0"
       inkscape:connector-curvature="0"
       style="fill:#00838f" />
    <path
       id="path361"
       d="m 477.86328,298.66797 c -0.0664,9.39453 -7.66797,16.99609 -17.06641,17.0664 h -145.0664 c -9.41406,-0.0273 -17.03906,-7.65234 -17.06641,-17.0664 0.0703,-9.39844 7.67188,-17 17.06641,-17.06641 h 145.0664 c 9.41407,0.0274 17.03907,7.65235 17.06641,17.06641 z m 0,0"
       inkscape:connector-curvature="0"
       style="fill:#00bcd4" />
    <path
       id="path363"
       d="m 477.86328,332.80078 c -0.0664,9.39453 -7.66797,16.99609 -17.06641,17.06641 h -145.0664 c -9.41406,-0.0274 -17.03906,-7.65235 -17.06641,-17.06641 0.0703,-9.39844 7.67188,-16.99609 17.06641,-17.06641 h 145.0664 c 9.41407,0.0274 17.03907,7.65235 17.06641,17.06641 z m 0,0"
       inkscape:connector-curvature="0"
       style="fill:#00bcd4" />
    <path
       id="path365"
       d="M 469.33203,93.867188 V 128 H 332.79687 V 93.867188 c 0,-14.140626 11.46485,-25.601563 25.60157,-25.601563 h 85.33203 c 14.14062,0 25.60156,11.460937 25.60156,25.601563 z m 0,0"
       inkscape:connector-curvature="0"
       style="fill:#6a1b9a" />
    <path
       id="path367"
       d="M 443.73047,93.867188 V 128 H 332.79687 V 93.867188 c 0,-14.140626 11.46485,-25.601563 25.60157,-25.601563 h 59.73437 c 14.13672,0 25.59766,11.460937 25.59766,25.601563 z m 0,0"
       inkscape:connector-curvature="0"
       style="fill:#9d27b0" />
    <path
       id="path369"
       d="m 332.79687,179.19922 c -4.71093,0 -8.53125,-3.82031 -8.53125,-8.53125 v -8.53516 c 0,-4.71094 3.82032,-8.53125 8.53125,-8.53125 4.71485,0 8.53516,3.82031 8.53516,8.53125 v 8.53516 c 0,4.71094 -3.82031,8.53125 -8.53516,8.53125 z m 0,0"
       inkscape:connector-curvature="0"
       style="fill:#b0d3f0" />
    <path
       id="path371"
       d="m 332.79687,256 c -4.71093,0 -8.53125,-3.82031 -8.53125,-8.53516 v -42.66406 c 0,-4.71484 3.82032,-8.53516 8.53125,-8.53516 4.71485,0 8.53516,3.82032 8.53516,8.53516 v 42.66406 c 0,4.71485 -3.82031,8.53516 -8.53516,8.53516 z m 0,0"
       inkscape:connector-curvature="0"
       style="fill:#b0d3f0" />
    <path
       id="path373"
       d="m 325.20312,392.53516 c 4.86719,-5.03907 7.58985,-11.76954 7.59375,-18.77344 -0.0391,-10.3086 -5.83593,-19.72656 -15.01562,-24.40625 0.88672,-3.16797 1.34766,-6.44141 1.36328,-9.73047 0,-18.85156 -15.28125,-34.13281 -34.13281,-34.13281 -2.29297,0.0117 -4.57813,0.24218 -6.82813,0.68359 v -0.68359 c -0.0234,-17.76953 -11.49218,-33.50391 -28.40625,-38.96875 -16.91015,-5.46094 -35.41797,0.58984 -45.83203,14.99218 l -33.28125,170.75 z m 0,0"
       inkscape:connector-curvature="0"
       style="fill:#3f51b5" />
    <path
       id="path375"
       d="m 104.19141,392.53516 c -3.60157,-8.65625 -5.457035,-17.9336 -5.460941,-27.3086 0.1875,-23.40234 11.578121,-45.29687 30.632811,-58.8789 h 0.0859 l 100.17969,3.41406 c 16.60546,13.64453 26.26953,33.97265 26.37109,55.46484 -0.008,9.375 -1.86328,18.65235 -5.46484,27.3086 z m 0,0"
       inkscape:connector-curvature="0"
       style="fill:#f44335" />
    <path
       id="path377"
       d="m 226.64453,335.10547 c -1.82422,3.64062 -4.44922,6.82031 -7.67969,9.30078 -0.9414,0.68359 -11.6914,6.57031 -12.11718,5.46094 0,0 -9.21875,-25.60157 -27.64844,-25.60157 -18.4336,0 -27.64844,25.60157 -27.64844,25.60157 -0.42578,1.10937 -11.17969,-4.77735 -12.11719,-5.46094 -3.23047,-2.48047 -5.85547,-5.66016 -7.67968,-9.30078 -4.81641,-11.19141 -5,-23.83203 -0.51172,-35.16016 2.86328,-10.02734 11.55078,-17.29687 21.92968,-18.34375 9.4375,-0.51172 18.72266,2.53125 26.02735,8.53125 7.30078,-6 16.58984,-9.04297 26.02734,-8.53125 10.375,1.04688 19.06641,8.31641 21.92969,18.34375 4.48828,11.32813 4.30469,23.96875 -0.51172,35.16016 z m 0,0"
       inkscape:connector-curvature="0"
       style="fill:#4caf50" />
    <path
       id="path379"
       d="m 179.19922,307.19922 c -0.57422,0.004 -1.14453,-0.0508 -1.70703,-0.16797 -4.60938,-0.92578 -7.60547,-5.39844 -6.69922,-10.01172 0.30859,-1.60547 6.88672,-37.86328 -22.34766,-59.79297 -3.76953,-2.82812 -4.53515,-8.17578 -1.70703,-11.94531 2.82813,-3.77344 8.17578,-4.53516 11.94531,-1.70703 38,28.5 29.23438,74.8125 28.84375,76.80078 -0.80859,3.96094 -4.28515,6.80859 -8.32812,6.82422 z m 0,0"
       inkscape:connector-curvature="0"
       style="fill:#804537" />
    <path
       id="path381"
       d="m 363.85937,413.44141 c -10.33593,40.65234 -39.8164,73.73046 -79.01953,88.66015 -2.125,0.91797 -4.42187,1.38281 -6.73828,1.36328 H 97.363281 c -2.34375,0.0195 -4.667969,-0.44531 -6.828125,-1.36328 -39.167968,-14.95312 -68.609375,-48.02734 -78.929687,-88.66015 -1.171875,-5.07032 0.03516,-10.39844 3.273437,-14.46875 3.242188,-4.07032 8.160156,-6.44141 13.363282,-6.4375 H 347.21875 c 5.20312,-0.004 10.125,2.36718 13.36719,6.4375 3.23828,4.07031 4.44531,9.39843 3.27343,14.46875 z m 0,0"
       inkscape:connector-curvature="0"
       style="fill:#ad1457" />
    <path
       id="path383"
       d="m 335.61328,413.44141 c -10.29297,40.64843 -39.74609,73.73437 -78.93359,88.66015 -2.125,0.91797 -4.42188,1.38281 -6.73828,1.36328 H 97.363281 c -2.34375,0.0195 -4.667969,-0.44531 -6.828125,-1.36328 -39.167968,-14.95312 -68.609375,-48.02734 -78.929687,-88.66015 -1.171875,-5.07032 0.03516,-10.39844 3.273437,-14.46875 3.242188,-4.07032 8.160156,-6.44141 13.363282,-6.4375 H 318.97266 c 5.21484,-0.0391 10.16015,2.32421 13.40625,6.40234 3.25,4.08203 4.4414,9.42969 3.23437,14.50391 z m 0,0"
       inkscape:connector-curvature="0"
       style="fill:#e91e63" />
    <path
       id="path385"
       d="m 59.730469,435.19922 h -8.53125 c -4.714844,0 -8.535157,-3.82031 -8.535157,-8.53125 0,-4.71485 3.820313,-8.53516 8.535157,-8.53516 h 8.53125 c 4.714843,0 8.535156,3.82031 8.535156,8.53516 0,4.71094 -3.820313,8.53125 -8.535156,8.53125 z m 0,0"
       inkscape:connector-curvature="0"
       style="fill:#fb7b76" />
    <path
       id="path387"
       d="M 324.26562,435.19922 H 93.863281 c -4.710937,0 -8.53125,-3.82031 -8.53125,-8.53125 0,-4.71485 3.820313,-8.53516 8.53125,-8.53516 H 324.26562 c 4.71094,0 8.53125,3.82031 8.53125,8.53516 0,4.71094 -3.82031,8.53125 -8.53125,8.53125 z m 0,0"
       inkscape:connector-curvature="0"
       style="fill:#fb7b76" />
    <path
       id="path389"
       d="M 477.86328,120.32031 V 93.867188 c 0,-18.851563 -15.28125,-34.132813 -34.13281,-34.132813 h -8.53125 V 42.230469 C 445.91797,40.03125 453.23828,30.078125 452.13672,19.1875 451.03516,8.300781 441.875,0.0117188 430.93359,0 h -59.73437 c -10.94531,0.0117188 -20.10547,8.300781 -21.20703,19.1875 -1.09766,10.890625 6.21875,20.84375 16.9414,23.042969 v 17.503906 h -8.53515 c -18.85157,0 -34.13282,15.28125 -34.13282,34.132813 v 26.453122 c -19.85156,4.08203 -34.10937,21.54688 -34.13281,41.8125 v 85.33203 c 0.008,11.05078 4.32422,21.66016 12.03125,29.57813 -7.10547,4.44922 -11.57422,12.10547 -11.94531,20.48047 -1.42578,-0.17188 -2.80859,-0.48828 -4.26953,-0.51953 -3.30469,-18.8711 -17.20313,-34.14063 -35.6836,-39.19922 -18.48046,-5.0586 -38.21875,1.0039 -50.67187,15.5625 -3.94922,0.28125 -7.84375,1.05078 -11.60547,2.28515 -2.02734,-20.69531 -12.64453,-39.58984 -29.26953,-52.07812 -3.76953,-2.82813 -9.12109,-2.06641 -11.94531,1.70703 -2.82813,3.76953 -2.06641,9.11719 1.70312,11.94531 12.36328,9.3125 20.44141,23.22656 22.39453,38.57813 -5.82812,-2.09766 -12.01562,-3.03125 -18.20312,-2.73828 -9.15235,0.65234 -17.57422,5.23828 -23.08985,12.57031 -8.11718,-7.71875 -17.82812,-13.5625 -28.45312,-17.11719 4.07031,-8.60547 9.41016,-16.54297 15.84766,-23.55469 3.33203,-3.33203 3.33203,-8.73828 -0.004,-12.07031 -3.33594,-3.33203 -8.73828,-3.32812 -12.07031,0.004 -3.58594,3.75781 -6.859378,7.80078 -9.796878,12.08593 -2.804687,-4.51953 -6.902343,-8.08984 -11.765624,-10.24218 -16.878907,-7.33594 -36.371094,5.64843 -38.539063,7.15234 -3.285156,2.27734 -4.550781,6.53516 -3.035156,10.23828 2.34375,5.9336 5.242187,11.62891 8.652343,17.01563 -22.851562,8.36328 -40.390624,27.05859 -47.277343,50.39843 -6.882813,23.33985 -2.296875,48.5625 12.359375,67.98438 -2.886719,1.61328 -5.433594,3.76953 -7.503906,6.35156 -4.8125,6.08203 -6.53125,14.05078 -4.65625,21.57813 C 14.359375,458.6875 45.625,493.90625 87.242188,509.96875 90.453125,511.30859 93.902344,512 97.378906,512 H 278.10156 c 3.46485,0 6.90235,-0.6875 10.10156,-2.02344 5.76563,-2.46484 11.39063,-5.25 16.84375,-8.34375 7.71094,6.66797 17.5586,10.34766 27.75,10.36719 H 469.33203 C 492.88281,511.97266 511.96875,492.88672 512,469.33203 V 384 c -0.0117,-11.03906 -4.32031,-21.64453 -12.01563,-29.55859 1.59766,-0.99219 3.07422,-2.16407 4.40235,-3.5 4.89844,-4.76172 7.64453,-11.3125 7.61328,-18.14063 -0.0234,-6.32031 -2.39844,-12.40234 -6.65625,-17.06641 5.10156,-5.57421 7.44922,-13.1289 6.41016,-20.60937 -1.03907,-7.48438 -5.35938,-14.11328 -11.78907,-18.08203 C 507.67187,269.125 511.98828,258.51562 512,247.46484 v -85.33203 c -0.0273,-20.26562 -14.28125,-37.73047 -34.13672,-41.8125 z M 371.19922,17.066406 h 59.73437 c 2.35547,0 4.26563,1.910156 4.26563,4.265625 0,2.359375 -1.91016,4.269531 -4.26563,4.269531 h -59.73437 c -2.35547,0 -4.26563,-1.910156 -4.26563,-4.269531 0,-2.355469 1.91016,-4.265625 4.26563,-4.265625 z M 384,42.667969 h 34.13281 V 59.734375 H 384 Z m -42.66797,51.199219 c 0,-9.425782 7.64063,-17.066407 17.06641,-17.066407 h 85.33203 c 9.42578,0 17.06641,7.640625 17.06641,17.066407 V 119.46484 H 341.33203 Z m -34.13281,68.265622 c 0,-14.13672 11.46094,-25.59765 25.59765,-25.59765 h 136.53516 c 14.13672,0 25.60156,11.46093 25.60156,25.59765 v 85.33203 c 0,14.14063 -11.46484,25.60157 -25.60156,25.60157 H 332.79687 c -14.13671,0 -25.59765,-11.46094 -25.59765,-25.60157 z m 179.19922,128 c 4.71094,0 8.53515,3.82031 8.53515,8.53516 0,4.71094 -3.82421,8.53125 -8.53515,8.53125 H 315.73047 c -4.71094,0 -8.53125,-3.82031 -8.53125,-8.53125 0,-4.71485 3.82031,-8.53516 8.53125,-8.53516 z m 8.53515,42.66797 c 0.004,2.29688 -0.9414,4.5 -2.61328,6.07422 -1.55468,1.59375 -3.69531,2.48047 -5.92187,2.45703 H 327.55859 c 0,-0.57031 0.1211,-1.14062 0.1211,-1.70703 -0.0234,-5.25781 -1.02735,-10.46875 -2.96094,-15.35937 h 161.67969 c 4.71094,0 8.53515,3.82031 8.53515,8.53515 z m -225.28125,-26.625 c 0,2.54688 1.13672,4.95703 3.09766,6.57813 1.96484,1.62109 4.54688,2.28125 7.04688,1.80078 1.71875,-0.33985 3.46484,-0.51563 5.21484,-0.52735 14.13672,0 25.60156,11.46094 25.60156,25.59766 -0.0195,2.54297 -0.38281,5.06641 -1.07812,7.51172 -1.03907,3.86719 0.7539,7.9414 4.3125,9.78515 6.34765,3.22266 10.37109,9.71875 10.41797,16.83985 0,3.64453 -1.08594,7.21094 -3.125,10.23828 h -58.95704 c 1.53516,-6.14063 2.32032,-12.44531 2.34766,-18.77344 -0.17578,-22.83203 -9.99219,-44.52734 -27.02344,-59.73437 -0.58984,-2.84375 -1.36718,-5.64453 -2.33203,-8.38672 -2.66015,-7.85547 -7.86328,-14.59766 -14.78515,-19.16797 5.05078,-3.14844 10.8789,-4.83594 16.83593,-4.87109 8.70313,0.0508 17.02344,3.57421 23.11719,9.79296 6.08984,6.21875 9.44141,14.61329 9.30859,23.31641 z M 110.17969,384 c -6.19141,-19.45703 -2.39844,-40.71484 10.13672,-56.83203 0.69531,4.08594 1.96875,8.05078 3.78906,11.77734 2.42578,4.82813 5.92969,9.03125 10.24219,12.28516 5.10547,3.73047 11.01562,6.21094 17.2539,7.23828 0.75391,0.0117 1.50391,-0.0859 2.22657,-0.28906 2.6289,-0.80078 4.74609,-2.76172 5.74218,-5.31641 v -0.0937 c 0.10547,-0.29297 7.67969,-19.96875 19.62891,-19.96875 11.94531,0 19.49609,19.67578 19.625,19.96875 v 0.0937 c 1,2.55469 3.11719,4.51563 5.74219,5.31641 0.72656,0.20312 1.47656,0.30078 2.23047,0.28906 6.24218,-1.03125 12.16015,-3.51172 17.26953,-7.24609 4.30859,-3.25 7.8125,-7.44922 10.23828,-12.26954 1.23437,-2.53515 2.21484,-5.18359 2.92969,-7.91015 10.3125,15.64062 13,35.10937 7.30468,52.95703 z m 33.40234,-37.12891 c 0.17188,-0.46484 0.38672,-0.91015 0.63672,-1.33984 -0.1875,0.49609 -0.34766,0.96484 -0.49219,1.39844 z m 70.59375,-1.33984 c 0.25,0.42969 0.46485,0.875 0.64063,1.33984 l -0.14453,0.0586 c -0.14454,-0.47657 -0.3086,-0.90235 -0.48829,-1.39844 z m -60.52734,-55.39844 c 6.1875,-0.26172 12.30469,1.40625 17.5039,4.76953 -0.14453,1.19532 -0.28125,1.9375 -0.32421,2.14453 -0.89063,4.58985 2.08203,9.04297 6.66406,9.98438 0.5625,0.11719 1.13281,0.17187 1.70703,0.16797 4.05078,-0.004 7.54297,-2.85547 8.35156,-6.82422 0.37891,-2.0625 0.64844,-4.14063 0.8125,-6.23047 4.98828,-2.86328 10.6875,-4.25391 16.4336,-4.01172 6.84765,1.09375 12.44531,6.05078 14.35546,12.71485 0.87891,2.47265 1.5586,5.01171 2.03125,7.59375 0,0.10546 0.043,0.1875 0.0508,0.29296 1.46093,6.92579 0.70312,14.13672 -2.16797,20.60547 -1.16407,2.34766 -2.83203,4.41016 -4.88282,6.04297 -0.52734,0.33203 -1.70703,0.97266 -2.96875,1.65625 -5.46093,-10.10547 -16.11718,-23.30469 -32.01562,-23.30469 -15.89844,0 -26.56641,13.20704 -31.98438,23.28516 -1.20312,-0.62109 -2.22656,-1.18359 -2.62109,-1.42187 -2.19922,-1.66797 -3.98828,-3.82032 -5.21875,-6.28907 -3.78125,-9.11718 -3.80859,-19.35156 -0.0781,-28.48437 1.91406,-6.66016 7.51171,-11.60938 14.35156,-12.69141 z M 76.550781,250.41016 c 4.554688,3.1875 7.414063,8.26953 7.78125,13.8164 l -0.273437,0.65625 c -5.109375,-0.46094 -10.257813,-0.41406 -15.359375,0.14453 -3.269531,-3.73828 -5.988281,-7.92578 -8.0625,-12.4414 4.828125,-2.73828 10.527343,-3.51563 15.914062,-2.17578 z m -9.632812,31.95703 c 3.898437,-0.57422 7.84375,-0.8086 11.785156,-0.70703 -1.238281,5.58593 -1.878906,11.28515 -1.90625,17.00781 0,4.71094 3.820313,8.53125 8.535156,8.53125 4.710938,0 8.53125,-3.82031 8.53125,-8.53125 0.02734,-4.66797 0.574219,-9.32031 1.632813,-13.86719 9.980466,3.3125 18.898436,9.22656 25.835936,17.125 -19.52344,15.21875 -30.996092,38.54688 -31.136718,63.30078 0.02734,6.32813 0.816407,12.63281 2.347657,18.77344 H 35.121094 C 19,368.30859 13.074219,344.88672 19.792969,323.41406 c 6.714843,-21.46875 24.933593,-37.33984 47.125,-41.04687 z M 281.55469,494.25781 c -1.08203,0.44922 -2.24219,0.67578 -3.41406,0.67578 H 97.378906 c -1.203125,0.008 -2.398437,-0.22265 -3.515625,-0.68359 -36.777343,-13.79688 -64.4375,-44.78125 -73.992187,-82.88281 -0.609375,-2.4375 -0.04297,-5.01563 1.527344,-6.97266 1.640624,-2.10547 4.160156,-3.33594 6.828124,-3.32812 H 347.20313 c 2.66796,-0.008 5.1875,1.22265 6.82421,3.32812 1.57422,1.95703 2.14063,4.53516 1.53125,6.97266 -9.77734,37.98828 -37.35937,68.88672 -74.0039,82.89062 z m 213.3789,-24.92578 c 0,14.14063 -11.46484,25.60156 -25.60156,25.60156 H 332.79688 c -4.28907,-0.0391 -8.4961,-1.16406 -12.23438,-3.26953 25.60547,-18.55469 43.85938,-45.53125 51.56641,-76.20312 1.875,-7.52735 0.15234,-15.4961 -4.66016,-21.57813 C 362.60547,387.62891 355.125,383.98047 347.20313,384 h -7.53516 c 2.74219,-8.44531 2.08203,-17.62891 -1.83594,-25.60156 h 131.5 c 14.13672,0 25.60156,11.46484 25.60156,25.60156 z m 0,0"
       inkscape:connector-curvature="0" />
    <path
       id="path391"
       d="m 332.79687,179.19922 c 4.71485,0 8.53516,-3.82031 8.53516,-8.53125 v -8.53516 c 0,-4.71094 -3.82031,-8.53125 -8.53516,-8.53125 -4.71093,0 -8.53125,3.82031 -8.53125,8.53125 v 8.53516 c 0,4.71094 3.82032,8.53125 8.53125,8.53125 z m 0,0"
       inkscape:connector-curvature="0" />
    <path
       id="path393"
       d="m 332.79687,256 c 4.71485,0 8.53516,-3.82031 8.53516,-8.53516 v -42.66406 c 0,-4.71484 -3.82031,-8.53516 -8.53516,-8.53516 -4.71093,0 -8.53125,3.82032 -8.53125,8.53516 v 42.66406 c 0,4.71485 3.82032,8.53516 8.53125,8.53516 z m 0,0"
       inkscape:connector-curvature="0" />
    <path
       id="path395"
       d="m 59.730469,418.13281 h -8.53125 c -4.714844,0 -8.535157,3.82031 -8.535157,8.53516 0,4.71094 3.820313,8.53125 8.535157,8.53125 h 8.53125 c 4.714843,0 8.535156,-3.82031 8.535156,-8.53125 0,-4.71485 -3.820313,-8.53516 -8.535156,-8.53516 z m 0,0"
       inkscape:connector-curvature="0" />
    <path
       id="path397"
       d="m 332.79687,426.66797 c 0,-4.71485 -3.82031,-8.53516 -8.53125,-8.53516 H 93.863281 c -4.710937,0 -8.53125,3.82031 -8.53125,8.53516 0,4.71094 3.820313,8.53125 8.53125,8.53125 H 324.26562 c 4.71094,0 8.53125,-3.82031 8.53125,-8.53125 z m 0,0"
       inkscape:connector-curvature="0" />
  </g>
</svg>
