<svg id="Layer_2" enable-background="new 0 0 64 64" height="512" viewBox="0 0 64 64" width="512" xmlns="http://www.w3.org/2000/svg"><g><g><g><path d="m13 32.21v1.79l-7-1v-6.05c0-1.08.87-1.95 1.95-1.95.66 0 1.27.33 1.63.87l2.75 4.12c.44.66.67 1.43.67 2.22z" fill="#f0d0b4"/></g><g><path d="m37 37-3 3-5.35-5.35-5.74-5.74v-.01c1.12-.4 1.31-1.9 2.75-1.9 1.52 0 1.66 1.65 2.92 1.95.34.08.64.27.88.51l3.09 3.09z" fill="#e6e9ed"/></g><g><path d="m40 40.88c0 .04 0 .08-.01.12-.02.53-.26 1.03-.61 1.38-.38.38-.92.62-1.5.62-.46 0-.9-.15-1.26-.42-.09-.06-.16-.12-.24-.2l-2.38-2.38 3-3 .13.13 2.25 2.25c.4.4.62.94.62 1.5z" fill="#5cd6b3"/></g><g><path d="m44 38.59v2.41h-4-.01c.01-.04.01-.08.01-.12 0-.56-.22-1.1-.62-1.5l-2.25-2.25c.37-.84 1.05-1.5 1.89-1.86.43-.17.89-.27 1.38-.27 1 0 1.9.4 2.55 1.05s1.05 1.55 1.05 2.54z" fill="#f0d0b4"/></g><g><path d="m15 52-2.95 2.36c-1.33 1.06-2.98 1.64-4.67 1.64-1.48 0-2.83-.6-3.8-1.58-.98-.97-1.58-2.32-1.58-3.8 0-.41.05-.82.14-1.23l3.86-16.39 7 1-1.73 9.8 3.91-2.93c.3 1.21.98 2.24 1.91 2.97s2.09 1.16 3.35 1.16c.92 0 1.72-.62 1.94-1.51l.62-2.49.62 2.49c.22.89 1.02 1.51 1.94 1.51 1.26 0 2.44-.44 3.37-1.18s1.61-1.78 1.9-3l5.67 4.18.12-2.42c.36.27.8.42 1.26.42.58 0 1.12-.24 1.5-.62.35-.35.59-.85.61-1.38h.01 4v13.85c0 2.85-2.3 5.15-5.15 5.15-.89 0-1.74-.23-2.49-.64-.75-.42-1.4-1.02-1.87-1.78l-3.49-5.58v10h-16z" fill="#ef7385"/></g><g><path d="m35.96 8h.04 15 2 1c4.42 0 8 3.58 8 8 0 2.21-.9 4.21-2.34 5.66-1.45 1.44-3.45 2.34-5.66 2.34h-8l-3.59 3.59c-.26.26-.62.41-1 .41-.78 0-1.41-.63-1.41-1.41v-2.59h-4c-4.42 0-8-3.58-8-8 0-2.21.9-4.21 2.34-5.66 1.44-1.43 3.43-2.33 5.62-2.34z" fill="#5cd6b3"/></g><g><path d="m40 26.59v3.87c0 1.69-.35 3.32-.98 4.81-.84.36-1.52 1.02-1.89 1.86l-.13-.13-4.45-4.45c2.11-1.83 3.45-4.53 3.45-7.55v-1h4z" fill="#fcd770"/></g><g><path d="m36.62 42.58-.12 2.42-5.67-4.18-3.83-2.82-1-3c.92 0 1.8-.12 2.65-.35l5.35 5.35 2.38 2.38c.08.08.15.14.24.2z" fill="#fcd770"/></g><g><path d="m22.91 28.9v.01l5.74 5.74c-.85.23-1.73.35-2.65.35h-4c-.68 0-1.34-.07-1.97-.19-2.95-.6-5.43-2.48-6.82-5.04-.77-1.42-1.21-3.05-1.21-4.77v-9c0-1.66 1.34-3 3-3 .65 0 1.28.21 1.8.6l2.07 1.55c.73.55 1.63.85 2.55.85h6.58c0 4.42 3.58 8 8 8v1c0 3.02-1.34 5.72-3.45 7.55l-3.09-3.09c-.24-.24-.54-.43-.88-.51-1.26-.3-1.4-1.95-2.92-1.95-1.44 0-1.63 1.5-2.75 1.9z" fill="#f0d0b4"/></g><g><path d="m23 2c5.19 0 9.84 2.33 12.96 6-2.19.01-4.18.91-5.62 2.34-1.44 1.45-2.34 3.45-2.34 5.66h-6.58c-.92 0-1.82-.3-2.55-.85l-2.07-1.55c-.52-.39-1.15-.6-1.8-.6-1.66 0-3 1.34-3 3v9c0 1.72.44 3.35 1.21 4.77l-.88.22-2.75-4.12c-.36-.54-.97-.87-1.63-.87-1.08 0-1.95.87-1.95 1.95v-7.95c0-4.7 1.9-8.94 4.98-12.02s7.32-4.98 12.02-4.98z" fill="#fcd770"/></g><g><path d="m27 38 3.83 2.82c-.29 1.22-.97 2.26-1.9 3s-2.11 1.18-3.37 1.18c-.92 0-1.72-.62-1.94-1.51l-.62-2.49c.9 0 1.74-.29 2.43-.79s1.23-1.21 1.52-2.06z" fill="#e6e9ed"/></g><g><path d="m26 35 1 3-.05.15c-.29.85-.83 1.56-1.52 2.06s-1.53.79-2.43.79c-1.79 0-3.38-1.15-3.95-2.85l-.05-.15 1-3 .03-.19c.63.12 1.29.19 1.97.19z" fill="#f0d0b4"/></g><g><path d="m23 41-.62 2.49c-.22.89-1.02 1.51-1.94 1.51-1.26 0-2.42-.43-3.35-1.16s-1.61-1.76-1.91-2.97l3.82-2.87.05.15c.57 1.7 2.16 2.85 3.95 2.85z" fill="#e6e9ed"/></g><g><path d="m20.03 34.81-.03.19-1 3-3.82 2.87-3.91 2.93 1.73-9.8v-1.79c0-.79-.23-1.56-.67-2.22l.88-.22c1.39 2.56 3.87 4.44 6.82 5.04z" fill="#fcd770"/></g></g><path d="m22 49h2v2h-2z"/><path d="m22 53h2v2h-2z"/><path d="m41 13h3v8h2v-10h-5z"/><path d="m33 13h4v2h-4v2h4v2h-4v2h6v-10h-6z"/><path d="m54 7h-1-2-14.611c-3.417-3.809-8.258-6-13.389-6-9.925 0-18 8.075-18 18v13.884l-3.831 16.28c-.112.478-.169.969-.169 1.46 0 3.516 2.86 6.376 6.376 6.376 1.919 0 3.8-.66 5.298-1.858l1.326-1.061v8.919h18v-7.514l1.641 2.625c1.13 1.809 3.079 2.889 5.212 2.889 3.389 0 6.147-2.758 6.147-6.147v-16.265c0-2.492-2.008-4.518-4.496-4.577.32-1.154.496-2.342.496-3.555v-1.492c.739.127 1.573-.122 2.121-.671l3.293-3.293h7.586c4.963 0 9-4.038 9-9s-4.037-9-9-9zm-31-4c4.06 0 7.922 1.54 10.865 4.267-3.619.885-6.386 3.956-6.806 7.733h-5.643c-.698 0-1.39-.231-1.949-.649l-2.067-1.55c-.688-.517-1.541-.801-2.4-.801-2.206 0-4 1.794-4 4v9c0 .451.036.893.089 1.33l-.676-1.015c-.55-.823-1.469-1.315-2.459-1.315-.339 0-.66.069-.964.175l.01-5.175c0-8.822 7.178-16 16-16zm16 27.456c0 1.417-.271 2.796-.784 4.11-.468.255-.894.584-1.249.987l-2.988-2.989c1.928-2.035 3.021-4.734 3.021-7.564h2zm-25.016 3.718.013-1.65c1.293 1.375 2.929 2.424 4.777 2.992l-.624 1.872-5.455 4.092zm11.295 1.826.66 1.981c-.471 1.211-1.628 2.019-2.939 2.019s-2.468-.808-2.939-2.021l.685-2.056c.412.047.829.077 1.254.077zm-6.662 3.537c.708 1.151 1.834 1.973 3.144 2.297l-.352 1.408c-.112.446-.511.758-.971.758-1.826 0-3.422-1.112-4.086-2.764zm8.772-.008 2.272 1.674c-.655 1.672-2.255 2.797-4.099 2.797-.46 0-.858-.312-.971-.757l-.352-1.409c1.314-.325 2.442-1.15 3.15-2.305zm.46-2.146-.491-1.473c.324-.04.642-.11.96-.179l7.278 7.278-.004.079zm7.737-.383-1.586 1.586-9.565-9.565c.123-.132.231-.263.329-.38.404-.484.562-.641.9-.641.337 0 .496.156.899.64.378.453.895 1.074 1.79 1.287.134.032.274.116.397.239zm1.5 4.672-1.672-1.672 1.586-1.586 1.672 1.672c.209.209.328.498.328.793 0 .618-.503 1.121-1.121 1.121-.295 0-.584-.119-.793-.328zm-2.086-16.672c0 2.297-.878 4.492-2.433 6.152l-2.4-2.4c-.387-.387-.854-.654-1.352-.772-.234-.056-.416-.262-.715-.621-.452-.541-1.133-1.359-2.435-1.359-1.303 0-1.984.818-2.437 1.36-.403.484-.561.64-.898.64-.321 0-.471-.128-.896-.64-.452-.542-1.133-1.36-2.434-1.36v2c.321 0 .471.128.896.64.452.542 1.133 1.36 2.434 1.36.085 0 .167-.003.246-.01l3.974 3.974c-.184.011-.365.036-.55.036h-4c-4.963 0-9-4.038-9-9v-9c0-1.103.897-2 2-2 .436 0 .851.138 1.2.4l2.067 1.551c.903.676 2.021 1.049 3.149 1.049h5.643c.463 4.164 3.776 7.478 7.941 7.941zm-28 1.954c0-.526.428-.954.954-.954.319 0 .616.159.794.425l2.748 4.123c.33.493.504 1.068.504 1.663v.636l-5.024-.717.01-5.175h.014zm31.853 32.046c-1.439 0-2.754-.729-3.517-1.949l-3.336-5.338v-4.713h-2v14h-14v-14h-2v4.519l-2.576 2.061c-1.145.915-2.582 1.42-4.048 1.42-2.413 0-4.376-1.963-4.376-4.376 0-.338.039-.675.116-1.002l3.648-15.502 5.071.724-2.643 14.982 1.969.348 1.026-5.814 2.536-1.902c1.067 2.133 3.242 3.542 5.715 3.542 1.073 0 2.029-.57 2.561-1.451.533.881 1.49 1.451 2.563 1.451 2.498 0 4.683-1.427 5.74-3.589l4.171 3.073-.323 6.466 1.998.1.402-8.083c.11.012.218.033.329.033 1.325 0 2.452-.833 2.904-2h2.217v12.853c0 2.287-1.86 4.147-4.147 4.147zm4.147-20.412v1.412h-2.143c-.147-.496-.402-.959-.771-1.328l-1.695-1.695c.482-.603 1.21-.977 2.005-.977 1.436 0 2.604 1.161 2.604 2.588zm11-15.588h-8.414l-3.88 3.879c-.234.237-.706.045-.706-.293v-3.586h-5c-3.859 0-7-3.14-7-7s3.141-7 7-7h15 2 1c3.859 0 7 3.14 7 7s-3.141 7-7 7z"/><path d="m48 19h2v2h-2z"/><path d="m55 15h-1v-2h3v-2h-5v6h3c.552 0 1 .449 1 1s-.448 1-1 1h-3v2h3c1.654 0 3-1.346 3-3s-1.346-3-3-3z"/><circle cx="20" cy="22" r="1"/><circle cx="28" cy="22" r="1"/></g></svg>