<svg id="Layer_5" enable-background="new 0 0 64 64" height="512" viewBox="0 0 64 64" width="512" xmlns="http://www.w3.org/2000/svg"><path d="m58 2h-30c-2.21 0-4 1.79-4 4v26h34c2.21 0 4-1.79 4-4v-22c0-2.21-1.79-4-4-4z" fill="#ccd1d9"/><path d="m57 6h-28c-.55 0-1 .45-1 1v21h29c.55 0 1-.45 1-1v-20c0-.55-.45-1-1-1z" fill="#69d6f4"/><path d="m38 22.59v.41c0 1.77-.36 3.47-1.01 5-.62 1.5-1.52 2.85-2.63 4-1.07 1.11-2.33 2.03-3.74 2.7.21-.25.42-.5.61-.76 1.75-2.36 2.77-5.28 2.77-8.38v-.17c0-1.87-1.52-3.39-3.39-3.39-.4 0-.8.07-1.18.22l-7.43 2.78-.98-1.95c-.62-1.26-1.91-2.05-3.31-2.05-1.03 0-1.95.42-2.62 1.09s-1.09 1.59-1.09 2.62v.85c0 3.44 1.25 6.65 3.38 9.14-4.36-2.09-7.38-6.53-7.38-11.7v-1.92c0-1.76.64-3.38 1.7-4.64 1.07-1.26 2.57-2.15 4.3-2.44l1.55-1.24c1.11-.9 2.37-1.58 3.7-2.05.89-.31 1.81-.53 2.75-.63.46-.05.94-.08 1.41-.08.89 0 1.75.09 2.59.27 4.88 1.01 8.72 4.85 9.73 9.73.18.84.27 1.7.27 2.59z" fill="#fcd770"/><path d="m30.99 42.16-.44-.17c-1.54-.6-2.55-2.08-2.55-3.73v-.89l-.14-.21-3.86 1.84c-1.46-.44-2.8-1.09-4-1.93v1.19c0 1.65-1.01 3.13-2.55 3.73l-7.8 3.03c-4.61 1.8-7.65 6.24-7.65 11.19v5.79h8 32v-16z" fill="#f0d0b4"/><path d="m30.62 34.7c-.8.93-1.73 1.77-2.76 2.46l-3.86 1.84c-1.46-.44-2.8-1.09-4-1.93-.98-.68-1.86-1.48-2.62-2.37-2.13-2.49-3.38-5.7-3.38-9.14v-.85c0-1.03.42-1.95 1.09-2.62s1.59-1.09 2.62-1.09c1.4 0 2.69.79 3.31 2.05l.98 1.95 7.43-2.78c.38-.15.78-.22 1.18-.22 1.87 0 3.39 1.52 3.39 3.39v.17c0 3.1-1.02 6.02-2.77 8.38-.19.26-.4.51-.61.76z" fill="#f0d0b4"/><path d="m52.93 42.07c-1.28-1.28-3.05-2.07-5-2.07-1.88 0-3.67.74-5 2.07l-.93.93-.93-.93c-1.33-1.33-3.12-2.07-5-2.07-1.95 0-3.72.79-5 2.07-.03.03-.06.06-.08.09-1.24 1.27-1.99 3-1.99 4.91 0 1.88.74 3.67 2.07 5l9.22 9.22c.46.46 1.07.71 1.71.71s1.25-.25 1.71-.71l.79-.79 8.43-8.43c1.33-1.33 2.07-3.12 2.07-5 0-1.95-.79-3.72-2.07-5z" fill="#ef7385"/><path d="m45 52.171h2.343v2h-2.343z" transform="matrix(.707 -.707 .707 .707 -24.075 48.222)"/><path d="m50.807 49.95c.758-.758 1.193-1.807 1.193-2.879 0-2.194-1.784-4.02-3.977-4.07l-.046 1.999c1.115.026 2.023.955 2.023 2.071 0 .545-.221 1.079-.607 1.464l-1.757 1.757 1.414 1.414z"/><path d="m41 46h2v9h-2z"/><circle cx="42" cy="58" r="1"/><path d="m58 1h-30c-2.757 0-5 2.243-5 5v3.223c-2.209.401-4.307 1.342-6.072 2.754l-1.356 1.085c-3.824.764-6.572 4.095-6.572 8.021v1.917c0 5.256 3.022 10.122 7.718 12.489.68.773 1.448 1.47 2.282 2.092v.682c0 1.247-.75 2.344-1.913 2.796l-7.799 3.033c-5.035 1.958-8.288 6.714-8.288 12.117v6.791h41c.912 0 1.77-.355 2.414-1l9.222-9.222c1.524-1.524 2.364-3.551 2.364-5.707 0-4.45-3.621-8.071-8.071-8.071-2.156 0-4.183.84-5.707 2.364l-.222.222-.222-.222c-1.524-1.524-3.551-2.364-5.707-2.364-2.027 0-3.876.756-5.295 1.994-1.081-.483-1.776-1.534-1.776-2.73v-.682c.834-.622 1.602-1.319 2.282-2.092 1.297-.654 2.464-1.498 3.477-2.489h23.241c2.757 0 5-2.243 5-5v-22.001c0-2.757-2.243-5-5-5zm-21.929 40c1.622 0 3.146.631 4.293 1.778l1.636 1.636 1.636-1.636c1.147-1.147 2.671-1.778 4.293-1.778 3.347 0 6.071 2.724 6.071 6.071 0 1.622-.631 3.146-1.778 4.293l-9.222 9.222c-.526.526-1.474.526-2 0l-9.222-9.222c-1.147-1.147-1.778-2.671-1.778-4.293 0-3.347 2.724-6.071 6.071-6.071zm-6.668 1.531c-.884 1.294-1.403 2.857-1.403 4.54 0 2.156.84 4.183 2.364 5.707l8.222 8.222h-27.586v-10h-2v10h-6v-4.791c0-4.571 2.753-8.596 7.013-10.252l7.799-3.033c1.761-.685 2.945-2.263 3.146-4.106.867.459 1.783.849 2.754 1.14l.288.086.288-.086c.971-.291 1.887-.681 2.754-1.14.17 1.553 1.037 2.912 2.361 3.713zm-5.403-4.578c-5.396-1.751-9-6.694-9-12.393v-.852c0-1.493 1.215-2.708 2.708-2.708 1.033 0 1.961.574 2.422 1.497l1.378 2.755 8.269-3.101c.268-.1.55-.151.837-.151 1.316 0 2.386 1.07 2.386 2.386v.173c0 5.7-3.604 10.642-9 12.394zm6.614-16.953c-.527 0-1.045.094-1.54.279l-6.583 2.468-.572-1.145c-.802-1.605-2.416-2.602-4.211-2.602-2.596 0-4.708 2.112-4.708 4.708v.852c0 1.857.343 3.64.959 5.295-1.866-2.15-2.959-4.932-2.959-7.855v-1.917c0-3.034 2.172-5.597 5.165-6.096l.257-.043 1.756-1.405c2.046-1.638 4.616-2.539 7.237-2.539 6.388 0 11.585 5.197 11.585 11.585v.415c0 2.923-1.093 5.705-2.959 7.854.617-1.654.959-3.437.959-5.294v-.173c0-2.419-1.968-4.387-4.386-4.387zm8.285 0h4.881l1.534-6.135 4.787 9.574 2.576-6.439h4.323v9h-18.596c.387-1.282.596-2.628.596-4v-.415c0-.537-.04-1.064-.101-1.585zm18.101-5h-5.677l-1.424 3.561-5.213-10.426-2.467 9.865h-3.715c-1.264-4.61-4.894-8.24-9.504-9.504v-2.496h28zm4 12c0 1.654-1.346 3-3 3h-21.545c.443-.634.834-1.302 1.168-2h19.377c1.103 0 2-.897 2-2v-20c0-1.103-.897-2-2-2h-28c-1.103 0-2 .897-2 2v2.101c-.521-.061-1.048-.101-1.585-.101-.139 0-.277.013-.415.018v-3.018c0-1.654 1.346-3 3-3h30c1.654 0 3 1.346 3 3z"/></svg>