<svg height="512" viewBox="0 0 64 64" width="512" xmlns="http://www.w3.org/2000/svg"><path d="m5 16h54v41h-54z" fill="#e0e0e2"/><path d="m3 10h58v6h-58z" fill="#ff5023"/><circle cx="21" cy="13" fill="#ffda44" r="10"/><path d="m21 35h9v22h-9z" fill="#005ece"/><path d="m12 35h9v22h-9z" fill="#006df0"/><path d="m27 11v4h-4v4h-4v-4h-4v-4h4v-4h4v4z" fill="#d80027"/><path d="m3 57h58v4h-58z" fill="#3e3d42"/><path d="m36 35h18v3.54h-18z" fill="#006df0"/><path d="m45 38.54h9v6.46h-9z" fill="#9bfbff"/><path d="m36 38.54h9v6.46h-9z" fill="#46f8ff"/><path d="m18 16v3a1 1 0 0 0 1 1h4a1 1 0 0 0 1-1v-3h3a1 1 0 0 0 1-1v-4a1 1 0 0 0 -1-1h-3v-3a1 1 0 0 0 -1-1h-4a1 1 0 0 0 -1 1v3h-3a1 1 0 0 0 -1 1v4a1 1 0 0 0 1 1zm-2-4h3a1 1 0 0 0 1-1v-3h2v3a1 1 0 0 0 1 1h3v2h-3a1 1 0 0 0 -1 1v3h-2v-3a1 1 0 0 0 -1-1h-3z"/><path d="m61 17a1 1 0 0 0 1-1v-6a1 1 0 0 0 -1-1h-29.76a10.99 10.99 0 0 0 -20.48 0h-7.76a1 1 0 0 0 -1 1v6a1 1 0 0 0 1 1h1v39h-1a1 1 0 0 0 -1 1v4a1 1 0 0 0 1 1h58a1 1 0 0 0 1-1v-4a1 1 0 0 0 -1-1h-1v-39zm-40-13a9 9 0 1 1 -9 9 9.014 9.014 0 0 1 9-9zm0 20a11.025 11.025 0 0 0 10.24-7h26.76v39h-27v-21a1 1 0 0 0 -1-1h-18a1 1 0 0 0 -1 1v21h-5v-39h4.76a11.025 11.025 0 0 0 10.24 7zm8 12v20h-7v-20zm-9 0v20h-7v-20zm-16-25h6.19a10.621 10.621 0 0 0 0 4h-6.19zm56 49h-56v-2h56zm-28.19-45a10.621 10.621 0 0 0 0-4h28.19v4z"/><path d="m55 44v-9a1 1 0 0 0 -1-1h-18a1 1 0 0 0 -1 1v9h-1v2h22v-2zm-11 0h-7v-4.46h7zm0-6.46h-7v-1.54h7zm9 6.46h-7v-4.46h7zm0-6.46h-7v-1.54h7z"/><path d="m17 44h2v2h-2z"/><path d="m23 44h2v2h-2z"/></svg>