<svg id="Layer_1" height="512" viewBox="0 0 128 128" width="512" xmlns="http://www.w3.org/2000/svg" data-name="Layer 1"><path d="m6.5 41.885h28.75v79.615h-28.75z" fill="#bdc8d2" transform="matrix(-1 0 0 -1 41.75 163.385)"/><path d="m35.25 6.5h57.5v115h-57.5z" fill="#d7e4ef"/><path d="m47.438 57.75h10v10h-10z" fill="#49a0ff"/><path d="m70.562 57.75h10v10h-10z" fill="#49a0ff"/><path d="m92.75 41.885h28.75v79.615h-28.75z" fill="#bdc8d2"/><path d="m102.125 57.75h10v10h-10z" fill="#49a0ff" transform="matrix(-1 0 0 -1 214.25 125.5)"/><path d="m102.125 79.442h10v10h-10z" fill="#49a0ff" transform="matrix(-1 0 0 -1 214.25 168.885)"/><path d="m102.125 101.135h10v10h-10z" fill="#49a0ff" transform="matrix(-1 0 0 -1 214.25 212.269)"/><path d="m15.875 57.75h10v10h-10z" fill="#49a0ff"/><path d="m15.875 79.442h10v10h-10z" fill="#49a0ff"/><path d="m15.875 101.135h10v10h-10z" fill="#49a0ff"/><path d="m50.22 81.69h27.56v39.81h-27.56z" fill="#49a0ff"/><path d="m76.5 31.692h-7.5v-7.5h-10v7.5h-7.5v10h7.5v7.5h10v-7.5h7.5z" fill="#ff4945"/><g fill="#102434"><path d="m70.75 49.192v-5.75h5.75a1.75 1.75 0 0 0 1.75-1.75v-10a1.75 1.75 0 0 0 -1.75-1.75h-5.75v-5.75a1.75 1.75 0 0 0 -1.75-1.75h-10a1.75 1.75 0 0 0 -1.75 1.75v5.75h-5.75a1.75 1.75 0 0 0 -1.75 1.75v10a1.75 1.75 0 0 0 1.75 1.75h5.75v5.75a1.75 1.75 0 0 0 1.75 1.75h10a1.75 1.75 0 0 0 1.75-1.75zm-3.5-7.5v5.75h-6.5v-5.75a1.75 1.75 0 0 0 -1.75-1.75h-5.75v-6.5h5.75a1.75 1.75 0 0 0 1.75-1.75v-5.75h6.5v5.75a1.75 1.75 0 0 0 1.75 1.75h5.75v6.5h-5.75a1.75 1.75 0 0 0 -1.75 1.75z"/><path d="m92.75 24.292a1.75 1.75 0 0 0 -1.75 1.75v4.125a1.75 1.75 0 1 0 3.5 0v-4.125a1.75 1.75 0 0 0 -1.75-1.75z"/><path d="m57.438 56h-10a1.75 1.75 0 0 0 -1.75 1.75v10a1.75 1.75 0 0 0 1.75 1.75h10a1.75 1.75 0 0 0 1.75-1.75v-10a1.75 1.75 0 0 0 -1.75-1.75zm-1.75 10h-6.5v-6.5h6.5z"/><path d="m70.563 69.5h10a1.75 1.75 0 0 0 1.75-1.75v-10a1.75 1.75 0 0 0 -1.75-1.75h-10a1.75 1.75 0 0 0 -1.75 1.75v10a1.75 1.75 0 0 0 1.75 1.75zm1.75-10h6.5v6.5h-6.5z"/><path d="m121.5 40.135h-27v-3.443a1.75 1.75 0 0 0 -3.5 0v83.058h-11.47v-23a1.75 1.75 0 0 0 -3.5 0v23h-10.28v-36.308h10.28v4.975a1.75 1.75 0 0 0 3.5 0v-6.725a1.75 1.75 0 0 0 -1.75-1.75h-27.56a1.75 1.75 0 0 0 -1.75 1.75v38.058h-11.47v-28.25a1.75 1.75 0 0 0 -3.5 0v28.25h-25.25v-76.115h25.25v37.115a1.75 1.75 0 0 0 3.5 0v-72.5h54v11.25a1.75 1.75 0 0 0 3.5 0v-13a1.75 1.75 0 0 0 -1.75-1.75h-57.5a1.75 1.75 0 0 0 -1.75 1.75v33.635h-27a1.75 1.75 0 0 0 -1.75 1.75v79.615a1.75 1.75 0 0 0 1.75 1.75h115a1.75 1.75 0 0 0 1.75-1.75v-79.615a1.75 1.75 0 0 0 -1.75-1.75zm-69.53 43.307h10.28v36.308h-10.28zm67.78 36.308h-25.25v-76.115h25.25z"/><path d="m102.125 69.5h10a1.75 1.75 0 0 0 1.75-1.75v-10a1.75 1.75 0 0 0 -1.75-1.75h-10a1.75 1.75 0 0 0 -1.75 1.75v10a1.75 1.75 0 0 0 1.75 1.75zm1.75-10h6.5v6.5h-6.5z"/><path d="m102.125 91.192h10a1.75 1.75 0 0 0 1.75-1.75v-10a1.75 1.75 0 0 0 -1.75-1.75h-10a1.75 1.75 0 0 0 -1.75 1.75v10a1.75 1.75 0 0 0 1.75 1.75zm1.75-10h6.5v6.5h-6.5z"/><path d="m102.125 112.885h10a1.75 1.75 0 0 0 1.75-1.75v-10a1.75 1.75 0 0 0 -1.75-1.75h-10a1.75 1.75 0 0 0 -1.75 1.75v10a1.75 1.75 0 0 0 1.75 1.75zm1.75-10h6.5v6.5h-6.5z"/><path d="m27.625 57.75a1.75 1.75 0 0 0 -1.75-1.75h-10a1.75 1.75 0 0 0 -1.75 1.75v10a1.75 1.75 0 0 0 1.75 1.75h10a1.75 1.75 0 0 0 1.75-1.75zm-3.5 8.25h-6.5v-6.5h6.5z"/><path d="m27.625 79.442a1.75 1.75 0 0 0 -1.75-1.75h-10a1.75 1.75 0 0 0 -1.75 1.75v10a1.75 1.75 0 0 0 1.75 1.75h10a1.75 1.75 0 0 0 1.75-1.75zm-3.5 8.25h-6.5v-6.5h6.5z"/><path d="m25.875 99.385h-10a1.75 1.75 0 0 0 -1.75 1.75v10a1.75 1.75 0 0 0 1.75 1.75h10a1.75 1.75 0 0 0 1.75-1.75v-10a1.75 1.75 0 0 0 -1.75-1.75zm-1.75 10h-6.5v-6.5h6.5z"/></g></svg>