<svg id="Layer_5" enable-background="new 0 0 64 64" height="512" viewBox="0 0 64 64" width="512" xmlns="http://www.w3.org/2000/svg"><g><g><g><path d="m60 14h-18.2c.13-.64.2-1.31.2-2 0-1.42-.3-2.78-.84-4h18.84c1.1 0 2 .9 2 2v2c0 1.1-.9 2-2 2z" fill="#ccd1d9"/></g><g><path d="m4 8h18.84c-.54 1.22-.84 2.58-.84 4 0 .69.07 1.36.2 2h-18.2c-1.1 0-2-.9-2-2v-2c0-1.1.9-2 2-2z" fill="#ccd1d9"/></g><g><path d="m60 30v12h-19l-1-1v-11z" fill="#e6e9ed"/></g><g><path d="m60 14v12h-20v-8.01c.87-1.16 1.5-2.51 1.8-3.99z" fill="#e6e9ed"/></g><g><path d="m24 30v11l-1 1h-19v-12z" fill="#e6e9ed"/></g><g><path d="m24 17.99v8.01h-20v-12h18.2c.3 1.48.93 2.83 1.8 3.99z" fill="#e6e9ed"/></g><g><path d="m32 22c-3.27 0-6.18-1.58-8-4.01v23.01l6.29-6.29c.46-.46 1.07-.71 1.71-.71s1.25.25 1.71.71l6.29 6.29v-23.01c-1.82 2.43-4.73 4.01-8 4.01z" fill="#69d6f4"/></g><g><path d="m60 26v4h-20v-2-2z" fill="#ccd1d9"/></g><g><path d="m24 30h-20v-4h20v2z" fill="#ccd1d9"/></g><g><path d="m41 42 4 4h-1-4-16-4-1l4-4 1-1 6.29-6.29c.46-.46 1.07-.71 1.71-.71s1.25.25 1.71.71l6.29 6.29z" fill="#aab2bd"/></g><g><path d="m23 42-4 4h-15-2v-4h2z" fill="#ccd1d9"/></g><g><path d="m62 42v4h-2-15l-4-4h19z" fill="#ccd1d9"/></g><g><path d="m40 46h4v16h-4z" fill="#ccd1d9"/></g><g><path d="m20 46h4v16h-4z" fill="#ccd1d9"/></g><g><path d="m20 46v16h-16v-16h15z" fill="#e6e9ed"/></g><g><path d="m45 46h15v16h-16v-16z" fill="#e6e9ed"/></g><g><path d="m24 46h16v16h-16z" fill="#e6e9ed"/></g><g><path d="m28 50h8v12h-8z" fill="#aab2bd"/></g><g><path d="m48 50h8v8h-8z" fill="#69d6f4"/></g><g><path d="m52 18h4v4h-4z" fill="#69d6f4"/></g><g><path d="m44 18h4v4h-4z" fill="#69d6f4"/></g><g><path d="m52 34h4v4h-4z" fill="#69d6f4"/></g><g><path d="m44 34h4v4h-4z" fill="#69d6f4"/></g><g><circle cx="32" cy="40" fill="#ff826e" r="2"/></g><g><path d="m8 50h8v8h-8z" fill="#69d6f4"/></g><g><path d="m8 34h4v4h-4z" fill="#69d6f4"/></g><g><path d="m16 34h4v4h-4z" fill="#69d6f4"/></g><g><path d="m16 18h4v4h-4z" fill="#69d6f4"/></g><g><path d="m8 18h4v4h-4z" fill="#69d6f4"/></g><g><path d="m24 17.99c-.87-1.16-1.5-2.51-1.8-3.99-.13-.64-.2-1.31-.2-2 0-1.42.3-2.78.84-4 1.54-3.53 5.06-6 9.16-6s7.62 2.47 9.16 6c.54 1.22.84 2.58.84 4 0 .69-.07 1.36-.2 2-.3 1.48-.93 2.83-1.8 3.99-1.82 2.43-4.73 4.01-8 4.01s-6.18-1.58-8-4.01z" fill="#ff826e"/></g><g><path d="m38 10v4h-4v4h-4v-4h-4v-4h4v-4h4v4z" fill="#e6e9ed"/></g></g><g><path d="m29 19h6v-4h4v-6h-4v-4h-6v4h-4v6h4zm-2-6v-2h4v-4h2v4h4v2h-4v4h-2v-4z"/><path d="m63 12v-2c0-1.654-1.346-3-3-3h-18.214c-1.825-3.556-5.522-6-9.786-6s-7.961 2.444-9.786 6h-18.214c-1.654 0-3 1.346-3 3v2c0 1.302.839 2.402 2 2.816v26.184h-2v6h2v16h58v-16h2v-6h-2v-26.184c1.161-.414 2-1.514 2-2.816zm-4 17h-18v-2h18zm-24 32h-6v-10h6zm-8-12v12h-2v-14h14v14h-2v-12zm-4-2v14h-2v-14zm18 0h2v14h-2zm-19.586-2 9.586-9.585c.535-.535 1.465-.535 2 0l9.586 9.585zm.012-30c.34 1.197.875 2.311 1.574 3.305v6.695h-18v-10zm17.574 12h-6v-4.051c2.267-.206 4.339-1.097 6-2.471zm-8 0h-6v-6.521c1.661 1.374 3.733 2.265 6 2.471zm-26 0h18v2h-18zm20 2h6v4.19c-.523.152-1.016.412-1.414.81l-4.586 4.586zm9.414 5c-.398-.397-.891-.657-1.414-.81v-4.19h6v9.586zm24.586-9h-18v-6.695c.699-.994 1.233-2.108 1.574-3.305h16.426zm1-16c.552 0 1 .449 1 1v2c0 .551-.448 1-1 1h-17.051c.03-.33.051-.662.051-1 0-1.041-.155-2.045-.426-3zm-28-6c4.963 0 9 4.038 9 9s-4.037 9-9 9-9-4.038-9-9 4.037-9 9-9zm-29 7c0-.551.448-1 1-1h17.426c-.271.955-.426 1.959-.426 3 0 .338.021.67.051 1h-17.051c-.552 0-1-.449-1-1zm2 21h18v9.586l-.414.414h-17.586zm-2 12h17.586l-2 2h-15.586zm2 4h14v14h-14zm54 14h-14v-14h14zm2-16h-15.586l-2-2h17.586zm-19.586-4-.414-.414v-9.586h18v10z"/><path d="m7 49v10h10v-10zm8 8h-6v-6h6z"/><path d="m57 59v-10h-10v10zm-8-8h6v6h-6z"/><path d="m57 17h-6v6h6zm-2 4h-2v-2h2z"/><path d="m49 23v-6h-6v6zm-4-4h2v2h-2z"/><path d="m51 33v6h6v-6zm4 4h-2v-2h2z"/><path d="m43 39h6v-6h-6zm2-4h2v2h-2z"/><path d="m21 17h-6v6h6zm-2 4h-2v-2h2z"/><path d="m13 23v-6h-6v6zm-4-4h2v2h-2z"/><path d="m15 33v6h6v-6zm4 4h-2v-2h2z"/><path d="m7 39h6v-6h-6zm2-4h2v2h-2z"/><path d="m29 40c0 1.654 1.346 3 3 3s3-1.346 3-3-1.346-3-3-3-3 1.346-3 3zm4 0c0 .551-.448 1-1 1s-1-.449-1-1 .448-1 1-1 1 .449 1 1z"/></g></g></svg>