<svg id="Capa_1" enable-background="new 0 0 512 512" height="512" viewBox="0 0 512 512" width="512" xmlns="http://www.w3.org/2000/svg"><g><g><path d="m460.336 503.496c-4.143 0-7.5-3.358-7.5-7.5v-23.244c0-4.142 3.357-7.5 7.5-7.5s7.5 3.358 7.5 7.5v23.244c0 4.142-3.357 7.5-7.5 7.5z"/></g><g><path clip-rule="evenodd" d="m92.568 504.5h326.864c0-121.777 0-243.582 0-365.359-115.626 0-211.267 0-326.864 0z" fill="#eceaec" fill-rule="evenodd"/></g><g><path clip-rule="evenodd" d="m198.301 149.148c14.882 14.542 35.235 23.499 57.685 23.499s42.832-8.958 57.714-23.499c13.408-13.096 22.365-30.699 24.435-50.372.284-2.863.425-5.783.425-8.702 0-45.61-36.964-82.573-82.574-82.573s-82.573 36.964-82.573 82.573c0 2.92.142 5.839.454 8.702 2.068 19.672 11.026 37.276 24.434 50.372z" fill="#ff8086" fill-rule="evenodd"/></g><g><path clip-rule="evenodd" d="m92.568 149.148h105.733c-13.408-13.096-22.365-30.699-24.435-50.372h-95.018c-2.551 0-4.649 2.069-4.649 4.649v41.074c0 2.551 2.098 4.649 4.649 4.649z" fill="#6f6571" fill-rule="evenodd"/></g><g><path clip-rule="evenodd" d="m313.699 149.148h105.733 13.691c2.551 0 4.649-2.098 4.649-4.649v-41.074c0-2.58-2.098-4.649-4.649-4.649h-94.989c-2.069 19.672-11.027 37.276-24.435 50.372z" fill="#6f6571" fill-rule="evenodd"/></g><g><path clip-rule="evenodd" d="m92.568 169.444h140.514c-13.266-3.827-25.172-10.913-34.781-20.296h-105.733z" fill="#dad8db" fill-rule="evenodd"/></g><g><path clip-rule="evenodd" d="m278.918 169.444h114.548v335.056h25.965v-52.158-78.945-128.268-42.35-53.632h-105.732c-9.609 9.383-21.515 16.47-34.781 20.297z" fill="#dad8db" fill-rule="evenodd"/></g><g><path clip-rule="evenodd" d="m419.432 245.129h71.49v128.268h-71.49z" fill="#c8c5c9" fill-rule="evenodd"/></g><g><path clip-rule="evenodd" d="m419.432 504.5h68.003c1.928 0 3.487-1.587 3.487-3.515v-48.643h-71.49z" fill="#c8c5c9" fill-rule="evenodd"/></g><g><path clip-rule="evenodd" d="m419.432 245.129h71.49 9.609c2.183 0 3.969-1.758 3.969-3.94v-31.039c0-2.183-1.786-3.94-3.969-3.94h-81.099z" fill="#6f6571" fill-rule="evenodd"/></g><g><path clip-rule="evenodd" d="m468.84 373.397h22.082v-128.268h-71.49v20.948h49.408z" fill="#b6b1b7" fill-rule="evenodd"/></g><g><path clip-rule="evenodd" d="m468.84 504.5h18.595c1.928 0 3.487-1.587 3.487-3.515v-48.643h-22.082v20.92z" fill="#b6b1b7" fill-rule="evenodd"/></g><g><path clip-rule="evenodd" d="m92.568 504.5h-68.003c-1.928 0-3.515-1.587-3.515-3.515v-48.643h71.518z" fill="#c8c5c9" fill-rule="evenodd"/></g><g><path clip-rule="evenodd" d="m70.458 504.5h18.595c1.928 0 3.515-1.587 3.515-3.515v-48.643h-22.11v20.92z" fill="#b6b1b7" fill-rule="evenodd"/></g><g><path clip-rule="evenodd" d="m150.537 255.929h36.255c2.239 0 4.025-1.786 4.025-4.025v-36.255c0-2.211-1.786-4.025-4.025-4.025h-36.255c-2.211 0-4.025 1.814-4.025 4.025v36.255c-.001 2.239 1.814 4.025 4.025 4.025z" fill="#9fd4fe" fill-rule="evenodd"/></g><g><path clip-rule="evenodd" d="m237.872 255.929h36.255c2.211 0 4.025-1.786 4.025-4.025v-36.255c0-2.211-1.814-4.025-4.025-4.025h-36.255c-2.239 0-4.025 1.814-4.025 4.025v36.255c0 2.239 1.786 4.025 4.025 4.025z" fill="#9fd4fe" fill-rule="evenodd"/></g><g><path clip-rule="evenodd" d="m325.18 255.929h36.255c2.211 0 4.025-1.786 4.025-4.025v-36.255c0-2.211-1.814-4.025-4.025-4.025h-36.255c-2.211 0-4.025 1.814-4.025 4.025v36.255c0 2.239 1.814 4.025 4.025 4.025z" fill="#9fd4fe" fill-rule="evenodd"/></g><g><path clip-rule="evenodd" d="m325.18 335.47h36.255c2.211 0 4.025-1.814 4.025-4.025v-36.255c0-2.211-1.814-4.025-4.025-4.025h-36.255c-2.211 0-4.025 1.814-4.025 4.025v36.255c0 2.21 1.814 4.025 4.025 4.025z" fill="#9fd4fe" fill-rule="evenodd"/></g><g><path clip-rule="evenodd" d="m233.847 331.444c0 2.211 1.786 4.025 4.025 4.025h36.255c2.211 0 4.025-1.814 4.025-4.025v-36.255c0-2.211-1.814-4.025-4.025-4.025h-36.255c-2.239 0-4.025 1.814-4.025 4.025z" fill="#9fd4fe" fill-rule="evenodd"/></g><g><path clip-rule="evenodd" d="m150.537 335.47h36.255c2.239 0 4.025-1.814 4.025-4.025v-36.255c0-2.211-1.786-4.025-4.025-4.025h-36.255c-2.211 0-4.025 1.814-4.025 4.025v36.255c-.001 2.21 1.814 4.025 4.025 4.025z" fill="#9fd4fe" fill-rule="evenodd"/></g><g><path clip-rule="evenodd" d="m21.05 245.129h71.518v128.268h-71.518z" fill="#c8c5c9" fill-rule="evenodd"/></g><g><path clip-rule="evenodd" d="m92.568 245.129h-71.518-9.61c-2.183 0-3.94-1.758-3.94-3.94v-31.039c0-2.183 1.757-3.94 3.94-3.94h81.128z" fill="#6f6571" fill-rule="evenodd"/></g><g><path clip-rule="evenodd" d="m70.458 373.397h22.11v-128.268h-71.518v20.948h49.408z" fill="#b6b1b7" fill-rule="evenodd"/></g><g><path clip-rule="evenodd" d="m150.537 229.624h36.255c2.239 0 4.025 1.814 4.025 4.025v-18c0-2.211-1.786-4.025-4.025-4.025h-36.255c-2.211 0-4.025 1.814-4.025 4.025v18c-.001-2.211 1.814-4.025 4.025-4.025z" fill="#72bffc" fill-rule="evenodd"/></g><g><path clip-rule="evenodd" d="m237.872 229.624h36.255c2.211 0 4.025 1.814 4.025 4.025v-18c0-2.211-1.814-4.025-4.025-4.025h-36.255c-2.239 0-4.025 1.814-4.025 4.025v18c0-2.211 1.786-4.025 4.025-4.025z" fill="#72bffc" fill-rule="evenodd"/></g><g><path clip-rule="evenodd" d="m325.18 229.624h36.255c2.211 0 4.025 1.814 4.025 4.025v-18c0-2.211-1.814-4.025-4.025-4.025h-36.255c-2.211 0-4.025 1.814-4.025 4.025v18c0-2.211 1.814-4.025 4.025-4.025z" fill="#72bffc" fill-rule="evenodd"/></g><g><path clip-rule="evenodd" d="m325.18 309.164h36.255c2.211 0 4.025 1.814 4.025 4.025v-18c0-2.211-1.814-4.025-4.025-4.025h-36.255c-2.211 0-4.025 1.814-4.025 4.025v18c0-2.211 1.814-4.025 4.025-4.025z" fill="#72bffc" fill-rule="evenodd"/></g><g><path clip-rule="evenodd" d="m237.872 309.164h36.255c2.211 0 4.025 1.814 4.025 4.025v-18c0-2.211-1.814-4.025-4.025-4.025h-36.255c-2.239 0-4.025 1.814-4.025 4.025v18c0-2.211 1.786-4.025 4.025-4.025z" fill="#72bffc" fill-rule="evenodd"/></g><g><path clip-rule="evenodd" d="m150.537 309.164h36.255c2.239 0 4.025 1.814 4.025 4.025v-18c0-2.211-1.786-4.025-4.025-4.025h-36.255c-2.211 0-4.025 1.814-4.025 4.025v18c-.001-2.211 1.814-4.025 4.025-4.025z" fill="#72bffc" fill-rule="evenodd"/></g><g><path clip-rule="evenodd" d="m419.432 373.397h71.49v78.945h-71.49z" fill="#9fd4fe" fill-rule="evenodd"/></g><g><path clip-rule="evenodd" d="m468.84 452.342h22.082v-78.945h-22.082v20.92z" fill="#72bffc" fill-rule="evenodd"/></g><g><path clip-rule="evenodd" d="m21.05 373.397h71.518v78.945h-71.518z" fill="#9fd4fe" fill-rule="evenodd"/></g><g><path clip-rule="evenodd" d="m70.458 452.342h22.11v-78.945h-22.11v20.92z" fill="#72bffc" fill-rule="evenodd"/></g><g><path clip-rule="evenodd" d="m255.986 408.774h63.156 9.383c8.759 0 15.931-7.172 15.931-15.902 0-8.759-7.172-15.931-15.931-15.931h-145.078c-8.759 0-15.902 7.172-15.902 15.931 0 8.731 7.143 15.902 15.902 15.902h9.383z" fill="#6f6571" fill-rule="evenodd"/></g><g><path clip-rule="evenodd" d="m192.83 408.774h63.156v95.726h-63.156z" fill="#9fd4fe" fill-rule="evenodd"/></g><g><path clip-rule="evenodd" d="m255.986 408.774h63.156v95.726h-63.156z" fill="#9fd4fe" fill-rule="evenodd"/></g><g><path clip-rule="evenodd" d="m192.83 408.774h126.312v19.587h-126.312z" fill="#72bffc" fill-rule="evenodd"/></g><g><path clip-rule="evenodd" d="m403.048 139.141v5.358c0 2.551-2.098 4.649-4.649 4.649h21.033 13.691c2.551 0 4.649-2.098 4.649-4.649v-41.074c0-2.58-2.098-4.649-4.649-4.649h-34.725c2.551 0 4.649 2.069 4.649 4.649v35.716z" fill="#5d5360" fill-rule="evenodd"/></g><g><path clip-rule="evenodd" d="m233.082 169.444c7.285 2.098 14.967 3.203 22.904 3.203 7.965 0 15.647-1.106 22.932-3.203 13.266-3.827 25.172-10.913 34.781-20.296h-.028c3.175-3.09 6.094-6.435 8.731-10.006 8.532-11.509 14.145-25.342 15.732-40.365.284-2.863.425-5.783.425-8.702 0-45.61-36.964-82.573-82.574-82.573-1.984 0-3.94.057-5.896.198 31.493 11.65 53.915 41.953 53.915 77.471 0 20.636-7.569 39.515-20.069 53.972-13.947 16.129-34.016 26.816-56.608 28.403 1.9.707 3.799 1.331 5.755 1.898z" fill="#f76672" fill-rule="evenodd"/></g><g><path clip-rule="evenodd" d="m70.458 206.209h22.11v38.92h-22.11z" fill="#5d5360" fill-rule="evenodd"/></g><g><path clip-rule="evenodd" d="m472.78 210.149v31.039c0 2.183-1.786 3.94-3.94 3.94h22.082 9.609c2.183 0 3.969-1.758 3.969-3.94v-31.039c0-2.183-1.786-3.94-3.969-3.94h-31.691c2.154 0 3.94 1.758 3.94 3.94z" fill="#5d5360" fill-rule="evenodd"/></g><g><path clip-rule="evenodd" d="m328.525 408.774c8.759 0 15.931-7.172 15.931-15.902 0-8.759-7.172-15.931-15.931-15.931h-31.351c20.92 0 20.92 31.833 0 31.833h21.969z" fill="#5d5360" fill-rule="evenodd"/></g><g><path d="m229.227 97.573h19.259v19.259c0 4.142 3.357 7.5 7.5 7.5s7.5-3.358 7.5-7.5v-19.259h19.288c4.143 0 7.5-3.358 7.5-7.5s-3.357-7.5-7.5-7.5h-19.288v-19.259c0-4.142-3.357-7.5-7.5-7.5s-7.5 3.358-7.5 7.5v19.259h-19.259c-4.143 0-7.5 3.358-7.5 7.5s3.357 7.5 7.5 7.5z"/><path d="m186.792 204.124h-36.255c-6.355 0-11.525 5.17-11.525 11.525v36.255c0 6.355 5.17 11.525 11.525 11.525h36.255c6.355 0 11.525-5.17 11.525-11.525v-36.255c0-6.355-5.17-11.525-11.525-11.525zm-3.475 44.305h-29.306v-29.306h29.306z"/><path d="m274.128 204.124h-36.256c-6.355 0-11.525 5.17-11.525 11.525v36.255c0 6.355 5.17 11.525 11.525 11.525h36.256c6.355 0 11.525-5.17 11.525-11.525v-36.255c0-6.355-5.17-11.525-11.525-11.525zm-3.475 44.305h-29.307v-29.306h29.307z"/><path d="m361.435 204.124h-36.255c-6.355 0-11.525 5.17-11.525 11.525v36.255c0 6.355 5.17 11.525 11.525 11.525h36.255c6.355 0 11.525-5.17 11.525-11.525v-36.255c0-6.355-5.17-11.525-11.525-11.525zm-3.475 44.305h-29.306v-29.306h29.306z"/><path d="m186.792 283.664h-36.255c-6.355 0-11.525 5.17-11.525 11.525v36.255c0 6.355 5.17 11.525 11.525 11.525h36.255c6.355 0 11.525-5.17 11.525-11.525v-36.255c0-6.355-5.17-11.525-11.525-11.525zm-3.475 44.306h-29.306v-29.306h29.306z"/><path d="m274.128 283.664h-36.256c-6.355 0-11.525 5.17-11.525 11.525v36.255c0 6.355 5.17 11.525 11.525 11.525h36.256c6.355 0 11.525-5.17 11.525-11.525v-36.255c0-6.355-5.17-11.525-11.525-11.525zm-3.475 44.306h-29.307v-29.306h29.307z"/><path d="m361.435 283.664h-36.255c-6.355 0-11.525 5.17-11.525 11.525v36.255c0 6.355 5.17 11.525 11.525 11.525h36.255c6.355 0 11.525-5.17 11.525-11.525v-36.255c0-6.355-5.17-11.525-11.525-11.525zm-3.475 44.306h-29.306v-29.306h29.306z"/><path d="m500.531 198.709h-73.6v-42.062h6.191c6.699 0 12.149-5.45 12.149-12.148v-41.074c0-6.699-5.45-12.149-12.149-12.149h-87.079c.005-.401.015-.801.015-1.203.002-49.666-40.406-90.073-90.073-90.073s-90.073 40.407-90.073 90.073c0 .402.01.802.015 1.203h-87.078c-6.699 0-12.149 5.45-12.149 12.149v41.074c0 6.699 5.45 12.148 12.149 12.148h6.22v42.062h-73.629c-6.309 0-11.44 5.132-11.44 11.44v31.04c0 6.308 5.132 11.44 11.44 11.44h2.109v248.356c0 6.074 4.941 11.015 11.015 11.015h68.004 100.262 126.312 100.29 68.004c6.058 0 10.986-4.941 10.986-11.015v-248.356h2.109c6.324 0 11.469-5.132 11.469-11.44v-31.04c0-6.308-5.145-11.44-11.469-11.44zm-415.463 298.291h-56.518v-37.158h56.519v37.158zm0-52.158h-56.518v-63.945h56.519v63.945zm0-78.945h-56.518v-113.268h56.519v113.268zm0-128.268h-70.068v-23.919h70.068zm345.204-131.353v35.372h-100.482c7.291-10.402 12.442-22.406 14.807-35.372zm-174.287-91.276c41.396 0 75.074 33.678 75.074 75.073 0 41.396-33.678 75.074-75.074 75.074s-75.073-33.678-75.073-75.074c0-41.395 33.678-75.073 75.073-75.073zm-174.286 126.647v-35.372h85.676c2.365 12.966 7.516 24.97 14.807 35.372zm166.786 355.353h-48.155v-80.726h48.155zm63.157 0h-48.156v-80.726h48.156zm171.78 0h-56.49v-37.158h56.49zm0-52.158h-56.49v-63.945h56.49zm0-78.945h-56.49v-28.642c0-4.142-3.357-7.5-7.5-7.5s-7.5 3.358-7.5 7.5v159.745h-85.29v-80.726h1.883c12.92 0 23.431-10.499 23.431-23.403 0-12.92-10.511-23.431-23.431-23.431h-55.871c-4.143 0-7.5 3.358-7.5 7.5s3.357 7.5 7.5 7.5h55.871c4.648 0 8.431 3.782 8.431 8.431 0 4.633-3.782 8.403-8.431 8.403h-145.078c-4.633 0-8.402-3.77-8.402-8.403 0-4.648 3.77-8.431 8.402-8.431h54.595c4.143 0 7.5-3.358 7.5-7.5s-3.357-7.5-7.5-7.5h-54.595c-12.904 0-23.402 10.511-23.402 23.431 0 12.904 10.498 23.403 23.402 23.403h1.883v80.726h-85.262v-251.871-38.919-49.562h95.308c16.013 14.591 37.29 23.5 60.609 23.5s44.597-8.908 60.61-23.5h95.336v145.997c0 4.142 3.357 7.5 7.5 7.5s7.5-3.358 7.5-7.5v-50.015h56.49v113.267zm13.578-128.268h-70.068v-23.919h70.068z"/></g></g></svg>