<svg id="Capa_1" enable-background="new 0 0 512 512" height="512" viewBox="0 0 512 512" width="512" xmlns="http://www.w3.org/2000/svg"><g><g><path d="m337.575 305.148-70.257-21.618c-6.727-2.07-11.317-8.285-11.317-15.323v-44.271h-96.194v44.271c0 7.039-4.59 13.254-11.317 15.323l-70.257 21.618c-13.454 4.14-22.635 16.57-22.635 30.647v56.479h304.612v-56.479c0-14.077-9.181-26.507-22.635-30.647z" fill="#f6d190"/><path d="m337.575 305.148-47.881-14.733c-16.948 27.417-47.191 45.746-81.791 45.746s-64.843-18.329-81.791-45.746l-47.881 14.733c-13.454 4.14-22.635 16.57-22.635 30.647v72.512h304.614v-72.512c0-14.077-9.181-26.507-22.635-30.647z" fill="#dad8db"/><path d="m207.903 352.194c41.853 0 78.286-22.956 97.58-56.92l-31.665-9.743c-14.469 20.891-38.579 34.598-65.915 34.598s-51.446-13.707-65.915-34.598l-31.665 9.743c19.294 33.964 55.727 56.92 97.58 56.92z" fill="#eceaec"/><path d="m247.984 7.5h-63.245c-8.875 0-16.562 4.837-20.71 11.999-1.436 2.479-4.042 4.034-6.906 4.034h-5.332c-22.136 0-40.081 17.945-40.081 40.081l20.624 80.161h171.763v-80.162c0-30.991-25.123-56.113-56.113-56.113z" fill="#966a5b"/><path d="m111.71 63.613v80.161h56.113v-104.209c0-8.855-7.178-16.032-16.032-16.032-22.137-.001-40.081 17.944-40.081 40.08z" fill="#785353"/><path d="m295.222 135.758h-7.158c-8.854 0-16.032-7.178-16.032-16.032v-24.049c0-13.282-10.767-24.048-24.048-24.048h-80.161c-13.282 0-24.048 10.767-24.048 24.048v24.048c0 8.854-7.178 16.032-16.032 16.032h-7.158c-7.986 0-15.389 5.457-16.671 13.34-1.634 10.044 6.076 18.725 15.813 18.725h8.016c0 44.272 35.89 80.161 80.161 80.161s80.161-35.89 80.161-80.161h8.016c9.737 0 17.447-8.681 15.813-18.725-1.283-7.882-8.685-13.339-16.672-13.339z" fill="#ffe09f"/><path d="m167.823 167.823v-96.194c-13.282 0-24.048 10.767-24.048 24.048v24.048c0 8.854-7.178 16.032-16.032 16.032h-7.158c-7.986 0-15.388 5.457-16.671 13.339-1.634 10.045 6.076 18.725 15.813 18.725h8.016c0 44.272 35.89 80.161 80.161 80.161 6.933 0 13.624-.973 20.04-2.628-34.555-8.91-60.121-40.193-60.121-77.531z" fill="#f6d190"/><path d="m159.806 260.214c14.398 7.511 30.734 11.818 48.097 11.818s33.699-4.307 48.097-11.818v-36.279h-96.194z" fill="#ecbd83"/><g><path d="m207.903 247.984c44.272 0 80.161-35.89 80.161-80.161h-160.322c0 44.271 35.89 80.161 80.161 80.161z" fill="#faf5dc"/></g><g><path d="m167.823 167.823h-40.081c0 44.272 35.89 80.161 80.161 80.161 6.934 0 13.623-.973 20.04-2.628-34.554-8.912-60.12-40.195-60.12-77.533z" fill="#f5ebcd"/></g><circle cx="352.194" cy="400.29" fill="#faf5dc" r="104.21"/><circle cx="352.194" cy="400.29" fill="#ff8086" r="40.081"/><path d="m366.11 426.454c-22.135 0-40.081-17.945-40.081-40.081 0-7.496 2.096-14.486 5.677-20.486-11.72 6.995-19.593 19.763-19.593 34.404 0 22.136 17.945 40.081 40.081 40.081 14.64 0 27.409-7.875 34.404-19.595-6.001 3.581-12.991 5.677-20.488 5.677z" fill="#e5646e"/><path d="m368.226 488.468c-57.553 0-104.21-46.656-104.21-104.21 0-24.691 8.631-47.34 22.981-65.197-23.766 19.1-39.013 48.366-39.013 81.229 0 57.553 46.656 104.21 104.21 104.21 32.863 0 62.129-15.247 81.229-39.013-17.857 14.35-40.507 22.981-65.197 22.981z" fill="#f5ebcd"/></g><g><path d="m416.323 392.791h-17.142c-1.166-7.4-4.05-14.365-8.459-20.422l12.121-12.121c2.929-2.929 2.929-7.678 0-10.606-2.929-2.929-7.678-2.929-10.606 0l-17.005 17.005c-2.929 2.929-2.929 7.678 0 10.606.004.004.008.007.012.01.002.002.004.005.006.007 6.143 6.152 9.525 14.328 9.525 23.021 0 17.965-14.616 32.581-32.581 32.581s-32.581-14.616-32.581-32.581 14.616-32.581 32.581-32.581c4.142 0 7.5-3.358 7.5-7.5v-24.048c0-4.142-3.358-7.5-7.5-7.5s-7.5 3.358-7.5 7.5v17.145c-7.533 1.198-14.478 4.174-20.4 8.478l-12.142-12.142c-2.929-2.929-7.678-2.929-10.606 0-2.929 2.929-2.929 7.677 0 10.606l12.142 12.142c-4.303 5.923-7.279 12.868-8.477 20.401h-17.145c-4.142 0-7.5 3.358-7.5 7.5s3.358 7.5 7.5 7.5h17.145c1.198 7.533 4.174 14.477 8.477 20.4l-12.142 12.142c-2.929 2.929-2.929 7.678 0 10.606 1.464 1.464 3.384 2.197 5.303 2.197s3.839-.732 5.303-2.197l12.142-12.142c5.923 4.303 12.867 7.279 20.4 8.477v17.145c0 4.142 3.358 7.5 7.5 7.5s7.5-3.358 7.5-7.5v-17.145c7.533-1.198 14.478-4.174 20.401-8.477l12.142 12.142c1.464 1.464 3.384 2.197 5.303 2.197s3.839-.732 5.303-2.197c2.929-2.929 2.929-7.678 0-10.606l-12.143-12.143c4.303-5.923 7.279-12.867 8.478-20.4h17.145c4.142 0 7.5-3.358 7.5-7.5s-3.358-7.5-7.5-7.5z"/><path d="m365.882 400.776c4.142 0 7.5-3.358 7.5-7.5s-3.358-7.5-7.5-7.5h-.068c-4.142 0-7.466 3.358-7.466 7.5s3.392 7.5 7.534 7.5z"/><path d="m352.188 421.317c4.142 0 7.5-3.358 7.5-7.5s-3.358-7.5-7.5-7.5h-.068c-4.142 0-7.466 3.358-7.466 7.5s3.391 7.5 7.534 7.5z"/><path d="m338.494 385.776h-.069c-4.142 0-7.466 3.358-7.466 7.5s3.393 7.5 7.535 7.5 7.5-3.358 7.5-7.5-3.358-7.5-7.5-7.5z"/><path d="m352.193 288.581c-61.597 0-111.709 50.113-111.709 111.71s50.113 111.709 111.709 111.709c61.597 0 111.71-50.113 111.71-111.709 0-61.598-50.112-111.71-111.71-111.71zm0 208.419c-53.326 0-96.709-43.384-96.709-96.709 0-53.326 43.384-96.71 96.709-96.71 53.326 0 96.71 43.384 96.71 96.71 0 53.325-43.383 96.709-96.71 96.709z"/><path d="m175.839 151.274c4.142 0 7.5-3.358 7.5-7.5v-8.016c0-4.142-3.358-7.5-7.5-7.5s-7.5 3.358-7.5 7.5v8.016c0 4.143 3.358 7.5 7.5 7.5z"/><path d="m239.968 151.274c4.142 0 7.5-3.358 7.5-7.5v-8.016c0-4.142-3.358-7.5-7.5-7.5s-7.5 3.358-7.5 7.5v8.016c0 4.143 3.358 7.5 7.5 7.5z"/><path d="m319.296 147.893c-.87-5.346-3.699-10.05-7.7-13.52v-70.76c.001-35.076-28.536-63.613-63.612-63.613h-63.246c-11.155 0-21.577 6.031-27.2 15.74-.04.068-.187.292-.416.292h-5.332c-26.236 0-47.581 21.345-47.581 47.581v40.081c0 4.142 3.358 7.5 7.5 7.5s7.5-3.358 7.5-7.5v-40.081c0-17.965 14.616-32.581 32.581-32.581h5.332c5.486 0 10.619-2.979 13.396-7.775 2.994-5.17 8.31-8.257 14.219-8.257h63.246c26.805 0 48.613 21.808 48.613 48.613v64.706c-.457-.025-.912-.061-1.374-.061h-7.158c-4.705 0-8.532-3.828-8.532-8.533v-24.048c0-17.396-14.152-31.548-31.548-31.548h-80.161c-17.396 0-31.548 14.152-31.548 31.548v24.048c0 4.705-3.828 8.533-8.533 8.533h-7.158c-11.903 0-22.253 8.441-24.074 19.635-1.122 6.895.804 13.87 5.284 19.137 4.482 5.27 11.018 8.292 17.931 8.292h.834c2.059 24.196 14 45.607 31.747 60.206v32.679c0 3.769-2.42 7.046-6.023 8.155l-70.257 21.618c-16.706 5.14-27.929 20.337-27.929 37.815v72.512c0 4.142 3.358 7.5 7.5 7.5s7.5-3.358 7.5-7.5v-72.512c0-10.852 6.969-20.287 17.34-23.478l26.419-8.129c21.89 34.355 60.152 55.505 101.047 55.505 5.724 0 11.476-.408 17.096-1.212 4.101-.587 6.949-4.387 6.362-8.487-.586-4.1-4.388-6.952-8.487-6.362-4.919.704-9.956 1.061-14.971 1.061-34.381 0-66.632-17.094-86.092-45.107l17.281-5.317c16.574 20.966 41.962 33.36 68.811 33.36 26.765 0 52.249-12.417 68.812-33.36l1.12.344c.735.226 1.478.333 2.208.333 3.206 0 6.174-2.072 7.166-5.296 1.218-3.959-1.004-8.156-4.963-9.374l-12.723-3.915c-3.603-1.108-6.023-4.386-6.023-8.155v-32.68c17.746-14.598 29.688-36.009 31.747-60.205h.834c6.914 0 13.449-3.022 17.931-8.292 4.48-5.266 6.405-12.241 5.284-19.136zm-191.554 12.43h-8.016c-2.507 0-4.877-1.097-6.505-3.01-1.648-1.939-2.325-4.428-1.905-7.011.642-3.95 4.713-7.043 9.268-7.043h7.674v8.532c0 3.009.574 5.885 1.608 8.532zm15.516-22.927c4.909-4.316 8.016-10.635 8.016-17.67v-24.049c0-9.125 7.423-16.548 16.548-16.548h80.161c9.125 0 16.548 7.423 16.548 16.548v24.048c0 7.035 3.107 13.354 8.016 17.67v14.395c0 4.705-3.828 8.532-8.532 8.532h-112.224c-4.705 0-8.532-3.828-8.532-8.532v-14.394zm64.645 175.233c-20.396 0-39.776-8.631-53.45-23.452 7.822-3.956 12.853-11.948 12.853-20.969v-22.721c12.146 6.375 25.954 9.997 40.597 9.997s28.45-3.623 40.597-9.997v22.721c0 9.02 5.031 17.012 12.851 20.968-13.677 14.807-33.118 23.453-53.448 23.453zm0-72.145c-37.534 0-68.51-28.606-72.275-65.161h144.55c-3.765 36.554-34.741 65.161-72.275 65.161zm94.682-83.172c-1.627 1.913-3.998 3.01-6.505 3.01h-8.016-2.124c1.034-2.647 1.608-5.523 1.608-8.532v-8.532h7.674c4.554 0 8.625 3.094 9.268 7.043.421 2.583-.256 5.073-1.905 7.011z"/></g></g></svg>