<?xml version="1.0" encoding="iso-8859-1"?>
<!-- Generator: Adobe Illustrator 19.0.0, SVG Export Plug-In . SVG Version: 6.00 Build 0)  -->
<svg version="1.1" id="Layer_1" xmlns="http://www.w3.org/2000/svg" xmlns:xlink="http://www.w3.org/1999/xlink" x="0px" y="0px"
	 viewBox="0 0 512 512" style="enable-background:new 0 0 512 512;" xml:space="preserve">
<circle style="fill:#3CBDE8;" cx="247.449" cy="247.46" r="239.432"/>
<path style="fill:#2A7DB5;" d="M281.653,461.239c-132.235,0-239.432-107.197-239.432-239.432
	c0-70.691,30.643-134.219,79.362-178.047C53.427,85.964,8.017,161.403,8.017,247.46c0,132.235,107.197,239.432,239.432,239.432
	c61.544,0,117.656-23.228,160.07-61.385C370.947,448.153,327.832,461.239,281.653,461.239z"/>
<polygon style="fill:#DB6B5E;" points="503.983,298.767 401.37,273.113 401.37,367.176 503.983,367.176 "/>
<g>
	<polygon style="fill:#F7C14D;" points="401.37,367.176 401.37,503.994 503.983,418.483 503.983,367.176 	"/>
	<polygon style="fill:#F7C14D;" points="401.37,273.113 298.756,298.767 298.756,367.176 401.37,367.176 	"/>
</g>
<polygon style="fill:#DB6B5E;" points="298.756,367.176 298.756,418.483 401.37,503.994 401.37,367.176 "/>
<polygon style="fill:#FFDB66;" points="401.37,290.742 315.858,312.12 315.858,367.176 401.37,367.176 "/>
<g>
	<polygon style="fill:#FF8C78;" points="401.37,481.732 401.37,367.176 315.858,367.176 315.858,410.472 	"/>
	<polygon style="fill:#FF8C78;" points="486.881,367.176 486.881,312.12 401.37,290.742 401.37,367.176 	"/>
</g>
<polygon style="fill:#FFDB66;" points="401.37,481.732 486.881,410.472 486.881,367.176 401.37,367.176 "/>
<path style="fill:#59AD57;" d="M384.268,423.827c-0.481,0-0.963-0.025-1.447-0.075c-3.847-0.403-7.351-2.389-9.671-5.483
	l-25.653-34.205c-4.605-6.139-3.361-14.849,2.78-19.454c6.138-4.603,14.849-3.361,19.454,2.78l16.663,22.217l57.132-49.991
	c5.775-5.055,14.554-4.47,19.608,1.307c5.055,5.775,4.469,14.554-1.307,19.608l-68.409,59.858
	C390.873,422.617,387.617,423.827,384.268,423.827z"/>
<path d="M505.928,290.989l-14.254-3.564c2.134-13.143,3.224-26.565,3.224-39.966c0-66.096-25.739-128.236-72.476-174.973
	S313.545,0.011,247.449,0.011c-54.845,0-106.796,17.572-150.242,50.816c-3.517,2.69-4.186,7.723-1.494,11.238
	c2.69,3.517,7.721,4.186,11.238,1.494c17.598-13.466,36.692-24.176,56.85-31.997c-13.751,11.235-26.495,25.326-37.871,42.092
	c-11.176,16.472-20.567,34.852-28.047,54.625H49.053c8.088-13.439,17.579-26.129,28.41-37.848c3.006-3.252,2.806-8.323-0.446-11.329
	c-3.251-3.005-8.322-2.804-11.329,0.446C23.329,125.379,0,185.012,0,247.46c0,66.096,25.739,128.236,72.476,174.973
	s108.876,72.476,174.973,72.476c36.115,0,70.876-7.615,103.382-22.593l45.406,37.838c2.936,2.448,7.328,2.448,10.266,0
	l102.614-85.511c1.828-1.523,2.884-3.78,2.884-6.159V298.767C512,295.089,509.497,291.882,505.928,290.989z M417.301,268.832
	c0.26-4.431,0.439-8.89,0.538-13.356h60.874c-0.323,9.413-1.199,18.803-2.643,28.048L417.301,268.832z M16.187,255.477h60.87
	c0.725,33.337,5.959,65.552,15.277,95.132H40.336C25.923,321.785,17.353,289.556,16.187,255.477z M93.096,239.443
	c0.779-34.08,6.498-66.308,16.118-95.132h52.894c-4.963,29.543-7.749,61.771-8.135,95.132H93.096z M93.096,255.477h60.877
	c0.386,33.36,3.172,65.588,8.135,95.132h-52.894C99.594,321.785,93.876,289.556,93.096,255.477z M165.067,366.641
	c3.855,19.096,8.667,36.86,14.366,52.818c7.588,21.246,16.47,38.323,26.272,50.822c-38.243-16.104-70.522-53.764-90.605-103.64
	H165.067z M239.432,477.465c-16.255-5.622-32.266-28.022-44.9-63.397c-5.135-14.378-9.517-30.315-13.102-47.426h58.002V477.465z
	 M178.365,350.608c-5.095-29.36-7.963-61.622-8.359-95.132h69.426v95.132H178.365z M170.008,239.443
	c0.394-33.51,3.262-65.771,8.359-95.132h61.066v95.132H170.008z M478.71,239.443h-60.87c-0.725-33.337-5.959-65.552-15.277-95.132
	h51.998C468.975,173.135,477.544,205.364,478.71,239.443z M401.801,239.443h-60.877c-0.386-33.36-3.172-65.588-8.135-95.132h52.894
	C395.304,173.135,401.022,205.364,401.801,239.443z M329.831,128.278c-3.855-19.096-8.667-36.86-14.366-52.818
	c-7.588-21.246-16.47-38.323-26.272-50.822c38.243,16.104,70.522,53.764,90.605,103.64
	C379.797,128.278,329.831,128.278,329.831,128.278z M300.366,80.852c5.135,14.378,9.517,30.315,13.103,47.426h-58.002V17.455
	C271.72,23.077,287.731,45.477,300.366,80.852z M239.432,17.455v110.823H181.43c3.585-17.111,7.968-33.048,13.102-47.426
	C207.167,45.477,223.177,23.077,239.432,17.455z M255.466,144.312h61.067c5.095,29.36,7.963,61.622,8.359,95.132h-69.426V144.312z
	 M401.8,255.477c-0.074,3.215-0.189,6.426-0.351,9.624c-0.68-0.006-1.361,0.068-2.026,0.234l-59.23,14.807
	c0.392-8.159,0.622-16.406,0.718-24.667H401.8V255.477z M445.744,128.278h-48.729c-7.48-19.772-16.869-38.153-28.047-54.625
	c-11.291-16.639-23.928-30.648-37.561-41.842C379.3,50.524,419.482,84.747,445.744,128.278z M205.705,24.638
	c-9.803,12.499-18.683,29.575-26.272,50.822c-5.699,15.959-10.51,33.723-14.366,52.818H115.1
	C135.183,78.403,167.462,40.743,205.705,24.638z M92.335,144.312c-9.318,29.579-14.553,61.795-15.277,95.132H16.186
	c1.145-33.383,9.413-65.741,24.06-95.132H92.335z M49.154,366.641h48.729c7.48,19.772,16.869,38.153,28.047,54.625
	c11.291,16.639,23.928,30.648,37.561,41.842C115.598,444.397,75.416,410.172,49.154,366.641z M284.593,475.922
	c8.657-9.514,16.674-22.534,23.893-38.895l28.6,23.833C320.164,467.991,302.62,473.025,284.593,475.922z M495.967,414.729
	L401.37,493.56l-94.597-78.831v-30.451c0-4.428-3.588-8.017-8.017-8.017s-8.017,3.588-8.017,8.017v34.205
	c0,2.379,1.056,4.636,2.884,6.159l2.01,1.675c-11.738,28.125-25.976,46.124-40.167,51.129V366.641h26.188
	c4.428,0,8.017-3.588,8.017-8.017s-3.588-8.017-8.017-8.017h-26.188v-95.132h69.414c-0.115,9.646-0.445,19.257-0.972,28.738
	l-27.098,6.775c-3.569,0.893-6.072,4.099-6.072,7.777v34.205c0,4.428,3.588,8.017,8.017,8.017s8.017-3.588,8.017-8.017v-27.946
	l94.597-23.649l94.597,23.649v109.704H495.967z"/>
<path d="M376.144,362.581c-7.25-9.666-21.012-11.631-30.677-4.384c-9.666,7.25-11.633,21.012-4.384,30.677l25.653,34.205
	c7.535,10.047,22.502,11.621,31.959,3.344l68.409-59.858c4.405-3.853,7.046-9.194,7.435-15.033
	c0.389-5.839-1.52-11.482-5.373-15.886c-3.853-4.405-9.194-7.046-15.033-7.435c-5.836-0.39-11.483,1.52-15.886,5.373l-50.627,44.298
	L376.144,362.581z M448.806,345.649c2.41-2.112,6.187-1.856,8.296,0.555c2.109,2.411,1.859,6.185-0.554,8.295l-68.41,59.859
	c-2.538,2.219-6.556,1.796-8.574-0.898l-25.653-34.205c-1.783-2.377-1.47-5.83,0.714-7.846c2.523-2.328,6.634-1.955,8.693,0.791
	l16.663,22.217c2.757,3.676,8.234,4.254,11.692,1.224L448.806,345.649z"/>
<g>
</g>
<g>
</g>
<g>
</g>
<g>
</g>
<g>
</g>
<g>
</g>
<g>
</g>
<g>
</g>
<g>
</g>
<g>
</g>
<g>
</g>
<g>
</g>
<g>
</g>
<g>
</g>
<g>
</g>
</svg>
