<svg id="Capa_1" enable-background="new 0 0 512 512" height="512" viewBox="0 0 512 512" width="512" xmlns="http://www.w3.org/2000/svg"><g id="XMLID_232_"><path id="XMLID_628_" d="m96 141.602c19.048 0 34.49-15.441 34.49-34.49v-8.622c0-19.049-15.442-34.49-34.49-34.49-19.048 0-34.49 15.441-34.49 34.49v8.622c0 19.048 15.442 34.49 34.49 34.49z" fill="#f2b394"/><path id="XMLID_627_" d="m139.717 279.425v-64.971" fill="#a0c8ff"/><g id="XMLID_579_"><g id="XMLID_625_"><path id="XMLID_1313_" d="m112.876 141.584h-16.876-16.876c-38.176 0-69.124 30.948-69.124 69.124v94.151c0 11.577 9.385 20.961 20.961 20.961 11.577 0 20.962-9.385 20.962-20.961v-30.625h87.859v31.736c.67 11.072 9.836 19.851 21.076 19.851 11.676 0 21.142-9.465 21.142-21.141v-93.971c0-38.177-30.948-69.125-69.124-69.125z" fill="#ffd88e"/><path id="XMLID_1443_" d="m51.923 274.233v205.777c.001 12.145 9.847 21.99 21.992 21.99h.016c12.092 0 21.902-9.761 21.988-21.834.085 12.073 9.895 21.834 21.988 21.834h.016c12.145 0 21.991-9.845 21.992-21.989v-205.778z" fill="#a0c8ff"/></g><path id="XMLID_596_" d="m139.717 274.233h-87.794" fill="#a0c8ff"/></g><path id="XMLID_1458_" d="m416 141.602c19.048 0 34.49-15.441 34.49-34.49v-8.622c0-19.049-15.442-34.49-34.49-34.49-19.048 0-34.49 15.441-34.49 34.49v8.622c0 19.048 15.442 34.49 34.49 34.49z" fill="#ffd0c7"/><path id="XMLID_1457_" d="m459.717 279.425v-64.971" fill="#a0c8ff"/><g id="XMLID_1452_"><g id="XMLID_1454_"><path id="XMLID_1456_" d="m432.875 141.584h-16.875-16.875c-38.176 0-69.125 30.948-69.125 69.124v94.151c0 11.577 9.385 20.961 20.961 20.961 11.577 0 20.962-9.385 20.962-20.961v-30.625h87.859v31.736c.67 11.072 9.836 19.851 21.076 19.851 11.676 0 21.142-9.465 21.142-21.141v-93.971c0-38.177-30.948-69.125-69.125-69.125z" fill="#ff5c7d"/><path id="XMLID_1455_" d="m371.923 274.233v205.777c.001 12.145 9.847 21.99 21.992 21.99h.016c12.092 0 21.902-9.761 21.988-21.834.085 12.073 9.895 21.834 21.988 21.834h.016c12.145 0 21.991-9.845 21.992-21.989v-205.778z" fill="#a0c8ff"/></g><path id="XMLID_1453_" d="m459.717 274.233h-87.794" fill="#a0c8ff"/></g><g id="XMLID_2301_"><circle id="XMLID_2455_" cx="256.127" cy="66" fill="#ff9171" r="36"/><g id="XMLID_433_"><path id="XMLID_961_" d="m192 210.708c0-37.197-25.808-68.463-60.453-76.879 5.61-7.445 8.942-16.698 8.942-26.717v-8.622c0-24.532-19.958-44.49-44.489-44.49s-44.489 19.958-44.489 44.49v8.622c0 10.022 3.35 19.266 8.962 26.712-34.655 8.409-60.473 39.679-60.473 76.884v94.151c0 17.072 13.89 30.961 30.962 30.961 3.858 0 7.551-.715 10.961-2.011v146.199c0 17.64 14.351 31.992 32.008 31.992 8.513 0 16.254-3.349 21.992-8.79 5.738 5.441 13.479 8.79 21.992 8.79 8.55 0 16.587-3.331 22.63-9.378 6.044-6.048 9.368-14.087 9.362-22.637l-.105-146.208c3.439 1.311 7.162 2.043 11.056 2.043 17.172 0 31.142-13.97 31.142-31.142zm-120.489-112.218c0-13.504 10.985-24.49 24.489-24.49s24.489 10.986 24.489 24.49v8.622c0 13.504-10.985 24.49-24.489 24.49s-24.489-10.986-24.489-24.49zm54.886 389.994c-2.265 2.267-5.277 3.516-8.482 3.516-6.612 0-11.992-5.379-11.992-11.992v-147.17c0-5.523-4.478-10-10-10s-10 4.477-10 10v147.17c0 6.612-5.38 11.992-12.008 11.992-6.612 0-11.992-5.379-11.992-11.992v-195.775h67.844l.14 195.767c.002 3.204-1.244 6.218-3.51 8.484zm45.603-183.805c0 6.144-4.998 11.142-11.142 11.142-5.742 0-10.481-4.367-11.076-9.953l-.065-91.042v-.371c0-5.523-4.477-10-10-10-5.522 0-10 4.477-10 10v49.779h-67.794v-49.401c0-5.523-4.478-10-10-10-5.523 0-10 4.477-10 10v90.026c0 6.044-4.918 10.961-10.962 10.961s-10.961-4.918-10.961-10.961v-94.151c0-32.602 26.523-59.124 59.124-59.124h33.752c32.601 0 59.124 26.523 59.124 59.124z"/><path id="XMLID_966_" d="m451.546 133.829c5.61-7.445 8.943-16.698 8.943-26.717v-8.622c0-24.532-19.958-44.49-44.489-44.49s-44.489 19.958-44.489 44.49v8.622c0 10.021 3.343 19.268 8.955 26.714-34.652 8.412-60.466 39.68-60.466 76.882v94.151c0 17.072 13.89 30.961 30.962 30.961 3.858 0 7.551-.715 10.961-2.011v28.191c0 5.523 4.477 10 10 10 5.522 0 10-4.477 10-10v-77.767h67.844l.14 195.767c.002 3.205-1.244 6.218-3.51 8.485-2.265 2.267-5.277 3.516-8.482 3.516-6.612 0-11.992-5.379-11.992-11.992v-147.17c0-5.523-4.478-10-10-10-5.523 0-10 4.477-10 10v147.17c0 6.612-5.38 11.992-12.008 11.992-6.612 0-11.992-5.379-11.992-11.992v-28.009c0-5.523-4.478-10-10-10-5.523 0-10 4.477-10 10v28.008c0 17.64 14.352 31.992 32.008 31.992 8.513 0 16.254-3.349 21.992-8.79 5.738 5.441 13.479 8.79 21.992 8.79 8.55 0 16.587-3.331 22.63-9.378 6.044-6.048 9.368-14.087 9.362-22.637l-.105-146.201c3.439 1.311 7.163 2.037 11.056 2.037 17.172 0 31.142-13.97 31.142-31.142v-93.971c0-37.197-25.808-68.463-60.454-76.879zm-60.035-35.339c0-13.504 10.985-24.49 24.489-24.49s24.489 10.986 24.489 24.49v8.622c0 13.504-10.985 24.49-24.489 24.49s-24.489-10.986-24.489-24.49zm100.489 206.189c0 6.144-4.998 11.142-11.142 11.142-5.742 0-10.481-4.367-11.076-9.953l-.065-91.042v-.371c0-5.523-4.478-10-10-10s-10 4.477-10 10v49.779h-67.794v-49.401c0-5.523-4.478-10-10-10-5.523 0-10 4.477-10 10v90.026c0 6.044-4.918 10.961-10.962 10.961s-10.961-4.918-10.961-10.961v-94.151c0-32.602 26.523-59.124 59.124-59.124h33.752c32.601 0 59.124 26.523 59.124 59.124z"/><path id="XMLID_968_" d="m309.302 357.125c-3.906-3.905-10.236-3.905-14.143 0-3.217 3.217-3.777 8.078-1.694 11.875h-74.93c2.083-3.797 1.522-8.658-1.694-11.875-3.906-3.905-10.236-3.905-14.143 0l-14.804 14.804c-3.905 3.905-3.905 10.237 0 14.143l14.804 14.804c1.953 1.953 4.512 2.929 7.071 2.929 2.56 0 5.118-.976 7.071-2.929 3.217-3.217 3.777-8.078 1.694-11.875h74.93c-2.083 3.797-1.522 8.658 1.694 11.875 1.953 1.953 4.512 2.929 7.071 2.929 2.56 0 5.118-.976 7.071-2.929l14.804-14.804c3.905-3.905 3.905-10.237 0-14.143z"/><path id="XMLID_969_" d="m371.92 417c2.64 0 5.21-1.07 7.07-2.93 1.869-1.86 2.93-4.44 2.93-7.07s-1.06-5.21-2.93-7.07c-1.86-1.86-4.431-2.93-7.07-2.93-2.63 0-5.21 1.07-7.07 2.93-1.859 1.86-2.93 4.44-2.93 7.07s1.07 5.21 2.93 7.07 4.44 2.93 7.07 2.93z"/><path id="XMLID_972_" d="m200.127 76h11.108c1.177 5.285 3.264 10.228 6.09 14.66l-7.867 7.867c-3.905 3.905-3.905 10.237 0 14.143 1.953 1.953 4.512 2.929 7.071 2.929s5.118-.976 7.071-2.929l7.868-7.868c4.431 2.826 9.373 4.914 14.659 6.09v11.108c0 5.523 4.478 10 10 10s10-4.477 10-10v-11.108c5.285-1.177 10.228-3.264 14.66-6.091l7.867 7.867c1.953 1.953 4.512 2.929 7.071 2.929s5.118-.977 7.071-2.929c3.905-3.905 3.905-10.237 0-14.142l-7.867-7.868c2.826-4.432 4.914-9.374 6.09-14.659h11.108c5.522 0 10-4.477 10-10s-4.478-10-10-10h-11.108c-1.177-5.285-3.264-10.228-6.09-14.659l7.867-7.868c3.905-3.905 3.905-10.237 0-14.142-3.906-3.905-10.238-3.905-14.143 0l-7.867 7.867c-4.432-2.826-9.374-4.914-14.66-6.091v-11.106c0-5.523-4.478-10-10-10-5.523 0-10 4.477-10 10v11.108c-5.285 1.177-10.228 3.264-14.659 6.09l-7.868-7.867c-3.906-3.905-10.236-3.905-14.143 0-3.905 3.905-3.905 10.237 0 14.142l7.867 7.867c-2.826 4.432-4.914 9.374-6.09 14.66h-11.108c-5.522 0-10 4.477-10 10s4.48 10 10.002 10zm56-36c14.337 0 26 11.664 26 26s-11.663 26-26 26-26-11.664-26-26 11.663-26 26-26z"/></g></g></g></svg>