<svg id="Capa_1" enable-background="new 0 0 512 512" height="512" viewBox="0 0 512 512" width="512" xmlns="http://www.w3.org/2000/svg"><g><path d="m343.941 178c-40.284 0-72.941 32.657-72.941 72.941v253.559h30v-236.5c0-16.569 13.431-30 30-30h72.941v-60z" fill="#ffd959"/><path d="m168.059 178c40.284 0 72.941 32.657 72.941 72.941v253.559h-30v-236.5c0-16.569-13.431-30-30-30h-72.941v-60z" fill="#ffeaa6"/><path d="m155.145 208c0-9.736 2.963-17.42 10.581-26.929 25.364-31.524 18.129-78.265-14.227-102.616-15.531-11.688-33.801-15.614-51.683-13.307v285.704c17.882 2.307 36.153-1.619 51.683-13.307 32.356-24.352 39.591-71.092 14.227-102.616-7.619-9.509-10.581-17.193-10.581-26.929z" fill="#ea1726"/><path d="m138.367 234.929c-6.301-9.509-8.752-17.193-8.752-26.929s2.45-17.42 8.752-26.929c20.978-31.524 14.994-78.265-11.767-102.616-8.225-7.484-17.38-11.781-26.784-13.307-19.374 2.5-38.291 12.319-52.768 27.595-28.545 30.122-39.548 73.294-39.548 115.257s11.003 85.135 39.548 115.257c14.477 15.277 33.394 25.096 52.768 27.595 9.404-1.526 18.56-5.823 26.784-13.307 26.761-24.352 32.745-71.092 11.767-102.616z" fill="#ff4547"/><circle cx="256" cy="172.5" fill="#414851" r="15"/><path d="m256 7.5c-8.284 0-15 6.716-15 15v90c0 8.284 6.716 15 15 15s15-6.716 15-15v-90c0-8.284-6.716-15-15-15z" fill="#414851"/><path d="m464.952 92.743c-18.094-19.094-43.122-29.677-67.312-28.07l.015 286.654c24.185 1.602 49.207-8.981 67.297-28.071 28.545-30.121 39.548-73.293 39.548-115.256s-11.003-85.135-39.548-115.257z" fill="#ea1726"/><path d="m443.191 323.257c22.598-30.122 31.309-73.294 31.309-115.257s-8.711-85.135-31.309-115.257c-12.4-16.529-28.915-26.681-45.551-28.07-13.028.866-25.813 5.257-37.139 13.782-32.356 24.352-39.591 71.092-14.227 102.616 7.619 9.509 10.581 17.193 10.581 26.929s-2.963 17.42-10.581 26.929c-25.364 31.524-18.129 78.264 14.227 102.616 11.331 8.527 24.121 12.919 37.154 13.782 16.631-1.393 33.14-11.546 45.536-28.07z" fill="#ff4547"/><path d="m180.651 171.493c6.594-13.413 9.155-28.559 7.232-43.99-2.715-21.778-14.333-41.839-31.874-55.041-16.889-12.71-38.057-17.832-59.603-14.419-20.34 3.221-39.802 13.712-54.802 29.542-26.829 28.311-41.604 71.075-41.604 120.415s14.775 92.104 41.604 120.416c15 15.829 34.462 26.32 54.802 29.542 4.357.69 8.698 1.031 12.992 1.031 16.94 0 33.137-5.31 46.611-15.451 17.541-13.202 29.158-33.263 31.874-55.041 1.877-15.051-.515-29.832-6.749-42.994 12.345.073 22.366 10.135 22.366 22.497 0 4.142 3.358 7.5 7.5 7.5s7.5-3.358 7.5-7.5c0-20.678-16.822-37.5-37.5-37.5h-9.221c-.069-.086-.131-.176-.2-.261-6.513-8.128-8.935-14.156-8.935-22.239s2.421-14.111 8.925-22.227c.044-.055.083-.112.127-.167 34.398 1.895 61.803 30.471 61.803 65.335v246.059h-15v-199c0-4.142-3.358-7.5-7.5-7.5s-7.5 3.358-7.5 7.5v206.5c0 4.142 3.358 7.5 7.5 7.5h30c4.142 0 7.5-3.358 7.5-7.5v-253.559c.001-40.072-29.454-73.386-67.848-79.448zm-20.768 68.137c10.595 13.168 15.252 29.864 13.115 47.011-2.216 17.77-11.695 34.139-26.009 44.911-11.691 8.8-24.575 12.574-37.348 12.572-21.45-.002-42.579-10.651-57.149-26.026-24.177-25.513-37.492-64.613-37.492-110.098s13.315-84.585 37.492-110.098c14.572-15.377 35.697-26.026 57.149-26.026 12.771 0 25.658 3.774 37.348 12.572 14.313 10.772 23.793 27.142 26.009 44.911 2.138 17.147-2.52 33.842-13.125 47.022-8.686 10.84-12.229 20.001-12.229 31.619s3.544 20.778 12.239 31.63z"/><path d="m278.5 172.5c0-12.407-10.093-22.5-22.5-22.5s-22.5 10.093-22.5 22.5 10.093 22.5 22.5 22.5 22.5-10.093 22.5-22.5zm-22.5 7.5c-4.136 0-7.5-3.364-7.5-7.5s3.364-7.5 7.5-7.5 7.5 3.364 7.5 7.5-3.364 7.5-7.5 7.5z"/><path d="m256 135c12.407 0 22.5-10.093 22.5-22.5v-90c0-12.407-10.093-22.5-22.5-22.5s-22.5 10.093-22.5 22.5v90c0 12.407 10.093 22.5 22.5 22.5zm-7.5-112.5c0-4.136 3.364-7.5 7.5-7.5s7.5 3.364 7.5 7.5v90c0 4.136-3.364 7.5-7.5 7.5s-7.5-3.364-7.5-7.5z"/><path d="m470.396 87.584c-15-15.829-34.462-26.32-54.802-29.542-21.544-3.412-42.713 1.708-59.603 14.419-17.541 13.202-29.158 33.263-31.874 55.041-1.924 15.432.638 30.58 7.23 43.99-38.394 6.063-67.848 39.377-67.848 79.448v253.56c0 4.142 3.358 7.5 7.5 7.5h30c4.142 0 7.5-3.358 7.5-7.5v-236.5c0-12.363 10.022-22.425 22.368-22.497-6.236 13.165-8.627 27.944-6.75 42.994 2.715 21.778 14.333 41.839 31.874 55.041 13.475 10.141 29.669 15.451 46.611 15.451 4.292 0 8.636-.341 12.992-1.031 20.34-3.221 39.802-13.712 54.802-29.542 26.829-28.312 41.604-71.076 41.604-120.416s-14.775-92.104-41.604-120.416zm-139.396 142.916c-20.678 0-37.5 16.822-37.5 37.5v229h-15v-246.059c0-34.863 27.405-63.44 61.803-65.335.041.051.077.104.118.155 6.513 8.128 8.935 14.156 8.935 22.239s-2.421 14.111-8.925 22.227c-.072.09-.137.183-.208.273zm128.508 87.598c-23.248 24.531-63.172 37.032-94.497 13.454-14.313-10.772-23.793-27.142-26.009-44.911-2.138-17.147 2.52-33.842 13.125-47.022 8.686-10.84 12.229-20.001 12.229-31.619s-3.543-20.778-12.238-31.63c-10.595-13.168-15.252-29.864-13.115-47.011 2.216-17.77 11.695-34.139 26.009-44.911 11.691-8.8 24.575-12.572 37.348-12.572 21.45 0 42.579 10.651 57.149 26.026 24.176 25.513 37.491 64.613 37.491 110.098s-13.315 84.585-37.492 110.098z"/></g></svg>