<svg height="496pt" viewBox="0 0 496 496" width="496pt" xmlns="http://www.w3.org/2000/svg"><path d="m264 488h-96v-72l40 40 24-64 59.679688 14.878906c21.359374 5.359375 36.320312 24.5625 36.320312 46.5625v34.558594zm0 0" fill="#e6e9ed"/><path d="m72 488h-64v-34.558594c0-22 14.960938-41.203125 36.320312-46.5625l59.679688-14.878906 24 64 40-40v72zm0 0" fill="#e6e9ed"/><path d="m232 392-24 64-40-40 32-32zm0 0" fill="#b4dd7f"/><path d="m168 416-40 40-24-64 32-8zm0 0" fill="#b4dd7f"/><path d="m264 192v24.800781c-2.558594-.5625-5.28125-.800781-8-.800781h-52.800781c-33.121094 0-65.277344-11.28125-91.199219-32-7.519531 4.960938-13.441406 11.679688-17.601562 19.441406-2.160157 4-3.839844 8.320313-4.957032 12.878906l-1.441406-.320312h-8c-2.71875 0-5.441406.238281-8 .800781v-24.800781c0-52.960938 43.039062-96 96-96s96 43.039062 96 96zm0 0" fill="#b27946"/><path d="m296 192v64c0-11.039062-4.480469-21.039062-11.679688-28.320312-5.441406-5.441407-12.480468-9.28125-20.320312-10.878907v-24.800781c0-52.960938-43.039062-96-96-96s-96 43.039062-96 96v24.800781c-7.839844 1.597657-14.878906 5.4375-20.320312 10.878907-7.199219 7.28125-11.679688 17.28125-11.679688 28.320312v-64c0-70.71875 57.28125-128 128-128 35.359375 0 67.359375 14.320312 90.558594 37.441406 23.121094 23.199219 37.441406 55.199219 37.441406 90.558594zm0 0" fill="#ccd1d9"/><path d="m284.320312 227.679688c7.199219 7.28125 11.679688 17.28125 11.679688 28.320312 0 13.039062-6.320312 24.71875-16 31.921875v.078125c-6.640625 5.039062-14.960938 8-24 8h-8.398438c.238282-2.640625.398438-5.28125.398438-8v-72h8c2.71875 0 5.441406.238281 8 .800781 7.839844 1.597657 14.878906 5.4375 20.320312 10.878907zm0 0" fill="#969faa"/><path d="m88 216 1.441406.320312c-.960937 4.078126-1.441406 8.238282-1.441406 12.558594v59.121094c0 2.71875.160156 5.359375.398438 8h-8.398438c-22.078125 0-40-17.921875-40-40 0-11.039062 4.480469-21.039062 11.679688-28.320312 5.441406-5.441407 12.480468-9.28125 20.320312-10.878907 2.558594-.5625 5.28125-.800781 8-.800781zm0 0" fill="#969faa"/><path d="m200 361.28125v22.71875l-32 32-32-32v-22.71875c9.761719 4.320312 20.640625 6.71875 32 6.71875s22.238281-2.398438 32-6.71875zm0 0" fill="#f0d0b4"/><path d="m248 216v72c0 2.71875-.160156 5.359375-.398438 8-1.839843 18.878906-10.320312 35.839844-23.042968 48.558594-7.039063 7.042968-15.359375 12.722656-24.558594 16.722656-9.761719 4.320312-20.640625 6.71875-32 6.71875s-22.238281-2.398438-32-6.71875c-25.921875-11.28125-44.71875-35.921875-47.601562-65.28125-.238282-2.640625-.398438-5.28125-.398438-8v-59.121094c0-4.320312.480469-8.480468 1.441406-12.558594 1.117188-4.558593 2.796875-8.878906 4.957032-12.878906 4.160156-7.761718 10.082031-14.480468 17.601562-19.441406 25.921875 20.71875 58.078125 32 91.199219 32zm0 0" fill="#f0d0b4"/><path d="m488 24v96c0 8.800781-7.199219 16-16 16h-24l-72 32v-32h-48c-8.800781 0-16-7.199219-16-16v-96c0-8.800781 7.199219-16 16-16h144c8.800781 0 16 7.199219 16 16zm0 0" fill="#fcd770"/><path d="m136 248c0 4.417969-3.582031 8-8 8s-8-3.582031-8-8 3.582031-8 8-8 8 3.582031 8 8zm0 0"/><path d="m216 248c0 4.417969-3.582031 8-8 8s-8-3.582031-8-8 3.582031-8 8-8 8 3.582031 8 8zm0 0"/><path d="m168 320c-8.824219 0-16-7.175781-16-16h-16c0 17.648438 14.351562 32 32 32s32-14.351562 32-32h-16c0 8.824219-7.175781 16-16 16zm0 0"/><path d="m336 32h16v16h-16zm0 0"/><path d="m368 32h96v16h-96zm0 0"/><path d="m368 64h96v16h-96zm0 0"/><path d="m336 64h16v16h-16zm0 0"/><path d="m336 96h16v16h-16zm0 0"/><path d="m368 96h96v16h-96zm0 0"/><path d="m472 144c13.230469 0 24-10.769531 24-24v-96c0-13.230469-10.769531-24-24-24h-144c-13.230469 0-24 10.769531-24 24v96c0 13.230469 10.769531 24 24 24h40v36.3125l72-32v59.6875c0 13.230469 10.769531 24 24 24h8c4.414062 0 8 3.59375 8 8v48c0 4.414062-3.585938 8-8 8h-24v-16h-16v32h40c13.230469 0 24-10.769531 24-24v-48c0-13.230469-10.769531-24-24-24h-8c-4.414062 0-8-3.59375-8-8v-64zm-144-16c-4.414062 0-8-3.59375-8-8v-96c0-4.40625 3.585938-8 8-8h144c4.414062 0 8 3.59375 8 8v96c0 4.40625-3.585938 8-8 8h-25.695312l-62.304688 27.6875v-27.6875zm0 0"/><path d="m320 320v16c0 4.414062-3.585938 8-8 8h-16c-4.414062 0-8-3.585938-8-8v-44.320312c9.792969-8.792969 16-21.503907 16-35.679688v-64c0-74.992188-61.007812-136-136-136s-136 61.007812-136 136v64c0 26.472656 21.527344 48 48 48h1.527344c5.023437 27.207031 22.585937 50.03125 46.472656 62.289062v11.472657l-85.574219 21.398437c-24.976562 6.230469-42.425781 28.566406-42.425781 54.320313v42.519531h336v-42.519531c0-25.753907-17.449219-48.089844-42.425781-54.320313l-85.574219-21.398437v-11.472657c23.886719-12.257812 41.449219-35.074218 46.472656-62.289062h1.527344c5.617188 0 10.984375-1.023438 16-2.800781v34.800781c0 13.230469 10.769531 24 24 24h16c13.230469 0 24-10.769531 24-24v-16c0-4.414062 3.585938-8 8-8h24v16h16v-32h-40c-13.230469 0-24 10.769531-24 24zm-152-248c66.167969 0 120 53.832031 120 120v28.320312c-4.625-4.152343-10.03125-7.410156-16-9.519531v-18.800781c0-57.34375-46.65625-104-104-104s-104 46.65625-104 104v18.800781c-5.96875 2.121094-11.375 5.375-16 9.519531v-28.320312c0-66.167969 53.832031-120 120-120zm-120 184c0-17.648438 14.351562-32 32-32h.296875c-.121094 1.609375-.296875 3.207031-.296875 4.839844v59.160156c-17.648438 0-32-14.351562-32-32zm35.679688-48h-3.679688v-16c0-48.519531 39.480469-88 88-88s88 39.480469 88 88v16h-52.777344c-31.222656 0-61.847656-10.742188-86.222656-30.246094l-4.566406-3.65625-4.867188 3.246094c-11.246094 7.496094-19.46875 18.3125-23.886718 30.65625zm49.863281 184.855469 23.144531 23.144531-25.558594 25.550781-16.488281-43.964843zm-117.542969 60.625c0-18.390625 12.464844-34.34375 30.296875-38.808594l52.710937-13.183594 25.863282 68.953125 35.128906-35.128906v44.6875h-80v-32h-16v32h-48zm304 0v26.519531h-48v-32h-16v32h-80v-44.6875l35.128906 35.128906 25.863282-68.953125 52.710937 13.183594c17.832031 4.464844 30.296875 20.417969 30.296875 38.808594zm-98.640625-55.894531-16.488281 43.964843-25.558594-25.550781 23.144531-23.144531zm-29.359375-16.898438-24 24-24-24v-8.09375c7.640625 2.167969 15.671875 3.40625 24 3.40625s16.359375-1.238281 24-3.40625zm48-92.6875c0 39.703125-32.296875 72-72 72s-72-32.296875-72-72v-59.160156c0-13.496094 5.878906-26.136719 15.960938-34.792969 26.34375 19.359375 58.511718 29.953125 91.261718 29.953125h36.777344zm16-64c17.648438 0 32 14.351562 32 32s-14.351562 32-32 32zm0 0"/><path d="m400 280h16v48h-16zm0 0"/></svg>