<svg id="Capa_1" enable-background="new 0 0 512.033 512.033" height="512" viewBox="0 0 512.033 512.033" width="512" xmlns="http://www.w3.org/2000/svg"><g><path d="m10.581 223.424c-11.572-47.536 10.557-96.839 53.73-119.854 50.08-26.698 113.979-46.609 183.642-46.609s133.562 19.912 183.642 46.609c43.172 23.015 65.302 72.318 53.73 119.854l-47.079 193.389c-10.719 44.032-50.16 75.023-95.478 75.023h-189.63c-45.318 0-84.759-30.991-95.478-75.023z" fill="#8daee1"/><path d="m10.581 223.424c-11.572-47.536 10.557-96.839 53.73-119.854 50.08-26.698 113.979-46.609 183.642-46.609s133.562 19.912 183.642 46.609c43.172 23.015 65.302 72.318 53.73 119.854l-47.079 193.389c-10.719 44.032-50.16 75.023-95.478 75.023h-189.63c-45.318 0-84.759-30.991-95.478-75.023z" fill="#b39bdb"/><path d="m247.952 56.961c-16.523 0-32.717 1.132-48.484 3.197v75.794h96.968v-75.793c-15.767-2.066-31.961-3.198-48.484-3.198z" fill="#a2ddfd"/><path d="m146.495 70.889c-30.055 8.27-57.766 19.664-82.184 32.682-43.172 23.015-65.302 72.318-53.73 119.854l47.079 193.39c10.719 44.032 50.16 75.023 95.478 75.023h114.349c-110.692-53.334-160.246-311.425-120.992-420.949z" fill="#8f8bd5"/><path d="m320.395 165.33v-27.079c0-6.502-3.727-12.449-9.62-15.196-14.733-6.869-37.575-12.828-62.824-12.828s-48.091 5.959-62.824 12.828c-5.893 2.747-9.62 8.695-9.62 15.196v27.079c0 9.28 7.523 16.803 16.803 16.803h111.28c9.282 0 16.805-7.523 16.805-16.803z" fill="#fff"/><path d="" style="fill:none;stroke:#000;stroke-width:15;stroke-linecap:round;stroke-linejoin:round;stroke-miterlimit:10"/><path d="m334.4 230.506-22.564 43.948c-5.878 11.45-17.667 18.649-30.538 18.649h-66.692c-12.87 0-24.659-7.199-30.538-18.649l-22.564-43.949c-9.841-19.168-32.409-28.018-52.657-20.648l-20.57 7.487c-14.9 5.423-23.337 21.185-19.586 36.591l33.771 138.726c7.134 29.305 33.384 49.931 63.545 49.931h163.888c30.161 0 56.41-20.626 63.545-49.931l33.772-138.726c3.751-15.406-4.686-31.168-19.586-36.591l-20.57-7.487c-20.247-7.369-42.815 1.48-52.656 20.649z" fill="#a2ddfd"/><ellipse cx="431.501" cy="93.229" fill="#f6ee86" rx="73.033" ry="73.033" transform="matrix(.707 -.707 .707 .707 60.461 332.423)"/><path d="m108.848 209.857-20.57 7.487c-14.9 5.423-23.337 21.185-19.586 36.59l33.771 138.726c7.134 29.305 33.384 49.931 63.545 49.931h45.856c-42.958-58.247-69.67-150.421-76.782-233.699-8.375-2.367-17.519-2.207-26.234.965z" fill="#7acdf9"/><g><g fill="#fff"><ellipse cx="164.387" cy="394.345" rx="30.834" ry="24.555"/><ellipse cx="331.518" cy="394.345" rx="30.834" ry="24.555"/></g></g><g fill="#fff"><path d="m151.919 325.093h-16.643c-4.142 0-7.5-3.358-7.5-7.5s3.358-7.5 7.5-7.5h16.643c4.142 0 7.5 3.358 7.5 7.5s-3.358 7.5-7.5 7.5z"/><path d="m129.229 285.779h-11.096c-4.142 0-7.5-3.358-7.5-7.5s3.358-7.5 7.5-7.5h11.096c4.142 0 7.5 3.358 7.5 7.5s-3.358 7.5-7.5 7.5z"/></g><g fill="#fff"><path d="m360.629 325.093h-16.644c-4.143 0-7.5-3.358-7.5-7.5s3.357-7.5 7.5-7.5h16.644c4.143 0 7.5 3.358 7.5 7.5s-3.357 7.5-7.5 7.5z"/><path d="m377.772 285.779h-11.096c-4.143 0-7.5-3.358-7.5-7.5s3.357-7.5 7.5-7.5h11.096c4.143 0 7.5 3.358 7.5 7.5s-3.358 7.5-7.5 7.5z"/></g><path d="m182.357 377.906c4.142 0 7.5-3.358 7.5-7.5v-12c0-4.142-3.358-7.5-7.5-7.5s-7.5 3.358-7.5 7.5v12c0 4.142 3.358 7.5 7.5 7.5zm119.601-.335c4.143 0 7.5-3.358 7.5-7.5 0-3.532 2.874-6.406 6.406-6.406s6.406 2.874 6.406 6.406c0 4.142 3.357 7.5 7.5 7.5s7.5-3.358 7.5-7.5c0-11.803-9.603-21.406-21.406-21.406-11.804 0-21.406 9.603-21.406 21.406 0 4.142 3.358 7.5 7.5 7.5zm-54.006 8.14c8.796 0 17.16-3.809 22.948-10.451 2.722-3.123 2.396-7.86-.727-10.582-3.125-2.721-7.862-2.396-10.582.727-2.939 3.372-7.181 5.306-11.64 5.306s-8.701-1.934-11.64-5.306c-2.722-3.123-7.459-3.447-10.582-.727-3.123 2.722-3.448 7.459-.727 10.582 5.79 6.642 14.154 10.451 22.95 10.451zm-186.547-130.002 33.771 138.726c7.977 32.771 37.104 55.658 70.832 55.658h163.888c33.727 0 62.854-22.887 70.831-55.657l33.772-138.725c4.662-19.149-5.788-38.673-24.308-45.413l-20.569-7.487c-23.748-8.642-50.353 1.793-61.894 24.27l-22.564 43.949c-4.616 8.99-13.761 14.575-23.866 14.575h-66.692c-10.105 0-19.25-5.584-23.866-14.574l-22.564-43.949c-11.541-22.478-38.151-32.911-61.894-24.27l-20.57 7.487c-18.518 6.738-28.969 26.261-24.307 45.41zm29.438-31.317 20.57-7.487c3.946-1.437 8.003-2.122 12.007-2.122 12.899 0 25.234 7.114 31.413 19.147l22.564 43.949c7.196 14.016 21.454 22.723 37.21 22.723h66.692c15.755 0 30.013-8.707 37.21-22.723l22.564-43.949c8.096-15.769 26.762-23.09 43.419-17.025l20.569 7.487c11.325 4.122 17.715 16.06 14.864 27.769l-33.772 138.726c-6.336 26.027-29.47 44.205-56.257 44.205h-163.888c-26.788 0-49.922-18.178-56.258-44.206l-33.771-138.725c-2.85-11.71 3.54-23.647 14.864-27.769zm339.565 214.273c-3.527-2.17-8.147-1.069-10.317 2.459-16.397 26.655-46.025 43.213-77.324 43.213h-189.629c-41.993 0-78.258-28.496-88.191-69.297l-47.079-193.39c-10.509-43.169 9.208-88.547 47.947-110.353 3.61-2.032 4.889-6.605 2.857-10.214-2.031-3.61-6.606-4.89-10.214-2.857-21.937 12.347-38.843 31.075-48.893 54.159-10.068 23.126-12.237 48.305-6.271 72.813l47.079 193.39c11.574 47.544 53.833 80.749 102.765 80.749h189.629c36.47 0 70.994-19.294 90.1-50.354 2.17-3.528 1.07-8.148-2.459-10.318zm81.625-345.436c0-44.406-36.127-80.533-80.532-80.533-34.469 0-63.938 21.773-75.406 52.283-35.738-10.299-72.081-15.518-108.143-15.518-52.096 0-105.898 11.199-155.591 32.387-3.811 1.625-5.582 6.03-3.958 9.84 1.622 3.805 6.025 5.585 9.84 3.958 30.152-12.856 61.861-21.889 93.725-26.815v43.341c-3.501 1.255-6.858 2.614-10.009 4.084-8.475 3.951-13.95 12.585-13.95 21.994v27.079c0 13.401 10.902 24.303 24.303 24.303h111.28c13.401 0 24.304-10.902 24.304-24.303v-27.079c0-9.409-5.476-18.042-13.951-21.994-3.151-1.469-6.508-2.828-10.009-4.084v-43.378c16.142 2.491 32.249 6.05 48.234 10.668-8.59 49.635 29.842 94.3 79.331 94.3 15.564 0 30.102-4.451 42.432-12.128 7.487 19.035 8.967 40.035 4.103 60.017l-45.745 187.91c-.979 4.025 1.488 8.082 5.513 9.061 4.04.982 8.084-1.5 9.061-5.513l45.745-187.91c5.935-24.376 3.651-50.064-6.363-72.98 15.846-14.718 25.786-35.71 25.786-58.99zm-305.065-26.408c13.71-1.561 27.409-2.36 40.984-2.36 13.633 0 27.311.783 40.983 2.329v40.911c-13.091-3.195-27.298-4.975-40.983-4.975-13.686 0-27.893 1.779-40.984 4.975zm100.638 63.031c3.214 1.499 5.29 4.795 5.29 8.399v27.079c0 5.13-4.174 9.303-9.304 9.303h-52.534l-22.154-22.154c-2.929-2.929-7.678-2.929-10.606 0-2.929 2.929-2.929 7.678 0 10.607l11.548 11.548h-37.533c-5.13 0-9.303-4.173-9.303-9.303v-27.079c0-3.604 2.076-6.901 5.289-8.399 16.285-7.593 38.585-12.126 59.654-12.126 21.069-.001 43.369 4.532 59.653 12.125zm123.895 28.91c-36.135 0-65.533-29.398-65.533-65.533s29.398-65.533 65.533-65.533 65.532 29.398 65.532 65.533-29.397 65.533-65.532 65.533zm22.18-64.674-14.68 14.68v-48.528c0-4.142-3.357-7.5-7.5-7.5s-7.5 3.358-7.5 7.5v48.529l-14.68-14.68c-2.93-2.929-7.678-2.929-10.607 0-2.929 2.93-2.928 7.678 0 10.606 6.145 6.145 4.549 4.549 27.492 27.492 2.887 2.879 7.648 2.973 10.639-.048l27.443-27.443c2.929-2.929 2.929-7.678 0-10.606-2.929-2.93-7.678-2.93-10.607-.002z"/></g></svg>