<svg id="Capa_1" enable-background="new 0 0 512 512" height="512" viewBox="0 0 512 512" width="512" xmlns="http://www.w3.org/2000/svg"><g><g><path clip-rule="evenodd" d="m151.346 326.918c-9.723-9.726-9.723-25.634 0-35.36l48.5-48.489c-2.381-12.59-5.159-23.252-8.192-31.05-8.532-21.948-22.649-35.984-45.637-21.692-40.932 25.464-117.75 109.057-134.729 253.191-.624 5.274-1.276 10.407-1.276 15.085v.34c.029 10.975 3.77 19.057 20.211 19.057h111.06c16.668 0 30.359-3.176 40.053-14.83 23.159-27.902 28.913-96.269 25.71-156.61l-20.353 20.36c-9.722 9.725-25.624 9.725-35.347-.002z" fill="#ff9eb1" fill-rule="evenodd"/></g><g><path clip-rule="evenodd" d="m500.712 443.519c-16.979-144.134-93.769-227.727-134.729-253.191-22.989-14.291-37.105-.255-45.637 21.692-3.033 7.798-5.811 18.46-8.192 31.05l48.5 48.489c9.723 9.726 9.723 25.634 0 35.36s-25.625 9.726-35.348 0l-20.353-20.36c-3.203 60.342 2.551 128.708 25.71 156.61 9.694 11.654 23.414 14.83 40.053 14.83h111.06c23.557.001 21.034-16.616 18.936-34.48z" fill="#ff9eb1" fill-rule="evenodd"/></g><g><path clip-rule="evenodd" d="m325.306 326.918c9.723 9.726 25.625 9.726 35.348 0s9.723-25.634 0-35.36l-48.5-48.489-24.746-24.755v-37.231h-62.815v37.231l-24.746 24.755-48.5 48.489c-9.723 9.726-9.723 25.634 0 35.36s25.625 9.726 35.348 0l20.353-20.36 35.376-35.388c11.82-11.824 15.335-11.824 27.156 0l35.376 35.388z" fill="#ffdfe5" fill-rule="evenodd"/></g><g><path clip-rule="evenodd" d="m224.593 132.056h62.815v49.028h-62.815z" fill="#ff9eb1" fill-rule="evenodd"/></g><g><path clip-rule="evenodd" d="m224.593 83.028h62.815v49.028h-62.815z" fill="#ffdfe5" fill-rule="evenodd"/></g><g><path clip-rule="evenodd" d="m224.593 83.028h62.815v-35.218c0-7.6-6.208-13.81-13.805-13.81h-35.206c-7.597 0-13.805 6.21-13.805 13.809v35.219z" fill="#ff9eb1" fill-rule="evenodd"/></g><g><path d="m510.79 443.586-.146-1.237c-7.695-65.319-27.826-124.28-59.835-175.245-23.108-36.793-52.845-68.67-79.547-85.269-11.479-7.136-22.374-9.061-32.385-5.722-11.666 3.891-21.037 14.753-27.852 32.282-1.636 4.205-3.196 9.129-4.671 14.725l-8.949-8.948v-166.362c0-13.129-10.679-23.81-23.805-23.81h-35.206c-13.126 0-23.805 10.681-23.805 23.81v166.362l-8.205 8.204c-1.743-5.293-3.842-9.941-5.413-13.98-6.815-17.531-16.186-28.393-27.852-32.284-10.008-3.34-20.905-1.414-32.386 5.723-9.37 5.826-24.303 16.838-42.226 36.211-3.75 4.054-3.505 10.381.549 14.131 4.053 3.751 10.381 3.506 14.131-.549 12.804-13.839 26.337-25.491 38.105-32.808 6.186-3.847 11.401-5.105 15.499-3.735 5.673 1.892 11.046 9.001 15.54 20.56 2.336 6.008 4.616 14.28 6.661 24.123l-44.723 44.721c-13.641 13.646-13.641 35.852 0 49.5 6.591 6.593 15.379 10.224 24.746 10.224s18.155-3.631 24.746-10.224l4.064-4.065c.863 59.828-8.014 107.372-24.182 126.851-6.54 7.867-16.219 11.225-32.36 11.225h-111.06c-4.354 0-7.627-.758-8.755-2.027-2.439-2.744-1.306-12.334-.396-20.039l.146-1.242c6.052-51.242 20.233-98.699 42.15-141.05 2.538-4.904.62-10.938-4.285-13.477-4.904-2.539-10.938-.619-13.478 4.285-23.027 44.496-37.914 94.256-44.25 147.903l-.146 1.234c-1.523 12.888-3.098 26.215 5.308 35.673 5.229 5.88 12.983 8.74 23.706 8.74h111.06c15.088 0 34.149-2.096 47.748-18.443 30.488-36.731 29.676-125.981 28.218-159.058l32.247-32.258c3.73-3.731 5.603-5.166 6.505-5.716.903.55 2.775 1.984 6.506 5.716l32.245 32.257c-1.458 33.076-2.269 122.328 28.225 159.067 13.592 16.34 32.652 18.436 47.74 18.436h111.06c10.723 0 18.477-2.859 23.704-8.74 8.406-9.46 6.831-22.787 5.309-35.675zm-233.383-321.53h-42.815v-29.028h42.815zm-42.815 20h42.815v29.027h-42.815zm3.805-98.056h35.206c2.063 0 3.805 1.744 3.805 3.81v25.218h-42.815v-25.218c-.001-2.065 1.742-3.81 3.804-3.81zm17.604 208.302c-8.179 0-14.435 5.582-20.65 11.799l-55.729 55.748c-2.813 2.814-6.579 4.364-10.602 4.364s-7.788-1.55-10.602-4.363c-5.848-5.851-5.848-15.371-.001-21.22l73.246-73.244c1.875-1.875 2.929-4.419 2.929-7.071v-27.231h42.815v27.231c0 2.652 1.054 5.196 2.929 7.071l73.246 73.242c5.848 5.851 5.848 15.371 0 21.221-2.813 2.814-6.578 4.364-10.602 4.364-4.023 0-7.788-1.55-10.602-4.363l-55.728-55.748c-6.214-6.218-12.471-11.8-20.649-11.8zm234.532 213.67c-1.129 1.27-4.401 2.027-8.756 2.027h-111.06c-16.141 0-25.82-3.357-32.358-11.217-16.174-19.486-25.052-67.03-24.188-126.859l4.064 4.065c6.592 6.593 15.38 10.224 24.746 10.224s18.154-3.631 24.746-10.225c13.642-13.646 13.642-35.852-.001-49.501l-44.721-44.719c2.045-9.845 4.324-18.117 6.661-24.126 4.493-11.557 9.866-18.666 15.539-20.558 4.102-1.37 9.314-.109 15.499 3.734 9.083 5.647 41.205 28.027 73.168 78.921 30.418 48.431 49.564 104.6 56.909 166.944l.147 1.248c.91 7.708 2.043 17.298-.395 20.042z"/><path d="m82.849 327.011c-5.29 1.588-8.29 7.164-6.702 12.453l12.926 43.045c1.35 4.494 5.646 7.445 10.323 7.097l20.449-1.528 9.14 30.417c1.301 4.329 5.273 7.125 9.573 7.125.953 0 1.922-.138 2.882-.426 5.289-1.59 8.289-7.166 6.699-12.455l-11.452-38.11c-1.35-4.493-5.649-7.443-10.322-7.095l-20.448 1.528-10.615-35.35c-1.589-5.29-7.163-8.292-12.453-6.701z"/><path d="m429.145 327.009c-5.289-1.585-10.864 1.419-12.449 6.709l-10.59 35.345-20.472-1.529c-4.66-.339-8.97 2.602-10.321 7.095l-11.452 38.11c-1.589 5.289 1.41 10.865 6.699 12.455.96.288 1.929.426 2.882.426 4.3 0 8.272-2.796 9.573-7.125l9.141-30.418 20.478 1.529c4.669.342 8.976-2.605 10.323-7.103l12.897-43.045c1.585-5.29-1.418-10.864-6.709-12.449z"/><path d="m72.848 269.68c1.429.714 2.947 1.052 4.445 1.052 3.68 0 7.23-2.041 8.986-5.553 2.47-4.939.468-10.946-4.472-13.416-4.94-2.471-10.947-.469-13.416 4.473l-.028.057c-2.471 4.938-.455 10.917 4.485 13.387z"/></g></g></svg>