<svg id="Capa_1" enable-background="new 0 0 517.974 517.974" height="512" viewBox="0 0 517.974 517.974" width="512" xmlns="http://www.w3.org/2000/svg"><g><g><g><g id="XMLID_857_"><g><path d="m441.867 152.456c24.3 77.74 24.55 148.45.15 211.94-.9 2.34-2.75 4.2-5.08 5.12-118.27 46.94-236.54 46.95-354.81.04-2.38-.95-4.26-2.87-5.14-5.28-25.72-70.34-25.52-140.97-.05-211.91.91-2.52 2.91-4.51 5.43-5.41 124.77-45.01 242.86-45.06 354.27-.17 2.5 1.01 4.43 3.1 5.23 5.67z" fill="#a7eedc"/></g></g><path d="m323.804 400.096c-80.559 11.588-161.118 1.413-241.677-30.54-2.38-.95-4.26-2.87-5.14-5.28-25.72-70.34-25.52-140.97-.05-211.91.91-2.52 2.91-4.51 5.43-5.41 18.247-6.583 36.35-12.196 54.311-16.855-16.094 50.276-9.767 135.057-3.703 186.325 3.135 26.502 21.895 48.518 47.549 55.87 41.768 11.969 105.301 28.109 143.28 27.8z" fill="#86e8d0"/></g></g><path d="m511.73 165.567-1.71-2.932c-7.152-12.269-19.32-20.437-33.384-22.409-10.421-1.462-20.775.64-29.613 5.823-1.822-2.76-4.43-4.944-7.581-6.214-12.838-5.174-26-9.835-39.121-13.854-3.957-1.213-8.154 1.014-9.368 4.974-1.214 3.961 1.014 8.155 4.974 9.368 12.713 3.896 25.468 8.412 37.909 13.425.414.167.741.521.875.948 1.819 5.821 3.483 11.601 5.025 17.346-114.33-20.992-235.868-20.692-361.645.904 1.79-6.033 3.758-12.054 5.908-18.041.147-.409.488-.745.913-.898 48.528-17.503 96.668-28.23 143.08-31.886 46.313-3.646 92.239-.354 136.494 9.789 4.038.922 8.062-1.598 8.986-5.635.925-4.038-1.598-8.061-5.635-8.986-91.425-20.954-188.327-13.349-288.016 22.608-3.443 1.242-6.317 3.553-8.256 6.548-8.971-5.458-19.56-7.714-30.229-6.218-14.063 1.973-26.231 10.141-33.384 22.409l-1.71 2.933c-7.282 12.492-8.255 27.895-2.6 41.201 0 0 59.92 140.972 59.999 141.127 1.9 6.336 3.996 12.658 6.301 18.961 1.613 4.408 5.046 7.931 9.42 9.666 59.728 23.691 120.329 35.704 180.124 35.703h.045c59.81-.006 120.427-12.03 180.169-35.739 4.277-1.698 7.673-5.123 9.315-9.397 3.487-9.073 6.465-18.319 8.972-27.719l56.34-132.601c5.658-13.308 4.685-28.71-2.597-41.204zm-66.439 162.794c-99.97 19.4-197.212 23.219-297.143 11.653-4.113-.479-7.836 2.474-8.313 6.588s2.473 7.836 6.588 8.313c38.088 4.409 75.771 6.618 113.378 6.618 60.224 0 120.225-5.705 181.157-17.096-1.778 5.828-3.758 11.586-5.943 17.272-.142.369-.458.682-.847.836-57.974 23.008-116.73 34.676-174.637 34.682-.018 0-.026 0-.044 0-57.89-.001-116.637-11.657-174.593-34.646-.398-.157-.721-.485-.863-.874-2.074-5.672-3.96-11.36-5.69-17.059 11.947 2.218 23.962 4.251 35.879 6.023.374.056.746.083 1.113.083 3.653 0 6.854-2.675 7.408-6.397.609-4.098-2.218-7.913-6.314-8.521-14.121-2.1-28.39-4.554-42.504-7.275-4.63-18.809-7.391-37.716-8.281-56.617h224.558c4.143 0 7.5-3.357 7.5-7.5s-3.357-7.5-7.5-7.5h-224.874c.039-7.042.315-14.08.877-21.106.33-4.129-2.749-7.744-6.878-8.075-4.142-.318-7.744 2.751-8.075 6.878-1.209 15.107-1.266 30.255-.181 45.393l-33.621-79.129c-3.813-8.972-3.157-19.357 1.754-27.779l1.71-2.934c4.822-8.271 13.026-13.779 22.509-15.109 8.152-1.139 16.229.947 22.727 5.753-4.403 13.651-7.935 27.414-10.503 41.055-.767 4.07 1.911 7.991 5.982 8.758.469.089.936.131 1.396.131 3.535 0 6.684-2.512 7.361-6.113.986-5.235 2.135-10.491 3.411-15.753 128.92-22.907 253.313-23.204 369.898-.883 5.354 23.674 8.305 46.668 8.829 68.916h-127.656c-4.143 0-7.5 3.357-7.5 7.5s3.357 7.5 7.5 7.5h127.632c-.505 19.414-2.908 38.234-7.207 56.414zm55.234-127.457-33.274 78.313c1.816-37.546-3.227-77.176-15.121-118.595 6.446-4.653 14.397-6.666 22.422-5.541 9.482 1.33 17.687 6.838 22.509 15.109l1.71 2.933c4.911 8.423 5.566 18.809 1.754 27.781z"/></g></svg>