<?xml version="1.0" encoding="iso-8859-1"?>
<!-- Generator: Adobe Illustrator 21.0.0, SVG Export Plug-In . SVG Version: 6.00 Build 0)  -->
<svg version="1.1" id="Capa_1" xmlns="http://www.w3.org/2000/svg" xmlns:xlink="http://www.w3.org/1999/xlink" x="0px" y="0px"
	 viewBox="0 0 512 512" style="enable-background:new 0 0 512 512;" xml:space="preserve">
<path style="fill:#E8E9EA;" d="M50.358,485.407v-0.014C26.69,485.391,7.5,466.218,7.5,442.549V110.012
	c0-10.131,8.213-18.343,18.343-18.343h24.515l0,0h139.016v393.739H50.358V485.407z"/>
<path style="fill:#D0D1D2;" d="M50.358,91.668L50.358,91.668h6.567v350.881c0,17.181-10.116,31.986-24.713,38.816
	c5.512,2.579,11.658,4.028,18.146,4.028v0.015h139.016V91.668H50.358z"/>
<path style="fill:#F2F3F3;" d="M111.56,26.592c-10.131,0-18.343,8.213-18.343,18.343v397.613c0,23.67-19.188,42.858-42.858,42.858
	l0,0h411.283l0,0c23.67,0,42.858-19.188,42.858-42.858V44.936c0-10.131-8.213-18.343-18.343-18.343H111.56V26.592z"/>
<path style="fill:#FFCE71;" d="M267.182,310.855H164.321c-5.659,0-10.247-4.588-10.247-10.247V197.746
	c0-5.659,4.588-10.247,10.247-10.247h102.861c5.659,0,10.247,4.588,10.247,10.247v102.861
	C277.429,306.267,272.841,310.855,267.182,310.855z"/>
<path style="fill:#E5B965;" d="M184.074,300.607V197.746c0-5.659,4.588-10.247,10.247-10.247h-30
	c-5.659,0-10.247,4.588-10.247,10.247v102.861c0,5.659,4.588,10.247,10.247,10.247h30
	C188.661,310.854,184.074,306.267,184.074,300.607z"/>
<path d="M486.157,19.093H111.56c-14.25,0-25.843,11.593-25.843,25.843v39.232l-59.874,0.001C11.593,84.169,0,95.762,0,110.012
	v332.537c0,27.637,22.393,50.146,49.995,50.343c0.034,0.002,0.069,0.001,0.104,0.002c0.087,0.003,0.172,0.013,0.26,0.013h265.309
	c4.142,0,7.5-3.357,7.5-7.5s-3.358-7.5-7.5-7.5H86.183c8.982-9.1,14.534-21.593,14.534-35.358V267.165c0-4.143-3.358-7.5-7.5-7.5
	s-7.5,3.357-7.5,7.5v175.384c0,19.432-15.758,35.249-35.165,35.354c-0.065-0.002-0.128-0.01-0.193-0.01
	C30.862,477.891,15,462.036,15,442.549V110.012c0-5.979,4.864-10.843,10.844-10.843l59.873-0.001v139.997c0,4.143,3.358,7.5,7.5,7.5
	s7.5-3.357,7.5-7.5V44.936c0-5.979,4.864-10.843,10.843-10.843h374.597c5.979,0,10.843,4.864,10.843,10.843v397.613
	c0,19.497-15.862,35.358-35.358,35.358H343.667c-4.142,0-7.5,3.357-7.5,7.5s3.358,7.5,7.5,7.5h117.975
	c27.768,0,50.358-22.591,50.358-50.358V44.936C512,30.686,500.407,19.093,486.157,19.093z"/>
<path d="M164.321,318.354h102.861c9.786,0,17.747-7.961,17.747-17.747V197.746c0-9.786-7.961-17.747-17.747-17.747H164.321
	c-9.786,0-17.747,7.961-17.747,17.747v102.861C146.574,310.394,154.535,318.354,164.321,318.354z M161.574,197.746
	c0-1.515,1.232-2.747,2.747-2.747h102.861c1.515,0,2.747,1.232,2.747,2.747v102.861c0,1.515-1.232,2.747-2.747,2.747H164.321
	c-1.515,0-2.747-1.232-2.747-2.747V197.746z"/>
<path d="M312.191,194.999h139.2c4.142,0,7.5-3.357,7.5-7.5s-3.358-7.5-7.5-7.5h-139.2c-4.142,0-7.5,3.357-7.5,7.5
	S308.049,194.999,312.191,194.999z"/>
<path d="M312.191,256.677h139.2c4.142,0,7.5-3.357,7.5-7.5s-3.358-7.5-7.5-7.5h-139.2c-4.142,0-7.5,3.357-7.5,7.5
	S308.049,256.677,312.191,256.677z"/>
<path d="M312.191,318.354h139.2c4.142,0,7.5-3.357,7.5-7.5s-3.358-7.5-7.5-7.5h-139.2c-4.142,0-7.5,3.357-7.5,7.5
	S308.049,318.354,312.191,318.354z"/>
<path d="M154.074,380.032h297.317c4.142,0,7.5-3.357,7.5-7.5s-3.358-7.5-7.5-7.5H154.074c-4.142,0-7.5,3.357-7.5,7.5
	S149.932,380.032,154.074,380.032z"/>
<path d="M154.074,441.71h297.317c4.142,0,7.5-3.357,7.5-7.5s-3.358-7.5-7.5-7.5H154.074c-4.142,0-7.5,3.357-7.5,7.5
	S149.932,441.71,154.074,441.71z"/>
<g>
	<path style="fill:#4A5359;" d="M146.767,141.622V62.371c0-1.628,0.773-2.87,2.32-3.725c1.545-0.855,3.419-1.282,5.617-1.282
		c2.931,0,5.169,0.53,6.716,1.587c1.545,1.06,3.255,3.34,5.129,6.839l23.568,45.548V62.249c0-1.628,0.772-2.849,2.32-3.664
		c1.545-0.813,3.419-1.221,5.617-1.221s4.07,0.408,5.617,1.221c1.546,0.815,2.32,2.036,2.32,3.664v79.373
		c0,1.548-0.794,2.769-2.381,3.664c-1.587,0.896-3.44,1.343-5.556,1.343c-4.316,0-7.369-1.668-9.158-5.007l-26.254-49.09v49.09
		c0,1.548-0.794,2.769-2.381,3.664c-1.587,0.896-3.44,1.343-5.556,1.343c-2.198,0-4.072-0.446-5.617-1.343
		C147.54,144.391,146.767,143.17,146.767,141.622z"/>
	<path style="fill:#4A5359;" d="M220.645,141.622V62.371c0-1.546,0.691-2.767,2.076-3.664c1.383-0.895,3.011-1.343,4.884-1.343
		h43.473c1.627,0,2.87,0.692,3.724,2.076c0.855,1.385,1.282,2.973,1.282,4.762c0,1.954-0.448,3.624-1.343,5.007
		c-0.896,1.386-2.118,2.076-3.663,2.076H236.52v24.423h18.561c1.545,0,2.767,0.631,3.664,1.893c0.895,1.263,1.343,2.747,1.343,4.457
		c0,1.547-0.428,2.951-1.282,4.213c-0.855,1.263-2.097,1.893-3.725,1.893H236.52v24.545h34.558c1.545,0,2.767,0.692,3.663,2.076
		c0.895,1.385,1.343,3.053,1.343,5.007c0,1.791-0.427,3.379-1.282,4.762c-0.854,1.386-2.097,2.076-3.724,2.076h-43.473
		c-1.874,0-3.501-0.446-4.884-1.343C221.336,144.391,220.645,143.17,220.645,141.622z"/>
	<path style="fill:#4A5359;" d="M284.022,63.714c0-1.71,1.099-3.194,3.297-4.457c2.198-1.261,4.476-1.893,6.838-1.893
		c2.931,0,4.681,1.059,5.251,3.175l19.294,66.186l10.379-42.496c0.733-2.931,3.337-4.396,7.815-4.396
		c4.396,0,6.96,1.465,7.693,4.396l10.38,42.496l19.294-66.186c0.568-2.116,2.32-3.175,5.251-3.175c2.36,0,4.64,0.632,6.838,1.893
		c2.198,1.263,3.297,2.747,3.297,4.457c0,0.488-0.082,0.977-0.244,1.466l-24.179,76.809c-1.221,3.584-4.682,5.373-10.379,5.373
		c-2.442,0-4.64-0.469-6.594-1.404c-1.954-0.935-3.135-2.259-3.541-3.969l-7.815-32.971l-7.938,32.971
		c-0.408,1.71-1.587,3.034-3.541,3.969c-1.954,0.936-4.152,1.404-6.594,1.404c-2.524,0-4.763-0.469-6.716-1.404
		c-1.954-0.935-3.175-2.259-3.664-3.969L284.266,65.18C284.102,64.69,284.022,64.202,284.022,63.714z"/>
	<path style="fill:#4A5359;" d="M393.679,132.586c0-1.872,0.712-3.765,2.137-5.679c1.423-1.911,3.032-2.869,4.823-2.869
		c1.057,0,2.259,0.508,3.603,1.522s2.645,2.137,3.908,3.362c1.261,1.227,3.072,2.347,5.434,3.361
		c2.36,1.016,4.965,1.522,7.815,1.522c3.908,0,7.163-0.895,9.769-2.687c2.604-1.789,3.908-4.436,3.908-7.937
		c0-2.442-0.713-4.62-2.137-6.533c-1.425-1.912-3.297-3.5-5.617-4.763c-2.32-1.261-4.865-2.482-7.632-3.663
		c-2.769-1.18-5.556-2.504-8.365-3.969c-2.809-1.466-5.373-3.114-7.693-4.946c-2.32-1.831-4.194-4.273-5.617-7.326
		c-1.425-3.053-2.137-6.533-2.137-10.44c0-4.379,0.874-8.243,2.625-11.59c1.75-3.347,4.091-5.949,7.021-7.808
		s6.063-3.223,9.402-4.091c3.337-0.866,6.878-1.301,10.624-1.301c2.116,0,4.354,0.146,6.716,0.438
		c2.36,0.294,4.863,0.774,7.51,1.442c2.645,0.67,4.803,1.716,6.472,3.135c1.667,1.422,2.503,3.093,2.503,5.017
		c0,1.813-0.571,3.688-1.709,5.625c-1.141,1.937-2.687,2.903-4.641,2.903c-0.732,0-2.729-0.772-5.983-2.32
		c-3.257-1.545-6.88-2.319-10.868-2.319c-4.396,0-7.796,0.835-10.196,2.503c-2.402,1.67-3.603,3.969-3.603,6.899
		c0,2.362,0.977,4.417,2.931,6.167c1.954,1.751,4.375,3.175,7.266,4.273c2.889,1.1,6.023,2.484,9.402,4.152
		c3.377,1.669,6.512,3.48,9.403,5.434c2.889,1.954,5.312,4.783,7.266,8.487c1.954,3.705,2.931,8.04,2.931,13.005
		c0,8.35-2.667,14.793-7.998,19.328c-5.333,4.537-12.354,6.804-21.065,6.804c-7.735,0-14.369-1.587-19.904-4.762
		C396.446,139.791,393.679,136.331,393.679,132.586z"/>
</g>
<g>
</g>
<g>
</g>
<g>
</g>
<g>
</g>
<g>
</g>
<g>
</g>
<g>
</g>
<g>
</g>
<g>
</g>
<g>
</g>
<g>
</g>
<g>
</g>
<g>
</g>
<g>
</g>
<g>
</g>
</svg>
