<?xml version="1.0" encoding="iso-8859-1"?>
<!-- Generator: Adobe Illustrator 19.0.0, SVG Export Plug-In . SVG Version: 6.00 Build 0)  -->
<svg version="1.1" id="Capa_1" xmlns="http://www.w3.org/2000/svg" xmlns:xlink="http://www.w3.org/1999/xlink" x="0px" y="0px"
	 viewBox="0 0 512.001 512.001" style="enable-background:new 0 0 512.001 512.001;" xml:space="preserve">
<path style="fill:#E8E8E8;" d="M305.25,112.78c-31.972,40.359-34.498,91.371-29.894,128.305l49.385,49.385V123.045
	C324.74,93.985,307.04,110.984,305.25,112.78z"/>
<path style="fill:#C1C4C6;" d="M321.457,108.293c-5.206-6.145-14.905,3.182-16.207,4.487
	c-31.972,40.359-34.498,91.371-29.894,128.305l19.726,19.725C289.872,216.735,292.2,158.728,321.457,108.293z"/>
<path style="fill:#C16B3D;" d="M193.38,429.604h11.776c6.563,0,11.884-5.32,11.884-11.883V238.103l-21.404-21.404h-14.139v201.024
	C181.497,424.284,186.817,429.604,193.38,429.604z"/>
<path style="fill:#AF542C;" d="M202.015,417.721V223.079l-6.381-6.381h-14.139v201.024c0,6.563,5.32,11.883,11.883,11.883
	c12.856,0,13.466,0.221,16.147-0.841C205.13,427.021,202.015,422.739,202.015,417.721z"/>
<path style="fill:#C16B3D;" d="M294.04,429.604h23.498c5.839,0,10.572-4.455,10.572-9.951c0-8.519,0-66.697,0-73.478l-44.643-44.643
	c0,13.37,0,106.81,0,118.122C283.467,425.149,288.201,429.604,294.04,429.604z"/>
<path style="fill:#AF542C;" d="M302.79,419.653c0-10.843,0-88.159,0-98.798l-19.323-19.323c0,13.37,0,106.81,0,118.122
	c0,5.496,4.734,9.951,10.573,9.951h19.322C307.524,429.604,302.79,425.149,302.79,419.653z"/>
<path style="fill:#93603E;" d="M283.467,393.928v25.725c0,5.496,4.734,9.951,10.573,9.951h23.498c5.839,0,10.572-4.455,10.572-9.951
	v-25.725H283.467z"/>
<path style="fill:#7F4C2F;" d="M302.79,419.653v-25.725h-19.323v25.725c0,5.496,4.734,9.951,10.573,9.951h19.322
	C307.524,429.604,302.79,425.149,302.79,419.653z"/>
<path style="fill:#93603E;" d="M181.497,396.95v20.771c0,6.563,5.32,11.883,11.883,11.883h11.776c6.563,0,11.884-5.32,11.884-11.883
	V396.95H181.497z"/>
<path style="fill:#7F4C2F;" d="M209.527,428.764c-4.396-1.743-7.512-6.025-7.512-11.042V396.95h-20.52v20.771
	c0,6.563,5.32,11.883,11.883,11.883C208.976,429.604,206.075,429.779,209.527,428.764z"/>
<path style="fill:#EA473B;" d="M7.559,256.002c0,137.209,111.231,248.44,248.442,248.44c137.209,0,248.442-111.231,248.442-248.44
	C504.442,118.792,393.211,7.559,256.001,7.559C118.79,7.559,7.559,118.792,7.559,256.002z M463.029,256.002
	c0,47.668-16.12,91.566-43.196,126.56L129.436,92.169c34.996-27.074,78.897-43.196,126.564-43.196
	C370.337,48.973,463.027,141.664,463.029,256.002z M48.972,256.002c0-51.809,19.032-99.172,50.483-135.484l292.026,292.027
	c-36.31,31.452-83.674,50.483-135.481,50.483C141.663,463.03,48.972,370.338,48.972,256.002z"/>
<path style="fill:#E03B36;" d="M27.65,256.002C27.652,122.159,133.498,13.052,266.046,7.778
	C124.092,2.165,7.561,115.613,7.559,256.002c0,140.624,116.817,253.865,258.487,248.222C133.497,498.95,27.65,389.844,27.65,256.002
	z"/>
<path d="M407.693,104.309C330.205,26.82,209.011,21.124,124.849,86.238c-3.571,2.765-3.906,8.041-0.714,11.233
	c0.009,0.009,195.308,195.307,195.308,195.307c102.13,102.13,95.954,97.284,100.391,97.284c2.294,0,4.493-1.053,5.931-2.911
	C490.888,302.976,485.171,181.787,407.693,104.309z M317.241,269.367l-34.748-34.748c-5.336-46.832,4.197-86.124,28.353-116.826
	c1.835-1.774,3.969-3.228,5.302-3.81C317.698,118.12,317.241,114.13,317.241,269.367z M418.987,371.111l-86.748-86.747V123.045
	c0-21.17-9.521-24.331-15.198-24.331c-7.393,0-15.377,6.517-17.669,9.41c-23.701,29.919-34.808,66.928-33.149,110.223
	l-16.365-16.364c0.227-1.274,0.425,4.841-4.302-94.705c-0.196-4.136-3.699-7.322-7.847-7.135c-4.136,0.197-7.331,3.709-7.135,7.847
	l3.724,78.435l-13.512-13.512v-65.28c0-4.141-3.357-7.499-7.499-7.499s-7.499,3.357-7.499,7.499v50.282l-13.043-13.043v-37.24
	c0-4.141-3.357-7.499-7.499-7.499c-4.141,0-7.499,3.357-7.499,7.499v22.242l-10.345-10.344c0.04-0.533,0.532-11.008,0.558-11.542
	c0.417-8.776-12.097-10.908-14.653-2.554l-12.42-12.42c131.215-93.028,314.64,1.206,314.643,162.985
	C455.531,297.733,442.923,337.351,418.987,371.111z"/>
<path d="M436.976,75.024c-100.027-100.028-261.917-100.035-361.953,0c-100.027,100.027-100.035,261.919,0,361.954
	c100.027,100.025,261.919,100.035,361.954,0C537.005,336.949,537.011,175.06,436.976,75.024z M256.002,496.944
	c-132.857,0-240.944-108.087-240.944-240.942S123.144,15.058,256.002,15.058c132.853,0,240.939,108.087,240.942,240.943
	C496.944,388.857,388.857,496.944,256.002,496.944z"/>
<path d="M99.188,113.026c-2.081,0.074-4.036,1.011-5.399,2.585c-70.897,81.848-70.086,205.12,4.638,285.958
	c36.516,39.502,86.04,63.719,139.453,68.19c4.121,0.338,7.753-2.721,8.098-6.847c0.346-4.127-2.72-7.753-6.847-8.099
	c-102.426-8.574-182.659-95.903-182.659-198.813c0-45.282,15.389-89.131,43.495-124.367l49.514,49.514
	c-0.023,0.332-1.083,22.579-1.083,22.856c0,11.135,9.058,20.193,20.193,20.193h5.408c0,8.213,0,185.227,0,193.525
	c0,10.687,8.695,19.382,19.382,19.382h11.776c10.687,0,19.382-8.695,19.382-19.382c0-8.994,0-73.304,0-82.376
	c0-4.142-3.357-7.499-7.499-7.499c-4.141,0-7.499,3.356-7.499,7.499v54.105h-20.546V224.197h3.534l17.011,17.012v59.143
	c0,4.142,3.357,7.499,7.499,7.499c4.141,0,7.499-3.356,7.499-7.499v-44.146l51.431,51.43c0,22.117,0,88.512,0,112.017
	c0,9.622,8.107,17.45,18.072,17.45h23.498c9.964,0,18.071-7.828,18.071-17.45c0-24.51,0-40.985,0-52.376l44.762,44.762
	c-30.923,24.714-67.92,39.463-107.499,42.776c-4.127,0.345-7.193,3.971-6.848,8.098c0.343,4.103,3.94,7.191,8.099,6.848
	c45.448-3.803,87.728-21.628,122.268-51.546c3.292-2.852,3.465-7.897,0.394-10.971C84.049,94.508,104.214,112.833,99.188,113.026z
	 M168.59,209.2c-2.819,0-5.12-2.256-5.193-5.057l0.412-8.668l13.725,13.725H168.59z M209.541,404.449v13.273
	c0,2.418-1.967,4.384-4.384,4.384h-11.776c-2.418,0-4.384-1.967-4.384-4.384v-13.273H209.541z M320.612,419.653
	c0,1.33-1.408,2.453-3.073,2.453H294.04c-1.667,0-3.074-1.123-3.074-2.453v-18.226h29.646V419.653z M320.612,386.43h-29.646v-63.796
	l29.646,29.646V386.43z"/>
<g>
</g>
<g>
</g>
<g>
</g>
<g>
</g>
<g>
</g>
<g>
</g>
<g>
</g>
<g>
</g>
<g>
</g>
<g>
</g>
<g>
</g>
<g>
</g>
<g>
</g>
<g>
</g>
<g>
</g>
</svg>
