<svg height="512" viewBox="0 0 64 64" width="512" xmlns="http://www.w3.org/2000/svg"><g id="Layer_19" data-name="Layer 19"><rect fill="#b5b5b5" height="8" rx="3" transform="matrix(-1 0 0 -1 88 32)" width="6" x="41" y="12"/><path d="m38 22h12a0 0 0 0 1 0 0v12a2 2 0 0 1 -2 2h-8a2 2 0 0 1 -2-2v-12a0 0 0 0 1 0 0z" fill="#b5b5b5" transform="matrix(-1 0 0 -1 88 58)"/><path d="m40 36h8v13h-8z" fill="#939393"/><rect fill="none" height="8" rx="3" stroke="#000" stroke-linejoin="round" stroke-width="2" transform="matrix(-1 0 0 -1 88 32)" width="6" x="41" y="12"/><path d="m26 26h12a0 0 0 0 1 0 0v12a2 2 0 0 1 -2 2h-8a2 2 0 0 1 -2-2v-12a0 0 0 0 1 0 0z" fill="#b5b5b5" transform="matrix(-1 0 0 -1 64 66)"/><path d="m28 40h8v13h-8z" fill="#939393"/><rect fill="#b5b5b5" height="8" rx="3" transform="matrix(-1 0 0 -1 64 40)" width="6" x="29" y="16"/><path d="m14 22h12a0 0 0 0 1 0 0v12a2 2 0 0 1 -2 2h-8a2 2 0 0 1 -2-2v-12a0 0 0 0 1 0 0z" fill="#b5b5b5" transform="matrix(-1 0 0 -1 40 58)"/><path d="m16 36h8v13h-8z" fill="#939393"/><rect fill="#b5b5b5" height="8" rx="3" transform="matrix(-1 0 0 -1 40 32)" width="6" x="17" y="12"/><path d="m32 2a30 30 0 1 0 30 30 30 30 0 0 0 -30-30zm0 56a26 26 0 0 1 -19.82-42.82l36.64 36.64a25.9 25.9 0 0 1 -16.82 6.18zm19.82-9.18-36.64-36.64a26 26 0 0 1 36.64 36.64z" fill="#d23f34"/><g fill="none" stroke="#000" stroke-linejoin="round" stroke-width="2"><path d="m37 40h-11v-11"/><path d="m29 26h7a2 2 0 0 1 2 2v7"/><path d="m35 32v-3"/><path d="m35 40v-2"/><path d="m28 40v13h8v-13"/><path d="m29 32v8"/><rect height="8" rx="3" transform="matrix(-1 0 0 -1 64 40)" width="6" x="29" y="16"/><path d="m32 40v13"/><path d="m38 35v-11a2 2 0 0 1 2-2h8a2 2 0 0 1 2 2v12h-11"/><path d="m47 36v-11"/><path d="m48 45v-9"/><path d="m40 43v6h6"/><path d="m40 36v1"/><path d="m41 25v11"/><path d="m44 47v2"/><path d="m44 36v5"/><path d="m26 29v7h-12v-12a2 2 0 0 1 2-2h3"/><path d="m23 36v-10"/><path d="m16 36v13h8v-13"/><path d="m17 25v11"/><path d="m17.13 14.13a3 3 0 0 1 2.87-2.13 3 3 0 0 1 3 3v2a3 3 0 0 1 -.88 2.12"/><path d="m20 36v13"/><circle cx="32" cy="32" r="30"/><path d="m12.18 15.18a26 26 0 0 0 36.64 36.64z"/><path d="m51.82 48.82a26 26 0 0 0 -36.64-36.64z"/></g></g></svg>