<svg id="filled_outline" height="512" viewBox="0 0 512 512" width="512" xmlns="http://www.w3.org/2000/svg" data-name="filled outline"><path d="m264 400h232v-168h-192a40 40 0 0 0 -40 40z" fill="#ffceb6"/><path d="m316 452h12a32 32 0 0 0 32-32v-60l-170.66663-128h-173.33337v152h112z" fill="#ffceb6"/><path d="m16 232h72v152h-72z" fill="#548aff"/><path d="m432 232h64v168h-64z" fill="#548aff"/><g fill="#ffceb6"><rect height="45.255" rx="22.627" transform="matrix(.707 -.707 .707 .707 -232.666 222.294)" width="67.882" x="118.059" y="369.373"/><rect height="45.255" rx="22.627" transform="matrix(.707 -.707 .707 .707 -229.921 260.922)" width="67.882" x="166.059" y="385.373"/><rect height="45.255" rx="22.627" transform="matrix(.707 -.707 .707 .707 -227.176 299.549)" width="67.882" x="214.059" y="401.373"/><rect height="45.255" rx="22.627" transform="matrix(.707 -.707 .707 .707 -222.431 339.005)" width="62.225" x="266.887" y="415.373"/><path d="m408 232h-92.95238a120 120 0 0 0 -86.89656 37.24138l-38.67479 40.60853a20.023 20.023 0 0 0 .341 27.96738 19.97964 19.97964 0 0 0 23.0629 3.74261l59.1212-29.56048 9.89 7.41827a82.89859 82.89859 0 0 0 49.74263 16.58231h.00008a82.89858 82.89858 0 0 0 68.97578-36.91472l7.39014-11.08528z"/></g><path d="m256 48a112 112 0 1 0 112 112 111.99991 111.99991 0 0 0 -112-112zm0 32a79.59542 79.59542 0 0 1 43.27148 12.72852l-110.543 110.543a79.9811 79.9811 0 0 1 67.27152-123.27152zm0 160a79.59588 79.59588 0 0 1 -43.27148-12.72852l110.543-110.543a79.981 79.981 0 0 1 -67.27152 123.27152z" fill="#f5714f"/><path d="m496 240v-16h-120v16h48v152h-56v-32a7.99952 7.99952 0 0 0 -3.2002-6.40039l-15.19134-11.39356a90.68778 90.68778 0 0 0 57.65765-38.68359l7.39014-11.085-13.3125-8.875-7.39014 11.085a74.89886 74.89886 0 0 1 -107.26123 18.37109l-9.89013-7.41894a7.99412 7.99412 0 0 0 -8.37842-.75586l-59.12158 29.56055a11.97933 11.97933 0 0 1 -14.01416-18.99512l17.102-17.87891-11.5625-11.06054-17.102 17.87988a27.97586 27.97586 0 0 0 32.73241 44.36523l54.69824-27.34863 5.93506 4.45117a91.53162 91.53162 0 0 0 47.896 17.92334l27.0127 20.25928v56a24.035 24.035 0 0 1 -19.656 23.59863 30.62407 30.62407 0 0 0 -46.89471-35.96631 30.61176 30.61176 0 0 0 -48-16 30.61176 30.61176 0 0 0 -48-16 30.616 30.616 0 0 0 -51.106-13.28955l-13.65729 13.65723h-28.686v-136h40v-16h-120v16h64v136h-64v16h98.45172a30.61538 30.61538 0 0 0 48.099 32.36768 30.61176 30.61176 0 0 0 48 16 30.616 30.616 0 0 0 51.106 13.28955l.9779-.978a30.62142 30.62142 0 0 0 51.0221 12.978l5.657-5.65723h8.68628a40.04552 40.04552 0 0 0 40-40v-12h128v-16h-56v-152zm-352 174.62793a14.62793 14.62793 0 0 1 -10.34277-24.97168l-.00049.001 16.00049-16.001a14.62741 14.62741 0 0 1 20.686 20.68652l-16.00049 16.001a14.53064 14.53064 0 0 1 -10.34274 4.28416zm48 16a14.62793 14.62793 0 0 1 -10.34277-24.97168l-.00049.001 16.00049-16.001a14.62741 14.62741 0 0 1 20.686 20.68652l-16.00049 16.001a14.53064 14.53064 0 0 1 -10.34274 4.28416zm48 16a14.62793 14.62793 0 0 1 -10.34277-24.97168l-.00049.001 16.00049-16.001a14.62741 14.62741 0 0 1 20.686 20.68652l-16.00049 16.001a14.53064 14.53064 0 0 1 -10.34274 4.28416zm62.34277 7.71582a14.62758 14.62758 0 0 1 -20.68554-20.6875l-.00049.001 12.00049-12.001a14.62741 14.62741 0 0 1 20.686 20.68652z"/><path d="m187.87891 211.22656a8.007 8.007 0 0 0 6.50634-2.29785l110.543-110.543a8.0001 8.0001 0 0 0 -1.32225-12.38083 87.98069 87.98069 0 0 0 -121.60161 121.60059 7.99885 7.99885 0 0 0 5.87452 3.62109zm68.12109-123.22656a71.7401 71.7401 0 0 1 30.09375 6.59277l-95.501 95.501a71.99645 71.99645 0 0 1 65.40725-102.09377z"/><path d="m256 280a120 120 0 1 0 -120-120 120.13623 120.13623 0 0 0 120 120zm0-224a104 104 0 1 1 -104 104 104.11791 104.11791 0 0 1 104-104z"/><path d="m204.77393 228.12109a7.99646 7.99646 0 0 0 3.62011 5.874 87.98069 87.98069 0 0 0 121.60157-121.60056 7.99948 7.99948 0 0 0 -12.38086-1.32324l-110.543 110.543a8.00125 8.00125 0 0 0 -2.29782 6.5068zm116.6333-98.21484a71.99645 71.99645 0 0 1 -95.501 95.501z"/></svg>