<?xml version="1.0" encoding="iso-8859-1"?>
<!-- Generator: Adobe Illustrator 19.0.0, SVG Export Plug-In . SVG Version: 6.00 Build 0)  -->
<svg version="1.1" id="Capa_1" xmlns="http://www.w3.org/2000/svg" xmlns:xlink="http://www.w3.org/1999/xlink" x="0px" y="0px"
	 viewBox="0 0 512 512" style="enable-background:new 0 0 512 512;" xml:space="preserve">
<path style="fill:#A2DFF9;" d="M88.396,84.853v-6.606c0-5.5-4.5-10-10-10H61.97c-5.5,0-10,4.5-10,10v6.606H88.396z"/>
<g>
	<path style="fill:#C6A07D;" d="M378.415,350.765c0-0.158,0.032-0.308,0.047-0.462h-7.795c-2.75,0-5-2.25-5-5v-11.346
		c0-2.75,2.25-5,5-5h29.987c-12.213-8.291-19.618-22.036-19.618-37.046c0-13.423,6.001-25.824,15.83-34.176
		c-2.642-0.091-4.368-0.14-4.771-0.14h-67.363c1.518,2.5,2.408,5.421,2.408,8.555v15.42h13.65c5.5,0,10,4.5,10,10v75.461h3.294
		c8.758,0,17.023,2.093,24.331,5.803L378.415,350.765L378.415,350.765z"/>
	<path style="fill:#C6A07D;" d="M95.665,367.03h3.704v-75.461c0-5.5,4.5-10,10-10h13.65v-15.42c0-3.133,0.891-6.055,2.409-8.555
		H58.064c-2.75,0-5,2.25-5,5v125.349C62.926,375.224,78.331,367.03,95.665,367.03z"/>
</g>
<path style="fill:#FB8276;" d="M473.171,350.302h-94.71c-0.015,0.155-0.047,0.304-0.047,0.462v22.075
	c16.463,8.348,28.062,24.89,29.444,44.272h29.799c2.75,0,5,2.25,5,5v65.34c0,2.75-2.25,5-5,5h30.56c2.75,0,5-2.25,5-5V350.765
	C473.218,350.605,473.185,350.457,473.171,350.302z"/>
<path style="fill:#A2DFF9;" d="M400.653,328.956h50.326c12.212-8.291,19.618-22.036,19.618-37.046
	c0-15.491-7.984-29.63-20.631-37.743h4.132c1.302,0,2.357-1.057,2.357-2.359v-4.372c-6.406-0.911-11.338-6.408-11.338-13.072
	c0-0.416,0.024-0.826,0.062-1.232c-0.26,0.314-0.532,0.621-0.826,0.914c-3.843,3.847-9.464,4.823-14.215,2.937
	c-0.645,1.548-1.59,3-2.848,4.259c-5.158,5.162-13.521,5.162-18.679,0c-0.294-0.294-0.565-0.601-0.825-0.915
	c0.038,0.406,0.062,0.816,0.062,1.232c0,5.913-3.881,10.917-9.231,12.607h3.047c-12.647,8.112-20.63,22.251-20.63,37.743
	C381.035,306.92,388.44,320.665,400.653,328.956z"/>
<path style="fill:#775436;" d="M485.965,345.302c0,2.75-2.25,5-5,5H370.667c-2.75,0-5-2.25-5-5v-11.346c0-2.75,2.25-5,5-5h110.299
	c2.75,0,5,2.25,5,5v11.346H485.965z"/>
<g style="opacity:0.1;">
	<path d="M396.701,345.302v-11.346c0-2.75,2.25-5,5-5h-31.035c-2.75,0-5,2.25-5,5v11.346c0,2.75,2.25,5,5,5h31.035
		C398.951,350.302,396.701,348.052,396.701,345.302z"/>
</g>
<g>
	<path style="fill:#89C947;" d="M359.726,178.931c0.593-1.092,1.343-2.121,2.266-3.044c5.157-5.163,13.52-5.163,18.679,0
		c0.294,0.294,0.566,0.601,0.826,0.915c-0.038-0.406-0.062-0.815-0.062-1.231c0-2.231,0.558-4.33,1.533-6.172
		c-0.674-4.066,0.544-8.384,3.677-11.52c0.294-0.294,0.601-0.566,0.914-0.826c-0.405,0.038-0.815,0.062-1.23,0.062
		c-7.294,0-13.208-5.919-13.208-13.219c0-0.647,0.062-1.279,0.152-1.902c-7.337-3.03-15.704-3.217-23.377-0.165
		c-0.126,0.05-0.241,0.126-0.335,0.22c-0.094,0.095-0.17,0.21-0.221,0.337c-4.596,11.575-1.881,24.744,6.916,33.549
		C357.348,177.027,358.509,178.027,359.726,178.931z"/>
	<path style="fill:#89C947;" d="M465.468,143.894c0,4.796-2.56,8.982-6.378,11.299c6.937,0.398,12.444,6.138,12.444,13.181
		c0,0.416-0.024,0.826-0.062,1.231c0.26-0.314,0.532-0.621,0.826-0.915c2.978-2.98,7.022-4.229,10.903-3.768
		c0.701-0.568,1.386-1.161,2.034-1.81c7.284-7.29,9.532-18.192,5.727-27.776c-0.042-0.104-0.105-0.2-0.182-0.278
		c-0.08-0.078-0.174-0.141-0.279-0.183c-8.828-3.511-18.77-1.861-25.977,4.129C465.126,140.519,465.468,142.165,465.468,143.894z"/>
</g>
<path style="fill:#EF5050;" d="M425.675,234.046c-5.157-5.162-5.157-13.532,0-18.695c0.294-0.293,0.601-0.565,0.914-0.826
	c-0.405,0.037-0.815,0.062-1.23,0.062c-7.294,0-13.207-5.919-13.207-13.219c0-4.796,2.56-8.981,6.378-11.299
	c0.254,0.015,0.506,0.039,0.764,0.039c-7.294,0-13.208-5.919-13.208-13.219c0-0.416,0.025-0.826,0.063-1.232
	c-0.26,0.314-0.532,0.621-0.826,0.914c-5.158,5.163-13.521,5.163-18.679,0c-2.024-2.026-3.242-4.548-3.677-7.174
	c-0.975,1.843-1.533,3.941-1.533,6.172c0,0.416,0.024,0.825,0.062,1.231c-0.26-0.313-0.532-0.621-0.826-0.915
	c-5.158-5.163-13.521-5.163-18.679,0c-5.158,5.162-5.158,13.532,0,18.695c0.294,0.294,0.601,0.566,0.915,0.827
	c-0.406-0.038-0.815-0.063-1.231-0.063c-7.294,0-13.208,5.919-13.208,13.219c0,7.3,5.914,13.219,13.208,13.219
	c0.415,0,0.825-0.024,1.23-0.062c-0.313,0.26-0.62,0.532-0.914,0.826c-5.157,5.162-5.157,13.533,0,18.694
	c5.158,5.163,13.521,5.163,18.679,0c0.293-0.294,0.565-0.601,0.825-0.914c-0.038,0.406-0.062,0.816-0.062,1.232
	c0,7.3,5.914,13.219,13.208,13.219s13.207-5.919,13.207-13.219c0-0.416-0.024-0.826-0.062-1.232c0.26,0.314,0.532,0.621,0.825,0.915
	c5.158,5.162,13.521,5.162,18.679,0c1.258-1.259,2.204-2.711,2.848-4.259C428.515,236.338,426.99,235.362,425.675,234.046z"/>
<ellipse style="fill:#FFFFFF;" cx="394.64" cy="208.56" rx="16.05" ry="16.06"/>
<path style="fill:#F7931E;" d="M504.5,201.369c0-7.3-5.914-13.219-13.207-13.219c-0.415,0-0.825,0.025-1.23,0.062
	c0.313-0.26,0.62-0.532,0.914-0.826c5.158-5.163,5.158-13.533,0-18.695c-5.157-5.163-13.52-5.163-18.678,0
	c-0.294,0.294-0.566,0.601-0.826,0.915c0.038-0.406,0.062-0.816,0.062-1.231c0-7.042-5.507-12.783-12.444-13.181
	c-1.995,1.21-4.327,1.92-6.83,1.92c-0.258,0-0.51-0.022-0.764-0.039c-0.088,0.053-0.177,0.105-0.263,0.16
	c0.241,0.207,0.482,0.414,0.71,0.643c5.158,5.162,5.158,13.532,0,18.694s-13.521,5.162-18.679,0
	c-0.293-0.293-0.565-0.601-0.826-0.915c0.038,0.406,0.062,0.816,0.062,1.232c0,4.685-2.442,8.79-6.115,11.139
	c0.069,0.059,0.134,0.126,0.204,0.184c-0.154-0.014-0.312-0.014-0.467-0.024c-1.995,1.21-4.326,1.92-6.829,1.92
	c-0.258,0-0.51-0.024-0.764-0.039c-3.818,2.317-6.378,6.503-6.378,11.299c0,7.3,5.914,13.219,13.207,13.219
	c0.416,0,0.825-0.025,1.23-0.062c-0.313,0.26-0.62,0.532-0.914,0.826c-5.157,5.163-5.157,13.533,0,18.695
	c5.158,5.163,13.522,5.163,18.679,0c0.293-0.294,0.565-0.601,0.826-0.914c-0.038,0.406-0.062,0.816-0.062,1.232
	c0,7.3,5.914,13.219,13.208,13.219s13.207-5.919,13.207-13.219c0-0.416-0.024-0.826-0.062-1.232c0.26,0.313,0.532,0.621,0.826,0.915
	c5.158,5.162,13.521,5.162,18.679,0s5.158-13.533,0-18.695c-0.293-0.294-0.6-0.565-0.913-0.826c0.405,0.037,0.815,0.062,1.23,0.062
	C498.586,214.588,504.5,208.669,504.5,201.369z"/>
<g>
	<path style="fill:#FFC502;" d="M465.468,143.894c0-7.3-5.914-13.219-13.208-13.219c-0.415,0-0.825,0.025-1.23,0.062
		c0.314-0.26,0.62-0.532,0.914-0.826c5.158-5.163,5.158-13.533,0-18.695c-5.157-5.162-13.52-5.162-18.678,0
		c-0.294,0.294-0.566,0.601-0.826,0.915c0.038-0.406,0.062-0.815,0.062-1.231c0-7.3-5.914-13.219-13.208-13.219
		s-13.208,5.918-13.208,13.219c0,0.416,0.025,0.825,0.063,1.231c-0.26-0.313-0.532-0.621-0.826-0.915
		c-5.158-5.163-13.521-5.163-18.679,0c-5.158,5.162-5.158,13.532,0,18.695c0.294,0.294,0.601,0.566,0.914,0.827
		c-0.406-0.038-0.815-0.063-1.231-0.063c-7.294,0-13.208,5.919-13.208,13.219c0,7.3,5.914,13.219,13.208,13.219
		c0.415,0,0.825-0.024,1.23-0.062c-0.313,0.26-0.62,0.532-0.914,0.826c-5.157,5.162-5.157,13.533,0,18.694
		c5.158,5.163,13.522,5.163,18.679,0c0.293-0.293,0.565-0.601,0.826-0.914c-0.037,0.406-0.063,0.816-0.063,1.232
		c0,7.3,5.914,13.219,13.208,13.219s13.208-5.919,13.208-13.219c0-0.416-0.024-0.826-0.062-1.232
		c0.26,0.314,0.532,0.621,0.826,0.915c5.158,5.162,13.521,5.162,18.679,0c5.158-5.162,5.158-13.533,0-18.694
		c-0.294-0.294-0.6-0.566-0.913-0.826c0.405,0.038,0.814,0.062,1.229,0.062C459.554,157.113,465.468,151.194,465.468,143.894z"/>
	<ellipse style="fill:#FFC502;" cx="458.33" cy="201.37" rx="16.05" ry="16.06"/>
</g>
<g>
	<ellipse style="fill:#FFFFFF;" cx="419.29" cy="143.89" rx="16.05" ry="16.06"/>
	<path style="fill:#FFFFFF;" d="M123.019,281.569h-13.65c-5.5,0-10,4.5-10,10v75.461h23.65V281.569z"/>
	<path style="fill:#FFFFFF;" d="M340.79,281.569h-13.65v85.461h23.65v-75.461C350.79,286.069,346.29,281.569,340.79,281.569z"/>
</g>
<path style="fill:#A2DFF9;" d="M310.611,249.606h-32.34c-10.06,19.123-30.099,32.169-53.192,32.169s-43.132-13.046-53.192-32.169
	h-32.34c-9.113,0-16.528,7.42-16.528,16.542V367.03h21.435c-0.034-0.333-0.051-0.671-0.051-1.014c0-3.567-0.001-30.117,0-33.684
	c0-5.461,4.407-9.886,9.843-9.885l8.02-0.001c1.259,0,2.458,0.247,3.565,0.679v-15.389c0-4.336,3.29-6.566,7.313-4.957
	l44.622,17.854c4.021,1.61,10.604,1.61,14.626-0.001l44.621-17.852c4.023-1.61,7.313,0.62,7.313,4.956v15.39
	c1.107-0.433,2.306-0.679,3.566-0.679h8.02c5.436,0.001,9.844,4.425,9.843,9.884c0,3.567,0.001,30.117,0,33.684
	c0,0.342-0.018,0.681-0.051,1.014h21.435v-100.88C327.14,257.027,319.725,249.606,310.611,249.606z"/>
<path style="opacity:0.1;enable-background:new    ;" d="M158.019,249.606h-18.472c-9.113,0-16.528,7.42-16.528,16.542V367.03
	h18.472V266.148C141.491,257.027,148.906,249.606,158.019,249.606z"/>
<path style="fill:#FCDB67;" d="M354.083,367.03h-48.379c-0.505,4.984-4.696,8.872-9.792,8.87l-8.02,0.002
	c-3.066-0.001-5.802-1.408-7.607-3.613c-0.939,0.942-1.988,1.722-3.099,2.239l-44.965,20.944c-3.928,1.829-10.355,1.829-14.283,0
	l-44.966-20.944c-1.11-0.517-2.159-1.297-3.099-2.239c-1.805,2.205-4.542,3.612-7.607,3.612h-8.02
	c-5.096-0.001-9.288-3.887-9.792-8.87h-48.79c-28.475,0-51.779,22.091-53.775,50.082h365.97
	C405.862,389.121,382.558,367.03,354.083,367.03z"/>
<path style="opacity:0.1;enable-background:new    ;" d="M73.155,417.112c1.997-27.991,25.301-50.082,53.775-50.082H95.665
	c-28.475,0-51.779,22.091-53.775,50.082H73.155z"/>
<path style="fill:#C6A07D;" d="M442.658,487.452c0,2.75-2.25,5-5,5H12.5c-2.75,0-5-2.25-5-5v-65.34c0-2.75,2.25-5,5-5h425.158
	c2.75,0,5,2.25,5,5V487.452z"/>
<g style="opacity:0.1;">
	<path d="M38.842,487.452v-65.34c0-2.75,2.25-5,5-5H12.5c-2.75,0-5,2.25-5,5v65.34c0,2.75,2.25,5,5,5h31.342
		C41.092,492.452,38.842,490.202,38.842,487.452z"/>
</g>
<rect x="75.987" y="417.109" style="fill:#775436;" width="298.19" height="75.34"/>
<path style="fill:#C6A07D;" d="M155.1,417.112v29.19c0,2.827,2.311,5.14,5.136,5.14h129.688c2.825,0,5.136-2.313,5.136-5.14v-29.19
	H155.1z"/>
<path style="fill:#FFB98A;" d="M244.081,237.88c-6.052,1.869-12.419,2.899-19.002,2.899c-6.584,0-12.951-1.03-19.003-2.9v11.727
	h-34.189c10.06,19.123,30.099,32.169,53.192,32.169s43.132-13.046,53.192-32.169h-34.189V237.88H244.081z"/>
<path style="fill:#EF5050;" d="M225.08,42.707c6.583,0,12.965,0.978,19.047,2.797c5.298-5.655,8.611-13.63,8.611-22.462
	c0-1.93-1.563-3.495-3.49-3.495h-48.337c-1.927,0-3.49,1.565-3.49,3.495c0,8.832,3.313,16.807,8.611,22.462
	C212.115,43.685,218.496,42.707,225.08,42.707z"/>
<path style="opacity:0.1;enable-background:new    ;" d="M224.317,42.729C220.377,37.37,218,30.516,218,23.042
	c0-1.93,1.563-3.495,3.49-3.495h-20.579c-1.927,0-3.49,1.565-3.49,3.495c0,8.832,3.313,16.807,8.611,22.462
	C211.878,43.755,218.004,42.801,224.317,42.729z"/>
<g>
	<path style="fill:#FFB98A;" d="M153.814,164.564v-8.148h-3.523c-10.726,0-19.421,8.702-19.421,19.436
		c0,10.735,8.695,19.438,19.421,19.438h9.929C156.118,185.744,153.814,175.303,153.814,164.564z"/>
	<path style="fill:#FFB98A;" d="M299.868,156.416h-3.523v8.148c0,10.739-2.304,21.18-6.406,30.726h9.929
		c10.725,0,19.421-8.703,19.421-19.438C319.289,165.118,310.593,156.416,299.868,156.416z"/>
</g>
<path style="fill:#FFD5B3;" d="M294.632,147.512H155.527c-0.58,0-1.15-0.042-1.713-0.106v17.159
	c0,40.125,31.907,76.215,71.266,76.215s71.265-36.091,71.265-76.215v-17.159C295.782,147.47,295.212,147.512,294.632,147.512z"/>
<g style="opacity:0.1;">
	<path d="M174.469,164.564v-17.052h-18.942c-0.58,0-1.15-0.042-1.713-0.106v17.159c0,40.125,31.907,76.215,71.266,76.215
		c3.509,0,6.955-0.299,10.328-0.85C200.944,234.3,174.469,201.111,174.469,164.564z"/>
</g>
<path style="fill:#FB8276;" d="M155.527,116.559h139.105c1.619,0,3.176,0.268,4.64,0.748c-4.582-42.047-36.039-74.6-74.192-74.6
	c-38.154,0-69.611,32.552-74.193,74.6C152.351,116.826,153.908,116.559,155.527,116.559z"/>
<path style="opacity:0.1;enable-background:new    ;" d="M155.527,116.559h16.14c4.419-37.82,30.618-67.787,63.767-73.02
	c-3.386-0.535-6.839-0.832-10.354-0.832c-38.154,0-69.611,32.552-74.193,74.6C152.351,116.826,153.908,116.559,155.527,116.559z"/>
<path style="fill:#EF5050;" d="M309.632,132.512c0,8.25-6.75,15-15,15H155.527c-8.25,0-15-6.75-15-15v-0.953c0-8.25,6.75-15,15-15
	h139.105c8.25,0,15,6.75,15,15V132.512z"/>
<g style="opacity:0.1;">
	<path d="M171.895,132.512v-0.953c0-8.25,6.75-15,15-15h-31.368c-8.25,0-15,6.75-15,15v0.953c0,8.25,6.75,15,15,15h31.368
		C178.645,147.512,171.895,140.762,171.895,132.512z"/>
</g>
<path style="fill:#046699;" d="M284.327,323.126v-15.39c0-4.336-3.29-6.566-7.313-4.956l-44.621,17.852
	c-4.023,1.611-10.605,1.611-14.626,0.001l-44.622-17.854c-4.023-1.609-7.313,0.622-7.313,4.957v15.389
	c3.672,1.436,6.278,5.011,6.279,9.207c0,3.566-1.887,6.682-4.706,8.421c2.817,1.738,4.705,4.854,4.706,8.42
	c-0.001,3.567-1.888,6.683-4.707,8.421c2.819,1.738,4.706,4.854,4.706,8.422c0,2.382-0.839,4.566-2.237,6.272
	c0.94,0.942,1.989,1.722,3.099,2.239l44.966,20.944c3.928,1.829,10.355,1.829,14.283,0l44.965-20.944
	c1.11-0.517,2.159-1.297,3.099-2.239c-1.396-1.707-2.236-3.891-2.236-6.272c0-3.566,1.887-6.682,4.706-8.421
	c-2.817-1.739-4.705-4.854-4.706-8.42c0-3.566,1.888-6.684,4.707-8.421c-2.819-1.739-4.706-4.853-4.706-8.422
	C278.049,328.137,280.655,324.561,284.327,323.126z"/>
<path style="fill:#08375E;" d="M217.767,320.633l-44.622-17.854c-4.023-1.609-7.313,0.622-7.313,4.957v15.389
	c3.672,1.436,6.278,5.011,6.279,9.207c0,3.566-1.887,6.682-4.706,8.421c2.817,1.738,4.705,4.854,4.706,8.42
	c-0.001,3.567-1.888,6.683-4.707,8.421c2.819,1.738,4.706,4.854,4.706,8.422c0,2.382-0.839,4.566-2.237,6.272
	c0.94,0.942,1.989,1.722,3.099,2.239l44.966,20.944c3.928,1.829,7.141-0.222,7.141-4.559v-59.471
	C225.08,327.107,221.788,322.243,217.767,320.633z"/>
<g>
	<path style="fill:#FFD5B3;" d="M144.403,366.016c0-3.567-0.001-30.117,0-33.684c0-5.461,4.407-9.886,9.843-9.885l8.02-0.001
		c5.437,0.001,9.843,4.426,9.844,9.886c0,3.566-1.887,6.682-4.706,8.421c2.817,1.738,4.705,4.854,4.706,8.42
		c-0.001,3.567-1.888,6.683-4.707,8.421c2.819,1.738,4.706,4.854,4.706,8.422c0,5.459-4.407,9.884-9.844,9.884h-8.02
		C148.81,375.898,144.402,371.476,144.403,366.016z"/>
	<path style="fill:#FFD5B3;" d="M305.756,332.332c0,3.567,0.001,30.117,0,33.684c0,5.461-4.407,9.886-9.843,9.884l-8.02,0.002
		c-5.437-0.002-9.843-4.425-9.844-9.886c0-3.566,1.887-6.682,4.706-8.421c-2.817-1.739-4.705-4.854-4.706-8.42
		c0-3.566,1.888-6.684,4.707-8.421c-2.819-1.739-4.706-4.853-4.706-8.422c0-5.459,4.407-9.884,9.844-9.884h8.02
		C301.349,322.448,305.757,326.872,305.756,332.332z"/>
</g>
<path style="fill:#48C1E1;" d="M102.025,170.415c0,5.5-4.5,10-10,10H48.341c-5.5,0-10-4.5-10-10V94.853c0-5.5,4.5-10,10-10h43.685
	c5.5,0,10,4.5,10,10L102.025,170.415L102.025,170.415z"/>
<rect x="38.34" y="103.63" style="fill:#FFFFFF;" width="63.69" height="52.874"/>
<g style="opacity:0.1;">
	<path d="M59.315,170.415V94.853c0-5.5,4.5-10,10-10H48.341c-5.5,0-10,4.5-10,10v75.562c0,5.5,4.5,10,10,10h20.975
		C63.815,180.415,59.315,175.915,59.315,170.415z"/>
</g>
<path style="fill:#A2DFF9;" d="M86.206,232.915c0,2.75-2.25,5-5,5H72.87c-2.75,0-5-2.25-5-5v-13.038c0-2.75,2.25-5,5-5h8.336
	c2.75,0,5,2.25,5,5V232.915z"/>
<path d="M512,201.369c0-7.661-4.177-14.363-10.371-17.949c1.848-6.918,0.065-14.614-5.347-20.03
	c-0.329-0.329-0.679-0.627-1.025-0.931c5.508-8.849,6.631-19.926,2.664-29.919c-0.415-1.034-1.023-1.96-1.806-2.753
	c-0.027-0.027-0.054-0.054-0.081-0.081c-0.798-0.783-1.729-1.389-2.761-1.8c-3.937-1.566-8.074-2.359-12.299-2.359
	c-5.103,0-10.027,1.15-14.489,3.315c-1.176-1.115-2.476-2.101-3.887-2.917c1.848-6.918,0.065-14.614-5.348-20.03
	c-3.911-3.915-9.112-6.071-14.645-6.071c-1.841,0-3.646,0.239-5.379,0.702c-3.584-6.192-10.28-10.366-17.932-10.366
	c-7.651,0-14.347,4.174-17.932,10.365c-1.733-0.463-3.538-0.702-5.379-0.702c-5.533,0-10.734,2.156-14.645,6.071
	c-5.413,5.416-7.195,13.112-5.347,20.031c-2.908,1.683-5.362,4.06-7.158,6.893c-2.423-0.472-4.907-0.72-7.43-0.72
	c-4.905,0-9.709,0.921-14.266,2.734c-1.086,0.429-2.055,1.065-2.909,1.919c-0.809,0.817-1.434,1.773-1.86,2.845
	c-5.701,14.358-2.332,30.694,8.582,41.618c0.02,0.02,0.041,0.038,0.061,0.057c-0.593,3.085-0.484,6.28,0.329,9.325
	c-6.195,3.585-10.372,10.289-10.372,17.949c0,7.661,4.177,14.364,10.372,17.949c-1.847,6.917-0.065,14.613,5.347,20.03
	c1.424,1.425,3.023,2.611,4.743,3.551h-32.949c-4.402-4.9-10.78-7.988-17.868-7.988h-32.34h-24.102
	c17.39-7.605,31.884-21.717,40.643-39.316h5.057c14.844,0,26.921-12.084,26.921-26.938c0-11.876-7.725-21.975-18.409-25.548
	c5.318-4.119,8.751-10.561,8.751-17.792v-0.953c0-8.182-4.391-15.355-10.939-19.294c-4.854-32.054-24.369-58.546-50.47-70.387
	c2.868-5.572,4.514-11.994,4.514-18.835c0-6.063-4.93-10.995-10.99-10.995h-48.337c-6.06,0-10.99,4.932-10.99,10.995
	c0,6.841,1.646,13.263,4.514,18.835c-26.1,11.841-45.616,38.333-50.47,70.387c-6.548,3.938-10.939,11.112-10.939,19.294v0.953
	c0,7.232,3.433,13.673,8.751,17.792c-10.684,3.573-18.409,13.672-18.409,25.548c0,14.854,12.077,26.938,26.921,26.938h5.057
	c8.759,17.599,23.253,31.711,40.643,39.316h-24.103h-32.34c-7.087,0-13.466,3.088-17.868,7.988H83.751v-4.94
	c5.676-1.179,9.955-6.217,9.955-12.238v-13.038c0-6.021-4.279-11.059-9.955-12.238v-19.725h8.274c9.649,0,17.5-7.851,17.5-17.5
	V94.853c0-8.326-5.85-15.3-13.652-17.06c-0.244-9.438-7.981-17.046-17.477-17.046h-0.713V45.553h9.882c4.142,0,7.5-3.358,7.5-7.5
	s-3.358-7.5-7.5-7.5H7.5c-4.142,0-7.5,3.358-7.5,7.5s3.358,7.5,7.5,7.5h3.414v364.171C4.769,410.507,0,415.758,0,422.112v65.34
	c0,6.893,5.607,12.5,12.5,12.5h455.718c6.893,0,12.5-5.607,12.5-12.5V409c0-4.142-3.358-7.5-7.5-7.5s-7.5,3.358-7.5,7.5v75.952
	h-15.56v-62.84c0-6.893-5.607-12.5-12.5-12.5h-23.234c-3.275-17.406-13.893-32.24-28.509-41.145v-10.664h79.803V371
	c0,4.142,3.358,7.5,7.5,7.5s7.5-3.358,7.5-7.5v-13.198h0.247c6.893,0,12.5-5.607,12.5-12.5v-11.346c0-6.893-5.607-12.5-12.5-12.5
	h-11.986c5.84-8.531,9.118-18.759,9.118-29.546c0-13.863-5.391-26.86-14.818-36.513c0.128-0.326,0.233-0.662,0.326-1.003
	c5.386-1.423,9.923-4.962,12.652-9.677c1.732,0.463,3.537,0.702,5.378,0.702c5.533,0,10.733-2.156,14.645-6.07
	c5.412-5.417,7.195-13.113,5.348-20.03C507.824,215.732,512,209.029,512,201.369z M472.916,142.436
	c2.479-1.224,5.214-1.889,8.057-1.889c1.316,0,2.617,0.141,3.893,0.42c1.272,5.828-0.376,11.964-4.514,16.393
	c-1.396,0.085-2.767,0.306-4.094,0.661c-1.3-2.246-3.013-4.22-5.03-5.829c1.115-2.543,1.74-5.348,1.74-8.297
	C472.968,143.403,472.95,142.917,472.916,142.436z M386.327,138.175c0.182,0,0.361,0.014,0.539,0.031
	c3.268,0.299,6.361-1.56,7.62-4.595c1.259-3.036,0.395-6.538-2.132-8.639c-0.139-0.116-0.277-0.234-0.405-0.362
	c-2.229-2.231-2.229-5.862,0-8.093c1.078-1.079,2.51-1.673,4.034-1.673c1.523,0,2.956,0.594,4.036,1.675
	c0.128,0.129,0.245,0.265,0.359,0.402c2.1,2.529,5.602,3.397,8.641,2.138c3.038-1.258,4.901-4.348,4.598-7.622
	c-0.016-0.178-0.03-0.356-0.03-0.539c0-3.153,2.561-5.719,5.708-5.719s5.708,2.565,5.708,5.719c0,0.182-0.014,0.361-0.03,0.539
	c-0.304,3.274,1.561,6.364,4.598,7.622c3.038,1.258,6.541,0.391,8.641-2.139c0.114-0.137,0.23-0.273,0.361-0.404
	c1.078-1.079,2.51-1.673,4.034-1.673s2.956,0.594,4.034,1.673c2.229,2.23,2.229,5.861,0.002,8.09
	c-0.128,0.128-0.264,0.245-0.401,0.359c-2.528,2.099-3.396,5.6-2.14,8.637c1.256,3.037,4.345,4.899,7.615,4.603
	c0.18-0.017,0.362-0.031,0.546-0.031c3.147,0,5.708,2.565,5.708,5.719c0,3.154-2.561,5.719-5.708,5.719
	c-0.181,0-0.36-0.014-0.537-0.03c-3.272-0.308-6.362,1.558-7.621,4.595c-1.259,3.036-0.395,6.538,2.132,8.64
	c0.137,0.114,0.272,0.23,0.403,0.361c2.229,2.231,2.229,5.861-0.001,8.092c-1.078,1.079-2.51,1.673-4.034,1.673
	s-2.956-0.594-4.036-1.675c-0.128-0.128-0.245-0.265-0.358-0.402c-2.101-2.529-5.602-3.397-8.64-2.138
	c-3.038,1.258-4.901,4.347-4.599,7.621c0.017,0.178,0.03,0.358,0.03,0.541c0,3.154-2.561,5.719-5.708,5.719
	s-5.708-2.565-5.708-5.719c0-0.182,0.014-0.361,0.03-0.539c0.304-3.274-1.56-6.363-4.598-7.622c-0.93-0.385-1.904-0.571-2.868-0.571
	c-2.184,0-4.316,0.955-5.773,2.71c-0.114,0.137-0.23,0.273-0.361,0.404c-1.078,1.079-2.51,1.673-4.034,1.673
	c-1.523,0-2.957-0.594-4.034-1.673c-2.229-2.23-2.229-5.861-0.002-8.09c0.128-0.128,0.265-0.245,0.402-0.359
	c2.529-2.101,3.396-5.603,2.138-8.641c-1.258-3.037-4.344-4.908-7.622-4.598c-0.177,0.016-0.356,0.03-0.538,0.03
	c-3.147,0-5.708-2.565-5.708-5.719C380.619,140.74,383.18,138.175,386.327,138.175z M458.326,192.805
	c4.714,0,8.549,3.842,8.549,8.563c0,4.722-3.835,8.563-8.549,8.563c-4.714,0-8.549-3.842-8.549-8.563
	C449.776,196.647,453.611,192.805,458.326,192.805z M445.918,260.48c10.758,6.9,17.18,18.65,17.18,31.43
	c0,11.738-5.439,22.55-14.532,29.546h-45.501c-9.088-6.993-14.529-17.806-14.529-29.546c0-12.78,6.422-24.529,17.18-31.43
	c1.417-0.909,2.441-2.236,2.991-3.739c1.515-1.406,2.827-3.028,3.869-4.829c1.732,0.463,3.537,0.702,5.378,0.702
	c5.533,0,10.733-2.156,14.645-6.071c0.384-0.384,0.743-0.784,1.09-1.19c0.441,0.028,0.881,0.065,1.328,0.065
	c1.841,0,3.646-0.239,5.378-0.702c1.018,1.758,2.294,3.346,3.764,4.73c-0.615,0.757-1.101,1.631-1.388,2.61
	C441.833,255.252,443.115,258.682,445.918,260.48z M403.191,208.565c0,4.722-3.835,8.564-8.549,8.564
	c-4.714,0-8.55-3.842-8.55-8.564s3.835-8.563,8.55-8.563C399.356,200.002,403.191,203.843,403.191,208.565z M355.408,147.892
	c1.954-0.514,3.961-0.774,5.995-0.774c1.548,0,3.068,0.165,4.555,0.456c1.097,6.093,4.854,11.272,10.033,14.269
	c-0.27,1.011-0.453,2.039-0.568,3.074c-1.333-0.266-2.702-0.403-4.092-0.403c-4.303,0-8.397,1.319-11.848,3.741
	C355.063,162.466,353.555,154.948,355.408,147.892z M355.967,208.565c0-3.154,2.561-5.719,5.708-5.719
	c0.182,0,0.361,0.014,0.539,0.031c3.273,0.301,6.361-1.56,7.62-4.595c1.259-3.036,0.395-6.538-2.132-8.639
	c-0.139-0.116-0.277-0.234-0.405-0.362c-2.229-2.232-2.229-5.862,0-8.094c1.077-1.078,2.51-1.672,4.033-1.672
	c1.523,0,2.956,0.594,4.037,1.675c0.128,0.128,0.245,0.265,0.358,0.402c1.962,2.365,5.146,3.253,8.036,2.334
	c1.174,0.864,2.423,1.597,3.737,2.189c-9.503,3.034-16.406,11.95-16.406,22.451c0,12.993,10.565,23.564,23.55,23.564
	c8.447,0,15.867-4.476,20.023-11.179c-1.045,5.724,0.325,11.801,4.105,16.585c-0.27,0.039-0.539,0.08-0.817,0.08
	c-1.524,0-2.956-0.594-4.037-1.675c-0.128-0.128-0.244-0.265-0.358-0.402c-2.1-2.528-5.602-3.397-8.64-2.138
	c-3.038,1.258-4.901,4.347-4.599,7.621c0.017,0.178,0.03,0.358,0.03,0.541c0,3.154-2.56,5.719-5.707,5.719s-5.708-2.565-5.708-5.719
	c0-0.182,0.014-0.362,0.03-0.54c0.303-3.274-1.561-6.363-4.599-7.621c-0.93-0.385-1.904-0.571-2.867-0.571
	c-2.183,0-4.316,0.955-5.773,2.71c-0.114,0.137-0.229,0.273-0.36,0.403c-1.078,1.079-2.511,1.673-4.034,1.673
	s-2.956-0.594-4.034-1.673c-2.229-2.23-2.229-5.861-0.002-8.09c0.128-0.128,0.265-0.245,0.402-0.359
	c2.529-2.101,3.397-5.603,2.138-8.641c-1.258-3.037-4.339-4.907-7.622-4.598c-0.177,0.016-0.356,0.03-0.538,0.03
	C358.527,214.284,355.967,211.719,355.967,208.565z M380.898,265.094c-4.753,7.966-7.363,17.18-7.363,26.815
	c0,10.788,3.279,21.016,9.117,29.546h-11.986c-6.329,0-11.562,4.732-12.377,10.842v-40.73c0-9.649-7.851-17.5-17.5-17.5h-6.15v-7.92
	c0-0.353-0.012-0.705-0.027-1.055h46.286V265.094z M370.915,357.802v4.088c-4.054-1.158-8.278-1.904-12.625-2.2v-12.73
	c0.815,6.11,6.048,10.842,12.377,10.842H370.915z M343.29,291.569v67.961h-8.65v-70.461h6.15
	C342.145,289.069,343.29,290.214,343.29,291.569z M311.789,175.852c0,6.33-4.949,11.51-11.174,11.9
	c2.081-7.383,3.224-15.147,3.228-23.139C308.465,166.257,311.789,170.668,311.789,175.852z M244.945,27.048
	c-0.544,3.687-1.834,7.075-3.671,9.963c-5.237-1.182-10.652-1.804-16.194-1.804s-10.957,0.622-16.194,1.804
	c-1.837-2.887-3.127-6.275-3.671-9.963H244.945z M225.08,50.207c31.477,0,57.963,25.087,65.275,58.852h-130.55
	C167.116,75.294,193.602,50.207,225.08,50.207z M138.37,175.852c0-5.184,3.324-9.595,7.946-11.239
	c0.004,7.991,1.147,15.756,3.228,23.139C143.319,187.363,138.37,182.183,138.37,175.852z M148.027,132.512v-0.953
	c0-4.136,3.364-7.5,7.5-7.5h139.105c4.136,0,7.5,3.364,7.5,7.5v0.953c0,4.136-3.364,7.5-7.5,7.5H155.527
	C151.391,140.012,148.027,136.648,148.027,132.512z M180.21,212.645c-12.009-13.072-18.896-30.597-18.896-48.081v-9.552h127.531
	v9.552c0,17.484-6.887,35.008-18.896,48.081c-12.225,13.307-28.159,20.635-44.869,20.635S192.435,225.951,180.21,212.645z
	 M206.077,257.105c4.142,0,7.5-3.358,7.5-7.5v-2.27c3.765,0.615,7.605,0.942,11.503,0.942c3.897,0,7.737-0.327,11.502-0.942v2.27
	c0,4.142,3.358,7.5,7.5,7.5h19.858c-9.83,10.811-23.833,17.168-38.86,17.168s-29.031-6.358-38.86-17.168H206.077z M130.519,266.148
	c0-4.986,4.05-9.042,9.028-9.042h27.987c12.276,19.954,33.923,32.168,57.544,32.168s45.269-12.214,57.544-32.168h27.988
	c4.978,0,9.028,4.057,9.028,9.042v93.381h-6.384v-27.197c0.002-9.585-7.778-17.384-17.343-17.386h-4.086v-7.211
	c0-7.399-5.281-12.979-12.285-12.979c-1.769,0-3.557,0.357-5.314,1.06l-44.623,17.853c-0.81,0.325-2.424,0.671-4.527,0.671
	c-1.633,0-2.965-0.209-3.861-0.455h1.611c4.142,0,7.5-3.358,7.5-7.5s-3.358-7.5-7.5-7.5h-10.314c-4.142,0-7.5,3.358-7.5,7.5
	c0,0.375,0.037,0.742,0.09,1.103l-29.174-11.673c-1.757-0.703-3.544-1.059-5.312-1.059c-7.004,0-12.286,5.581-12.286,12.98v7.21
	l-4.088,0.001c-9.562,0-17.34,7.799-17.34,17.383v27.2h-6.384L130.519,266.148L130.519,266.148z M286.694,351.212
	c-0.717-0.442-1.145-1.205-1.145-2.037c0-0.835,0.427-1.597,1.143-2.039c2.215-1.365,3.564-3.781,3.564-6.383
	s-1.348-5.018-3.563-6.384c-0.716-0.441-1.143-1.203-1.143-2.038c0-1.315,1.052-2.385,2.344-2.385h8.018
	c1.293,0,2.345,1.069,2.345,2.384v33.684c0,1.315-1.05,2.384-2.345,2.384l-8.016,0.002c-1.293-0.001-2.346-1.071-2.346-2.386
	c0-0.834,0.427-1.596,1.143-2.038c2.214-1.366,3.562-3.781,3.563-6.382C290.255,354.995,288.907,352.579,286.694,351.212z
	 M272.707,340.753c-1.398,2.527-2.158,5.408-2.159,8.423c0.001,3.012,0.761,5.891,2.159,8.417c-1.398,2.528-2.158,5.408-2.158,8.423
	c0,1.089,0.113,2.151,0.306,3.186L232.58,387.03v-55.588c0-0.978-0.096-1.96-0.27-2.935c0.957-0.237,1.922-0.533,2.869-0.913
	l41.648-16.661v8.024c-3.832,3.191-6.278,8.001-6.278,13.373C270.549,335.345,271.309,338.226,272.707,340.753z M177.452,357.594
	c1.398-2.527,2.158-5.408,2.159-8.423c-0.001-3.012-0.761-5.891-2.159-8.418c1.398-2.528,2.158-5.408,2.158-8.422
	c-0.001-5.371-2.446-10.179-6.278-13.371l0.001-8.028l41.647,16.664c1.166,0.467,2.6,2.588,2.6,3.846l-0.002,55.587l-38.273-17.827
	c0.192-1.035,0.306-2.097,0.306-3.187C179.61,363.002,178.85,360.121,177.452,357.594z M163.468,363.979
	c0.715,0.44,1.142,1.202,1.142,2.037c0,1.315-1.052,2.384-2.344,2.384h-8.018c-1.293,0-2.345-1.069-2.345-2.384v-33.684
	c0-1.315,1.05-2.385,2.345-2.385l8.017-0.001c1.293,0,2.346,1.071,2.346,2.386c0,0.835-0.427,1.596-1.143,2.038
	c-2.214,1.366-3.563,3.781-3.563,6.383s1.348,5.018,3.562,6.383c0.716,0.442,1.144,1.204,1.144,2.036
	c0,0.835-0.427,1.597-1.143,2.038c-2.215,1.366-3.564,3.782-3.564,6.385C159.904,360.197,161.253,362.613,163.468,363.979z
	 M115.546,265.094c-0.015,0.35-0.027,0.701-0.027,1.055v7.92h-6.15c-9.649,0-17.5,7.851-17.5,17.5v39.176h-5.618
	c-1.355,0-2.5-1.145-2.5-2.5v-63.15h31.795V265.094z M106.869,330.745v-39.176c0-1.355,1.145-2.5,2.5-2.5h6.15v41.676H106.869z
	 M115.519,345.745v13.785h-8.65v-13.785H115.519z M94.525,170.415c0,1.355-1.145,2.5-2.5,2.5H48.341c-1.355,0-2.5-1.145-2.5-2.5
	v-6.414h48.685L94.525,170.415L94.525,170.415z M78.706,222.378v8.038H75.37v-8.038H78.706z M94.525,149.001H45.841v-37.874h48.685
	L94.525,149.001L94.525,149.001z M92.025,92.353c1.355,0,2.5,1.145,2.5,2.5v1.274H45.841v-1.274c0-1.355,1.145-2.5,2.5-2.5H92.025z
	 M78.396,75.747c1.041,0,1.953,0.678,2.322,1.606h-21.07c0.369-0.928,1.281-1.606,2.322-1.606H78.396z M25.914,45.553h36.77v15.194
	H61.97c-9.496,0-17.233,7.607-17.477,17.046c-7.802,1.76-13.652,8.734-13.652,17.06v75.562c0,9.649,7.851,17.5,17.5,17.5h1.605
	v10.515c0,4.142,3.358,7.5,7.5,7.5s7.5-3.358,7.5-7.5v-10.515h3.805v20.175c-4.872,1.708-8.381,6.34-8.381,11.788v13.038
	c0,5.448,3.509,10.08,8.381,11.788v5.391H58.064c-6.893,0-12.5,5.608-12.5,12.5V287c0,4.142,3.358,7.5,7.5,7.5s7.5-3.358,7.5-7.5
	v-21.906h8.187v63.15c0,9.649,7.851,17.5,17.5,17.5h5.618v13.915c-11.593,0.711-22.323,4.65-31.305,10.936V322
	c0-4.142-3.358-7.5-7.5-7.5s-7.5,3.358-7.5,7.5v63.509c-5.019,7.078-8.576,15.258-10.24,24.102h-9.411L25.914,45.553L25.914,45.553z
	 M68.487,484.952H15v-60.34h53.487V484.952z M366.672,484.952H83.487v-60.34H147.6v21.69c0,6.97,5.669,12.64,12.636,12.64H222
	c4.142,0,7.5-3.358,7.5-7.5s-3.358-7.5-7.5-7.5h-59.4v-19.33h124.96v19.33H264c-4.142,0-7.5,3.358-7.5,7.5s3.358,7.5,7.5,7.5h25.923
	c6.968,0,12.636-5.67,12.636-12.64v-21.69h64.113V484.952z M435.158,424.612v60.34h-53.486v-60.34H435.158z M399.075,409.612H50.673
	c5.089-20.133,23.319-35.082,44.992-35.082h43.477c2.977,5.286,8.627,8.869,15.104,8.87h8.02c2.837,0,5.51-0.7,7.878-1.917
	l44.629,20.788c3.679,1.712,7.635,2.072,10.307,2.072c2.671,0,6.628-0.36,10.308-2.073l44.628-20.787
	c2.366,1.216,5.038,1.917,7.874,1.918c0.002,0,0.004,0,0.005,0l8.021-0.002c6.476,0,12.125-3.584,15.102-8.87h43.065
	C375.756,374.53,393.986,389.478,399.075,409.612z M478.465,336.456v6.346H373.167v-6.346H478.465z M491.293,207.088
	c-0.185,0-0.366-0.014-0.546-0.031c-3.272-0.301-6.357,1.565-7.613,4.6c-1.256,3.036-0.392,6.535,2.135,8.636
	c0.136,0.113,0.272,0.23,0.402,0.36c2.229,2.231,2.229,5.861,0,8.092c-1.078,1.079-2.51,1.673-4.034,1.673
	c-1.523,0-2.956-0.594-4.036-1.675c-0.128-0.128-0.245-0.265-0.358-0.402c-2.1-2.529-5.603-3.397-8.64-2.138
	c-3.038,1.258-4.901,4.347-4.599,7.621c0.017,0.178,0.03,0.358,0.03,0.541c0,3.154-2.561,5.719-5.707,5.719
	c-3.147,0-5.708-2.565-5.708-5.719c0-0.182,0.014-0.361,0.03-0.539c0.304-3.274-1.56-6.363-4.598-7.622
	c-0.93-0.385-1.904-0.571-2.868-0.571c-2.184,0-4.316,0.955-5.773,2.709c-0.114,0.137-0.23,0.273-0.361,0.404
	c-1.078,1.079-2.51,1.673-4.034,1.673c-1.523,0-2.957-0.594-4.034-1.673c-2.229-2.231-2.229-5.861-0.007-8.086
	c0.13-0.13,0.268-0.248,0.406-0.363c2.528-2.099,3.396-5.6,2.141-8.636c-1.256-3.037-4.344-4.903-7.615-4.603
	c-0.18,0.017-0.362,0.031-0.547,0.031c-3.147,0-5.707-2.565-5.707-5.719c0-1.485,0.573-2.835,1.502-3.854
	c2.596-0.232,5.055-0.941,7.288-2.046c1.582-0.404,2.986-1.319,4.006-2.604c1.906-1.573,3.533-3.473,4.778-5.624
	c0.646,0.172,1.304,0.303,1.968,0.413c-2.776,3.866-4.417,8.601-4.417,13.714c0,12.993,10.564,23.563,23.549,23.563
	c12.985,0,23.549-10.57,23.549-23.563c0-12.313-9.488-22.443-21.532-23.471c2.282-3.798,3.241-8.17,2.875-12.454
	c0.514,0.858,0.815,1.858,0.815,2.93c0,0.182-0.014,0.361-0.03,0.539c-0.304,3.275,1.562,6.365,4.601,7.623
	c3.038,1.257,6.543,0.388,8.641-2.144c0.113-0.136,0.229-0.271,0.358-0.4c1.078-1.079,2.51-1.673,4.034-1.673
	c1.523,0,2.956,0.594,4.034,1.674c2.229,2.23,2.229,5.861-0.002,8.094c-0.127,0.127-0.261,0.242-0.397,0.355
	c-2.528,2.099-3.396,5.6-2.141,8.636s4.342,4.902,7.615,4.603c0.18-0.017,0.362-0.031,0.547-0.031c3.147,0,5.707,2.565,5.707,5.719
	C497,204.523,494.439,207.088,491.293,207.088z"/>
<path d="M419.293,167.458c12.985,0,23.549-10.57,23.549-23.564c0-12.993-10.564-23.563-23.549-23.563
	c-12.985,0-23.55,10.57-23.55,23.563C395.744,156.887,406.308,167.458,419.293,167.458z M419.293,135.331
	c4.714,0,8.549,3.841,8.549,8.563s-3.836,8.564-8.549,8.564c-4.714,0-8.55-3.842-8.55-8.564
	C410.744,139.172,414.579,135.331,419.293,135.331z"/>
<path d="M221.308,196.798h4.132c6.413,0,11.631-5.607,11.631-12.5v-12.369c0-4.142-3.358-7.5-7.5-7.5s-7.5,3.358-7.5,7.5v9.869
	h-0.763c-4.142,0-7.5,3.358-7.5,7.5S217.165,196.798,221.308,196.798z"/>
<path d="M259.024,185.02c4.142,0,7.5-3.358,7.5-7.5v-10.3c0-4.142-3.358-7.5-7.5-7.5s-7.5,3.358-7.5,7.5v10.301
	C251.524,181.663,254.882,185.02,259.024,185.02z"/>
<path d="M197.692,167.22c0-4.142-3.358-7.5-7.5-7.5s-7.5,3.358-7.5,7.5v10.301c0,4.142,3.358,7.5,7.5,7.5s7.5-3.358,7.5-7.5V167.22z
	"/>
<path d="M250.412,212.867c2.928-2.93,2.926-7.679-0.004-10.606c-2.93-2.928-7.679-2.926-10.606,0.004
	c-3.938,3.94-9.166,6.11-14.722,6.11c-5.557,0-10.785-2.17-14.723-6.11c-2.928-2.93-7.677-2.932-10.606-0.004
	c-2.93,2.928-2.932,7.676-0.004,10.606c6.771,6.776,15.768,10.508,25.333,10.508S243.642,219.643,250.412,212.867z"/>
<path d="M151.035,285.069h10.314c4.142,0,7.5-3.358,7.5-7.5s-3.358-7.5-7.5-7.5h-10.314c-4.142,0-7.5,3.358-7.5,7.5
	S146.893,285.069,151.035,285.069z"/>
<path d="M288.809,285.069h10.314c4.142,0,7.5-3.358,7.5-7.5s-3.358-7.5-7.5-7.5h-10.314c-4.142,0-7.5,3.358-7.5,7.5
	S284.667,285.069,288.809,285.069z"/>
<path d="M60.781,137.26h1.902v1.911c0,4.142,3.358,7.5,7.5,7.5s7.5-3.358,7.5-7.5v-1.911h1.903c4.142,0,7.5-3.358,7.5-7.5
	c0-4.142-3.358-7.5-7.5-7.5h-1.903v-1.91c0-4.142-3.358-7.5-7.5-7.5s-7.5,3.358-7.5,7.5v1.91h-1.902c-4.142,0-7.5,3.358-7.5,7.5
	C53.281,133.902,56.639,137.26,60.781,137.26z"/>
<g>
</g>
<g>
</g>
<g>
</g>
<g>
</g>
<g>
</g>
<g>
</g>
<g>
</g>
<g>
</g>
<g>
</g>
<g>
</g>
<g>
</g>
<g>
</g>
<g>
</g>
<g>
</g>
<g>
</g>
</svg>
