<?xml version="1.0" encoding="iso-8859-1"?>
<!-- Generator: Adobe Illustrator 19.0.0, SVG Export Plug-In . SVG Version: 6.00 Build 0)  -->
<svg version="1.1" id="Capa_1" xmlns="http://www.w3.org/2000/svg" xmlns:xlink="http://www.w3.org/1999/xlink" x="0px" y="0px"
	 viewBox="0 0 512.001 512.001" style="enable-background:new 0 0 512.001 512.001;" xml:space="preserve">
<path style="fill:#FB8276;" d="M457.595,227.643h-26.027c-9.428,4.301-19.745,6.718-30.562,6.718
	c-10.817,0-21.135-2.416-30.563-6.718h-17.662c2.348,3.435,3.725,7.588,3.725,12.065c0,11.813-9.554,21.386-21.338,21.386h-5.56
	c-5.41,17.097-15.834,32.247-29.434,43.044v10.402h9.426c24.395,0,44.241,19.896,44.241,44.352v23.465h142.85
	c2.844,0,5.143-2.308,5.143-5.156V271.995C501.836,247.539,481.989,227.643,457.595,227.643z"/>
<path style="fill:#FFB98A;" d="M401.006,234.361c-12.133,0-23.638-3.038-33.962-8.37l29.439,58.038c2.487,4.905,6.56,4.905,9.047,0
	l29.439-58.039C424.645,231.322,413.14,234.361,401.006,234.361z"/>
<path style="opacity:0.1;enable-background:new    ;" d="M367.044,225.991l29.439,58.038c2.487,4.905,6.56,4.905,9.047,0
	l5.853-11.54l-19.645-38.729C383.007,232.633,374.7,229.945,367.044,225.991z"/>
<path style="fill:#FFB98A;" d="M483.162,131.621h-1.432v16.268c0,9.116-1.453,18.048-4.129,26.505h5.561
	c11.784,0,21.338-9.572,21.338-21.386C504.5,141.197,494.946,131.621,483.162,131.621z"/>
<path style="fill:#FFD5B3;" d="M401.006,42.748c-44.585,0-80.726,31.295-80.726,76.819v8.145
	c10.431,14.225,17.477,31.791,19.681,51.104c6.918,1.326,12.19,7.435,12.19,14.725v6.352c0,4.541-2.052,8.62-5.267,11.376
	c14.317,14.159,33.298,23.093,54.121,23.093c44.583,0,80.725-40.948,80.725-86.472v-28.322
	C481.73,74.042,445.589,42.748,401.006,42.748z"/>
<g>
	<path style="fill:#F7931E;" d="M430.926,47.837c0.227,2.05,0.356,4.131,0.356,6.242V73.39c0,7.613-1.526,14.868-4.28,21.479
		c8.392,20.146,28.228,34.306,51.367,34.306h3.361v-9.609C481.73,84.843,460.689,58.429,430.926,47.837z"/>
	<path style="fill:#F7931E;" d="M430.925,47.821c-9.255-3.293-19.345-5.073-29.919-5.073c-44.585,0-80.726,31.295-80.726,76.819
		v8.145c0.356,0.486,0.717,0.97,1.065,1.464h54.288c30.733,0,55.648-24.976,55.648-55.786V54.079
		C431.282,51.962,431.153,49.876,430.925,47.821z"/>
</g>
<path style="opacity:0.1;enable-background:new    ;" d="M401.006,42.748c-44.585,0-80.726,31.295-80.726,76.819v8.145
	c0.356,0.486,0.717,0.97,1.065,1.464H341v-9.609c0-41.935,30.675-71.774,70.36-76.222C407.969,42.962,404.518,42.748,401.006,42.748
	z"/>
<path style="fill:#FFFFFF;" d="M443.283,344.445c-1.561,0-2.835-1.273-2.835-2.839V324.24h-17.335c-1.565,0-2.833-1.274-2.833-2.839
	v-14.697c0-1.565,1.268-2.837,2.833-2.837h17.335v-17.368c0-1.565,1.273-2.839,2.835-2.839h14.671c1.563,0,2.832,1.274,2.832,2.839
	v17.368h17.337c1.564,0,2.834,1.272,2.834,2.837v14.697c0,1.565-1.271,2.839-2.834,2.839h-17.337v17.366
	c0,1.565-1.27,2.839-2.832,2.839H443.283z"/>
<path style="fill:#FCDB67;" d="M135.283,374.846c4.139-4.128,9.641-6.401,15.494-6.401c0.473,0,0.938,0.039,1.405,0.068v-9.621
	c0-24.456,19.847-44.352,44.242-44.352h15.398v-6.079c-16.516-10.862-29.23-27.846-35.407-47.367h-5.566
	c-11.78,0-21.33-9.573-21.33-21.386c0-4.478,1.377-8.63,3.724-12.065h-11.688c-9.427,4.301-19.744,6.718-30.561,6.718
	s-21.135-2.416-30.563-6.718H54.405c-24.396,0-44.242,19.895-44.242,44.352v105.206c0,2.848,2.302,5.156,5.144,5.156h115.068
	C131.461,379.575,133.106,377.018,135.283,374.846z"/>
<g style="opacity:0.1;">
	<path d="M31,377.201V271.995c0-24.456,19.847-44.352,44.242-44.352H54.405c-24.396,0-44.242,19.895-44.242,44.352v105.206
		c0,2.848,2.302,5.156,5.144,5.156h20.837C33.302,382.357,31,380.049,31,377.201z"/>
</g>
<path style="fill:#FFB98A;" d="M110.994,234.361c-12.134,0-23.639-3.038-33.963-8.37l29.44,58.038c2.487,4.905,6.56,4.905,9.047,0
	l29.442-58.048C134.636,231.317,123.13,234.361,110.994,234.361z"/>
<path style="opacity:0.1;enable-background:new    ;" d="M77.031,225.991l29.44,58.038c2.487,4.905,6.56,4.905,9.047,0l5.859-11.551
	l-19.64-38.717C93.003,232.636,84.691,229.947,77.031,225.991z"/>
<path style="fill:#FFB98A;" d="M30.268,147.889v-16.268H28.83c-11.78,0-21.33,9.577-21.33,21.387c0,11.813,9.55,21.386,21.33,21.386
	h5.566C31.721,165.937,30.268,157.005,30.268,147.889z"/>
<path style="fill:#FFD5B3;" d="M153.874,199.891v-6.352c0-7.289,5.273-13.399,12.19-14.725
	c2.602-22.806,11.938-43.195,25.655-58.496v-0.753c0-45.524-36.143-76.819-80.725-76.819c-44.586,0-80.727,31.295-80.727,76.819
	v28.322c0,45.524,36.141,86.472,80.727,86.472c19.681,0,37.715-7.983,51.723-20.814
	C157.519,211.184,153.874,205.947,153.874,199.891z"/>
<g style="opacity:0.1;">
	<path d="M51,147.889v-28.322c0-41.935,30.674-71.774,70.359-76.222c-3.396-0.381-6.851-0.597-10.365-0.597
		c-44.586,0-80.727,31.295-80.727,76.819v28.322c0,45.524,36.141,86.472,80.727,86.472c3.512,0,6.972-0.255,10.365-0.746
		C81.671,227.879,51,189.826,51,147.889z"/>
</g>
<path style="fill:#FFFFFF;" d="M56.508,346.59c-1.563,0-2.836-1.273-2.836-2.839v-17.366H36.338c-1.564,0-2.833-1.274-2.833-2.839
	v-14.697c0-1.564,1.268-2.837,2.833-2.837h17.334v-17.369c0-1.565,1.273-2.839,2.836-2.839h14.671c1.563,0,2.832,1.274,2.832,2.839
	v17.369h17.337c1.563,0,2.833,1.272,2.833,2.837v14.697c0,1.565-1.27,2.839-2.833,2.839H74.011v17.366
	c0,1.566-1.269,2.839-2.832,2.839H56.508z"/>
<path style="fill:#48C1E1;" d="M309.602,314.54h-26.458c-9.311,4.179-19.478,6.521-30.13,6.521s-20.821-2.342-30.132-6.521h-26.457
	c-24.396,0-44.242,19.896-44.242,44.352v9.621c5.322,0.335,10.284,2.538,14.088,6.333l6.539,6.522l6.542-6.522
	c4.135-4.128,9.639-6.401,15.49-6.401c5.854,0,11.356,2.273,15.494,6.401c4.139,4.128,6.417,9.617,6.417,15.454
	c0,5.838-2.278,11.326-6.419,15.456l-34.545,34.205c-0.829,0.824-1.934,1.278-3.105,1.278c-1.178,0-2.286-0.458-3.12-1.288
	l-17.381-17.337v41.485c0,2.848,2.302,5.157,5.145,5.157H348.7c2.844,0,5.144-2.309,5.144-5.157V358.892
	C353.843,334.436,333.996,314.54,309.602,314.54z"/>
<g style="opacity:0.1;">
	<path d="M166.27,374.846l6.539,6.522l0.19-0.19v-22.286c0-24.456,19.847-44.352,44.242-44.352h-20.817
		c-24.396,0-44.242,19.896-44.242,44.352v9.621C157.505,368.848,162.467,371.051,166.27,374.846z"/>
	<path d="M173,464.098v-22.891c-0.106,0.008-0.209,0.031-0.316,0.031c-1.178,0-2.286-0.458-3.12-1.288l-17.381-17.337v41.485
		c0,2.848,2.302,5.157,5.145,5.157h20.817C175.302,469.254,173,466.945,173,464.098z"/>
</g>
<path style="fill:#FB8276;" d="M172.684,441.238c-1.178,0-2.286-0.458-3.12-1.288l-34.28-34.195
	c-4.133-4.123-6.408-9.612-6.408-15.456c0-5.841,2.275-11.331,6.408-15.454c4.139-4.128,9.641-6.401,15.494-6.401
	s11.355,2.273,15.493,6.401l6.539,6.522l6.542-6.522c4.135-4.128,9.639-6.401,15.49-6.401c5.854,0,11.356,2.273,15.494,6.401
	c4.139,4.128,6.417,9.617,6.417,15.454c0,5.838-2.278,11.326-6.419,15.456l-34.545,34.205
	C174.96,440.784,173.855,441.238,172.684,441.238z"/>
<g style="opacity:0.1;">
	<path d="M155.53,405.755c-4.133-4.123-6.408-9.612-6.408-15.456c0-5.841,2.275-11.331,6.408-15.454
		c1.604-1.6,3.416-2.912,5.37-3.93c-3.089-1.61-6.538-2.471-10.123-2.471c-5.854,0-11.355,2.273-15.494,6.401
		c-4.133,4.123-6.408,9.612-6.408,15.454c0,5.843,2.275,11.333,6.408,15.456l34.28,34.195c0.834,0.83,1.942,1.288,3.12,1.288
		c1.172,0,2.276-0.454,3.105-1.278l7.042-6.973L155.53,405.755z"/>
</g>
<g>
	<path style="fill:#FFB98A;" d="M172.287,234.589v-16.268h-1.438c-11.78,0-21.33,9.577-21.33,21.387
		c0,11.813,9.55,21.386,21.33,21.386h5.566C173.74,252.637,172.287,243.706,172.287,234.589z"/>
	<path style="fill:#FFB98A;" d="M335.169,218.321h-1.431v16.268c0,9.116-1.453,18.048-4.129,26.505h5.56
		c11.784,0,21.338-9.573,21.338-21.386C356.507,227.898,346.953,218.321,335.169,218.321z"/>
	<path style="fill:#FFB98A;" d="M253.014,321.061c-12.134,0-23.639-3.038-33.963-8.37l29.439,58.038
		c2.488,4.905,6.559,4.905,9.047,0l29.438-58.039C276.651,318.023,265.147,321.061,253.014,321.061z"/>
</g>
<path style="opacity:0.1;enable-background:new    ;" d="M219.051,312.691l29.439,58.038c2.488,4.905,6.559,4.905,9.047,0
	l5.85-11.532l-19.65-38.739C235.009,319.332,226.705,316.645,219.051,312.691z"/>
<path style="fill:#D5E962;" d="M253.014,91.809c7.72,0,15.204,1.143,22.336,3.28c6.209-6.641,10.092-16.005,10.092-26.374
	c0-2.267-1.833-4.104-4.092-4.104h-56.674c-2.261,0-4.093,1.837-4.093,4.104c0,10.369,3.883,19.733,10.093,26.374
	C237.809,92.952,245.294,91.809,253.014,91.809z"/>
<path style="opacity:0.1;enable-background:new    ;" d="M248.626,91.934c-4.664-6.308-7.484-14.395-7.484-23.219
	c0-2.267,1.832-4.104,4.093-4.104h-20.559c-2.261,0-4.093,1.837-4.093,4.104c0,10.369,3.883,19.733,10.093,26.374
	C236.449,93.359,242.453,92.281,248.626,91.934z"/>
<path style="fill:#FFD5B3;" d="M172.287,214.891v19.698c0,45.524,36.141,86.472,80.727,86.472c44.582,0,80.725-40.948,80.725-86.472
	v-19.698H172.287z"/>
<g style="opacity:0.1;">
	<path d="M193,234.589v-19.698h-20.713v19.698c0,45.524,36.141,86.472,80.727,86.472c3.509,0,6.965-0.255,10.355-0.744
		C223.676,314.586,193,276.53,193,234.589z"/>
</g>
<path style="fill:#89C947;" d="M168.874,178.54h168.277c0.96,0,1.897,0.1,2.81,0.275c-5.603-49.092-42.393-87.005-86.947-87.005
	c-44.557,0-81.348,37.914-86.95,87.005C166.976,178.64,167.913,178.54,168.874,178.54z"/>
<path style="opacity:0.1;enable-background:new    ;" d="M168.874,178.54h17.911c5.261-45.104,36.848-80.712,76.567-86.035
	c-3.392-0.455-6.841-0.696-10.339-0.696c-44.557,0-81.348,37.914-86.95,87.005C166.976,178.64,167.913,178.54,168.874,178.54z"/>
<path style="fill:#D5E962;" d="M352.151,199.891c0,8.25-6.75,15-15,15H168.874c-8.25,0-15-6.75-15-15v-6.352c0-8.25,6.75-15,15-15
	h168.277c8.25,0,15,6.75,15,15V199.891z"/>
<g style="opacity:0.1;">
	<path d="M174.723,199.891v-6.352c0-8.25,6.75-15,15-15h-20.849c-8.25,0-15,6.75-15,15v6.352c0,8.25,6.75,15,15,15h20.849
		C181.473,214.891,174.723,208.141,174.723,199.891z"/>
</g>
<path style="fill:#FFFFFF;" d="M292.068,433.123c-1.563,0-2.835-1.273-2.835-2.839v-17.366h-17.335
	c-1.564,0-2.833-1.274-2.833-2.839v-14.698c0-1.565,1.269-2.837,2.833-2.837h17.335v-17.369c0-1.564,1.272-2.838,2.835-2.838h14.671
	c1.563,0,2.832,1.274,2.832,2.838v17.369h17.337c1.564,0,2.833,1.272,2.833,2.837v14.697c0,1.566-1.27,2.839-2.833,2.839h-17.337
	v17.366c0,1.566-1.27,2.839-2.832,2.839h-14.671V433.123z"/>
<path d="M401.883,181.733h4.845c4.143,0,7.5-3.358,7.5-7.5s-3.357-7.5-7.5-7.5h-2.19v-12.898c0-4.142-3.357-7.5-7.5-7.5
	s-7.5,3.358-7.5,7.5v15.398C389.537,176.126,395.075,181.733,401.883,181.733z"/>
<path d="M360.607,145.635c-4.143,0-7.5,3.358-7.5,7.5v10.013c0,4.142,3.357,7.5,7.5,7.5s7.5-3.358,7.5-7.5v-10.013
	C368.107,148.993,364.75,145.635,360.607,145.635z"/>
<path d="M438.729,145.635c-4.143,0-7.5,3.358-7.5,7.5v10.013c0,4.142,3.357,7.5,7.5,7.5s7.5-3.358,7.5-7.5v-10.013
	C446.229,148.993,442.872,145.635,438.729,145.635z"/>
<path d="M420.913,186.344c-4.143,0-7.5,3.358-7.5,7.5c0,6.868-5.565,12.455-12.407,12.455c-6.84,0-12.405-5.587-12.405-12.455
	c0-4.142-3.357-7.5-7.5-7.5s-7.5,3.358-7.5,7.5c0,15.139,12.294,27.455,27.405,27.455c15.112,0,27.407-12.316,27.407-27.455
	C428.413,189.702,425.056,186.344,420.913,186.344z"/>
<path d="M457.595,220.143h-0.904c11.532-10.169,20.699-23.336,26.327-38.25h0.145c15.901,0,28.838-12.958,28.838-28.886
	c0-13.843-9.773-25.438-22.77-28.238v-5.203c0-48.07-37.929-84.319-88.225-84.319c-46.479,0-82.362,30.967-87.545,73.6
	c-7.825-7.288-16.694-13.192-26.313-17.382c3.673-6.64,5.793-14.426,5.793-22.751c0-6.398-5.2-11.604-11.592-11.604h-56.674
	c-6.393,0-11.593,5.205-11.593,11.604c0,8.325,2.121,16.112,5.794,22.751c-7.512,3.272-14.566,7.589-21.023,12.795
	c-7.115-40.249-42.065-69.014-86.859-69.014c-50.298,0-88.227,36.249-88.227,84.319v5.202C9.773,127.567,0,139.163,0,153.008
	c0,15.928,12.934,28.886,28.83,28.886h0.15c5.628,14.914,14.795,28.081,26.328,38.25h-0.903c-28.53,0-51.742,23.261-51.742,51.852
	v105.205c0,6.978,5.672,12.656,12.644,12.656H50c4.143,0,7.5-3.358,7.5-7.5s-3.357-7.5-7.5-7.5H17.663V271.995
	c0-20.32,16.482-36.852,36.742-36.852h18.858l26.519,52.278c2.51,4.949,6.597,7.787,11.213,7.787s8.703-2.838,11.212-7.786
	l20.666-40.744c3.121,12.571,14.479,21.916,27.977,21.916H171c5.664,15.011,14.917,28.25,26.555,38.446h-1.13
	c-28.53,0-51.742,23.261-51.742,51.852v2.686c-5.527,1.157-10.608,3.88-14.696,7.958c-1.63,1.626-3.038,3.414-4.224,5.321H90
	c-4.143,0-7.5,3.358-7.5,7.5s3.357,7.5,7.5,7.5h31.386c-0.002,0.148-0.011,0.294-0.011,0.442c0,7.851,3.059,15.225,8.611,20.766
	l14.696,14.66v38.373c0,6.979,5.672,12.657,12.645,12.657h191.372c6.972,0,12.644-5.678,12.644-12.657v-74.241H443
	c4.143,0,7.5-3.358,7.5-7.5s-3.357-7.5-7.5-7.5h-81.657v-15.965c0-28.591-23.211-51.852-51.741-51.852h-1.131
	c11.638-10.196,20.891-23.435,26.555-38.446h0.144c15.901,0,28.838-12.958,28.838-28.886c0-1.212-0.084-2.404-0.229-3.577
	l26.017,51.289c2.51,4.949,6.597,7.787,11.213,7.787c4.616,0,8.703-2.838,11.212-7.786l26.517-52.278h18.858
	c20.259,0,36.741,16.532,36.741,36.852v102.862H482c-4.143,0-7.5,3.358-7.5,7.5s3.357,7.5,7.5,7.5h14.692
	c6.972,0,12.643-5.678,12.643-12.656V271.995C509.336,243.404,486.125,220.143,457.595,220.143z M489.23,147.889v-7.342
	c4.593,2.262,7.77,6.991,7.77,12.461c0,6.148-4.006,11.367-9.533,13.189C488.62,160.255,489.23,154.132,489.23,147.889z
	 M438.782,73.39V59.585c21.555,11.79,35.448,33.736,35.448,59.981v1.925c-17.197-1.476-31.839-12.055-39.105-26.9
	C437.486,87.959,438.782,80.824,438.782,73.39z M327.78,119.566c0-39.518,31.48-69.319,73.226-69.319
	c8.043,0,15.698,1.117,22.827,3.185c-0.018,0.215-0.051,0.427-0.051,0.646v19.311c0,26.625-21.6,48.286-48.148,48.286H327.78
	V119.566z M228.254,72.111h49.517c-0.55,5.432-2.404,10.405-5.185,14.491c-6.319-1.498-12.865-2.293-19.572-2.293
	c-6.708,0-13.254,0.795-19.574,2.294C230.658,82.516,228.804,77.543,228.254,72.111z M253.014,99.309
	c38.011,0,69.9,30.697,78.108,71.731H237c-4.143,0-7.5,3.358-7.5,7.5s3.357,7.5,7.5,7.5h100.151c4.136,0,7.5,3.365,7.5,7.5v6.352
	c0,4.135-3.364,7.5-7.5,7.5H168.874c-4.136,0-7.5-3.365-7.5-7.5v-6.352c0-4.135,3.364-7.5,7.5-7.5H198c4.143,0,7.5-3.358,7.5-7.5
	s-3.357-7.5-7.5-7.5h-23.098C183.11,130.006,215.001,99.309,253.014,99.309z M15,153.008c0-5.472,3.176-10.201,7.768-12.462v7.343
	c0,6.244,0.61,12.368,1.764,18.31C19.006,164.378,15,159.157,15,153.008z M37.768,147.889v-28.322
	c0-39.518,31.48-69.319,73.227-69.319c41.07,0,72.182,28.852,73.178,67.418c-12.701,15.038-21.594,34.214-24.908,55.535
	c-7.611,3.611-12.89,11.369-12.89,20.339v6.352c0,5.137,1.734,9.875,4.644,13.667c-11.59,8.363-25.381,13.303-40.023,13.303
	C71.301,226.861,37.768,190.696,37.768,147.889z M110.995,276.367l-18.626-36.718c6.025,1.442,12.259,2.212,18.625,2.212
	s12.6-0.769,18.625-2.212L110.995,276.367z M157.02,239.709c0-5.472,3.176-10.201,7.768-12.462v7.343
	c0,6.244,0.61,12.368,1.764,18.31C161.025,251.079,157.02,245.858,157.02,239.709z M253.014,328.561c6.366,0,12.6-0.77,18.625-2.212
	l-18.625,36.719l-18.626-36.719C240.414,327.792,246.646,328.561,253.014,328.561z M136.375,390.299
	c0-3.836,1.493-7.439,4.205-10.144c2.723-2.716,6.344-4.211,10.197-4.211c3.854,0,7.475,1.496,10.197,4.212l6.539,6.521
	c2.928,2.919,7.665,2.92,10.591,0.001l6.546-6.525c2.719-2.714,6.338-4.209,10.191-4.209s7.476,1.496,10.198,4.212
	c2.717,2.709,4.213,6.311,4.213,10.143s-1.497,7.435-4.196,10.126l-32.367,32.049l-32.109-32.029
	C137.868,397.74,136.375,394.137,136.375,390.299z M346.343,358.892v102.863h-186.66v-21.068l4.59,4.579
	c2.25,2.239,5.237,3.473,8.411,3.473c3.167,0,6.148-1.228,8.383-3.448l34.563-34.224c5.561-5.546,8.623-12.921,8.623-20.766
	s-3.061-15.22-8.62-20.763c-5.554-5.541-12.938-8.592-20.791-8.592c-7.855,0-15.238,3.052-20.785,8.59l-1.246,1.242l-1.243-1.24
	c-3.384-3.376-7.45-5.822-11.885-7.222v-3.422c0-20.32,16.482-36.852,36.742-36.852h18.958l26.419,52.083
	c2.51,4.948,6.597,7.786,11.212,7.786c4.615,0,8.702-2.838,11.212-7.786l26.417-52.082h18.959
	C329.86,322.04,346.343,338.572,346.343,358.892z M253.014,313.561c-39.693,0-73.227-36.165-73.227-78.972v-12.198h146.451v12.198
	C326.238,277.397,292.705,313.561,253.014,313.561z M339.475,252.897c1.153-5.941,1.764-12.064,1.764-18.308v-7.342
	c4.592,2.262,7.768,6.99,7.768,12.461C349.007,245.856,345.001,251.075,339.475,252.897z M401.007,276.367l-18.626-36.719
	c6.025,1.443,12.258,2.212,18.625,2.212s12.6-0.77,18.626-2.212L401.007,276.367z M401.006,226.861
	c-16.36,0-31.655-6.167-44.004-16.391c1.688-3.155,2.649-6.756,2.649-10.579v-6.352c0-8.971-5.278-16.729-12.891-20.34
	c-2.044-13.146-6.21-25.476-12.08-36.524h40.953c21.154,0,39.898-10.489,51.363-26.539c10.71,14.998,27.783,25.134,47.233,26.402
	v11.351C474.23,190.696,440.697,226.861,401.006,226.861z"/>
<path d="M488.457,321.4v-14.697c0-5.7-4.636-10.337-10.334-10.337h-9.837v-9.868c0-5.701-4.635-10.339-10.332-10.339h-14.671
	c-5.698,0-10.335,4.638-10.335,10.339v9.868h-9.835c-5.697,0-10.333,4.637-10.333,10.337V321.4c0,5.701,4.636,10.339,10.333,10.339
	h9.835v9.866c0,5.701,4.637,10.339,10.335,10.339h14.671c5.697,0,10.332-4.638,10.332-10.339v-9.866h9.837
	C483.821,331.74,488.457,327.102,488.457,321.4z M473.457,316.74h-12.671c-4.143,0-7.5,3.358-7.5,7.5v12.705h-5.338V324.24
	c0-4.142-3.357-7.5-7.5-7.5H427.78v-5.374h12.668c4.143,0,7.5-3.358,7.5-7.5v-12.707h5.338v12.707c0,4.142,3.357,7.5,7.5,7.5h12.671
	V316.74z"/>
<path d="M111.87,167.935h4.846c4.143,0,7.5-3.358,7.5-7.5s-3.357-7.5-7.5-7.5h-2.191v-12.898c0-4.142-3.357-7.5-7.5-7.5
	s-7.5,3.358-7.5,7.5v15.398C99.524,162.328,105.063,167.935,111.87,167.935z"/>
<path d="M70.596,156.85c4.143,0,7.5-3.358,7.5-7.5v-10.012c0-4.142-3.357-7.5-7.5-7.5s-7.5,3.358-7.5,7.5v10.012
	C63.096,153.492,66.453,156.85,70.596,156.85z"/>
<path d="M148.717,156.85c4.143,0,7.5-3.358,7.5-7.5v-10.012c0-4.142-3.357-7.5-7.5-7.5s-7.5,3.358-7.5,7.5v10.012
	C141.217,153.492,144.574,156.85,148.717,156.85z"/>
<path d="M110.994,207.501c15.112,0,27.406-12.316,27.406-27.456c0-4.142-3.357-7.5-7.5-7.5c-4.143,0-7.5,3.358-7.5,7.5
	c0,6.868-5.565,12.456-12.406,12.456c-6.841,0-12.406-5.587-12.406-12.456c0-4.142-3.357-7.5-7.5-7.5s-7.5,3.358-7.5,7.5
	C83.588,195.185,95.882,207.501,110.994,207.501z"/>
<path d="M101.681,323.546v-14.697c0-5.7-4.636-10.337-10.333-10.337h-9.837v-9.869c0-5.701-4.635-10.339-10.332-10.339H56.508
	c-5.699,0-10.336,4.638-10.336,10.339v9.869h-9.834c-5.697,0-10.333,4.637-10.333,10.337v14.697c0,5.701,4.636,10.339,10.333,10.339
	h9.834v9.866c0,5.701,4.637,10.339,10.336,10.339h14.671c5.697,0,10.332-4.638,10.332-10.339v-9.866h9.837
	C97.045,333.885,101.681,329.247,101.681,323.546z M86.681,318.885h-12.67c-4.142,0-7.5,3.358-7.5,7.5v12.705h-5.339v-12.705
	c0-4.142-3.357-7.5-7.5-7.5H41.005v-5.373h12.667c4.143,0,7.5-3.358,7.5-7.5v-12.707h5.339v12.707c0,4.142,3.358,7.5,7.5,7.5h12.67
	V318.885z"/>
<path d="M231.358,232.345c-2.934-2.926-7.683-2.919-10.606,0.013c-2.439,2.445-5.676,3.792-9.115,3.792
	c-3.439,0-6.675-1.347-9.112-3.791c-2.926-2.933-7.675-2.939-10.606-0.014c-2.934,2.925-2.939,7.674-0.015,10.606
	c5.272,5.287,12.281,8.198,19.733,8.198h0.001c7.452,0,14.461-2.912,19.733-8.198C234.297,240.019,234.291,235.27,231.358,232.345z"
	/>
<path d="M298.489,232.357c-2.439,2.445-5.677,3.792-9.115,3.792h-0.001c-3.438-0.001-6.675-1.347-9.113-3.792
	c-2.924-2.932-7.673-2.938-10.607-0.013c-2.933,2.925-2.938,7.674-0.013,10.607c5.272,5.286,12.28,8.197,19.732,8.198
	c0.001,0,0.001,0,0.001,0c7.452,0,14.461-2.912,19.735-8.197c2.926-2.932,2.92-7.681-0.013-10.607
	C306.163,229.42,301.414,229.424,298.489,232.357z"/>
<path d="M255.35,271.465h4.846c4.143,0,7.5-3.358,7.5-7.5s-3.357-7.5-7.5-7.5h-2.191v-12.898c0-4.142-3.357-7.5-7.5-7.5
	s-7.5,3.358-7.5,7.5v15.398C243.004,265.857,248.542,271.465,255.35,271.465z"/>
<path d="M271.185,280.121c-4.86,4.873-11.315,7.556-18.174,7.556c-6.858-0.001-13.312-2.684-18.17-7.555
	c-2.926-2.934-7.675-2.939-10.606-0.014c-2.934,2.925-2.939,7.674-0.015,10.607c7.693,7.714,17.918,11.962,28.79,11.962
	c0,0,0.001,0,0.002,0c10.872,0,21.098-4.248,28.792-11.962c2.926-2.933,2.92-7.682-0.013-10.607S274.109,277.189,271.185,280.121z"
	/>
<path d="M281.733,375.175v9.869h-9.835c-5.697,0-10.333,4.637-10.333,10.337v14.697c0,5.701,4.636,10.339,10.333,10.339h9.835v9.866
	c0,5.701,4.637,10.339,10.335,10.339h14.671c5.697,0,10.332-4.638,10.332-10.339v-9.866h9.837c5.697,0,10.333-4.638,10.333-10.339
	v-14.697c0-5.7-4.636-10.337-10.333-10.337h-9.837v-9.869c0-5.701-4.635-10.338-10.332-10.338h-14.671
	C286.37,364.837,281.733,369.475,281.733,375.175z M296.733,392.544v-12.707h5.338v12.707c0,4.142,3.357,7.5,7.5,7.5h12.67v5.374
	h-12.67c-4.143,0-7.5,3.358-7.5,7.5v12.705h-5.338v-12.705c0-4.142-3.357-7.5-7.5-7.5h-12.668v-5.374h12.668
	C293.376,400.044,296.733,396.686,296.733,392.544z"/>
<g>
</g>
<g>
</g>
<g>
</g>
<g>
</g>
<g>
</g>
<g>
</g>
<g>
</g>
<g>
</g>
<g>
</g>
<g>
</g>
<g>
</g>
<g>
</g>
<g>
</g>
<g>
</g>
<g>
</g>
</svg>
