<svg id="Capa_1" enable-background="new 0 0 512 512" height="512" viewBox="0 0 512 512" width="512" xmlns="http://www.w3.org/2000/svg"><g><g><g><ellipse cx="366.287" cy="196.445" fill="#3f5959" rx="37.166" ry="42.106"/><g><g><g><g><g><path d="m209.464 485.56v-76.42c0-11.684-3.129-23.167-9.117-33.199-21.304-35.695-54.532-54.766-91.865-54.766s-70.561 19.07-91.865 54.766c-5.988 10.032-9.117 21.515-9.117 33.199v76.421h201.964z" fill="#eff5f6"/><path d="m209.464 409.14v76.42h-27.03v-76.42c0-11.68-3.13-23.17-9.12-33.2-18.69-31.32-46.57-49.84-78.34-53.9 4.43-.57 8.94-.86 13.51-.86 37.33 0 70.56 19.07 91.86 54.76 5.99 10.03 9.12 21.52 9.12 33.2z" fill="#deecf0"/><path d="m126.999 283.87v43.912c0 10.224-8.292 18.517-18.516 18.517-10.232 0-18.524-8.292-18.524-18.517v-43.912z" fill="#fdb0a0"/><g><g fill="#fdb0a0"><circle cx="163.122" cy="245.073" r="19.757"/><circle cx="53.842" cy="245.073" r="19.757"/></g></g></g></g><g><path d="m160.37 216.106v37.479c0 28.616-22.883 52.323-51.499 52.538-28.838.208-52.282-23.098-52.282-51.887v-38.13c0-28.658 23.236-51.887 51.894-51.887 14.332 0 27.301 5.809 36.689 15.198 9.389 9.395 15.198 22.364 15.198 36.689z" fill="#ffcec0"/></g></g></g><g><g><g><g><path d="m504.5 485.56v-76.42c0-11.684-3.129-23.167-9.117-33.199-21.304-35.695-54.532-54.766-91.865-54.766s-70.561 19.07-91.865 54.766c-5.988 10.033-9.117 21.516-9.117 33.199v76.421h201.964z" fill="#fcb44d"/><path d="m504.5 409.14v76.42h-27.03v-76.42c0-11.68-3.13-23.17-9.12-33.2-18.69-31.32-46.57-49.84-78.34-53.9 4.43-.57 8.94-.86 13.51-.86 37.33 0 70.56 19.07 91.86 54.76 5.99 10.03 9.12 21.52 9.12 33.2z" fill="#fb9927"/><path d="m422.035 283.87v43.912c0 10.224-8.292 18.517-18.516 18.517-10.232 0-18.524-8.292-18.524-18.517v-43.912z" fill="#fdb0a0"/><g><g fill="#fdb0a0"><circle cx="458.158" cy="245.073" r="19.757"/><circle cx="348.878" cy="245.073" r="19.757"/></g></g></g></g><g><path d="m455.406 216.106v37.479c0 28.616-22.883 52.323-51.499 52.538-28.838.208-52.282-23.098-52.282-51.887v-38.13c0-28.658 23.236-51.887 51.894-51.887 14.332 0 27.301 5.809 36.689 15.198 9.389 9.395 15.198 22.364 15.198 36.689z" fill="#ffcec0"/></g></g></g></g><path d="m464.107 163.482c6.161-5.643 9.094-11.711 7.362-16.961-3.579-10.853-85.852-26.31-105.634 10.737-10.078 18.873 15.072 52.64 43.686 61.277s57.414-.643 64.327-20.727c3.962-11.513-.138-24.072-9.741-34.326z" fill="#557983"/><path d="m473.85 197.81c-6.92 20.08-35.72 29.36-64.33 20.73-1.97-.59-3.92-1.31-5.85-2.13 21.92 1.15 41.06-7.98 46.53-23.86 3.316-9.64.98-20.016-5.507-29.155-2.132-3.004-2.061-6.975.122-9.942 3.073-4.177 4.254-8.391 3.005-12.183-.69-2.1-4.31-4.36-9.85-6.39 17.8 2.13 32.05 7.27 33.5 11.64 1.73 5.25-1.2 11.32-7.36 16.96 9.6 10.26 13.7 22.82 9.74 34.33z" fill="#3f5959"/><g><path d="m182.979 184.829c-4.066-23.947-17.465-35.698-30.922-41.387-6.322-2.673-13.164-3.896-20.028-3.896h-47.094c-6.864 0-13.705 1.223-20.028 3.896-13.457 5.689-26.855 17.44-30.922 41.387-8.494 50.021 66.229 25.734 74.497 22.903 8.268 2.831 82.991 27.118 74.497-22.903z" fill="#fde784"/><path d="m139.83 215.18c13.28-2.51 22.8-10.69 19.46-30.35-4.07-23.95-17.47-35.7-30.92-41.39-6.32-2.67-13.17-3.89-20.03-3.89h23.69c6.86 0 13.7 1.22 20.03 3.89 13.45 5.69 26.85 17.44 30.92 41.39 5.16 30.41-20.43 33.35-43.15 30.35z" fill="#fdd330"/></g><path d="m82.954 403.733v17.593c0 2.761 2.239 5 5 5h41.056c2.761 0 5-2.239 5-5v-17.593c0-2.761-2.239-5-5-5h-41.056c-2.761 0-5 2.238-5 5z" fill="#fb4a59"/></g><g><g><path d="m247.65 162.629c-5.345 0-10.69-2.038-14.768-6.117l-39.191-39.191c-4.986-4.986-4.986-13.07 0-18.056l11.48-11.48c4.986-4.986 13.07-4.986 18.056 0l24.423 24.423 82.041-82.039c4.986-4.986 13.07-4.986 18.056 0l11.48 11.48c4.986 4.986 4.986 13.07 0 18.056l-96.808 96.807c-4.079 4.077-9.425 6.117-14.769 6.117z" fill="#27e19d"/></g><g><path d="m359.225 59.7-96.805 96.816c-4.084 4.073-9.426 6.11-14.768 6.11s-10.695-2.037-14.768-6.11l-14.885-14.885c4.084 4.073 9.426 6.12 14.768 6.12s10.695-2.047 14.768-6.12l96.805-96.805c4.404-4.404 4.926-11.228 1.535-16.197.661.437 1.29.949 1.877 1.536l11.473 11.484c4.99 4.99 4.99 13.072 0 18.051z" fill="#1ec186"/></g></g></g><g><path d="m209.464 457.43c-4.142 0-7.5 3.357-7.5 7.5v20.63c0 4.143 3.358 7.5 7.5 7.5s7.5-3.357 7.5-7.5v-20.63c0-4.142-3.358-7.5-7.5-7.5z"/><path d="m134.501 316.704v-9.178c14.281-7.088 25.357-19.816 30.393-35.255 14.206-.918 25.485-12.761 25.485-27.196 0-11.26-6.949-21.006-16.78-25.138 2.352-.998 4.558-2.216 6.551-3.714 5.369-4.036 11.623-11.852 10.932-26.169-.2-4.138-3.729-7.341-7.853-7.13-4.138.199-7.33 3.716-7.13 7.853.406 8.412-2.638 11.708-4.963 13.456-9.869 7.418-34.503 4.349-55.156-1.959v-19.449c0-6.215 5.056-11.271 11.271-11.271 4.142 0 7.5-3.357 7.5-7.5s-3.358-7.5-7.5-7.5c-4.032 0-7.853.915-11.271 2.545v-12.054h16.047c6.165 0 11.921 1.111 17.108 3.305 6.37 2.692 11.715 6.544 15.888 11.448 2.685 3.153 7.418 3.536 10.573.852 3.154-2.684 3.536-7.417.852-10.572-5.703-6.702-12.927-11.933-21.472-15.544-7.045-2.979-14.766-4.488-22.948-4.488h-47.093c-8.182 0-15.903 1.51-22.949 4.488-13.47 5.695-30.545 18.479-35.395 47.039-2.949 17.368 3.215 26.781 8.906 31.619 2.322 1.974 4.963 3.539 7.834 4.758-9.81 4.14-16.741 13.877-16.741 25.125 0 14.369 11.173 26.169 25.284 27.181 2.858 9.015 7.859 17.269 14.768 24.127 4.699 4.665 10.043 8.435 15.82 11.256v9.061c-29.925 7.121-54.868 26.213-72.286 55.396-6.657 11.157-10.176 23.965-10.176 37.043v76.421c0 4.143 3.358 7.5 7.5 7.5s7.5-3.357 7.5-7.5v-76.421c0-10.372 2.786-20.523 8.057-29.355 14.666-24.573 35.242-40.95 59.77-47.689 2.063 12.3 12.779 21.703 25.655 21.703 12.878 0 23.594-9.406 25.656-21.707 24.529 6.743 45.114 23.14 59.769 47.694 5.271 8.832 8.058 18.983 8.058 29.355v19.864c0 4.143 3.358 7.5 7.5 7.5s7.5-3.357 7.5-7.5v-19.864c0-13.078-3.519-25.887-10.177-37.043-17.402-29.157-42.361-48.263-72.287-55.393zm33.299-60.302c.043-.935.071-1.874.071-2.819v-19.792c4.401 1.866 7.509 6.236 7.509 11.284 0 5.102-3.136 9.484-7.58 11.327zm-66.818-73.577v19.451c-21.245 6.502-46.332 9.512-55.77 1.488-1.477-1.256-5.973-5.077-3.833-17.679 2.981-17.552 11.879-29.575 26.448-35.734 5.187-2.193 10.943-3.305 17.107-3.305h16.047v12.054c-3.429-1.632-7.254-2.546-11.271-2.546-4.142 0-7.5 3.357-7.5 7.5s3.358 7.5 7.5 7.5c5.699 0 10.59 5.629 11.272 11.271zm-59.392 62.25c0-5.049 3.106-9.418 7.503-11.284v20.444c0 .723.027 1.442.053 2.161-4.432-1.848-7.556-6.225-7.556-11.321zm22.503-21.459c16.903-.001 35.303-5.021 44.39-7.978 9.108 2.962 27.327 8.066 44.389 7.975v29.969c0 24.656-19.762 44.861-44.054 45.039-.113.001-.224.001-.336.001-11.799 0-22.894-4.568-31.271-12.885-8.459-8.396-13.117-19.585-13.117-31.504v-30.617zm44.389 115.182c-6.076 0-11.02-4.943-11.02-11.02v-15.18c3.596.671 7.278 1.025 11.016 1.025.149 0 .3 0 .45-.001 3.611-.026 7.141-.4 10.574-1.057v15.213c-.001 6.076-4.944 11.02-11.02 11.02z"/><path d="m84.793 234.991h-.072c-4.142 0-7.464 3.357-7.464 7.5s3.394 7.5 7.536 7.5 7.5-3.357 7.5-7.5-3.358-7.5-7.5-7.5z"/><path d="m132.244 249.991h.004s.003 0 .004 0c4.142 0 7.5-3.357 7.5-7.5s-3.358-7.5-7.5-7.5h-.008-.064-.008c-4.142 0-7.464 3.357-7.464 7.5s3.394 7.5 7.536 7.5z"/><path d="m501.823 372.096c-17.401-29.156-42.36-48.262-72.285-55.392v-9.179c14.28-7.088 25.357-19.816 30.393-35.254 14.203-.917 25.479-12.76 25.479-27.196 0-12.102-8.022-22.459-19.023-25.972 6.948-4.889 11.957-11.312 14.553-18.853 4.108-11.936 1.59-24.939-6.874-36.5 6.582-8.522 5.804-15.702 4.526-19.577-4.325-13.117-37.957-16.662-44.654-17.239-15.862-1.367-52.295-1.794-70.159 19.988-23.466 1.45-42.158 23.105-42.158 49.524 0 10.51 2.963 20.594 8.418 28.994-5.179 4.973-8.419 11.95-8.419 19.636 0 14.368 11.176 26.167 25.29 27.181 2.858 9.015 7.86 17.269 14.769 24.128 4.699 4.665 10.042 8.435 15.82 11.256v9.065c-29.925 7.13-54.885 26.238-72.286 55.392-6.658 11.156-10.177 23.965-10.177 37.043v76.421c0 4.143 3.358 7.5 7.5 7.5s7.5-3.357 7.5-7.5v-13.869h26.808v13.657c0 4.143 3.358 7.5 7.5 7.5s7.5-3.357 7.5-7.5v-13.657h103.766v13.657c0 4.143 3.358 7.5 7.5 7.5s7.5-3.357 7.5-7.5v-13.657h26.39v13.869c0 4.143 3.358 7.5 7.5 7.5s7.5-3.357 7.5-7.5v-76.421c0-13.08-3.519-25.888-10.177-37.045zm-38.713 47.292c-4.142 0-7.5 3.357-7.5 7.5v5.093h-103.766v-5.093c0-4.143-3.358-7.5-7.5-7.5s-7.5 3.357-7.5 7.5v5.093h-26.808v-22.842c0-.293.01-.585.015-.877h186.934c.004.292.015.584.015.877v22.842h-26.39v-5.093c0-4.142-3.358-7.5-7.5-7.5zm27.886-35.835c1.553 3.116 2.812 6.367 3.77 9.709h-182.496c.958-3.342 2.218-6.593 3.77-9.709zm-20.586-138.478c0 5.103-3.133 9.484-7.574 11.327.043-.935.071-1.874.071-2.819v-19.792c4.397 1.866 7.503 6.235 7.503 11.284zm-64.785-102.604c5.275-.774 10.58-1.104 15.739-1.104 20.55 0 38.74 5.224 43.087 8.299-.042 1.808-1.634 4.826-5.41 8.285-1.478 1.353-2.352 3.241-2.429 5.243s.651 3.951 2.021 5.414c8.055 8.602 11.016 18.354 8.123 26.758-5.511 16.013-30.726 23.335-55.068 15.988-15.942-4.813-32.045-19.22-38.291-34.258-2.724-6.559-3.06-12.35-.947-16.307 6.44-12.059 21.595-16.617 33.175-18.318zm-69.004 53.974c0-14.952 8.172-27.717 19.578-32.543-.428 4.442.127 9.225 1.655 14.234-8.87 10.653-13.725 24.031-13.725 37.974v2.136c-.254.045-.506.093-.758.145-4.368-6.182-6.75-13.863-6.75-21.946zm-.001 48.63c0-5.051 3.109-9.422 7.509-11.287v20.446c0 .723.027 1.442.053 2.161-4.435-1.847-7.562-6.224-7.562-11.32zm22.509 9.159v-38.125c0-8.014 2.156-15.772 6.161-22.551 9.719 14.732 25.713 27.222 42.064 32.156 7.853 2.371 15.867 3.558 23.648 3.558 5.824 0 11.511-.676 16.906-2.007v26.318c0 24.656-19.763 44.861-44.054 45.039-11.95.059-23.149-4.488-31.607-12.884-8.46-8.396-13.118-19.585-13.118-31.504zm44.385 59.389c.149 0 .3 0 .45-.001 3.611-.026 7.141-.4 10.574-1.057v15.213c0 6.076-4.943 11.02-11.02 11.02s-11.02-4.943-11.02-11.02v-15.18c3.597.671 7.278 1.025 11.016 1.025zm-25.652 18.466c2.061 12.302 12.778 21.708 25.656 21.708s23.594-9.406 25.656-21.708c20.573 5.655 38.371 18.107 52.224 36.463h-155.759c13.852-18.354 31.65-30.806 52.223-36.463zm-67.826 124.602v-9.71h26.808v9.71zm41.808 0v-9.71h103.766v9.71zm118.766 0v-9.71h26.39v9.71z"/><path d="m379.829 234.991h-.072c-4.142 0-7.464 3.357-7.464 7.5s3.394 7.5 7.536 7.5 7.5-3.357 7.5-7.5-3.358-7.5-7.5-7.5z"/><path d="m427.28 249.991h.004s.003 0 .004 0c4.142 0 7.5-3.357 7.5-7.5s-3.358-7.5-7.5-7.5h-.008-.064-.007c-4.142 0-7.464 3.357-7.464 7.5s3.393 7.5 7.535 7.5z"/><path d="m299.266 328.822c1.464 1.464 3.384 2.196 5.303 2.196s3.839-.732 5.303-2.196l13.759-13.759c1.407-1.407 2.197-3.314 2.197-5.304s-.791-3.897-2.197-5.304l-13.759-13.758c-2.93-2.928-7.677-2.929-10.607.001-2.929 2.929-2.928 7.678 0 10.606l.954.954h-88.44l.954-.954c2.929-2.929 2.929-7.678 0-10.606-2.93-2.93-7.678-2.929-10.607-.001l-13.759 13.758c-1.406 1.406-2.197 3.314-2.197 5.304s.79 3.896 2.197 5.304l13.759 13.759c1.464 1.464 3.384 2.196 5.303 2.196s3.839-.732 5.303-2.196c2.929-2.93 2.929-7.678 0-10.607l-.955-.955h88.441l-.955.955c-2.927 2.929-2.927 7.677.003 10.607z"/><path d="m49.099 419.388c-4.142 0-7.5 3.357-7.5 7.5v58.46c0 4.143 3.358 7.5 7.5 7.5s7.5-3.357 7.5-7.5v-58.46c0-4.142-3.358-7.5-7.5-7.5z"/><path d="m167.865 419.388c-4.142 0-7.5 3.357-7.5 7.5v58.46c0 4.143 3.358 7.5 7.5 7.5s7.5-3.357 7.5-7.5v-58.46c0-4.142-3.358-7.5-7.5-7.5z"/><path d="m129.01 391.233h-41.056c-6.893 0-12.5 5.607-12.5 12.5v17.593c0 6.893 5.607 12.5 12.5 12.5h41.056c6.893 0 12.5-5.607 12.5-12.5v-17.593c0-6.892-5.607-12.5-12.5-12.5zm-2.5 27.593h-36.056v-12.593h36.056z"/><path d="m227.579 161.814c5.36 5.361 12.488 8.314 20.072 8.314 7.581 0 14.709-2.952 20.071-8.313l34.746-34.746c2.929-2.93 2.929-7.678 0-10.607-2.929-2.928-7.678-2.928-10.606 0l-34.746 34.746c-2.528 2.528-5.89 3.921-9.464 3.921-3.576 0-6.937-1.392-9.464-3.921l-39.191-39.191c-.995-.994-1.542-2.316-1.542-3.724s.548-2.73 1.542-3.725l11.479-11.479c.995-.995 2.318-1.543 3.725-1.543s2.729.548 3.725 1.543l24.423 24.423c2.929 2.928 7.678 2.928 10.606 0l82.041-82.039c2.054-2.054 5.396-2.056 7.449 0l11.479 11.479c.995.995 1.543 2.318 1.543 3.726s-.548 2.729-1.542 3.724l-36.658 36.658c-2.929 2.93-2.929 7.678 0 10.607 2.929 2.928 7.678 2.928 10.606 0l36.658-36.658c3.828-3.828 5.936-8.917 5.936-14.331s-2.108-10.503-5.936-14.332l-11.481-11.481c-7.902-7.9-20.76-7.9-28.662 0l-76.737 76.736-19.12-19.12c-7.902-7.902-20.76-7.902-28.663 0l-11.48 11.48c-3.828 3.828-5.936 8.917-5.936 14.331s2.108 10.503 5.936 14.331z"/><path d="m298.127 277.316c4.142 0 7.5-3.357 7.5-7.5v-38.573c0-2.933-1.709-5.596-4.375-6.817-2.666-1.225-5.799-.778-8.021 1.135l-12.353 10.641-12.352-10.641c-2.221-1.912-5.355-2.358-8.021-1.135-2.666 1.222-4.375 3.885-4.375 6.817v38.573c0 4.143 3.358 7.5 7.5 7.5s7.5-3.357 7.5-7.5v-22.213l4.852 4.18c2.813 2.424 6.977 2.422 9.79 0l4.853-4.181v22.214c.002 4.143 3.36 7.5 7.502 7.5z"/><path d="m209.309 264.945c-1.901 2.226-2.333 5.353-1.108 8.011s3.884 4.36 6.811 4.36h23.088c4.142 0 7.5-3.357 7.5-7.5s-3.358-7.5-7.5-7.5h-6.818l9.857-11.54c4.633-5.424 5.037-13.224.98-18.967-3.567-5.051-9.385-8.066-15.563-8.066-8.407 0-15.924 5.632-18.281 13.696-1.162 3.976 1.119 8.141 5.095 9.303 3.977 1.161 8.141-1.12 9.303-5.096.5-1.709 2.097-2.903 3.883-2.903 1.332 0 2.539.627 3.311 1.72.064.09.044.364-.133.571z"/></g></g></svg>