<svg id="Layer_2" enable-background="new 0 0 64 64" height="512" viewBox="0 0 64 64" width="512" xmlns="http://www.w3.org/2000/svg"><g><g><g><path d="m60 22.46v35.54c0 2.21-1.79 4-4 4h-48c-2.21 0-4-1.79-4-4v-35.54c.6.35 1.28.54 2 .54.58 0 1.14-.12 1.68-.37l.32-.15v31.37 2.15h6 6 6 12 6 6 6v-2.15-31.37l.33.15c.52.25 1.09.37 1.67.37.72 0 1.4-.2 2-.54z" fill="#ffeaa7"/></g><g><path d="m4 22.46c-.7-.4-1.28-1.02-1.63-1.79-.45-.96-.49-2.05-.12-3.05.37-1.01 1.1-1.8 2.08-2.25l25.99-12c.52-.24 1.1-.37 1.68-.37s1.16.13 1.68.37l26 12c.97.45 1.7 1.24 2.07 2.25.37 1 .33 2.09-.12 3.06-.35.76-.93 1.37-1.63 1.78-.6.34-1.28.54-2 .54-.58 0-1.15-.12-1.67-.37l-.33-.15-24-11.07-24 11.07-.32.15c-.54.25-1.1.37-1.68.37-.72 0-1.4-.19-2-.54z" fill="#ef7385"/></g><g><path d="m32 11.41-24 11.07v31.37h48v-31.37z" fill="#e6e9ed"/></g><g><path d="m37 30-4.03-.58c-1.17-.17-2.14-.91-2.63-1.92l-3.34 2.5h-1c-.53 0-1.01.2-1.36.54l-.16-.61-.32-1.29c-.11-.43-.16-.86-.16-1.3 0-1.48.6-2.81 1.56-3.78.14-.14.29-.27.44-.39.91-.73 2.07-1.17 3.34-1.17h9.66c.26 0 .5.1.68.26.2.19.32.45.32.74v2.84c0 1.39-.15 2.78-.45 4.14-.04.21-.09.41-.14.61-.36-.37-.86-.59-1.41-.59z" fill="#fcd770"/></g><g><path d="m44.72 28.17c-.75.45-2.91 1.63-5.17 1.81.3-1.36.45-2.75.45-4.14v-2.84c0-.29-.12-.55-.32-.74.52-.17 1.08-.26 1.66-.26h5.32c2.95 0 5.34 2.39 5.34 5.34 0 .44-.05.87-.16 1.3l-.47 1.9-.01.01c-.35-.35-.83-.55-1.36-.55h-1l-2.06-.41c-.92-.18-1.7-.7-2.22-1.42z" fill="#b27946"/></g><g><path d="m18.86 27.68-3.86 2.32h-1c-.53 0-1.01.2-1.36.55l-.01-.01-.47-1.9c-.11-.43-.16-.86-.16-1.3 0-2.95 2.39-5.34 5.34-5.34h5.32c1.26 0 2.42.44 3.34 1.17-.15.12-.3.25-.44.39-.96.97-1.56 2.3-1.56 3.78 0 .44.05.87.16 1.3l.32 1.29-2.52-.36c-1.29-.19-2.39-.89-3.1-1.89z" fill="#b27946"/></g><g><path d="m50 56h-6v-2.15c0-2.99-.88-5.85-2.45-8.26-.93-1.43-2.1-2.7-3.46-3.73-.03-.04-.07-.07-.1-.08l.01-.01c.92-.69 1.92-1.29 3-1.77l.11.21c.27.55.99 1 1.65 1.31.65.31 1.24.48 1.24.48s2.35-.69 2.89-1.79l.11-.21c5.47 2.43 9 7.86 9 13.85v2.15z" fill="#5cd6b3"/></g><g><path d="m51.41 30.59c.37.36.59.86.59 1.41 0 1.1-.9 2-2 2h-1.5l.5-4h1c.53 0 1.01.2 1.36.55.02.01.03.02.05.04z" fill="#f0d0b4"/></g><g><path d="m49 30-.5 4-.28 2.25c-.13 1-.98 1.75-1.99 1.75h-.23-4-.23c-1.01 0-1.86-.75-1.99-1.75l-.35-2.85-.01-.01c.37-.36.58-.85.58-1.39 0-.55-.22-1.05-.59-1.41.05-.2.1-.4.14-.61 2.26-.18 4.42-1.36 5.17-1.81.52.72 1.3 1.24 2.22 1.42z" fill="#f0d0b4"/></g><g><path d="m46 38 1 2-.11.21c-.54 1.1-2.89 1.79-2.89 1.79s-.59-.17-1.24-.48c-.66-.31-1.38-.76-1.65-1.31l-.11-.21 1-2z" fill="#f0d0b4"/></g><g><path d="m38 56h-12-6v-2.15c0-4.77 2.24-9.18 5.91-11.99l2.09 3.14 4-3 4 3 2.09-3.14c1.36 1.03 2.53 2.3 3.46 3.73 1.57 2.41 2.45 5.27 2.45 8.26v2.15z" fill="#ef7385"/></g><g><path d="m39.41 30.59c.37.36.59.86.59 1.41 0 .54-.21 1.03-.58 1.39-.35.38-.86.61-1.42.61h-1.5l.5-4h1c.55 0 1.05.22 1.41.59z" fill="#f0d0b4"/></g><g><path d="m37.99 41.78c.03.01.07.04.1.08l-2.09 3.14-4-3 3-2c1.08.48 2.08 1.07 2.99 1.78z" fill="#e6e9ed"/></g><g><path d="m37 30-.5 4-.28 2.25c-.13 1-.98 1.75-1.99 1.75h-.23-4-.23c-1.01 0-1.86-.75-1.99-1.75l-.28-2.25-.5-4 3.34-2.5c.49 1.01 1.46 1.75 2.63 1.92z" fill="#f0d0b4"/></g><g><path d="m34 38 1 2-3 2-3-2 1-2z" fill="#f0d0b4"/></g><g><path d="m32 42-4 3-2.09-3.14c.03-.04.07-.07.1-.08.91-.71 1.91-1.3 2.99-1.78z" fill="#e6e9ed"/></g><g><path d="m27 30 .5 4h-1.5c-.56 0-1.07-.23-1.42-.61-.37-.36-.58-.85-.58-1.39 0-.55.22-1.05.59-1.41l.05-.05c.35-.34.83-.54 1.36-.54z" fill="#f0d0b4"/></g><g><path d="m25.91 41.86c-3.67 2.81-5.91 7.22-5.91 11.99v2.15h-6-6v-2.15c0-5.99 3.53-11.42 9-13.85l.11.21c.54 1.1 1.66 1.79 2.89 1.79s2.35-.69 2.89-1.79l.11-.21c1.08.48 2.08 1.08 3 1.77l.01.01c-.03.01-.07.04-.1.08z" fill="#5cd6b3"/></g><g><path d="m24.48 29.93.16.61c-.02.02-.03.03-.05.05-.37.36-.59.86-.59 1.41 0 .54.21 1.03.58 1.39l-.01.01-.35 2.85c-.13 1-.98 1.75-1.99 1.75h-.23-4-.23c-1.01 0-1.86-.75-1.99-1.75l-.28-2.25-.5-4 3.86-2.32c.71 1 1.81 1.7 3.1 1.89z" fill="#f0d0b4"/></g><g><path d="m22 38 1 2-.11.21c-.54 1.1-1.66 1.79-2.89 1.79s-2.35-.69-2.89-1.79l-.11-.21 1-2z" fill="#f0d0b4"/></g><g><path d="m15 30 .5 4h-1.5c-1.1 0-2-.9-2-2 0-.55.22-1.05.59-1.41.02-.02.03-.03.05-.04.35-.35.83-.55 1.36-.55z" fill="#f0d0b4"/></g></g><path d="m31 51h2v2h-2z"/><path d="m31 47h2v2h-2z"/><path d="m60.095 14.46-25.994-11.997c-1.31-.606-2.894-.605-4.195-.003l-26 11.999c-1.213.561-2.136 1.559-2.599 2.812-.462 1.255-.408 2.611.15 3.819.353.766.893 1.404 1.543 1.892v35.018c0 2.757 2.243 5 5 5h48c2.757 0 5-2.243 5-5v-35.018c.648-.487 1.188-1.123 1.539-1.885.561-1.212.615-2.57.153-3.826-.463-1.253-1.385-2.251-2.597-2.811zm-56.91 3.504c.277-.753.831-1.353 1.56-1.688l26-12c.781-.361 1.728-.362 2.517.003l25.996 11.998c.728.335 1.281.935 1.559 1.687.277.753.245 1.567-.092 2.295-.49 1.057-1.559 1.741-2.726 1.741-.437 0-.858-.093-1.254-.275l-24.745-11.421-24.743 11.42c-.398.183-.82.276-1.257.276-1.168 0-2.237-.685-2.726-1.747-.335-.724-.367-1.537-.089-2.289zm45.815 31.036v6h-4v-1.151c0-4.645-2.001-8.977-5.337-11.991.33-.206.67-.391 1.016-.569.958 1.005 2.652 1.557 3.038 1.671l.283.083.283-.084c.388-.114 2.095-.67 3.05-1.683 4.682 2.416 7.667 7.261 7.667 12.573v1.151h-4v-6zm-12 0v6h-10v-6h-2v6h-4v-1.151c0-4.074 1.76-7.871 4.689-10.512l2.066 3.098 4.245-3.185 4.246 3.185 2.065-3.098c2.929 2.641 4.689 6.438 4.689 10.512v1.151h-4v-6zm-24 0v6h-4v-1.151c0-5.293 2.964-10.123 7.616-12.548.79 1.059 2.027 1.699 3.384 1.699 1.351 0 2.582-.634 3.373-1.685.328.171.651.347.964.543-3.336 3.013-5.337 7.346-5.337 11.991v1.151h-4v-6zm1-18h.117l.25 2h-.367c-.552 0-1-.448-1-1s.448-1 1-1zm.723-2h-.723c-.241 0-.472.036-.697.09l-.173-.694c-.086-.346-.13-.7-.13-1.054 0-2.394 1.948-4.342 4.343-4.342h5.314c.613 0 1.198.138 1.742.378-.874 1.087-1.4 2.465-1.4 3.964 0 .465.059.928.161 1.384l-1.059-.151c-1.768-.252-3.101-1.789-3.101-3.575h-2c0 .824.2 1.603.529 2.317zm26.277-3.162v-2.811c.114-.009.227-.027.343-.027h5.314c2.395 0 4.343 1.948 4.343 4.343 0 .354-.044.708-.129 1.053l-.174.695c-.224-.055-.456-.091-.697-.091h-.902l-1.96-.393c-1.24-.248-2.138-1.343-2.138-2.607h-2c0 .627.138 1.225.369 1.778-.667.338-1.585.736-2.588.984.14-.968.219-1.946.219-2.924zm8.883 5.162h.117c.552 0 1 .448 1 1s-.448 1-1 1h-.367zm-31.265 8h2.764l.482.963c-.409.637-1.094 1.037-1.864 1.037s-1.454-.4-1.863-1.037zm5.118.237-.26-.519c.919-.422 1.602-1.287 1.734-2.346l.179-1.435c.198.041.402.063.611.063h.617l.172 1.372c.132 1.058.815 1.923 1.734 2.346l-.26.52c-.802.378-1.558.824-2.274 1.318-.718-.494-1.464-.947-2.253-1.319zm2.264-8.237h.117l.25 2h-.367c-.552 0-1-.448-1-1s.448-1 1-1zm13 1c0 .552-.448 1-1 1h-.367l.25-2h.117c.552 0 1 .448 1 1zm-3.114-1.149-.659 5.273c-.063.499-.49.876-.993.876h-4.469c-.503 0-.93-.377-.992-.876l-.709-5.672 2.037-1.528c.684.785 1.639 1.335 2.727 1.49zm-3.886 9.947-1.71-1.14.328-.658h2.763l.329.658zm-3.077.353 1.346.898-2.024 1.517-.975-1.462c.525-.353 1.077-.671 1.653-.953zm6.154 0c.576.283 1.127.601 1.652.953l-.975 1.462-2.023-1.517zm.66-1.914-.26-.52c.919-.422 1.602-1.287 1.734-2.346l.172-1.371h.617c.209 0 .413-.022.61-.063l.179 1.435c.132 1.059.815 1.924 1.734 2.346l-.26.519c-.788.372-1.534.825-2.252 1.318-.716-.493-1.472-.939-2.274-1.318zm6.881-.237h2.764l.473.947c-.342.344-1.132.751-1.855 1.002-.723-.252-1.514-.658-1.856-1.002zm3.616-2h-4.469c-.503 0-.93-.377-.992-.876l-.303-2.427c.333-.484.53-1.067.53-1.697 0-.42-.088-.82-.245-1.184 1.521-.302 2.886-.918 3.77-1.385.61.559 1.366.966 2.221 1.137l1.147.229-.666 5.326c-.063.5-.49.877-.993.877zm-7.234-11.162c0 1.091-.101 2.181-.293 3.255-.228-.055-.462-.093-.707-.093h-.838c-1.293-.432-2.162-1.637-2.162-3h-2c0 .905.244 1.761.664 2.513l-.553-.079c-1.204-.172-2.111-1.218-2.111-2.434h-2c0 .392.052.773.149 1.138l-2.483 1.862h-.666c-.241 0-.472.036-.697.09l-.173-.694c-.086-.346-.13-.7-.13-1.054 0-2.394 1.948-4.342 4.343-4.342h9.657zm-20.323 3.122c.833.83 1.912 1.42 3.141 1.595l1.456.208c-.172.379-.274.795-.274 1.237 0 .63.197 1.214.53 1.697l-.303 2.427c-.063.499-.49.876-.993.876h-4.469c-.503 0-.93-.377-.992-.876l-.7-5.602zm29.06 10.277-.26-.52c.919-.422 1.602-1.287 1.734-2.346l.172-1.371h.617c1.654 0 3-1.346 3-3 0-.636-.202-1.225-.542-1.711l.353-1.41c.126-.503.189-1.02.189-1.536 0-3.497-2.846-6.343-6.343-6.343h-5.314c-.507 0-1.004.079-1.492.197-.26-.123-.546-.197-.851-.197h-9.657c-1.231 0-2.378.359-3.352.968-.998-.618-2.151-.968-3.334-.968h-5.314c-3.497 0-6.343 2.846-6.343 6.343 0 .517.063 1.033.189 1.537l.352 1.409c-.339.486-.541 1.074-.541 1.711 0 1.654 1.346 3 3 3h.617l.172 1.372c.132 1.058.815 1.923 1.734 2.346l-.26.52c-3.139 1.481-5.65 3.903-7.263 6.838v-22.954l23-10.615 23 10.616v22.953c-1.613-2.935-4.124-5.358-7.263-6.839zm11.263 18.763c0 1.654-1.346 3-3 3h-48c-1.654 0-3-1.346-3-3v-34.114c.327.067.659.114 1 .114.339 0 .673-.037 1-.104v33.104h50v-33.103c.327.066.66.103.999.103.341 0 .674-.047 1.001-.114z"/></g></svg>
