<svg height="496pt" viewBox="0 0 496 496" width="496pt" xmlns="http://www.w3.org/2000/svg"><path d="m200 328v32l-87.175781 29.054688c-19.601563 6.539062-32.824219 24.882812-32.824219 45.546874v53.398438h336v-53.398438c0-20.664062-13.222656-39-32.824219-45.539062l-87.175781-29.0625v-32zm0 0" fill="#b4dd7f"/><path d="m200 320h96v88h-96zm0 0" fill="#f0d0b4"/><path d="m296 360-48 48 56 40 16-80zm0 0" fill="#e6e9ed"/><path d="m200 360 48 48-56 40-16-80zm0 0" fill="#e6e9ed"/><path d="m352 488v-40l16 40zm0 0" fill="#a0d468"/><path d="m144 488v-40l-16 40zm0 0" fill="#a0d468"/><path d="m200 347.015625c14.136719 8.207031 30.503906 12.984375 48 12.984375s33.863281-4.777344 48-12.984375v-27.015625h-96zm0 0" fill="#ecc19c"/><path d="m136 248v-64c0-35.28125 16.3125-66.753906 41.816406-87.289062 10.574219-8.511719 23.167969-14.160157 36.40625-17.125 22.242188-4.992188 45.3125-4.992188 67.554688 0 13.238281 2.972656 25.839844 8.613281 36.40625 17.125 25.503906 20.535156 41.816406 52.007812 41.816406 87.289062v64zm0 0" fill="#b27946"/><path d="m168 168v96c0 44.183594 35.816406 80 80 80s80-35.816406 80-80v-96zm0 0" fill="#f0d0b4"/><path d="m168 216c-17.671875 0-32 14.328125-32 32s14.328125 32 32 32h160c17.671875 0 32-14.328125 32-32s-14.328125-32-32-32zm0 0" fill="#f0d0b4"/><path d="m327.222656 223.847656c-25.824218-5.167968-50.160156-16.046875-71.222656-31.847656-5.039062 10.070312-5.039062 21.929688 0 32l-16.398438-2.34375c-25.984374-3.710938-50.609374-13.914062-71.601562-29.65625l-8-40h176zm0 0" fill="#b27946"/><path d="m216 240c0 4.417969-3.582031 8-8 8s-8-3.582031-8-8 3.582031-8 8-8 8 3.582031 8 8zm0 0"/><path d="m296 240c0 4.417969-3.582031 8-8 8s-8-3.582031-8-8 3.582031-8 8-8 8 3.582031 8 8zm0 0"/><path d="m248 312c17.648438 0 32-14.351562 32-32h-16c0 8.824219-7.175781 16-16 16s-16-7.175781-16-16h-16c0 17.648438 14.351562 32 32 32zm0 0"/><path d="m385.710938 381.480469-81.710938-27.25v-22.40625c13.6875-11.320313 23.824219-26.726563 28.710938-44.304688 19.816406-2.359375 35.289062-19.078125 35.289062-39.519531v-64c0-46.089844-26.910156-88.65625-68.566406-108.449219l-6.867188 14.457031c36.105469 17.152344 59.433594 54.046876 59.433594 93.992188v32.207031c-4.671875-3.535156-10.054688-6.183593-16-7.390625v-16.816406h-16v21.976562c-21.304688-5.480468-41.617188-15.199218-59.199219-28.375l-7.664062-5.753906-4.289063 8.566406c-4.023437 8.050782-5.40625 17.128907-4.144531 25.882813l-3.96875-.570313c-23.277344-3.320312-45.550781-12.285156-64.726563-25.886718v-19.839844h-16v40.808594c-5.945312 1.214844-11.328124 3.855468-16 7.390625v-32.199219c0-39.945312 23.328126-76.839844 59.433594-93.992188l-6.867187-14.457031c-41.664063 19.792969-68.574219 62.359375-68.574219 108.449219v64c0 20.441406 15.472656 37.160156 35.289062 39.519531 4.886719 17.578125 15.023438 32.984375 28.710938 44.304688v22.40625l-81.703125 27.242187c-22.914063 7.632813-38.296875 28.984375-38.296875 53.121094v61.40625h352v-61.40625c0-24.136719-15.382812-45.488281-38.289062-53.113281zm-74.941407-8.128907-12.195312 60.945313-38.246094-27.320313 37.824219-37.824218zm41.230469-125.351562c0 10.535156-6.871094 19.414062-16.335938 22.632812.167969-2.199218.335938-4.394531.335938-6.632812v-38.527344c9.289062 3.3125 16 12.113282 16 22.527344zm-208 0c0-10.414062 6.710938-19.214844 16-22.527344v38.527344c0 2.238281.167969 4.433594.335938 6.632812-9.464844-3.21875-16.335938-12.097656-16.335938-22.632812zm32 16v-57.015625c19.039062 11.648437 40.335938 19.429687 62.464844 22.589844l31.519531 4.496093-6.832031-13.65625c-2.425782-4.839843-3.335938-10.261718-2.746094-15.542968 18.128906 11.914062 38.480469 20.464844 59.585938 25.394531v33.734375c0 39.703125-32.304688 72-72 72-39.695313 0-71.992188-32.296875-71.992188-72zm72 88c14.40625 0 27.984375-3.550781 40-9.710938v14.398438l-40 40-40-40v-14.398438c12.015625 6.160157 25.59375 9.710938 40 9.710938zm-50.160156 17.152344 37.824218 37.824218-38.25 27.320313-12.191406-60.945313zm210.160156 110.847656h-48v-32h-16v32h-192v-32h-16v32h-48v-45.40625c0-17.242188 10.992188-32.496094 27.351562-37.945312l54.585938-18.191407 16.648438 83.246094 61.414062-43.871094 61.414062 43.871094 16.648438-83.246094 54.585938 18.191407c16.359374 5.457031 27.351562 20.703124 27.351562 37.945312zm0 0"/><path d="m456 0c-22.054688 0-40 17.945312-40 40v16h16v-16c0-13.230469 10.769531-24 24-24s24 10.769531 24 24v4.777344c0 5.429687-1.863281 10.757812-5.257812 14.992187l-26.742188 33.421875v26.808594h16v-21.191406l23.230469-29.039063c5.65625-7.066406 8.769531-15.9375 8.769531-24.992187v-4.777344c0-22.054688-17.945312-40-40-40zm0 0"/><path d="m448 136h16v16h-16zm0 0"/><path d="m424 160c-22.054688 0-40 17.945312-40 40v16h16v-16c0-13.230469 10.769531-24 24-24s24 10.769531 24 24v4.777344c0 5.429687-1.863281 10.757812-5.257812 14.992187l-26.742188 33.421875v26.808594h16v-21.191406l23.230469-29.039063c5.65625-7.066406 8.769531-15.9375 8.769531-24.992187v-4.777344c0-22.054688-17.945312-40-40-40zm0 0"/><path d="m416 296h16v16h-16zm0 0"/><path d="m224 40c0-13.230469 10.769531-24 24-24s24 10.769531 24 24v4.777344c0 5.429687-1.863281 10.757812-5.257812 14.992187l-26.742188 33.421875v26.808594h16v-21.191406l23.230469-29.039063c5.65625-7.066406 8.769531-15.9375 8.769531-24.992187v-4.777344c0-22.054688-17.945312-40-40-40s-40 17.945312-40 40v16h16zm0 0"/><path d="m240 136h16v16h-16zm0 0"/><path d="m48 40c0-13.230469 10.769531-24 24-24s24 10.769531 24 24v4.777344c0 5.429687-1.863281 10.757812-5.257812 14.992187l-26.742188 33.421875v26.808594h16v-21.191406l23.230469-29.039063c5.65625-7.066406 8.769531-15.9375 8.769531-24.992187v-4.777344c0-22.054688-17.945312-40-40-40s-40 17.945312-40 40v16h16zm0 0"/><path d="m64 136h16v16h-16zm0 0"/><path d="m80 200c0-22.054688-17.945312-40-40-40s-40 17.945312-40 40v16h16v-16c0-13.230469 10.769531-24 24-24s24 10.769531 24 24v4.777344c0 5.429687-1.863281 10.757812-5.257812 14.992187l-26.742188 33.421875v26.808594h16v-21.191406l23.230469-29.039063c5.65625-7.066406 8.769531-15.9375 8.769531-24.992187zm0 0"/><path d="m32 296h16v16h-16zm0 0"/></svg>