<svg id="Layer_1" enable-background="new 0 0 512 512" height="512" viewBox="0 0 512 512" width="512" xmlns="http://www.w3.org/2000/svg"><g><g><g><path d="m504.502 342.18v125.08c0 20.57-16.68 37.24-37.25 37.24h-422.5c-20.57 0-37.25-16.67-37.25-37.24v-125.47c7.46-5.04 15.69-9.03 24.47-11.76 8.74-2.71 18.03-4.17 27.65-4.17h392.18c6.76 0 13.35.72 19.7 2.09 2.1.45 4.17.98 6.22 1.57 9.67 2.78 18.68 7.1 26.78 12.66z" fill="#9fc3d7"/><path d="m504.502 342.18v125.08c0 20.57-16.68 37.24-37.25 37.24h-32.99c20.57 0 37.24-16.67 37.24-37.24v-139.31c2.1.45 4.17.98 6.22 1.57 9.67 2.78 18.68 7.1 26.78 12.66z" fill="#7ca3bf"/><path d="m477.722 329.52v.51c-59.68 59.67-141.4 90.01-222.88 90.2-81.47-.19-163.2-30.53-222.87-90.2 8.74-2.71 18.03-4.17 27.65-4.17h392.18c9 0 17.7 1.28 25.92 3.66z" fill="#e4f4ff"/><path d="m433.146 325.852-.23.19c-104.81 82.09-252.12 82.02-356.84-.19 11.92 0 23.32-3.29 33.78-9.23 10.46-5.93 19.99-14.5 28.16-25.06 13.93-19.53 22.11-42.93 26.32-62.88 2.58-12.22 3.66-23.14 3.66-31.1h173.23c0 8.03 1.1 19.08 3.73 31.43 4.23 19.88 12.4 43.13 26.25 62.55 16.35 21.11 38.1 34.29 61.94 34.29z" fill="#ffeac5"/><path d="m344.956 229.012c-3.54 3-7.15 5.99-10.81 8.95-22.24 18.08-50.32 28.05-79.03 28.05h-.47c-28.77 0-56.89-9.99-79.21-28.15-3.8-3.08-7.5-6.14-11.1-9.18 2.58-12.22 3.66-23.14 3.66-31.1h173.23c0 8.03 1.099 19.08 3.73 31.43z" fill="#ffc69f"/><path d="m413.362 83.43c0 32.74-24.09 70.99-71.7 113.97-7.39 6.66-15.34 13.45-23.86 20.34-17.78 14.45-40.01 22.33-62.94 22.27-22.96.05-45.22-7.84-63.02-22.32-63.37-51.28-95.51-96.46-95.51-134.26 0-4.01.14-8.03.49-11.88.65-6.63 1.1-18.76 1.35-34.05.15-9.05.22-19.21.23-30h312.88c.02 28.96.55 53.41 1.59 63.95.33 3.95.49 7.97.49 11.98z" fill="#ffeac5"/><g fill="#ffc69f"><path d="m412.872 71.45c.33 3.95.49 7.97.49 11.98 0 32.74-24.09 70.99-71.7 113.97-.14 0-.21 0-.21 0s44.52-70.69 39.05-113.97c-.51-3.98-.17-8.03-.49-11.98-1.04-10.54-1.57-34.99-1.59-63.95h32.86c.02 28.96.55 53.41 1.59 63.95z"/><path d="m300.678 154.08c-14.722-3.445-30.065-5.267-45.836-5.267s-31.114 1.822-45.828 5.267c9.417-15.45 21.219-34.762 45.828-34.762 24.617 0 36.419 19.312 45.836 34.762z"/></g></g></g><g><path d="m250.682 256.05c0 16.56-13.43 29.99-29.99 29.99-3.59 0-7.04-.63-10.23-1.79-11.54-4.18-19.77-15.23-19.77-28.2 0-13.62 20.27-44.35 27.49-54.86 1.56-2.28 2.51-3.61 2.51-3.61s29.99 41.9 29.99 58.47z" fill="#99f5d2"/><path d="m250.682 256.05c0 16.56-13.43 29.99-29.99 29.99-3.59 0-7.04-.63-10.23-1.79 11.54-4.18 18.77-15.23 18.77-28.2 0-8.01-4.93-32.11-11.05-54.86 1.56-2.28 2.51-3.61 2.51-3.61s29.99 41.9 29.99 58.47z" fill="#69d8e4"/></g><g><path d="m319.448 161.267c0 16.56-13.43 29.99-29.99 29.99-3.59 0-7.04-.63-10.23-1.79-11.54-4.18-19.77-15.23-19.77-28.2 0-13.62 20.27-44.35 27.49-54.86 1.56-2.28 2.51-3.61 2.51-3.61s29.99 41.9 29.99 58.47z" fill="#99f5d2"/><path d="m319.448 161.267c0 16.56-13.43 29.99-29.99 29.99-3.59 0-7.04-.63-10.23-1.79 11.54-4.18 18.77-15.23 18.77-28.2 0-8.01-4.93-32.11-11.05-54.86 1.56-2.28 2.51-3.61 2.51-3.61s29.99 41.9 29.99 58.47z" fill="#69d8e4"/></g></g><g><path d="m237.73 71.816c0-9.437 7.677-17.114 17.114-17.114s17.113 7.678 17.113 17.114c0 4.143 3.357 7.5 7.5 7.5s7.5-3.357 7.5-7.5c0-17.708-14.406-32.114-32.113-32.114-17.708 0-32.114 14.406-32.114 32.114 0 4.143 3.358 7.5 7.5 7.5s7.5-3.358 7.5-7.5z"/><path d="m508.748 335.995c-16.802-11.543-36.494-17.644-56.948-17.644h-18.42c-20.404 0-40.259-11.104-55.922-31.271-21.231-29.843-27.751-67.674-28.438-86.272 47.691-43.657 71.843-83.058 71.843-117.379 0-4.227-.175-8.47-.519-12.61-.004-.038-.007-.075-.011-.113-.964-9.78-1.529-32.819-1.551-63.211-.002-4.14-3.36-7.495-7.499-7.495h-32.864c-4.143 0-7.5 3.357-7.5 7.5s3.357 7.5 7.5 7.5h25.381c.105 27.111.678 47.695 1.601 57.119.308 3.711.463 7.516.463 11.311 0 35.438-31.216 78.663-92.793 128.483-16.348 13.287-36.918 20.595-57.99 20.595-.077 0-.159 0-.236 0-1.347.002-2.715-.026-4.086-.084-8.151-16.719-20.538-34.415-23.969-39.208-1.408-1.967-3.679-3.134-6.098-3.134s-4.69 1.167-6.098 3.134c-2.206 3.082-8.116 11.504-14.221 21.565-1.293-.945-2.569-1.913-3.81-2.922-61.535-49.793-92.735-93.003-92.735-128.429 0-3.995.156-7.77.457-11.149.813-8.267 1.203-23.41 1.386-34.658.113-6.94.186-14.523.217-22.622h237.759c4.143 0 7.5-3.357 7.5-7.5s-3.357-7.5-7.5-7.5h-245.245c-4.14 0-7.497 3.354-7.5 7.495-.007 10.864-.085 20.918-.232 29.883-.257 15.729-.712 27.29-1.322 33.502-.347 3.89-.522 8.112-.522 12.55 0 34.321 24.156 73.722 71.844 117.372-.685 18.596-7.205 56.433-28.438 86.278-15.663 20.166-35.519 31.271-55.922 31.271h-16.686c-10.192 0-20.201 1.523-29.76 4.475-.047.014-.094.031-.141.046-9.322 2.895-18.215 7.148-26.423 12.696-2.063 1.396-3.3 3.724-3.3 6.214v125.471c0 24.673 20.073 44.746 44.746 44.746 4.142 0 7.5-3.357 7.5-7.5s-3.358-7.5-7.5-7.5c-16.402 0-29.746-13.344-29.746-29.746v-121.38c4.785-2.926 9.818-5.348 15.03-7.266 29.176 28.293 63.607 50.43 102.441 65.797 38.854 15.375 80.021 23.22 122.39 23.316 52.449-.12 104.357-12.515 150.112-35.844 3.69-1.882 5.157-6.398 3.275-10.088-1.882-3.691-6.399-5.158-10.088-3.275-43.667 22.264-93.23 34.092-143.299 34.207-40.449-.093-79.771-7.583-116.871-22.264-34.007-13.456-64.457-32.344-90.715-56.215 4.064-.586 8.188-.891 12.349-.891h14.137c25.849 19.93 54.536 35.359 85.324 45.853 30.813 10.502 62.979 15.835 95.605 15.852h.155c32.573 0 64.693-5.3 95.468-15.753 30.894-10.494 59.679-25.957 85.615-45.951h15.872c3.644 0 7.256.239 10.826.689-11.26 10.242-23.384 19.656-36.196 28.064-3.463 2.273-4.428 6.923-2.155 10.386 1.44 2.194 3.835 3.386 6.277 3.386 1.412 0 2.84-.398 4.108-1.23 16.328-10.716 31.593-22.992 45.466-36.494 5.875 2.057 11.531 4.752 16.874 8.078v121.024c0 16.401-13.343 29.745-29.746 29.745h-387.714c-4.142 0-7.5 3.357-7.5 7.5s3.358 7.5 7.5 7.5h387.715c24.672 0 44.745-20.073 44.745-44.746v-125.077c0-2.471-1.216-4.783-3.252-6.182zm-288.058-125.171c10.781 16.284 22.495 37.058 22.495 45.222 0 12.404-10.091 22.495-22.495 22.495s-22.496-10.091-22.496-22.495c0-8.164 11.714-28.937 22.496-45.222zm124.799 154.276c-29.22 9.925-59.712 14.956-90.643 14.956-.047 0-.1 0-.147 0-30.98-.016-61.521-5.079-90.774-15.05-24.278-8.274-47.186-19.774-68.316-34.277 18.018-4.955 34.81-16.812 48.572-34.58.06-.078.119-.157.176-.237 19.416-27.219 27.655-60.522 30.323-82.732 4.007 3.418 8.144 6.859 12.429 10.327 1.878 1.528 3.816 2.998 5.802 4.4-5.44 10.368-9.716 20.838-9.716 28.14 0 20.675 16.82 37.495 37.496 37.495 20.675 0 37.495-16.82 37.495-37.495 0-2.522-.524-5.431-1.416-8.574 23.892-.375 47.179-8.815 65.749-23.907 4.307-3.485 8.465-6.943 12.491-10.379 2.669 22.21 10.909 55.509 30.323 82.725.057.08.115.159.176.237 13.764 17.771 30.559 29.62 48.579 34.574-21.214 14.561-44.219 26.096-68.599 34.377z"/><path d="m289.458 198.756c20.675 0 37.495-16.82 37.495-37.495 0-18.06-26.154-55.507-31.396-62.83-1.408-1.967-3.68-3.134-6.099-3.134s-4.69 1.167-6.099 3.134c-1.828 2.554-6.2 8.775-11.118 16.555-5.436-2.09-11.255-3.168-17.396-3.168-28.852 0-42.365 22.17-52.233 38.358-1.573 2.581-1.443 5.854.33 8.302 1.43 1.976 3.704 3.102 6.074 3.102.568 0 1.142-.064 1.71-.197 13.611-3.188 27.653-4.866 41.772-5.036-.338 1.751-.535 3.406-.535 4.915-.001 20.674 16.82 37.494 37.495 37.494zm0-82.717c10.78 16.284 22.495 37.059 22.495 45.222 0 12.404-10.091 22.495-22.495 22.495s-22.495-10.091-22.495-22.495c-.001-8.163 11.714-28.938 22.495-45.222zm-34.614 25.274c-9.997 0-19.967.712-29.806 2.125 7.145-9.247 16.175-16.62 29.806-16.62 3.386 0 6.544.446 9.538 1.318-2.446 4.373-4.763 8.856-6.726 13.204-.937-.013-1.875-.027-2.812-.027z"/></g></svg>