<svg height="512" viewBox="0 0 52 60" width="512" xmlns="http://www.w3.org/2000/svg"><g id="Page-1" fill="none" fill-rule="evenodd"><g id="008---Emetophobia" transform="translate(0 -1)"><path id="Shape" d="m44.2 34c-.8696976 3.6964776-2.8480009 7.0390077-5.67 9.58-.6683285.5747287-1.3880161 1.0868785-2.15 1.53-1.1285993.6351399-2.3055909 1.1801672-3.52 1.63-1.1852224.457813-2.4153284.7896399-3.67.99-.1246143-.568279-.1883073-1.1482209-.19-1.73v-3c0-1.6568542-1.3431458-3-3-3s-3 1.3431458-3 3v3c-.0016927.5817791-.0653857 1.161721-.19 1.73-1.2546716-.2003601-2.4847776-.532187-3.67-.99-1.2144091-.4498328-2.3914007-.9948601-3.52-1.63-.7619839-.4431215-1.4816715-.9552713-2.15-1.53-2.8219991-2.5409923-4.80030238-5.8835224-5.67-9.58-.6851774-2.6996458-.91166653-5.4952653-.67-8.27.01-.09.03-.35.05-.73.08-1.13.22-3.31.39-5.15 1.26-.1 2.24-.27 2.24-.27-.11882838-.9115079-.28572762-1.8161017-.5-2.71.33370033-.1560974.6927429-.2509388 1.06-.28 3.82-.28 11.37-1.37 14.85-5.49.1897968-.2365713.4767035-.3742205.78-.3742205s.5902032.1376492.78.3742205c3.48 4.12 11.03 5.21 14.85 5.49.3640549.0290551.7198171.123925 1.05.28-.2142724.8938983-.3811716 1.7984921-.5 2.71 0 0 .98.17 2.25.27.17 1.84.31 4.02.39 5.15.02.38.04.64.05.73.2416665 2.7747347.0151774 5.5703542-.67 8.27z" fill="#ffe0b2" fill-rule="nonzero"/><path id="Shape" d="m44.87 25.73c-.01-.09-.03-.35-.05-.73-.08-1.13-.22-3.31-.39-5.15-1.27-.1-2.25-.27-2.25-.27.1188284-.9115079.2857276-1.8161017.5-2.71-.3301829-.156075-.6859451-.2509449-1.05-.28-3.82-.28-11.37-1.37-14.85-5.49-.1897968-.2365713-.4767035-.3742205-.78-.3742205s-.5902032.1376492-.78.3742205c-.2254341.2654816-.4658243.5178914-.72.756 3.716 3.5 10.555 4.472 14.13 4.734.3640549.0290551.7198171.123925 1.05.28-.2142724.8938983-.3811716 1.7984921-.5 2.71 0 0 .98.17 2.25.27.17 1.84.31 4.02.39 5.15.02.38.04.64.05.73.2416665 2.7747347.0151774 5.5703542-.67 8.27-.8696976 3.6964776-2.8480009 7.0390077-5.67 9.58-.6683285.5747287-1.3880161 1.0868785-2.15 1.53-1.1285993.6351399-2.3055909 1.1801672-3.52 1.63-.26.1-.527.17-.79.258.031.247.068.491.12.732 1.2546716-.2003601 2.4847776-.532187 3.67-.99 1.2144091-.4498328 2.3914007-.9948601 3.52-1.63.7619839-.4431215 1.4816715-.9552713 2.15-1.53 2.8219991-2.5409923 4.8003024-5.8835224 5.67-9.58.6851774-2.6996458.9116665-5.4952653.67-8.27z" fill="#dfc49c" fill-rule="nonzero"/><path id="Shape" d="m42.69 16.87h-.01" stroke="#000" stroke-linejoin="round" stroke-width="2"/><g fill-rule="nonzero"><path id="Shape" d="m13 23c-.4408769.0005403-.8300902-.2877099-.9581268-.709586-.1280366-.421876.0353166-.8778265.4021268-1.122414 1.9624246-1.2746538 4.2205433-2.0213898 6.556-2.168.5522847 0 1 .4477153 1 1s-.4477153 1-1 1c-1.939455.1466467-3.8113486.7764555-5.445 1.832-.1643469.1095861-.3574677.1680443-.555.168z" fill="#a0522d"/><path id="Shape" d="m29 43h2c1.1032019-.0032948 1.9967052-.8967981 2-2v-1c0-2.209139-1.790861-4-4-4h-6c-2.209139 0-4 1.790861-4 4v1c.0032948 1.1032019.8967981 1.9967052 2 2z" fill="#ef314c"/><path id="Shape" d="m29 36h-3c2.209139 0 4 1.790861 4 4v1c-.0032948 1.1032019-.8967981 1.9967052-2 2h3c1.1032019-.0032948 1.9967052-.8967981 2-2v-1c0-2.209139-1.790861-4-4-4z" fill="#bb193b"/><path id="Shape" d="m20 30.16c-.2653486.0007185-.5199469-.1047939-.707-.293-1.6100975-1.5390923-3.8739988-2.1881645-6.055-1.736-.530291.1182566-1.0579833-.2085331-1.1884139-.7359618s.184127-1.0625027.7084139-1.2050382c2.8611182-.614249 5.8404094.2339251 7.949 2.263.2859079.2859943.3714219.7160366.216678 1.0896546-.1547439.3736179-.5192821.6172591-.923678.6173454z" fill="#607d8b"/><path id="Shape" d="m39 23c-.1964074-.0002503-.3883926-.0583327-.552-.167-1.6359824-1.0531524-3.5081336-1.6830447-5.448-1.833-.5522847 0-1-.4477153-1-1s.4477153-1 1-1c2.3351128.1467798 4.5928663.893509 6.555 2.168.3666557.2444851.5300428.7001723.4022708 1.1219349s-.5165789.710164-.9572708.7100651z" fill="#a0522d"/><path id="Shape" d="m32 30.16c-.4043959-.0000863-.7689341-.2437275-.923678-.6173454-.1547439-.373618-.0692299-.8036603.216678-1.0896546 2.1085906-2.0290749 5.0878818-2.877249 7.949-2.263.5273216.1402407.8448735.6773108.7136254 1.2069422-.1312482.5296314-.6628375.8562754-1.1946254.7340578-2.1806679-.4514611-4.443947.19754-6.054 1.736-.1870531.1882061-.4416514.2937185-.707.293z" fill="#607d8b"/><path id="Shape" d="m7.8 34h-2.8c-.35193405-.0012168-.70079466-.0655697-1.03-.19-1.1853628-.4251188-1.97448404-1.5507181-1.97-2.81v-3c.00548786-1.6545758 1.34542423-2.9945121 3-3h2.18c-.02.38-.04.64-.05.73-.24166653 2.7747347-.0151774 5.5703542.67 8.27z" fill="#ffe0b2"/><path id="Shape" d="m50 28v3c.004484 1.2592819-.7846372 2.3848812-1.97 2.81-.3292053.1244303-.6780659.1887832-1.03.19h-2.8c.6851774-2.6996458.9116665-5.4952653.67-8.27-.01-.09-.03-.35-.05-.73h2.18c1.6545758.0054879 2.9945121 1.3454242 3 3z" fill="#ffe0b2"/><path id="Shape" d="m49.7 26.7c-.4958631-1.0408147-1.5471045-1.7027074-2.7-1.7h-2.18l.007.117c1.2836249.3726299 2.1683223 1.5463908 2.173 2.883v3c.0029117 1.5781904-1.2247185 2.8851781-2.8 2.981v.019h2.8c.3519341-.0012168.7007947-.0655697 1.03-.19 1.1853628-.4251188 1.974484-1.5507181 1.97-2.81v-3c.0003046-.450525-.1023051-.8951672-.3-1.3z" fill="#dfc49c"/><path id="Shape" d="m7.57 19.85c-.17 1.84-.31 4.02-.39 5.15h-2.18c-1.1528955-.0027074-2.20413694.6591853-2.7 1.7-.5191389-2.4510163-.33541953-4.9988226.53-7.35 1.09.62 3.14.62 4.74.5z" fill="#a0522d"/><path id="Shape" d="m49.7 26.7c-.4958631-1.0408147-1.5471045-1.7027074-2.7-1.7h-2.18c-.08-1.13-.22-3.31-.39-5.15 1.6.12 3.65.12 4.74-.5.8654195 2.3511774 1.0491389 4.8989837.53 7.35z" fill="#a0522d"/><path id="Shape" d="m49.17 19.35c-.889638.3989371-1.8585273.5897737-2.833.558.5234191 1.6436054.7340575 3.3707725.621 5.092h.042c1.1528955-.0027074 2.2041369.6591853 2.7 1.7.5191389-2.4510163.3354195-4.9988226-.53-7.35z" fill="#783e22"/><path id="Shape" d="m46.22 12.08c-.5828661.1137458-1.132941.3563254-1.61.71-.92.69-1.54 2.5-1.93 4.08-.3301829-.156075-.6859451-.2509449-1.05-.28-3.82-.28-11.37-1.37-14.85-5.49-.1897968-.2365713-.4767035-.3742205-.78-.3742205s-.5902032.1376492-.78.3742205c-3.48 4.12-11.03 5.21-14.85 5.49-.3672571.0290612-.72629967.1239026-1.06.28-.38-1.58-1-3.39-1.92-4.08-.47731383-.3532361-1.0272858-.5957703-1.61-.71.09-.22.19-.45.29-.68.72829447-1.727112 1.80389399-3.28605055 3.16-4.58.06258877.36078211.18421916.70878017.36 1.03 1.03 1.96 6.33 3.47 6.33 3.47s1.79-5.21.76-7.17c-.2041256-.39912648-.4785108-.75819855-.81-1.06 3.2862684-.95411617 6.7223851-1.28314215 10.13-.97 3.4076149-.31314215 6.8437316.01588383 10.13.97-.3316858.3040742-.6090056.66256075-.82 1.06-1.02 1.96.77 7.17.77 7.17s5.3-1.51 6.33-3.47c.1757808-.32121983.2974112-.66921789.36-1.03 1.356106 1.29394945 2.4317055 2.852888 3.16 4.58.1.23.2.46.29.68z" fill="#a0522d"/><path id="Shape" d="m45.93 11.4c-.7282945-1.727112-1.803894-3.28605055-3.16-4.58-.0625888.36078211-.1842192.70878017-.36 1.03-.2290335.38871315-.535342.72633319-.9.992.5612802.80079078 1.0372061 1.6581277 1.42 2.558.1.23.2.46.29.68-.5828661.1137458-1.132941.3563254-1.61.71-.833.624-1.417 2.165-1.811 3.623.669.079 1.29.137 1.831.177.3640549.0290551.7198171.123925 1.05.28.39-1.58 1.01-3.39 1.93-4.08.477059-.3536746 1.0271339-.5962542 1.61-.71-.09-.22-.19-.45-.29-.68z" fill="#783e22"/><path id="Shape" d="m13.47 43.58c-3.94 3.73-8.67.73-10.59-.81-.21300291-.162871-.34970528-.4061265-.37807039-.6727585s.05410039-.5332031.22807039-.7372415c2.09-2.41 1.27-7.36 1.27-7.36l-.03-.19c.32920534.1244303.67806595.1887832 1.03.19h2.8c.86969762 3.6964776 2.8480009 7.0390077 5.67 9.58z" fill="#a0522d"/><path id="Shape" d="m49.12 42.77c-1.92 1.54-6.65 4.54-10.59.81 2.8219991-2.5409923 4.8003024-5.8835224 5.67-9.58h2.8c.3519341-.0012168.7007947-.0655697 1.03-.19l-.03.19s-.82 4.95 1.27 7.36c.17397.2040384.2564355.4706095.2280704.7372415s-.1650675.5098875-.3780704.6727585z" fill="#a0522d"/><path id="Shape" d="m49.27 41.36c-2.09-2.41-1.27-7.36-1.27-7.36l.03-.19c-.3292053.1244303-.6780659.1887832-1.03.19h-2s-.82 4.95 1.27 7.36c.17397.2040384.2564355.4706095.2280704.7372415s-.1650675.5098875-.3780704.6727585c-1.3810865 1.1423082-2.9955679 1.9683219-4.73 2.42 3.146.781 6.261-1.242 7.73-2.42.2130029-.162871.3497053-.4061265.3780704-.6727585s-.0541004-.5332031-.2280704-.7372415z" fill="#783e22"/><path id="Shape" d="m28 33h-4c-.5522847 0-1-.4477153-1-1s.4477153-1 1-1h4c.5522847 0 1 .4477153 1 1s-.4477153 1-1 1z" fill="#dfc49c"/><path id="Shape" d="m43 55c0 2.7614237-2.2385763 5-5 5h-24c-2.512859-.0034696-4.63276378-1.8714239-4.95246514-4.3638651-.31970136-2.4924413 1.26013354-4.8349551 3.69076834-5.4725185 2.4306347-.6375635 4.9568585.6279178 5.9016968 2.9563836 2.1240024-1.085196 3.653006-3.061534 4.17-5.39.1246143-.568279.1883073-1.1482209.19-1.73v-3c0-1.6568542 1.3431458-3 3-3s3 1.3431458 3 3v3c.0016927.5817791.0653857 1.161721.19 1.73.516994 2.328466 2.0459976 4.304804 4.17 5.39.8937401-2.2261751 3.2425796-3.5038997 5.5971028-3.0447188 2.3545233.4591809 4.0511361 2.5258526 4.0428972 4.9247188z" fill="#a4c400"/><path id="Shape" d="m38 50c-.5221952.000384-1.0411227.0823732-1.538.243 2.3668915.7184988 3.8491971 3.0636444 3.4826506 5.5098782-.3665464 2.4462338-2.4711167 4.2539179-4.9446506 4.2471409l3-.0000191c2.7614237 0 5-2.2385763 5-5s-2.2385763-5-5-5z" fill="#90ac00"/><path id="Shape" d="m9.81 19.58s-.98.17-2.24.27c-1.6.12-3.65.12-4.74-.5-.07692458-.0407679-.15048927-.0875818-.22-.14-1.77283399-1.3199606-2.13996046-3.8271659-.81999993-5.5999999 1.31996053-1.7728341 3.82716588-2.1399606 5.59999993-.8200001.92.69 1.54 2.5 1.92 4.08.21427238.8938983.38117162 1.7984921.5 2.71z" fill="#02a9f4"/><path id="Shape" d="m15.92 11.32s-5.3-1.51-6.33-3.47c-.17578084-.32121983-.29741123-.66921789-.36-1.03-.35825712-1.7059726.43184643-3.44713387 1.9516518-4.30087994 1.5198053-.85374608 3.4178286-.62263197 4.6883482.57087994.3314892.30180145.6058744.66087352.81 1.06 1.03 1.96-.76 7.17-.76 7.17z" fill="#02a9f4"/><path id="Shape" d="m49.39 19.21c-.0695107.0524182-.1430754.0992321-.22.14-1.09.62-3.14.62-4.74.5-1.27-.1-2.25-.27-2.25-.27.1188284-.9115079.2857276-1.8161017.5-2.71.39-1.58 1.01-3.39 1.93-4.08 1.1468225-.8538648 2.6620617-1.0310458 3.9749416-.4648008 1.3128798.5662451 2.2239427 1.7898902 2.39 3.2100001.1660573 1.4201098-.438119 2.8209359-1.5849416 3.6748007z" fill="#02a9f4"/><path id="Shape" d="m50.21 13.61c-1.0758066-1.4702005-3.0190936-2.0114266-4.7-1.309.6766654.2709893 1.2650738.7240638 1.7 1.309.6343968.8511561.9044321 1.9195824.7506284 2.9699492-.1538037 1.0503667-.7188304 1.9965161-1.5706284 2.6300508-.0695107.0524182-.1430754.0992321-.22.14-.5740923.2820736-1.1977866.4492073-1.836.492l.1.008c1.6.12 3.65.12 4.74-.5.0769246-.0407679.1504893-.0875818.22-.14.8511762-.6341326 1.415412-1.5805705 1.5684607-2.6309043.1530486-1.0503338-.1176405-2.1184322-.7524607-2.9690957z" fill="#0377bc"/><path id="Shape" d="m42.77 6.82c-.0625888.36078211-.1842192.70878017-.36 1.03-1.03 1.96-6.33 3.47-6.33 3.47s-1.79-5.21-.77-7.17c.9254795-1.76824082 3.0127756-2.58372597 4.8918408-1.91119192s2.9748712 2.62727962 2.5681592 4.58119192z" fill="#02a9f4"/><path id="Shape" d="m40.71 2.46c-1.0393949-.54479925-2.2670861-.59975409-3.351-.15.117.048.236.09.351.15 1.5917601.82206257 2.4357356 2.60834082 2.06 4.36-.0625888.36078211-.1842192.70878017-.36 1.03-.524 1-2.154 1.877-3.629 2.5.169.586.3.968.3.968s5.3-1.51 6.33-3.47c.1757808-.32121983.2974112-.66921789.36-1.03.3745781-1.75124684-.4696936-3.53646587-2.061-4.358z" fill="#0377bc"/><path id="Shape" d="m26 53c-.5522847 0-1-.4477153-1-1v-1c0-.5522847.4477153-1 1-1s1 .4477153 1 1v1c0 .5522847-.4477153 1-1 1z" fill="#90ac00"/><path id="Shape" d="m23 57c-.5522847 0-1-.4477153-1-1v-1c0-.5522847.4477153-1 1-1s1 .4477153 1 1v1c0 .5522847-.4477153 1-1 1z" fill="#90ac00"/><path id="Shape" d="m29 57c-.5522847 0-1-.4477153-1-1v-1c0-.5522847.4477153-1 1-1s1 .4477153 1 1v1c0 .5522847-.4477153 1-1 1z" fill="#90ac00"/><path id="Shape" d="m1.682 19.707c-.71575659 2.2285545-.85949921 4.6013393-.418 6.9-.17144371.4445681-.26088939.9165296-.264 1.393v3c.00489051 1.4442979.79068617 2.7729582 2.054 3.473.187 1.444.284 4.66-1.074 6.226-.35464219.3983675-.52841719.925847-.48 1.457.05030573.5474729.3214799 1.0508241.751 1.394 1.90776727 1.6888198 4.33331968 2.6783662 6.878 2.806 1.5800984.0045899 3.1161788-.5203461 4.363-1.491.5157566.4028073 1.0565055.7725473 1.619 1.107 1.1747182.6635069 2.4006275 1.2319864 3.666 1.7.8979891.3369431 1.8198857.6063588 2.758.806-.498083 1.3085093-1.3760109 2.438219-2.521 3.244-1.569184-2.4056593-4.6231442-3.361848-7.2840638-2.2806255-2.66091957 1.0812225-4.18237957 3.8965607-3.62886576 6.7149215s3.02673436 4.8491612 5.89892956 4.843704h24c2.8724083.0051248 5.3455141-2.026256 5.8984771-4.8449415.5529629-2.8186854-.9693537-5.6338785-3.6307988-6.7143718s-5.7153363-.1231486-7.2836783 2.2833133c-1.145304-.8061233-2.023551-1.9361438-2.522-3.245.9374202-.1972102 1.8586841-.4646308 2.756-.8 1.2655705-.4683108 2.4917889-1.0367786 3.667-1.7.5628399-.3347781 1.103922-.7048515 1.62-1.108 1.2470354.9710859 2.7834666 1.4963736 4.364 1.492 2.5422339-.1269222 4.965812-1.1142667 6.873-2.8.4323671-.3440498.7054542-.8497667.756-1.4.0495884-.5282451-.121623-1.0534624-.473-1.451-1.355-1.563-1.263-4.78-1.078-6.232 1.2646506-.7019967 2.0502078-2.0335793 2.053-3.48v-3c-.0034733-.4767598-.0929048-.9489849-.264-1.394.441413-2.2986663.2976717-4.6714296-.418-6.9 1.44956-1.2867856 2.0211956-3.2975053 1.4653683-5.1544105-.5558274-1.8569053-2.1382041-3.2228646-4.0563683-3.5015895-.2902523-.0391489-.583309-.0535341-.876-.043-.7183529-1.68029186-1.7419813-3.2128524-3.019-4.52.2153194-1.96827079-.7601246-3.87615054-2.4817662-4.854109-1.7216415-.97795846-3.8598943-.83877794-5.4402338.354109-3.2266045-.8697488-6.5810317-1.1652498-9.91-.873-3.329027-.29227921-6.6835171.00356583-9.91.874-1.583526-1.176382-3.7123194-1.30671248-5.4275237-.33228765-1.7152042.97442483-2.69320011 2.86975364-2.4934763 4.83228765-1.27561176 1.30462527-2.29823337 2.8344889-3.016 4.512l-.005.011c-.29269412-.0110376-.58579398.0033497-.876.043-1.91757624.2789043-3.49935942 1.6445965-4.05494833 3.5009928s.01586859 3.8665181 1.46494833 5.1530072zm1.318 11.293v-3c0-1.1045695.8954305-2 2-2h1.112c-.1693971 2.3433843-.01460372 4.6989357.46 7h-1.572c-1.1045695 0-2-.8954305-2-2zm3.25-7h-1.25c-.6984609.0040896-1.38336762.1931721-1.985.548-.04702889-1.3168597.11326125-2.6329261.475-3.9.85292989.1925625 1.72570282.2831966 2.6.27.132 0 .262 0 .392-.007-.094 1.096-.172 2.21-.233 3.089zm-2.765 18.015c1.721-1.985 1.753-5.275 1.627-7.015h1.961c.88728509 3.1991055 2.56312375 6.1244308 4.874 8.508-3.086 2.051-6.555-.002-8.462-1.493zm26.372-.015c-.4490235-1.7642024-2.0375517-2.9990647-3.858-2.9990647s-3.4089765 1.2348623-3.858 2.9990647h-1.141c-.5522847 0-1-.4477153-1-1v-1c0-1.6568542 1.3431458-3 3-3h6c1.6568542 0 3 1.3431458 3 3v1c0 .5522847-.4477153 1-1 1zm3.1 12.031c.008 0 .013.011.021.014h.014c1.2432551.6265077 2.61581.9535511 4.008.955.5522847 0 1-.4477153 1-1s-.4477153-1-1-1c-.7539472-.001098-1.5027058-.124709-2.217-.366 1.1163761-1.5217831 3.1445668-2.0561647 4.8658611-1.2820426 1.7212944.7741221 2.6672737 2.6460848 2.2695124 4.4910524-.3977613 1.8449675-2.0310197 3.1608658-3.9183735 3.1569902h-24c-1.8872301.0034042-3.5200877-1.3127316-3.9175153-3.1576437-.39742764-1.844912.5487123-3.7166109 2.2699578-4.490538s3.749256-.2395016 4.8655575 1.2821817c-.7146165.2413806-1.4637187.3649926-2.218.366-.5522847 0-1 .4477153-1 1s.4477153 1 1 1c1.3892634-.0016168 2.758958-.3276041 4-.952h.016c.009 0 .015-.012.024-.016 3.0374575-1.5258476 4.9561132-4.6328319 4.96-8.032v-3c0-1.1045695.8954305-2 2-2s2 .8954305 2 2v3c.0040742 3.3985859 1.9222522 6.5050363 4.959 8.031zm2.914-9.783c-1.0825538.6066241-2.2106172 1.1281946-3.374 1.56-.8051358.3018604-1.6317906.5428705-2.473.721-.011-.175-.024-.35-.024-.529v-2h1c1.6568542 0 3-1.3431458 3-3v-1c-.0033061-2.7600532-2.2399468-4.9966939-5-5h-6c-2.7600532.0033061-4.9966939 2.2399468-5 5v1c0 1.6568542 1.3431458 3 3 3h1v2c0 .179-.014.354-.027.529-.8421444-.1778736-1.6695329-.4195713-2.475-.723-1.1633152-.4307981-2.291098-.9520591-3.373-1.559-6.343-3.708-8.588-11.927-8-18.41.015-.132.047-.6.092-1.254.067-.992.166-2.435.279-3.807.692-.077 1.232-.165 1.491-.21.5222376-.0908501.8828515-.5734234.822-1.1-.037-.309-.131-1.013-.3-1.88 4.234-.316 11.813-1.494 15.513-5.837 3.668 4.344 11.252 5.522 15.479 5.837-.173.867-.266 1.571-.3 1.88-.0608515.5265766.2997624 1.0091499.822 1.1.259.046.8.133 1.491.21.114 1.379.213 2.828.28 3.82.045.65.076 1.11.089 1.224.579 6.5-1.666 14.719-8.01 18.428zm12.636-23.6c.3618529 1.2670508.5221453 2.5831353.475 3.9-.6007541-.3543175-1.2845582-.5433814-1.982-.548h-1.25c-.06-.879-.138-1.993-.227-3.089.131 0 .261.007.393.007.8719635.0127272 1.742364-.0779045 2.593-.27zm.493 10.352c0 1.1045695-.8954305 2-2 2h-1.575c.4743383-2.3010982.6297962-4.656521.462-7h1.113c1.1045695 0 2 .8954305 2 2zm-8.949 12.508c2.3106167-2.3836013 3.9861222-5.3089451 4.873-8.508h1.962c-.127 1.742-.1 5.024 1.607 6.99-1.887 1.51-5.357 3.568-8.442 1.518zm9.355-29.3c.4756919.6384902.6780549 1.4398919.5625134 2.2276753-.1155416.7877833-.5395094 1.4973232-1.1785134 1.9723247-.843.627-3.438.583-5.473.331.343-2.02 1.047-4.517 1.891-5.145.6386133-.4755862 1.4400971-.6777859 2.2278888-.5620555.7877916.1157303 1.4972594.539896 1.9721112 1.1790555zm-10.541-11.208c1.0484759.00142362 2.0201357.5501235 2.5628154 1.4472313s.5776303 2.01244308.0921846 2.9417687c-.486.93-2.842 2.021-4.784 2.678-.57-1.967-1.022-4.523-.535-5.455.5178008-.99217979 1.5448326-1.61364195 2.664-1.612zm-12.987.112c.0807514.00897427.1622486.00897427.243 0 2.7839754-.24656257 5.5893746-.05728669 8.315.561l-.008.012c-1.162 2.227.386 7.02.71 7.959.1390389.4031999.5185004.6738423.945.674.0923285.0001515.1842226-.0126396.273-.038.907-.258 5.3-1.6 6.732-3.642.7102526.86636572 1.3048992 1.8213634 1.769 2.841-.2967863.1414457-.5788303.3119449-.842.509-1.023486.9899337-1.7326709 2.2594408-2.039 3.65-.092-.014-.18-.039-.274-.047-3.147-.23-10.827-1.192-14.157-5.135-.3816352-.46005452-.9472672-.72767717-1.545-.731-.5972188.00337039-1.1623978.27058583-1.544.73-3.333 3.945-11.013 4.907-14.166 5.138-.091.007-.178.032-.268.045-.30628816-1.390286-1.01549429-2.6594832-2.039-3.649-.26319402-.1967355-.54523927-.3669006-.842-.508.46378407-1.0203362 1.05881401-1.97574589 1.77-2.842 1.432 2.044 5.825 3.384 6.732 3.642.0887637.0254253.1806669.0382177.273.038.4267617-.0003048.8063025-.2714053.945-.675.323-.938 1.871-5.731.709-7.958l-.008-.012c2.7262997-.61598937 5.5316689-.80524047 8.316-.561zm-14.129.228c.7057527-.36916858 1.5293408-.44253623 2.2892357-.20393185s1.393717.76959376 1.7617643 1.47593185c.485.93.035 3.486-.535 5.455-1.942-.658-4.3-1.748-4.783-2.677-.76524464-1.46823915-.1986734-3.27885251 1.267-4.049zm-9.156 10.869c.47500145-.639004 1.18454136-1.0629718 1.9723247-1.1785134.78778335-.1155415 1.58918513.0868215 2.2276753.5625134.841.626 1.547 3.124 1.89 5.145-2.034.253-4.629.3-5.471-.33-.63918151-.4745352-1.06354611-1.1836623-1.17964573-1.9712266-.11609961-.7875642.08558653-1.5889813.56064573-2.2277734z" fill="#000"/></g></g></g></svg>