<?xml version="1.0" encoding="UTF-8" standalone="no"?>
<!-- Created with Inkscape (http://www.inkscape.org/) -->

<svg
   xmlns:dc="http://purl.org/dc/elements/1.1/"
   xmlns:cc="http://creativecommons.org/ns#"
   xmlns:rdf="http://www.w3.org/1999/02/22-rdf-syntax-ns#"
   xmlns:svg="http://www.w3.org/2000/svg"
   xmlns="http://www.w3.org/2000/svg"
   xmlns:sodipodi="http://sodipodi.sourceforge.net/DTD/sodipodi-0.dtd"
   xmlns:inkscape="http://www.inkscape.org/namespaces/inkscape"
   width="513.42102mm"
   height="424.03201mm"
   viewBox="0 0 513.42101 424.03201"
   version="1.1"
   id="svg4275"
   inkscape:version="0.92.4 (fd57863, 2020-04-02)"
   sodipodi:docname="smartphone-cleaning.svg">
  <defs
     id="defs4269" />
  <sodipodi:namedview
     id="base"
     pagecolor="#ffffff"
     bordercolor="#666666"
     borderopacity="1.0"
     inkscape:pageopacity="0.0"
     inkscape:pageshadow="2"
     inkscape:zoom="0.24748737"
     inkscape:cx="1188.423"
     inkscape:cy="728.52665"
     inkscape:document-units="mm"
     inkscape:current-layer="layer2"
     showgrid="false"
     inkscape:window-width="1366"
     inkscape:window-height="743"
     inkscape:window-x="0"
     inkscape:window-y="0"
     inkscape:window-maximized="1" />
  <metadata
     id="metadata4272">
    <rdf:RDF>
      <cc:Work
         rdf:about="">
        <dc:format>image/svg+xml</dc:format>
        <dc:type
           rdf:resource="http://purl.org/dc/dcmitype/StillImage" />
        <dc:title></dc:title>
      </cc:Work>
    </rdf:RDF>
  </metadata>
  <g
     inkscape:label="Layer 1"
     inkscape:groupmode="layer"
     id="layer1"
     style="display:inline"
     transform="translate(0,127.03199)">
    <g
       transform="matrix(0.26458333,0,0,0.26458333,103.60021,75.146942)"
       id="g4151" />
    <g
       transform="matrix(0.26458333,0,0,0.26458333,103.60021,75.146942)"
       id="g4153" />
    <g
       transform="matrix(0.26458333,0,0,0.26458333,103.60021,75.146942)"
       id="g4155" />
    <g
       transform="matrix(0.26458333,0,0,0.26458333,103.60021,75.146942)"
       id="g4157" />
    <g
       transform="matrix(0.26458333,0,0,0.26458333,103.60021,75.146942)"
       id="g4159" />
    <g
       transform="matrix(0.26458333,0,0,0.26458333,103.60021,75.146942)"
       id="g4161" />
    <g
       transform="matrix(0.26458333,0,0,0.26458333,103.60021,75.146942)"
       id="g4163" />
    <g
       transform="matrix(0.26458333,0,0,0.26458333,103.60021,75.146942)"
       id="g4165" />
    <g
       transform="matrix(0.26458333,0,0,0.26458333,103.60021,75.146942)"
       id="g4167" />
    <g
       transform="matrix(0.26458333,0,0,0.26458333,103.60021,75.146942)"
       id="g4169" />
    <g
       transform="matrix(0.26458333,0,0,0.26458333,103.60021,75.146942)"
       id="g4171" />
    <g
       transform="matrix(0.26458333,0,0,0.26458333,103.60021,75.146942)"
       id="g4173" />
    <g
       transform="matrix(0.26458333,0,0,0.26458333,103.60021,75.146942)"
       id="g4175" />
    <g
       transform="matrix(0.26458333,0,0,0.26458333,103.60021,75.146942)"
       id="g4177" />
    <g
       transform="matrix(0.26458333,0,0,0.26458333,103.60021,75.146942)"
       id="g4179" />
    <path
       inkscape:connector-curvature="0"
       style="display:inline;fill:#cccccc;stroke-width:0.82378113"
       d="m 305.25814,-119.40843 h 184.36473 c 10.18227,0 18.43641,9.49212 18.43641,21.201606 V 269.28735 c 0,11.70941 -8.25414,21.20151 -18.43641,21.20151 H 305.25814 c -10.18229,0 -18.43646,-9.4921 -18.43646,-21.20151 V -98.206824 c 0,-11.709486 8.25417,-21.201606 18.43646,-21.201606 z"
       id="path4135" />
    <rect
       x="280.6763"
       y="-55.803711"
       style="display:inline;fill:#29abe2;stroke-width:0.82378113"
       width="221.23764"
       height="296.82224"
       id="rect4137" />
    <rect
       x="391.29547"
       y="255.15309"
       width="12.29098"
       height="14.134391"
       id="rect4139"
       style="display:inline;stroke-width:0.82378113" />
    <rect
       x="379.00452"
       y="-98.206917"
       width="12.29098"
       height="14.134391"
       id="rect4141"
       style="display:inline;stroke-width:0.82378113" />
    <rect
       x="403.58643"
       y="-98.206917"
       width="12.29098"
       height="14.134391"
       id="rect4143"
       style="display:inline;stroke-width:0.82378113" />
    <path
       inkscape:connector-curvature="0"
       d="m 305.25814,297.5561 h 184.36473 c 13.57616,0 24.58187,-12.65645 24.58187,-28.26875 V -98.206824 c 0,-15.612346 -11.00571,-28.268786 -24.58187,-28.268786 H 305.25814 c -13.57618,0 -24.58195,12.65644 -24.58195,28.268786 V 269.28735 c 0,15.6123 11.00577,28.26875 24.58195,28.26875 z M 292.96713,-98.206824 c 0,-7.806636 5.50253,-14.134396 12.29101,-14.134396 h 184.36473 c 6.78839,0 12.29091,6.32776 12.29091,14.134396 v 28.268757 H 292.96713 Z m 0,42.403115 H 501.91378 V 226.88412 H 292.96713 Z m 0,296.822179 h 208.94665 v 28.26888 c 0,7.80653 -5.50252,14.13436 -12.29091,14.13436 H 305.25814 c -6.78848,0 -12.29101,-6.32783 -12.29101,-14.13436 z"
       id="path4145"
       style="display:inline;stroke-width:0.82378113" />
    <path
       inkscape:connector-curvature="0"
       d="M 305.25814,-20.467723 V 106.7418 h 12.29098 V -20.467723 c 0,-3.902855 2.75164,-7.067199 6.14549,-7.067199 h 18.43646 v -14.134396 h -18.43646 c -10.1823,0 -18.43647,9.492144 -18.43647,21.201595 z"
       id="path4147"
       style="display:inline;stroke-width:0.82378113" />
    <rect
       x="354.42255"
       y="-41.669304"
       width="12.29098"
       height="14.134391"
       id="rect4149"
       style="display:inline;stroke-width:0.82378113" />
  </g>
  <g
     inkscape:groupmode="layer"
     id="layer2"
     inkscape:label="smartphone"
     transform="translate(0,127.03199)">
    <path
       inkscape:connector-curvature="0"
       style="display:inline;fill:#c6de3a;stroke-width:0.75773406"
       d="m 174.94845,-50.963928 h 34.83297 v 63.29568 h -34.83297 z"
       id="path3917" />
    <path
       inkscape:connector-curvature="0"
       style="display:inline;fill:#9fc83e;stroke-width:0.75773406"
       d="m 174.94845,-50.963928 h 17.41648 v 63.29568 h -17.41648 z"
       id="path3919" />
    <path
       inkscape:connector-curvature="0"
       style="display:inline;fill:#9fc83e;stroke-width:0.75773406"
       d="m 163.33745,-0.32739628 h 58.05497 V 50.30918 h -58.05497 z"
       id="path3921" />
    <path
       inkscape:connector-curvature="0"
       style="display:inline;fill:#75ae43;stroke-width:0.75773406"
       d="m 163.33745,-0.32739628 h 17.41649 V 50.30918 h -17.41649 z"
       id="path3923" />
    <path
       inkscape:connector-curvature="0"
       style="display:inline;fill:#3c9ddc;stroke-width:0.75773406"
       d="M 140.11544,37.649997 H 244.61443 V 278.17361 H 140.11544 Z"
       id="path3925" />
    <path
       inkscape:connector-curvature="0"
       style="display:inline;fill:#306bb4;stroke-width:0.75773406"
       d="M 163.33745,164.24139 V 37.649997 H 140.11544 V 278.17361 h 104.49899 v -25.31825 a 81.276983,88.61396 0 0 1 -81.27698,-88.61397 z"
       id="path3927" />
    <path
       inkscape:connector-curvature="0"
       style="display:inline;fill:#9fd9f1;stroke-width:0.75773406"
       d="m 140.11544,37.649997 a 215.4036,234.84836 0 0 0 84.85171,18.988713 h 2.2308 v 92.15697 a 412.96108,450.23965 0 0 0 17.41648,129.37793 V 37.649997 Z"
       id="path3929" />
    <path
       inkscape:connector-curvature="0"
       style="display:inline;fill:#efad15;stroke-width:0.75773406"
       d="M 0.78347847,246.52575 H 99.476958 l 46.444012,-50.63654 v -82.28439 h 34.63774 A 35.028203,38.190244 0 0 0 215.58694,75.414613 V 62.968284 h -98.6935 V 18.661283 l 11.61104,-69.625211 h 34.83297 a 34.832993,37.977412 0 0 0 34.83301,-37.97744 H 87.865958 L 41.421978,18.661283 29.810958,145.25268 H 0.78347847 Z"
       id="path3931" />
    <path
       inkscape:connector-curvature="0"
       style="display:inline;fill:#cf7e2c;stroke-width:0.75773406"
       d="m 128.50448,-50.963928 h 34.83297 a 34.738653,37.874556 0 0 0 26.06448,-12.795261 c -0.93828,0.07919 -1.88676,0.136078 -2.84251,0.136078 h -55.94394 z"
       id="path3933" />
    <path
       inkscape:connector-curvature="0"
       style="display:inline;fill:#cf7e2c;stroke-width:0.75773406"
       d="M 55.616418,104.42696 64.643958,6.0021784 105.62426,-88.941368 H 87.865958 L 41.421978,18.661283 29.810958,145.25268 a 47.104365,51.356539 0 0 0 25.80546,-40.82572 z"
       id="path3935" />
    <path
       inkscape:connector-curvature="0"
       style="display:inline;fill:#cf7e2c;stroke-width:0.75773406"
       d="M 24.005488,233.86664 V 145.25268 H 0.78347847 V 246.52575 H 99.476958 l 11.611002,-12.65911 z"
       id="path3937" />
    <path
       inkscape:connector-curvature="0"
       style="display:inline;fill:#cf7e2c;stroke-width:0.75773406"
       d="m 203.78072,100.94572 h -57.85975 v 12.6591 h 34.63774 a 34.935314,38.08897 0 0 0 26.1596,-12.80309 c -0.96952,0.0878 -1.94411,0.14399 -2.93759,0.14399 z"
       id="path3939" />
    <g
       transform="matrix(0.72568735,0,0,0.7911961,-19.849792,-102.75212)"
       style="display:inline;fill:#000000"
       id="g3959">
      <path
         inkscape:connector-curvature="0"
         d="m 360,88 h 56 v 16 h -56 z"
         id="path3941"
         style="fill:#000000" />
      <path
         inkscape:connector-curvature="0"
         d="m 432,88 h 16 v 16 h -16 z"
         id="path3943"
         style="fill:#000000" />
      <path
         inkscape:connector-curvature="0"
         d="m 439.771,154.851 h 16 v 18.298 h -16 z"
         transform="matrix(0.437,-0.899,0.899,0.437,104.512,495.011)"
         id="path3945"
         style="fill:#000000" />
      <path
         inkscape:connector-curvature="0"
         d="m 408,139.819 h 16 v 17.694 h -16 z"
         transform="matrix(0.427,-0.904,0.904,0.427,103.932,461.351)"
         id="path3947"
         style="fill:#000000" />
      <path
         inkscape:connector-curvature="0"
         d="m 364,107.003 h 16 v 43.773 h -16 z"
         transform="matrix(0.406,-0.914,0.914,0.406,103.136,416.48)"
         id="path3949"
         style="fill:#000000" />
      <path
         inkscape:connector-curvature="0"
         d="M 438.609,20 H 456.92 V 36 H 438.609 Z"
         transform="matrix(0.9,-0.437,0.437,0.9,32.759,198.434)"
         id="path3951"
         style="fill:#000000" />
      <path
         inkscape:connector-curvature="0"
         d="m 407.203,35.556 h 16.653 v 16 h -16.653 z"
         transform="matrix(0.904,-0.427,0.427,0.904,21.189,181.605)"
         id="path3953"
         style="fill:#000000" />
      <path
         inkscape:connector-curvature="0"
         d="m 350.114,55.111 h 43.773 v 16 h -43.773 z"
         transform="matrix(0.914,-0.406,0.406,0.914,6.429,156.518)"
         id="path3955"
         style="fill:#000000" />
      <path
         inkscape:connector-curvature="0"
         d="m 464,88 h 16 v 16 h -16 z"
         id="path3957"
         style="fill:#000000" />
    </g>
    <path
       inkscape:connector-curvature="0"
       style="display:inline;fill:#fed54d;stroke-width:0.75773406"
       d="m 169.14293,62.968284 h 23.222 a 23.221995,25.318275 0 0 1 -23.222,25.318288 z"
       id="path3961" />
    <path
       inkscape:connector-curvature="0"
       style="display:inline;fill:#fed54d;stroke-width:0.75773406"
       d="m 157.53193,-88.941368 h 23.22201 a 23.221995,25.318275 0 0 1 -23.22201,25.318301 z"
       id="path3963" />
    <path
       inkscape:connector-curvature="0"
       d="M 35.587448,145.88564 47.099008,20.372694 91.550268,-82.611786 H 191.78439 a 29.079018,31.704019 0 0 1 -28.44694,25.318283 h -34.83297 a 5.8054989,6.3295687 0 0 0 -5.7119,5.197366 l -11.61101,69.625245 a 5.7931618,6.3161181 0 0 0 -0.0934,1.132175 V 56.63871 h -5.80551 a 5.8054989,6.3295687 0 0 0 -4.10521,1.853778 l -29.027482,31.647862 8.21041,8.95159 27.326502,-29.794082 h 55.65079 v 18.988714 a 5.8054989,6.3295687 0 0 0 5.80548,6.329531 29.076841,31.701645 0 0 0 28.44695,-25.318245 h 12.19154 v 6.116755 A 29.255359,31.896278 0 0 1 180.5589,107.27529 h -34.63776 a 5.8054989,6.3295687 0 0 0 -5.80552,6.32953 v 79.66317 l -43.042772,46.92819 h -55.65079 v 12.65918 h 58.05497 a 5.8054989,6.3295687 0 0 0 4.105202,-1.85377 l 46.44401,-50.63658 a 5.8054989,6.3295687 0 0 0 1.70028,-4.4758 v -75.95482 h 28.83227 A 40.880146,44.570451 0 0 0 221.3925,75.414613 V 62.968284 A 5.8054989,6.3295687 0 0 0 215.58701,56.63871 H 145.92103 V 43.97957 h 40.63849 V 31.320467 H 169.143 V 6.0021784 h 46.44401 V 31.320467 H 198.17053 V 43.97957 h 40.63849 v 227.86447 h -92.88799 v -37.9774 h -11.611 v 44.30697 a 5.8054989,6.3295687 0 0 0 5.80549,6.32958 H 244.6145 a 5.8054989,6.3295687 0 0 0 5.80552,-6.32958 V 37.649997 a 5.8054989,6.3295687 0 0 0 -5.80552,-6.32953 H 227.19801 V -0.32739628 A 5.8054989,6.3295687 0 0 0 221.3925,-6.6569701 h -5.80549 V -50.963928 a 5.8054989,6.3295687 0 0 0 -5.80548,-6.329575 H 191.7402 a 40.510045,44.166938 0 0 0 12.2358,-31.647865 5.8054989,6.3295687 0 0 0 -5.80547,-6.329573 H 87.866038 a 5.8054989,6.3295687 0 0 0 -5.25254,3.634772 L 36.169518,15.966474 a 5.7815509,6.3034593 0 0 0 -0.52394,2.065052 L 24.557078,138.92312 H 0.78355847 v 12.65913 H 29.811038 a 5.8054989,6.3295687 0 0 0 5.7765,-5.69661 z M 185.56451,69.297858 A 17.499951,19.079693 0 0 1 174.94845,80.87226 V 69.297858 Z m 18.41143,-75.9548281 h -23.222 V -44.634399 h 23.222 z m -34.83301,0 h -5.80548 a 5.8054989,6.3295687 0 0 0 -5.80552,6.32957382 V 31.320467 h -17.41649 a 5.8054989,6.3295687 0 0 0 -5.80552,6.32953 V 56.63871 H 122.69896 V 19.231782 l 10.65089,-63.866181 h 29.9876 a 40.740089,44.417749 0 0 0 5.80548,-0.459654 z"
       id="path3965"
       style="display:inline;stroke-width:0.75773406" />
    <path
       style="display:inline;stroke-width:0.29420751"
       d="m 317.54919,-62.744682 v -6.940965 h 6.17294 6.17292 v 6.940965 6.940973 h -6.17292 -6.17294 z"
       id="path4504"
       inkscape:connector-curvature="0" />
  </g>
</svg>
