<svg id="Capa_1" enable-background="new 0 0 512 512" height="512" viewBox="0 0 512 512" width="512" xmlns="http://www.w3.org/2000/svg"><g><g><path clip-rule="evenodd" d="m208.012 162.562c97.96 25.596 129.026 27.325 219.672 38.096l-6.264-57.57c-1.842-17.177-.964-22.563 7.596-31.01 13.549-13.322 34.014-23.584 36.451-63.551-44.076 11.253-53.147 18.283-91.185-5.187-113.69-70.098-173.044-12.245-212.16 16.668-35.828-13.067-67.631 12.529-72.79 47.224-4.96 33.504-4.989 44.531-4.989 93.427 26.446-25.851 45.437-34.865 74.462-43.029 20.579-5.754 29.252-.283 49.207 4.932z" fill="#ffcd69" fill-rule="evenodd"/></g><g><path clip-rule="evenodd" d="m298.772 427.849c64.541-23.98 118.425-90.678 127.552-149.211.879-5.754 1.361-11.423 1.361-16.951v-61.028c-90.647-10.771-121.713-12.5-219.672-38.096-19.955-5.216-28.628-10.686-49.207-4.932-29.025 8.164-48.016 17.177-74.462 43.029v61.028c0 5.527.454 11.197 1.332 16.951 4.79 30.613 21.797 63.466 46.174 91.273 54.507-46.969 125.568-68.993 151.673-54.622 26.162 14.428 3.94 62.474-28.515 121.206h.992c13.606-.002 27.239-2.893 42.772-8.647z" fill="#ffdcd5" fill-rule="evenodd"/></g><g><path clip-rule="evenodd" d="m426.324 278.637h14.824c44.275 0 47.874-77.979 8.844-77.979h-22.307v61.028c0 5.528-.482 11.197-1.361 16.951z" fill="#ffdcd5" fill-rule="evenodd"/></g><g><path clip-rule="evenodd" d="m62.008 200.659c-39.031 0-35.431 77.979 8.844 77.979h14.824c-.879-5.754-1.332-11.423-1.332-16.951v-61.028z" fill="#ffdcd5" fill-rule="evenodd"/></g><g><path clip-rule="evenodd" d="m186.272 470.083c6.094 0 13.832 4.138 17.177 9.241l14.881 22.676c12.387-22.506 25.17-44.673 36.678-65.507 32.455-58.732 54.677-106.778 28.515-121.206-26.106-14.371-97.166 7.653-151.673 54.622-19.416 16.724-36.707 36.651-49.15 59.186l27.126-.085c6.122 0 13.861 4.138 17.205 9.241l14.909 22.676c3.345 5.102 11.083 9.269 17.177 9.241z" fill="#faf7f5" fill-rule="evenodd"/></g><g><path d="m478.453 205.514c-6.706-9.579-16.812-14.855-28.461-14.855h-13.337l-5.292-48.636c-1.707-15.915-.641-17.58 4.664-22.814 2.045-2.011 4.354-4.022 6.798-6.152 12.803-11.157 30.338-26.437 32.624-63.919.194-3.189-1.146-6.279-3.609-8.315s-5.748-2.772-8.845-1.982c-5.34 1.363-10.24 2.683-14.562 3.848-31.586 8.511-39.09 10.534-68.903-7.859-48.793-30.085-92.523-40.526-133.691-31.921-34.956 7.308-60.38 26.744-80.808 42.362-1.64 1.253-3.23 2.469-4.781 3.644-16.616-4.598-33.456-2.477-47.95 6.146-17.393 10.349-29.677 29.303-32.859 50.706-4.728 31.94-5.07 44.259-5.094 84.893h-12.339c-11.649 0-21.755 5.276-28.461 14.855-5.501 7.86-8.531 18.435-8.531 29.778 0 25.86 16.064 53.345 45.835 53.345h6.539c5.83 26.732 19.88 54.699 40.603 80.33-18.157 16.9-33.248 35.701-44.051 55.302-1.71 3.103-1.651 6.878.155 9.926 1.802 3.038 5.071 4.901 8.602 4.901h.031l27.095-.085c2.739 0 7.367 2.472 8.85 4.735l14.902 22.665c5.151 7.858 16.089 13.758 25.467 13.758h.104l27.123-.085c2.725 0 7.338 2.472 8.817 4.727l14.881 22.676c1.852 2.824 4.999 4.513 8.359 4.513.129 0 .259-.002.389-.007 3.505-.136 6.682-2.099 8.373-5.171 6.526-11.859 13.226-23.729 19.704-35.209 4.891-8.666 9.637-17.08 14.18-25.24 12.896-.601 26.154-3.547 41.287-9.152 12.768-4.752 25.471-11.206 37.756-19.183 4.633-3.008 5.949-9.2 2.941-13.832-3.006-4.632-9.199-5.948-13.831-2.941-11.059 7.18-22.445 12.971-33.828 17.208-8.113 3.006-15.535 5.124-22.573 6.429 22.816-42.637 37.175-76.724 30.772-99.277-2.398-8.45-7.496-14.874-15.154-19.095-21.032-11.577-61.377-4.969-105.293 17.241-17.904 9.055-34.722 19.928-49.91 32.107-24.422-30.476-38.798-65.116-38.798-94.19v-56.771c23.821-22.589 40.967-30.29 67.156-37.656 13.762-3.848 20.209-1.935 33.047 1.875 3.217.955 6.862 2.037 10.938 3.102 87.216 22.789 122.089 26.837 191.566 34.903 6.54.759 13.399 1.556 20.635 2.407v52.141c0 24.344-9.957 52.596-28.038 79.552-3.076 4.586-1.852 10.798 2.734 13.874 1.71 1.147 3.645 1.696 5.561 1.696 3.22 0 6.383-1.554 8.313-4.43 14.052-20.948 23.722-42.854 28.334-63.742h6.559c29.771 0 45.835-27.485 45.835-53.345 0-11.345-3.03-21.921-8.53-29.781zm-286.376 136.101c40.558-20.513 74.277-24.364 86.619-17.57 2.924 1.612 4.64 3.783 5.565 7.04 6.318 22.254-24.795 77.384-54.883 130.699-3.869 6.854-7.815 13.847-11.762 20.903l-5.804-8.845c-5.141-7.843-16.121-13.758-25.571-13.758l-27.17.085c-.007 0-.013 0-.021 0-2.697 0-7.266-2.465-8.754-4.735l-14.902-22.666c-5.141-7.843-16.133-13.758-25.599-13.758l-9.117.029c21.124-30.654 53.602-58.308 91.399-77.424zm-121.225-72.977c-18.956 0-25.836-19.942-25.836-33.346 0-7.172 1.792-13.846 4.917-18.31 2.978-4.255 6.928-6.324 12.076-6.324h12.336v51.029c0 2.298.072 4.616.213 6.951zm328.504-81.363c-68.549-7.958-102.957-11.953-188.816-34.386-3.757-.982-7.085-1.97-10.304-2.926-8.652-2.568-16.167-4.799-25.296-4.799-5.496 0-11.577.809-18.841 2.84-23.667 6.656-41.37 13.887-61.729 30.277.123-30.7.826-42.375 4.854-69.579 2.306-15.517 11.018-29.145 23.301-36.454 7.625-4.537 20.087-8.713 36.171-2.846 3.156 1.151 6.671.643 9.37-1.353 2.944-2.176 5.939-4.466 9.11-6.89 38.993-29.809 92.393-70.634 191.856-9.308 37.151 22.923 52.021 18.928 84.569 10.157-4.143 18.744-13.799 27.157-23.914 35.972-2.56 2.231-5.207 4.537-7.693 6.982-11.996 11.838-12.415 21.479-10.514 39.209l4.906 45.087c-5.921-.694-11.583-1.351-17.03-1.983zm41.792 81.363h-3.691c.146-2.34.227-4.66.227-6.951v-51.029h12.308c5.148 0 9.098 2.069 12.076 6.324 3.125 4.464 4.917 11.138 4.917 18.31 0 13.404-6.881 33.346-25.837 33.346z"/><path d="m364.091 289.262c2.564-4.89.679-10.934-4.212-13.499l-24.95-13.084 24.95-13.084c4.89-2.565 6.776-8.609 4.212-13.499-2.565-4.89-8.608-6.777-13.5-4.212l-41.836 21.94c-3.293 1.726-5.355 5.137-5.355 8.855s2.062 7.129 5.355 8.855l41.836 21.94c1.482.778 3.07 1.146 4.635 1.146 3.599 0 7.077-1.949 8.865-5.358z"/><path d="m147.909 289.262c1.788 3.409 5.265 5.358 8.865 5.358 1.564 0 3.153-.369 4.635-1.146l41.836-21.94c3.293-1.726 5.355-5.137 5.355-8.855s-2.062-7.129-5.355-8.855l-41.836-21.94c-4.89-2.566-10.934-.679-13.5 4.212-2.564 4.89-.679 10.934 4.212 13.499l24.95 13.084-24.95 13.084c-4.89 2.565-6.776 8.609-4.212 13.499z"/><path d="m188.521 391.249c1.808 0 3.637-.49 5.284-1.517 18.325-11.435 37.643-19.831 55.866-24.28 5.365-1.31 8.652-6.721 7.342-12.086-1.309-5.365-6.717-8.65-12.086-7.343-20.263 4.947-41.602 14.194-61.709 26.742-4.685 2.924-6.113 9.092-3.189 13.777 1.896 3.039 5.156 4.707 8.492 4.707z"/><path d="m361.968 374.631-.028.028c-3.905 3.905-3.89 10.223.015 14.128 1.949 1.949 4.506 2.922 7.063 2.922 2.567 0 5.136-.98 7.092-2.936 3.905-3.905 3.905-10.237 0-14.142-3.906-3.905-10.236-3.905-14.142 0z"/></g></g></svg>