<svg id="Layer_1" enable-background="new 0 0 512 512" height="512" viewBox="0 0 512 512" width="512" xmlns="http://www.w3.org/2000/svg"><g><g><path d="m504.5 342.177v125.08c0 20.57-16.68 37.24-37.25 37.24h-422.5c-20.57 0-37.25-16.67-37.25-37.24v-125.47c7.46-5.04 15.69-9.03 24.47-11.76 8.74-2.71 18.03-4.17 27.65-4.17h392.18c6.76 0 13.35.72 19.7 2.09 2.1.45 4.17.98 6.22 1.57 9.67 2.78 18.68 7.1 26.78 12.66z" fill="#9fc3d7"/><path d="m504.5 342.177v125.08c0 20.57-16.68 37.24-37.25 37.24h-32.99c20.57 0 37.24-16.67 37.24-37.24v-139.31c2.1.45 4.17.98 6.22 1.57 9.67 2.78 18.68 7.1 26.78 12.66z" fill="#7ca3bf"/><path d="m477.719 329.517v.51c-59.68 59.67-141.4 90.01-222.88 90.2-81.47-.19-163.2-30.53-222.87-90.2 8.74-2.71 18.03-4.17 27.65-4.17h392.18c9 0 17.701 1.28 25.92 3.66z" fill="#e4f4ff"/><path d="m433.143 325.848-.23.19c-104.81 82.09-252.12 82.02-356.84-.19 11.92 0 23.32-3.29 33.78-9.23 10.46-5.93 19.99-14.5 28.16-25.06 13.93-19.53 22.11-42.93 26.32-62.88 2.58-12.22 3.66-23.14 3.66-31.1h173.23c0 8.03 1.1 19.08 3.73 31.43 4.23 19.88 12.4 43.13 26.25 62.55 16.35 21.11 38.1 34.29 61.94 34.29z" fill="#ffeac5"/><path d="m344.953 229.008c-3.54 3-7.15 5.99-10.81 8.95-22.24 18.08-50.32 28.05-79.03 28.05h-.47c-28.77 0-56.89-9.99-79.21-28.15-3.8-3.08-7.5-6.14-11.1-9.18 2.58-12.22 3.66-23.14 3.66-31.1h173.23c0 8.03 1.1 19.08 3.73 31.43z" fill="#ffc69f"/><path d="m413.359 83.427c0 32.74-24.09 70.99-71.7 113.97-7.39 6.66-15.34 13.45-23.86 20.34-17.78 14.45-40.01 22.33-62.94 22.27-22.96.05-45.22-7.84-63.02-22.32-63.37-51.28-95.51-96.46-95.51-134.26 0-4.01.14-8.03.49-11.88.65-6.63 1.1-18.76 1.35-34.05.15-9.05.22-19.21.23-30h312.88c.02 28.96.55 53.41 1.59 63.95.331 3.95.49 7.97.49 11.98z" fill="#ffeac5"/><g><circle cx="254.843" cy="311.949" fill="#ff2261" r="18.252"/><path d="m273.095 311.949c0 10.08-8.17 18.25-18.25 18.25-3.32 0-6.44-.89-9.12-2.45 5.45-3.15 9.12-9.05 9.12-15.8s-3.67-12.65-9.12-15.8c2.68-1.56 5.8-2.45 9.12-2.45 10.08 0 18.25 8.17 18.25 18.25z" fill="#b7305d"/></g><path d="m412.87 71.447c.33 3.95.49 7.97.49 11.98 0 32.74-24.09 70.99-71.7 113.97-.14 0-.21 0-.21 0s44.52-70.69 39.05-113.97c-.51-3.98-.17-8.03-.49-11.98-1.04-10.54-1.57-34.99-1.59-63.95h32.86c.019 28.96.55 53.41 1.59 63.95z" fill="#ffc69f"/><path d="m300.676 155.555c-14.722-3.445-30.065-5.267-45.836-5.267s-31.114 1.822-45.828 5.267c9.417-15.45 21.219-34.762 45.828-34.762 24.617 0 36.419 19.313 45.836 34.762z" fill="#ffc69f"/><g><path d="m37.053 209.068 20.49-15.33-50.04-24.8 21.51-16.09 18.72-13.99 56.96 46.17-15.86 12.71 29.49 44.96z" fill="#ffe527"/></g></g><path d="m71.813 183.078-14.27 10.66-50.04-24.8 21.51-16.09z" fill="#ffbd29"/><g><g><path d="m474.949 209.452-20.49-15.33 50.041-24.8-21.51-16.09-18.72-13.99-56.96 46.17 15.86 12.71-29.49 44.96z" fill="#ffe527"/></g><path d="m440.19 183.462 14.269 10.66 50.041-24.8-21.51-16.09z" fill="#ffbd29"/></g></g><g><path d="m237.729 71.815c0-9.437 7.678-17.113 17.114-17.113s17.113 7.677 17.113 17.113c0 4.142 3.357 7.5 7.5 7.5s7.5-3.358 7.5-7.5c0-17.708-14.406-32.113-32.113-32.113-17.708 0-32.114 14.406-32.114 32.113 0 4.142 3.357 7.5 7.5 7.5s7.5-3.358 7.5-7.5z"/><path d="m508.746 335.995c-16.803-11.542-36.495-17.643-56.947-17.643h-18.42c-20.402 0-40.258-11.105-55.921-31.271-21.232-29.842-27.752-67.675-28.439-86.273 47.691-43.657 71.843-83.057 71.843-117.378 0-4.228-.175-8.47-.519-12.61-.004-.039-.007-.077-.011-.115-.964-9.771-1.529-32.81-1.551-63.211-.003-4.14-3.36-7.495-7.5-7.495h-32.864c-4.143 0-7.5 3.358-7.5 7.5s3.357 7.5 7.5 7.5h25.381c.105 27.117.678 47.703 1.601 57.119.308 3.71.463 7.515.463 11.311 0 35.438-31.216 78.662-92.793 128.483-16.346 13.286-36.919 20.595-57.989 20.595-.14.001-.275 0-.415 0-21.106 0-41.732-7.326-58.105-20.649-61.534-49.793-92.735-93.002-92.735-128.428 0-3.997.156-7.771.457-11.15.813-8.276 1.202-23.415 1.386-34.657.113-6.916.187-14.499.218-22.623h237.759c4.143 0 7.5-3.358 7.5-7.5s-3.357-7.5-7.5-7.5h-245.244c-4.14 0-7.497 3.354-7.5 7.495-.008 10.906-.086 20.96-.232 29.883-.256 15.721-.711 27.283-1.322 33.502-.347 3.887-.522 8.11-.522 12.55 0 34.32 24.156 73.721 71.844 117.371-.685 18.595-7.204 56.433-28.437 86.279-15.663 20.166-35.515 31.269-55.916 31.272-.002 0-.005 0-.007 0h-16.686c-10.186 0-20.19 1.521-29.745 4.471-.071.021-.141.046-.211.069-9.302 2.894-18.176 7.141-26.367 12.679-2.063 1.395-3.3 3.723-3.3 6.213v125.471c0 24.672 20.072 44.745 44.745 44.745 4.143 0 7.5-3.358 7.5-7.5s-3.357-7.5-7.5-7.5c-16.401 0-29.745-13.344-29.745-29.746v-121.38c4.785-2.926 9.818-5.348 15.029-7.266 29.177 28.293 63.607 50.43 102.441 65.797 38.854 15.375 80.021 23.219 122.391 23.317 52.447-.121 104.354-12.515 150.111-35.845 3.69-1.881 5.157-6.398 3.275-10.088s-6.398-5.155-10.088-3.275c-43.668 22.264-93.231 34.093-143.299 34.208-40.45-.093-79.771-7.584-116.871-22.265-34.007-13.456-64.457-32.344-90.715-56.215 4.064-.586 8.187-.891 12.348-.891h14.138c25.849 19.929 54.536 35.359 85.324 45.853 30.813 10.501 62.979 15.835 95.605 15.852h.155c32.574 0 64.692-5.3 95.468-15.753 30.894-10.494 59.68-25.957 85.615-45.951h15.871c3.644 0 7.256.239 10.826.689-11.259 10.242-23.384 19.656-36.195 28.064-3.463 2.272-4.428 6.922-2.155 10.385 1.44 2.194 3.835 3.386 6.277 3.386 1.412 0 2.84-.398 4.108-1.231 16.327-10.715 31.593-22.991 45.465-36.493 5.875 2.057 11.531 4.752 16.875 8.078v121.024c.001 16.402-13.343 29.746-29.745 29.746h-387.715c-4.143 0-7.5 3.358-7.5 7.5s3.357 7.5 7.5 7.5h387.715c24.673 0 44.746-20.073 44.746-44.746v-125.077c0-2.471-1.217-4.783-3.254-6.182zm-163.259 29.105c-29.217 9.924-59.713 14.957-90.642 14.957-.05 0-.099 0-.148 0-30.979-.016-61.521-5.08-90.774-15.05-24.277-8.275-47.186-19.774-68.315-34.278 18.017-4.955 34.809-16.81 48.572-34.579.06-.078.119-.157.176-.237 19.416-27.219 27.655-60.523 30.323-82.733 4.007 3.418 8.145 6.86 12.43 10.327 19.025 15.482 43.01 24.002 67.523 24.002.159 0 .319.001.481 0 24.471-.001 48.405-8.502 67.404-23.944 4.307-3.485 8.465-6.943 12.491-10.379 2.669 22.21 10.908 55.51 30.323 82.726.057.08.115.159.176.237 13.764 17.77 30.56 29.62 48.579 34.573-21.212 14.562-44.217 26.096-68.599 34.378z"/><path d="m202.606 151.652c-1.573 2.581-1.443 5.854.329 8.302 1.773 2.448 4.842 3.593 7.785 2.904 28.733-6.728 59.489-6.729 88.246 0 .568.133 1.142.198 1.709.198 2.371 0 4.646-1.127 6.075-3.102 1.772-2.448 1.902-5.721.329-8.302-9.867-16.188-23.381-38.359-52.24-38.359-28.852 0-42.365 22.171-52.233 38.359zm52.234-23.359c13.638 0 22.668 7.373 29.814 16.621-9.845-1.414-19.818-2.126-29.814-2.126-9.995 0-19.967.712-29.807 2.125 7.145-9.246 16.175-16.62 29.807-16.62z"/><path d="m293.095 304.449h-13.617c-.491-1.609-1.135-3.152-1.917-4.611l6.557-6.557c2.929-2.929 2.929-7.678 0-10.606-2.93-2.929-7.678-2.929-10.607 0l-6.557 6.557c-1.459-.781-3.001-1.426-4.61-1.916v-13.617c0-4.142-3.357-7.5-7.5-7.5s-7.5 3.358-7.5 7.5v13.617c-1.609.491-3.152 1.135-4.611 1.917l-17.621-17.622c-2.929-2.929-7.677-2.929-10.607 0-2.929 2.929-2.929 7.678 0 10.606l17.622 17.622c-.781 1.459-1.426 3.002-1.917 4.611h-13.617c-4.143 0-7.5 3.358-7.5 7.5s3.357 7.5 7.5 7.5h13.617c.491 1.609 1.136 3.152 1.917 4.611l-6.557 6.556c-2.93 2.929-2.93 7.677-.001 10.606 1.465 1.465 3.384 2.197 5.304 2.197 1.919 0 3.839-.732 5.303-2.197l6.557-6.557c1.459.781 3.002 1.426 4.612 1.917v13.617c0 4.142 3.357 7.5 7.5 7.5s7.5-3.358 7.5-7.5v-13.617c1.609-.491 3.151-1.135 4.61-1.916l17.622 17.622c1.465 1.464 3.385 2.197 5.304 2.197s3.839-.732 5.304-2.197c2.929-2.929 2.929-7.678 0-10.606l-17.623-17.622c.781-1.459 1.426-3.002 1.917-4.611h13.617c4.143 0 7.5-3.358 7.5-7.5s-3.359-7.501-7.501-7.501zm-38.251 18.251c-5.929 0-10.752-4.823-10.752-10.751s4.823-10.751 10.752-10.751c5.928 0 10.751 4.823 10.751 10.751s-4.824 10.751-10.751 10.751z"/><path d="m4.169 175.658 39.112 19.385-10.721 8.017c-2.16 1.615-3.286 4.265-2.95 6.94s2.082 4.965 4.573 5.996l81.271 33.631c.93.385 1.903.57 2.866.57 2.188 0 4.323-.958 5.78-2.719 2.098-2.536 2.298-6.143.493-8.895l-25.747-39.258 10.536-8.451c1.77-1.419 2.802-3.563 2.808-5.832.006-2.268-1.016-4.417-2.777-5.846l-56.96-46.168c-2.669-2.163-6.465-2.236-9.214-.18l-40.23 30.082c-2.087 1.561-3.215 4.092-2.978 6.688.237 2.597 1.804 4.883 4.138 6.04zm43.376-27.297 45.197 36.633-8.597 6.896c-3.016 2.418-3.699 6.732-1.579 9.964l16.14 24.61-46.604-19.286 9.935-7.429c2.087-1.561 3.215-4.092 2.978-6.688-.236-2.595-1.804-4.881-4.138-6.039l-39.112-19.385z"/><path d="m45.842 288.234c1.019 2.501 3.303 4.262 5.981 4.609l39.629 5.143c.327.042.652.063.975.063 3.712 0 6.938-2.756 7.428-6.536.533-4.108-2.364-7.87-6.473-8.403l-26.507-3.44 7.827-9.911c1.674-2.119 2.079-4.975 1.061-7.477s-3.303-4.262-5.981-4.609l-39.629-5.143c-4.103-.531-7.869 2.364-8.402 6.472s2.364 7.87 6.473 8.403l26.507 3.44-7.827 9.911c-1.675 2.121-2.081 4.977-1.062 7.478z"/><path d="m399.809 185.428c.006 2.269 1.038 4.412 2.808 5.832l10.536 8.451-25.747 39.258c-1.805 2.752-1.604 6.359.493 8.895 1.457 1.761 3.593 2.719 5.78 2.719.963 0 1.937-.186 2.866-.57l81.271-33.631c2.491-1.031 4.237-3.321 4.573-5.996.336-2.676-.79-5.326-2.95-6.94l-10.722-8.017 39.112-19.385c2.335-1.157 3.902-3.443 4.139-6.039.237-2.595-.891-5.127-2.978-6.688l-40.231-30.081c-2.75-2.056-6.545-1.982-9.214.18l-56.96 46.168c-1.761 1.427-2.782 3.576-2.776 5.844zm28.045 6.845-8.597-6.896 45.197-36.634 25.781 19.277-39.111 19.385c-2.335 1.157-3.902 3.443-4.139 6.039-.237 2.595.891 5.127 2.978 6.688l9.935 7.429-46.604 19.286 16.14-24.61c2.119-3.232 1.435-7.545-1.58-9.964z"/><path d="m490.249 259.388c-.532-4.108-4.308-7.006-8.402-6.472l-39.629 5.143c-2.679.348-4.963 2.108-5.981 4.609s-.613 5.357 1.061 7.477l7.827 9.911-26.507 3.44c-4.108.533-7.006 4.295-6.473 8.403.49 3.78 3.716 6.536 7.428 6.536.322 0 .647-.021.975-.063l39.629-5.143c2.679-.348 4.963-2.108 5.981-4.609s.613-5.357-1.061-7.477l-7.827-9.911 26.507-3.44c4.108-.534 7.005-4.296 6.472-8.404z"/><ellipse cx="189.21" cy="345.099" rx="7.495" ry="7.498"/><ellipse cx="185.341" cy="296.799" rx="7.495" ry="7.498"/><ellipse cx="316.35" cy="258.799" rx="7.495" ry="7.498"/><ellipse cx="322.346" cy="325.803" rx="7.495" ry="7.498"/></g></svg>