<svg id="Capa_1" enable-background="new 0 0 512.666 512.666" height="512" viewBox="0 0 512.666 512.666" width="512" xmlns="http://www.w3.org/2000/svg"><g id="XMLID_27_"><path id="XMLID_1587_" d="m64.666 284.333v218h384v-218l-191.873-160.333z" fill="#fff"/><g id="XMLID_1944_"><path id="XMLID_1945_" d="m463.649 292.943-206.983-173.345-206.982 173.345-39.018-46.589 246-206.021 246 206.021z" fill="#ff5c7d"/></g><path id="XMLID_2040_" d="m219.566 502.333h157.1v-37.763c0-31.162-25.262-56.423-56.423-56.423h-29.862-67.429-29.862c-31.162 0-56.423 25.262-56.423 56.423v37.763h157.1z" fill="#ffd88e"/><path id="XMLID_2039_" d="m306.539 295.266v37.883c0 32.308-22.329 54.637-49.873 54.637-27.544 0-49.873-22.329-49.873-49.873v-42.647z" fill="#f2b394"/><path id="XMLID_2038_" d="m281.603 382.379v27.326c0 13.772-11.165 24.936-24.937 24.936-13.772 0-24.936-11.165-24.936-24.936v-27.326z" fill="#f2b394"/><path id="XMLID_2184_" d="m248.464 243.058h68.536v28.613c0 23.014-18.657 41.671-41.671 41.671h-68.535v-28.613c-.001-23.014 18.656-41.671 41.67-41.671z" fill="#8690af"/><path id="XMLID_2605_" d="m111.862 240.957c-60.665-19.304-101.862-75.646-101.862-139.307v-61.025l101.862-30.292 101.862 30.292v61.025c-.001 63.661-41.198 120.003-101.862 139.307z" fill="#a0c8ff"/><g id="XMLID_364_"><path id="XMLID_365_" d="m99.338 150.008c1.953 1.953 4.512 2.929 7.071 2.929s5.118-.976 7.071-2.929l34.584-34.584c3.905-3.905 3.905-10.237 0-14.143-3.906-3.905-10.236-3.905-14.143 0l-27.513 27.513-16.344-16.344c-3.906-3.905-10.236-3.905-14.143 0-3.905 3.905-3.905 10.237 0 14.143z"/><path id="XMLID_366_" d="m512.627 245.473c-.233-2.642-1.507-5.083-3.54-6.786l-83.504-69.933c-4.234-3.545-10.54-2.989-14.088 1.246-3.546 4.234-2.987 10.541 1.246 14.087l75.838 63.513-26.177 31.256-199.315-166.924c-3.716-3.111-9.126-3.112-12.842 0l-30.68 25.694c2.75-11.678 4.159-23.725 4.159-35.976v-20.684l32.942-27.589 87.086 72.933c1.873 1.568 4.15 2.334 6.416 2.334 2.856 0 5.693-1.218 7.672-3.58 3.546-4.234 2.987-10.541-1.246-14.087l-93.507-78.31c-3.715-3.111-9.127-3.111-12.842 0l-26.521 22.212v-14.254c0-4.425-2.908-8.324-7.149-9.585l-101.863-30.292c-1.859-.554-3.842-.554-5.701 0l-101.862 30.292c-4.241 1.261-7.149 5.16-7.149 9.585v61.025c0 33.372 10.412 65.251 30.109 92.19 3.525 4.82 7.3 9.395 11.289 13.732l-37.153 31.116c-2.033 1.703-3.307 4.143-3.54 6.786-.233 2.642.592 5.268 2.294 7.301l39.018 46.589c1.703 2.034 4.144 3.307 6.786 3.54.294.026.588.039.881.039 1.753 0 3.471-.461 4.982-1.329v200.72c0 5.523 4.478 10 10 10h384c5.523 0 10-4.477 10-10v-200.72c1.546.891 3.265 1.33 4.978 1.33 2.857 0 5.693-1.218 7.672-3.58l39.018-46.589c1.701-2.034 2.526-4.66 2.293-7.302zm-492.627-143.823v-53.566l91.861-27.318 91.862 27.318v53.566c0 58.498-36.778 109.848-91.862 128.775-55.078-18.93-91.861-70.281-91.861-128.775zm30.93 177.206-26.177-31.256 31.198-26.127c10.978 9.201 23.185 16.831 36.373 22.715zm315.736 213.477h-220v-27.763c0-25.598 20.825-46.423 46.424-46.423h29.677c3.786 15.198 17.546 26.495 33.899 26.495 16.354 0 30.113-11.297 33.899-26.495h29.678c25.598 0 46.423 20.825 46.423 46.423zm-91.338-168.991c7.558 0 14.734-1.645 21.211-4.573v14.381c0 25.864-16.77 44.637-39.873 44.637-21.986 0-39.873-17.887-39.873-39.873v-14.572zm-58.535-20v-18.613c0-17.463 14.207-31.671 31.671-31.671h58.535v18.613c0 17.463-14.207 31.671-31.671 31.671zm54.81 92.571v13.792c0 8.236-6.7 14.936-14.937 14.936-8.236 0-14.936-6.701-14.936-14.936v-13.805c4.776 1.231 9.781 1.886 14.936 1.886 5.195.001 10.192-.651 14.937-1.873zm167.063 96.42h-52v-27.763c0-36.626-29.797-66.423-66.423-66.423h-28.641v-11.846c15.293-11.473 24.937-30.609 24.937-53.151v-30.367c6.556-8.662 10.46-19.436 10.46-31.112v-28.613c0-5.523-4.477-10-10-10h-68.535c-28.491 0-51.671 23.18-51.671 51.671v53.185c0 19.982 9.849 37.696 24.937 48.577v11.656h-28.64c-36.626 0-66.424 29.797-66.424 66.423v27.763h-52v-207.269l42.012-35.184c31.031-10.279 57.61-29.61 76.937-56.04 4.199-5.743 7.972-11.712 11.316-17.87l51.735-43.328 182 152.423z"/><path id="XMLID_439_" d="m384.663 157.533c2.63 0 5.21-1.07 7.069-2.93 1.87-1.86 2.931-4.44 2.931-7.07s-1.061-5.21-2.931-7.07c-1.859-1.87-4.439-2.93-7.069-2.93s-5.21 1.06-7.07 2.93c-1.86 1.86-2.93 4.44-2.93 7.07s1.069 5.21 2.93 7.07c1.86 1.86 4.44 2.93 7.07 2.93z"/></g></g></svg>