<?xml version="1.0" encoding="iso-8859-1"?>
<!-- Generator: Adobe Illustrator 19.0.0, SVG Export Plug-In . SVG Version: 6.00 Build 0)  -->
<svg version="1.1" id="Capa_1" xmlns="http://www.w3.org/2000/svg" xmlns:xlink="http://www.w3.org/1999/xlink" x="0px" y="0px"
	 viewBox="0 0 512 512" style="enable-background:new 0 0 512 512;" xml:space="preserve">
<path style="fill:#444B75;" d="M387.46,373.15L336,356H176l-51.46,17.15C71.67,390.78,36,446.26,36,502h440
	C476,446.26,440.33,390.78,387.46,373.15z"/>
<path style="fill:#FFFFFF;" d="M355.65,161.38L332,158c-36.35-5.19-70.04-22.04-96-48c-25.18,0-48.89,11.86-64,32l-15.6,20.8
	c0.81,23.35,2.93,47.47,6.34,70.2c4.245,28.098,7.8,54.552,35.64,78.68l-0.5,0.56c-7.332,14.665-14.625,29.249-21.88,43.76
	c12.965,38.878,32.268,76.341,57.95,110.6L256,502l22.05-35.4c9.93-13.24,18.99-27.08,27.13-41.42
	c12.48-21.97,22.8-45.14,30.82-69.18l-21.88-43.76l-0.5-0.56c16.78-14.59,28.48-35.32,32.19-57.57
	c1.95-11.77,2.628-15.523,3.51-21.51c3.45-23.07,5.56-47.56,6.34-71.22L355.65,161.38L355.65,161.38z"/>
<path style="fill:#A86931;" d="M355.65,161.38L332,158c-36.35-5.19-70.04-22.04-96-48c-25.18,0-48.89,11.86-64,32l-15.6,20.8
	c0.81,23.35,2.93,47.47,6.34,70.2c4.245,28.098,7.8,54.552,35.64,78.68l-0.5,0.56C190.547,326.905,257,371,257,371l57.12-58.76
	l-0.5-0.56c16.78-14.59,28.48-35.32,32.19-57.57c1.95-11.77,2.628-15.523,3.51-21.51c3.45-23.07,5.56-47.56,6.34-71.22
	L355.65,161.38L355.65,161.38z"/>
<path style="fill:#BF8BDE;" d="M396,150v63c0,11.05-8.95,20-20,20h-24l-2.68-0.4c3.45-23.07,5.56-47.56,6.34-71.22
	c0.13-3.82,0.22-7.61,0.26-11.38H356H396z"/>
<path style="fill:#444B75;" d="M264.95,50c50.27,0,91.08,41.14,91.05,91.41c0,5.056-0.106,13.102-0.34,19.97
	c-26.375-3.768-23.433-3.348-23.66-3.38c-36.35-5.19-70.04-22.04-96-48c-25.18,0-48.89,11.86-64,32l-15.6,20.8
	c-0.26-6.978-0.4-15.132-0.4-21.39C155.97,91.14,196.78,50,247.05,50H256H264.95z"/>
<g>
	<path style="fill:#BF8BDE;" d="M256,253c11.05,0,20,8.95,20,20c0,11.04-8.96,20-20,20h-20c-11.05,0-20-8.95-20-20
		c0-11.04,8.96-20,20-20H256z"/>
	<path style="fill:#BF8BDE;" d="M162.74,233H136c-11.05,0-20-8.95-20-20v-63h40h0.08c0.05,4.23,0.16,8.5,0.32,12.8
		C157.21,186.15,159.33,210.27,162.74,233z"/>
</g>
<path d="M366,416c5.52,0,10-4.48,10-10s-4.48-10-10-10s-10,4.48-10,10S360.48,416,366,416z"/>
<path d="M36,512h440c5.522,0,10-4.477,10-10c0-61.729-40.111-119.908-95.378-138.337l-47.53-15.84l-17.063-34.127
	c15.372-15.646,26.045-36.348,29.644-57.941L357.801,243H376c16.542,0,30-13.458,30-30v-63C406,67.29,338.71,0,256,0
	c-82.922,0-150,67.097-150,150v63c0,13.036,8.361,24.152,20,28.28V253c0,16.542,13.458,30,30,30h8.782
	c4.335,9.417,9.946,18.139,16.774,25.974c1.416,1.628,2.893,3.206,4.406,4.741l-17.054,34.108l-47.531,15.841
	C66.112,382.092,26,440.271,26,502C26,507.523,30.477,512,36,512z M256,483.086l-13.562-21.773
	c-0.152-0.244-0.314-0.481-0.486-0.711c-8.098-10.802-15.652-22.099-22.532-33.662l35.663-37.714l37.578,37.578
	c-6.926,11.647-14.506,22.991-22.611,33.796C269.56,461.253,270.255,460.224,256,483.086z M302.778,408.636l-33.948-33.948
	l42.736-45.194l13.604,27.209C319.006,374.541,311.501,391.942,302.778,408.636z M254.683,360.541l-19.524-19.525
	c6.859,1.445,13.852,2.184,20.841,2.184c5.471,0,10.943-0.458,16.353-1.346L254.683,360.541z M198.739,332.882l42.196,42.197
	l-31.718,33.542c-8.732-16.714-16.235-34.109-22.389-51.917L198.739,332.882z M465.6,492H274.01l12.301-19.748
	c10.027-13.4,19.301-27.574,27.564-42.132c0.05-0.088,0.097-0.178,0.147-0.266c0.006-0.011,0.012-0.021,0.018-0.032
	c11.055-19.5,20.509-40.047,28.164-61.213l42.093,14.028C428.668,397.433,461.637,442.461,465.6,492z M136,223
	c-5.514,0-10-4.486-10-10v-53h20.298c0.033,1.043,0.068,2.091,0.107,3.146c0.001,0.036,0.003,0.071,0.004,0.107
	c0,0.003,0,0.006,0,0.009c0.7,20.072,2.372,40.481,4.856,59.737H136V223z M345.922,149.79c0,0.032-0.001,0.065-0.001,0.098
	l-12.508-1.787c-33.98-4.852-66.064-20.894-90.342-45.172C241.195,101.054,238.652,100,236,100
	c-26.856,0-52.564,12.236-69.558,32.908C170.63,92.189,205.053,60,247.05,60h17.9c44.809,0,81.076,36.651,81.05,81.41
	C346,144.557,345.975,147.297,345.922,149.79z M386,213c0,5.514-4.486,10-10,10h-15.262c2.542-19.69,4.236-40.643,4.917-61.28
	c0.02-0.582,0.036-1.148,0.054-1.72H386V213z M256,20c68.318,0,124.496,52.972,129.619,120h-19.635
	c-0.72-55.227-45.693-100-101.033-100h-17.9c-55.339,0-100.315,44.773-101.034,100H126.38C131.445,72.979,187.377,20,256,20z
	 M146,253v-10h8.198l2.128,12.759c0.406,2.425,0.905,4.841,1.482,7.241H156C150.486,263,146,258.514,146,253z M207.72,283
	c4.128,11.639,15.243,20,28.28,20h20c16.575,0,30-13.424,30-30c0-16.542-13.458-30-30-30h-20c-13.327,0-24.278,8.608-28.297,20
	H178.54c-5.006-16.653-10.734-65.653-12-97.053l13.459-17.946c12.361-16.476,31.592-26.713,52.049-27.888
	c26.917,25.616,61.739,42.532,98.537,47.786l14.722,2.104c-0.984,20.885-2.995,41.843-5.876,61.118
	c-0.001,0.006-0.002,0.013-0.003,0.02c-0.916,6.197-1.638,10.185-3.482,21.324c-5.296,31.765-28.998,60.49-60.287,68.313
	c-12.877,3.215-26.443,3.214-39.313,0c-19.537-4.884-37.451-18.402-49.012-37.778H207.72z M226,273c0-5.521,4.478-10,10-10h20
	c5.514,0,10,4.486,10,10c0,5.522-4.479,10-10,10h-20C230.486,283,226,278.514,226,273z M127.702,382.637l42.094-14.028
	c7.712,21.325,17.266,42.052,28.463,61.74c0.019,0.034,0.037,0.068,0.056,0.101c0,0.001,0.001,0.001,0.001,0.002
	c8.181,14.389,17.389,28.45,27.372,41.799L237.99,492H46.4C50.363,442.461,83.332,397.433,127.702,382.637z"/>
<path d="M395.042,433.016c9.454,7.273,17.272,16.766,22.611,27.453c2.473,4.949,8.483,6.941,13.415,4.477
	c4.94-2.468,6.945-8.474,4.478-13.415c-6.683-13.377-16.472-25.261-28.309-34.367c-4.378-3.369-10.656-2.55-14.023,1.828
	C389.846,423.37,390.665,429.648,395.042,433.016z"/>
<g>
</g>
<g>
</g>
<g>
</g>
<g>
</g>
<g>
</g>
<g>
</g>
<g>
</g>
<g>
</g>
<g>
</g>
<g>
</g>
<g>
</g>
<g>
</g>
<g>
</g>
<g>
</g>
<g>
</g>
</svg>
