<svg id="_x33_0" enable-background="new 0 0 64 64" height="512" viewBox="0 0 64 64" width="512" xmlns="http://www.w3.org/2000/svg"><g><g><g><path d="m46 3v2c0 .55-.45 1-1 1h-11-16-9c-.55 0-1-.45-1-1v-2c0-.55.45-1 1-1h36c.55 0 1 .45 1 1z" fill="#aab2bd"/></g><g><path d="m19.54 10.73 7.37 7.36.5.5c.38.37.59.88.59 1.41s-.21 1.04-.59 1.41c-.37.38-.88.59-1.41.59s-1.04-.21-1.41-.59l-8-8c.36.37.86.59 1.41.59 1.1 0 2-.9 2-2 0-.48-.17-.92-.46-1.27z" fill="#fcd770"/></g><g><path d="m27 18h7c.55 0 1.05.22 1.41.59.37.36.59.86.59 1.41 0 1.1-.9 2-2 2h-8c.53 0 1.04-.21 1.41-.59.38-.37.59-.88.59-1.41s-.21-1.04-.59-1.41l-.5-.5z" fill="#fcd770"/></g><g><path d="m49.38 15.38c.4.4.62.94.62 1.5 0 .58-.24 1.12-.62 1.5s-.92.62-1.5.62c-.56 0-1.1-.22-1.5-.62l-4.38-4.38h2c1.1 0 2-.9 2-2z" fill="#fcd770"/></g><g><path d="m36 12c0-1.1-.9-2-2-2h10c.55 0 1.05.22 1.41.59.37.36.59.86.59 1.41 0 1.1-.9 2-2 2h-2-8c1.1 0 2-.9 2-2z" fill="#fcd770"/></g><g><path d="m19.41 10.59c.05.05.09.09.13.14.29.35.46.79.46 1.27 0 1.1-.9 2-2 2-.55 0-1.05-.22-1.41-.59-.38-.37-.59-.88-.59-1.41s.21-1.04.59-1.41c.37-.38.88-.59 1.41-.59s1.04.21 1.41.59z" fill="#ffc729"/></g><g><circle cx="34" cy="12" fill="#ffc729" r="2"/></g><g><circle cx="38" cy="53" fill="#ccd1d9" r="3"/></g><g><path d="m51 44v2c0 1.1-.9 2-2 2h-3.28c-2.31-1.28-4.95-2-7.72-2s-5.41.72-7.72 2h-18.04c-.76 0-1.45-.43-1.79-1.11l-2.45-4.89h41c1.1 0 2 .9 2 2z" fill="#aab2bd"/></g><g><path d="m53.93 59.76c.05.16.07.32.07.49 0 .96-.79 1.75-1.75 1.75h-28.5c-.96 0-1.75-.79-1.75-1.75 0-.17.02-.33.07-.49l.63-2.22c.98-3.42 3.02-6.3 5.72-8.33.59-.45 1.21-.85 1.86-1.21 2.31-1.28 4.95-2 7.72-2s5.41.72 7.72 2c3.6 2 6.39 5.38 7.58 9.54z" fill="#969faa"/></g><g><path d="m58 38c1.1 0 2 .9 2 2 0 .55-.22 1.05-.59 1.41-.36.37-.86.59-1.41.59h-9-41-4c-1.1 0-2-.9-2-2 0-.55.22-1.05.59-1.41.36-.37.86-.59 1.41-.59h27 14 11z" fill="#ccd1d9"/></g><g><path d="m46.41 34.59c.37.36.59.86.59 1.41 0 1.1-.9 2-2 2h-14c-.55 0-1.05-.22-1.41-.59-.37-.36-.59-.86-.59-1.41 0-1.1.9-2 2-2h14c.55 0 1.05.22 1.41.59z" fill="#f0d0b4"/></g><g><path d="m47 36c0-.55-.22-1.05-.59-1.41-.36-.37-.86-.59-1.41-.59h-14c-1.1 0-2 .9-2 2 0 .55.22 1.05.59 1.41.36.37.86.59 1.41.59h-27c-1.1 0-2-.9-2-2v-6c0-1.1.9-2 2-2 1.18 0 2.2.8 2.49 1.94l.51 2.06h2l7.27-6.46c1.11-.99 2.55-1.54 4.04-1.54 1.11 0 2.19.3 3.14.87l8.55 5.13 8.43-.94c.38-.04.76-.06 1.14-.06 1.6 0 3.17.37 4.6 1.09l1.83.91c0-.83.34-1.58.88-2.12s1.29-.88 2.12-.88h1v-2h4c3.31 0 6 2.69 6 6 0 1.66-.67 3.16-1.76 4.24-1.08 1.09-2.58 1.76-4.24 1.76h-11c1.1 0 2-.9 2-2z" fill="#f0d0b4"/></g></g><g><path d="m59.972 37.757c1.827-1.264 3.028-3.372 3.028-5.757 0-3.86-3.141-7-7-7h-5v2c-1.685 0-3.129 1.046-3.718 2.523l-.661-.331c-1.933-.966-4.164-1.362-6.298-1.123l-8.099.899-8.264-4.958c-1.101-.661-2.361-1.01-3.646-1.01-1.738 0-3.41.636-4.708 1.79l-6.986 6.21h-.839l-.326-1.302c-.396-1.589-1.817-2.698-3.455-2.698-1.654 0-3 1.346-3 3v6c0 .771.301 1.468.78 2-.479.532-.78 1.229-.78 2 0 1.654 1.346 3 3 3h3.382l2.171 4.342c.511 1.022 1.54 1.658 2.683 1.658h14.888c-2.518 2.118-4.438 4.958-5.383 8.265l-.636 2.225c-.07.245-.105.5-.105.757 0 1.518 1.235 2.753 2.754 2.753h28.492c1.519 0 2.754-1.235 2.754-2.754 0-.257-.035-.512-.105-.757l-.636-2.226c-.945-3.306-2.865-6.146-5.383-8.264h.124c1.654 0 3-1.346 3-3v-2c0-.352-.072-.686-.184-1h6.184c1.654 0 3-1.346 3-3 0-.895-.403-1.692-1.028-2.242zm-56.972-7.757c0-.551.448-1 1-1 .718 0 1.341.486 1.516 1.183l.703 2.817h19.781v-2h-7.001l1.6-1.2-1.199-1.6-3.733 2.8h-4.037l5.304-4.715c1.621-1.442 4.136-1.677 5.996-.561l8.845 5.307 8.769-.975c1.767-.196 3.592.129 5.183.925l3.273 1.637v-1.618c0-1.103.897-2 2-2h2v-2h3c2.757 0 5 2.243 5 5s-2.243 5-5 5h-8.184c.112-.314.184-.648.184-1 0-1.654-1.346-3-3-3h-14c-1.654 0-3 1.346-3 3 0 .352.072.686.184 1h-24.184c-.552 0-1-.448-1-1zm27 6c0-.552.448-1 1-1h14c.552 0 1 .448 1 1s-.448 1-1 1h-14c-.552 0-1-.448-1-1zm22.335 21.813.636 2.226c.019.066.029.137.029.207 0 .416-.338.754-.754.754h-28.492c-.416 0-.754-.338-.754-.754 0-.07.01-.141.029-.208l.636-2.225c1.818-6.367 7.714-10.813 14.335-10.813s12.517 4.446 14.335 10.813zm-2.335-13.813v2c0 .552-.448 1-1 1h-3.059c-2.394-1.281-5.109-2-7.941-2s-5.547.719-7.941 2h-17.823c-.382 0-.725-.212-.895-.553l-1.723-3.447h39.382c.552 0 1 .448 1 1zm8-3h-54c-.552 0-1-.448-1-1s.448-1 1-1h54c.552 0 1 .448 1 1s-.448 1-1 1z"/><path d="m38 49c-2.206 0-4 1.794-4 4s1.794 4 4 4 4-1.794 4-4-1.794-4-4-4zm0 6c-1.103 0-2-.897-2-2s.897-2 2-2 2 .897 2 2-.897 2-2 2z"/><path d="m9 7h8v2.201c-.414.14-.803.359-1.121.677-.566.567-.879 1.321-.879 2.122s.312 1.554.878 2.12h.001s0 0 0 .001l8 8c.566.567 1.32.879 2.121.879h8c.977 0 1.837-.476 2.385-1.201l3.908 3.908 1.414-1.414-4.754-4.754c-.223-1.434-1.456-2.539-2.953-2.539h-6.758l-7.119-7.119c-.001-.001-.001-.002-.002-.003-.319-.318-.707-.537-1.121-.677v-2.201h14v2.184c-1.161.414-2 1.514-2 2.816 0 1.654 1.346 3 3 3h7.586l4.086 4.086c.581.581 1.385.914 2.207.914.495 0 .958-.127 1.374-.333l3.04 3.04 1.414-1.414-3.04-3.04c.206-.417.333-.879.333-1.374 0-.834-.324-1.618-.914-2.207l-3.133-3.133c-.223-1.434-1.456-2.539-2.953-2.539h-9v-2h10c1.103 0 2-.897 2-2v-2c0-1.103-.897-2-2-2h-36c-1.103 0-2 .897-2 2v2c0 1.103.897 2 2 2zm26 13c0 .551-.448 1-1 1h-5.182c.113-.318.182-.653.182-1s-.069-.682-.182-1h5.182c.552 0 1 .449 1 1zm-8 0c0 .271-.102.515-.293.707-.383.383-1.031.383-1.414 0l-6.008-6.008c.619-.296 1.118-.795 1.414-1.414l6.008 6.008c.191.192.293.436.293.707zm-8-8c0 .551-.448 1-1 1-.268 0-.519-.104-.706-.292l-.001-.001c-.191-.192-.293-.436-.293-.707s.102-.515.293-.707c.191-.191.436-.293.707-.293s.516.102.707.293c.189.189.293.44.293.707zm14 0c0-.551.448-1 1-1s1 .449 1 1-.448 1-1 1-1-.449-1-1zm16 4.879c0 .618-.503 1.121-1.121 1.121-.295 0-.584-.12-.793-.328l-2.71-2.71c.82-.104 1.533-.534 2.009-1.163l2.287 2.287c.212.212.328.493.328.793zm-4-4.879c0 .551-.448 1-1 1h-7.184c.112-.314.184-.648.184-1s-.072-.686-.184-1h7.184c.552 0 1 .449 1 1zm-36-9h36l.001 2h-36.001z"/></g></g></svg>