<svg id="Layer_1" enable-background="new 0 0 60 62" height="512" viewBox="0 0 60 62" width="512" xmlns="http://www.w3.org/2000/svg"><path d="m1 60.2v-13.6l1.4.7c1.2.6 2.6.9 4 .9h.4c.9 0 1.7 0 2.4-.1.7 0 1.3-.1 1.9-.1.4 0 .9 0 1.5-.1l2.3-.1-1.5 1.8c-2.3 2.7-3.7 6.1-4.1 9.7l-.1.9z" fill="#ffe0b2"/><path id="Shape" d="m27.1 45.1c-2.1 1.4-7.6 2.3-11.7 2.7-1.8.2-3.4.3-4.3.3-3 0-8 1-10-2 0-.1-.1-.1-.1-.2v-43.9s7.1-.2 7.1.1c3.1 2.1 5.3 5.3 6 9 1 6 8 8 10 9s2 3 0 5 1 3 2 4-2 4-2 4 3-1 3 1-2 3 0 4c1.2.8 1.9 2.1 1.9 3.5s-.7 2.7-1.9 3.5z" fill="#ffe0b2"/><path d="m56.3 57.7 1 2.3h-5l-.2-.4c-1.3-3-4.2-5-7.4-5.3-2.4-.3-4.7-1.5-6.2-3.4-.7-.9-1.2-1.9-1.5-3l-1.9-6.5c2.2-.2 3.6 1.3 6.4 0 3.6-1.6 2.4-4.3 6-5.9 3.4-1.5 4.6.7 7.7-.3l2.2 3.5c.6.9 1 2 1.3 3.1.4 2.4-.1 4.9-1.5 6.9-1.8 2.6-2.2 6-.9 9z" fill="#ef314c"/><path d="m57.3 48.6c1.4-2 2-4.5 1.5-6.9-.2-1.1-.6-2.1-1.3-3.1l-2.2-3.5c-.9.3-2 .4-2.9.1l2.1 3.4c.6.9 1 2 1.3 3.1.4 2.4-.1 4.9-1.5 6.9-1.9 2.6-2.3 6.1-1 9.1l1 2.3h3l-1-2.3c-1.3-3-.9-6.4 1-9.1z" fill="#bb193b"/><path d="m55.4 35.2c-3.1 1-4.4-1.2-7.7.3-3.6 1.6-2.4 4.3-6 5.9-2.9 1.3-4.2-.2-6.4 0l-3.2-11c-.1-.4.1-.9.5-1.1l14.3-6.4c.4-.2.9 0 1.1.3z" fill="#02a9f4"/><path d="m48 23.2c-.2-.4-.7-.5-1.1-.3l-1.6.7 7.2 11.6c-.1 0-.2 0-.2.1 1.1.3 2.2.3 3.2-.1z" fill="#0377bc"/><path d="m45.2 51.6h-.1c-1.7-.2-3.3-1.1-4.4-2.4-.5-.6-.8-1.3-1-2.1-.1-.3 0-.7.2-1s.6-.4 1-.3c.3.1.6.3.7.7.1.5.4 1 .7 1.4.7.9 1.8 1.5 3 1.7.5.1.9.5.9 1s-.5 1-1 1z" fill="#f5f5f5"/><path d="m48 32.8c-.5 0-.9-.4-1-.8-.2-1-.7-1.9-1.4-2.7-.2-.3-.4-.5-.6-.8-.5-.6-1-1.2-1.5-1.8-1.4-1.9-2.6-4-3.4-6.3-.6-1.6-.9-3.3-.8-5 .2-2.6 2-5.4 4.7-5.4h.1c1.1 0 2.2.5 3 1.4 1 1 1.5 2.3 1.5 3.7 0 1.1-.5 2.2-1.4 2.8s-2.2.6-3.1-.1-1.2-2-.8-3.1c.1-.3.4-.6.7-.7s.7 0 1 .3c.2.3.3.6.2 1-.2.7 0 .8.1.9.2.2.5.2.7 0 .4-.3.5-.8.5-1.2 0-.8-.3-1.6-.9-2.2-.4-.5-1-.7-1.6-.7-1.6 0-2.6 2.1-2.7 3.5s.2 2.9.7 4.3c.8 2.1 1.8 4 3.2 5.8.4.6.9 1.1 1.4 1.7.2.3.4.5.7.8.9 1 1.5 2.3 1.8 3.6.1.5-.3 1.1-.8 1.1-.2-.1-.2-.1-.3-.1z" fill="#9d27b0"/><path d="m39 39c-.4 0-.7-.2-.9-.6-.5-1.3-.7-2.7-.5-4 0-.3.1-.7.1-1 .1-.8.2-1.5.2-2.2.1-2.2-.1-4.4-.6-6.6-.3-1.4-.9-2.7-1.8-3.9s-2.9-2.3-4.3-1.4c-.5.4-.8.9-.9 1.5-.1.8 0 1.7.5 2.4.2.4.7.7 1.1.7.3 0 .5-.2.6-.4 0-.1.1-.4-.4-.8-.3-.2-.4-.6-.4-.9.1-.4.3-.7.6-.8s.7-.1 1 .2c1 .6 1.4 1.9 1.1 3s-1.3 1.8-2.5 1.8c-1.1-.1-2.1-.6-2.7-1.6-.8-1.1-1.1-2.5-.8-3.9.2-1.1.8-2.1 1.7-2.8 2.3-1.5 5.4-.2 7 1.8 1 1.4 1.8 3 2.1 4.6.6 2.3.8 4.7.6 7.1 0 .8-.1 1.6-.2 2.3 0 .3-.1.7-.1 1-.2 1 0 2 .3 3 .1.3.1.7-.1 1 0 .4-.4.5-.7.5z" fill="#9d27b0"/><path d="m30 41.3c-.1-1.7-1-3.2-2.4-4.1-.1 0-.2-.1-.3-.2.1-.2.2-.4.2-.6.4-.7.6-1.5.6-2.3 0-.7-.3-1.4-.8-1.8-.3-.2-.5-.3-.9-.4.8-1.2 1.4-2.6.4-3.5-.3-.3-.7-.6-1.1-.8-.4-.3-1.3-.9-1.3-1.2 0-.1.1-.3.4-.6 1.2-1 1.8-2.5 1.8-4.1-.2-1.1-1-2.1-2-2.5-.3-.2-.7-.3-1.2-.5-2.6-1.1-7.5-3.1-8.3-7.7-.7-3.9-3-7.4-6.3-9.6-.4-.4-.9-.6-7.8-.4-.1 0-.2 0-.2 0-.1 0-.1 0-.2.1-.1 0-.1.1-.2.1s-.1.1-.2.1c0 0-.1.1-.1.2s-.1.1-.1.2v.2c0 0 0 0 0 .1v58.2.2.1c0 .1.1.2.2.3.2.2.4.3.7.3l8.3.1c.5 0 1-.4 1-.9.5-6.1 3.2-9.6 5.5-11.6 4.2-.4 9.6-1.4 11.9-2.9 1.6-.9 2.5-2.7 2.4-4.5zm-21.6 18-6.4-.1v-11c1.5.8 3.2 1.1 4.9 1 .8 0 1.6 0 2.4-.1.7 0 1.3-.1 1.8-.1.4 0 1 0 1.6-.1-2.4 3-3.9 6.6-4.3 10.4zm18.2-15c-2.6 1.7-12.2 2.8-15.5 2.8-.6 0-1.2 0-1.9.1-2.6.1-5.8.3-7.2-1.6v-42.6c2.5-.1 5-.1 5.7 0 2.8 1.9 4.8 4.9 5.5 8.3 1 5.7 6.7 8.1 9.5 9.3.4.2.8.3 1.1.5.5.2.8.6.9 1 0 .9-.5 1.8-1.2 2.4-.6.5-1 1.3-1 2.2.1 1.2 1.3 2 2.2 2.6.3.2.5.4.7.5-.5 1-1.1 1.9-1.9 2.7-.3.3-.4.8-.1 1.2.2.4.7.6 1.2.4s1.1-.3 1.7-.1v.2c0 .5-.2 1-.5 1.5-.4.8-1.1 2.4 1 3.4.8.5 1.3 1.5 1.3 2.4 0 1-.6 2.2-1.5 2.8z"/><path d="m46.4 22-14.3 6.4c-.9.4-1.3 1.4-1.1 2.3l5.1 17.5c.3 1.2.9 2.3 1.6 3.3 1.7 2.1 4.1 3.5 6.8 3.8 2.9.3 5.4 2.1 6.6 4.7l.2.4c.2.4.5.6.9.6h5c.3 0 .7-.2.8-.5.2-.3.2-.6.1-1l-1-2.3c-1.2-2.7-.8-5.7.9-8.1 1.6-2.2 2.2-5 1.7-7.6-.2-1.2-.7-2.4-1.4-3.4l-9.6-15.5c-.4-.7-1.4-1-2.3-.6zm.8 1.8 6.6 10.6c-.6 0-1.1-.1-1.7-.2-3.3-1-6.8.6-8.3 3.7-1 2.3-3.7 3.5-6.1 2.7-.6-.1-1.1-.2-1.7-.3l-3-10.2zm10.7 18.1c.4 2.1-.1 4.3-1.4 6.1-2.1 2.9-2.5 6.8-1.1 10.1l.4.9h-2.8c-1.5-3.2-4.6-5.4-8.1-5.7-2.2-.2-4.1-1.3-5.5-3.1-.6-.8-1-1.7-1.3-2.6l-1.5-5.1c.2 0 .4.1.7.1.7.2 1.4.3 2.1.3.9 0 1.9-.2 2.7-.6 1.5-.7 2.8-1.9 3.5-3.4 1-2.3 3.7-3.5 6.1-2.7 1.1.3 2.2.4 3.3.2l1.8 2.9c.5.7.9 1.7 1.1 2.6z"/></svg>