<svg id="_x33_0" enable-background="new 0 0 64 64" height="512" viewBox="0 0 64 64" width="512" xmlns="http://www.w3.org/2000/svg"><g><g><g><path d="m4.13 56.47c-.63.15-1.16.51-1.53.99-.38.48-.6 1.08-.6 1.73l-1-.018v-11.172h8 7 3 6 .44c2.95 0 5.82 1 8.12 2.85l.89.71c.27.22.59.36.92.41l-.01.03s.64 3.55.64 6l-.62 1.24c-.25.51-.59.97-.99 1.35l-5.39-3.59c-1.32-.66-2.77-1-4.24-1h-12.76l-.59-.59c-.9-.9-2.13-1.41-3.41-1.41-.55 0-1.05.22-1.41.59-.37.36-.59.86-.59 1.41z" fill="#fcd770"/></g><g><path d="m29 57 5.39 3.59c-.92.89-2.16 1.41-3.48 1.41h-26.1c-1.55 0-2.81-1.26-2.81-2.81 0-.65.22-1.25.6-1.73.37-.48.9-.84 1.53-.99l1.87-.47c0-.55.22-1.05.59-1.41.36-.37.86-.59 1.41-.59 1.28 0 2.51.51 3.41 1.41l.59.59h12.76c1.47 0 2.92.34 4.24 1z" fill="#f0d0b4"/></g><g><path d="m35.7 52h2.3l.3-1.82c.41-2.41 2.49-4.18 4.94-4.18h3.76l.72-1.45c.17-.34.52-.55.9-.55h5.14c-.48.72-.76 1.58-.76 2.5v3.38c0 1.83-1.25 3.43-3.03 3.88l-.97.24v1.53c0 1.36-1.11 2.47-2.47 2.47-.94 0-1.79-.53-2.21-1.37l-.81-1.61c-.31-.62-.95-1.02-1.66-1.02-1.02 0-1.85.83-1.85 1.85 0 .75.25 1.47.72 2.04l.08.11h-4.8c0-2.45-.64-6-.64-6l.01-.03c.11.02.22.03.33.03z" fill="#f0d0b4"/></g><g><path d="m61.06 49.18.5 1.5c.29.87.44 1.79.44 2.72 0 4.75-3.85 8.6-8.6 8.6h-4.59c-3.04 0-5.91-1.38-7.81-3.75l-.2-.25-.08-.11c-.47-.57-.72-1.29-.72-2.04 0-1.02.83-1.85 1.85-1.85.71 0 1.35.4 1.66 1.02l.81 1.61c.42.84 1.27 1.37 2.21 1.37 1.36 0 2.47-1.11 2.47-2.47v-1.53l.97-.24c1.78-.45 3.03-2.05 3.03-3.88v-3.38c0-.92.28-1.78.76-2.5.16-.24.35-.47.56-.68.81-.82 1.94-1.32 3.18-1.32 2.49 0 4.5 2.01 4.5 4.5v.5c0 .86-.36 1.63-.94 2.18z" fill="#656d78"/></g><g><path d="m54 37v2c0 .55-.45 1-1 1h-13v-.25c0-1.31-.23-2.58-.66-3.75h7.66 6c.55 0 1 .45 1 1z" fill="#969faa"/></g><g><path d="m37 32h10v4h-7.66c-.53-1.47-1.37-2.8-2.44-3.9z" fill="#aab2bd"/></g><g><path d="m31.47 29.03-4.24-.98c.67-.58 1.25-1.27 1.7-2.05h33.07v4c0 1.1-.9 2-2 2h-13-10l-.1.1c-1.44-1.5-3.31-2.58-5.43-3.07z" fill="#ccd1d9"/></g><g><path d="m41 14h-6c.63-.84 1-1.87 1-3 0-2.76-2.24-5-5-5h29c1.1 0 2 .9 2 2v12h-12l-3-8-3 8z" fill="#69d6f4"/></g><g><path d="m31 24c1.66 0 3-1.34 3-3 0-.77-.29-1.46-.77-1.99l.01-.01c.47-.53.76-1.23.76-2 0-.62-.19-1.19-.5-1.67.59-.34 1.1-.79 1.5-1.33h6l3 6 3-8 3 8h12v6h-33.07c.36-.62.63-1.29.82-2z" fill="#69d6f4"/></g><g><path d="m18 10-1.24.62c-1.69.84-2.76 2.58-2.76 4.47v2.91h-1c-.61 0-1.18.19-1.66.5-.81-.54-1.34-1.45-1.34-2.5 0-.49.12-.96.33-1.37-1.38-.63-2.33-2.02-2.33-3.63 0-2.21 1.79-4 4-4 .73 0 1.43.2 2.02.55.23-3.1 2.82-5.55 5.98-5.55 1.75 0 3.32.75 4.42 1.95.7-.59 1.6-.95 2.58-.95 1.87 0 3.43 1.28 3.87 3.01.04-.01.09-.01.13-.01 2.76 0 5 2.24 5 5 0 1.13-.37 2.16-1 3-.4.54-.91.99-1.5 1.33.31.48.5 1.05.5 1.67 0 .77-.29 1.47-.76 2l-.01.01c-.03-.05-.07-.09-.11-.13-.54-.54-1.29-.88-2.12-.88h-1v-1.24c0-1.56-1.2-2.86-2.75-2.99l-6.27-.52c-.84-.07-1.58-.46-2.12-1.04s-.86-1.35-.86-2.2z" fill="#b27946"/></g><g><path d="m39.34 36c-.53-1.47-1.37-2.8-2.44-3.9-1.44-1.5-3.31-2.58-5.43-3.07l-4.24-.98c-1.4 1.21-3.23 1.95-5.23 1.95s-3.83-.74-5.23-1.95l-4.24.98c-4.99 1.15-8.53 5.6-8.53 10.72v3.25c0 2.76 2.24 5 5 5h26c2.76 0 5-2.24 5-5v-3-.25c0-1.31-.23-2.58-.66-3.75z" fill="#b4dd7f"/></g><g><path d="m24.3 42.08c-.55.13-1.04.41-1.42.8-.54.54-.88 1.29-.88 2.12 0-.83-.34-1.58-.88-2.12-.38-.39-.87-.67-1.42-.8l-2.48-2.06c-.77-.65-1.22-1.6-1.22-2.61 0-.9.36-1.77 1-2.41s1.51-1 2.41-1h.18c.9 0 1.77.36 2.41 1 .64-.64 1.51-1 2.41-1h.18c.9 0 1.77.36 2.41 1s1 1.51 1 2.41c0 1.01-.45 1.96-1.22 2.61z" fill="#ef7385"/></g><g><path d="m14 22h16c0 .69-.09 1.36-.25 2-.19.71-.46 1.38-.82 2-.45.78-1.03 1.47-1.7 2.05-1.4 1.21-3.23 1.95-5.23 1.95s-3.83-.74-5.23-1.95c-.15-.12-.29-.25-.43-.39-.99-1-1.72-2.25-2.09-3.66-.16-.64-.25-1.31-.25-2z" fill="#e6e9ed"/></g><g><path d="m33.23 19.01c.48.53.77 1.22.77 1.99 0 1.66-1.34 3-3 3h-1.25c.16-.64.25-1.31.25-2v-4h1c.83 0 1.58.34 2.12.88.04.04.08.08.11.13z" fill="#f0d0b4"/></g><g><path d="m30 18v4h-16v-4-2.91c0-1.89 1.07-3.63 2.76-4.47l1.24-.62v.01c0 .85.32 1.62.86 2.2s1.28.97 2.12 1.04l6.27.52c1.55.13 2.75 1.43 2.75 2.99z" fill="#f0d0b4"/></g><g><path d="m14 18v4c0 .69.09 1.36.25 2h-1.25c-.83 0-1.58-.34-2.12-.88s-.88-1.29-.88-2.12c0-1.05.53-1.96 1.34-2.5.48-.31 1.05-.5 1.66-.5z" fill="#f0d0b4"/></g><g><path d="m28 42v6h-2.56-.44c-1.66 0-3-1.34-3-3 0-.83.34-1.58.88-2.12.38-.39.87-.67 1.42-.8.23-.05.46-.08.7-.08z" fill="#f0d0b4"/></g><g><path d="m19.7 42.08c.55.13 1.04.41 1.42.8.54.54.88 1.29.88 2.12 0 1.66-1.34 3-3 3h-3v-6h3c.24 0 .47.03.7.08z" fill="#f0d0b4"/></g></g><path d="m60 33c1.654 0 3-1.346 3-3v-22c0-1.654-1.346-3-3-3h-28.424c-.783-1.799-2.564-3-4.576-3-.87 0-1.724.231-2.478.664-1.258-1.066-2.864-1.664-4.522-1.664-3.189 0-5.935 2.18-6.75 5.158-.406-.104-.826-.158-1.25-.158-2.757 0-5 2.243-5 5 0 1.635.805 3.151 2.108 4.075-.071.303-.108.613-.108.925 0 .931.326 1.81.893 2.511-.55.686-.893 1.544-.893 2.489 0 2.206 1.794 4 4 4h.525c.318.896.773 1.726 1.341 2.466l-2.565.591c-5.476 1.265-9.301 6.074-9.301 11.694v3.249c0 1.538.586 2.937 1.54 4h-3.54v2h24 .44c2.714 0 5.376.934 7.497 2.63l.89.712c.529.425 1.195.658 1.875.658h3.146l.443-2.658c.322-1.937 1.981-3.342 3.945-3.342h4.382l1-2h3.595c-.136.478-.213.979-.213 1.5v3.377c0 1.379-.935 2.576-2.272 2.91l-1.728.432v2.31c0 .811-.661 1.471-1.472 1.471-.561 0-1.065-.312-1.316-.813l-.804-1.608c-.488-.975-1.466-1.579-2.554-1.579-1.574 0-2.854 1.28-2.854 2.854 0 .39.068.773.172 1.146h-3.79l-.895 1.789c-.681 1.364-2.052 2.211-3.577 2.211h-26.102c-.997 0-1.808-.811-1.808-1.808 0-.831.563-1.552 1.37-1.754l2.63-.658v-.78c0-.552.449-1 1-1 1.022 0 1.984.398 2.707 1.121l.879.879h13.178c1.308 0 2.618.31 3.789.895l.894-1.789c-1.447-.724-3.067-1.106-4.683-1.106h-12.35l-.293-.293c-1.1-1.101-2.564-1.707-4.121-1.707-1.375 0-2.536.929-2.89 2.191l-1.226.308c-1.698.424-2.884 1.943-2.884 3.693 0 2.1 1.708 3.808 3.808 3.808h26.102c2.288 0 4.344-1.271 5.367-3.316l.341-.684h3.713c2.098 2.54 5.173 4 8.475 4h4.59c5.296 0 9.604-4.309 9.604-9.604 0-1.035-.166-2.057-.493-3.037l-.316-.949c.508-.671.809-1.506.809-2.41v-.5c0-3.032-2.467-5.5-5.5-5.5-1.704 0-3.23.779-4.239 2h-4.643c-.763 0-1.448.424-1.789 1.105l-.447.895h-3.146c-1.056 0-2.047.28-2.914.761.43-.827.678-1.765.678-2.761v-2h12c1.103 0 2-.897 2-2v-2c0-1.103-.897-2-2-2h-5v-2zm-6 13.5c0-1.93 1.57-3.5 3.5-3.5s3.5 1.57 3.5 3.5v.5c0 1.103-.897 2-2 2h-.146c-.762 0-1.448-.424-1.789-1.105l-.171-.342-1.789.895.171.342c.682 1.362 2.053 2.21 3.578 2.21h.146c.535 0 1.046-.105 1.514-.297l.096.289c.259.776.39 1.585.39 2.404 0 4.193-3.411 7.604-7.604 7.604h-4.59c-2.749 0-5.31-1.231-7.027-3.377l-.282-.354c-.32-.4-.497-.902-.497-1.415 0-.47.383-.854.854-.854.326 0 .619.181.764.473l.804 1.608c.592 1.184 1.782 1.919 3.106 1.919 1.914 0 3.472-1.558 3.472-3.472v-.747l.213-.054c2.23-.557 3.787-2.551 3.787-4.85zm6-15.5h-22.779c-1.505-1.41-3.385-2.449-5.522-2.942l-2.565-.591c.118-.153.237-.305.345-.466h31.521v3c0 .551-.449.999-1 .999zm-29-9v-3c1.103 0 2 .897 2 2s-.897 2-2 2h-.059c.037-.329.059-.662.059-1zm3.771-6.336c.249-.202.473-.428.684-.664h4.927l3.75 7.498 2.868-7.65 2.307 6.152h11.693v4h-30c2.206 0 4-1.794 4-4 0-.726-.209-1.399-.549-1.986.354-.608.549-1.299.549-2.014 0-.456-.078-.906-.229-1.336zm-5.771 5.336h-14v-5.91c0-1.525.847-2.896 2.211-3.577l.057-.028c.563 1.501 1.958 2.622 3.629 2.76l6.269.522c1.028.086 1.834.962 1.834 1.994zm-.08 2c-.488 3.386-3.401 6-6.92 6s-6.432-2.614-6.92-6zm32.08-15v11h-10.307l-3.693-9.848-3.131 8.35-2.251-4.502h-4.966c.226-.634.348-1.309.348-2 0-1.537-.584-2.937-1.537-4h24.537c.551 0 1 .448 1 1zm-52 3c0-1.654 1.346-3 3-3 .535 0 1.058.142 1.51.41l1.388.822.119-1.608c.192-2.593 2.381-4.624 4.983-4.624 1.414 0 2.722.577 3.683 1.626l.648.707.733-.618c.547-.461 1.235-.715 1.936-.715 1.37 0 2.563.928 2.901 2.256l.244.96.885-.216c2.192.017 3.97 1.805 3.97 4 0 1.442-.749 2.738-2.002 3.465l-.908.527.57.881c.222.344.34.733.34 1.127 0 .177-.031.348-.075.515-.574-.318-1.224-.515-1.925-.515v-.239c0-2.063-1.611-3.815-3.668-3.986l-6.269-.522c-1.157-.098-2.063-1.082-2.063-2.244 0-.857.477-1.629 1.244-2.013l.203-.102-.895-1.789-.202.102c-1.252.626-2.094 1.799-2.3 3.15l-.732.366c-2.047 1.023-3.318 3.08-3.318 5.367v1.91c-.536 0-1.046.11-1.513.302-.308-.358-.487-.815-.487-1.302 0-.316.076-.633.22-.914l.477-.932-.952-.435c-1.06-.483-1.745-1.55-1.745-2.719zm4 12c-1.103 0-2-.897-2-2s.897-2 2-2v3c0 .338.022.671.059 1zm-8 20v-3.249c0-4.684 3.188-8.69 7.751-9.744l3.784-.873c1.517 1.165 3.409 1.866 5.465 1.866s3.948-.701 5.465-1.866l3.784.873c4.564 1.054 7.751 5.06 7.751 9.744v3.249c0 2.206-1.794 4-4 4h-6v-4h6v-6h-2v4h-5.838l.255-.213c1.006-.839 1.583-2.07 1.583-3.379 0-1.159-.47-2.293-1.292-3.115-.834-.834-1.942-1.293-3.122-1.293h-.172c-.871 0-1.703.25-2.414.717-.711-.467-1.543-.717-2.414-.717h-.172c-1.18 0-2.288.459-3.125 1.297-.819.818-1.289 1.952-1.289 3.111 0 1.309.577 2.54 1.583 3.38l.254.212h-5.837v-4h-2v6h6v4h-6c-2.206 0-4-1.794-4-4zm17-.618c-.474-.542-1.087-.949-1.788-1.174l-2.348-1.956c-.549-.458-.864-1.13-.864-1.844 0-.632.256-1.25.708-1.701.455-.456 1.061-.707 1.706-.707h.172c.645 0 1.251.251 1.707.707l.707.708.708-.708c.455-.456 1.061-.707 1.706-.707h.172c.645 0 1.251.251 1.712.713.446.445.702 1.063.702 1.695 0 .714-.315 1.386-.863 1.843l-2.348 1.957c-.702.225-1.315.632-1.789 1.174zm-5 4.618v-4h2c1.103 0 2 .897 2 2s-.897 2-2 2zm8 0c-1.103 0-2-.897-2-2s.897-2 2-2h2v4h-1.56zm12.153 4h-1.451c-.227 0-.448-.078-.625-.22l-.891-.713c-.494-.395-1.02-.745-1.56-1.067h2.374c1.063 0 2.06-.281 2.927-.767-.285.549-.503 1.141-.61 1.781zm15.847-12h-12.032c-.042-.683-.14-1.351-.291-2h12.323zm-7-4h-5.976c-.301-.703-.664-1.373-1.089-2h7.065z"/></g></svg>