<svg id="Capa_1" enable-background="new 0 0 512 512" height="512" viewBox="0 0 512 512" width="512" xmlns="http://www.w3.org/2000/svg"><g><g><path d="m342.252 78.512c-21.533.666-21.784 33.902-.046 34.445 24.398-1.168 19.887-32.895.046-34.445z" fill="#cbe580"/><path d="m230.867 444.223c-38.205-8.668-124.647 37.633-40.656 41.506 9.368-.438 18.459-2.527 27.014-6.211 15.598-5.486 45.675-31.487 13.642-35.295zm-6.676 15.187c-5.389-1.123-8.699 1.137-11.937 4.485-12.225 16.427-29.243-15.087-32.022 12.915-1.79-4.854 1.146-13.614 7.456-13.267 6.756.223 9.689 5.155 15.859 4.695 6.79-.717 13.995-15.016 20.644-8.828z" fill="#cbe580"/><path d="m138.666 451.083c-8.378-4.763-18.182-7.281-28.354-7.281-10.68.595-38.241 3.237-30.76 19.293 22.171 53.417 108.307 22.289 59.114-12.012zm-34.191 15.646c-2.886.432-12.024-3.04-10.724-6.022 2.72 2.74 6.383 5.162 10.503 5.021.687-.185.934.936.221 1.001zm26.65 7.345c-6.665 1.71-6.054-5.216-8.785-8.539-10.926-2.589-4.895 14.197-7.548 11.259-3.516-9.816 7.22-18.526 10.293-7.96.254 5.762 9.018 5.834 8.614-.177.01-.348.111-.476.486-.548 1.773 1.708-.946 5.432-3.06 5.965z" fill="#cbe580"/><path d="m73.822 405.416c-41.798-47.945-48.239 18.57-18.296 43.173 30.751 25.102 33.405-25.449 18.296-43.173zm-15.329 28.315c-.495.463-1.167-.291-.71-.723 4.454-4.047 2.237-12.414-3.52-13.983-7.52-1.828-8.585-14.345-.858-15.417-16.469 14.859 17.9 13.755 5.088 30.123z" fill="#cbe580"/><path d="m463.32 165.12c-32.57-37.144-40.784-20.023-76.002-2.179-31.894 22.339-25.275 38.262-11.522 58.042 11.97 16.781 24.457 33.468 37.116 49.597 22.666 35.539 59.093 11.861 83.987-7.543 31.625-26.93-14.323-72.605-33.579-97.917zm14.489 80.96c-2.211 14.869-24.197 19.133-30.669 4.687-11.588-28.796 32.173-32.841 30.669-4.687z" fill="#288fc9"/><path d="m121.328 205.716c-16.627-10.184-39.582-22.93-58.655-14.826-17.546 9.219-57.454 98.962-58.883 120.349 2.287 26.816 36.82 40.063 60.683 43.395 16.174.339 16.721-19.019 22.553-30.038 0 0 39.142-77.847 39.142-77.847 8.074-13.068 10.09-30.512-4.84-41.033zm-58.808 112.114c-8.213 18.713-36.845 11.457-34.6-8.21 2.147-27.172 44.256-18.21 34.6 8.21z" fill="#288fc9"/><path d="m411.475 84.845c8.339-2.018 15.162-9.515 16.594-18.232 1.755-8.941-3.641-25.639-16.691-23.438-32.541-.752-33.268 46.619.097 41.67z" fill="#59bd8b"/><path d="m436.527 364.426c-60.487-7.139-92.594 69.868-45.289 107.207 84.529 56.54 152.084-85.435 45.289-107.207zm-25.616 85.818c-13.657 1.754-19.393-15.343-19.254-26.865-.194-18.955 14.769-39.703 35.068-41.908 13.104-.126 27.962 15.51 24.998 28.893-1.589 7.926-8.397 13.936-13.407 18.359-6.348 4.554-19.592 19.795-27.405 21.521zm57.755-21.434c-24.65 1.379 2.151 15.885-12.6 19.333-4.993-.416-15.767-7.057-13.985 3.158 2.311 9.487-9.893 19.569-17.887 14.077 25.956 2.772 10.128-19.823 21.499-20.887 31.194 9.816-2.557-14.469 18.52-15.876 9.833-.099 11.696-10.391 3.655-14.717 7.435-.117 8.217 12.925.798 14.912z" fill="#ffbf48"/><path d="m165.726 114.392c-8.039.371-19.234 8.722-21.342 17.105-1.27 16.071 22.708 9.88 28.707 2.385 7.353-8.29 1.997-19.262-7.365-19.49z" fill="#ffbf48"/><g fill="#ffdac4"><path d="m412.13 271.195c-15.991-23.047-38.827-44.657-48.19-71.311-61.435 2.578-120.712 61.519-170.802 89.914 22.398 18.706 52.856 2.77 77.349-2.874 25.599-3.962 68.753-2.794 81.603-23.742-6.607 18.238-46.76 21.937-67.899 22.655l95.713 47.074c21.434-8.093 41.506-23.088 51.562-44.491-8.011-3.587-13.452-9.581-19.336-17.225z"/><path d="m378.847 333.507c-1.487-.846-94.811-46.407-96.139-47.394-29.061 2.066-65.101 26.96-90.441 3.778-1.23-1.208 72.783-48.177 72.873-48.907-39.221-23.287-93.915 17.226-131.335-11.54-8.316 28.048-45.683 88.677-54.13 116.705l92.965 28.248 3.835 1.1c-1.706-19.218 19.611-23.131 27.41-6.08 9.651-2.174 16.855 6 21.439 13.33 9.517-4.225 18.176 3.707 24.931 9.594 25.704 21.011 63.62 13.909 83.362-11.996-25.065 6.537-52.937-.134-75.332-10.525 26.672 9.004 62.77 20.98 88.065 2.143l-2.071-5.436c-28.707 2.049-64.364-4.203-86.451-20.266 27.34 14.728 90.658 35.303 112.263 4.14-34.184-3.238-73.813-13.282-100.264-32.691 33.171 18.284 72.96 34.202 111.194 30.525 7.847-3.822 5.547-12.131-2.174-14.728z"/><path d="m249.619 393.112c-8.791-9.382-28.062-18.747-28.951 1.858 6.145 25.952 40.816 29.082 57.088 10.492-10.076-2.083-20.33-5.888-28.137-12.35z"/><path d="m225.614 407.188c-6.835-7.171-8.499-17.377-1.162-23.956-4.414-7.188-13.22-17.039-22.348-11.602-14.567 15.735 6.307 50.424 28.644 40.637-.853-.852-4.402-4.237-5.134-5.079z"/><path d="m196.842 387.538c-1.382-9.26.769-14.523 6.612-18.228-6.868-11.297-23.493-15.381-25.939 2.318.333 14.585 9.06 33.61 25.734 33.778-2.889-5.641-5.49-11.121-6.407-17.868z"/><path d="m180.272 387.825c-1.342-2.969-2.929-7.337-3.602-11.166l-22.93-6.953c-3.954 16.624 12.966 29.901 28.02 21.574-.208-.483-1.295-3.037-1.488-3.455z"/></g><path d="m468 229.692c-23.545-11.685-30.685 28.052-6.704 29.159 16.579.011 21.248-22.413 6.704-29.159z" fill="#5bd0fc"/><path d="m224.91 56.023c-33.299-8.734-45.387 31.73-69.341 45.551-14.471 7.705-40.849 10.709-40.073 31.715 13.215 39.133 90.025 13.611 110.332-13.049 19.919-17.321 27.131-55.783-.918-64.217zm-51.088 78.543c-7.302 6.447-18.261 11.171-26.421 6.194-12.161-8.537 5.336-24.562 14.482-26.798 12.039-4.092 20.86 11.847 11.939 20.604zm54.013-43.233c-6.583 12.873-26.142 29.691-38.841 16.085-8.123-13.984 10.89-36.134 27.466-38.669 10.786-.199 16.093 12.925 11.375 22.584z" fill="#5bd0fc"/><path d="m41.23 327.36c25.11 5.182 30.1-32.38 4.388-33.6-19.543.481-23.353 28.165-4.388 33.6z" fill="#5bd0fc"/><path d="m109.314 91.296c-30 11.002-25.9 53.796.579 69.49 51.422 32.907 142.911 7.64 153.749-56.802 4.738-29.822-11.732-71.115-43.548-72.386-51.237 7.36-42.398 59.227-110.78 59.698zm32.304 15.054c32.567-6.546 40.573-51.91 75.117-52.449 37.404 1.746 33.02 46.825 9.816 67.024-55.019 63.789-164.346 20.124-84.933-14.575z" fill="#d34242"/><path d="m226.91 90.93c4.352-8.957-.341-21.392-10.413-21.187-12.479 1.12-34.921 22.147-26.691 37.1 12.206 12.804 30.77-3.716 37.104-15.913z" fill="#f9d889"/><path d="m428.554 382.576c-31.221-1.458-52.7 57.018-19.613 66.85 8.795-.357 21.917-16.825 28.712-21.46 21.684-14.836 14.68-40.321-9.099-45.39zm-12.046 42.843c-8.36 1.77-13.715-11.371-6.218-14.779-4.091 5.297-3.125 13.379 5.051 13.862.67-.203 2.398.076 1.167.917zm9.322-11.486c-.431.52-1.207-.141-.776-.642 3.998-4.548 1.543-10.346-1.522-14.083 5.158 1.152 5.93 11.155 2.298 14.725z" fill="#bc88e5"/><path d="m366.546 120.058c17.752-19.372 49.823-12.804 69.013-28.914 38.053-35.205-22.323-93.786-56.266-53.709-15.67 28.179-31.459 20.486-55.897 32.049-43.52 29.25 6.678 88.228 43.15 50.574zm25.363-70.367c33.689-27.634 54.43 23.882 19.793 36.124-21.118 5.143-34.999-20.887-19.793-36.124zm-32.715 52.919c-7.841 19.616-37.863 11.208-34.316-9.873 6.284-26.984 41.193-13.283 34.316 9.873z" fill="#bc88e5"/></g><g><path d="m291.888 101.644c.466.035 10.296-1.514 10.791-1.553.206 4.856 1.436 9.656 3.509 14.081-2.159 2.266-11.824 5.93-8.436 10.352 3.034 4.522 9.221-2.929 11.987-4.276 2.718 3.84 6.114 7.184 10.011 9.765l-5.902 10.107c-2.343 3.885 3.795 7.5 6.052 3.533l6.056-10.37c4.345 1.75 9.037 2.638 13.752 2.677-.17 4.306.384 8.663 1.662 12.766 1.315 4.378 8.102 2.222 6.691-2.084-1.127-3.618-1.574-7.479-1.316-11.267 6.135-1.046 11.992-3.53 16.829-7.407l4.319 7.766c2.176 4.015 8.385.525 6.124-3.406l-5.04-9.063c4.843-4.728 10.096-8.42 16.46-10.697l2.189 9.343c.996 4.459 7.922 2.799 6.824-1.598l-2.321-9.901c5.487-1.51 11.468-2.642 17.168-3.916l2.485 9.978c1.059 4.445 7.959 2.688 6.801-1.693l-2.476-9.942c4.664-1.257 9.227-2.815 13.502-4.994 2.337 4.07 5.403 7.758 8.988 10.763 3.433 2.972 8.032-2.501 4.501-5.371-3.004-2.518-5.569-5.616-7.507-9.038 4.279-3.041 7.882-7.037 10.55-11.55l12.484 2.514c4.413.977 5.871-6.037 1.384-6.87l-10.778-2.171c2.232-6.022 2.948-12.574 1.95-18.936 2.871-1.319 13.879-.957 12.408-6.45-1.051-5.59-10.896-.436-14.026-.368-2.216-6.757-6.167-13.199-11.543-18.67l7.273-8.566c2.994-3.424-2.451-8.044-5.342-4.536l-7.177 8.454c-4.759-3.641-10.022-6.274-15.424-7.737l1.305-12.457c.54-4.517-6.576-5.261-6.971-.729l-1.254 11.979c-4.978-.429-10.024.243-14.769 1.718-.141-.405-6.702-10.257-6.896-10.623-2.431-3.844-8.409.063-5.868 3.831l6.194 9.485c-5.311 2.731-10.075 6.6-13.699 11.395-3.041-1.114-11.714-10.252-14.658-5.216-3.323 4.744 8.385 8.719 10.65 10.971-2.985 4.65-6.121 8.734-10.915 11.326l-8.25-8.533c-3.115-3.317-8.244 1.65-5.039 4.871l6.429 6.65c-6.511 2.168-13.834 3.322-20.576 5.297-.136-.291-5.398-6.435-5.578-6.694-2.872-3.527-8.342 1.064-5.369 4.503l3.905 4.656c-4.641 1.924-8.914 4.76-12.402 8.401-.336-.273-9.219-3.691-9.624-3.898-4.201-1.75-6.846 4.882-2.603 6.507l7.686 3.071c-3.02 4.585-5.08 9.804-5.944 15.198-.044-.169-11.331 1.633-11.726 1.649-4.207.525-3.69 7.076.51 6.973zm33.016-29.56c24.427-11.006 41.334-4.697 56.706-32.753 30.674-36.88 87.099 17.465 51.996 49.537-25.5 18.047-49.706 6.618-75.846 34.704-35.271 22.723-68.353-29.043-32.856-51.488z"/><path d="m406.796 89.401c25 .869 36.204-38.461 12.56-49.246-38.126-9.933-53.49 45.536-12.56 49.246zm-12.027-36.906c5.258-5.355 14.657-7.638 22.856-5.548 13.732 8.491 7.931 32.035-6.856 34.977-17.034 4.302-28.532-17.237-16-29.429z"/><path d="m336.762 116.189c20.862 5.775 36.342-20.802 18.522-35.92-25.868-22.206-49.973 25.189-18.522 35.92zm-7.942-22.76c4.515-20.173 31.096-11.719 26.623 7.771-6.277 15.289-29.256 8.485-26.623-7.771z"/><path d="m440.298 430.974c11.625-8.241 20.935-25.62 9.371-39.492-16.758-24.149-45.128-9.68-55.69 10.56-.001 0-.001 0-.001 0-9.819 16.225-6.904 52.746 17.505 51.154 9.116-2.007 21.655-16.988 28.815-22.222zm-30.122 15.336c-17.433-1.09-16.932-29.174-10.039-40.923h-.001c4.82-8.874 17.577-21.048 28.052-19.83 9.959.857 22.002 13.538 19.613 24.018-1.23 6.124-6.224 10.933-12.136 16.141-5.09 3.649-19.495 19.137-25.489 20.594z"/><path d="m469.445 410.728c-4.3-1.476-6.538 5.27-2.207 6.651 5.411 2.402 1.907 8.95-3.368 8.257-13.321 1.345-10.689 9.222-7.181 18.388-.133.174-1.532.37-4.494-.959-21.357-7.092-9.324 12.743-17.613 17.862-3.983 4.323-10.846-1.622-13.21 3.429-.657 11.669 27.366 4.275 23.693-13.374-.533-3.235.099-3.027 4.261-1.524 13.13 5.742 16.886-4.312 12.593-11.856-4.186-6.715 3.731-4.118 7.754-5.966 9.696-3.152 9.545-17.967-.228-20.908z"/><path d="m415.9 421.458c-4.295.672-6.928-5.009-3.653-7.855 1.446-1.286 1.576-3.5.289-4.946-6.723-4.766-10.764 8.418-7.74 13.189 2.093 4.511 7.214 7.264 12.107 6.549 4.505-.588 3.494-7.656-1.003-6.937z"/><path d="m426.054 396.712c-3.585-2.791-7.895 2.894-4.229 5.589 1.246.943 2.069 2.519 2.261 4.326.852 3.736-4.44 6.486-.943 9.645 9.934 3.982 9.879-16.187 2.911-19.56z"/><path d="m507.417 429.614-12.03-3.281c.178-4.026-.018-8.062-.581-12.04 3.017-.915 13.738.876 13.011-4.74-.297-5.762-11.256-1.784-14.383-2.171-1.046-4.069-2.5-8.027-4.362-11.799l8.024-3.439c4.204-1.73 1.395-8.293-2.761-6.441l-8.756 3.753c-1.953-2.986-4.165-5.754-6.637-8.314l10.821-10.236c3.349-3.076-1.558-8.263-4.816-5.091l-11.185 10.58c-3.822-3.101-8.144-5.812-12.965-8.156l5.984-9.202c2.534-3.776-3.452-7.668-5.876-3.821l-6.625 10.187c-4.492-1.728-9.38-3.174-14.632-4.371l4.286-14.849c1.325-4.35-5.533-6.328-6.732-1.944l-4.506 15.608c-3.717-.311-7.948-.181-12.493.536.465-.928-5.204-11.34-5.536-12.368-.844-1.741-2.94-2.466-4.682-1.622-5.381 2.317 2.858 12.289 3.591 15.419-4.401 1.2-8.984 2.954-13.594 5.384l-8.672-8.971c-3.111-3.315-8.247 1.649-5.039 4.871 0 0 7.523 7.782 7.523 7.782-4.407 2.915-8.966 6.665-12.664 10.635l-9.439-3.212c-4.284-1.527-6.583 5.233-2.259 6.634l6.883 2.342c-3.186 4.297-5.785 8.933-7.726 13.795l-13.717-2.134c-4.486-.764-5.577 6.292-1.077 6.925l12.572 1.956c-.96 3.643-1.571 7.365-1.841 11.116l-12.704 1.198c-4.545.36-3.844 7.479.657 6.977l11.928-1.125c.106 2.744.393 5.482.839 8.197l-14.063 2.829c-1.898.381-3.126 2.228-2.745 4.126.374 1.909 2.276 3.131 4.126 2.744l14.176-2.851c1.375 5.031 3.33 9.903 5.822 14.474l-12.569 6.479c-1.72.887-2.396 3-1.51 4.72.89 1.737 3.036 2.388 4.72 1.51l13.05-6.727c1.382 1.99 2.876 3.898 4.478 5.713l-9.706 8.198c-3.521 2.885 1.1 8.337 4.521 5.355.329-.334 9.852-8.211 10.103-8.591 3.147 2.848 6.609 5.305 10.301 7.427l-7.268 10.902c-2.571 3.74 3.346 7.712 5.831 3.887l7.737-11.606c4.012 1.763 8.216 3.133 12.523 4.091l-3.81 12.892c-1.347 4.329 5.471 6.38 6.721 1.986.076-.344 3.996-13.357 4.024-13.705 5.013.585 10.097.611 15.11.013l-1.069 15.218c-.385 4.526 6.73 5.038 6.99.491l1.191-16.961c4.871-1.133 9.618-2.813 14.13-4.981l4.971 13.609c1.524 4.31 8.199 1.829 6.582-2.404l-5.329-14.592c3.97-2.429 7.694-5.244 11.073-8.4l8.47 8.862c3.096 3.334 8.254-1.604 5.066-4.842l-8.677-9.078c3.461-3.999 6.408-8.404 8.717-13.147l12.182 7.105c3.868 2.352 7.505-3.816 3.531-6.054l-12.97-7.565c1.381-3.868 2.383-7.859 3.004-11.903l10.89 2.97c4.338 1.273 6.271-5.63 1.847-6.762zm-75.155 51.79c-82.998 1.592-78.429-120.372 3.658-114.035 73.966 10.677 66.065 109.191-3.658 114.035z"/><path d="m500.548 209.331c-21.74-29.471-52.398-95.229-97.789-59.342-19.133 8.214-43.891 26.118-42.127 45.976-36.635 1.461-68.054 23.361-94.927 41.042-37.714-23.659-90.127 16.646-128.977-10.512 1.238-27.182-54.316-50.193-75.896-39.158-23.188 15.305-41.787 72.501-55.002 98.949-10.009 19.761-7.853 41.062 12.107 54.96 14.228 8.607 49.953 28.138 62.464 9.315l69.18 21.016c-3.35 17.082 15.624 31.829 31.347 24.36 4.067 7.662 12.853 14.201 21.467 12.41 6.809 8.393 19.034 12.206 28.585 7.229 15.088 10.053 37.236 7.008 48.688-7.135 21.887 2.56 44.781-8.29 56.836-26.687 8.303-3.502 16.737-8.087 21.161-15.48 6.531-2.781 11.718-7.338 14.609-12.797 10.548 2.223 23.93-9.583 14.694-19.374 19.967-7.651 37.225-22.954 47.048-41.914 15.19 3.942 31.005-3.844 43.76-11.334 32.371-15.588 45.612-41.628 22.772-71.524zm-449.588 139.427c-18.171-5.383-43.17-17.068-44.162-37.699 5.209-34.11 26.853-66.647 41.305-98.002 11.069-25.67 29.64-25.758 52.346-15.046 23.378 8.288 37.968 23.742 23.038 47.389l-39.14 77.846c-7.653 17.899-8.156 35.84-33.387 25.512zm111.356 38.878c-4.167-3.212-6.458-8.762-5.94-13.996l17.725 5.384c.8 3.703 2.194 7.227 3.696 10.623-5.012 2.048-11.192 1.294-15.481-2.011zm28.668 10.066c-5.869-6.655-10.57-16.97-10.477-25.833.982-11.555 12.563-11.916 18.678-3.063-8.647 5.738-5.915 23.723-1.227 32.629-2.409-.421-4.889-1.709-6.974-3.733zm18.732 8.21c-15.906-14.721-10.157-50.591 10.9-22.919-7.238 8.101-3.838 20.081 3.992 27.486-4.865 1.004-10.69-.685-14.892-4.567zm41.557 8.642c-8.502.003-16.987-3.757-22.695-10.059-5.55-4.371-7.873-18.844 2.367-18.908 7.003.195 11.564 5.819 16.808 9.885 6.879 5.493 15.039 9.407 23.638 11.515-5.525 4.783-12.814 7.564-20.118 7.567zm128.496-69.053c-37.284 2.602-75.885-12.163-108.142-30.306-3.873-2.385-7.525 3.751-3.586 6.019 29.246 17.413 62.438 28.29 96.318 31.632-23.981 22.59-79.087 4.81-104.814-9.143-3.933-2.285-7.427 3.943-3.43 6.109 26.853 14.958 57.779 22.253 88.498 19.699-23.812 17.377-58.903 7.373-84.657-2.811-4.248-1.62-6.694 5.092-2.399 6.585 20.995 7.748 44.514 15.959 67.472 11.668-8.266 8.608-19.451 14.521-31.223 16.271-32.934 7.234-47.005-26.156-67.271-21.997-4.399-6.752-11.487-13.999-20.683-13.02-9.654-16.171-30.824-13.433-32.34 5.313l-89.752-27.266c7.021-23.77 43.887-86.509 51.902-110.005 33.59 24.104 88.341-9.845 123.395 7.155l-68.366 45.213c-1.833 1.149-2.106 3.949-.519 5.426 25.447 24.114 62.598.052 91.869-2.835-.046.086 95.389 46.914 95.481 46.995 5.162 1.82 7.858 6.413 2.247 9.298zm-.328-16.209c-.019.006-.034.016-.052.022l-83.882-41.251c21.17-.447 49.342-6.706 59.756-22.442 2.806-3.579-2.883-7.9-5.578-4.24-11.737 19.838-55.712 18.701-79.81 22.602-25.155 4.411-44.272 20.482-71.386 5.878 48.068-27.452 104.671-82.928 163.141-86.905 10.443 25.882 32.039 47.323 48.133 70.097 5.433 6.917 10.552 12.974 17.624 16.641-9.937 18.684-27.716 33.423-47.946 39.598zm125.829-88.402c-2.934 23.434-32.494 35.575-52.12 43.765-17.045 5.146-28.099-2.315-37.872-15.931-12.676-16.147-25.137-32.797-37.04-49.486-22.234-25.828-6.509-47.96 27.718-63.013 25.948-16.18 32.497-13.4 55.178 10.958 15.708 19.158 43.36 51.822 44.136 73.707z"/><path d="m43.488 289.873c-22.98 2.972-25.655 34.879-3.296 41.356 32.213 6.636 36.606-43.018 3.296-41.356zm15.344 26.407c-6.624 14.727-28.906 8.645-26.92-6.354 1.299-20.973 34.437-14.464 26.92 6.354z"/><path d="m469.923 226.18c-16.864-9.994-34.326 9.763-25.47 25.935 16.786 29.828 55.521-8.972 25.47-25.935zm3.938 19.215c-.86 4.98-5.145 9.279-10.185 10.222-21.531 2.724-16.96-33.429 2.9-23.28 4.342 2.361 8.279 7.314 7.285 13.058z"/><path d="m248.697 450.827c-10.711-23.845-79.954-6.117-93.324 11.655-12.351-22.734-46.223-27.737-69.402-17.902 10.646-33.791-38.531-84.114-52.024-46.978-6.28 24.148 14.019 64.814 40.292 61.187 6.25 33.48 58.92 52.485 80.406 22.56 28.242 17.538 66.432 6.825 87.734-14.105h-.001c5.65-5.731 7.776-11.255 6.319-16.417zm-191.154-4.463c-11.633-10.56-21.107-31.006-16.826-46.943 2.609-7.936 4.821-7.447 7.749-7.843 36.587 3.944 43.664 82.321 9.077 54.786zm92.825 25.944c-.664 8.672-10.143 14.38-18.669 16.013-19.917 4.075-41.906-7.476-49.367-26.369-2.418-5.888-1.521-7.577 5.641-10.632 20.191-9.068 58.886-5.075 62.395 20.988zm87.02-9.983c-.001 0-.001.001 0 0-11.951 12.127-29.198 19.562-47.32 20.399-13.942.178-42.064-2.222-28.132-17.18 16.113-13.863 38.723-18.129 59.375-18.72 10.154-.527 29.88 1.887 16.077 15.501z"/><path d="m59.247 417.187c-16.397-7.866-.244-9.241-3.108-14.821-3.88-5.848-10.936 2.504-11.093 7.144-1.206 12.206 10.818 9.773 12.095 17.237.571 3.619-4.635 5.686-1.561 9.019 9.572 5.198 11.135-15.297 3.667-18.579z"/><path d="m104.372 462.722c-2.95.037-6.017-1.381-7.894-3.712-2.796-3.581-8.364.894-5.459 4.395 3.246 4.032 8.28 6.398 13.451 6.324 4.557.005 4.425-7.145-.098-7.007z"/><path d="m133.799 465.132c-4.36.096-1.982 7.271-5.296 4.589-.877-9.087-11.148-11.794-15.926-3.651-1.949 4.676-2.726 14.366 3.297 14.103 6.271-1.098-.859-11.126 4.788-12.015.784 5.313 5.365 10.857 11.396 8.773 5.113-.966 8.886-11.523 1.741-11.799z"/><path d="m225.399 456.083c-12.359-6.58-17.197 15.285-28.766 7.111-19.178-11.394-24.587 16.343-16.391 16.617 1.935-.005 3.501-1.578 3.496-3.513-.597-17.361 11.118-2.841 20.291-4.087 7.526-.122 11.353-10.997 18.075-9.945 3.964 2.202 7.35-4.106 3.295-6.183z"/><path d="m121.735 149.468c42.268 22.165 103.716-7.098 122.936-50.19 7.592-18.54 1.077-41.563-18.654-47.107-21.51-6.762-41.014 11.243-52.829 27.606-11.726 17.084-26.923 21.612-45.15 28.843-15.878 6.859-24.235 29.522-6.303 40.848zm9.519-34.62c43.525-14.555 36.578-23.615 66.144-50.454 24.095-17.72 52.524 2.688 40.727 32.377-35.267 77.385-160.131 57.027-106.871 18.077z"/><path d="m199.987 115.518c14.121-1.507 23.718-10.837 30.599-22.979 6.351-11.362-2.891-28.083-14.206-26.793-24.257 1.763-49.703 46.292-16.393 49.772zm-5.836-25.264c4.254-7.008 14.692-17.273 22.438-17.505 7.858 0 10.992 9.929 7.574 16.978-4.88 8.914-12.206 15.505-21.599 18.513-11.993 2.449-14.409-9.669-8.413-17.986z"/><path d="m145.553 143.119c13.858 9.508 43.616-7.831 32.606-25.762-11.083-20.123-52.011 9.363-32.606 25.762zm1.777-11.045c1.117-5.855 10.278-12.695 15.673-14.273 8.177-2.483 14.175 7.027 7.884 14.041-4.202 5.469-24.494 11.975-23.557.232z"/><path d="m68.023 134.173c.397-.015 16.699-2.463 16.853-2.708.855 4.106 2.311 8.137 4.3 11.995l-13.264 6.605c-4.115 1.972-.883 8.365 3.125 6.273l13.77-6.857c2.46 3.522 5.395 6.816 8.732 9.805l-7.149 7.045c-3.284 3.146 1.729 8.229 4.92 4.992l7.753-7.641c5.346 3.796 11.372 6.762 18.189 9.158l-6.726 9.407c-2.692 3.656 3.096 7.816 5.702 4.076l8.095-11.323c4.692 1.233 9.68 2.184 14.954 2.846l-3.563 10.767c-1.484 4.284 5.261 6.554 6.654 2.202.005-.024 4.056-12.241 4.056-12.264 4.477.326 8.89.456 13.338.335l-1.68 8.096c-.986 4.427 5.982 5.904 6.861 1.424l2.051-9.883c7.911-.607 15.614-1.912 22.976-3.887l1.135 16.158c.26 4.55 7.376 4.032 6.99-.491-.096-.573-1.099-17.217-1.306-17.723 4.074-1.367 8.025-2.941 11.82-4.735l2.526 10.103c1.062 4.445 7.962 2.681 6.799-1.699l-2.928-11.712c5.163-2.882 10.001-6.271 14.451-9.988l4.848 11.967c1.674 4.253 8.257 1.543 6.496-2.632-.325-.551-5.492-14.226-6.009-14.157 4.206-4.102 7.985-8.553 11.272-13.27l7.604 7.619c3.165 3.266 8.219-1.781 4.961-4.951l-8.703-8.72c2.592-4.454 4.758-9.096 6.459-13.864l9.923 5.576c3.904 2.289 7.443-3.936 3.434-6.109l-10.978-6.169c.408-4.945 2.168-10.887 1.842-16.445l8.823.368c4.531.261 4.842-6.88.291-7.002l-9.419-.392c-.349-3.845-.983-7.698-1.891-11.489l9.596-2.699c4.393-1.167 2.462-8.042-1.899-6.746l-9.619 2.705c-1.178-3.568-2.582-7.041-4.205-10.351l9.933-5.243c4.052-2.064.718-8.377-3.271-6.197l-10.033 5.296c-1.553-2.541-3.242-4.94-5.048-7.173 2.173-2.064 11.598-7.098 7.896-11.225-3.534-4.189-9.997 4.363-12.297 6.364-2.617-2.562-5.298-4.713-8.351-6.568l8.545-11.759c2.728-3.64-3.051-7.836-5.669-4.12l-9.253 12.733c-3.825-1.469-8.18-2.419-13.017-2.373l2.038-9.535c1.014-4.434-5.968-5.923-6.853-1.465-.003.002-2.524 11.812-2.524 11.816-3.077.651-6.31 1.724-9.686 3.299l-5.301-9.847c-2.101-4.036-8.383-.647-6.171 3.322l5.321 9.884c-2.569 1.603-4.991 3.382-7.311 5.277l-7.147-6.735c-3.264-3.168-8.16 2.032-4.806 5.1l6.668 6.283c-3.065 2.894-5.972 5.942-8.805 9.007-.088-.173-9.076-8.873-9.21-9.033-3.206-3.226-8.196 1.883-4.898 5.012.517.439 8.802 8.728 9.41 9.138-3.082 3.361-5.946 6.444-9.343 9.662l-6.199-6.804c-3.012-3.406-8.291 1.404-5.18 4.719l6.122 6.72c-3.665 2.985-7.673 5.71-12.005 7.752.466-.688-7.466-12.167-7.825-12.981-2.393-3.868-8.409-.021-5.905 3.773.167.2 7.228 11.416 7.43 11.586-6.632 1.93-13.812 1.474-20.773 2.257.593-.778-7.446-13.424-7.796-14.352-2.227-3.967-8.399-.378-6.06 3.519l6.999 12.054c-4.073 1.052-7.869 2.977-11.208 5.561-.021-1.024-10.511-7.502-11.297-8.223-3.719-2.618-7.742 3.282-3.95 5.789.151.085 10.188 6.983 10.336 7.035-2.082 2.357-3.884 5.007-5.358 7.86-.413-.805-11.928-2.37-12.862-2.67-4.463-.862-5.719 6.164-1.232 6.898.117-.002 11.395 2.06 11.498 2.046-1.369 4.312-2.02 8.902-1.812 13.542-1.033-.341-15.454 2.424-16.535 2.416-4.193.559-3.643 7.072.535 6.968zm42.223-40.021c8.102-2.61 17.402-1.367 25.958-3.146 29.971-6.75 40.792-35.392 64.288-50.224h-.001c56.624-32.007 92.167 79.509 19.494 117.418-28.457 17.057-79.799 19.478-108.396.111-24.366-14.43-29.012-53.833-1.343-64.159z"/></g></g></svg>