<svg height="512" viewBox="0 0 60 60" width="512" xmlns="http://www.w3.org/2000/svg"><g id="Page-1" fill="none" fill-rule="evenodd"><g id="012---Virus-Spreading" fill-rule="nonzero"><g id="Icons" transform="translate(1 3)"><circle id="Oval" cx="29" cy="47" fill="#ffdfb1" r="3"/><path id="Shape" d="m29 50c2.209139 0 4 1.790861 4 4v1c0 .5522847-.4477153 1-1 1h-6c-.5522847 0-1-.4477153-1-1v-1c0-2.209139 1.790861-4 4-4z" fill="#9c27af"/><path id="Shape" d="m29 50c-.5146843.0021695-1.0240724.1040471-1.5.3 1.5082666.61012 2.4967043 2.0730078 2.5 3.7v1c0 .5522847-.4477153 1-1 1h3c.5522847 0 1-.4477153 1-1v-1c0-2.209139-1.790861-4-4-4z" fill="#6a1b99"/><circle id="Oval" cx="16" cy="26" fill="#ffdfb1" r="3"/><path id="Shape" d="m16 29c2.209139 0 4 1.790861 4 4v1c0 .5522847-.4477153 1-1 1h-6c-.5522847 0-1-.4477153-1-1v-1c0-2.209139 1.790861-4 4-4z" fill="#9c27af"/><path id="Shape" d="m16 29c-.5146843.0021695-1.0240724.1040471-1.5.3 1.5082666.61012 2.4967043 2.0730078 2.5 3.7v1c0 .5522847-.4477153 1-1 1h3c.5522847 0 1-.4477153 1-1v-1c0-2.209139-1.790861-4-4-4z" fill="#6a1b99"/><circle id="Oval" cx="42" cy="26" fill="#ffdfb1" r="3"/><path id="Shape" d="m42 29c2.209139 0 4 1.790861 4 4v1c0 .5522847-.4477153 1-1 1h-6c-.5522847 0-1-.4477153-1-1v-1c0-2.209139 1.790861-4 4-4z" fill="#9c27af"/><path id="Shape" d="m42 29c-.5146843.0021695-1.0240724.1040471-1.5.3 1.5082666.61012 2.4967043 2.0730078 2.5 3.7v1c0 .5522847-.4477153 1-1 1h3c.5522847 0 1-.4477153 1-1v-1c0-2.209139-1.790861-4-4-4z" fill="#6a1b99"/><circle id="Oval" cx="4" cy="47" fill="#ffdfb1" r="3"/><path id="Shape" d="m4 50c2.209139 0 4 1.790861 4 4v1c0 .5522847-.44771525 1-1 1h-6c-.55228475 0-1-.4477153-1-1v-1c0-2.209139 1.790861-4 4-4z" fill="#9c27af"/><path id="Shape" d="m4 50c-.51468434.0021695-1.02407235.1040471-1.5.3 1.50826659.61012 2.49670429 2.0730078 2.5 3.7v1c0 .5522847-.44771525 1-1 1h3c.55228475 0 1-.4477153 1-1v-1c0-2.209139-1.790861-4-4-4z" fill="#6a1b99"/><circle id="Oval" cx="54" cy="47" fill="#ffdfb1" r="3"/><path id="Shape" d="m54 50c2.209139 0 4 1.790861 4 4v1c0 .5522847-.4477153 1-1 1h-6c-.5522847 0-1-.4477153-1-1v-1c0-2.209139 1.790861-4 4-4z" fill="#9c27af"/><path id="Shape" d="m54 50c-.5146843.0021695-1.0240724.1040471-1.5.3 1.5082666.61012 2.4967043 2.0730078 2.5 3.7v1c0 .5522847-.4477153 1-1 1h3c.5522847 0 1-.4477153 1-1v-1c0-2.209139-1.790861-4-4-4z" fill="#6a1b99"/><circle id="Oval" cx="29" cy="7" fill="#a3c300" r="7"/><path id="Shape" d="m29 0c-.5044849.00078729-1.0074065.05610867-1.5.165 3.2064126.70878162 5.4891145 3.5511831 5.4891145 6.835s-2.2827019 6.1262184-5.4891145 6.835c2.6211486.579393 5.3427728-.3912156 7.0057888-2.4984637 1.663016-2.10724797 1.9744743-4.97993184.8017312-7.39463475-1.172743-2.41470292-3.6231022-3.94606144-6.30752-3.94190155z" fill="#8fab00"/></g><g id="Icons_copy" fill="#000"><path id="Shape" d="m57.793 52.855c1.0343659-1.0043412 1.4447063-2.4895412 1.0726685-3.8824525s-1.4682755-2.4757138-2.8656685-2.8305475v-1.142c0-2.209139-1.790861-4-4-4h-8v-2h2c1.1045695 0 2-.8954305 2-2v-1c-.000727-1.6626784-.8279124-3.2162279-2.207-4.145 1.0343659-1.0043412 1.4447063-2.4895412 1.0726685-3.8824525s-1.4682755-2.4757138-2.8656685-2.8305475v-1.142c0-1.6568542-1.3431458-3-3-3h-10v-3.069c.7221075-.0891244 1.4286459-.2765253 2.1-.557l.532.92c.1773616.3119508.5082732.5049532.8671183.5057421s.6906021-.1907567.8693336-.5019247c.1787314-.3111679.1770325-.694247-.0044519-1.0038174l-.537-.931c.5780049-.4400064 1.0939936-.9559951 1.534-1.534l.931.537c.3095704.1814844.6926495.1831833 1.0038174.0044519.311168-.1787315.5027136-.5104885.5019247-.8693336s-.1937913-.6897567-.5057421-.8671183l-.92-.532c.2804747-.6713541.4678756-1.3778925.557-2.1h1.071c.5522847 0 1-.4477153 1-1 0-.55228475-.4477153-1-1-1h-1.069c-.0891244-.7221075-.2765253-1.42864588-.557-2.1l.92-.532c.3119508-.17736158.5049532-.50827321.5057421-.8671183s-.1907567-.69060211-.5019247-.86933356c-.3111679-.17873145-.694247-.17703252-1.0038174.00445186l-.931.537c-.4400064-.57800491-.9559951-1.09399362-1.534-1.534l.537-.931c.1814844-.30957042.1831833-.69264947.0044519-1.00381742-.1787315-.31116795-.5104885-.50271357-.8693336-.50192468-.3588451.00078888-.6897567.19379132-.8671183.5057421l-.532.92c-.6717913-.28202227-1.3790206-.47077377-2.102-.561v-1.069c0-.55228475-.4477153-1-1-1s-1 .44771525-1 1v1.069c-.7221075.08912441-1.4286459.2765253-2.1.557l-.532-.92c-.1773616-.31195078-.5082732-.50495322-.8671183-.5057421-.3588451-.00078889-.6906021.19075673-.8693336.50192468-.1787314.31116795-.1770325.694247.0044519 1.00381742l.537.931c-.5780049.44000638-1.0939936.95599509-1.534 1.534l-.931-.537c-.3095704-.18148438-.6926495-.18318331-1.0038174-.00445186-.311168.17873145-.5027136.51048847-.5019247.86933356s.1937913.68975672.5057421.8671183l.92.532c-.2813362.67189016-.469414 1.37911632-.559 2.102h-1.069c-.5522847 0-1 .44771525-1 1 0 .5522847.4477153 1 1 1h1.069c.0891244.7221075.2765253 1.4286459.557 2.1l-.92.532c-.3119508.1773616-.5049532.5082732-.5057421.8671183s.1907567.6906021.5019247.8693336c.3111679.1787314.694247.1770325 1.0038174-.0044519l.931-.537c.4400064.5780049.9559951 1.0939936 1.534 1.534l-.537.931c-.1814844.3095704-.1831833.6926495-.0044519 1.0038174.1787315.311168.5104885.5027136.8693336.5019247s.6897567-.1937913.8671183-.5057421l.532-.92c.6713541.2804747 1.3778925.4678756 2.1.557v3.071h-9.998c-1.6568542 0-3 1.3431458-3 3v1.142c-1.397393.3548337-2.4936307 1.4376362-2.8656685 2.8305475s.0383026 2.8781113 1.0726685 3.8824525c-1.3790876.9287721-2.206273 2.4823216-2.207 4.145v1c0 1.1045695.8954305 2 2 2h2v2h-8c-2.209139 0-4 1.790861-4 4v1.142c-1.39739295.3548337-2.49363066 1.4376362-2.86566849 2.8305475s.0383026 2.8781113 1.07266849 3.8824525c-1.37908756.9287721-2.206273 2.4823216-2.207 4.145v1c0 1.1045695.8954305 2 2 2h6c1.1045695 0 2-.8954305 2-2v-1c-.000727-1.6626784-.82791244-3.2162279-2.207-4.145 1.03436589-1.0043412 1.44470632-2.4895412 1.07266849-3.8824525s-1.46827554-2.4757138-2.86566849-2.8305475v-1.142c0-1.1045695.8954305-2 2-2h21v3.142c-1.397393.3548337-2.4936307 1.4376362-2.8656685 2.8305475s.0383026 2.8781113 1.0726685 3.8824525c-1.3790876.9287721-2.206273 2.4823216-2.207 4.145v1c0 1.1045695.8954305 2 2 2h6c1.1045695 0 2-.8954305 2-2v-1c-.000727-1.6626784-.8279124-3.2162279-2.207-4.145 1.0343659-1.0043412 1.4447063-2.4895412 1.0726685-3.8824525s-1.4682755-2.4757138-2.8656685-2.8305475v-3.142h21c1.1045695 0 2 .8954305 2 2v1.142c-1.397393.3548337-2.4936307 1.4376362-2.8656685 2.8305475s.0383026 2.8781113 1.0726685 3.8824525c-1.3790876.9287721-2.206273 2.4823216-2.207 4.145v1c0 1.1045695.8954305 2 2 2h6c1.1045695 0 2-.8954305 2-2v-1c-.000727-1.6626784-.8279124-3.2162279-2.207-4.145zm-33.793-42.855c0-3.3137085 2.6862915-6 6-6s6 2.6862915 6 6-2.6862915 6-6 6c-3.3123376-.0033074-5.9966926-2.6876624-6-6zm-16 47v1h-6v-1c0-1.6568542 1.34314575-3 3-3s3 1.3431458 3 3zm-1-7c0 1.1045695-.8954305 2-2 2s-2-.8954305-2-2 .8954305-2 2-2 2 .8954305 2 2zm26 7v1h-6v-1c0-1.6568542 1.3431458-3 3-3s3 1.3431458 3 3zm-1-7c0 1.1045695-.8954305 2-2 2s-2-.8954305-2-2 .8954305-2 2-2 2 .8954305 2 2zm14-14v1h-6v-1c0-1.6568542 1.3431458-3 3-3s3 1.3431458 3 3zm-1-7c0 1.1045695-.8954305 2-2 2s-2-.8954305-2-2 .8954305-2 2-2 2 .8954305 2 2zm-30 0c0-1.1045695.8954305-2 2-2s2 .8954305 2 2-.8954305 2-2 2-2-.8954305-2-2zm-1 7c0-1.6568542 1.3431458-3 3-3s3 1.3431458 3 3v1h-6zm4 3h2c1.1045695 0 2-.8954305 2-2v-1c-.000727-1.6626784-.8279124-3.2162279-2.207-4.145 1.0343659-1.0043412 1.4447063-2.4895412 1.0726685-3.8824525s-1.4682755-2.4757138-2.8656685-2.8305475v-1.142c0-.5522847.4477153-1 1-1h22c.5522847 0 1 .4477153 1 1v1.142c-1.397393.3548337-2.4936307 1.4376362-2.8656685 2.8305475s.0383026 2.8781113 1.0726685 3.8824525c-1.3790876.9287721-2.206273 2.4823216-2.207 4.145v1c0 1.1045695.8954305 2 2 2h2v2h-24zm35 11c0-1.1045695.8954305-2 2-2s2 .8954305 2 2-.8954305 2-2 2-2-.8954305-2-2zm-1 8v-1c0-1.6568542 1.3431458-3 3-3s3 1.3431458 3 3v1z"/><circle id="Oval" cx="28" cy="8" r="1"/><circle id="Oval" cx="29" cy="12" r="1"/><circle id="Oval" cx="32" cy="9" r="1"/></g></g></g></svg>