<?xml version="1.0" encoding="iso-8859-1"?>
<!-- Generator: Adobe Illustrator 19.0.0, SVG Export Plug-In . SVG Version: 6.00 Build 0)  -->
<svg version="1.1" id="Layer_1" xmlns="http://www.w3.org/2000/svg" xmlns:xlink="http://www.w3.org/1999/xlink" x="0px" y="0px"
	 viewBox="0 0 450.409 450.409" style="enable-background:new 0 0 450.409 450.409;" xml:space="preserve">
<g>
	<g>
		<path style="fill:#15ACE5;" d="M440.409,91.608l-44.025,45.809c0,182.439-146.537,266.406-244.902,262.844
			c-98.258-3.564-141.48-40.357-141.48-40.357c74.264,10.012,129.088-35.283,129.088-35.283
			c-67.314-8.637-80.598-61.581-80.598-61.581c17.641,4.764,39.059-2.382,39.059-2.382c-75.35-23.394-69.211-87.347-69.211-87.347
			c6.051,6.642,38.275,11.395,38.275,11.395C0.182,135.538,40.344,66.821,40.344,66.821c82.98,94.986,181.84,92.613,181.84,92.613
			c-15.279-47.793,22.008-83.589,22.008-83.589c69.201-59.19,127.897,1.985,127.897,1.985c24.295,0,55.83-22.019,55.83-22.019
			c-2.381,25.784-37.287,50.175-37.287,50.175C403.626,107.382,440.409,91.608,440.409,91.608z"/>
	</g>
	<g id="XMLID_44_">
		<g>
			<path style="fill:#FFFFFF;" d="M304.969,97.95c12.297,0,22.309,10.013,22.309,22.309c0,12.297-10.012,22.309-22.309,22.309
				s-22.309-10.012-22.309-22.309C282.661,107.963,292.673,97.95,304.969,97.95z"/>
		</g>
		<g>
			<path style="fill:#231F20;" d="M448.633,85.921c-2.706-3.912-7.791-5.376-12.164-3.504c-3.367,1.443-7.522,3.117-11.962,4.788
				c7.977-10.449,12.463-20.661,13.369-30.473c0.357-3.874-1.566-7.602-4.928-9.559c-3.361-1.957-7.556-1.786-10.749,0.435
				c-7.513,5.229-29.439,18.214-46.366,20.014c-8.979-7.985-34.525-27.579-68.975-27.579c-24.017,0-47.288,9.489-69.167,28.202
				c-0.146,0.125-0.287,0.253-0.426,0.386c-1.555,1.492-34.812,34.084-27.852,80.054c-10.915-1.138-28.271-3.981-48.845-11.082
				c-42.85-14.787-80.766-40.815-112.692-77.361c-2.117-2.423-5.269-3.683-8.476-3.376c-3.204,0.304-6.065,2.131-7.689,4.909
				c-0.457,0.783-11.229,19.468-13.115,44.808c-1.211,16.261,1.146,37.414,14.884,58.149c-2.463-1.476-5.49-1.847-8.302-0.909
				c-3.752,1.25-6.415,4.595-6.793,8.532c-0.072,0.754-1.674,18.722,7.073,39.703c5.277,12.659,15.101,28.122,33.359,40.985
				c-2.697-0.076-5.36,0.922-7.334,2.861c-2.53,2.485-3.555,6.126-2.691,9.567c0.158,0.629,4.016,15.592,17.022,31.458
				c9.105,11.107,24.26,24.456,48.027,32.264c-17.818,9.891-47.021,22.152-82.28,22.154c-6.747,0-13.551-0.456-20.224-1.355
				c-4.391-0.59-8.66,1.783-10.469,5.836c-1.808,4.053-0.729,8.813,2.65,11.688c1.873,1.595,47.025,39.089,147.601,42.736
				c2.111,0.077,4.27,0.115,6.418,0.115c56.159,0,117.094-25.072,163.001-67.069c38.658-35.365,84.645-98.959,85.822-201.832
				l41.259-42.93C450.915,95.108,451.339,89.833,448.633,85.921z M389.174,130.487c-1.79,1.863-2.79,4.347-2.79,6.93
				c0,97.974-43.148,158.013-79.346,191.126c-42.318,38.714-98.206,61.826-149.501,61.826c-1.907,0-3.823-0.034-5.693-0.102
				c-46.07-1.671-79.63-10.936-101.81-19.896c55.901-5.902,93.681-36.602,95.424-38.041c3.072-2.538,4.345-6.658,3.237-10.487
				c-1.106-3.828-4.381-6.634-8.334-7.142c-38.738-4.97-57.455-25.739-65.913-40.062c13.902-0.423,25.741-4.321,26.267-4.496
				c4.118-1.374,6.88-5.249,6.834-9.591c-0.045-4.342-2.887-8.158-7.034-9.446c-45.354-14.081-57.863-43.824-61.179-61.918
				c8.851,2.615,18.754,4.368,25.819,5.41c4.535,0.677,8.949-1.835,10.701-6.074s0.395-9.127-3.293-11.856
				c-42.509-31.462-36.275-71.533-29.262-91.831c79.114,82.127,167.953,84.604,178.224,84.603c0.592,0,0.898-0.008,0.898-0.008
				c3.145-0.084,6.081-1.644,7.901-4.209c1.821-2.564,2.344-5.837,1.386-8.833c-12.777-39.965,16.446-70.378,19.238-73.163
				c18.075-15.383,36.886-23.183,55.911-23.183c33.634,0,57.794,24.484,58.014,24.711c1.886,1.965,4.492,3.076,7.216,3.076
				c10.698,0,22.313-3.552,32.545-7.915c-7.118,8.089-15.291,14.758-19.729,17.874c-3.418,2.389-4.995,6.647-3.958,10.686
				c1.038,4.039,4.473,7.01,8.618,7.455c0.893,0.096,1.85,0.144,2.842,0.144c3.45,0,7.683-0.649,12.233-1.68L389.174,130.487z"/>
			<path style="fill:#231F20;" d="M304.969,87.95c-17.815,0-32.309,14.494-32.309,32.309s14.493,32.309,32.309,32.309
				c17.815,0,32.309-14.493,32.309-32.309C337.278,102.444,322.785,87.95,304.969,87.95z M304.969,132.568
				c-6.787,0-12.309-5.521-12.309-12.309c0-6.787,5.521-12.309,12.309-12.309c6.787,0,12.309,5.522,12.309,12.309
				C317.278,127.047,311.757,132.568,304.969,132.568z"/>
		</g>
	</g>
</g>
<g>
</g>
<g>
</g>
<g>
</g>
<g>
</g>
<g>
</g>
<g>
</g>
<g>
</g>
<g>
</g>
<g>
</g>
<g>
</g>
<g>
</g>
<g>
</g>
<g>
</g>
<g>
</g>
<g>
</g>
</svg>
