<?xml version="1.0"?>
<svg xmlns="http://www.w3.org/2000/svg" id="filled_outline" data-name="filled outline" viewBox="0 0 512 512" width="512" height="512"><polygon points="288 128 288 24 336 24 336 152 288 128" style="fill:#f78e00"/><polygon points="80 440 80 176 216 80 352 176 352 440 80 440" style="fill:#ffc431"/><polygon points="216 96 368 200 384 176 216 56 48 176 64 200 216 96" style="fill:#ffa100"/><path d="M488,128H464V232.71a98.67441,98.67441,0,0,1-79.31982,96.75,104.80283,104.80283,0,0,1-63.13038-6.99L294.62012,310.5A75.25774,75.25774,0,0,0,264,304a67.72363,67.72363,0,0,0-30.31006,7.15991L198.33008,328.84a67.77713,67.77713,0,0,1-60.62012.01L99.47,309.73A54.19741,54.19741,0,0,0,75.21,304h-.40991A56.26822,56.26822,0,0,0,41,315.25c-3.73,2.8-7.54,5.6499-10.6001,7.95A23.96773,23.96773,0,0,1,16,328V272a23.96773,23.96773,0,0,0,14.3999-4.8c3.06006-2.3,6.87012-5.1499,10.6001-7.95A56.26861,56.26861,0,0,1,74.80005,248H75.21a54.19741,54.19741,0,0,1,24.26,5.73l38.24,19.12a67.77713,67.77713,0,0,0,60.62012-.01l35.35986-17.68a67.73526,67.73526,0,0,1,60.62012,0l38.18017,19.08A54.53579,54.53579,0,0,0,356.87012,280a54.49261,54.49261,0,0,0,34.06982-11.95A66.778,66.778,0,0,0,416,215.9V128H392l48-64Z" style="fill:#8be0e8"/><path d="M464,232.71v56a98.67441,98.67441,0,0,1-79.31982,96.75,104.78493,104.78493,0,0,1-63.13038-6.99L294.62012,366.5A75.29946,75.29946,0,0,0,264,360a67.60414,67.60414,0,0,0-30.31006,7.15991L198.33008,384.84a67.74851,67.74851,0,0,1-60.62012.01L99.47,365.73A54.19741,54.19741,0,0,0,75.21,360h-.40991A56.26822,56.26822,0,0,0,41,371.25c-3.73,2.8-7.54,5.6499-10.6001,7.95A23.96773,23.96773,0,0,1,16,384V328a23.96773,23.96773,0,0,0,14.3999-4.8c3.06006-2.3,6.87012-5.1499,10.6001-7.95A56.26822,56.26822,0,0,1,74.80005,304H75.21a54.19741,54.19741,0,0,1,24.26,5.73l38.24,19.12a67.85914,67.85914,0,0,0,60.62012-.01l35.35986-17.68006A67.72363,67.72363,0,0,1,264,304a75.25774,75.25774,0,0,1,30.62012,6.5l26.92968,11.97a104.80283,104.80283,0,0,0,63.13038,6.99A98.68178,98.68178,0,0,0,464,232.71Z" style="fill:#5bd2de"/><rect x="24" y="424" width="152" height="64" style="fill:#ffd873"/><rect x="264" y="424" width="144" height="64" style="fill:#ffd873"/><rect x="176" y="464" width="88" height="24" style="fill:#ffa100"/><rect x="176" y="440" width="88" height="24" style="fill:#ffb401"/><rect x="120" y="192" width="40" height="16"/><path d="M24,496H408a8.00008,8.00008,0,0,0,8-8V424a8.00008,8.00008,0,0,0-8-8H360V395.4458a113.08838,113.08838,0,0,0,26.24609-2.13672,105.989,105.989,0,0,0,74.49219-56.89648A107.22439,107.22439,0,0,0,472,288.70605V136h16a8.00031,8.00031,0,0,0,6.40039-12.7998l-48-64a8.00048,8.00048,0,0,0-12.80078,0l-48,64A8.00031,8.00031,0,0,0,392,136h16v79.90283a58.49646,58.49646,0,0,1-22.06055,45.90137,46.52991,46.52991,0,0,1-49.875,5.28369L297.88867,248a75.77762,75.77762,0,0,0-67.77734,0l-35.36328,17.68164A60.149,60.149,0,0,1,167.99805,272h-.01367a59.999,59.999,0,0,1-26.70118-6.30469l-38.23144-19.1206A62.37865,62.37865,0,0,0,88,241.36328V193.27246L113.24438,176H184V160H136.62891l23.38452-16h111.9729l23.38476,16H200v16H318.75586l23.38428,16H176v16H344v48h16V204.21985l3.48242,2.38269a7.99988,7.99988,0,0,0,11.17383-2.165l16-24a7.99938,7.99938,0,0,0-2.00684-10.94727L344,137.59778V24a8.00008,8.00008,0,0,0-8-8H288a8.00008,8.00008,0,0,0-8,8V91.88348L220.64941,49.49023a7.997,7.997,0,0,0-9.29882,0l-168,120a7.99938,7.99938,0,0,0-2.00684,10.94727l16,24a7.99988,7.99988,0,0,0,11.17383,2.165L72,204.21985v35.84253a63.76179,63.76179,0,0,0-35.80273,12.78674l-10.59864,7.95117A16.09484,16.09484,0,0,1,16,264v16a32.19319,32.19319,0,0,0,19.19922-6.40039L45.7998,265.647A47.95687,47.95687,0,0,1,74.80078,256H75.207a46.48251,46.48251,0,0,1,20.68848,4.88525L134.127,280.00586A76.07921,76.07921,0,0,0,167.98438,288h.01757a76.23564,76.23564,0,0,0,33.90235-8.00781l35.36328-17.68164a59.77651,59.77651,0,0,1,53.46484,0l38.17578,19.08789a62.53086,62.53086,0,0,0,67.02637-7.1001A74.41813,74.41813,0,0,0,424,215.90283V128a8.00008,8.00008,0,0,0-8-8h-8l32-42.6665L472,120h-8a8.00008,8.00008,0,0,0-8,8V232.70605a91.14673,91.14673,0,0,1-9.57227,40.55127,90.09414,90.09414,0,0,1-63.32031,48.3628,96.3062,96.3062,0,0,1-58.31054-6.46485L297.87012,303.1875A82.87556,82.87556,0,0,0,264,296a76.16072,76.16072,0,0,0-33.88867,8l-35.36328,17.68164A60.149,60.149,0,0,1,167.99805,328h-.01367a59.999,59.999,0,0,1-26.70118-6.30469l-38.23144-19.1206A62.56618,62.56618,0,0,0,75.207,296h-.40625a63.83574,63.83574,0,0,0-38.60351,12.84912l-10.59864,7.95117A16.09484,16.09484,0,0,1,16,320v16a32.19319,32.19319,0,0,0,19.19922-6.40039L45.7998,321.647A47.95687,47.95687,0,0,1,74.80078,312H75.207a46.48251,46.48251,0,0,1,20.68848,4.88525L134.127,336.00586A76.07921,76.07921,0,0,0,167.98438,344h.01757a76.23564,76.23564,0,0,0,33.90235-8.00781l35.36328-17.68164A60.0805,60.0805,0,0,1,264,312a66.97648,66.97648,0,0,1,27.37207,5.80859l26.92676,11.96778a112.22143,112.22143,0,0,0,67.94726,7.53271,105.88894,105.88894,0,0,0,69.751-48.39624,91.152,91.152,0,0,1-9.56934,40.34448,90.09414,90.09414,0,0,1-63.32031,48.3628,96.30993,96.30993,0,0,1-58.31054-6.46485L297.87012,359.1875A82.87556,82.87556,0,0,0,264,352a76.16072,76.16072,0,0,0-33.88867,8l-35.36328,17.68164A60.149,60.149,0,0,1,167.99805,384h-.01367a59.999,59.999,0,0,1-26.70118-6.30469l-38.23144-19.1206A62.56618,62.56618,0,0,0,75.207,352h-.40625a63.83574,63.83574,0,0,0-38.60351,12.84912l-10.59864,7.95117A16.09484,16.09484,0,0,1,16,376v16a32.19319,32.19319,0,0,0,19.19922-6.40039L45.7998,377.647A47.95687,47.95687,0,0,1,74.80078,368H75.207a46.48251,46.48251,0,0,1,20.68848,4.88525L134.127,392.00586A76.07921,76.07921,0,0,0,167.98438,400h.01757a76.23564,76.23564,0,0,0,33.90235-8.00781l35.36328-17.68164A60.0805,60.0805,0,0,1,264,368a66.97648,66.97648,0,0,1,27.37207,5.80859l26.92676,11.96778A113.07268,113.07268,0,0,0,344,393.70508V416H264a8.00008,8.00008,0,0,0-8,8v8H184v-8a8.00008,8.00008,0,0,0-8-8H88V384H72v32H24a8.00008,8.00008,0,0,0-8,8v64A8.00008,8.00008,0,0,0,24,496ZM183.398,128,216,105.69336,248.60205,128ZM296,32h32v94.16925l-32-22.85718ZM66.165,188.8252l-7.21192-10.81788L216,65.83105,373.04688,178.00732,365.835,188.8252,220.51758,89.39746a8.00074,8.00074,0,0,0-9.03516,0ZM400,480H312V432h88ZM272,432h24v48H272Zm-88,48v-8h72v8Zm72-32v8H184v-8Zm-88,32H144V432h24ZM32,432h96v48H32Z"/></svg>
