<?xml version="1.0"?>
<svg xmlns="http://www.w3.org/2000/svg" viewBox="0 0 512 512" width="512" height="512"><g id="Filled_outline" data-name="Filled outline"><path d="M144,296l-32,40v29.858A10.142,10.142,0,0,0,122.142,376H144l24-32,104-8V296Z" style="fill:#feb784"/><path d="M248.872,192A24.873,24.873,0,0,0,224,216.872V256h80V192Z" style="fill:#feb784"/><path d="M335.533,192.467c-1.805-18-8.581-52.3-14.773-81.507-.57-2.71-1.14-5.38-1.7-7.98-5.18-24.15-9.55-43.04-9.55-43.04a52.143,52.143,0,0,0-68.42-32.4,49.372,49.372,0,0,0-23.76,19.49,53.1,53.1,0,0,0-2.73,4.75,57.014,57.014,0,0,0-3.28,43.41l3.95,11.09-5.7,25.26,17.44,11.57,7.72,23.6L272,160v40l-38.8,32H296Z" style="fill:#fec9a3"/><path d="M336,200V488H200c-41.5,0-74.05-30.79-79.26-70.77A86.364,86.364,0,0,1,120,405.9a82.1,82.1,0,0,1,69.01-81.05l33.46-5.4-6.81-4.54a41.078,41.078,0,0,1-.61-67.94L233.2,232H296l39.53-39.53C335.83,195.46,336,198.01,336,200Z" style="fill:#f59898"/><path d="M336,219.23V488H200c-41.5,0-74.05-30.79-79.26-70.77C205.23,396.36,286.63,339.1,336,219.23Z" style="fill:#ed9191"/><path d="M275.343,233.429,288,360l-56,32-32-24-16,8,16,24-36.333,16.333L184,448l56-16,81.231-33.846A24,24,0,0,0,336,376V230.4A30.4,30.4,0,0,0,305.6,200h0A30.4,30.4,0,0,0,275.343,233.429Z" style="fill:#fec9a3"/><path d="M267.287,23.7a69.276,69.276,0,0,1,57.078,30.847h0A69.269,69.269,0,0,1,336,92.975h0a52.514,52.514,0,0,0,21.991,42.733l9.679,6.913A58.1,58.1,0,0,1,392,189.9V192a56,56,0,0,1-56,56h0a64,64,0,0,1-64-64V96h0c-25.095-5.019-46.013-22.618-56.464-45.978C215.536,50.022,227.167,21.5,267.287,23.7Z" style="fill:#92563a"/><polyline points="144 328 144 360 160 360 176 320" style="fill:#feb784"/><path d="M372.32,136.111l-9.679-6.913A44.6,44.6,0,0,1,344,92.975,77.278,77.278,0,0,0,267.541,15.7c-42.9-2.263-59.8,31.913-60.066,32.441a65.093,65.093,0,0,0-3.758,49.538c.022.064.044.129.067.193l3.172,8.905-5.19,23a8,8,0,0,0,3.381,8.427l15.124,10.034,6.855,20.957a8,8,0,0,0,9.02,5.387L264,169.574V184H248.873A32.91,32.91,0,0,0,216,216.872v18.944l-5.795,4.78A49.317,49.317,0,0,0,189.92,288H144a8,8,0,0,0-6.247,3l-32,40A8,8,0,0,0,104,336v29.86a18.167,18.167,0,0,0,11.084,16.711A89.8,89.8,0,0,0,112,405.9c0,24.159,8.965,46.747,25.242,63.6,14.63,15.17,32.257,24.6,53.175,26.454L208,496v-8a8,8,0,0,0-8-8,70.518,70.518,0,0,1-51.245-21.606A75,75,0,0,1,128,405.9a73.719,73.719,0,0,1,11.352-39.4A7.96,7.96,0,0,0,144,368h16a8,8,0,0,0,7.428-5.029l10.9-27.246a74.166,74.166,0,0,1,11.958-2.978l33.461-5.4a8,8,0,0,0,3.163-14.554l-6.807-4.538a33.754,33.754,0,0,1-14.279-22.079,33.246,33.246,0,0,1,13.788-32.634q.273-.189.529-.4L236.074,240h31.883l7.081,70.771c0,.041.007.083.011.125l4.474,44.734L232.6,382.446,204.8,361.6a7.993,7.993,0,0,0-8.378-.755l-16,8a8,8,0,0,0-3.078,11.593L188.1,396.576,160.39,409.033a8,8,0,0,0-3.453,11.618l20.331,31.67A8,8,0,0,0,184,456c.73,0,58.2-16.309,58.2-16.309.3-.086,82.106-34.156,82.106-34.156a32.143,32.143,0,0,0,3.7-1.843V496h16V255.482A64.081,64.081,0,0,0,400,192v-2.1A66.234,66.234,0,0,0,372.32,136.111ZM187.738,316.951a90.129,90.129,0,0,0-12.212,2.86l-6.954-2.782L154.583,352H152V328H136v16.712A89.276,89.276,0,0,0,120.658,367.4,2.132,2.132,0,0,1,120,365.86V338.807L147.845,304s47.409,0,47.415.011a48.943,48.943,0,0,0,7.583,10.5ZM240.168,157.6l-5.555-16.981a8,8,0,0,0-3.18-4.179l-12.846-8.522,4.487-19.881a8,8,0,0,0-.268-4.445l-3.914-10.99a49.26,49.26,0,0,1-1.669-23.634A86.978,86.978,0,0,0,264,102.289v51.023Zm8.7,42.4h10.554L232,222.62v-5.748A16.891,16.891,0,0,1,248.873,200Zm20.891,12.214c.307.716.634,1.421.963,2.125A38.152,38.152,0,0,0,267.744,224h-12.27Zm48.389,178.552-80.8,33.671L187.52,438.674l-12.1-18.854L203.28,407.3a8,8,0,0,0,3.376-11.735L195.683,379.1l3.472-1.737L227.2,398.4a8,8,0,0,0,8.769.546l56-32a8,8,0,0,0,3.991-7.742l-4.979-49.787c0-.041-.007-.082-.011-.124l-7.631-76.264A71.863,71.863,0,0,0,328,255.545V376A15.95,15.95,0,0,1,318.153,390.766ZM384,192a48.054,48.054,0,0,1-48,48,56.063,56.063,0,0,1-56-56V96a8,8,0,0,0-6.431-7.845C252.627,83.968,234.533,69.9,224.5,50.219c3.91-6.2,15.672-20.01,42.355-18.53q.186.011.372.012A61.275,61.275,0,0,1,328,92.975a60.635,60.635,0,0,0,25.341,49.243l9.679,6.913A50.2,50.2,0,0,1,384,189.9Z"/></g></svg>
