<?xml version="1.0" encoding="UTF-8" standalone="no"?>
<!-- Created with Inkscape (http://www.inkscape.org/) -->

<svg
   xmlns:dc="http://purl.org/dc/elements/1.1/"
   xmlns:cc="http://creativecommons.org/ns#"
   xmlns:rdf="http://www.w3.org/1999/02/22-rdf-syntax-ns#"
   xmlns:svg="http://www.w3.org/2000/svg"
   xmlns="http://www.w3.org/2000/svg"
   xmlns:sodipodi="http://sodipodi.sourceforge.net/DTD/sodipodi-0.dtd"
   xmlns:inkscape="http://www.inkscape.org/namespaces/inkscape"
   width="1024"
   height="1024"
   viewBox="0 0 270.93333 270.93333"
   version="1.1"
   id="svg8"
   inkscape:version="0.92.5 (2060ec1f9f, 2020-04-08)"
   sodipodi:docname="coronavirus-chapeco-logo.svg"
   inkscape:export-filename="C:\Users\dovys\Desktop\bitmap.png"
   inkscape:export-xdpi="198.33629"
   inkscape:export-ydpi="198.33629">
  <defs
     id="defs2" />
  <sodipodi:namedview
     id="base"
     pagecolor="#ffffff"
     bordercolor="#666666"
     borderopacity="1.0"
     inkscape:pageopacity="0.0"
     inkscape:pageshadow="2"
     inkscape:zoom="0.24748737"
     inkscape:cx="144.15865"
     inkscape:cy="605.54349"
     inkscape:document-units="mm"
     inkscape:current-layer="layer1"
     showgrid="false"
     units="px"
     inkscape:window-width="3840"
     inkscape:window-height="2066"
     inkscape:window-x="-11"
     inkscape:window-y="-11"
     inkscape:window-maximized="1" />
  <metadata
     id="metadata5">
    <rdf:RDF>
      <cc:Work
         rdf:about="">
        <dc:format>image/svg+xml</dc:format>
        <dc:type
           rdf:resource="http://purl.org/dc/dcmitype/StillImage" />
        <dc:title></dc:title>
      </cc:Work>
    </rdf:RDF>
  </metadata>
  <g
     inkscape:label="Layer 1"
     inkscape:groupmode="layer"
     id="layer1"
     transform="translate(0,-26.066725)">
    <g
       id="g1390"
       transform="matrix(0.50450962,0,0,0.50450962,5.2538705,28.67476)">
      <g
         id="g1374">
        <path
           id="path1366"
           d="m 475.714,211.845 c -11.246,0 -20.98,9.899 -25.717,24.321 h -42.116 c -3.55,-27.455 -14.375,-52.624 -30.472,-73.525 l 29.792,-29.792 c 13.547,6.848 27.429,6.965 35.382,-0.987 11.242,-11.242 6.376,-34.334 -10.867,-51.577 -17.243,-17.243 -40.335,-22.109 -51.577,-10.867 -7.952,7.952 -7.835,21.834 -0.987,35.382 L 349.36,134.592 C 328.458,118.495 303.289,107.671 275.835,104.12 V 62.003 C 290.257,57.266 300.156,47.533 300.156,36.286 300.155,20.388 280.386,7.5 256,7.5 c -24.386,0 -44.155,12.888 -44.155,28.786 0,11.246 9.899,20.98 24.321,25.717 v 42.116 c -27.455,3.55 -52.624,14.375 -73.525,30.472 L 132.849,104.799 C 139.697,91.252 139.814,77.37 131.862,69.417 120.62,58.175 97.528,63.041 80.285,80.284 63.041,97.528 58.176,120.619 69.418,131.861 c 7.952,7.952 21.834,7.835 35.382,0.987 l 29.792,29.792 c -16.097,20.902 -26.921,46.071 -30.472,73.525 H 62.003 C 57.266,221.743 47.533,211.844 36.286,211.844 20.388,211.845 7.5,231.614 7.5,256 c 0,24.386 12.888,44.155 28.786,44.155 11.246,0 20.98,-9.899 25.717,-24.321 h 42.116 c 3.55,27.454 14.375,52.624 30.472,73.525 l -29.792,29.792 c -13.547,-6.848 -27.429,-6.965 -35.382,0.987 -11.242,11.242 -6.376,34.334 10.867,51.577 17.243,17.243 40.335,22.109 51.577,10.867 7.952,-7.952 7.835,-21.835 0.987,-35.382 l 29.792,-29.792 c 20.902,16.097 46.071,26.921 73.526,30.472 v 42.116 c -14.422,4.737 -24.321,14.47 -24.321,25.717 0,15.898 19.769,28.786 44.155,28.786 24.386,0 44.155,-12.888 44.155,-28.786 0,-11.246 -9.899,-20.98 -24.321,-25.717 V 407.88 c 27.455,-3.55 52.624,-14.375 73.526,-30.472 l 29.792,29.792 c -6.848,13.547 -6.965,27.429 0.987,35.382 11.242,11.242 34.334,6.376 51.577,-10.867 17.244,-17.243 22.109,-40.335 10.867,-51.577 -7.952,-7.952 -21.834,-7.835 -35.382,-0.987 l -29.792,-29.792 c 16.097,-20.902 26.921,-46.071 30.472,-73.525 h 42.116 c 4.737,14.422 14.47,24.321 25.717,24.321 15.898,0 28.786,-19.769 28.786,-44.155 0,-24.386 -12.888,-44.155 -28.786,-44.155 z"
           inkscape:connector-curvature="0"
           style="fill:#36d39a" />
        <path
           id="path1368"
           d="m 357.941,231.838 c -10.5,-6.407 -15.66,-18.862 -12.768,-30.817 l 0.009,-0.036 c 4.98,-20.584 -13.582,-39.145 -34.166,-34.166 l -0.036,0.009 c -11.955,2.892 -24.41,-2.268 -30.817,-12.768 -11.033,-18.082 -37.29,-18.082 -48.323,0 -6.407,10.5 -18.861,15.66 -30.817,12.768 l -0.036,-0.009 c -20.584,-4.98 -39.145,13.582 -34.166,34.166 l 0.009,0.036 c 2.892,11.955 -2.268,24.41 -12.768,30.817 -18.082,11.033 -18.082,37.29 0,48.324 10.5,6.407 15.66,18.861 12.768,30.817 l -0.009,0.036 c -4.98,20.584 13.582,39.145 34.166,34.166 l 0.036,-0.009 c 11.955,-2.892 24.41,2.268 30.817,12.768 11.033,18.082 37.29,18.082 48.323,0 6.407,-10.5 18.861,-15.66 30.817,-12.768 l 0.036,0.009 c 20.584,4.98 39.145,-13.582 34.166,-34.166 l -0.009,-0.036 c -2.892,-11.955 2.268,-24.41 12.768,-30.817 18.082,-11.033 18.082,-37.29 0,-48.324 z"
           inkscape:connector-curvature="0"
           style="fill:#b0ebce" />
        <path
           id="path1370"
           d="m 212.13,402.763 c -50.106,-36.952 -82.413,-95.052 -82.413,-160.406 0,-39.756 11.96,-76.826 32.602,-108.088 l -29.47,-29.47 C 139.697,91.252 139.814,77.37 131.862,69.417 120.62,58.175 97.529,63.041 80.285,80.284 63.041,97.527 58.176,120.619 69.418,131.861 c 7.952,7.952 21.834,7.835 35.382,0.987 l 29.792,29.792 c -16.097,20.902 -26.922,46.071 -30.472,73.525 H 62.003 C 57.266,221.743 47.533,211.844 36.286,211.844 20.388,211.845 7.5,231.614 7.5,256 c 0,24.386 12.888,44.155 28.786,44.155 11.246,0 20.98,-9.899 25.717,-24.321 h 42.116 c 3.55,27.455 14.375,52.624 30.472,73.526 l -29.792,29.792 c -13.547,-6.848 -27.429,-6.965 -35.382,0.987 -11.242,11.242 -6.376,34.333 10.867,51.577 17.244,17.243 40.335,22.109 51.577,10.867 7.952,-7.953 7.835,-21.834 0.987,-35.382 l 29.792,-29.792 c 14.631,11.267 31.358,19.939 49.49,25.354 z"
           inkscape:connector-curvature="0"
           style="fill:#00c67f" />
        <path
           id="path1372"
           d="m 173.267,239.223 c 0,-27.153 10.598,-52.187 28.441,-72.258 -0.229,-0.049 -0.458,-0.082 -0.687,-0.137 l -0.036,-0.009 c -20.584,-4.98 -39.145,13.582 -34.166,34.166 l 0.009,0.036 c 2.892,11.955 -2.268,24.41 -12.768,30.817 -18.082,11.033 -18.082,37.29 0,48.324 10.5,6.407 15.66,18.862 12.768,30.817 l -0.009,0.036 c -4.979,20.584 13.582,39.145 34.166,34.166 l 0.036,-0.009 c 11.956,-2.892 24.41,2.268 30.817,12.768 11.033,18.082 37.29,18.082 48.323,0 0.468,-0.768 0.978,-1.498 1.509,-2.207 -62.094,-12.2 -108.403,-59.732 -108.403,-116.51 z"
           inkscape:connector-curvature="0"
           style="fill:#80dfb5" />
      </g>
      <g
         id="g1388">
        <path
           id="path1376"
           d="m 361.847,286.564 c 22.899,-13.973 22.848,-47.186 0,-61.128 -7.747,-4.727 -11.519,-13.83 -9.376,-22.687 6.298,-26.037 -17.168,-49.525 -43.256,-43.21 -8.82,2.133 -17.924,-1.638 -22.651,-9.385 C 275.356,131.784 255,132.731 256,132.998 c -12.583,0 -24.01,6.414 -30.564,17.156 -4.727,7.747 -13.831,11.516 -22.687,9.376 -26.04,-6.3 -49.522,17.167 -43.211,43.255 2.134,8.821 -1.638,17.924 -9.385,22.651 -22.898,13.972 -22.849,47.186 0,61.128 7.747,4.727 11.519,13.83 9.376,22.687 -6.298,26.036 17.167,49.524 43.256,43.21 8.82,-2.131 17.924,1.638 22.651,9.386 13.972,22.898 47.186,22.848 61.128,0 4.728,-7.748 13.831,-11.517 22.687,-9.377 26.037,6.299 49.522,-17.165 43.21,-43.255 -2.133,-8.821 1.639,-17.924 9.386,-22.651 z m -23.956,26.215 c 3.651,15.09 -9.931,28.785 -25.149,25.104 -15.182,-3.673 -30.847,2.818 -38.983,16.152 -8.119,13.305 -27.418,13.276 -35.519,0 -8.174,-13.397 -23.876,-19.808 -39.019,-16.143 -15.095,3.647 -28.785,-9.934 -25.104,-25.149 3.672,-15.181 -2.818,-30.847 -16.151,-38.983 -13.306,-8.119 -13.276,-27.418 0,-35.519 13.333,-8.135 19.824,-23.801 16.143,-39.019 -3.651,-15.089 9.93,-28.785 25.148,-25.104 15.182,3.673 30.848,-2.818 38.983,-16.151 8.119,-13.305 27.418,-13.277 35.519,0 8.135,13.333 23.8,19.827 39.019,16.143 15.118,-3.655 28.78,9.956 25.104,25.149 -3.672,15.181 2.818,30.847 16.152,38.982 13.306,8.119 13.277,27.418 0,35.519 -13.333,8.135 -19.824,23.801 -16.143,39.019 z"
           inkscape:connector-curvature="0" />
        <path
           id="path1378"
           d="m 67.18,283.334 h 30.485 c 4.031,23.453 13.291,45.793 27.061,65.284 l -21.57,21.569 c -15.309,-6.096 -29.934,-4.46 -39.042,4.648 -23.302,23.302 5.518,72.508 42.664,80.335 28.728,6.053 46.74,-16.931 35.036,-46.326 l 21.569,-21.57 c 19.491,13.769 41.831,23.029 65.284,27.06 v 30.485 c -15.136,6.516 -24.32,18.014 -24.32,30.894 C 204.346,496.061 227.035,512 256,512 c 28.966,0 51.655,-15.939 51.655,-36.287 0,-12.88 -9.184,-24.378 -24.321,-30.894 v -30.485 c 23.454,-4.031 45.794,-13.291 65.284,-27.06 l 21.57,21.569 c -14.437,36.255 16.221,60.727 52.411,39.397 3.569,-2.103 4.757,-6.701 2.654,-10.27 -2.103,-3.568 -6.7,-4.756 -10.269,-2.653 -11.855,6.987 -23.727,7.775 -29.541,1.961 -5.282,-5.283 -5.124,-15.761 0.403,-26.695 1.462,-2.892 0.901,-6.396 -1.39,-8.687 l -29.792,-29.792 c -2.665,-2.665 -6.893,-2.938 -9.879,-0.639 -20.352,15.673 -44.527,25.693 -69.911,28.976 -3.739,0.483 -6.538,3.667 -6.538,7.438 v 42.116 c 0,3.24 2.081,6.114 5.16,7.125 11.64,3.824 19.162,11.121 19.162,18.591 C 292.655,487.252 275.869,497 256,497 c -19.869,0 -36.654,-9.748 -36.654,-21.287 0,-7.47 7.521,-14.768 19.161,-18.591 3.079,-1.011 5.16,-3.885 5.16,-7.125 v -42.116 c 0,-3.771 -2.799,-6.955 -6.538,-7.438 -25.384,-3.283 -49.559,-13.302 -69.911,-28.976 -2.986,-2.299 -7.215,-2.026 -9.88,0.639 l -29.792,29.792 c -2.291,2.291 -2.852,5.795 -1.39,8.687 5.527,10.935 5.685,21.413 0.402,26.695 -8.159,8.158 -26.921,3.183 -40.97,-10.867 -14.049,-14.05 -19.026,-32.812 -10.868,-40.971 5.283,-5.282 15.762,-5.124 26.695,0.403 2.892,1.462 6.396,0.901 8.687,-1.39 l 29.792,-29.792 c 2.665,-2.665 2.938,-6.894 0.639,-9.879 -15.673,-20.353 -25.693,-44.527 -28.976,-69.911 -0.483,-3.739 -3.667,-6.538 -7.438,-6.538 H 62.003 c -3.24,0 -6.114,2.081 -7.125,5.16 -3.823,11.64 -11.121,19.161 -18.592,19.161 C 24.748,292.655 15,275.869 15,256 c 0,-19.869 9.748,-36.655 21.286,-36.655 7.471,0 14.769,7.521 18.592,19.161 1.011,3.079 3.885,5.16 7.125,5.16 h 42.116 c 3.77,0 6.954,-2.799 7.438,-6.538 3.283,-25.384 13.303,-49.559 28.976,-69.911 2.299,-2.986 2.026,-7.215 -0.639,-9.879 l -29.792,-29.792 c -2.291,-2.292 -5.794,-2.853 -8.687,-1.39 -10.934,5.527 -21.413,5.685 -26.695,0.403 -6.149,-6.15 -4.866,-19.069 3.12,-31.418 2.25,-3.479 1.254,-8.122 -2.225,-10.371 -3.478,-2.249 -8.121,-1.253 -10.371,2.225 -23.724,36.683 0.482,69.722 37.911,54.819 l 21.57,21.569 c -13.77,19.491 -23.029,41.832 -27.061,65.284 H 67.18 C 60.665,213.531 49.167,204.347 36.286,204.347 15.939,204.345 0,227.035 0,256 c 0,28.965 15.939,51.655 36.286,51.655 12.881,0 24.379,-9.185 30.894,-24.321 z"
           inkscape:connector-curvature="0" />
        <path
           id="path1380"
           d="m 444.821,283.334 c 6.515,15.136 18.013,24.321 30.893,24.321 20.347,0 36.286,-22.69 36.286,-51.655 0,-28.965 -15.939,-51.655 -36.287,-51.655 -12.88,0 -24.378,9.184 -30.893,24.32 h -30.486 c -4.031,-23.453 -13.291,-45.793 -27.06,-65.284 l 21.57,-21.569 c 15.31,6.096 29.935,4.46 39.042,-4.648 23.105,-23.105 -5.274,-72.456 -42.663,-80.335 -28.728,-6.052 -46.741,16.931 -35.035,46.327 l -21.57,21.569 C 329.127,110.956 306.787,101.696 283.334,97.665 V 67.18 C 298.471,60.664 307.655,49.166 307.655,36.286 307.655,15.939 284.966,0 256,0 c -28.965,0 -51.654,15.939 -51.654,36.286 0,12.88 9.184,24.378 24.32,30.894 v 30.485 c -23.453,4.031 -45.793,13.291 -65.284,27.06 l -21.569,-21.57 C 156.298,66.776 125.447,42.463 89.34,63.794 c -3.566,2.107 -4.75,6.706 -2.643,10.272 2.107,3.566 6.705,4.749 10.272,2.643 11.873,-7.016 23.763,-7.814 29.588,-1.99 5.283,5.283 5.125,15.761 -0.402,26.695 -1.462,2.892 -0.901,6.396 1.39,8.687 l 29.792,29.792 c 2.665,2.666 6.894,2.938 9.88,0.639 20.352,-15.674 44.527,-25.693 69.911,-28.976 3.739,-0.483 6.538,-3.667 6.538,-7.438 V 62.003 c 0,-3.24 -2.081,-6.114 -5.16,-7.125 C 226.866,51.054 219.345,43.757 219.345,36.287 219.346,24.748 236.131,15 256,15 c 19.869,0 36.655,9.748 36.655,21.286 0,7.47 -7.521,14.768 -19.162,18.591 -3.079,1.011 -5.16,3.885 -5.16,7.125 v 42.116 c 0,3.771 2.799,6.955 6.538,7.438 25.385,3.283 49.56,13.302 69.911,28.976 2.987,2.3 7.215,2.026 9.879,-0.639 l 29.792,-29.792 c 2.292,-2.291 2.852,-5.795 1.39,-8.687 -5.527,-10.934 -5.686,-21.412 -0.403,-26.695 8.159,-8.158 26.921,-3.182 40.971,10.867 14.049,14.049 19.026,32.812 10.867,40.971 -5.283,5.282 -15.761,5.124 -26.695,-0.403 -2.892,-1.462 -6.396,-0.901 -8.687,1.39 l -29.792,29.792 c -2.665,2.665 -2.938,6.894 -0.639,9.879 15.674,20.353 25.693,44.527 28.976,69.911 0.483,3.739 3.668,6.538 7.438,6.538 h 42.116 c 3.24,0 6.114,-2.081 7.125,-5.16 3.823,-11.64 11.12,-19.161 18.591,-19.161 C 487.252,219.345 497,236.131 497,256 c 0,19.869 -9.748,36.655 -21.287,36.655 -7.47,0 -14.768,-7.521 -18.591,-19.161 -1.011,-3.079 -3.885,-5.16 -7.125,-5.16 h -42.116 c -3.77,0 -6.955,2.799 -7.438,6.538 -3.282,25.384 -13.302,49.559 -28.976,69.911 -2.3,2.986 -2.026,7.215 0.639,9.879 l 29.792,29.792 c 2.291,2.291 5.794,2.852 8.687,1.39 10.934,-5.527 21.412,-5.685 26.695,-0.403 6.161,6.161 4.866,19.1 -3.149,31.465 -3.265,5.036 0.436,11.581 6.286,11.581 2.457,0 4.865,-1.206 6.301,-3.421 23.764,-36.662 -0.392,-69.805 -37.873,-54.878 l -21.57,-21.569 c 13.769,-19.491 23.029,-41.832 27.06,-65.284 h 30.486 z"
           inkscape:connector-curvature="0" />
        <path
           id="path1382"
           d="m 275.738,256.717 c -3.123,-2.721 -7.86,-2.396 -10.582,0.727 -4.832,5.546 -13.446,5.583 -18.313,0 -2.722,-3.123 -7.459,-3.448 -10.582,-0.727 -3.123,2.722 -3.448,7.459 -0.727,10.582 10.829,12.426 30.112,12.414 40.929,0 2.724,-3.123 2.398,-7.86 -0.725,-10.582 z"
           inkscape:connector-curvature="0" />
        <path
           id="path1384"
           d="m 212.4,240.819 -21.648,-5.801 c -4.001,-1.07 -8.114,1.302 -9.186,5.303 -1.072,4.001 1.302,8.114 5.303,9.186 l 5.633,1.51 c -0.313,1.423 -0.121,1.553 -0.179,10.941 0,4.142 3.357,7.5 7.5,7.5 4.142,0 7.5,-3.358 7.5,-7.5 v -6.969 l 1.193,0.32 c 4.009,1.072 8.115,-1.307 9.186,-5.303 1.073,-4.001 -1.301,-8.114 -5.302,-9.187 z"
           inkscape:connector-curvature="0" />
        <path
           id="path1386"
           d="m 321.248,235.019 -21.647,5.801 c -4.001,1.072 -6.376,5.185 -5.304,9.186 0.898,3.351 3.928,5.561 7.24,5.561 1.398,0 2.268,-0.376 3.139,-0.577 v 6.969 c 0,4.142 3.358,7.5 7.5,7.5 4.142,0 7.5,-3.358 7.5,-7.5 -0.058,-9.381 0.134,-9.513 -0.179,-10.941 l 5.633,-1.51 c 4.001,-1.072 6.375,-5.185 5.303,-9.186 -1.072,-4.001 -5.184,-6.374 -9.185,-5.303 z"
           inkscape:connector-curvature="0" />
      </g>
    </g>
    <g
       id="g1438"
       transform="matrix(0.00107173,-0.23928302,0.23928302,0.00107173,144.97611,292.72305)">
      <path
         id="path1412"
         d="M 256,7.5 C 118.75781,7.5 7.5,118.66016 7.5,255.78125 c 0,137.12109 111.25781,248.27734 248.5,248.27734 137.24219,0 248.5,-111.15625 248.5,-248.27734 C 504.5,118.66016 393.24219,7.5 256,7.5 Z M 61.859375,255.78125 c 0,-43.64844 14.429687,-83.92188 38.781255,-116.33594 L 372.43359,411 C 339.99609,435.32812 299.68359,449.75 256,449.75 148.77734,449.75 61.859375,362.90625 61.859375,255.78125 Z M 410.9375,372.66016 139.01562,100.98047 C 171.55078,76.398438 212.06641,61.8125 256,61.8125 c 107.22266,0 194.14062,86.83984 194.14062,193.96875 0,43.89453 -14.60156,84.375 -39.20312,116.87891 z m 0,0"
         inkscape:connector-curvature="0"
         style="fill:#e5554e" />
      <path
         id="path1414"
         d="m 256,7.5 c -5.03906,0 -10.03516,0.167969 -15,0.464844 130.25781,7.75 233.5,115.726566 233.5,247.816406 0,132.08594 -103.24219,240.06641 -233.5,247.81641 4.96484,0.29297 9.96094,0.46093 15,0.46093 137.24219,0 248.5,-111.15625 248.5,-248.27734 C 504.5,118.66016 393.24219,7.5 256,7.5 Z m 0,0"
         inkscape:connector-curvature="0"
         style="fill:#c62430" />
      <path
         id="path1416"
         d="m 306.39453,257.60937 c -2.92578,-2.92578 -7.67578,-2.92578 -10.60547,0.008 -2.92578,2.92968 -2.92578,7.67968 0.008,10.60547 l 109.83985,109.74609 c 1.41015,1.41016 3.32031,2.19141 5.30078,2.19141 0.17187,0 0.34375,-0.004 0.51562,-0.0156 2.16407,-0.15234 4.15625,-1.23047 5.46485,-2.95703 26.64062,-35.19922 40.72265,-77.17969 40.72265,-121.41016 0,-50.64843 -18.8789,-99.0625 -53.16796,-136.32031 -34.07813,-37.031249 -80.35157,-59.878905 -130.30469,-64.339842 -4.14063,-0.375 -7.76953,2.679687 -8.14063,6.804687 -0.36718,4.125 2.67969,7.769531 6.80469,8.136719 46.23047,4.125 89.05859,25.277344 120.60156,59.554686 31.73047,34.48438 49.20703,79.29297 49.20703,126.16797 0,38.03906 -11.25,74.27734 -32.6289,105.35156 z m 0,0"
         inkscape:connector-curvature="0" />
      <path
         id="path1418"
         d="m 245.97266,61.921875 c -0.3711,-4.125 -4.02344,-7.171875 -8.14063,-6.804687 -37.51172,3.351562 -73.24219,17.140624 -103.33984,39.878906 -1.73047,1.308594 -2.8086,3.300781 -2.96094,5.468746 -0.14844,2.16407 0.64844,4.28907 2.18359,5.82032 l 137.375,137.2539 c 1.46485,1.46485 3.38282,2.19531 5.30078,2.19531 1.92188,0 3.83985,-0.73437 5.30469,-2.19921 2.92969,-2.92969 2.92578,-7.67969 -0.004,-10.60547 L 150.55859,101.91016 c 26.3125,-18.03516 56.76953,-29.007816 88.60938,-31.851566 4.125,-0.367188 7.17187,-4.011719 6.80469,-8.136719 z m 0,0"
         inkscape:connector-curvature="0" />
      <path
         id="path1420"
         d="m 100.10938,131.96484 c -2.164068,0.15625 -4.160161,1.23828 -5.464849,2.97657 C 68.289062,170.01953 54.359375,211.80469 54.359375,255.78125 54.359375,366.87109 144.81641,457.25 256,457.25 c 44.01172,0 85.82812,-13.91797 120.9375,-40.24609 1.73828,-1.3086 2.82422,-3.30469 2.98047,-5.47266 0.15234,-2.16797 -0.64453,-4.29687 -2.1836,-5.83594 L 105.94141,134.14063 c -1.53516,-1.53516 -3.66016,-2.32422 -5.83203,-2.17579 z M 256,442.25 c -102.91406,0 -186.640625,-83.64844 -186.640625,-186.46875 0,-37.79297 11.117187,-73.83984 32.230465,-104.78516 L 360.87109,410.05078 C 329.89844,431.14453 293.82812,442.25 256,442.25 Z m 0,0"
         inkscape:connector-curvature="0" />
      <path
         id="path1422"
         d="M 437.01953,74.914062 C 388.66406,26.605469 324.37891,0 256,0 187.62109,0 123.33594,26.605469 74.980469,74.914062 26.628906,123.22656 0,187.45703 0,255.78125 c 0,65.18359 24.550781,127.26953 69.125,174.81641 44.35937,47.32031 104.32812,75.85156 168.85547,80.33984 4.13281,0.27344 7.71484,-2.83203 8,-6.96484 0.28906,-4.13282 -2.82813,-7.71485 -6.96094,-8 C 178.28125,491.75 121.83203,464.89062 80.066406,420.33984 38.109375,375.58203 15,317.14062 15,255.78125 15,191.46875 40.066406,131.00391 85.585938,85.523438 131.10547,40.046875 191.625,15 256,15 320.375,15 380.89453,40.046875 426.41406,85.523438 471.93359,131.00391 497,191.46875 497,255.78125 c 0,61.35937 -23.10938,119.80078 -65.06641,164.55859 -41.76562,44.55078 -98.21484,71.41016 -158.95312,75.63282 -4.13281,0.28906 -7.25,3.87109 -6.96094,8.0039 0.27344,3.95313 3.56641,6.97656 7.47266,6.97656 0.17578,0 0.35156,-0.004 0.52734,-0.0156 64.52734,-4.4883 124.49609,-33.01955 168.85547,-80.33986 C 487.44922,383.05078 512,320.96484 512,255.78125 512,187.45703 485.37109,123.22656 437.01953,74.914062 Z m 0,0"
         inkscape:connector-curvature="0" />
    </g>
  </g>
</svg>
